<?xml version="1.0" encoding="UTF-8"?>
<svg width="4314px" height="4314px" viewBox="0 0 4314 4314" version="1.1" xmlns="http://www.w3.org/2000/svg" xmlns:xlink="http://www.w3.org/1999/xlink">
    <!-- Generator: Sketch 58 (84663) - https://sketch.com -->
    <title>circular-clock</title>
    <desc>Created with Sketch.</desc>
    <g id="Page-1" stroke="none" stroke-width="1" fill="none" fill-rule="evenodd">
        <g id="Artboard" transform="translate(-238.000000, -349.000000)">
            <g id="circular-clock" transform="translate(238.000000, 349.000000)">
                <circle id="Oval" fill="#AFB9D2" fill-rule="nonzero" cx="2157" cy="2157" r="2157"></circle>
                <circle id="Oval" fill="#8F96AC" fill-rule="nonzero" cx="2157" cy="2157" r="1934"></circle>
                <circle id="Oval" fill="#FFFFFF" fill-rule="nonzero" cx="2157" cy="2157" r="1785"></circle>
                <g id="Group" transform="translate(520.000000, 520.000000)" fill="#5B5D6E" fill-rule="nonzero">
                    <path d="M1637,372.572477 L1637,372.572477 C1595.925,372.572477 1562.61844,339.265918 1562.61844,298.190918 L1562.61844,75.0630923 C1562.61844,33.9880923 1595.925,0.681533333 1637,0.681533333 L1637,0.681533333 C1678.075,0.681533333 1711.38156,33.9880923 1711.38156,75.0630923 L1711.38156,298.199344 C1711.38156,339.265918 1678.075,372.572477 1637,372.572477 Z" id="Path"></path>
                    <path d="M1637,3273.31847 L1637,3273.31847 C1595.925,3273.31847 1562.61844,3240.01191 1562.61844,3198.93691 L1562.61844,2975.80066 C1562.61844,2934.72566 1595.925,2901.4191 1637,2901.4191 L1637,2901.4191 C1678.075,2901.4191 1711.38156,2934.72566 1711.38156,2975.80066 L1711.38156,3198.93691 C1711.38156,3240.01191 1678.075,3273.31847 1637,3273.31847 Z" id="Path"></path>
                    <path d="M2901.42752,1637 L2901.42752,1637 C2901.42752,1595.925 2934.73408,1562.61844 2975.80908,1562.61844 L3198.94533,1562.61844 C3240.02033,1562.61844 3273.32689,1595.925 3273.32689,1637 L3273.32689,1637 C3273.32689,1678.075 3240.02033,1711.38156 3198.94533,1711.38156 L2975.80908,1711.38156 C2934.73408,1711.38156 2901.42752,1678.075 2901.42752,1637 Z" id="Path"></path>
                    <path d="M0.681533333,1637 L0.681533333,1637 C0.681533333,1595.925 33.9880923,1562.61844 75.0630923,1562.61844 L298.199344,1562.61844 C339.274344,1562.61844 372.580903,1595.925 372.580903,1637 L372.580903,1637 C372.580903,1678.075 339.274344,1711.38156 298.199344,1711.38156 L75.0630923,1711.38156 C33.9880923,1711.38156 0.681533333,1678.075 0.681533333,1637 Z" id="Path"></path>
                </g>
                <g id="Group" transform="translate(730.000000, 729.000000)" fill="#8F96AC" fill-rule="nonzero">
                    <path d="M2844.73124,2245.73557 L2844.73124,2245.73557 C2824.1875,2281.31213 2778.69299,2293.49681 2743.12485,2272.9615 L2678.70449,2235.76706 C2643.12793,2215.22332 2630.94325,2169.72881 2651.47856,2134.15225 L2651.47856,2134.15225 C2672.02229,2098.57569 2717.51681,2086.39101 2753.08494,2106.92632 L2817.50531,2144.12076 C2853.09029,2164.6645 2865.27497,2210.16744 2844.73124,2245.73557 Z" id="Path"></path>
                    <path d="M203.521441,720.839324 L203.521441,720.839324 C182.977706,756.415882 137.483191,768.600559 101.915059,748.06525 L37.4946912,710.870809 C1.91813235,690.327074 -10.2665441,644.832559 10.2687647,609.264426 L10.2687647,609.264426 C30.8125,573.687868 76.3070147,561.503191 111.875147,582.0385 L176.295515,619.232941 C211.872074,639.76825 224.065176,685.262765 203.521441,720.839324 Z" id="Path"></path>
                    <path d="M10.2687647,2245.73557 L10.2687647,2245.73557 C30.8125,2281.31213 76.3070147,2293.49681 111.875147,2272.9615 L176.295515,2235.76706 C211.872074,2215.22332 224.05675,2169.72881 203.521441,2134.15225 L203.521441,2134.15225 C182.977706,2098.57569 137.483191,2086.39101 101.915059,2106.92632 L37.4946912,2144.12076 C1.90970588,2164.6645 -10.2749706,2210.16744 10.2687647,2245.73557 Z" id="Path"></path>
                    <path d="M2651.47856,720.839324 L2651.47856,720.839324 C2672.02229,756.415882 2717.51681,768.600559 2753.08494,748.06525 L2817.50531,710.870809 C2853.08187,690.327074 2865.26654,644.832559 2844.73124,609.264426 L2844.73124,609.264426 C2824.1875,573.687868 2778.69299,561.503191 2743.12485,582.0385 L2678.70449,619.232941 C2643.12793,639.76825 2630.93482,685.262765 2651.47856,720.839324 Z" id="Path"></path>
                    <path d="M609.264426,2844.73124 L609.264426,2844.73124 C573.687868,2824.1875 561.503191,2778.69299 582.0385,2743.12485 L619.232941,2678.70449 C639.776676,2643.12793 685.271191,2630.94325 720.839324,2651.47856 L720.839324,2651.47856 C756.415882,2672.02229 768.600559,2717.51681 748.06525,2753.08494 L710.870809,2817.50531 C690.3355,2853.09029 644.832559,2865.27497 609.264426,2844.73124 Z" id="Path"></path>
                    <path d="M2134.16068,203.521441 L2134.16068,203.521441 C2098.58412,182.977706 2086.39944,137.483191 2106.93475,101.915059 L2144.12919,37.4946912 C2164.67293,1.91813235 2210.16744,-10.2665441 2245.744,10.2687647 L2245.744,10.2687647 C2281.32056,30.8125 2293.50524,76.3070147 2272.96993,111.875147 L2235.77549,176.295515 C2215.23175,211.872074 2169.73724,224.065176 2134.16068,203.521441 Z" id="Path"></path>
                    <path d="M609.264426,10.2687647 L609.264426,10.2687647 C573.687868,30.8125 561.503191,76.3070147 582.0385,111.875147 L619.232941,176.295515 C639.776676,211.872074 685.271191,224.05675 720.839324,203.521441 L720.839324,203.521441 C756.415882,182.977706 768.600559,137.483191 748.06525,101.915059 L710.870809,37.4946912 C690.3355,1.90970588 644.832559,-10.2749706 609.264426,10.2687647 Z" id="Path"></path>
                    <path d="M2134.16068,2651.47856 L2134.16068,2651.47856 C2098.58412,2672.02229 2086.39944,2717.51681 2106.93475,2753.08494 L2144.12919,2817.50531 C2164.67293,2853.08187 2210.16744,2865.26654 2245.744,2844.73124 L2245.744,2844.73124 C2281.32056,2824.1875 2293.50524,2778.69299 2272.96993,2743.12485 L2235.77549,2678.70449 C2215.23175,2643.12793 2169.73724,2630.93482 2134.16068,2651.47856 Z" id="Path"></path>
                </g>
                <text id="12" font-family="AvenirNext-Bold, Avenir Next" font-size="250" font-weight="bold" letter-spacing="2.77777778" fill="#5B5D6E">
                    <tspan x="1993" y="1158">12</tspan>
                </text>
                <text id="6" font-family="AvenirNext-Bold, Avenir Next" font-size="250" font-weight="bold" letter-spacing="2.77777778" fill="#5B5D6E">
                    <tspan x="2091" y="3272">6</tspan>
                </text>
                <text id="3" font-family="AvenirNext-Bold, Avenir Next" font-size="250" font-weight="bold" letter-spacing="2.77777778" fill="#5B5D6E">
                    <tspan x="3200" y="2236">3</tspan>
                </text>
                <text id="9" font-family="AvenirNext-Bold, Avenir Next" font-size="250" font-weight="bold" letter-spacing="2.77777778" fill="#5B5D6E">
                    <tspan x="995" y="2220">9</tspan>
                </text>
            </g>
        </g>
    </g>
</svg>