<svg xmlns="http://www.w3.org/2000/svg" viewBox="0 0 113.97 243.34"><defs><style>.cls-1{fill:#fff;}</style></defs><title>资源 1</title><g id="图层_2" data-name="图层 2"><g id="图层_1-2" data-name="图层 1"><path class="cls-1" d="M59.18,234l.06.1-.34,1.44a1.91,1.91,0,0,0-.11.4,4.64,4.64,0,0,1-.5,1.83,6.58,6.58,0,0,0-.63,1.71c-.09.75-.34,1.46-.48,2.19a1.75,1.75,0,0,0,.28,1.66,4.12,4.12,0,0,0,.91-.25,9.37,9.37,0,0,0,2.07-1.27c.82-.77,1.91-1.15,2.64-2a5.86,5.86,0,0,1,1.33-1.24,17.4,17.4,0,0,0,2.08-1.91c.61-.52,1.11-1.17,1.7-1.72a6.72,6.72,0,0,0,1.61-2.25c.15-.85.3-1.58.39-2.32.15-1.27.25-2.54.37-3.82.06-.58.11-1.16.19-1.74.26-1.89.55-3.78.8-5.68.14-1,.23-2,.34-3.06.07-.61.14-1.21.19-1.82.07-.77.07-1.56.19-2.33a24.33,24.33,0,0,0,.32-3.65v-.59c.1-1.08.26-2.15.28-3.23,0-1.77,0-3.54-.12-5.32-.11-1.53-.06-3.06-.19-4.59-.11-1.3-.13-2.61-.18-3.92a1.43,1.43,0,0,0,0-.17c-.22-1.37-.38-2.75-.69-4.09s-.78-2.83-1.24-4.22c-.36-1.1-.82-2.18-1.25-3.26s-.81-2.06-1.26-3.08-1.09-2.18-1.51-3.32a10.51,10.51,0,0,0-1-1.9l-.43-.71c-.51-.86-1-1.74-1.52-2.59-.34-.54-.8-1-1.12-1.55a29.36,29.36,0,0,0-3.13-4.19,26.06,26.06,0,0,0-4.31-3.95,28.37,28.37,0,0,0-4.73-3.09,4,4,0,0,1-.77-.49,9.84,9.84,0,0,0-1.61-1c-1-.54-2-1.14-3-1.7a31,31,0,0,1-3.91-2.38c-1.08-.82-2.29-1.46-3.41-2.24-1.53-1.06-3-2.16-4.52-3.26-1.3-1-2.52-2-3.75-3.06s-2.44-2.34-3.65-3.52c-.61-.6-1.13-1.29-1.74-1.89a28.38,28.38,0,0,1-2.8-3.43q-1.41-2-2.77-4c-.58-.84-1.15-1.68-1.67-2.56a31.65,31.65,0,0,1-2.34-4.49c-.51-1.28-1.09-2.54-1.55-3.84-.3-.84-.52-1.72-.78-2.58a25.65,25.65,0,0,1-.62-2.57c-.21-1-.42-2.05-.54-3.1a32.46,32.46,0,0,1-.46-4.2,1.15,1.15,0,0,0,0-.33,12.22,12.22,0,0,1-.19-3A13.68,13.68,0,0,1,10.52,97a2.32,2.32,0,0,1,.39-.81c.61-.82,1.25-1.62,1.87-2.42a.76.76,0,0,0,.11-.22,4.16,4.16,0,0,1,1.29-1.81,5.22,5.22,0,0,0,1.18-2v-.45a8.81,8.81,0,0,0-.85.49c-.64.45-1.24.93-1.89,1.37a9.56,9.56,0,0,0-2.4,2.63c-.33.47-.56,1-.89,1.48-.59.86-1.24,1.68-1.83,2.53q-1.06,1.52-2.06,3.07c-.41.64-.53,1.46-1.22,1.91-.36,1-1.13,1.71-1.45,2.7-.07.2-.23.38-.29.59a23.32,23.32,0,0,0-.92,3.51c-.13,1.07-.31,2.13-.42,3.2A16.5,16.5,0,0,1,1,115.67a.38.38,0,0,0,0,.24,1.1,1.1,0,0,1,0,.81,3,3,0,0,0,0,.91c0,.47.1.93.14,1.4.07,1,.07,2.06.2,3.08a18.08,18.08,0,0,1,.32,2.46,5.54,5.54,0,0,0,.11.87c.12.79.39,1.56.51,2.34a25.19,25.19,0,0,0,.67,2.81c.46,1.7,1,3.4,1.6,5s1.34,3.29,2.11,4.89c.56,1.17,1.25,2.28,1.9,3.41S9.75,146,10.38,147a25.63,25.63,0,0,0,1.76,2.84c.73.88,1.34,1.83,2.08,2.71a50.86,50.86,0,0,0,3.7,4.29,5.61,5.61,0,0,0,1.37,1.29c.46.88,1.38,1.31,2,2a14.88,14.88,0,0,0,2.26,1.83c1.42,1.06,2.83,2.14,4.3,3.15,2,1.37,4,2.71,6,4a29,29,0,0,0,3.46,1.84c1.7.77,3.4,1.52,5,2.38a15.78,15.78,0,0,1,1.46.79A43.72,43.72,0,0,1,48,176.85c1.07.89,2.18,1.73,3.18,2.7A28.51,28.51,0,0,1,55,184.43a35.6,35.6,0,0,1,2.79,5.31c.29.66.55,1.34.79,2s.5,1.41.71,2.12c.3,1,.57,2,.84,3a7.19,7.19,0,0,1,.32,1.37,29.24,29.24,0,0,0,.6,3.1,4.58,4.58,0,0,0,0,.88c.06.41.18.81.22,1.23a36.53,36.53,0,0,1,.29,3.82,21.62,21.62,0,0,1,.08,4.33,2.49,2.49,0,0,0,0,.67,9.76,9.76,0,0,1,.11,1.07c0,.89-.1,1.77-.15,2.65a5.48,5.48,0,0,1-.39,1.95.76.76,0,0,0-.08.48,4.27,4.27,0,0,1,0,1.81c-.12,1.11-.14,2.22-.22,3.34,0,.53-.09,1.05-.14,1.58,0,.3-.07.59-.08.89a10.63,10.63,0,0,1-.34,1.76c-.23,1.28-.38,2.58-.68,3.84a6.8,6.8,0,0,0-.27,1.9ZM67.89,10.28l.32.19-.53.25-.27-.29c-.44-.14-.66.12-.86.4l.07.5-1.56.18-.16.18-.75-.15L64,12c-.49.09-1,0-1.49.48l-.29.84-1.55.5c-.19.39-.3.82-.71,1.06h-.77l-.12.57-.32.11-.16.42-.86-.2-.18.14.06,1a2.14,2.14,0,0,1-.46-.12c-.18-.11-.35-.25-.52-.37a.15.15,0,0,0-.12.07l.22.33-.23.13c.06.24.22.5,0,.79a2,2,0,0,0-.25.74l-.39.31.09.36-.71.46v-.36l-.36,0v.46L54,19.72l.19.33L54.8,20l-.15,1.17-1.17.52-.22-.48a1,1,0,0,0,.39,1.09l-.75.15-.64-.27.6-.27a1.26,1.26,0,0,1-.1-.29,2.46,2.46,0,0,1,0-.39c-.18-.11-.43-.18-.54-.35a1.86,1.86,0,0,1-.14-.67l-.46-.26a7.32,7.32,0,0,0,.7-.6,9.32,9.32,0,0,0,.6-.79v-.4l.45.07.16-.23-.3-.68.75-.55v-.14l.76-1.13H55l1-1.25.3.08c.19-.24.33-.63.55-.67.53-.1.8-.56,1.24-.74l.39.09a1.06,1.06,0,0,1,.87-.79,2,2,0,0,0,1-.62,3,3,0,0,0-.68,0,6.39,6.39,0,0,0-1.38.74,19.19,19.19,0,0,0-3.4,2.23,10.3,10.3,0,0,0-1.87,2c-.45.69-1,1.32-1.46,1.91a13,13,0,0,0-.65,1.24c-.19.47-.24,1-.46,1.46a10.65,10.65,0,0,0-.87,4.18A7.47,7.47,0,0,0,49.7,28a4,4,0,0,0,.08,2.13c.11,1.23.6,2.41.66,3.66a1,1,0,0,0,.18.55,3.36,3.36,0,0,1,.47,1.49,7,7,0,0,0,.47,1.66,5.75,5.75,0,0,1,.55,1.46,3.55,3.55,0,0,0,.31.93,11.26,11.26,0,0,1,1.22,3.37l.9,1.17a3.48,3.48,0,0,0,.26,1.09c.34.52.26,1.27.92,1.6.1,0,.14.23.19.36a5.54,5.54,0,0,0,1,2.16,13.47,13.47,0,0,0,1.6,2.86,23.76,23.76,0,0,0,1.88,2.74c.85,1.13,1.75,2.22,2.64,3.32A15.94,15.94,0,0,0,64.3,60q1.31,1.36,2.67,2.67c.57.56,1.18,1.08,1.77,1.62L71,66.35l.17.19c.27.28.53.56.8.83l1.2,1.15c.62.61,1.22,1.24,1.86,1.82.9.83,1.84,1.61,2.74,2.45s1.54,1.55,2.34,2.29,1.89,1.64,2.8,2.51c1.29,1.24,2.54,2.52,3.81,3.79a51,51,0,0,1,3.67,4,25.86,25.86,0,0,1,2.8,4.11,29.11,29.11,0,0,1,2.51,6.3,15.54,15.54,0,0,1,.36,2.12c.1,1.3.18,2.61.18,3.92a22.45,22.45,0,0,1-.15,4.09c-.1.57-.13,1.15-.19,1.73a1.87,1.87,0,0,1-.08.32c-.25,1.16-.51,2.32-.75,3.48-.15.73-.2,1.48-.41,2.2-.38,1.3-.81,2.59-1.29,3.86-.42,1.11-.94,2.17-1.38,3.28-.51,1.31-1.26,2.53-1.87,3.81s-1.58,2.28-2.07,3.59a.31.31,0,0,1,0,.08c-.76,1-1.5,2.05-2.29,3-.43.53-1,1-1.6,1.65l-.81,1-1.28.13.48.41-.32.7a9.68,9.68,0,0,0,1.4-.1A9,9,0,0,1,86,134.8h.24l.4-.29a10.5,10.5,0,0,0,2.2-.31,20.39,20.39,0,0,1,2.11-.39c1.13-.21,2.27-.4,3.39-.67a6.78,6.78,0,0,1,2.84,0,17.31,17.31,0,0,0,3.26-2.62,6.4,6.4,0,0,0,1-1,26,26,0,0,0,2.25-2.86c.48-.87,1.19-1.6,1.61-2.52a1.18,1.18,0,0,1,.23-.35,5.12,5.12,0,0,0,1-1.64c.12-.27.28-.52.48-.87v-.47a9.73,9.73,0,0,0,1-1.63,17.4,17.4,0,0,1,1-2.28,13.39,13.39,0,0,0,1.2-2.53,32.47,32.47,0,0,0,1.65-4.94c.21-1,.5-2,.71-3.05s.35-1.9.52-2.85a6.2,6.2,0,0,1,.16-.72c.07-.66.11-1.32.19-2s.22-1.36.31-2a1.85,1.85,0,0,0-.07-.51l.24-.34a2.31,2.31,0,0,1-.13-.77,17.14,17.14,0,0,0,.13-3.21c0-.49-.15-1-.13-1.48a11.86,11.86,0,0,0-1-4.78,22.9,22.9,0,0,0-2.35-4.59c-.32-.48-.6-1-.92-1.52a1.92,1.92,0,0,1-.42-.32q-1.1-1.49-2.22-2.81c-1.12-1.37-2.33-2.67-3.54-4S101.14,72.14,100,71a5.32,5.32,0,0,0-.42-.41c-.93-.78-1.91-1.52-2.79-2.34-1.34-1.25-2.7-2.48-4.14-3.61-1.11-.88-2.18-1.81-3.24-2.75-1.29-1.14-2.55-2.31-3.83-3.46L83,56.11c-1-.92-2.12-1.81-3.11-2.79-1.24-1.21-2.41-2.49-3.6-3.75a22.77,22.77,0,0,1-1.72-1.93c-1.26-1.69-2.51-3.39-3.69-5.14-.95-1.4-1.8-2.87-2.67-4.32a7,7,0,0,0-1-1.56A15.22,15.22,0,0,0,66.07,34a39.27,39.27,0,0,1-1.4-4,10.81,10.81,0,0,1-.36-1.7A6.87,6.87,0,0,0,64.05,27c-.14-.46-.38-.93-.12-1.4a2.6,2.6,0,0,0-.26-.47c-.33-.38-.71-.72-1-1.12a.73.73,0,0,1-.08-.93l.31-.44-.19-.13-.32.24a5.15,5.15,0,0,1-.46-.28c-.06,0-.08-.14-.13-.23h.81l-.29-.26.47-1.14-.61-.24.29-.94-.26-.57.16-.29.84.4.57-.41L63,18.57l-.15-.88.51.6.32-.57,1-.32-1-.63c-.23-.29-.12-.76-.13-1.25.57.15.89-.23,1.24-.4l-.06-.85.71-.29.33-.82.61-.1,1.27-1.39c.61.26.84-.5,1.35-.45V11l1-.13.3-.53.88-.15.09-.31h.37L72,9.27l1.82.15L74,8.8H72.12v.25C71,8.63,70,8.59,69.82,8.88l.35.53L70.64,9l.28.27-.63.56H69ZM100,1.5A8,8,0,0,1,96.6.69a1.51,1.51,0,0,0-.88-.16A3.42,3.42,0,0,1,94.51.39,10.64,10.64,0,0,0,91.73,0a11.43,11.43,0,0,0-1.31.16,8.19,8.19,0,0,1-2.9,0c-.6-.15-1.19.3-1.79,0a4.52,4.52,0,0,1-1.86.11h-7A8,8,0,0,1,74.46.13a1.51,1.51,0,0,0-.58,0L72.82.27c-.46.06-.91-.09-1.39,0a11.23,11.23,0,0,1-1.51,0,7.21,7.21,0,0,0-1.59,0,9.11,9.11,0,0,1-2.16.12c-.74,0-1.47.35-2.21,0H57.83c-.24,0-.44.05-.52.35.49.13,1,.28,1.47.38s.88.09,1.32.17a11.26,11.26,0,0,0,2.31.29c.27,0,.55.07.82.09a3.71,3.71,0,0,0,1.16,0,2.08,2.08,0,0,1,1.13,0,7.86,7.86,0,0,0,2,.15H70c.41,0,.82.07,1.35.12a3.43,3.43,0,0,1,1.68,0c1.26.13,2.53.15,3.8.19h2.81c4.17,0,8.34-.14,12.5.16H94a4.5,4.5,0,0,0,1.62-.16l.63.29a2,2,0,0,1,1.59,0,3.2,3.2,0,0,1,.56-.15c.74-.07,1.49-.11,2.23-.18a2.39,2.39,0,0,0,.57-.25ZM31.5,69.63c.45-.25.9-.36.9-.92a3.77,3.77,0,0,0-2.25.34,9.69,9.69,0,0,1-1.68.46,5.14,5.14,0,0,0-2,.72,13.48,13.48,0,0,1-2.34,1.25,8,8,0,0,0-1,.55,6,6,0,0,1-2.08.84c-.28.16-.51.3-.76.43a36,36,0,0,1-3.35,1.39c-.46.18-.89.44-1.34.62s-1.21.39-1.78.66c-1,.5-2.18.76-3.21,1.32a16.56,16.56,0,0,0-2.8,1.42c-.41.33-.86.6-1.29.9a10,10,0,0,0-2,1.44,1,1,0,0,1-.49.31,6.26,6.26,0,0,0-1.66,1.07c-.12.08-.16.3-.23.45H1.9L0,84.76H.7A5.72,5.72,0,0,0,2,84.11c.68-.28,1.38-.54,2-.84.83-.37,1.64-.79,2.47-1.17s1.47-.61,2.19-1c1-.47,2-1,2.93-1.47.57-.28,1.14-.56,1.7-.85L16.68,77a9.74,9.74,0,0,1,.88-.47c.62-.25,1.25-.49,1.89-.71.39-.14.79-.23,1.19-.34A2.7,2.7,0,0,0,21.83,75a3.29,3.29,0,0,1,.94-.52,25.33,25.33,0,0,0,5.48-2.66c.35-.26.81-.4,1.14-.68a3.82,3.82,0,0,1,1.36-.78C31.1,70.2,31.44,70.05,31.5,69.63ZM90.71,6.44c-.52,0-.88.07-1.24.07a13,13,0,0,1-2.34,0,7.23,7.23,0,0,0-2.57-.06c-.78.14-1.56.14-2.33.28a11.22,11.22,0,0,0-2.79.54c-.29.13-.52,0-.77,0l-.15.66-.39-.36H77.4a2.35,2.35,0,0,1-2,.83l-.57.91.63.23c.4-.13.8-.25,1.19-.39a4.28,4.28,0,0,1,1.88-.3,4,4,0,0,0,2.13-.23,1.34,1.34,0,0,1,.57-.07,5.64,5.64,0,0,0,2-.31,8.85,8.85,0,0,1,1.27-.34c.89-.17,1.8-.31,2.69-.48.62-.12,1.24-.28,1.87-.38s1.21-.15,1.81-.23a.29.29,0,0,1,.1-.18Zm-34,133.94c.32.19.56.16.74-.17v-.78l.45-.21L58,138l-.61-1.52c-.45.25-.23.55-.15.82-.39.37-.39,1-.91,1.27l-.41-.49.65-.3-.26-.42.25-.34-.5-.45-.82.89h-.37l-.72-.57-.64.56.73.53-.06.09-1.58-.46v.66l.2-.23.54.16.13.41-.23,1.2.34.63c-.55.06-.44-.4-.61-.57l-.69-.22-.65.25a.79.79,0,0,1-.05.24l.69-.1.69.59V142l.36.18.41-.59-.07-.28.71-.57.43.62.45-.22-.4-.32-.12-.92-.4.25-.37-.55c.37-.45-.25-.75-.14-1.24l.61.18-.07,1c.25.33.51.07.75,0l.62.28.27-.88.77,1.09c-.46,0-.8,0-.92.45l.45.22Z"/><path d="M59.18,234l.28-.5a6.8,6.8,0,0,1,.27-1.9c.29-1.27.45-2.56.68-3.84a10.63,10.63,0,0,0,.34-1.76,8.91,8.91,0,0,1,.08-.89c0-.53.11-1.05.14-1.58.07-1.11.1-2.23.22-3.34a4.27,4.27,0,0,0,0-1.81.76.76,0,0,1,.08-.48,5.48,5.48,0,0,0,.39-1.95c.05-.88.12-1.77.15-2.65a9.76,9.76,0,0,0-.11-1.07,2.49,2.49,0,0,1,0-.67c.29-1.45-.1-2.88-.08-4.33a36.53,36.53,0,0,0-.29-3.82,8.82,8.82,0,0,0-.22-1.23,4.58,4.58,0,0,1,0-.88,29.24,29.24,0,0,1-.6-3.1,7.19,7.19,0,0,0-.38-1.39c-.27-1-.54-2-.84-3-.22-.71-.46-1.42-.71-2.12s-.5-1.35-.79-2A35.6,35.6,0,0,0,55,184.43a28.51,28.51,0,0,0-3.76-4.88c-1-1-2.11-1.81-3.18-2.7a43.72,43.72,0,0,0-4.16-2.78c-.46-.3-1-.53-1.46-.79-1.65-.87-3.35-1.62-5-2.38A29,29,0,0,1,34,169.06c-2-1.28-4.06-2.62-6-4-1.46-1-2.88-2.08-4.3-3.15a14.88,14.88,0,0,1-2.26-1.83c-.64-.72-1.56-1.14-2-2-.6-.27-.92-.85-1.37-1.29-1.35-1.33-2.49-2.84-3.7-4.29-.73-.88-1.35-1.83-2.08-2.71A25.63,25.63,0,0,1,10.44,147c-.63-1-1.24-2-1.83-3.07s-1.34-2.24-1.9-3.41c-.76-1.6-1.49-3.23-2.11-4.89s-1.15-3.34-1.6-5a25.19,25.19,0,0,1-.67-2.81c-.12-.78-.39-1.55-.51-2.34a5.54,5.54,0,0,1-.11-.87,18.08,18.08,0,0,0-.32-2.46c-.13-1-.13-2.05-.2-3.08,0-.47-.11-.93-.14-1.4a3,3,0,0,1,0-.91A1.1,1.1,0,0,0,1,116a.38.38,0,0,1,0-.24,16.5,16.5,0,0,0,0-3c.11-1.07.29-2.13.42-3.2a23.32,23.32,0,0,1,.92-3.51c.06-.21.22-.38.29-.59.32-1,1.09-1.73,1.45-2.7.69-.46.81-1.28,1.22-1.91q1-1.56,2.06-3.07C8,97,8.63,96.15,9.22,95.29c.33-.47.56-1,.89-1.48a9.56,9.56,0,0,1,2.4-2.63c.64-.44,1.25-.92,1.89-1.37.25-.17.53-.3.85-.49,0,.19.08.34,0,.45a5.22,5.22,0,0,1-1.18,2,4.16,4.16,0,0,0-1.29,1.81.76.76,0,0,1-.11.22c-.62.81-1.26,1.6-1.87,2.42a2.32,2.32,0,0,0-.39.81,13.68,13.68,0,0,0-.41,3.86,12.22,12.22,0,0,0,.19,3,1.15,1.15,0,0,1,0,.33,32.46,32.46,0,0,0,.46,4.2c.13,1,.34,2.07.54,3.1a25.65,25.65,0,0,0,.62,2.57c.26.85.48,1.73.78,2.58.46,1.3,1,2.56,1.55,3.84A31.65,31.65,0,0,0,16.48,125c.52.87,1.1,1.72,1.67,2.56.91,1.33,1.83,2.65,2.77,4A28.38,28.38,0,0,0,23.7,135c.6.61,1.12,1.3,1.74,1.89,1.21,1.18,2.36,2.42,3.65,3.52s2.45,2.1,3.75,3.06c1.5,1.1,3,2.2,4.52,3.26,1.12.77,2.33,1.42,3.41,2.24a31,31,0,0,0,3.91,2.38c1,.56,2,1.15,3,1.7a9.84,9.84,0,0,1,1.61,1,4,4,0,0,0,.77.49,28.37,28.37,0,0,1,4.73,3.09,26.06,26.06,0,0,1,4.31,3.95,29.36,29.36,0,0,1,3.13,4.19c.32.55.78,1,1.12,1.55.53.85,1,1.72,1.52,2.59.14.24.28.48.43.71a10.51,10.51,0,0,1,1,1.9c.43,1.13,1,2.2,1.51,3.32s.85,2,1.26,3.08.88,2.16,1.25,3.26c.46,1.39.91,2.79,1.24,4.22s.47,2.73.69,4.09a1.43,1.43,0,0,1,0,.17c.06,1.31.07,2.62.18,3.92.13,1.53.08,3.07.19,4.59.12,1.77.14,3.55.12,5.32,0,1.08-.18,2.15-.28,3.23v.59a24.33,24.33,0,0,1-.32,3.65c-.11.77-.12,1.55-.19,2.33-.05.61-.13,1.21-.19,1.82-.11,1-.2,2-.34,3.06-.25,1.89-.54,3.78-.8,5.68-.08.58-.13,1.16-.19,1.74-.12,1.27-.22,2.55-.37,3.82-.09.74-.25,1.47-.39,2.32A6.72,6.72,0,0,1,68.06,235c-.59.55-1.09,1.2-1.7,1.72a17.4,17.4,0,0,1-2.08,1.91,5.86,5.86,0,0,0-1.33,1.24c-.74.86-1.83,1.24-2.64,2a9.37,9.37,0,0,1-2.06,1.25,4.12,4.12,0,0,1-.91.25,1.75,1.75,0,0,1-.28-1.66c.15-.73.39-1.43.48-2.19a6.58,6.58,0,0,1,.63-1.71,4.64,4.64,0,0,0,.5-1.83,1.91,1.91,0,0,1,.11-.4l.34-1.44Z"/><path d="M67.89,10.28,69,9.8h1.25l.63-.56L70.63,9l-.47.41-.35-.53c.14-.29,1.16-.25,2.3.17V8.8H74L74,9.42l-1.82-.15-.35.57h-.37l-.09.31-.88.15-.3.53-1,.13v.26c-.51,0-.75.71-1.35.45l-1.27,1.39-.61.1-.33.82-.71.29.06.85c-.35.17-.66.55-1.24.4,0,.49-.11,1,.13,1.25l1,.63-1,.32-.32.57-.51-.6.15.88.73.18-.57.41-.84-.4-.16.29.26.57-.29.94.61.24L62.46,22l.29.26h-.81a.3.3,0,0,0,.13.23,5.15,5.15,0,0,0,.46.28l.32-.24.19.13-.31.44a.73.73,0,0,0,.08.93c.31.4.69.74,1,1.12a2.6,2.6,0,0,1,.26.47c-.26.47,0,.94.12,1.4a6.87,6.87,0,0,1,.26,1.38,10.81,10.81,0,0,0,.36,1.7,39.27,39.27,0,0,0,1.4,4,15.22,15.22,0,0,1,1.12,2.58,7,7,0,0,1,1,1.56c.88,1.45,1.73,2.92,2.67,4.32,1.18,1.75,2.43,3.45,3.69,5.14a22.77,22.77,0,0,0,1.72,1.93c1.19,1.26,2.36,2.53,3.6,3.75,1,1,2.06,1.87,3.11,2.79.87.77,1.76,1.52,2.62,2.29C87,59.64,88.28,60.81,89.57,62c1.06.94,2.13,1.88,3.24,2.75,1.44,1.14,2.8,2.36,4.14,3.61.89.83,1.86,1.56,2.79,2.34a5.32,5.32,0,0,1,.42.41c1.12,1.17,2.24,2.33,3.35,3.51s2.42,2.58,3.54,4q1,1.23,2,2.63a1.92,1.92,0,0,0,.42.32l.92,1.52a22.9,22.9,0,0,1,2.35,4.59,11.86,11.86,0,0,1,1,4.78c0,.49.14,1,.13,1.48a17.14,17.14,0,0,1-.13,3.21,2.31,2.31,0,0,0,.13.77l-.24.34a1.85,1.85,0,0,1,.07.51c-.09.68-.22,1.36-.31,2s-.12,1.32-.19,2a3.72,3.72,0,0,1-.16.72c-.17.95-.32,1.9-.52,2.85s-.5,2-.71,3.05a32.47,32.47,0,0,1-1.65,4.94,13.39,13.39,0,0,1-1.2,2.53,17.4,17.4,0,0,0-1,2.28,9.73,9.73,0,0,1-1,1.63v.47c-.19.35-.36.6-.48.87a5.12,5.12,0,0,1-1,1.64,1.18,1.18,0,0,0-.23.35c-.42.92-1.13,1.65-1.61,2.52a26,26,0,0,1-2.25,2.86,6.4,6.4,0,0,1-1,1,17.31,17.31,0,0,1-3.26,2.62,6.78,6.78,0,0,0-2.84,0c-1.12.26-2.26.45-3.39.67a20.39,20.39,0,0,0-2.11.39,10.5,10.5,0,0,1-2.2.31l-.4.29H86a9,9,0,0,0-2.39.27,9.68,9.68,0,0,1-1.4.1l.32-.7L82,134l1.28-.13.81-1c.65-.66,1.17-1.11,1.6-1.65.79-1,1.53-2,2.29-3a.31.31,0,0,0,0-.08c.5-1.31,1.48-2.33,2.07-3.59s1.35-2.5,1.87-3.81c.43-1.11,1-2.17,1.38-3.28.48-1.27.91-2.56,1.29-3.86.21-.71.26-1.47.41-2.2.24-1.16.5-2.32.75-3.48,0-.11.07-.21.08-.32.07-.58.09-1.16.19-1.73a22.45,22.45,0,0,0,.15-4.09c0-1.31-.08-2.62-.18-3.92a15.54,15.54,0,0,0-.36-2.12,29.11,29.11,0,0,0-2.51-6.3,25.86,25.86,0,0,0-2.8-4.11,51,51,0,0,0-3.67-4c-1.27-1.26-2.52-2.55-3.81-3.79C82,76.64,81,75.85,80.07,75s-1.54-1.55-2.34-2.29S75.89,71.09,75,70.26c-.64-.59-1.24-1.22-1.86-1.82l-1.2-1.15c-.27-.27-.54-.55-.8-.83L71,66.27l-2.27-2.1c-.59-.54-1.2-1.06-1.77-1.62q-1.35-1.32-2.67-2.67c-.44-.46-.87-.94-1.27-1.44-.89-1.1-1.79-2.19-2.64-3.32a23.76,23.76,0,0,1-1.88-2.74,13.47,13.47,0,0,1-1.6-2.86,5.54,5.54,0,0,1-1-2.16.46.46,0,0,0-.19-.36c-.66-.33-.58-1.08-.92-1.6a3.48,3.48,0,0,1-.26-1.09l-.9-1.17a11.26,11.26,0,0,0-1.18-3.34,3.55,3.55,0,0,1-.31-.93,5.75,5.75,0,0,0-.55-1.46,7,7,0,0,1-.46-1.61,3.36,3.36,0,0,0-.47-1.48,1,1,0,0,1-.18-.55c-.06-1.25-.55-2.43-.66-3.66-.06-.7-.39-1.41-.08-2.13a7.47,7.47,0,0,1-.11-2.66,10.65,10.65,0,0,1,.87-4.18c.22-.46.27-1,.46-1.46a13,13,0,0,1,.65-1.24c.46-.59,1-1.22,1.46-1.91a10.3,10.3,0,0,1,1.91-1.94,19.19,19.19,0,0,1,3.4-2.23,6.39,6.39,0,0,1,1.38-.74,3,3,0,0,1,.68,0,2,2,0,0,1-1,.62,1.06,1.06,0,0,0-.87.79l-.39-.09c-.45.18-.71.64-1.24.74-.21,0-.36.43-.55.67l-.3-.08L55,15.5h-.27L54,16.59v.14l-.75.55.3.68-.16.23L53,18.12v.4a9.32,9.32,0,0,1-.6.79,7.32,7.32,0,0,1-.7.6l.46.26a1.86,1.86,0,0,0,.14.67c.11.17.36.24.54.35a2.46,2.46,0,0,0,0,.39,1.26,1.26,0,0,0,.1.29l-.6.27.64.27.75-.15a1,1,0,0,1-.39-1.09l.22.48,1.17-.52L54.85,20l-.58.09L54,19.72l.77.07v-.46l.36,0v.36l.71-.46,0-.38.39-.31a2,2,0,0,1,.25-.74c.25-.29.09-.55,0-.79l.23-.13-.22-.33s.1-.08.12-.07c.18.12.34.26.52.37a2.14,2.14,0,0,0,.46.12l-.06-1,.18-.14.85.27.16-.42.32-.11.12-.57h.77c.41-.24.52-.67.71-1.06l1.55-.5.29-.84c.48-.53,1-.38,1.49-.48l.13-.48.75.15.16-.18,1.56-.18-.07-.5c.2-.29.42-.54.86-.4l.27.29.53-.25Z"/><path d="M100,1.5l1.13.57a2.39,2.39,0,0,1-.57.25c-.74.07-1.49.11-2.23.18a3.2,3.2,0,0,0-.56.15,2,2,0,0,0-1.59,0l-.63-.29A4.5,4.5,0,0,1,94,2.52c-.61,0-1.23,0-1.84,0-4.16-.3-8.33-.11-12.5-.16H76.81A37,37,0,0,1,73,2.17a3.43,3.43,0,0,0-1.68,0c-.52,0-.93-.11-1.35-.12H67.46a7.86,7.86,0,0,1-2-.15,2.08,2.08,0,0,0-1.13,0,3.71,3.71,0,0,1-1.16,0c-.28,0-.55-.09-.82-.09A11.26,11.26,0,0,1,60,1.52c-.44-.08-.88-.08-1.32-.17s-1-.25-1.47-.38c.07-.3.27-.35.52-.35h6.12c.74.33,1.47,0,2.21,0A9.11,9.11,0,0,0,68.26.5a7.21,7.21,0,0,1,1.59,0,11.23,11.23,0,0,0,1.51,0c.47-.07.93.08,1.39,0L73.81.36a1.51,1.51,0,0,1,.58,0A8,8,0,0,0,76.8.5h7A4.52,4.52,0,0,0,85.66.39c.6.26,1.19-.18,1.79,0a8.19,8.19,0,0,0,2.9,0c.44,0,.87-.13,1.31-.16a10.64,10.64,0,0,1,2.78.39,3.42,3.42,0,0,0,1.21.14,1.51,1.51,0,0,1,.88.16A8,8,0,0,0,100,1.5Z"/><path d="M31.5,69.63c-.06.42-.4.56-.75.68a3.82,3.82,0,0,0-1.36.78c-.33.28-.79.42-1.14.68a25.33,25.33,0,0,1-5.39,2.74,3.29,3.29,0,0,0-.94.52,2.7,2.7,0,0,1-1.19.49c-.4.12-.8.21-1.19.34-.64.22-1.27.45-1.89.71a9.74,9.74,0,0,0-.88.47L13.42,78.8c-.56.3-1.14.57-1.7.85-1,.49-2,1-2.93,1.47-.72.34-1.47.62-2.19,1s-1.64.8-2.47,1.17c-.67.3-1.37.56-2,.84a5.72,5.72,0,0,1-1.44.61H0L1.83,82.8h.24c.08-.16.11-.38.23-.45A6.26,6.26,0,0,1,4,81.28,1,1,0,0,0,4.45,81a10,10,0,0,1,2-1.44c.43-.3.88-.57,1.29-.9a16.56,16.56,0,0,1,2.8-1.42c1-.56,2.16-.82,3.21-1.32.57-.27,1.19-.42,1.78-.66s.89-.44,1.34-.62a36,36,0,0,0,3.35-1.39l.76-.43A6,6,0,0,0,23.06,72c.34-.18.67-.41,1-.55a13.48,13.48,0,0,0,2.34-1.25,5.14,5.14,0,0,1,2-.72A9.69,9.69,0,0,0,30.08,69a3.77,3.77,0,0,1,2.25-.34C32.4,69.27,31.95,69.38,31.5,69.63Z"/><path d="M90.71,6.44l.32.18c-.05.1-.07.18-.1.18-.6.08-1.21.13-1.81.23s-1.24.26-1.87.38c-.9.17-1.8.3-2.69.48a8.85,8.85,0,0,0-1.27.34,5.64,5.64,0,0,1-2,.31,1.34,1.34,0,0,0-.57.07,4,4,0,0,1-2.13.23,4.28,4.28,0,0,0-1.93.27c-.39.14-.79.26-1.19.39l-.63-.23.57-.91a2.35,2.35,0,0,0,2-.83h.73l.39.36.15-.66c.25-.06.48.11.77,0a11.22,11.22,0,0,1,2.79-.54c.77-.14,1.55-.14,2.33-.28a7.23,7.23,0,0,1,2.57.06,13,13,0,0,0,2.34,0C89.83,6.51,90.18,6.47,90.71,6.44Z"/></g></g></svg>