<svg xmlns="http://www.w3.org/2000/svg" viewBox="0 0 257.23 169.59"><defs><style>.cls-1{fill:#fff;}</style></defs><title>资源 2</title><g id="图层_2" data-name="图层 2"><g id="图层_1-2" data-name="图层 1"><path class="cls-1" d="M0,0,27.53,29.27a3.87,3.87,0,0,0-.11,1,16.86,16.86,0,0,1-.62,5.4,15.76,15.76,0,0,1-.71,2.16c-.07.2-.24.49-.39.51-.54.07-.65.48-.79.86-.27.71-.5,1.43-.74,2.15-.52,1.55-1,3.12-1.56,4.64-.44,1.17-1.18,2.21-1.62,3.39a3.5,3.5,0,0,0-.18,1.41l.56-.93a9.06,9.06,0,0,1,0,1.35c-.19,1,.15,2.1-.15,3.13.49,1.59,1,3.19,1.47,4.77,0,.15.24.35.36.35.57,0,.78.41,1,.78.36.54.68,1.1,1.05,1.62a6.68,6.68,0,0,0,.71.73c0-.19.06-.23,0-.26A12.63,12.63,0,0,1,24,56.46a1.75,1.75,0,0,0-.1-.33,17.35,17.35,0,0,1-.51-2.44,5.15,5.15,0,0,1,0-2.43,1.79,1.79,0,0,1,.4.76c.06.25,0,.53.08.78.21,1,.4,2.08.67,3.11.38,1.5.82,3,1.24,4.48a.51.51,0,0,0,.55.4l-1.08-4.66a4.67,4.67,0,0,1,.84,1.75,10.63,10.63,0,0,0,1.62,3.87,9.6,9.6,0,0,0,2.13,2.8c0-.55.34-.5.7-.35s.55.62,1.15.47a5.11,5.11,0,0,0-.44-.5,7.86,7.86,0,0,1-1.89-2.4c-.58-1.11-1.25-2.19-1.72-3.34a12.33,12.33,0,0,1-.68-2.86,6.07,6.07,0,0,0-.15-1.21,2.1,2.1,0,0,1,.18-2.13,3.14,3.14,0,0,1,1.25-.9A1,1,0,0,0,29,50.11a2.18,2.18,0,0,1,.33-1.58,1.63,1.63,0,0,1,.15.23,3,3,0,0,1,.19.54,13.91,13.91,0,0,0,3.74,6.52,11.6,11.6,0,0,0,1.37,1.36,32.62,32.62,0,0,0,5.66,3.1c.09,0,.23,0,.33.05l1.39.46a3.68,3.68,0,0,0,.74.24,20.78,20.78,0,0,0,4.26.33,29.31,29.31,0,0,1,3.19.08c1.37,0,2.74,0,4.11,0,.35,0,.76-.1,1,.47a2.12,2.12,0,0,0-2.71.83c-.11.18-.35.28-.51.4v1.45c2-.81,4.14-.87,5.93-2a1.17,1.17,0,0,1,.31-.13c.94-.28,1.9-.51,2.83-.83,1.36-.47,2.67-1.13,4.18-.94a1.62,1.62,0,0,0,.34,0c2.42-.22,4.83-.57,7.23.22.56.18,1.27,0,1.79.22a19.73,19.73,0,0,0,3.85,1c2.11.48,4.2,1,6.3,1.59a22.09,22.09,0,0,1,4.13,1.9.58.58,0,0,1,.26.94c-.07.12-.13.24-.2.38.47.38,1.2.38,1.32,1.07a1.28,1.28,0,0,0,.76.91c.48.28.93.63,1.39,1L92.15,71l.14.11,1-.63.21,1.14c0,.13.1.34.05.38a.67.67,0,0,1-.49.18c-.36-.11-.69-.33-1-.44-.13,0-.3.09-.45.14l2.16,1.47a6.07,6.07,0,0,1-.45.75c-.64.77-.83.81-1.76.38-.52-.24-1-.5-1.53-.77a42.73,42.73,0,0,0-7-3.09c-1-.31-2.09-.4-3.11-.68a47.92,47.92,0,0,0-7.44-1.64c-.72-.08-1.45-.06-2.16-.16a43.65,43.65,0,0,0-9,.06c-.11,0-.21.11-.43.23a2.31,2.31,0,0,0,.47.12c1.18-.05,2.35-.16,3.53-.16a22.66,22.66,0,0,1,3.75.18,23.91,23.91,0,0,0,2.71.32,35.51,35.51,0,0,1,8,1.32c1.16.33,2.28.86,3.46,1.09a13.26,13.26,0,0,1,2.79.93,2.56,2.56,0,0,1,.5.41c-.83.56-1.71.19-2.68.39l1.18.52-1,.59a3.06,3.06,0,0,0,.73.19,5.81,5.81,0,0,1,2.44.5A12.41,12.41,0,0,1,90.38,77a.88.88,0,0,1,.2,1.22c-.33.41-.68.17-1,0l-.4-.22c-1.22-.63-2.43-1.26-3.65-1.87a2.48,2.48,0,0,0-1.17-.4,6.45,6.45,0,0,1-2.42-.52c-3-.85-6-1.71-9-2.51-.57-.15-1.21-.54-1.81,0-.08.08-.29,0-.44,0-1.74-.17-3.47-.38-5.21-.5a21.62,21.62,0,0,0-3.4.05,5.91,5.91,0,0,1-1.21.11,11,11,0,0,0-1.71,0c-1.25.07-2.49.19-3.74.25-3.3.15-6.6.36-9.9.4a33.24,33.24,0,0,1-10.66-1.58,5.11,5.11,0,0,0-2.14-.2,3.93,3.93,0,0,0-.85.4l.59.27c.91.38,1.81.82,2.74,1.12A36.47,36.47,0,0,0,44,74.56a70.58,70.58,0,0,0,10.37-.24c3.41-.28,6.81-.64,10.23-.66a53.26,53.26,0,0,1,8.75.63,41.52,41.52,0,0,1,11.91,3.78,12.28,12.28,0,0,1,3,1.81c-.27.94-.13,2-1,2.73l-.43-.74a1.77,1.77,0,0,0-.15.42,14.06,14.06,0,0,0,.83,5,1,1,0,0,1,.08.44.5.5,0,0,1-.2.36.44.44,0,0,1-.38-.11,6.72,6.72,0,0,1-.51-.71,4,4,0,0,0-1.11,2.21,4.44,4.44,0,0,1-.34,1c-.36,1-1.23,1.85-1.1,3,0,.09-.12.19-.16.29a6.29,6.29,0,0,0-.24.84c0,.26.05.59-.07.79-.6,1-.06,1.73.36,2.53.06.11.28.26.34.22a.6.6,0,0,0,.32-.38c.06-.76.06-1.52.11-2.28,0-.43-.07-1,.61-1,.09,0,.21-.3.2-.46,0-.41-.11-.82-.13-1.23a2,2,0,0,1,.13-.86,6.32,6.32,0,0,1,.63-.93.74.74,0,0,1,.26.92A11.26,11.26,0,0,0,86.05,95c0,.29-.16.58-.18.88a.83.83,0,0,0,.17.61,2.32,2.32,0,0,1,.72,2.25,1.43,1.43,0,0,0,.11.88c.74,1.12.22,2.21,0,3.3,0,.22-.4.42-.66.51s-.38-.2-.5-.37a2.2,2.2,0,0,1-.33-.72c-.25-1-.49-2-.72-3-.06-.24,0-.53-.43-.5a8.21,8.21,0,0,0,2.16,5.54l.34-.32a4.8,4.8,0,0,0,0,1.3,3.53,3.53,0,0,1-.32,2.53,6.9,6.9,0,0,0-.58,2.43c.38-.55.66-.57.95-.21a.68.68,0,0,1,.07.92,9.14,9.14,0,0,0-.6,1.29l-.82-.06c.79.6,1,1.11.53,1.72l-.53-.08a6.1,6.1,0,0,1,.28,1.25,10.49,10.49,0,0,1-.18,1.7,2.82,2.82,0,0,1-.64,1.54,1.74,1.74,0,0,0-.3,1.91,4,4,0,0,1,.41,1.52,13.57,13.57,0,0,0,.53,3.77A27,27,0,0,0,87.77,131a3.76,3.76,0,0,0,.33.45c-.11-.88-.65-1.61-.56-2.51.52,0,.62.39.77.67a34.3,34.3,0,0,0,3.6,4.81,29.53,29.53,0,0,0,3,2.94c.52.49,1.42.51,1.73,1.29.93.29,1.51,1.3,2.61,1.25a.27.27,0,0,1,.2.07c.5.77,1.21.69,2,.53a.72.72,0,0,1,.6.16c.11.13,0,.41,0,.52.35.13.64.22.93.34s.52.28.8.4.47-.2.62-.43a.31.31,0,0,1,.11,0,1.17,1.17,0,0,1,.17.15c.56.58.55.58,1.15.1.16-.13.43-.32.56-.27.57.22,1.25-.21,1.73.32s1.22-.32,1.81.06a2.05,2.05,0,0,0,.21.08,1.42,1.42,0,0,0,1.69-.23.74.74,0,0,1,1.1-.07.58.58,0,0,0,.9-.13,1.86,1.86,0,0,1,2.13-.59c.69.13,1.44-.13,2.15.13.1,0,.28-.09.41-.16a14.68,14.68,0,0,0,2.95-1.7,7.9,7.9,0,0,1,1.67-1.17,2,2,0,0,0,1.17-1.3c.24,0,.48.17.59.1.63-.41,1.24-.85,1.84-1.31.4-.31,0-.72.09-1.07a4.53,4.53,0,0,0,.06-.45c.26,0,.66.07.77-.07.35-.45.81-.4,1.32-.33l-.24-.47a4.51,4.51,0,0,0,1.61-.58A4.52,4.52,0,0,0,131,131c.56,0,.78-.61,1.2-.95a12.76,12.76,0,0,1,4.1-2.61,7,7,0,0,0,.93-.42.88.88,0,0,0,.55-1.11,1.7,1.7,0,0,0,1.67-.82,1.76,1.76,0,0,0-1.67.82,3.18,3.18,0,0,0-2.07.83,40.88,40.88,0,0,0-5,3.9c-.87.84-1.83,1.58-2.74,2.38-.37.32-.69.68-1,1-.28.19-.57.36-.83.58a29.36,29.36,0,0,1-7.59,4.72,23.64,23.64,0,0,1-6.35,1.71,1.57,1.57,0,0,0-.75.2.49.49,0,0,1-.68,0,1.49,1.49,0,0,0-.66-.12c-1.13-.08-2.26-.14-3.38-.24-.53,0-1.05-.13-1.58-.22a22,22,0,0,1-5.89-1.68A21.65,21.65,0,0,1,94,135.64a11.61,11.61,0,0,1-2.41-2.54c-.6-1-1.66-1.7-1.79-3,0-.16-.21-.31-.31-.47a7.4,7.4,0,0,1-1-1.64c-.35-1.17-.85-2.37-.33-3.64a1.21,1.21,0,0,0,0-.56c-.08-.53-.14-1.05-.24-1.57a2.59,2.59,0,0,1,.31-1.72l2.83,3.41a.47.47,0,0,0-.2.68,3.3,3.3,0,0,0,2.27,2,4.9,4.9,0,0,0-1.24-1.37,2.3,2.3,0,0,1-.85-1.29l.48,0a3.73,3.73,0,0,0,2,1.68c-.53-.75-1-1.52-2.06-1.67,0-.11,0-.25-.09-.32a29.87,29.87,0,0,1-2.27-3.39,2.52,2.52,0,0,1-.17-2.53c1.78,1.83,2.62,4.25,4.59,5.79l-1-2.32.45-.29c-.22-.15-.47-.23-.58-.4-.27-.4-1.08-.73-.25-1.35,0,0-.06-.25-.09-.39s-.08-.39-.17-.85c.71.68.9,1.53,1.75,1.73,0-.56-.78-.84-.37-1.49,1.67,1,2.46,2.82,4.08,3.84,0-.13,0-.22,0-.25-1.16-1.09-1.87-2.57-3.11-3.6a7.38,7.38,0,0,1-.65-.64,4.12,4.12,0,0,1-1.27-3.17l1.46,1.77.72-.47-.89-.73a2.31,2.31,0,0,0-.23-1.74,3,3,0,0,1-.4-1.61A3.09,3.09,0,0,0,93,110a3,3,0,0,1,.24-2q1-2.1,2.07-4.19a3.29,3.29,0,0,1,.35-.48c.31.32.53.74.85.84a14.64,14.64,0,0,0,2.33.49,1.37,1.37,0,0,0,1.54-.71,2.58,2.58,0,0,1,.54-.55l.92-.84c.34.21.91,0,1.28.5-1.2,0-1.2,0-1.35.91,1.74.12,3.48.26,5.21.36.79,0,1.58,0,2.36,0a.52.52,0,0,1,.16,1,13.53,13.53,0,0,1-1.58.46c.18.1.27.19.36.19,1.53-.08,3.11.19,4.56-.58a1.24,1.24,0,0,1,.54-.15c1,0,1.94,0,2.93,0,.06-.19-.17-.57.35-.57a7,7,0,0,0,1.12-.15,2.14,2.14,0,0,0,.76-.16.8.8,0,0,1,1.12.15,4.17,4.17,0,0,0,.53.38c.25-.8.27-.84.83-.65a4.15,4.15,0,0,0,2.36.16l.43-.85a6,6,0,0,0,.93.48c.31.1.75.24,1,.1.48-.32,1.16-.43,1.37-1.11,0-.13.27-.2.44-.32.16.93.19,1-.39,1.24a1,1,0,0,0-.72,1.24c0,.08-.1.18-.21.36l-1.58-.67.09,1.31c1.21.18,2.11-.51,3.06-.89s2.15-.09,2.81-1a6.72,6.72,0,0,0,2.12.75,3,3,0,0,1,1.84.57c.45-.18.81-.47,1.13-.43,1.15.14,1.72-.72,2.55-1.24-.89-.57-1.26-.67-1.55-.24-.39.6-1,.46-1.51.64-.33.12-.74-.3-.77-.67A.68.68,0,0,1,135,103a1.66,1.66,0,0,1,.43.08l.13-.72a5.21,5.21,0,0,0,1.68-.28,6.42,6.42,0,0,0,1.31-1.32,1.62,1.62,0,0,0,1.53-.45c.68-.52,1.3-.9,2.11-.31a.33.33,0,0,0,.11,0c.41.1.65,0,.71-.47,0-.19.19-.51.31-.52a1.89,1.89,0,0,0,1.34-.76.58.58,0,0,1,.39-.15,3.1,3.1,0,0,0,2.56-.77c.16-.18.48-.21.72-.32a1.58,1.58,0,0,0,.4-.21.35.35,0,0,0,.12-.29c0-.13-.17-.3-.27-.31a1.69,1.69,0,0,0-.66.08,1,1,0,0,1-1-.16c0-.29.09-.59.15-.88a1.37,1.37,0,0,1,1.74-1.14c.19,0,.36.14.54.17.48.07.95.22,1.29-.37.21-.36.67-.25,1.05-.24a2.88,2.88,0,0,0,2.23-.5c.64-.57,1.18-.39,1.78.36a1.14,1.14,0,0,0,1.09.48,17.27,17.27,0,0,0,1.76-.4c.36-.09.71-.22,1.07-.32.51-.14,1-.29,1.54-.38a3.63,3.63,0,0,1,1.77-.11,3.37,3.37,0,0,0,1.55-.11,9.93,9.93,0,0,0,1.5-.5.59.59,0,0,1,.89.42c.15.61.64.67,1,.84.68-.24.44-1.6,1.61-1.12,0,.39-.48.87,0,1.12a3.52,3.52,0,0,0,1.2.12l.81,1.27c.82-.82.82-.82,1.73-.45l.43.15a1.16,1.16,0,0,1,.91,1.16,1.24,1.24,0,0,0,.67,1.11l1.76,1.16-.25.64a1.74,1.74,0,0,1,1.76.53,1.36,1.36,0,0,0,1,1.83,1,1,0,0,1,.35.28,7.47,7.47,0,0,0,2,1.66c.37.21.6.65.95.91s.91.52,1.36.8.45.5.19.85-.65.94-1.37,1c.19.67.36,1.25.5,1.83a15.79,15.79,0,0,1,.84,5c-.14,1.7-.3,3.4-.37,5.11a15.1,15.1,0,0,1-.73,4c-.4,1.26-.68,2.57-1,3.86a4,4,0,0,0-.05.63,1.26,1.26,0,0,0,.2-.08c.19-.15.24-.58.58-.38.14.08.18.38.21.59.09.64-.37,1.23-.17,1.9,0,.06-.39.29-.62.34-.06,0-.29-.31-.3-.49a6.56,6.56,0,0,1,.11-1.07.91.91,0,0,0-.32.69c-.08,1.24-.23,1.45-1.4,1.69a13.25,13.25,0,0,1-4.27.57.66.66,0,0,0-.34,0,6.38,6.38,0,0,1-4,0,7.5,7.5,0,0,1-3.82-2,13,13,0,0,1-2.71-3.91c-.81-1.76-1.62-3.52-2.32-5.33a22,22,0,0,0-2.42-4.38,8,8,0,0,0-1-1.24,24.21,24.21,0,0,0-7.26-4.86,12.71,12.71,0,0,0-4.08-1c.57.43,1.23.38,1.41,1.13-2.2,0-4.34-.78-6.44.17a1.11,1.11,0,0,0,.66.29,8.6,8.6,0,0,0,1-.15.93.93,0,0,1,1.12.72c-.75.05-1.42.05-2.08.15s-1.29.28-1.94.43a.49.49,0,0,0,.46.12,12.26,12.26,0,0,1,5.32-.12c.84.18,1.94.1,2.18,1.35,0,.15.25.28.4.39.32.25.66.48,1.15.84-2.16-.26-4.19-.78-6.1.79.39,0,.64.14.81.07A6.07,6.07,0,0,1,149,114a9.21,9.21,0,0,1,3.63.87,2.56,2.56,0,0,1,1.43,1.25,11.87,11.87,0,0,0,2.65,3.67,7,7,0,0,1,1.14,1.55c.66,1.28,1.27,2.59,1.86,3.9a3.08,3.08,0,0,1,.17,1,3.41,3.41,0,0,0,1.91,3l-1-1.94a1.22,1.22,0,0,1,.53.35,7,7,0,0,1,1.91,2.31,10,10,0,0,0,1.16,1.54c.39.49,1,.85.93,1.62,0,.11.16.23.26.34l.88,1a13,13,0,0,0,.87,1,12,12,0,0,0,5,2.63,22,22,0,0,0,3.71.49,13.75,13.75,0,0,0,4.86-.26,25.81,25.81,0,0,1,2.79-.32c-.44.56-1.2.6-1.56,1.17.37.16.88.21,1,.46a4.7,4.7,0,0,1,.72,2.24,2.76,2.76,0,0,0,.62,2c.47.68.48.77-.15,1.14a17,17,0,0,1-6.19,2.18,10.4,10.4,0,0,1-5.18-.45l-2.35-.88a1,1,0,0,1-.35-.25c-.89-.92-.89-.92-2-1,.42-.86-.09-1.41-.6-2a4.94,4.94,0,0,1-.71-1c-.81-1.59-1.6-3.19-2.38-4.79a1.1,1.1,0,0,1,0-.41c1.41.45,1.65.45,2.49-.06l-1.79-1-.1.14.65.74A2.67,2.67,0,0,1,165,136a1.5,1.5,0,0,1-1.34-1.33,2.53,2.53,0,0,0-.42-.79c-.29-.49-.58-1-.9-1.45-.42-.63-.87-1.24-1.32-1.85a6.34,6.34,0,0,1-.93-1.28A3,3,0,0,0,159,128.1c-.36-.29-.7-.65-1.12,0-.05.08-.36,0-.51,0a7.41,7.41,0,0,1-.67-.42c-1.45-.83-2.89-1.68-4.37-2.47a4.7,4.7,0,0,0-2.82-.52c-.09.51.2.7.52.84s.65.21,1,.34c.6.24.7.48.58,1.14a1.72,1.72,0,0,0,0,.74,9,9,0,0,0,.39,1c.77-.11,1.49-.21,1.86-1a2.35,2.35,0,0,1,.46.23,18.46,18.46,0,0,0,2.83,2.08,1.09,1.09,0,0,1,.37.42c.41.77.83,1.54,1.19,2.33a1.58,1.58,0,0,1,.18,1,2,2,0,0,0,.38,1.61,13.76,13.76,0,0,0,1.18,1.65,3.06,3.06,0,0,1,.78,1.6,1.94,1.94,0,0,0,.46.88c.45.56,1,1.07,1.43,1.62a2,2,0,0,1,.56.84c.13,1,.89,1.52,1.44,2.15a7.62,7.62,0,0,0,2.73,2.16,5.11,5.11,0,0,1,.73.54,5.31,5.31,0,0,0,2.81,1.11,4.26,4.26,0,0,1,2.23.33.37.37,0,0,0,.33,0,1.78,1.78,0,0,1,1.91,0,1.1,1.1,0,0,0,.67,0c1.19-.32,2.53-.13,3.57-1a1,1,0,0,1,.54-.15c.39,0,.79-.32,1.17.11s-.24.67-.13,1.09c.39.09.82.67,1.13-.17,0-.06.25-.1.36-.07s.28,0,.39-.21c.18-.39.6-.45.74-.11.3.71.88.6,1.42.66l.65,0,.11.72c1,0,1.45.74,2,1.38a4.05,4.05,0,0,0,.86,1c.49.3,1,.49,1.2,1.12a.44.44,0,0,0,.36.23c.62-.09,1,.36,1.4.64a4.43,4.43,0,0,0,2,.84,1.65,1.65,0,0,1,.83.34c1,.83,2.37.31,3.44.9,0,0,.15,0,.22,0,.7-.37,1.27,0,1.86.31a2,2,0,0,0,.58.33c.78.12,1.56.19,2.34.28l4,.46a1.54,1.54,0,0,0,.67,0c.74-.27,1.47-.58,2.34-.92a3.15,3.15,0,0,0-.63-.2,4.55,4.55,0,0,1-2.07-.57,1.54,1.54,0,0,0-1-.18,3.25,3.25,0,0,1-2.29-.43,1.31,1.31,0,0,0-.75-.22c-1.16.2-2.25-.24-3.38-.25a4.43,4.43,0,0,0-1,0,4.83,4.83,0,0,1-2.79-.26,4.66,4.66,0,0,1-2.88-2c-1-1.81-2.28-3.49-3.46-5.22a1.71,1.71,0,0,1-.28-1.71c.86-.13,1.1-1.06,2-1.33a.84.84,0,0,0-1.06.19c-.32.37-.59.77-.89,1.16-.53-.14-.69-.59-.81-1-.43-1.61-.78-3.24-1.25-4.84a2.59,2.59,0,0,1,.92-2.83q4-3.64,8-7.23a1.41,1.41,0,0,1,.67-.39,2.16,2.16,0,0,0,1.23-.76,22.4,22.4,0,0,1,6.45-4.41,7.48,7.48,0,0,1,4.78-.25,1,1,0,0,1,.61.43,1.11,1.11,0,0,0,.85.49,12.06,12.06,0,0,1,3.88,1.56c.25.15.6.36.64.59.09.54.49.74.84,1a4.31,4.31,0,0,1,1.31,2c-.62.2-1.1-.59-1.64-.07.12.53.91.5.87,1.23a5.19,5.19,0,0,1-2.55,0,18.52,18.52,0,0,0-8-.38,6.55,6.55,0,0,1-1,.09,1.75,1.75,0,0,0-1.81,1.21c-.52-.25-1-.36-1.36.17.88,0,1.67.58,2.59.26.2-.07.5.15.74.24l.95.39a2.38,2.38,0,0,0,2.06-.07.83.83,0,0,1,.5,0c.21,0,.46.24.62.19a1.58,1.58,0,0,1,1.45.37c.17-.31.29-.55.42-.77a.55.55,0,0,1,.79-.23c1.06.58,2.27.42,3.38.74l1.09.28a7.31,7.31,0,0,0,2,.48,1.41,1.41,0,0,1,1,.33c1.1.87,2.18,1.77,3.29,2.63A9.23,9.23,0,0,0,226,138a6.35,6.35,0,0,1,1.07.64,16.58,16.58,0,0,0,4.4,2.06,2.09,2.09,0,0,1,1.33.79.75.75,0,0,0,1,.25,2.48,2.48,0,0,1,1.2-.06,8.16,8.16,0,0,0,4.57-.06,4,4,0,0,1,1.13-.09,2.26,2.26,0,0,0,.75-.1,4.24,4.24,0,0,1,2.84-.33c.06,0,.11.09.19.16l-.6.87c.54-.24.84-.38,1.15-.5a4.59,4.59,0,0,1,1.57-.57c1.24,0,2.23-1.06,3.51-.72.06,0,.14-.05.21-.09.57-.3,1.14-.6,1.8-.21a.34.34,0,0,0,.22,0,4.59,4.59,0,0,1,2,0c1,.17,1.37-.19,1.47-1.3,0-.14,0-.35.09-.41.84-.58.84-1.58,1.21-2.39a1,1,0,0,0-.48-1.46c-.78-.54-1.53-1.13-2.35-1.6a1,1,0,0,1-.49-1.33c.24-.72,1.17-.9,1.4-1.67,0-.09.33-.1.51-.14l.49-.09v-.22c-.27-.06-.54-.13-.81-.16s-.56.07-.65,0c-.39-.52-1-.31-1.48-.37l.37-.43c-1.53-.28-2.74.61-4.07.86a2.13,2.13,0,0,1-.18-.35c-.19-.72-.19-.76-.86-.74a14,14,0,0,0-1.81.17c-1,.15-1.94.41-2.92.49a8.5,8.5,0,0,0-3.41,1.2c-1,.57-2,1.18-3,1.81a2.08,2.08,0,0,1-2,.2,7.47,7.47,0,0,1-4-3.09c-.4-.69-.75-1.4-1.15-2.15l1,.07.38-1.25c-.94-.85-1.91-1.7-2.84-2.58s-1.84-1.81-2.77-2.69-1.86-1.73-2.77-2.58c.31-.47.62-.39,1-.25s.83.28,1.32.43c-.13.41-.12.82.55.89.13,0,.26.31.34.5a4.66,4.66,0,0,0,.3.83,6.62,6.62,0,0,0,1,1.2,4.08,4.08,0,0,0,1,.47c.32.68.48.75.93.36s.64-.54.56-1a.78.78,0,0,1,.48-.83,5.56,5.56,0,0,0,.46-.34,1.75,1.75,0,0,1-1.8-.78c-.61.47-.85.94-.47,1.61.21.37.39.79-.18,1a1.22,1.22,0,0,0-.55-.95c-.34-.29-.66-.6-1-.89a1.55,1.55,0,0,0-.57-2.45,1.07,1.07,0,0,1-.38-.52c-.18-.54-.53-.67-1.06-.6a1.47,1.47,0,0,1-1-.09,9.1,9.1,0,0,1-1.51-1.53c-.23-.29-.14-.87-.4-1.07s-.77-.13-1.17-.19c-.07,0-.13-.09-.2-.1a4,4,0,0,0-1.54-.15,1.62,1.62,0,0,1-1.58-.17c-.16-.11-.5,0-.75.08a4.6,4.6,0,0,0-.65.27,7.38,7.38,0,0,0-1.21-.92c-.37-.18-.91.07-1.2-.43,0-.06-.38,0-.51.09a.92.92,0,0,0-.42,1,8.13,8.13,0,0,1,1.37.23,11.74,11.74,0,0,1,1.42.69c.42.21.89.38.88,1.1-.64-.28-1.36-.38-1.71-.79a2.41,2.41,0,0,0-2-.72,6.1,6.1,0,0,1-1.32-.33,6.74,6.74,0,0,0-.77-.22l-4.5-.63a15.34,15.34,0,0,0-8.1,1.37,5.78,5.78,0,0,0-1,.58c-.07,0-.15.24-.12.28s.23.22.33.21c.26,0,.51-.14.77-.19s.76-.33,1.18-.15c-.7,1.41-2.22,1.85-3.3,2.84l.64.46-4,3.56c-.08.07-.2.19-.28.17a1.49,1.49,0,0,1-.69-.25c-.08-.07,0-.41.11-.58s.48-.5.58-.8c.42-1.18.8-2.37,1.16-3.57.2-.65.09-.8-.55-1.14a1.57,1.57,0,0,1-.57-.49.53.53,0,0,1,.11-.49c.07-.07.34,0,.47.09a4,4,0,0,1,.54.56,14.75,14.75,0,0,0,.56-1.5c.43-1.73.83-3.47,1.24-5.21.08-.32.2-.63.32-1,.59,0,1.12,0,1.65,0s.84.7,1.23,1.11c.91-.43,1.81-1.1,2.62.11l.92-.49c-.21-1.24-.19-1.27.71-1.49,0,.41-.08.83-.13,1.24a.68.68,0,0,0,.35.77.45.45,0,0,0,.67-.21c.14-.22.28-.14.47,0s.5.12.74.21a.68.68,0,0,0,.89-.23.83.83,0,0,0,.14-1,11.78,11.78,0,0,1-.56-1.11.58.58,0,0,0-.83-.35c-.59.24-1.17.51-1.76.77l.09-.84c-.47.06-.95.27-1.17.11a1.66,1.66,0,0,0-1.61,0l-.68-2-1.58.77a3,3,0,0,0-1.14-.19c-.29.08-.49.46-.88.85a7.05,7.05,0,0,1,0-1,10.46,10.46,0,0,0,0-3.51c-.12-.71-.21-1.43-.3-2.14-.26-2-.5-4.06-.76-6.08a2.08,2.08,0,0,0-.13-.43c-.65-1.78-1.31-3.56-1.93-5.35a4.62,4.62,0,0,1-.1-1.06,1.38,1.38,0,0,1-1.28-.65,22.16,22.16,0,0,0-3.28-2.78,6.79,6.79,0,0,0-1.31-.91,31,31,0,0,0-7.91-3.13,29.09,29.09,0,0,1-3-.93c-.94-.3-1.87-.64-2.81-.93a4.62,4.62,0,0,0-2.5-.07,1.77,1.77,0,0,0,1.24.42,4.39,4.39,0,0,1,2.45.84l-3-.49.26.44c-.4,0-.78,0-1.15.07-1.09.14-2.19.26-3.26.48a11.94,11.94,0,0,0-2,.7,28,28,0,0,0-4.46,1.7,3.84,3.84,0,0,1-.85.31A13.77,13.77,0,0,1,156.13,82c-.1,0-.18.13-.29.18-.45.19-.9.39-1.36.56-1.21.44-2.45.81-3.64,1.32-3.38,1.46-6.73,3-10.09,4.48a6.62,6.62,0,0,0-.85.55l0,0c-.25.08-.51.14-.75.25-1.28.57-2.55,1.16-3.84,1.72-1,.43-2,.79-2.93,1.24A48.5,48.5,0,0,1,125.07,95c-2.59.73-5.25,1.21-7.87,1.82a3.32,3.32,0,0,0-.76.41,3.71,3.71,0,0,0-.88-.16c-.72,0-1.43.13-2.15.23s-1.63.25-2.44.38-1.64-.47-2.61.23a5,5,0,0,0,2.6-.25c.74.48,1.54.18,2.3.12a9.18,9.18,0,0,1,1.32,0c.63,0,1.38.15,1.84-.53l2.28,0c.24,0,.5.1.44.38a.85.85,0,0,1-.35.52c-.18.11-.44.07-.66.13s-.71.2-.7.27c.08.71-.54.62-.86.72-1.14.37-2.34.5-3.46,1a.2.2,0,0,1-.11,0c-.6-.15-1.11.32-1.78.15s-1.21.23-1.82.35a3.2,3.2,0,0,1-.79.06l-6-.37c-.25,0-.5,0-.88,0a2.34,2.34,0,0,1,.35.31,4.89,4.89,0,0,1,.24.45c-.2.09-.43.29-.58.24a1.86,1.86,0,0,1-.93-.58.93.93,0,0,0-1.18-.37,4.16,4.16,0,0,0-.43.14c-.11,0-.21.09-.32.13-.56.16-.54.14-1.16-.53-.14-.15-.47-.12-.83-.19.3-.86.58-1.67.87-2.48a1.55,1.55,0,0,1,2.16-1.12,1.6,1.6,0,0,0,1.15,0c-.61-.3-1.27-.59-1.9-.94s-.55-.44-.34-1,.45-1.13.66-1.7c.53-1.5,1.07-3,1.58-4.51s1-2.72,1.32-4.12a39.43,39.43,0,0,0,.94-5,21.7,21.7,0,0,0,0-4.2,1.54,1.54,0,0,1,.43-1.4c1.49-1.51,3-3,4.41-4.61a65.47,65.47,0,0,0,4.49-5.74,28.63,28.63,0,0,0,4.12-8.71,15.24,15.24,0,0,1,1.54-4.26,20.13,20.13,0,0,0,1.36-3,9.86,9.86,0,0,0,.21-6.48,5.36,5.36,0,0,1-.19-1.67,6.5,6.5,0,0,0-1-4.2A11.82,11.82,0,0,0,114,30.86c-.16-.08-.39,0-.33,0L114.4,32c.78,0,.82.64,1.24,1.24a10.67,10.67,0,0,1-3.17-1.05,2,2,0,0,0-1.07-.29,5.92,5.92,0,0,1-1.13-.14c-2.1-.36-4.18-.78-6.29-1.06a20.48,20.48,0,0,0-3.18,0,2.58,2.58,0,0,0-.7.22,1.48,1.48,0,0,0,.8.2h2.17a2.79,2.79,0,0,1,1.87.82c-.7,0-1.16,0-1.61,0-1.29,0-2.58,0-3.87.13-.86.05-1.72.55-2.46-.46-.35-.47-2.13-.21-2.94.29l2.3.19a1.4,1.4,0,0,1-.85.2,23.4,23.4,0,0,0-5.33.41,4,4,0,0,0-1.18.4c-.44.21-.47.54-.13.92,1.83-1.14,3.86-1.11,5.86-1.26-1.25.45-2.52.82-3.77,1.24a29.84,29.84,0,0,0-3.1,1.14c-1.16.53-2.6.5-3.43,1.69-.06.08-.19.12-.29.17L81.1,38.5a1,1,0,0,1-1,.08.57.57,0,0,0-.82-.37c-.43.15-.86.28-1.28.44a4.1,4.1,0,0,0-1.54,1,7,7,0,0,0,1.41-.38l2.24-.74a4.35,4.35,0,0,1-.92.81c-2.23,1-4.47,2.05-6.72,3.06-3.91,1.76-7.82,3.51-11.74,5.25A37.54,37.54,0,0,1,54.24,50a50.63,50.63,0,0,1-6.61,1.06,19.24,19.24,0,0,1-7.89-.63,1.24,1.24,0,0,0-.54-.13c-.14,0-.26.22-.38.34h0a4.8,4.8,0,0,1-3.51-3,13.52,13.52,0,0,1,1.73.8,16.67,16.67,0,0,0,7.6,1.74A34.84,34.84,0,0,0,48.52,50c1.88-.22,3.76-.49,5.63-.85a27.34,27.34,0,0,0,5.53-1.76c2.41-1,4.87-1.94,7.29-2.94,1-.4,1.92-.9,2.88-1.36a12.62,12.62,0,0,1,1.73-.84c1.11-.33,2-1.12,3-1.55,0,0,0-.14.05-.26-.41-.18-.72.11-1,.26-3.17,1.47-6.32,3-9.5,4.43-1,.47-2.14.78-3.18,1.25a31.08,31.08,0,0,1-5.86,2.2c-1.77.41-3.58.63-5.39.89-.82.12-1.67.08-2.5.19A15.62,15.62,0,0,1,35,46.42a3.31,3.31,0,0,1-1-1.21c-.49-1.16-.86-2.38-1.28-3.57a2.62,2.62,0,0,1,.72.85c.71,1,1.41,2.08,2.69,2.33a9.91,9.91,0,0,1,2.52,1,18.42,18.42,0,0,0,2,.86,21,21,0,0,0,8.23.8c.14,0,.28-.15.42-.23A5.08,5.08,0,0,0,47.56,47a19.5,19.5,0,0,1-5.31-.41,16.47,16.47,0,0,1-4.47-1.94,9.33,9.33,0,0,1-2.24-1.91,8.77,8.77,0,0,1-2.21-7.26c0-.19,0-.38,0-.57a45.8,45.8,0,0,1,1.34-7.16,14.58,14.58,0,0,0,.94-6.15,2.15,2.15,0,0,1,0-.34c.06-2.09.15-4.18.16-6.27a18.24,18.24,0,0,0-.24-2.84A9.5,9.5,0,0,0,34,8.8c-.57.34-.52.83-.56,1.26,0,.28,0,.5-.37.59a.72.72,0,0,0-.4.48,7.28,7.28,0,0,0-.15,1.34A1.51,1.51,0,0,1,32,13.86c-.55.41-.49.73,0,1.28a7,7,0,0,1,.69,1s0,.12-.06.21L32,15.59l-.24.61-.45-1.25c-.11-.29-.22-.59-.6-.59s-.52.22-.66.53c-.38.83-.8,1.63-1.19,2.46q-.41.88-.77,1.77a3.56,3.56,0,0,0-.17,3m127.75,97.55a2.37,2.37,0,0,0-1.54-1.69l1.56,1.67a4.08,4.08,0,0,0,1.57,2.24A5.33,5.33,0,0,0,155.66,119.62Zm-47.91,7.05-4.62-1.26a6.1,6.1,0,0,0,1.75.79,7,7,0,0,0,2.88.45,1.46,1.46,0,0,0,.39.22,17.47,17.47,0,0,0,6.44.08,1,1,0,0,0,.28-.15,4.55,4.55,0,0,0-1.34-.06c-1,0-2,.11-3.06.1S108.66,126.74,107.75,126.68Zm-53.19-79a10.43,10.43,0,0,0,1.56-.27c1.47-.48,2.93-1,4.39-1.53.37-.13.72-.32,1.08-.49a1,1,0,0,0-.78-.07q-1.92.69-3.82,1.42c-.81.31-1.6.63-2.41,1-.56.07-1.12.12-1.67.2s-1,.2-1.53.3A6,6,0,0,0,54.57,47.71ZM30.41,56.36l-2.12-.18a1.59,1.59,0,0,0,.19.48c.22.24.59.41.71.69.22.49.71.34,1,.56.11.07.42-.17.65-.25s.49-.15.85-.26c-.34-.38-.63-.72-.94-1-.07-.07-.27,0-.41,0Zm31,103.33,1.37.6c-.22.32-.5.54-.49.74.07,1,.21,2,.33,3,0,0,0,.06.06.09a.9.9,0,0,1-.17,1.41,3.24,3.24,0,0,1,.43,1,3,3,0,0,0,.64,1.43c.29.48.44.48.88.14s.76-.43,1.21.06a9.62,9.62,0,0,0,1,1.06,1.17,1.17,0,0,0,1.37.23,1.35,1.35,0,0,0,.74-1.2c0-.26,0-.53,0-.8a.52.52,0,0,1,.55-.59,1.88,1.88,0,0,0,.45,0c.16-.05.37-.17.41-.29a.65.65,0,0,0-.16-.5c-.12-.13-.39-.15-.47-.29a1,1,0,0,1-.16-.69c.09-.3.4-.31.67-.17s.31.24.48.3a2.15,2.15,0,0,0,.51.07c0-.2.1-.46,0-.59-.29-.39-.68-.69-1-1.08a.91.91,0,0,1-.11-.71c0-.14.35-.22.55-.28s.23.07.33,0,.49-.11.55-.25a.72.72,0,0,0-.15-.6,7.56,7.56,0,0,0-.86-.75,2.84,2.84,0,0,1,.27-.39c.65-.65.65-.78-.06-1.27-.25-.17-.53-.29-.77-.48a2.45,2.45,0,0,1-.37-.46,1.34,1.34,0,0,1,.19-.24c.8-.54.81-.66.29-1.4a1,1,0,0,0-.84-.47,1,1,0,0,1-1-.86,1.17,1.17,0,0,0-.45-.62,1.74,1.74,0,0,1-.68-.85,1,1,0,0,0-.78-.49,9.32,9.32,0,0,0-1.92.12c-1.13.17-1.23.22-1.57,1.26a2.53,2.53,0,0,0,.28,2.36C61.59,157.57,61.58,158.66,61.38,159.68Zm44.32-28.22,0,.2a1.64,1.64,0,0,0,.3.14c.26.07.52.12.78.17a21.92,21.92,0,0,0,7.47.41,24.08,24.08,0,0,0,3.78-.79,27.85,27.85,0,0,0,6.4-3.2,18.46,18.46,0,0,0,2.06-1.77l3.68-3.23a34.56,34.56,0,0,1,3.28-2.81,36.91,36.91,0,0,0,3.48-2.73,2.79,2.79,0,0,0,.35-.46,1,1,0,0,0-.69.16c-1,.73-2.07,1.42-3,2.21-2.92,2.36-5.8,4.78-8.73,7.13a32.86,32.86,0,0,1-3.54,2.47A12.2,12.2,0,0,1,116,131c-1.62.14-3.26.15-4.88.2a3.16,3.16,0,0,0-1.19.26,3.26,3.26,0,0,1-2.52.22A7.44,7.44,0,0,0,105.71,131.47Zm42.74-26.9c-.37-.52.09-1.07-.31-1.55,0,0,.12-.3.2-.31.82-.09.75-.78,1.07-1.39h-1.25c.62-.48,1.23-1,2.06-.42.06-.52-.3-.62-.64-.79-.65-.33-1.14-.06-1.66.53-.38-1-1.53-.81-2-1.6-.1-.16-.45,0-.51.25-.11.51-.19,1-.26,1.38l-2.73,1.41c.41.59,1.12.38,1.58.58.26.34,0,.87.57,1l.18-1.12,2,.93a2.28,2.28,0,0,1,0,.36c-.06.8,0,1,.8.93A5.67,5.67,0,0,0,148.45,104.57ZM50.23,48.47l-7.76.28C45.2,49.29,47.69,48.8,50.23,48.47ZM142.4,129l1.18-1.23a2.38,2.38,0,0,0-2.08.07A1.57,1.57,0,0,0,142.4,129Zm13.89,2.12c.74,1,1,2.06,2,2.66A2.85,2.85,0,0,0,156.29,131.16Zm61.58,29.57a10,10,0,0,0,.27,4.26c.15.42.42.66,1.1.73C217.83,164.17,218.08,162.41,217.87,160.73ZM65.1,43.43A4.22,4.22,0,0,0,62.36,45C63.35,44.74,64.46,44.67,65.1,43.43ZM89.66,72c.05-.55-.3-.78-.65-1q-1-.59-2.1-1.14a3.53,3.53,0,0,0-.6-.19A17.25,17.25,0,0,0,89.66,72ZM240,142.29v.26l3.22.28c-.27-.24-.45-.51-.64-.53C241.73,142.26,240.87,142.29,240,142.29ZM40.58,62a4.14,4.14,0,0,0,2.5.3l-1.22-.45.16-.54C41.42,61.39,40.94,61.44,40.58,62ZM139.9,111.7c-2,.59-2.77,1.05-3.1,1.64Zm-69.13-71c.46.33.8.5,1.13-.1.13-.24.46-.38.67-.58a2.38,2.38,0,0,0,.28-.4l-.1-.1Zm93.83,92a2.67,2.67,0,0,0-1.77-1.87C163.6,131.43,163.82,132.28,164.61,132.66Zm-10.75-14A3.41,3.41,0,0,0,152,117,4.82,4.82,0,0,0,153.86,118.64ZM87,132c-.31-.58-1-.93-1.16-1.59l-.22,0C85.48,131.54,86.39,131.66,87,132ZM29.45,68.74c-.05.73.28.85.61.91s.58.44,1.1.17Zm39.92,3.38,0-.23-2.86-.39A6.05,6.05,0,0,0,69.38,72.11Zm16.51,33.31c-.38-.66-.62-1.11-.9-1.54-.07-.11-.25-.16-.49-.3A2.56,2.56,0,0,0,85.89,105.43Zm128.31,52.25c-.49-.31-.91-.81-1.58-.7C213.13,157.24,213.43,157.94,214.19,157.68Zm-2.93-1.29-.24-.15a2.5,2.5,0,0,0-.55.5c-.06.1.08.32.13.49.16,0,.4-.05.46-.16A2.56,2.56,0,0,0,211.27,156.38Zm0-44.14.77.83C212.3,112.2,212.21,112.11,211.27,112.24ZM215.15,158l.65.44.69.44C216.34,158.06,215.69,158.08,215.15,158Zm1,1.38a1.07,1.07,0,0,0,0,1.44C216.67,160.22,216,159.78,216.18,159.33ZM91.62,73.41c-.56-1-.76-1.11-1.53-1.07Zm60.63,22.17c-.61-.51-1-.11-1.45,0A1.83,1.83,0,0,0,152.25,95.58ZM49.78,64.94c.47.36.79.19,1.2-.12A.9.9,0,0,0,49.78,64.94Z"/><path d="M27.91,22.07a3.56,3.56,0,0,1,.17-3q.36-.9.77-1.77c.39-.82.81-1.63,1.19-2.46.14-.31.32-.53.66-.53s.49.3.6.59l.45,1.25.24-.61.62.79c0-.09.08-.18.06-.21a7,7,0,0,0-.69-1c-.5-.55-.56-.88,0-1.28a1.51,1.51,0,0,0,.52-1.39,7.28,7.28,0,0,1,.15-1.34.72.72,0,0,1,.4-.48c.37-.09.34-.31.37-.59,0-.43,0-.92.56-1.26a9.5,9.5,0,0,1,1.59,3.38A18.24,18.24,0,0,1,35.82,15c0,2.09-.1,4.18-.16,6.27a2.15,2.15,0,0,0,0,.34,14.58,14.58,0,0,1-.94,6.15,45.8,45.8,0,0,0-1.34,7.16c0,.19,0,.38,0,.57a8.77,8.77,0,0,0,2.21,7.26,9.33,9.33,0,0,0,2.24,1.91,16.47,16.47,0,0,0,4.47,1.94,19.5,19.5,0,0,0,5.31.41,5.08,5.08,0,0,1,1.72.21c-.14.08-.28.22-.42.23a21,21,0,0,1-8.23-.8,18.42,18.42,0,0,1-2-.86,9.91,9.91,0,0,0-2.52-1c-1.27-.25-2-1.34-2.69-2.33a2.62,2.62,0,0,0-.72-.85c.42,1.19.79,2.41,1.28,3.57a3.31,3.31,0,0,0,1,1.21,15.62,15.62,0,0,0,12.2,3.22c.83-.11,1.67-.07,2.5-.19,1.8-.26,3.61-.49,5.39-.89a31.08,31.08,0,0,0,5.86-2.2c1-.47,2.14-.78,3.18-1.25,3.18-1.45,6.33-3,9.5-4.43.31-.15.63-.43,1-.26,0,.13,0,.25-.05.26-1,.43-1.91,1.21-3,1.55a12.62,12.62,0,0,0-1.73.84c-1,.46-1.9,1-2.88,1.36-2.42,1-4.88,1.92-7.29,2.94a27.34,27.34,0,0,1-5.53,1.76c-1.86.35-3.74.62-5.63.85a34.84,34.84,0,0,1-3.87.22,16.67,16.67,0,0,1-7.6-1.74,13.52,13.52,0,0,0-1.73-.8,4.8,4.8,0,0,0,3.51,3c-.14.17-.38.34-.13.57a1.34,1.34,0,0,0,1.13.43,4.23,4.23,0,0,1,1.36,0,22,22,0,0,0,6.8.16c1.88-.24,3.78-.42,5.65-.75a38.91,38.91,0,0,0,8.2-2.73c.08,0,.13-.15.32-.37a9.46,9.46,0,0,0-2,.59c-1.36.49-2.7,1-4.08,1.46a39.16,39.16,0,0,1-8.29,1.43,21.39,21.39,0,0,1-9-.75c.13-.12.24-.31.38-.34a1.24,1.24,0,0,1,.54.13,19.24,19.24,0,0,0,7.89.63A50.63,50.63,0,0,0,54.24,50a37.54,37.54,0,0,0,6.53-2.35c3.92-1.73,7.83-3.49,11.74-5.25,2.25-1,4.49-2,6.72-3.06a4.35,4.35,0,0,0,.92-.81l0,0a1,1,0,0,0,1-.08L84.15,37c.1-.05.23-.09.29-.17.83-1.19,2.28-1.16,3.43-1.69A29.84,29.84,0,0,1,91,34c1.25-.42,2.52-.79,3.77-1.24-2,.15-4,.12-5.86,1.26-.34-.38-.3-.71.13-.92a4,4,0,0,1,1.18-.4,23.4,23.4,0,0,1,5.33-.41,1.4,1.4,0,0,0,.85-.2l-2.3-.19c.81-.5,2.59-.77,2.94-.29.74,1,1.6.51,2.46.46,1.29-.08,2.58-.09,3.87-.13.45,0,.9,0,1.61,0a2.79,2.79,0,0,0-1.87-.82h-2.17a1.48,1.48,0,0,1-.8-.2,2.58,2.58,0,0,1,.7-.22,20.48,20.48,0,0,1,3.18,0c2.11.28,4.19.7,6.29,1.06a5.92,5.92,0,0,0,1.13.14,2,2,0,0,1,1.07.29,10.67,10.67,0,0,0,3.17,1.05c-.42-.6-.46-1.26-1.24-1.24l-.71-1.11c-.06,0,.17-.07.33,0a11.82,11.82,0,0,1,4.64,3.93,6.5,6.5,0,0,1,1,4.2,5.36,5.36,0,0,0,.19,1.67,9.86,9.86,0,0,1-.21,6.48,20.13,20.13,0,0,1-1.36,3,15.24,15.24,0,0,0-1.54,4.26,28.63,28.63,0,0,1-4.12,8.71,65.47,65.47,0,0,1-4.49,5.74c-1.38,1.61-2.91,3.1-4.41,4.61a1.54,1.54,0,0,0-.43,1.4,21.7,21.7,0,0,1,0,4.2,39.43,39.43,0,0,1-.94,5c-.34,1.4-.86,2.75-1.32,4.12s-1,3-1.58,4.51c-.2.57-.45,1.13-.66,1.7s-.17.74.34,1,1.29.64,1.9.94a1.6,1.6,0,0,1-1.15,0,1.55,1.55,0,0,0-2.16,1.12c-.29.81-.57,1.62-.87,2.48.36.08.7,0,.83.19.62.67.6.69,1.16.53.11,0,.21-.09.32-.13a4.16,4.16,0,0,1,.43-.14.93.93,0,0,1,1.18.37,1.86,1.86,0,0,0,.93.58c.15.05.38-.15.58-.24a4.89,4.89,0,0,0-.24-.45,2.34,2.34,0,0,0-.35-.31c.38,0,.63,0,.88,0l6,.37a3.2,3.2,0,0,0,.79-.06c.61-.12,1.28-.48,1.82-.35s1.18-.3,1.78-.15a.2.2,0,0,0,.11,0c1.12-.45,2.33-.58,3.46-1,.33-.11.94,0,.86-.72,0-.06.45-.2.7-.27s.48,0,.66-.13a.85.85,0,0,0,.35-.52c.05-.29-.2-.38-.44-.38l-2.28,0v0a3.32,3.32,0,0,1,.76-.41c2.62-.61,5.28-1.09,7.87-1.82a48.5,48.5,0,0,0,7.33-2.82c1-.45,2-.81,2.93-1.24,1.28-.56,2.56-1.15,3.84-1.72.24-.11.5-.17.75-.25a5.91,5.91,0,0,0,.63.75c.08.07.31,0,.48-.07-.06-.16-.07-.41-.18-.45a5.75,5.75,0,0,0-1-.21,6.62,6.62,0,0,1,.85-.55c3.36-1.5,6.71-3,10.09-4.48,1.18-.51,2.42-.88,3.64-1.32.46-.17.91-.37,1.36-.56.1,0,.19-.17.29-.18a13.77,13.77,0,0,0,3.67-1.15,3.84,3.84,0,0,0,.85-.31,28,28,0,0,1,4.46-1.7,11.94,11.94,0,0,1,2-.7c1.07-.22,2.17-.33,3.26-.48.37,0,.74,0,1.15-.07l-.26-.44,3,.49a4.39,4.39,0,0,0-2.45-.84,1.77,1.77,0,0,1-1.24-.42,4.62,4.62,0,0,1,2.5.07c.94.28,1.87.62,2.81.93a29.09,29.09,0,0,0,3,.93,31,31,0,0,1,7.91,3.13,6.79,6.79,0,0,1,1.31.91,22.16,22.16,0,0,1,3.28,2.78,1.38,1.38,0,0,0,1.28.65,4.62,4.62,0,0,0,.1,1.06c.62,1.79,1.28,3.57,1.93,5.35a2.08,2.08,0,0,1,.13.43c.26,2,.5,4.06.76,6.08.09.72.19,1.43.3,2.14a10.46,10.46,0,0,1,0,3.51,7.05,7.05,0,0,0,0,1c.39-.4.6-.77.88-.85a3,3,0,0,1,1.14.19l1.58-.77.68,2a1.66,1.66,0,0,1,1.61,0c.22.16.7-.06,1.17-.11l-.09.84,0,0c-.9.22-.92.25-.71,1.49l-.92.49c-.81-1.2-1.71-.54-2.62-.11-.4-.41-.57-1.07-1.23-1.11s-1.05,0-1.65,0c-.11.34-.24.65-.32,1-.42,1.74-.81,3.48-1.24,5.21a14.75,14.75,0,0,1-.56,1.5,4,4,0,0,0-.54-.56c-.13-.09-.4-.15-.47-.09a.53.53,0,0,0-.11.49,1.57,1.57,0,0,0,.57.49c.64.34.75.49.55,1.14-.37,1.2-.74,2.39-1.16,3.57-.11.3-.42.52-.58.8s-.19.51-.11.58a1.49,1.49,0,0,0,.69.25c.08,0,.2-.1.28-.17l4-3.56-.64-.46c1.07-1,2.6-1.43,3.3-2.84-.42-.18-.8.07-1.18.15s-.51.16-.77.19c-.11,0-.25-.11-.33-.21s0-.23.12-.28a5.78,5.78,0,0,1,1-.58,15.34,15.34,0,0,1,8.1-1.37l4.5.63a6.74,6.74,0,0,1,.77.22,6.1,6.1,0,0,0,1.32.33,2.41,2.41,0,0,1,2,.72c.36.41,1.07.51,1.71.79,0-.72-.46-.89-.88-1.1a11.74,11.74,0,0,0-1.42-.69,8.13,8.13,0,0,0-1.37-.23.92.92,0,0,1,.42-1c.12-.1.47-.14.51-.09.3.5.83.25,1.2.43a7.38,7.38,0,0,1,1.21.92,4.6,4.6,0,0,1,.65-.27c.25-.07.59-.19.75-.08a1.62,1.62,0,0,0,1.58.17,4,4,0,0,1,1.54.15c.07,0,.13.09.2.1.4.06.9,0,1.17.19s.17.78.4,1.07a9.1,9.1,0,0,0,1.51,1.53,1.47,1.47,0,0,0,1,.09c.53-.07.88.06,1.06.6a1.07,1.07,0,0,0,.38.52,1.55,1.55,0,0,1,.57,2.45c.32.29.63.6,1,.89a1.22,1.22,0,0,1,.55.95l0,0a4.08,4.08,0,0,1-1-.47,6.62,6.62,0,0,1-1-1.2,4.66,4.66,0,0,1-.3-.83c-.08-.19-.21-.49-.34-.5-.66-.07-.68-.47-.55-.89-.49-.16-.92-.27-1.32-.43s-.65-.22-1,.25c.92.85,1.85,1.71,2.77,2.58s1.83,1.81,2.77,2.69,1.9,1.73,2.84,2.58l-.38,1.25-1-.07c.4.76.76,1.47,1.15,2.15a7.47,7.47,0,0,0,4,3.09,2.08,2.08,0,0,0,2-.2c1-.63,2-1.24,3-1.81a8.5,8.5,0,0,1,3.41-1.2c1-.08,1.94-.34,2.92-.49a14,14,0,0,1,1.81-.17c.67,0,.67,0,.86.74a2.13,2.13,0,0,0,.18.35c1.33-.25,2.54-1.14,4.07-.86l-.37.43c.52.06,1.09-.15,1.48.37.09.11.43,0,.65,0s.54.11.81.16v.22l-.49.09c-.18,0-.48.05-.51.14-.24.77-1.16.95-1.4,1.67a1,1,0,0,0,.49,1.33c.82.47,1.57,1.06,2.35,1.6a1,1,0,0,1,.48,1.46c-.37.81-.37,1.81-1.21,2.39-.08.06-.07.27-.09.41-.1,1.11-.48,1.47-1.47,1.3a4.59,4.59,0,0,0-2,0,.34.34,0,0,1-.22,0c-.66-.39-1.23-.09-1.8.21-.07,0-.15.1-.21.09-1.28-.34-2.27.74-3.51.72a4.59,4.59,0,0,0-1.57.57c-.31.12-.61.26-1.15.5l.6-.87c-.08-.07-.13-.15-.19-.16a4.24,4.24,0,0,0-2.84.33,2.26,2.26,0,0,1-.75.1,4,4,0,0,0-1.13.09,8.16,8.16,0,0,1-4.57.06,2.48,2.48,0,0,0-1.2.06.75.75,0,0,1-1-.25,2.09,2.09,0,0,0-1.33-.79,16.58,16.58,0,0,1-4.4-2.06A6.35,6.35,0,0,0,226,138a9.23,9.23,0,0,1-2.55-1.67c-1.11-.86-2.19-1.76-3.29-2.63a1.41,1.41,0,0,0-1-.33,7.31,7.31,0,0,1-2-.48l-1.09-.28c-1.11-.31-2.32-.16-3.38-.74a.55.55,0,0,0-.79.23c-.14.22-.25.46-.42.77a1.58,1.58,0,0,0-1.45-.37c-.16.06-.41-.14-.62-.19a.83.83,0,0,0-.5,0,2.38,2.38,0,0,1-2.06.07l-.95-.39c-.25-.1-.55-.31-.74-.24-.91.32-1.71-.21-2.59-.26.39-.53.84-.42,1.36-.17a1.75,1.75,0,0,1,1.81-1.21,6.55,6.55,0,0,0,1-.09,18.52,18.52,0,0,1,8,.38,5.19,5.19,0,0,0,2.55,0c0-.73-.74-.7-.87-1.23.55-.52,1,.27,1.64.07a4.31,4.31,0,0,0-1.31-2c-.36-.27-.75-.47-.84-1,0-.23-.39-.44-.64-.59a12.06,12.06,0,0,0-3.88-1.56,1.11,1.11,0,0,1-.85-.49,1,1,0,0,0-.61-.43,7.48,7.48,0,0,0-4.78.25,22.4,22.4,0,0,0-6.45,4.41,2.16,2.16,0,0,1-1.23.76,1.41,1.41,0,0,0-.67.39q-4,3.61-8,7.23a2.59,2.59,0,0,0-.92,2.83c.47,1.6.82,3.23,1.25,4.84.12.43.28.89.81,1l0,0a1.71,1.71,0,0,0,.28,1.71c1.17,1.73,2.43,3.41,3.46,5.22a4.66,4.66,0,0,0,2.88,2,4.83,4.83,0,0,0,2.79.26,4.43,4.43,0,0,1,1,0c1.13,0,2.23.46,3.38.25a1.31,1.31,0,0,1,.75.22,3.25,3.25,0,0,0,2.29.43,1.54,1.54,0,0,1,1,.18,4.55,4.55,0,0,0,2.07.57,3.15,3.15,0,0,1,.63.2c-.87.35-1.6.66-2.34.92a1.54,1.54,0,0,1-.67,0l-4-.46c-.78-.09-1.56-.16-2.34-.28a2,2,0,0,1-.58-.33c-.58-.33-1.16-.67-1.86-.31-.06,0-.17.08-.22,0-1.07-.59-2.43-.07-3.44-.9a1.65,1.65,0,0,0-.83-.34,4.43,4.43,0,0,1-2-.84c-.43-.28-.79-.73-1.4-.64a.44.44,0,0,1-.36-.23c-.18-.63-.71-.82-1.2-1.12a4.05,4.05,0,0,1-.86-1c-.51-.65-.93-1.42-2-1.38l-.11-.72-.65,0c-.54-.06-1.12,0-1.42-.66-.15-.34-.56-.28-.74.11-.11.23-.16.28-.39.21s-.34,0-.36.07c-.31.84-.74.26-1.13.17-.11-.42.49-.67.13-1.09s-.78-.13-1.17-.11a1,1,0,0,0-.54.15c-1,.87-2.38.68-3.57,1a1.1,1.1,0,0,1-.67,0,1.78,1.78,0,0,0-1.91,0,.37.37,0,0,1-.33,0,4.26,4.26,0,0,0-2.23-.33,5.31,5.31,0,0,1-2.81-1.11,5.11,5.11,0,0,0-.73-.54,7.62,7.62,0,0,1-2.73-2.16c-.56-.64-1.31-1.18-1.44-2.15a2,2,0,0,0-.56-.84c-.47-.55-1-1.06-1.43-1.62a1.94,1.94,0,0,1-.46-.88,3.06,3.06,0,0,0-.78-1.6,13.76,13.76,0,0,1-1.18-1.65,2,2,0,0,1-.38-1.61,1.58,1.58,0,0,0-.18-1c-.37-.79-.78-1.56-1.19-2.33a1.09,1.09,0,0,0-.37-.42,18.46,18.46,0,0,1-2.83-2.08,2.35,2.35,0,0,0-.46-.23c-.37.76-1.09.86-1.86,1a9,9,0,0,1-.39-1,1.72,1.72,0,0,1,0-.74c.12-.67,0-.9-.58-1.14-.32-.13-.66-.2-1-.34s-.61-.33-.52-.84a4.7,4.7,0,0,1,2.82.52c1.47.79,2.91,1.64,4.37,2.47a7.41,7.41,0,0,0,.67.42c.15.07.46.1.51,0,.42-.61.76-.24,1.12,0a3,3,0,0,1,1.11,1.25,6.34,6.34,0,0,0,.93,1.28c.45.61.89,1.23,1.32,1.85.32.47.6,1,.9,1.45a2.53,2.53,0,0,1,.42.79A1.5,1.5,0,0,0,165,136a2.67,2.67,0,0,0,.73.16l-.65-.74.1-.14,1.79,1c-.84.51-1.09.51-2.49.06a1.1,1.1,0,0,0,0,.41c.78,1.6,1.57,3.2,2.38,4.79a4.94,4.94,0,0,0,.71,1c.51.58,1,1.13.6,2,1.13.07,1.12.07,2,1a1,1,0,0,0,.35.25l2.35.88a10.4,10.4,0,0,0,5.18.45,17,17,0,0,0,6.19-2.18c.63-.38.62-.46.15-1.14a2.76,2.76,0,0,1-.62-2,4.7,4.7,0,0,0-.72-2.24c-.12-.25-.64-.3-1-.46.36-.57,1.12-.61,1.56-1.17a25.81,25.81,0,0,0-2.79.32,13.75,13.75,0,0,1-4.86.26,22,22,0,0,1-3.71-.49,12,12,0,0,1-5-2.63,13,13,0,0,1-.87-1l-.88-1c-.09-.11-.27-.24-.26-.34.07-.77-.54-1.13-.93-1.62a10,10,0,0,1-1.16-1.54,7,7,0,0,0-1.91-2.31,1.22,1.22,0,0,0-.53-.35l1,1.94a3.41,3.41,0,0,1-1.91-3,3.08,3.08,0,0,0-.17-1c-.59-1.31-1.19-2.62-1.86-3.9a7,7,0,0,0-1.14-1.55,11.87,11.87,0,0,1-2.65-3.67,2.56,2.56,0,0,0-1.43-1.25A9.21,9.21,0,0,0,149,114a6.07,6.07,0,0,0-2.69.2c-.17.07-.42,0-.81-.07,1.91-1.58,3.94-1.05,6.1-.79-.49-.36-.83-.6-1.15-.84-.15-.12-.37-.24-.4-.39-.24-1.25-1.34-1.17-2.18-1.35a12.26,12.26,0,0,0-5.32.12.49.49,0,0,1-.46-.12c.65-.15,1.28-.33,1.94-.43s1.33-.1,2.08-.15a.93.93,0,0,0-1.12-.72,8.6,8.6,0,0,1-1,.15,1.11,1.11,0,0,1-.66-.29c2.09-1,4.24-.22,6.44-.17-.17-.75-.84-.7-1.41-1.13a12.71,12.71,0,0,1,4.08,1,24.21,24.21,0,0,1,7.26,4.86,8,8,0,0,1,1,1.24,22,22,0,0,1,2.42,4.38c.7,1.8,1.51,3.57,2.32,5.33a13,13,0,0,0,2.71,3.91,7.5,7.5,0,0,0,3.82,2,6.38,6.38,0,0,0,4,0,.66.66,0,0,1,.34,0,13.25,13.25,0,0,0,4.27-.57c1.17-.24,1.32-.44,1.4-1.69a.91.91,0,0,1,.32-.69,6.56,6.56,0,0,0-.11,1.07c0,.18.24.51.3.49.23-.05.64-.28.62-.34-.2-.67.26-1.26.17-1.9,0-.21-.07-.51-.21-.59-.35-.2-.39.24-.58.38a1.26,1.26,0,0,1-.2.08,4,4,0,0,1,.05-.63c.32-1.29.59-2.59,1-3.86a15.1,15.1,0,0,0,.73-4c.07-1.7.24-3.41.37-5.11a15.79,15.79,0,0,0-.84-5c-.14-.59-.32-1.16-.5-1.83.73,0,1-.53,1.37-1s.18-.62-.19-.85-.94-.49-1.36-.8-.58-.7-.95-.91a7.47,7.47,0,0,1-2-1.66,1,1,0,0,0-.35-.28,1.36,1.36,0,0,1-1-1.83,1.74,1.74,0,0,0-1.76-.53l.25-.64-1.76-1.16a1.24,1.24,0,0,1-.67-1.11,1.16,1.16,0,0,0-.91-1.16l-.43-.15c-.91-.38-.91-.38-1.73.45l-.81-1.27a3.52,3.52,0,0,1-1.2-.12c-.51-.26-.08-.73,0-1.12-1.17-.48-.93.88-1.61,1.12-.39-.17-.88-.23-1-.84a.59.59,0,0,0-.89-.42,9.93,9.93,0,0,1-1.5.5,3.37,3.37,0,0,1-1.55.11,3.63,3.63,0,0,0-1.77.11c-.52.09-1,.25-1.54.38-.36.1-.71.23-1.07.32a17.27,17.27,0,0,1-1.76.4,1.14,1.14,0,0,1-1.09-.48c-.6-.75-1.14-.93-1.78-.36a2.88,2.88,0,0,1-2.23.5c-.39,0-.85-.11-1.05.24-.34.59-.81.44-1.29.37-.19,0-.36-.13-.54-.17a1.37,1.37,0,0,0-1.74,1.14c-.06.29-.1.59-.15.88a1,1,0,0,0,1,.16,1.69,1.69,0,0,1,.66-.08c.11,0,.22.19.27.31a.35.35,0,0,1-.12.29,1.58,1.58,0,0,1-.4.21c-.24.11-.56.14-.72.32a3.1,3.1,0,0,1-2.56.77.58.58,0,0,0-.39.15,1.89,1.89,0,0,1-1.34.76c-.12,0-.29.33-.31.52-.06.47-.3.57-.71.47a.33.33,0,0,1-.11,0c-.81-.6-1.43-.22-2.11.31a1.62,1.62,0,0,1-1.53.45,6.42,6.42,0,0,1-1.31,1.32,5.21,5.21,0,0,1-1.68.28l-.13.72A1.66,1.66,0,0,0,135,103a.68.68,0,0,0-.66.75c0,.37.44.79.77.67.5-.18,1.12,0,1.51-.64.29-.44.66-.33,1.55.24-.83.52-1.4,1.37-2.55,1.24-.32,0-.68.25-1.13.43a3,3,0,0,0-1.84-.57,6.72,6.72,0,0,1-2.12-.75c-.66.87-1.86.58-2.81,1s-1.85,1.08-3.06.89l-.09-1.31,1.58.67c.11-.18.22-.28.21-.36a1,1,0,0,1,.72-1.24c.58-.26.56-.31.39-1.24-.17.12-.4.19-.44.32-.21.68-.89.78-1.37,1.11-.2.14-.64,0-1-.1a6,6,0,0,1-.93-.48l-.43.85a4.15,4.15,0,0,1-2.36-.16c-.56-.19-.58-.15-.83.65a4.17,4.17,0,0,1-.53-.38.8.8,0,0,0-1.12-.15,2.14,2.14,0,0,1-.76.16,7,7,0,0,1-1.12.15c-.52,0-.29.38-.35.57-1,0-2,0-2.93,0a1.24,1.24,0,0,0-.54.15c-1.45.77-3,.5-4.56.58-.09,0-.19-.09-.36-.19a13.53,13.53,0,0,0,1.58-.46.52.52,0,0,0-.16-1c-.79-.05-1.58,0-2.36,0-1.74-.1-3.47-.24-5.21-.36.15-.92.15-.92,1.35-.91-.37-.53-.94-.29-1.28-.5l-.92.84a2.58,2.58,0,0,0-.54.55,1.37,1.37,0,0,1-1.54.71,14.64,14.64,0,0,1-2.33-.49c-.33-.11-.55-.53-.85-.84a3.29,3.29,0,0,0-.35.48q-1,2.09-2.07,4.19a3,3,0,0,0-.24,2,3.09,3.09,0,0,1,0,1.54,3,3,0,0,0,.4,1.61,2.31,2.31,0,0,1,.23,1.74l.89.73-.72.47-1.46-1.77a4.12,4.12,0,0,0,1.27,3.17,7.38,7.38,0,0,0,.65.64c1.24,1,2,2.5,3.11,3.6,0,0,0,.12,0,.25-1.62-1-2.42-2.87-4.08-3.84-.41.65.41.93.37,1.49-.85-.21-1-1.05-1.75-1.73.09.46.13.65.17.85s.13.35.09.39c-.83.62,0,1,.25,1.35.12.17.36.26.58.4l-.45.29,1,2.32c-2-1.54-2.81-4-4.59-5.79a2.52,2.52,0,0,0,.17,2.53,29.87,29.87,0,0,0,2.27,3.39c.07.07.06.21.09.32l0,0-.48,0,0,0-2.83-3.41a2.59,2.59,0,0,0-.31,1.72c.11.52.17,1,.24,1.57a1.21,1.21,0,0,1,0,.56c-.52,1.27,0,2.47.33,3.64a7.4,7.4,0,0,0,1,1.64c.1.16.3.3.31.47.13,1.28,1.19,2,1.79,3A11.61,11.61,0,0,0,94,135.64a21.65,21.65,0,0,0,5.14,3.31,22,22,0,0,0,5.89,1.68c.52.09,1,.17,1.58.22,1.13.09,2.25.15,3.38.24a1.49,1.49,0,0,1,.66.12.49.49,0,0,0,.68,0,1.57,1.57,0,0,1,.75-.2,23.64,23.64,0,0,0,6.35-1.71,29.36,29.36,0,0,0,7.59-4.72c.26-.21.55-.39.83-.58l0,0a4.53,4.53,0,0,1-.06.45c-.08.36.31.77-.09,1.07-.6.46-1.21.9-1.84,1.31-.11.07-.35-.05-.59-.1a2,2,0,0,1-1.17,1.3,7.9,7.9,0,0,0-1.67,1.17,14.68,14.68,0,0,1-2.95,1.7c-.13.07-.31.2-.41.16-.71-.26-1.46,0-2.15-.13a1.86,1.86,0,0,0-2.13.59.58.58,0,0,1-.9.13.74.74,0,0,0-1.1.07,1.42,1.42,0,0,1-1.69.23,2.05,2.05,0,0,1-.21-.08c-.59-.38-1.22.58-1.81-.06s-1.17-.1-1.73-.32c-.14-.05-.4.14-.56.27-.6.47-.59.48-1.15-.1a1.17,1.17,0,0,0-.17-.15.31.31,0,0,0-.11,0c-.15.22-.2.61-.62.43s-.52-.28-.8-.4-.58-.22-.93-.34c0-.11.06-.39,0-.52a.72.72,0,0,0-.6-.16c-.76.16-1.46.24-2-.53a.27.27,0,0,0-.2-.07c-1.1.05-1.68-1-2.61-1.25-.32-.78-1.21-.8-1.73-1.29a29.53,29.53,0,0,1-3-2.94,34.3,34.3,0,0,1-3.6-4.81c-.15-.28-.25-.66-.77-.67-.09.91.45,1.63.56,2.51a3.76,3.76,0,0,1-.33-.45,27,27,0,0,1-2.22-5.35,13.57,13.57,0,0,1-.53-3.77,4,4,0,0,0-.41-1.52,1.74,1.74,0,0,1,.3-1.91,2.82,2.82,0,0,0,.64-1.54,10.49,10.49,0,0,0,.18-1.7,6.1,6.1,0,0,0-.28-1.25L86,114c.45-.61.26-1.12-.53-1.72l.82.06a9.14,9.14,0,0,1,.6-1.29.68.68,0,0,0-.07-.92c-.28-.36-.56-.34-.95.21a6.9,6.9,0,0,1,.58-2.43,3.53,3.53,0,0,0,.32-2.53,4.8,4.8,0,0,1,0-1.3l-.34.32a8.21,8.21,0,0,1-2.16-5.54c.39,0,.37.26.43.5.23,1,.46,2,.72,3a2.2,2.2,0,0,0,.33.72c.12.17.38.4.5.37s.61-.29.66-.51c.24-1.09.75-2.19,0-3.3a1.43,1.43,0,0,1-.11-.88A2.32,2.32,0,0,0,86,96.52a.83.83,0,0,1-.17-.61c0-.3.19-.59.18-.88a11.26,11.26,0,0,1,.35-3.13.74.74,0,0,0-.26-.92,6.32,6.32,0,0,0-.63.93,2,2,0,0,0-.13.86c0,.41.11.82.13,1.23,0,.16-.11.45-.2.46-.69.08-.58.61-.61,1-.05.76-.05,1.52-.11,2.28a.6.6,0,0,1-.32.38c-.06,0-.28-.11-.34-.22-.42-.79-1-1.57-.36-2.53.12-.2,0-.53.07-.79a6.29,6.29,0,0,1,.24-.84c0-.1.17-.2.16-.29-.13-1.2.73-2,1.1-3a4.44,4.44,0,0,0,.34-1,4,4,0,0,1,1.11-2.21,6.72,6.72,0,0,0,.51.71.44.44,0,0,0,.38.11.5.5,0,0,0,.2-.36,1,1,0,0,0-.08-.44,14.06,14.06,0,0,1-.83-5,1.77,1.77,0,0,1,.15-.42l.43.74c.86-.73.73-1.79,1-2.73a12.28,12.28,0,0,0-3-1.81,41.52,41.52,0,0,0-11.91-3.78,53.26,53.26,0,0,0-8.75-.63c-3.43,0-6.83.38-10.23.66A70.58,70.58,0,0,1,44,74.56a36.47,36.47,0,0,1-8.85-1.51c-.94-.3-1.83-.74-2.74-1.12l-.59-.27a3.93,3.93,0,0,1,.85-.4,5.11,5.11,0,0,1,2.14.2A33.24,33.24,0,0,0,45.48,73c3.3,0,6.6-.24,9.9-.4,1.25-.06,2.49-.18,3.74-.25a11,11,0,0,1,1.71,0A5.91,5.91,0,0,0,62,72.31a21.62,21.62,0,0,1,3.4-.05c1.74.11,3.48.33,5.21.5.15,0,.36,0,.44,0,.59-.58,1.24-.2,1.81,0,3,.8,6,1.66,9,2.51a6.45,6.45,0,0,0,2.42.52,2.48,2.48,0,0,1,1.17.4c1.22.61,2.44,1.25,3.65,1.87l.4.22c.34.18.69.41,1,0a.88.88,0,0,0-.2-1.22,12.41,12.41,0,0,0-3.63-2.1,5.81,5.81,0,0,0-2.44-.5,3.06,3.06,0,0,1-.73-.19l1-.59-1.18-.52c1-.2,1.85.17,2.68-.39a2.56,2.56,0,0,0-.5-.41,13.26,13.26,0,0,0-2.79-.93c-1.18-.24-2.29-.76-3.46-1.09a35.51,35.51,0,0,0-8-1.32,23.91,23.91,0,0,1-2.71-.32,22.66,22.66,0,0,0-3.75-.18c-1.18,0-2.35.11-3.53.16a2.31,2.31,0,0,1-.47-.12c.23-.12.33-.22.43-.23a43.65,43.65,0,0,1,9-.06c.71.1,1.44.08,2.16.16A47.92,47.92,0,0,1,79.93,70c1,.28,2.1.37,3.11.68a42.73,42.73,0,0,1,7,3.09c.51.26,1,.53,1.53.77.93.42,1.11.38,1.76-.38a6.07,6.07,0,0,0,.45-.75L91.6,71.92c.14,0,.32-.18.45-.14.36.12.68.33,1,.44a.67.67,0,0,0,.49-.18c.05,0,0-.25-.05-.38l-.21-1.14-1,.63L92.15,71l.57-1.25c-.46-.32-.91-.67-1.39-1a1.28,1.28,0,0,1-.76-.91c-.12-.68-.85-.69-1.32-1.07.07-.14.13-.26.2-.38a.58.58,0,0,0-.26-.94,22.09,22.09,0,0,0-4.13-1.9c-2.1-.54-4.19-1.1-6.3-1.59a19.73,19.73,0,0,1-3.85-1c-.52-.24-1.23,0-1.79-.22-2.4-.79-4.81-.45-7.23-.22a1.62,1.62,0,0,1-.34,0c-1.51-.2-2.82.46-4.18.94-.93.32-1.88.56-2.83.83a1.17,1.17,0,0,0-.31.13c-1.79,1.17-3.94,1.23-5.93,2V63.17c.17-.13.41-.22.51-.4a2.12,2.12,0,0,1,2.71-.83c-.28-.56-.68-.46-1-.47-1.37,0-2.74,0-4.11,0a29.31,29.31,0,0,0-3.19-.08A20.78,20.78,0,0,1,42.93,61a3.68,3.68,0,0,1-.74-.24l-1.39-.46c-.11,0-.24,0-.33-.05a32.62,32.62,0,0,1-5.66-3.1,11.6,11.6,0,0,1-1.37-1.36A13.91,13.91,0,0,1,29.7,49.3a3,3,0,0,0-.19-.54,1.63,1.63,0,0,0-.15-.23A2.18,2.18,0,0,0,29,50.11a1,1,0,0,1-.69,1.22,3.14,3.14,0,0,0-1.25.9,2.1,2.1,0,0,0-.18,2.13,6.07,6.07,0,0,1,.15,1.21,12.33,12.33,0,0,0,.68,2.86c.47,1.16,1.14,2.23,1.72,3.34a7.86,7.86,0,0,0,1.89,2.4,5.11,5.11,0,0,1,.44.5c-.6.14-.81-.33-1.15-.47s-.65-.2-.7.35a9.6,9.6,0,0,1-2.13-2.8,10.63,10.63,0,0,1-1.62-3.87,4.67,4.67,0,0,0-.84-1.75l1.08,4.66a.51.51,0,0,1-.55-.4c-.42-1.49-.86-3-1.24-4.48-.26-1-.46-2.07-.67-3.11-.05-.26,0-.53-.08-.78a1.79,1.79,0,0,0-.4-.76,5.15,5.15,0,0,0,0,2.43,17.35,17.35,0,0,0,.51,2.44,1.75,1.75,0,0,1,.1.33,12.63,12.63,0,0,0,1.83,5.91s0,.07,0,.26a6.68,6.68,0,0,1-.71-.73c-.37-.53-.69-1.09-1.05-1.62-.25-.37-.45-.8-1-.78-.12,0-.31-.2-.36-.35-.5-1.59-1-3.18-1.47-4.77.31-1,0-2.09.15-3.13a9.06,9.06,0,0,0,0-1.35l-.56.93A3.5,3.5,0,0,1,21,49.4c.45-1.18,1.18-2.22,1.62-3.39.58-1.52,1-3.09,1.56-4.64.24-.72.48-1.44.74-2.15.14-.38.25-.79.79-.86.15,0,.32-.31.39-.51a15.76,15.76,0,0,0,.71-2.16,16.86,16.86,0,0,0,.62-5.4,3.87,3.87,0,0,1,.11-1M124.62,100a7.43,7.43,0,0,0,.88.07c.48,0,.11.59.47.63s.49,0,.74,0c0-.24,0-.56-.11-.7a10,10,0,0,0-1.17-.92l-.8.92a3.78,3.78,0,0,0-.66,0c-.39.09-.48.36-.21.64a1,1,0,0,0,.55.27c.08,0,.21-.26.26-.42A2.38,2.38,0,0,0,124.62,100ZM68.49,45.19a11.76,11.76,0,0,0,1.27-.43c1.12-.52,2.23-1.07,3.34-1.62.9-.45,1.8-.92,2.7-1.38a7.6,7.6,0,0,0,1.08-.32q2.47-1.13,4.93-2.32a1.94,1.94,0,0,0,1.12-.77,6.63,6.63,0,0,0-.67.21c-1.92.88-3.85,1.76-5.76,2.66a3.45,3.45,0,0,0-.68.56,5.4,5.4,0,0,0-1.09.26c-2,.93-3.95,1.88-5.92,2.84-.12.06-.21.21-.31.32a6.59,6.59,0,0,0-3.08,1.51A12,12,0,0,0,68.49,45.19Zm96.8,95.16c-.14.43-.35.89,0,1.28s.89.82,1.5,1.36a4.78,4.78,0,0,0-1.54-2.63c-.27-.82-.53-1.65-.82-2.46a1.25,1.25,0,0,0-.42-.52,2.13,2.13,0,0,1-.64-1,6,6,0,0,0-2.2-3l.06,1-.85-1.08a.67.67,0,0,0,0,.54c.57,1.6,1.52,3,2.22,4.56.17.38.34.76.54,1.12a.58.58,0,0,0,.79.24c.35-.13.3-.37.2-.65a1.51,1.51,0,0,1,0-.45h.23a11.69,11.69,0,0,1,.14,1.17C164.51,140.41,164.49,140.41,165.28,140.36ZM77.6,54.78v0c-.31.2-.61.43-.93.59-.62.32-1.29.52-2.13,1,.72.11,1.17.16,1.62.25,1.86.36,3.75.63,5.58,1.11a68.76,68.76,0,0,1,9,3.21,2,2,0,0,0,.75.24,3.35,3.35,0,0,1,2.12.67,1,1,0,0,0,.52.22,3.13,3.13,0,0,1,1.69.86,12,12,0,0,0,1.49,1c.34.18.8-.07,1.16.2.27-.53.78-.24,1.16-.45l.08.7a10,10,0,0,0,1.21-.85c1.34-1.28,2.63-2.62,4-3.89a48.6,48.6,0,0,0,4.24-5.29,1.63,1.63,0,0,0,.25-1.68c-.1-.33-.26-.64-.35-1a2.24,2.24,0,0,0-1.09-1.4,17,17,0,0,0-1.52-.76,22,22,0,0,0-5.34-1.09,10.86,10.86,0,0,0-1.89-.26c-1.21,0-2.42.12-3.63.22a23.19,23.19,0,0,0-3.72.42,48.26,48.26,0,0,0-6,1.88c-3,1.18-5.85,2.53-8.77,3.81a4.22,4.22,0,0,0-.57.37l.07.11ZM108.31,38c.31-.7.27-1-.27-1.2a3.44,3.44,0,0,0-1-.25,3.68,3.68,0,0,1-1.68-.61,4.17,4.17,0,0,0-1.9-.7,30.76,30.76,0,0,0-4.2,0,19.08,19.08,0,0,0-4.43,1,48.37,48.37,0,0,0-7.2,2.86c-4.21,2.12-8.48,4.1-12.79,6a1.92,1.92,0,0,1-1.2.18,2,2,0,0,0-1.51.26c-2.56,1.17-5.1,2.38-7.68,3.48a58,58,0,0,1-8,3c-1.06.28-2.1.67-3.18.86-2.05.37-4.12.63-6.18.94a3.18,3.18,0,0,0-.59.29l.66.17a.9.9,0,0,1-.61.17c-1.51-.18-3-.3-4.52-.57a36.21,36.21,0,0,1-4.19-1,8.25,8.25,0,0,1-2.47-1.15c-.73-.53-1.66-.52-2.35-1.12a2.22,2.22,0,0,0,.34.7L35,53.7c.22.31.42.64.67.92A12.81,12.81,0,0,0,41,58.31a6.1,6.1,0,0,1,.75.39c-1.81,0-3.14-1.27-4.87-1.83a3.84,3.84,0,0,0,1.91,1.6,11.55,11.55,0,0,0,5.1,1.79c.48,0,1-.1,1.45-.07,1.51.11,3,.26,4.54.4a5.2,5.2,0,0,0,2.07-.11,4.7,4.7,0,0,0-2.09-.25c-.86,0-.86,0-1.28-.79l-5.42.31a.86.86,0,0,1,.61-.32c1.78-.11,3.56-.23,5.34-.29.4,0,.82.31,1.2.26s.7-.39,1.06-.57a3.21,3.21,0,0,1,.66-.17c.7-.17,1.42-.29,2.1-.51,3.73-1.18,7.5-2.22,11.11-3.76,1.92-.82,3.88-1.53,5.81-2.32,1.19-.49,2.36-1,3.54-1.56,2.86-1.23,5.72-2.43,8.57-3.68a48.15,48.15,0,0,1,6.58-2.54c1.1-.3,2.18-.68,3.29-.9,1.34-.27,2.69-.46,4-.61a24.65,24.65,0,0,1,5.8,0c.56.07,1.14.06,1.7.14s1.09.2,1.69.32c0-.49-.29-1.07.5-1.1.06,0,.2-.32.16-.46a1.81,1.81,0,0,0-.34-.52,3,3,0,0,1,1.43.37c.86.47,1.68,1,2.53,1.48.53.29.88,0,.87-.56A1.69,1.69,0,0,0,110,40.66c-.91-.26-1.85-.45-2.78-.64-.42-.09-.83-.14-.91-.68.83,0,1.66,0,2.49,0,.43,0,.52-.2.6-.56ZM76.55,58.88a7.67,7.67,0,0,1,.88.11c.25.06.49.22.74.27,1.63.33,3.28.6,4.9,1s3.46.85,5.14,1.42c1.32.45,2.57,1.12,3.85,1.68.27.12.54.38,1,.15a11.15,11.15,0,0,0-3.36-2.43,51.52,51.52,0,0,0-5.15-2.13,46.24,46.24,0,0,0-10-2.25,3.15,3.15,0,0,0-1.44.17c-1.35.51-2.67,1.09-4,1.65a6.92,6.92,0,0,0-.75.43,7.55,7.55,0,0,0,1.49.22,11.47,11.47,0,0,1,1.47.53,1.67,1.67,0,0,0,.45,0,38,38,0,0,1,6.22.68,2.22,2.22,0,0,0,.49,0,1.62,1.62,0,0,0-1.33-.84C76.81,59.56,76.62,59.34,76.55,58.88Zm95.22,74.56c2.49.66,6,1.33,8,.16l-1.09-.11c-1.2-.09-2.42-.1-3.6-.29A6.59,6.59,0,0,0,171.77,133.44Zm2.15,2.31,0,.24a15.46,15.46,0,0,0,3.22.51c1.47.1,2.79-.54,4.17-.9a.28.28,0,0,0,.18-.12.86.86,0,0,0,.07-.41.32.32,0,0,0-.24-.19,2.39,2.39,0,0,0-.68.05c-1.13.27-2.25.58-3.38.83a6.8,6.8,0,0,1-1.54.15C175.11,135.9,174.52,135.81,173.92,135.75Zm-17.08-7.27,1.41,1.8a.93.93,0,0,0,.24.23c.47.27,1.28.24,1,1.15,0,0,.13.07.18.12.2.25.39.52.6.77a3.07,3.07,0,0,0,.36.32,11.89,11.89,0,0,0-.82-2.48c-.05-.13-.18-.3-.29-.31-.66-.07-.94-.58-1.25-1A1.32,1.32,0,0,0,156.84,128.48ZM149.71,89c-.29-.15-.43-.29-.53-.26-.7.16-1.39.34-2.07.55s-1.2.44-1.8.65a4.85,4.85,0,0,0-2.18,1.2c1.27.08,1.28.1,1.9-.49a1.92,1.92,0,0,1,1.22-.53A14.85,14.85,0,0,0,149.71,89ZM185.33,110a2.26,2.26,0,0,0,.38-.24c.33-.3.65-.6.95-.93.13-.15.3-.37.27-.53s-.71-.65-.91-.49a3,3,0,0,0-1.26,1.54A.56.56,0,0,0,185.33,110Zm-4.81-13a5.51,5.51,0,0,0-1.46-.87,4.68,4.68,0,0,0-1.63.17.81.81,0,0,0-.06.44,9.17,9.17,0,0,0,1.76.58A4.55,4.55,0,0,0,180.52,96.93Zm-25.15-9.75a4.74,4.74,0,0,1,1.1-.22c.87,0,1.43-.55,2.08-.95,0,0,0-.19,0-.32-.84.17-1.63.36-2.43.48C155.51,86.26,155.36,86.62,155.38,87.18ZM54.45,59a7.58,7.58,0,0,1,.72.49c.39.35.66.39,1-.12.14-.22.58-.29.9-.34s.46.07.34.41c0,0,.12.11.16.1a8.61,8.61,0,0,0,.95-.33.34.34,0,0,0,.11-.29.34.34,0,0,0-.2-.23,1.61,1.61,0,0,0-.56,0Zm68.71,37.54a1.5,1.5,0,0,0-2.13.57.56.56,0,0,0,.11.87c.27.18.44.08.64-.19s.49-.31.71-.5A8.14,8.14,0,0,0,123.16,96.53Zm-9,8.21c-.26-.47-.61-.35-.85-.35a10.75,10.75,0,0,0-3.1.3C111.65,105.83,112.83,104.69,114.19,104.74Zm53,29.09c.36,1.45.81,1.76,2.41,1.69C169.08,134.45,167.86,134.58,167.14,133.83ZM59.69,57.89l0-.2a3.82,3.82,0,0,0-1.39-.28,20,20,0,0,0-2.56.87,3.38,3.38,0,0,0,2-.2C58.42,58,59.06,57.95,59.69,57.89Zm62.89,41.56,0-.31a7.21,7.21,0,0,0-2,0c-.14,0-.27.28-.4.43.17.11.37.33.52.31C121.3,99.77,121.94,99.6,122.58,99.45ZM183.2,126a3.57,3.57,0,0,0,.76-3.07c-.23.33-.51.54-.55.8C183.3,124.39,183.28,125.09,183.2,126Zm-82.86-23a4.94,4.94,0,0,1-.87.22c-.25,0-.51-.08-.77-.09a.61.61,0,0,0-.69.44C99.25,104.35,99.25,104.35,100.34,103Zm-10-67.87,4.8-1.47-.07-.21A17.89,17.89,0,0,0,90.32,35.08ZM53.43,60.36a2.67,2.67,0,0,0,2,.09,4.38,4.38,0,0,0,1.79-.22A18.63,18.63,0,0,0,53.43,60.36Zm88.22,33.47c-.85-.64-1.25-.58-2.4.24.05,0,.11.15.15.14ZM181,95.6c.52.21.89.25,1.09.46s.18.56.3,1c.81-.91,0-1.32-.18-1.92Zm-7,39.37v.21c.55.06,1.1.14,1.65.16.14,0,.28-.18.42-.27-.12-.17-.2-.4-.36-.49s-.36,0-.54.05C174.85,134.73,174.46,134.86,174.07,135ZM87.53,95.59c-.38-.46.05-1.21-.57-1.58C86.28,94.94,86.41,95.32,87.53,95.59Zm79.43,49c.06.14.09.37.2.42.64.29,1.1,1,2.06,1C168.61,145.14,167.74,145,167,144.57ZM137.2,91.19c-1.11-.28-1.46-.15-2.33.8Zm8.32,3.58a9.28,9.28,0,0,0,1-.84c.18-.2.07-.44-.21-.51a.59.59,0,0,0-.79.55A6.44,6.44,0,0,0,145.52,94.77Zm-3.29-3.45a3.13,3.13,0,0,0-2.18.9C140.93,92.18,141.7,92.33,142.23,91.32Zm-16.12,4.5a1.71,1.71,0,0,0-2,.18A2.94,2.94,0,0,0,126.11,95.83Zm3,6.51c.29-.45.51-.74.67-1.07.06-.13,0-.32,0-.48-.17,0-.41,0-.51.09A1.2,1.2,0,0,0,129.16,102.33Zm121.46,29.08a7.16,7.16,0,0,0,2.62-1A4.82,4.82,0,0,0,250.62,131.41ZM136.56,93.55c1.23.2,1.31.13,1.18-.81Zm32.64,39.85a1.69,1.69,0,0,0,1.74.7C170.57,133.31,170,133.38,169.2,133.39Zm15.87-25.82c-.35-.72-.51-.88-.87-.86-.12,0-.32.14-.32.22s.07.39.18.44A5.74,5.74,0,0,0,185.07,107.57Zm-96.22-72a4.08,4.08,0,0,0-2.28,1.24A8,8,0,0,0,88.85,35.55ZM50,73.61a3.44,3.44,0,0,0,2-.11A2.09,2.09,0,0,0,50,73.61Zm118.24,5v.09h3.28v-.09Zm23.38,43.79c-.42-.33-.71-.32-.92,0a.58.58,0,0,0,.1.91ZM132.83,95a1.14,1.14,0,0,0,1.28-.41C133.09,94.24,133.09,94.24,132.83,95Zm37.89,36.25c.48.64,1.12.46,2,.42A4.19,4.19,0,0,0,170.72,131.2ZM165.24,143c.41.3.43,1,1.25,1.09C166.14,143.5,165.89,143,165.24,143Zm-52.53-40.28a1.76,1.76,0,0,0-1.43.28A1.16,1.16,0,0,0,112.72,102.71Zm26.88-10.3a1.59,1.59,0,0,0-1.54-.1C138.59,92.68,139,92.92,139.59,92.41Zm35.55,39.7c-.68-.53-1.21-.11-1.9.19A2.3,2.3,0,0,0,175.14,132.11ZM66.81,59.63a2.26,2.26,0,0,0,1.61-.09A1.33,1.33,0,0,0,66.81,59.63ZM121.5,104a.79.79,0,0,0,1,0c.07-.05.08-.19.11-.29-.12,0-.27-.15-.37-.12A6.14,6.14,0,0,0,121.5,104ZM39.6,52.76A2,2,0,0,0,38,52.41,2.29,2.29,0,0,0,39.6,52.76ZM29,62.32c.25,1,.25,1,.94,1.12Z"/><path d="M61.38,159.68c.19-1,.2-2.11,1.52-2.38a2.53,2.53,0,0,1-.28-2.36c.35-1,.45-1.09,1.57-1.26a9.32,9.32,0,0,1,1.92-.12,1,1,0,0,1,.78.49,1.74,1.74,0,0,0,.68.85,1.17,1.17,0,0,1,.45.62,1,1,0,0,0,1,.86,1,1,0,0,1,.84.47c.51.74.51.86-.29,1.4a1.34,1.34,0,0,0-.19.24,2.45,2.45,0,0,0,.37.46c.24.19.52.31.77.48.7.49.7.62.06,1.27a2.84,2.84,0,0,0-.27.39,7.56,7.56,0,0,1,.86.75.72.72,0,0,1,.15.6c-.05.14-.35.19-.55.25s-.24-.08-.33,0-.5.14-.55.28a.91.91,0,0,0,.11.71c.28.39.67.7,1,1.08.09.13,0,.39,0,.59a2.15,2.15,0,0,1-.51-.07c-.17-.07-.31-.22-.48-.3s-.58-.13-.67.17a1,1,0,0,0,.16.69c.08.14.35.16.47.29a.65.65,0,0,1,.16.5c0,.13-.25.24-.41.29a1.88,1.88,0,0,1-.45,0,.52.52,0,0,0-.55.59c0,.27,0,.53,0,.8a1.35,1.35,0,0,1-.74,1.2,1.17,1.17,0,0,1-1.37-.23,9.62,9.62,0,0,1-1-1.06c-.45-.49-.64-.51-1.21-.06s-.59.34-.88-.14a3,3,0,0,1-.64-1.43,3.24,3.24,0,0,0-.43-1,.9.9,0,0,0,.17-1.41s-.06-.06-.06-.09c-.12-1-.26-2-.33-3,0-.2.27-.41.49-.74Zm6.53,3.63c.25-.41.58-.71.54-.94-.14-.66,0-1,.7-1.17a.55.55,0,0,0,.26-1,1,1,0,0,0-.65-.39,2.63,2.63,0,0,0-.85.35c-.82-1.31-2.17-1.23-2.8.06.41.35.81.7,1.2,1,.63.57.61,1.09-.12,1.52a13.13,13.13,0,0,1-1.64.68,11.1,11.1,0,0,0-.7,1,1.43,1.43,0,0,0-.17.71c.76.36.48,1.1.61,1.76a28.15,28.15,0,0,0,2.87.61c1,0,1.52-.34,1.47-1.3a2.68,2.68,0,0,1,.58-1.94Z"/><path d="M105.71,131.47a7.44,7.44,0,0,1,1.66.24,3.26,3.26,0,0,0,2.52-.22,3.16,3.16,0,0,1,1.19-.26c1.63,0,3.26-.06,4.88-.2a12.2,12.2,0,0,0,5.29-1.65,32.86,32.86,0,0,0,3.54-2.47c2.93-2.35,5.81-4.77,8.73-7.13,1-.79,2-1.48,3-2.21a1,1,0,0,1,.69-.16,2.79,2.79,0,0,1-.35.46,36.91,36.91,0,0,1-3.48,2.73,34.56,34.56,0,0,0-3.28,2.81l-3.68,3.23a18.46,18.46,0,0,1-2.06,1.77,27.85,27.85,0,0,1-6.4,3.2,24.08,24.08,0,0,1-3.78.79,21.92,21.92,0,0,1-7.47-.41c-.26,0-.52-.1-.78-.17a1.64,1.64,0,0,1-.3-.14Z"/><path d="M148.45,104.57a5.67,5.67,0,0,1-.88.17c-.76,0-.87-.13-.8-.93a2.28,2.28,0,0,0,0-.36l-2-.93-.18,1.12c-.56-.11-.31-.64-.57-1-.45-.21-1.16,0-1.58-.58l2.73-1.41c.07-.36.15-.87.26-1.38.06-.3.41-.4.51-.25.5.79,1.66.59,2,1.6.52-.59,1-.86,1.66-.53.34.17.7.27.64.79-.83-.54-1.44-.06-2.06.42h1.25c-.32.61-.25,1.31-1.07,1.39-.08,0-.22.28-.2.31C148.54,103.49,148.08,104,148.45,104.57Z"/><path d="M137.79,125.87a.88.88,0,0,1-.55,1.11,7,7,0,0,1-.93.42,12.76,12.76,0,0,0-4.1,2.61c-.42.34-.64.93-1.2.95a4.52,4.52,0,0,1-.67,1.57,4.51,4.51,0,0,1-1.61.58l.24.47c-.51-.08-1-.12-1.32.33-.11.14-.5.05-.77.07l0,0c.35-.34.67-.71,1-1,.91-.8,1.87-1.54,2.74-2.38a40.88,40.88,0,0,1,5-3.9,3.18,3.18,0,0,1,2.07-.83Z"/><path d="M202.91,106.62c.59-.26,1.17-.53,1.76-.77a.58.58,0,0,1,.83.35,11.78,11.78,0,0,0,.56,1.11.83.83,0,0,1-.14,1,.68.68,0,0,1-.89.23c-.24-.09-.51-.1-.74-.21s-.34-.18-.47,0a.45.45,0,0,1-.67.21.68.68,0,0,1-.35-.77c.05-.41.09-.82.13-1.24Z"/><path d="M228.7,121.91c.58-.26.39-.67.18-1-.38-.67-.14-1.14.47-1.61a1.75,1.75,0,0,0,1.8.78,5.56,5.56,0,0,1-.46.34.78.78,0,0,0-.48.83c.08.5-.25.77-.56,1s-.61.32-.93-.36Z"/><path d="M30.39,56.36c.14,0,.33-.06.41,0,.32.3.6.64.94,1-.36.11-.61.18-.85.26s-.54.32-.65.25c-.33-.22-.82-.07-1-.56-.12-.28-.49-.44-.71-.69a1.59,1.59,0,0,1-.19-.48l2.12.18-.82.56a1.38,1.38,0,0,0,1.15.12Z"/><path d="M54.58,47.73c.8-.32,1.6-.65,2.41-1q1.9-.72,3.82-1.42a1,1,0,0,1,.78.07c-.36.16-.71.36-1.08.49-1.46.52-2.91,1.05-4.39,1.53a10.43,10.43,0,0,1-1.56.27Z"/><path d="M111,97.72c.81-.13,1.63-.27,2.44-.38s1.43-.19,2.15-.23a3.71,3.71,0,0,1,.88.16v0c-.46.68-1.22.57-1.84.53a9.18,9.18,0,0,0-1.32,0c-.77.06-1.56.35-2.3-.12Z"/><path d="M50.23,48.47c-2.54.33-5,.82-7.76.28Z"/><path d="M107.75,126.68c.91.06,1.81.16,2.72.17s2-.06,3.06-.1a4.55,4.55,0,0,1,1.34.06,1,1,0,0,1-.28.15,17.47,17.47,0,0,1-6.44-.08,1.46,1.46,0,0,1-.39-.22Z"/><path d="M142.4,129a1.57,1.57,0,0,1-.91-1.16,2.38,2.38,0,0,1,2.08-.07Z"/><path d="M156.29,131.16a2.85,2.85,0,0,1,2,2.66C157.3,133.22,157,132.17,156.29,131.16Z"/><path d="M217.87,160.73c.21,1.68,0,3.44,1.37,5-.68-.07-1-.31-1.1-.73A10,10,0,0,1,217.87,160.73Z"/><path d="M65.1,43.43c-.64,1.24-1.75,1.3-2.74,1.58A4.22,4.22,0,0,1,65.1,43.43Z"/><path d="M80.14,38.56l-2.24.74a7,7,0,0,1-1.41.38,4.1,4.1,0,0,1,1.54-1c.42-.17.86-.29,1.28-.44a.57.57,0,0,1,.82.37Z"/><path d="M89.66,72a17.25,17.25,0,0,1-3.35-2.31,3.53,3.53,0,0,1,.6.19Q88,70.42,89,71C89.36,71.21,89.71,71.44,89.66,72Z"/><path d="M91.05,123.92a2.3,2.3,0,0,0,.85,1.29,4.9,4.9,0,0,1,1.24,1.37,3.3,3.3,0,0,1-2.27-2,.47.47,0,0,1,.2-.68Z"/><path d="M240,142.29c.86,0,1.73,0,2.59,0,.19,0,.36.29.64.53l-3.22-.28Z"/><path d="M40.58,62c.36-.52.84-.57,1.44-.68l-.16.54,1.22.45A4.14,4.14,0,0,1,40.58,62Z"/><path d="M107.77,126.66a7,7,0,0,1-2.88-.45,6.1,6.1,0,0,1-1.75-.79l4.62,1.26Z"/><path d="M139.9,111.7l-3.1,1.64C137.13,112.75,137.91,112.29,139.9,111.7Z"/><path d="M70.77,40.69l2-1.19.1.1a2.38,2.38,0,0,1-.28.4c-.22.21-.54.34-.67.58C71.58,41.2,71.24,41,70.77,40.69Z"/><path d="M91.51,124c1,.14,1.53.92,2.06,1.67a3.73,3.73,0,0,1-2-1.68Z"/><path d="M164.61,132.66c-.79-.38-1-1.23-1.77-1.87A2.67,2.67,0,0,1,164.61,132.66Z"/><path d="M153.86,118.64A4.82,4.82,0,0,1,152,117,3.41,3.41,0,0,1,153.86,118.64Z"/><path d="M87,132c-.63-.37-1.54-.49-1.38-1.54l.22,0C86.07,131.1,86.71,131.45,87,132Z"/><path d="M29.45,68.74l1.71,1.08c-.52.27-.79-.11-1.1-.17S29.4,69.47,29.45,68.74Z"/><path d="M137.79,125.87h0a1.76,1.76,0,0,1,1.67-.82A1.7,1.7,0,0,1,137.79,125.87Z"/><path d="M69.38,72.11a6.05,6.05,0,0,1-2.81-.63l2.86.39Z"/><path d="M111,97.71a5,5,0,0,1-2.6.25c1-.7,1.81-.25,2.61-.23Z"/><path d="M189.92,145c.29-.39.57-.79.89-1.16a.84.84,0,0,1,1.06-.19c-.86.27-1.11,1.2-2,1.33Z"/><path d="M85.89,105.43a2.56,2.56,0,0,1-1.39-1.84c.24.14.41.19.49.3C85.26,104.32,85.51,104.76,85.89,105.43Z"/><path d="M54.57,47.71a6,6,0,0,1-3.19.52c.51-.1,1-.22,1.53-.3s1.12-.14,1.67-.2Z"/><path d="M155.66,119.62a5.33,5.33,0,0,1,1.59,2.23,4.08,4.08,0,0,1-1.57-2.24Z"/><path d="M214.19,157.68c-.76.26-1.06-.44-1.58-.7C213.29,156.87,213.7,157.37,214.19,157.68Z"/><path d="M155.68,119.61l-1.56-1.67a2.37,2.37,0,0,1,1.54,1.69Z"/><path d="M211.27,156.38a2.56,2.56,0,0,1-.19.69c-.06.11-.3.11-.46.16-.05-.17-.19-.39-.13-.49a2.5,2.5,0,0,1,.55-.5Z"/><path d="M211.27,112.24c.94-.13,1,0,.77.83Z"/><path d="M215.15,158c.53.13,1.19.11,1.34.89l-.69-.44Z"/><path d="M216.18,159.33c-.16.44.49.88,0,1.44A1.07,1.07,0,0,1,216.18,159.33Z"/><path d="M91.62,73.41l-1.53-1.07C90.86,72.3,91.06,72.43,91.62,73.41Z"/><path d="M152.25,95.58a1.83,1.83,0,0,1-1.45,0C151.23,95.47,151.64,95.07,152.25,95.58Z"/><path d="M49.78,64.94a.9.9,0,0,1,1.2-.12C50.57,65.13,50.25,65.3,49.78,64.94Z"/><path class="cls-1" d="M108.31,38l1.09.76c-.08.36-.17.58-.6.56-.83,0-1.66,0-2.49,0,.08.54.49.59.91.68.93.19,1.86.39,2.78.64a1.69,1.69,0,0,1,1.37,1.83c0,.6-.34.85-.87.56-.85-.47-1.67-1-2.53-1.48a3,3,0,0,0-1.43-.37,1.81,1.81,0,0,1,.34.52c0,.14-.1.45-.16.46-.78,0-.47.61-.5,1.1-.6-.12-1.14-.25-1.69-.32s-1.14-.06-1.7-.14a24.65,24.65,0,0,0-5.8,0c-1.36.14-2.71.33-4,.61-1.11.23-2.19.6-3.29.9a48.15,48.15,0,0,0-6.58,2.54c-2.85,1.25-5.72,2.45-8.57,3.68C73.36,51,72.2,51.59,71,52.08c-1.93.79-3.89,1.5-5.81,2.32-3.61,1.54-7.38,2.58-11.11,3.76-.69.22-1.4.34-2.1.51a3.21,3.21,0,0,0-.66.17c-.36.18-.69.52-1.06.57s-.8-.27-1.2-.26c-1.78.06-3.56.18-5.34.29a.86.86,0,0,0-.61.32l5.42-.31c.42.78.42.77,1.28.79a4.7,4.7,0,0,1,2.09.25,5.2,5.2,0,0,1-2.07.11c-1.51-.14-3-.29-4.54-.4-.48,0-1,.09-1.45.07a11.55,11.55,0,0,1-5.1-1.79,3.84,3.84,0,0,1-1.91-1.6c1.73.56,3.07,1.8,4.87,1.83a6.1,6.1,0,0,0-.75-.39,12.81,12.81,0,0,1-5.27-3.69c-.25-.28-.45-.61-.67-.92l-1.65-2.3a2.22,2.22,0,0,1-.34-.7c.69.6,1.62.58,2.35,1.12A8.25,8.25,0,0,0,37.86,53a36.21,36.21,0,0,0,4.19,1c1.49.26,3,.39,4.52.57a.9.9,0,0,0,.61-.17l-.66-.17a3.18,3.18,0,0,1,.59-.29c2.06-.31,4.13-.58,6.18-.94,1.08-.19,2.12-.58,3.18-.86a58,58,0,0,0,8-3c2.59-1.1,5.13-2.31,7.68-3.48a2,2,0,0,1,1.51-.26,1.92,1.92,0,0,0,1.2-.18c4.3-1.91,8.58-3.89,12.79-6a48.37,48.37,0,0,1,7.2-2.86,19.08,19.08,0,0,1,4.43-1,30.76,30.76,0,0,1,4.2,0,4.17,4.17,0,0,1,1.9.7,3.68,3.68,0,0,0,1.68.61,3.44,3.44,0,0,1,1,.25C108.58,37.08,108.62,37.33,108.31,38Z"/><path class="cls-1" d="M77.6,54.78l-1,.17-.07-.11a4.22,4.22,0,0,1,.57-.37c2.92-1.28,5.81-2.63,8.77-3.81a48.26,48.26,0,0,1,6-1.88,23.19,23.19,0,0,1,3.72-.42c1.21-.1,2.42-.21,3.63-.22a10.86,10.86,0,0,1,1.89.26,22,22,0,0,1,5.34,1.09,17,17,0,0,1,1.52.76,2.24,2.24,0,0,1,1.09,1.4c.09.33.25.64.35,1a1.63,1.63,0,0,1-.25,1.68,48.6,48.6,0,0,1-4.24,5.29c-1.35,1.27-2.64,2.61-4,3.89a10,10,0,0,1-1.21.85l-.08-.7c-.38.21-.89-.09-1.16.45-.36-.27-.82,0-1.16-.2a12,12,0,0,1-1.49-1A3.13,3.13,0,0,0,94.12,62a1,1,0,0,1-.52-.22,3.35,3.35,0,0,0-2.12-.67,2,2,0,0,1-.75-.24,68.76,68.76,0,0,0-9-3.21c-1.83-.48-3.72-.75-5.58-1.11-.44-.09-.89-.14-1.62-.25.84-.44,1.52-.64,2.13-1,.33-.17.62-.39.93-.59a5,5,0,0,0,2.73-1.37A12.12,12.12,0,0,0,77.6,54.78Z"/><path class="cls-1" d="M76.55,58.88c.07.46.26.68.61.69a1.62,1.62,0,0,1,1.33.84,2.22,2.22,0,0,1-.49,0,38,38,0,0,0-6.22-.68,1.67,1.67,0,0,1-.45,0,11.47,11.47,0,0,0-1.47-.53,7.55,7.55,0,0,1-1.49-.22,6.92,6.92,0,0,1,.75-.43c1.32-.56,2.64-1.14,4-1.65a3.15,3.15,0,0,1,1.44-.17,46.24,46.24,0,0,1,10,2.25,51.52,51.52,0,0,1,5.15,2.13A11.15,11.15,0,0,1,93,63.51c-.42.22-.69,0-1-.15-1.28-.56-2.53-1.23-3.85-1.68-1.68-.57-3.41-1-5.14-1.42s-3.27-.65-4.9-1c-.26-.05-.49-.21-.74-.27A7.67,7.67,0,0,0,76.55,58.88Z"/><path class="cls-1" d="M165.28,140.36c-.8,0-.78,0-.8-.61a11.69,11.69,0,0,0-.14-1.17h-.23a1.51,1.51,0,0,0,0,.45c.09.28.14.52-.2.65a.58.58,0,0,1-.79-.24c-.2-.36-.36-.75-.54-1.12-.7-1.54-1.65-3-2.22-4.56a.67.67,0,0,1,0-.54l.85,1.08-.06-1a6,6,0,0,1,2.2,3,2.13,2.13,0,0,0,.64,1,1.25,1.25,0,0,1,.42.52c.3.81.55,1.64.82,2.46Z"/><path class="cls-1" d="M38.81,50.67a21.39,21.39,0,0,0,9,.75A39.16,39.16,0,0,0,56.12,50c1.37-.44,2.72-1,4.08-1.46a9.46,9.46,0,0,1,2-.59c-.18.22-.23.34-.32.37a38.91,38.91,0,0,1-8.2,2.73c-1.87.32-3.76.51-5.65.75a22,22,0,0,1-6.8-.16,4.23,4.23,0,0,0-1.36,0,1.34,1.34,0,0,1-1.13-.43c-.26-.22,0-.4.13-.57Z"/><path class="cls-1" d="M171.77,133.44a6.59,6.59,0,0,1,3.33-.24c1.18.2,2.4.2,3.6.29l1.09.11C177.75,134.77,174.26,134.1,171.77,133.44Z"/><path class="cls-1" d="M173.92,135.75c.6.06,1.19.15,1.79.16a6.8,6.8,0,0,0,1.54-.15c1.13-.25,2.25-.56,3.38-.83a2.39,2.39,0,0,1,.68-.05.32.32,0,0,1,.24.19.86.86,0,0,1-.07.41.28.28,0,0,1-.18.12c-1.38.35-2.7,1-4.17.9a15.46,15.46,0,0,1-3.22-.51Z"/><path class="cls-1" d="M156.84,128.48a1.32,1.32,0,0,1,1.44.57c.31.45.59,1,1.25,1,.11,0,.24.18.29.31a11.89,11.89,0,0,1,.82,2.48,3.07,3.07,0,0,1-.36-.32c-.21-.25-.4-.52-.6-.77,0-.06-.18-.1-.18-.12.25-.92-.56-.88-1-1.15a.93.93,0,0,1-.24-.23Z"/><path class="cls-1" d="M149.71,89a14.85,14.85,0,0,1-3.46,1.12,1.92,1.92,0,0,0-1.22.53c-.62.59-.64.57-1.9.49A4.85,4.85,0,0,1,145.3,90c.6-.21,1.19-.46,1.8-.65s1.38-.39,2.07-.55C149.28,88.73,149.42,88.86,149.71,89Z"/><path class="cls-1" d="M185.33,110a.56.56,0,0,1-.57-.66,3,3,0,0,1,1.26-1.54c.19-.16.85.19.91.49s-.14.38-.27.53c-.3.33-.62.63-.95.93A2.26,2.26,0,0,1,185.33,110Z"/><path class="cls-1" d="M180.52,96.93a4.55,4.55,0,0,1-1.39.32,9.17,9.17,0,0,1-1.76-.58.81.81,0,0,1,.06-.44,4.68,4.68,0,0,1,1.63-.17A5.51,5.51,0,0,1,180.52,96.93Z"/><path class="cls-1" d="M75.81,41.79a3.45,3.45,0,0,1,.68-.56c1.91-.9,3.84-1.78,5.76-2.66a6.63,6.63,0,0,1,.67-.21,1.94,1.94,0,0,1-1.12.77q-2.45,1.18-4.93,2.32a7.6,7.6,0,0,1-1.08.32Z"/><path class="cls-1" d="M75.8,41.78c-.9.46-1.8.93-2.7,1.38-1.11.55-2.22,1.1-3.34,1.62a11.76,11.76,0,0,1-1.27.43v0c.1-.11.18-.26.31-.32,2-1,3.94-1.91,5.92-2.84a5.4,5.4,0,0,1,1.09-.26Z"/><path class="cls-1" d="M155.38,87.18c0-.55.13-.92.76-1,.8-.12,1.59-.31,2.43-.48,0,.14,0,.29,0,.32-.65.4-1.21,1-2.08.95A4.74,4.74,0,0,0,155.38,87.18Z"/><path class="cls-1" d="M54.45,59l3.42-.37a1.61,1.61,0,0,1,.56,0,.34.34,0,0,1,.2.23.34.34,0,0,1-.11.29,8.61,8.61,0,0,1-.95.33s-.17-.08-.16-.1c.12-.34-.12-.44-.34-.41s-.76.12-.9.34c-.33.51-.6.47-1,.12A7.58,7.58,0,0,0,54.45,59Z"/><path class="cls-1" d="M123.16,96.53a8.14,8.14,0,0,1-.67.77c-.21.19-.54.28-.71.5s-.37.37-.64.19a.56.56,0,0,1-.11-.87A1.5,1.5,0,0,1,123.16,96.53Z"/><path class="cls-1" d="M114.19,104.74c-1.35,0-2.54,1.09-3.95,0a10.75,10.75,0,0,1,3.1-.3C113.57,104.38,113.92,104.27,114.19,104.74Z"/><path class="cls-1" d="M167.14,133.83c.72.75,1.94.61,2.41,1.69C168,135.59,167.5,135.28,167.14,133.83Z"/><path class="cls-1" d="M124.64,100l.8-.92a10,10,0,0,1,1.17.92c.13.14.08.46.11.7-.25,0-.5,0-.74,0s0-.64-.47-.63a7.43,7.43,0,0,1-.88-.07Z"/><path class="cls-1" d="M59.69,57.89c-.63.06-1.27.08-1.89.19a3.38,3.38,0,0,1-2,.2,20,20,0,0,1,2.56-.87,3.82,3.82,0,0,1,1.39.28Z"/><path class="cls-1" d="M122.58,99.45c-.64.15-1.28.33-1.93.43-.15,0-.35-.2-.52-.31.13-.15.26-.42.4-.43a7.21,7.21,0,0,1,2,0Z"/><path class="cls-1" d="M165.27,140.37a4.78,4.78,0,0,1,1.54,2.63c-.61-.55-1.08-.92-1.5-1.36s-.16-.85,0-1.28Z"/><path class="cls-1" d="M183.2,126c.07-.88.09-1.59.21-2.27,0-.25.32-.47.55-.8A3.57,3.57,0,0,1,183.2,126Z"/><path class="cls-1" d="M100.34,103c-1.09,1.4-1.09,1.4-2.33.57a.61.61,0,0,1,.69-.44c.26,0,.51.1.77.09A4.94,4.94,0,0,0,100.34,103Z"/><path class="cls-1" d="M90.32,35.08a17.89,17.89,0,0,1,4.74-1.68l.07.21Z"/><path class="cls-1" d="M53.43,60.36a18.63,18.63,0,0,1,3.83-.13,4.38,4.38,0,0,1-1.79.22A2.67,2.67,0,0,1,53.43,60.36Z"/><path class="cls-1" d="M141.65,93.84l-2.24.38s-.1-.09-.15-.14C140.4,93.26,140.8,93.2,141.65,93.84Z"/><path class="cls-1" d="M181,95.6l1.21-.46c.18.6,1,1,.18,1.92-.12-.45-.12-.81-.3-1S181.56,95.81,181,95.6Z"/><path class="cls-1" d="M174.07,135c.39-.12.78-.24,1.17-.35.18,0,.41-.13.54-.05s.25.32.36.49c-.14.1-.28.28-.42.27-.55,0-1.1-.1-1.65-.16Z"/><path class="cls-1" d="M87.53,95.59c-1.13-.27-1.25-.65-.57-1.58C87.58,94.38,87.15,95.13,87.53,95.59Z"/><path class="cls-1" d="M167,144.57c.78.41,1.64.57,2.25,1.41-1,0-1.41-.7-2.06-1C167.05,144.94,167,144.71,167,144.57Z"/><path class="cls-1" d="M68.49,45.19a12,12,0,0,1-3.07,1.53,6.59,6.59,0,0,1,3.08-1.51Z"/><path class="cls-1" d="M137.2,91.19l-2.33.8C135.73,91,136.09,90.91,137.2,91.19Z"/><path class="cls-1" d="M145.52,94.77a6.44,6.44,0,0,1,0-.8.59.59,0,0,1,.79-.55c.28.07.39.31.21.51A9.28,9.28,0,0,1,145.52,94.77Z"/><path class="cls-1" d="M142.23,91.32c-.53,1-1.31.86-2.18.9A3.13,3.13,0,0,1,142.23,91.32Z"/><path class="cls-1" d="M126.11,95.83a2.94,2.94,0,0,1-2,.18A1.71,1.71,0,0,1,126.11,95.83Z"/><path class="cls-1" d="M129.16,102.33a1.2,1.2,0,0,1,.16-1.46c.1-.1.33-.06.51-.09,0,.16.07.35,0,.48C129.67,101.59,129.45,101.89,129.16,102.33Z"/><path class="cls-1" d="M250.62,131.41a4.82,4.82,0,0,1,2.62-1A7.16,7.16,0,0,1,250.62,131.41Z"/><path class="cls-1" d="M136.56,93.55l1.18-.81C137.87,93.67,137.78,93.74,136.56,93.55Z"/><path class="cls-1" d="M124.62,100a2.38,2.38,0,0,1,0,.55c0,.16-.19.43-.26.42a1,1,0,0,1-.55-.27c-.27-.27-.18-.55.21-.64a3.78,3.78,0,0,1,.66,0Z"/><path class="cls-1" d="M169.2,133.39c.78,0,1.37-.09,1.74.7A1.69,1.69,0,0,1,169.2,133.39Z"/><path class="cls-1" d="M185.07,107.57a5.74,5.74,0,0,1-1-.21c-.11,0-.19-.29-.18-.44s.21-.21.32-.22C184.56,106.69,184.72,106.85,185.07,107.57Z"/><path class="cls-1" d="M88.85,35.55a8,8,0,0,1-2.28,1.24A4.08,4.08,0,0,1,88.85,35.55Z"/><path class="cls-1" d="M50,73.61a2.09,2.09,0,0,1,2-.11A3.44,3.44,0,0,1,50,73.61Z"/><path class="cls-1" d="M168.23,78.64h3.28v.09h-3.28Z"/><path class="cls-1" d="M191.61,122.43l-.82.88a.58.58,0,0,1-.1-.91C190.9,122.11,191.19,122.1,191.61,122.43Z"/><path class="cls-1" d="M132.83,95c.26-.71.26-.71,1.28-.41A1.14,1.14,0,0,1,132.83,95Z"/><path class="cls-1" d="M170.72,131.2a4.19,4.19,0,0,1,2,.42C171.84,131.66,171.19,131.84,170.72,131.2Z"/><path class="cls-1" d="M165.24,143c.65,0,.9.52,1.25,1.09C165.68,144,165.65,143.28,165.24,143Z"/><path class="cls-1" d="M112.72,102.71a1.16,1.16,0,0,1-1.43.28A1.76,1.76,0,0,1,112.72,102.71Z"/><path class="cls-1" d="M139.59,92.41c-.6.51-1,.27-1.54-.1A1.59,1.59,0,0,1,139.59,92.41Z"/><path class="cls-1" d="M175.14,132.11a2.3,2.3,0,0,1-1.9.19C173.93,132,174.46,131.58,175.14,132.11Z"/><path class="cls-1" d="M66.81,59.63a1.33,1.33,0,0,1,1.61-.09A2.26,2.26,0,0,1,66.81,59.63Z"/><path class="cls-1" d="M121.5,104a6.14,6.14,0,0,1,.79-.41c.1,0,.24.07.37.12,0,.1,0,.24-.11.29A.79.79,0,0,1,121.5,104Z"/><path class="cls-1" d="M139.9,89a5.75,5.75,0,0,1,1,.21c.1,0,.12.29.18.45-.16,0-.4.14-.48.07a5.91,5.91,0,0,1-.63-.75Z"/><path class="cls-1" d="M39.6,52.76A2.29,2.29,0,0,1,38,52.41,2,2,0,0,1,39.6,52.76Z"/><path class="cls-1" d="M29,62.32l.94,1.12C29.24,63.33,29.24,63.33,29,62.32Z"/><path class="cls-1" d="M67.91,163.31l1.27,1a2.68,2.68,0,0,0-.58,1.94c.05,1-.5,1.29-1.47,1.3a28.15,28.15,0,0,1-2.87-.61c-.12-.66.15-1.4-.61-1.76a1.43,1.43,0,0,1,.17-.71,11.1,11.1,0,0,1,.7-1,13.13,13.13,0,0,0,1.64-.68c.73-.43.75-1,.12-1.52-.39-.35-.79-.69-1.2-1,.63-1.29,2-1.37,2.8-.06a2.63,2.63,0,0,1,.85-.35,1,1,0,0,1,.65.39.55.55,0,0,1-.26,1c-.65.19-.83.5-.7,1.17C68.5,162.6,68.16,162.9,67.91,163.31Z"/><path class="cls-1" d="M30.39,56.36l.36.67a1.38,1.38,0,0,1-1.15-.12l.82-.56Z"/><path d="M77.6,54.78a12.12,12.12,0,0,1,2.71-1.39,5,5,0,0,1-2.73,1.37Z"/></g></g></svg>