<svg xmlns="http://www.w3.org/2000/svg" viewBox="0 0 151.54 115.95"><defs><style>.cls-1{fill:#fff;}</style></defs><title>资源 3</title><g id="图层_2" data-name="图层 2"><g id="图层_1-2" data-name="图层 1"><path class="cls-1" d="M148.25,76.25a.59.59,0,0,0-.63.14l.33.16,0,.09-.58-.26c-.15.13-.3.27-.46.39s-.29.09-.29.13c0,.37-.27.24-.44.26-.32,0-.41.1-.42.41a1.57,1.57,0,0,0,0,.28l-.45,0a1.37,1.37,0,0,0,0,.42c.08.26-.23.56.2.83-.35-.05-.45.11-.5.31s-.07.37-.1.56,0,.18,0,.23c.17.23.1.52.2.76a.48.48,0,0,1,0,.47,1.56,1.56,0,0,0-.18.73,5.14,5.14,0,0,1-.37,1.56,2.14,2.14,0,0,0-.22.73,3,3,0,0,1-.3,1.09,1.09,1.09,0,0,0,0,1.15l-.29.24,0,0,.39.16c.32.13.33.18.12.46a.44.44,0,0,0,0,.11l.12.08c0,.17-.05.34,0,.45a.73.73,0,0,1,.08.62c-.06.25-.07.51-.14.76a.59.59,0,0,0,.71.73.78.78,0,0,1,.3,0,.63.63,0,0,0,.79-.38c.07-.14.14-.27.2-.41a12,12,0,0,0,.61-2.15c0-.21,0-.43.09-.63.13-.42.3-.84.42-1.26s.26-1,.4-1.48a3.26,3.26,0,0,1,.24-.84,2.08,2.08,0,0,0,.21-1.12c-.35-.06-.44-.27-.39-.59a1,1,0,0,0-.09-.67.38.38,0,0,1,0-.26c.13-.46.27-.91.41-1.36,0-.07,0-.18.09-.2.27-.12.26-.34.28-.58a4.33,4.33,0,0,1,.11-.52.78.78,0,0,0,0-.37.84.84,0,0,1,.09-.74.67.67,0,0,0,0-.69,2,2,0,0,1-.28.13.81.81,0,0,1-.23,0,.87.87,0,0,0,.16-.19c.09-.2.15-.41.24-.61.24-.55.49-1.1.75-1.64.1-.21,0-.35-.19-.48l-.06.68-.7.41.44.22-.47.62.16.09A1.8,1.8,0,0,0,148.25,76.25ZM51.93,17.53l.22-.36L51.7,17c-.18.15-.33.27-.46.4a.66.66,0,0,0-.1.2c-.16.14-.32.28-.47.43-.31.32-.62.65-.93,1a.39.39,0,0,1-.26.13.79.79,0,0,0-.74.39c-.07.09-.17.16-.24.25-.27.3-.66.47-.87.84a10.13,10.13,0,0,1-.65.9.9.9,0,0,1-.16.16l-.83.66a1.16,1.16,0,0,1-1.12.33,1.1,1.1,0,0,0-.38,0v.08l.35.13a.91.91,0,0,1-.13.18c-.29.22-.6.44-.88.67a2.46,2.46,0,0,0-.36.4c-.39.5-.75,1-1.18,1.49-.22.23-.43.47-.63.72a2,2,0,0,1-.49.49,5.25,5.25,0,0,0-1.39,1.51c-.29.35-.54.74-.81,1.11-.14.2-.3.39-.43.59a3.52,3.52,0,0,1-.91.92c-.43.33-.82.69-1.22,1.05a1.12,1.12,0,0,0-.14.23l-1.52,2.27c0,.07-.12.17-.1.23s.13.09.23.16c-.54.27-.53.28-.71.66a1.59,1.59,0,0,1-.34.55,3.5,3.5,0,0,0-.8,1.34,1.58,1.58,0,0,1-.43.67c-.43.3-.42.83-.73,1.18a.13.13,0,0,0,0,.11c.07.2,0,.32-.2.41s-.2.27-.21.46a1.13,1.13,0,0,1-.14.55c-.18.25-.23.6-.57.74-.07,0-.11.17-.13.26,0,.26-.05.52-.08.78a.56.56,0,0,0,.24.54,3.63,3.63,0,0,1,.59.59,3.47,3.47,0,0,0,.72.8,1.23,1.23,0,0,1,.29.39c.07.12.11.26.29.27s.19-.15.25-.26.2-.33.42-.27a4.46,4.46,0,0,0,.12.5,3.25,3.25,0,0,0,.22.44,3.07,3.07,0,0,0,.22.36.34.34,0,0,0,.48.09,1.25,1.25,0,0,0,.5-.47c.12-.19.12-.44.33-.58s.18-.19.16-.23-.16-.13-.27-.2c.13-.17.23-.35.48-.41.08,0,.15-.19.17-.3s-.07-.17-.11-.26l-.28.2a4.11,4.11,0,0,1,.32-.81,2.94,2.94,0,0,1,.39-.59,3.07,3.07,0,0,0,.36-.84.18.18,0,0,0,0-.14.47.47,0,0,1,0-.63c.18-.25.22-.61.55-.77,0,0,0-.06.05-.1a3.7,3.7,0,0,1,.49-.76c.31-.44.59-.9.9-1.33s.6-.93.89-1.4a22.32,22.32,0,0,1,1.5-1.95,4.71,4.71,0,0,0,1-1.71.29.29,0,0,1,.09-.13,3,3,0,0,0,.86-1.21s0-.06.07-.09l1.22-1.63c.66-.88,1.32-1.77,2-2.64a17.54,17.54,0,0,0,1.54-2.16,5.82,5.82,0,0,1,.45-.72c.45-.58.92-1.14,1.36-1.72.19-.25.33-.55.51-.8a5.6,5.6,0,0,1,.45-.5A2.59,2.59,0,0,0,50.6,21c.05-.07.07-.17.12-.23.42-.55.86-1.09,1.28-1.64a5.33,5.33,0,0,0,.29-.53.59.59,0,0,1,.17-.2,3.1,3.1,0,0,0,.83-1,1.22,1.22,0,0,0,.09-.35c-.24,0-.25.13-.3.24s0,.19-.09.24c-.22.22-.45.42-.69.65a2.66,2.66,0,0,1,0-.39,2.81,2.81,0,0,1,.16-.38Zm31,31h0l-.2-.41c-.24.08-.07.43-.35.52l0-.42-.6.83-.14-.5c-.1.08-.23.12-.25.19a1.17,1.17,0,0,0,0,.49c0,.15.15.29.19.44s0,.17,0,.26l-.1,0-.27-.45c-.11-.22-.44.19-.47-.21.23-.15.38-.46.29-.62s-.12,0-.24-.07c.09.26.11.45-.16.54,0,0-.07.06-.07.08,0,.26-.17.34-.33.47a.67.67,0,0,0-.11.14L80,49.53c-.13.34.13.55.12.85l-.75.11.09.46h-.71l.09.31a1.31,1.31,0,0,1-.35.17.35.35,0,0,0-.31.24,4.77,4.77,0,0,0-.27.8c0,.2-.18.11-.25.16l-.08.65L77.31,53a1.65,1.65,0,0,0-.08.34c0,.21-.08.3-.3.29s-.17.06-.27.1c.21.29.41.53.16.83a.12.12,0,0,0,0,.08.67.67,0,0,1-.47.73l.17.28.16.31-.43-.11c-.24.23.1.39.08.52l-.8.7c.23.6.22.6-.19,1.11a5.68,5.68,0,0,0-.42.64,7.07,7.07,0,0,1-1.05,1.46.59.59,0,0,0-.12.15c-.38.77-1,1.4-1.35,2.18a1.18,1.18,0,0,1-.08.13c-.41.65-.83,1.29-1.22,2s-.92,1.61-1.38,2.41-1,1.76-1.53,2.62c-.38.62-.78,1.24-1.19,1.84a6,6,0,0,0-.68.88,1.62,1.62,0,0,1-.57.63l-.14.13.31.49c-.14.16-.28.29-.13.5,0,0,0,.12,0,.18-.33.77-.9,1.4-1.23,2.17,0,.09-.15.15-.17.24a2.42,2.42,0,0,1-.51.85,1.11,1.11,0,0,0-.26.5c0,.21-.24.42-.08.66,0,0,0,.07,0,.11l-.39.92c0,.06-.08.12-.07.17.08.32-.14.49-.33.68a.58.58,0,0,0-.16.21c-.06.17-.11.34-.31.41,0,0,0,.12-.09.27a1.59,1.59,0,0,1,.31-.19,1.07,1.07,0,0,1,.28,0c0,.1,0,.19.06.28A1.63,1.63,0,0,1,62.84,83a6.71,6.71,0,0,0-.37,1.18.5.5,0,0,1,.42.36l-.29.08c.65.26.68.32.42.72l.16.13.24-.29.47.34.83-.7.08.16c.28-.31.55-.59.8-.88a3.28,3.28,0,0,0,.48-.6c.46-.89,1-1.72,1.4-2.65a7.54,7.54,0,0,1,.57-1.09,5.59,5.59,0,0,0,.8-1.35.37.37,0,0,1,.05-.1L69.85,77a4.12,4.12,0,0,0,.39-.62,26.11,26.11,0,0,1,2.42-4c.28-.43.76-.73.84-1.29a.17.17,0,0,1,.06-.1,3.86,3.86,0,0,1,.5-.4,3.65,3.65,0,0,0,1.13-1.24c.2-.31.3-.35.74-.25a11,11,0,0,1-.45,1.23,11,11,0,0,0,.62-1c.15-.26.26-.56.64-.64-.09-.1-.18-.21-.27-.22a.72.72,0,0,1-.47-.27,2.59,2.59,0,0,1,.24-.44c.13-.16.31-.27.44-.43a1.22,1.22,0,0,1,.87-.43,1.16,1.16,0,0,0,.37-.16s0-.07,0-.1l-.33-.15a2.17,2.17,0,0,1,.47-.44,1.35,1.35,0,0,0,.52-.49l1.23-1.67c0-.05.09-.12.14-.13.3,0,.35-.25.43-.46l-.2-.42-.24.28c-.05-.08-.12-.14-.11-.19,0-.4,0-.83.34-1.14a5.38,5.38,0,0,0,.48-.5,2.24,2.24,0,0,0,.49-.64,2.17,2.17,0,0,1,1-1.13c.1-.07.2-.06.26.06s.06.15.1.21a.19.19,0,0,0,.3,0,.65.65,0,0,0,.12-.8.42.42,0,0,1-.08-.39c.06-.28.17-.57,0-.85.45-.56.89-1.11,1.32-1.67s.81-1.1,1.2-1.65a4.37,4.37,0,0,0,.25-.47c-.27,0-.47.12-.67,0,.23-.36.53-.06.8-.13l.61-.78a.51.51,0,0,0-.46.29c0,.09-.16.2-.23.19s-.1-.17-.08-.28a.63.63,0,0,1,0-.11c0-.12.07-.28.16-.34s.26,0,.39,0l.16-.22.08.38.38-.43c-.27-.17-.65,0-.8-.31.56-.36.56-.38.14-.76l.21-.34c.17.13.32.2.48,0L86.59,51c.1-.09.23-.15.24-.22,0-.34.23-.41.51-.36.08-.25-.35-.39-.08-.65l.39.14a3.86,3.86,0,0,0,.22-.6.32.32,0,0,1,.25-.29,2.26,2.26,0,0,0,.41-.23c-.1-.24.2-.26.23-.42a.35.35,0,0,0,0-.15.75.75,0,0,0-.05-.1c.19-.08.06-.3.17-.42l.33-.35a.34.34,0,0,1,.26-.46c.06,0,.1-.13.16-.22a.4.4,0,0,0,.44-.32c0-.31.22-.33.43-.35.25-.68.37-.77.75-.62,0-.18-.26-.33-.12-.46a1.49,1.49,0,0,0,.43,0,2.24,2.24,0,0,0,.35-.21,2.18,2.18,0,0,1,.25-.1l.21-.8c.16.26-.18.55.16.74l.1-.6.28.47-.41.4.07.07c.29-.15.6-.27.6-.71.25.12.34,0,.45-.19.29-.36.57-.73.88-1.07s.85-.89,1.27-1.34a.93.93,0,0,0,.12-.26l-.26-.11a1.16,1.16,0,0,0,.89-.47l2.64-2.86,1.15-1.24,1.56-1.64.2-.18c.3-.28.6-.56.89-.85s.63-.67,1-1l1.27-1.28a1.94,1.94,0,0,0,.17-.26l.27-.37c.27-.37.65-.68.48-1.22a.61.61,0,0,1,0-.23c0-.23,0-.45.08-.73.14-.1.32-.23.51-.36s.32-.16.46-.27a1.4,1.4,0,0,1,.62-.28c.14,0,.3,0,.32-.22a.3.3,0,0,0-.2-.35c-.17.09-.32.23-.46.23s-.27.1-.38.2l-.15.12c-.44.4-1,.64-1.34,1.16a.5.5,0,0,1-.32.18,1,1,0,0,0-.52.21c-.21.17-.4.18-.48.06s.07-.31.18-.41.45-.33.67-.51c.37-.3.71-.63,1.1-.9s.43-.68.65-1l-.51-.78c.22-.17.46-.34.67-.53.51-.45,1-.88,1.51-1.36s.71-.83,1.07-1.25l0,0c.1-.16.19-.33.3-.49s.21-.27,0-.6a1.15,1.15,0,0,1-.17.07,1.83,1.83,0,0,0-1,.59.84.84,0,0,1-.3.15,1.5,1.5,0,0,0-.28.11c-.49.35-1,.7-1.45,1.08a5,5,0,0,1-.8.59,4.48,4.48,0,0,0-.48.37,1.09,1.09,0,0,1-.3.16c-.18.06-.37.09-.57.14l-.35-.21a3.37,3.37,0,0,0-1,.91,1.45,1.45,0,0,0-.19.44.4.4,0,0,1-.08.13,6,6,0,0,1-.73.68A4.6,4.6,0,0,0,101,28.14a7.78,7.78,0,0,1-.76.9c-.11.11-.31.11-.45.19s-.21.24-.34.32a4.35,4.35,0,0,0-1.13.81.5.5,0,0,1-.46.24c-.33,0-.46.07-.56.45a1.82,1.82,0,0,1-.52.79c-.53.54-1,1.1-1.57,1.64-.29.3-.6.59-.91.88a.18.18,0,0,1-.1.06,1.69,1.69,0,0,0-1,.57,8.09,8.09,0,0,0-1.28,1.48.52.52,0,0,0-.09.21,1.36,1.36,0,0,1-.88,1,.84.84,0,0,0-.38.3,7.29,7.29,0,0,1-.59.66l-.43.49c.32.07.51,0,.59-.25s.36-.46.66-.57c-.09.23-.1.22-.25.31a.54.54,0,0,0-.24.27,1.1,1.1,0,0,1-.5.6.52.52,0,0,0-.22.37c0,.21-.06.46-.34.54l0-.34-.51.32c.24.36.09.74,0,1.13v-.66l-.65.87.52.34.2-.12,0,0-.17.27c.31,0,.21-.31.36-.34l.67.26h0c0,.06-.05.13,0,.18.07.21.08.44.28.59s.19.16.09.3-.17.08-.27,0-.09.07-.16.13l.46.19c0,.29,0,.29-.28.24a.29.29,0,0,0-.17,0c-.18.09-.33.21-.27.45h-.26a1.56,1.56,0,0,1-.13.31c0,.06-.16.14-.2.12s-.18,0-.25.09-.29.25-.43.37l.19.18-.18.35c-.1.21-.22,0-.33,0-.05.32-.59.89-.87.88s-.34.12-.42.31a.45.45,0,0,1-.07.09L86,46.92l-.27.54L84.86,47c-.1,0-.17.18-.22.35a.2.2,0,0,1-.3.14.88.88,0,0,0-.32,0l.62.53c-.32.08-.58.17-.85-.1a1.91,1.91,0,0,0-.56-.29ZM33.5,19.21l-.12-.15c-.39-.44-.35-.74,0-1.2s.88-.83,1.27-1.31a4.27,4.27,0,0,0,1-2.1.56.56,0,0,1,.1-.2c.16-.25.34-.49.48-.74a4.65,4.65,0,0,0,.45-.88,6.13,6.13,0,0,1,.66-1.84.28.28,0,0,0,.05-.14,4,4,0,0,1,.43-1.38,4.24,4.24,0,0,1,.58-1.08,2.78,2.78,0,0,0,.26-.55.61.61,0,0,1,.16-.25,1.42,1.42,0,0,0,.68-.75.19.19,0,0,1,.08-.09,5.15,5.15,0,0,0,.89-1.05,1.17,1.17,0,0,0,.27-.82,1.47,1.47,0,0,1,.28-1c.17-.2.25-.48.43-.67a6.72,6.72,0,0,1,.8-.85A3.53,3.53,0,0,0,43,1.19a.56.56,0,0,0,0-.55,1.11,1.11,0,0,0-.68-.53.76.76,0,0,0-1.11.35A.62.62,0,0,1,41,.58a1,1,0,0,0-.27.18,2.84,2.84,0,0,1-1,1c-.06,0-.09.12-.12.19a2.66,2.66,0,0,1-.31.52c-.27.28-.66.41-.83.8,0,.06-.16.06-.23.1a4.78,4.78,0,0,0-.68.34,5,5,0,0,0-.55.52A3.5,3.5,0,0,0,36.71,4a.36.36,0,0,0-.46.05c-.41.47-.82,1-1.2,1.44S34.32,6.49,34,7l-.38.53.08.11.13.11c-.42,0-.42,0-.52.17-.28.36-.56.73-.85,1.08s-.63,1-1,1.39a5.88,5.88,0,0,0-.66,1c-.21.36-.58.63-.6,1.1,0,.06-.08.13-.13.19a1.18,1.18,0,0,1-.7.53A.77.77,0,0,1,29,14a4.6,4.6,0,0,0-.35.46c-.31.44-.59.91-.93,1.32a4.66,4.66,0,0,0-.52.89.63.63,0,0,0-.07.4.84.84,0,0,1-.28.86c-.18.17-.39.31-.59.47,0,0,0,0,0,0a.67.67,0,0,0,.11.09c.24.14.26.17.14.42a3.43,3.43,0,0,1-.36.54,1.54,1.54,0,0,0-.36,1.15,1.32,1.32,0,0,1-.16.87.72.72,0,0,0,0,.67.28.28,0,0,0,.51.1c.23-.28.59-.31.87-.49.06,0,.17,0,.26,0s.19.08.29.11c.26.09.39,0,.47-.22a2.76,2.76,0,0,0,.06-.41l.45-.28a1.59,1.59,0,0,0,.94.53l.06-.36a2,2,0,0,0,1.15-.38s.07,0,.1.05a.85.85,0,0,0,.64.29.72.72,0,0,0,.65-.22.25.25,0,0,1,.1-.06.62.62,0,0,0,.34-.39,2.34,2.34,0,0,1,.31-.42Zm6.34,29.21a.44.44,0,0,1,.31.43.46.46,0,0,0,.06.18c.07.13.17.16.28,0s.4-.45.61-.67a.28.28,0,0,1,.23-.07c.48.13.56.1.8-.3a1.18,1.18,0,0,1,.42-.48,2.38,2.38,0,0,0,.78-.72c.13-.14.23-.31.34-.46.37-.49.76-1,1.12-1.47s.49-.74.75-1.1c.57-.79,1.15-1.57,1.72-2.36,0-.06.07-.13.12-.2.22-.34.43-.7.68-1s.63-.68.87-1.07a6,6,0,0,1,1.19-1.34,4,4,0,0,0,.31-.35l.2.07s.06,0,.07-.05a1.34,1.34,0,0,1,1.11-.91c.07,0,.12-.14.21-.25l-.4-.13a2.65,2.65,0,0,1,1-.95l-.39,0a1.44,1.44,0,0,0,0-.43.44.44,0,0,1,0-.43c.06-.11.11-.23.17-.34l.86-1.5a5,5,0,0,0,.29-.45c.14-.3.25-.62.36-.93s.14-.75.56-.91l0,0,.79-1.14a5.38,5.38,0,0,1,.6-.89,2.87,2.87,0,0,0,.71-1.08,3.89,3.89,0,0,1,.37-.79,9.22,9.22,0,0,1,.72-.9c.11-.12.25-.21.24-.41,0,0,0-.09.09-.11.23-.09.27-.3.32-.49a1.36,1.36,0,0,1,.37-.7c.15-.13.14-.26,0-.34l-.91.2a3.26,3.26,0,0,0,0-.43.52.52,0,0,0-.11-.31,1.43,1.43,0,0,0-.39-.17s0,0,0,0c.09.16,0,.21-.14.24a.23.23,0,0,1-.16-.06,1.16,1.16,0,0,1,.09-.27s.06,0,.1-.06c.48-.31.54-.29.73.22l.43-.06-.31.43.71.06.15-.49a.92.92,0,0,0-.56-.4A1.09,1.09,0,0,1,58,22.2a.89.89,0,0,0-1.22.41,1.45,1.45,0,0,1-.56.81.66.66,0,0,0-.2.23c-.27.42-.52.85-.81,1.25-.15.21-.3.47-.58.52a1.26,1.26,0,0,0-.7.37,1.2,1.2,0,0,1-.44.21c-.15.06-.26,0-.38-.12a.29.29,0,0,0-.47.14l-.26.85.18.3c-.17.17-.44.25-.36.57l.19-.27.08,0a2.08,2.08,0,0,1-.09.34,6.17,6.17,0,0,1-.28.55.68.68,0,0,1-.75.34c-.06,0-.14-.06-.14-.1a.31.31,0,0,1,.07-.2,3.14,3.14,0,0,1,.27-.27c-.19,0-.29,0-.39,0-.33,0-.34,0-.4.36a.67.67,0,0,1-.17.32,1.8,1.8,0,0,1-.36.28,2.07,2.07,0,0,0-.79,1,6.85,6.85,0,0,1-.39.69c-.11.19-.23.37-.33.56a.22.22,0,0,0,0,.18c.16.25,0,.5,0,.74s-.15.18-.28.08l.18-.45c-.33.14-.38.22-.48.63l.38,0c.08.35-.3.27-.39.47s.24.31,0,.45c-.48-.14-.73,0-.87.5a1,1,0,0,1-.15.31,11,11,0,0,0-1.39,2.11.27.27,0,0,1-.06.1,4.58,4.58,0,0,0-.81,1.21c-.38.65-.82,1.27-1.23,1.9q-.26.4-.5.82c-.15.26-.48.41-.51.75,0,0,0,.06-.08.08a1,1,0,0,0-.34.54c-.09.21-.18.42-.27.63a3.29,3.29,0,0,0-.27.54,2.76,2.76,0,0,1-.78,1.37c-.12.11-.28.21-.14.42,0,0,0,.12,0,.17a8,8,0,0,0-.45.8c-.16.41-.42.8-.21,1.28,0,.09-.06.23-.09.35s-.16.34-.1.43S39.81,48.17,39.83,48.42ZM2.52,25a.77.77,0,0,1-.15.65c-.21.34-.42.67-.61,1s-.23.51-.35.77a.73.73,0,0,0,0,.67c.16.29.24.7.73.66a.43.43,0,0,1,.28.16,1.16,1.16,0,0,0,1.59,0l1.78-2a2.54,2.54,0,0,1,.3-.35,19.82,19.82,0,0,1,2.09-1.5.86.86,0,0,0,.32-.27c.25-.43.54-.86.27-1.41.45-.4.9-.77,1.33-1.17a1.14,1.14,0,0,0,.35-.49,3.32,3.32,0,0,0,.31-1.21.25.25,0,0,1,0-.18c.08-.09.2-.23.28-.22.32.06.42-.2.57-.36s.19-.28.31-.39a2,2,0,0,0,.51-.8,1.59,1.59,0,0,1,.71-1,1.37,1.37,0,0,0,.61-.61,2,2,0,0,1,.55-.69,3.53,3.53,0,0,0,.64-.74.85.85,0,0,0,.16-.91.74.74,0,0,1,.22-1,1.93,1.93,0,0,0,.68-.88,4.43,4.43,0,0,1,.25-.37c.14-.22.38-.44.4-.67A7.07,7.07,0,0,1,17,10.7a.66.66,0,0,1,.4-.47,1,1,0,0,0,.35-.39c.14-.23.25-.47.38-.73-.22-.37-.57-.35-1-.27a.29.29,0,0,1-.34.31.74.74,0,0,0-.32.1,1.12,1.12,0,0,1-.78.13.49.49,0,0,0-.62.31s-.07.08-.09.13a.47.47,0,0,1-.47.33.4.4,0,0,0-.27.11,11.5,11.5,0,0,0-.85,1.12,4.71,4.71,0,0,1-1.5,1.51c0,.1,0,.2-.05.3a.6.6,0,0,1-.37.53l-1,.42-.19-.31-.19.13,0-.32a.39.39,0,0,0-.46.27A4.9,4.9,0,0,1,8.9,15l-.81,1.1c-.13.17-.27.34-.53.28.1.31.09.3-.11.55s-.27.37-.41.56l-.66.81c.18.13.14.31,0,.52-.3.43-.58.88-.87,1.32a5.8,5.8,0,0,1-.4.57.57.57,0,0,1-.34.22c-.36,0-.45.3-.69.48l.33.21-1.2,1.7a1,1,0,0,1-.35,1.12c-.1-.09-.2-.19-.31-.28a.54.54,0,0,0-.62,0c-.18.09-.19.27-.16.44s.23.28.43.31ZM52.6,6.66c.13-.12-.08-.32.18-.38l.08.41.36-.1-.06-.5c.28-.21.28-.23,0-.48a.56.56,0,0,0-.12.1.94.94,0,0,1-.76.51.4.4,0,0,0-.27.28c0,.54-.46.75-.87.91s-.52.13-.64.42c0,0-.08.05-.13.06a.63.63,0,0,0-.49.4.44.44,0,0,1-.38.28c-.16-.26-.44-.25-.65-.33-.27.37-.5.73-.77,1s-.77.82-1.14,1.25c-.5.59-1,1.19-1.46,1.79a.76.76,0,0,1-.17.12s-.05-.07,0-.09.09-.22,0-.26a.32.32,0,0,0-.27.07,5.81,5.81,0,0,0-.5.58c-.16.21-.3.45-.47.66s-.25.22-.35.35c-.32.4-.62.82-.93,1.23s-.56.7-.83,1.06a9.21,9.21,0,0,1-.52.76,9.26,9.26,0,0,0-1.3,1.89A7.28,7.28,0,0,1,39,20.37a2.55,2.55,0,0,0-.32.31c-.5.76-1,1.52-1.49,2.28a1,1,0,0,0-.21.41c0,.42-.48.65-.44,1.08,0,0,0,0,0,0a.61.61,0,0,0-.37.49c0,.31-.35.25-.39.48v.08a.52.52,0,0,1-.08.82.81.81,0,0,0-.25.46,1.92,1.92,0,0,1-.1.52c-.14.26.09.43.1.64s.27.33.48.45c.21-.11.43-.22.63-.35a1,1,0,0,1,.53-.2.68.68,0,0,0,.58-.39c.19-.3.41-.58.62-.87.07-.1.15-.21.23-.31a1.79,1.79,0,0,1,.31-.33,3.18,3.18,0,0,0,.7-.7c.41-.54.9-1,1.35-1.52.16-.18.36-.33.52-.52a6.22,6.22,0,0,1,.43-.58,2.5,2.5,0,0,0,.5-.68,1.08,1.08,0,0,1,.22-.31,4,4,0,0,0,.88-1.07,1.19,1.19,0,0,1,.18-.19l.92-1c.2-.22.42-.42.6-.65A6.15,6.15,0,0,0,46,17.64,6,6,0,0,1,47.08,16c.24-.26.47-.54.71-.81a2.84,2.84,0,0,1,.3-.3,1.31,1.31,0,0,0,.58-.83.51.51,0,0,1,.12-.28,2.29,2.29,0,0,0,.47-1,1.55,1.55,0,0,1,.23-.52c.35-.44.71-.87,1.09-1.27.21-.22.48-.38.71-.58a2.67,2.67,0,0,0,.65-.64c.35-.64.62-1.32.93-2a.52.52,0,0,1,.19-.26,1.37,1.37,0,0,0,.58-.6,1.66,1.66,0,0,1,.26-.3,4.22,4.22,0,0,0,1-.95A.42.42,0,0,0,54.64,5l-.56-.24a1,1,0,0,0-.2,0l-.53.73c.06,0,.15.06.18,0s.41-.21.38-.47l.75.24a.16.16,0,0,1-.14.21c-.18,0-.18.14-.17.28a.82.82,0,0,1,0,.2c-.15,0-.3-.13-.38-.08-.25.14-.5.29-.51.66a.7.7,0,0,1-.46.67c-.42.1-.42.1-.49.55,0,0,0,0-.05.06h-.73c-.11-.11-.08-.26,0-.43s.18-.11.31-.1.19-.14.21-.23C52.26,6.69,52.25,6.68,52.6,6.66ZM21.07,9.39l-.75.75a.37.37,0,0,0-.09.12,9.45,9.45,0,0,1-.75,1.35c-.25.44-.68.76-.83,1.27,0,.05-.09.09-.13.14s-.21.23-.29.35-.24.36-.35.55-.24.45-.37.67-.19.57-.54.65c-.05,0-.1.15-.1.22a3,3,0,0,1-.17.73,3.17,3.17,0,0,1-.56.86c0,.06-.14.13-.18.12-.26-.07-.36.09-.48.3l.39,0a3.17,3.17,0,0,1,0,.56,1.32,1.32,0,0,0,.75,1.31.71.71,0,0,1,.22.21,1.12,1.12,0,0,0,.9.51.51.51,0,0,0,.5-.22c.4-.48.81-1,1.23-1.43s.68-.69,1-1a1.57,1.57,0,0,1,.26-.17l.77-.5a.61.61,0,0,0,.36-.57.48.48,0,0,1,.1-.24,4.6,4.6,0,0,0,.31-.47A.74.74,0,0,1,23.2,15a.51.51,0,0,0,.13,0l.07-.27c-.51-.22-.52-.26-.24-1,.14-.09.34-.14.39-.25a2.32,2.32,0,0,1,.54-.68c.19-.19.4-.35.59-.53a2.93,2.93,0,0,0,.33-.37c.14-.18.26-.38.37-.55l.34.06.11-.06c-.24-.1-.17-.21-.14-.36,0-.29.29-.45.4-.68a5.59,5.59,0,0,1,1-1.38l.33-.36a2.59,2.59,0,0,0,.22-.21,13,13,0,0,0,.78-1.1c.1-.17.23-.13.32-.14a1.08,1.08,0,0,1,0-.4,1.5,1.5,0,0,0,.35-.71s0-.06.07-.08l.44-.4c-.14-.09-.48,0-.2-.28,0,0,0-.05,0-.07s.06-.3.15-.38.26-.06.34-.08c.32-.34.42-.83.92-.94A.25.25,0,0,0,31,3.55a1,1,0,0,1,.55-.63c0-.16,0-.28,0-.41A.56.56,0,0,0,31,1.8c-.47-.06-.94-.08-1.4-.18a.62.62,0,0,0-.67.25.88.88,0,0,1-.56.3,1.52,1.52,0,0,0-.41.18,3.12,3.12,0,0,0-.29.2.42.42,0,0,1-.23.5c-.05,0-.12.08-.13.13a.45.45,0,0,1-.56.34l0,.44a.57.57,0,0,1-.59.11.49.49,0,0,0-.68.15,6.55,6.55,0,0,0-.8.92,4.65,4.65,0,0,1-.6.64c-.24.27-.47.54-.69.82s-.23.36-.36.53a.3.3,0,0,1-.37.12c-.23-.07-.37.07-.35.31a1,1,0,0,0,.08.22,3.43,3.43,0,0,1-1.58,1.26Zm78.5,69.79c0-.06-.06-.11-.1-.14a.59.59,0,0,0-.26-.1s-.14.13-.12.16.12.21.21.23a1.63,1.63,0,0,0,.41,0,1.7,1.7,0,0,1,.25.05l-.37.36a2.71,2.71,0,0,0-.53.61,3.55,3.55,0,0,1-.7,1,.89.89,0,0,0-.24.42,1,1,0,0,1-.42.62,3.32,3.32,0,0,0-.9,1.26,11,11,0,0,0-.44,1.06c-.1.21-.24.4-.13.65,0,0,0,.11-.06.16-.17.32-.34.64-.52,1a.5.5,0,0,0,0,.67.38.38,0,0,1,.05.48l-.27-.16a2.29,2.29,0,0,0,.1.22c.24.39.37.42.74.18s.63-.39.94-.6a7.52,7.52,0,0,0,.61-.47.39.39,0,0,0,.1-.19A2,2,0,0,1,99,85.2a.44.44,0,0,0,.15-.11c.39-.46.78-.92,1.16-1.39a.82.82,0,0,1,.37-.25,1.27,1.27,0,0,0,.45-.33c0-.05,0-.2,0-.31a.15.15,0,0,1,0-.08c.19-.4.31-.85.73-1,.15-.23.26-.41.38-.58a4.51,4.51,0,0,0,.57-.76,1.69,1.69,0,0,1,.46-.73c.07-.05.1-.15.15-.22s.3-.42.47-.61a7.66,7.66,0,0,0,1.28-1.69c0-.1.15-.18.2-.28s.41-.22.4-.48a4.81,4.81,0,0,0-.11-.64,1.15,1.15,0,0,1,0-.15.3.3,0,0,1,0-.18c.18-.23.38-.45.57-.67,0-.06.13-.08.17-.14s.28-.42.44-.62.29-.25.41-.39a6.65,6.65,0,0,0,.44-.62,3.43,3.43,0,0,0,.18-.37l-.4,0a.33.33,0,0,1-.12.46,1.57,1.57,0,0,0-.6.76c0,.1-.14.17-.21.25l-.07,0,.19-.4a.68.68,0,0,1-.85-.17,1.46,1.46,0,0,1-.12.18,2,2,0,0,1-.18.16c.08-.36.17-.49.4-.44a.54.54,0,0,0,.52-.14c.22-.18.45-.35.71-.55l-.54-.38c.11-.17-.11-.28-.12-.42l.22-.27c.05-.06.11-.16.17-.17s.18-.21.19-.35a.67.67,0,0,0,.25,0c.08,0,.14-.16,0-.2s-.14-.18-.06-.28c.26-.3.52-.6.79-.89a.36.36,0,0,0,.1-.44l-.84,1.08a.3.3,0,0,1-.14.12,1.38,1.38,0,0,0-.74.57,2.63,2.63,0,0,1-.24.25c-.2.18-.41.26-.65.05,0,0-.12,0-.17,0-.17.2,0,.31.06.39a18.6,18.6,0,0,1-3.6,4.2v-.23a1.13,1.13,0,0,0-.48.74.39.39,0,0,1-.06.13L100,78c.15.13.1.3,0,.47Zm10.5,3.32c.22.36,0,.6-.19.84l-.12.15c-.17.17-.31.38-.6.37-.08,0-.17.1-.24.17a4.73,4.73,0,0,1-.63.68A7.26,7.26,0,0,0,106.94,86c0,.08.08.18.14.26a.3.3,0,0,1,0,.39,8,8,0,0,0-1.17,1.77,9.35,9.35,0,0,1-1,1.58l.14.11c-.14.29-.26.57-.41.84-.3.52-.63,1-.94,1.54a2.05,2.05,0,0,0-.12.24c-.07.16-.13.33-.21.49a9.9,9.9,0,0,0-1,2.29.7.7,0,0,1-.11.2l-.4.6a.43.43,0,0,1,.07.56c-.16.28-.28.58-.43.86a1.3,1.3,0,0,0-.12.93c.08.35.37.49.66.28a.92.92,0,0,0,.23-.26l.92-1.47c.11-.18.2-.35.45-.38.08,0,.15-.12.22-.19l.41-.46c.34-.37.71-.72,1-1.12a11,11,0,0,0,.61-1.07c.4-.68.78-1.39,1.24-2a3.61,3.61,0,0,0,.6-1.32.91.91,0,0,1,.16-.29l.55-.77.63-.91.13-.18c.12-.19.24-.39.35-.59a6.27,6.27,0,0,0,.3-.58,1.94,1.94,0,0,1,1-1.26.26.26,0,0,0,.16-.32.44.44,0,0,1,.2-.42c.24-.2.53-.38.52-.76,0,0,.05-.09.08-.13l.65-1c-.05-.23-.18-.44-.12-.55a4.17,4.17,0,0,1,.61-.83,3.28,3.28,0,0,0,.86-1.64c0-.25,0-.35-.26-.44s-.41-.07-.67.2-.69.72-1.05,1.06a.65.65,0,0,0-.27.52.36.36,0,0,1-.09.24c-.33.35-.66.72-1.22.48C110.21,82.44,110.17,82.47,110.06,82.49Zm19.83,13.7c-.24.06-.34-.07-.39-.26s-.13-.47-.21-.7a.51.51,0,0,0-.18-.27.29.29,0,0,1-.14-.36,7.94,7.94,0,0,1,.32-1.1,9.62,9.62,0,0,1,.54-1c.06-.11.17-.22.18-.34a6,6,0,0,0,0-1.27.77.77,0,0,1,.18-.74s0-.14.06-.29c-.4.25-.71-.06-1,0-.16-.47.14-.85.19-1.32l-.38.33,0,.19c-.16.08-.4,0-.43.24.36,0,.36,0,.34.33a.49.49,0,0,0,.42.56.5.5,0,0,1-.33.08c-.1,0-.17-.15-.27-.24-.1.14-.19.27,0,.39a1,1,0,0,0,.34.17c.28.09.41-.21.66-.29a.75.75,0,0,1,.06.18c0,.26-.32.18-.39.38l.21.48-.65-.2-.07-.4c-.28.39-.64,0-1,.22l.19.47-.25-.09c-.21.32-.46.39-.65.19v-.25l-.32-.16c.27-.13.3-.2.19-.41a.36.36,0,0,1,.15-.55l.21-.1c-.32-.23-.39-.21-.49.11a3.48,3.48,0,0,1-.2.44l.25.19c-.34,0-.51.07-.56.23s.16.23.26.34l-.17.47a.53.53,0,0,1,.08.6,7,7,0,0,1-.44,1.14c-.14.24-.24.49-.63.37l.08.3a1.27,1.27,0,0,1,.09.32c0,.23,0,.46-.06.69a.76.76,0,0,0,.2.71,2.23,2.23,0,0,1,.31.51,1,1,0,0,0-.73.69c0,.13-.09.27-.13.4a2.12,2.12,0,0,0-.08,1.65c-.08.13-.17.22-.18.32a4.82,4.82,0,0,0,0,.84,3,3,0,0,0,.13.89c.09.24-.12.45,0,.66.24-.32.24-.32.43-.12l-.16.56-.19-.24a.83.83,0,0,0,.25.69.47.47,0,0,0-.12.6,1.42,1.42,0,0,1,0,.8c0,.19-.07.38-.11.57a.5.5,0,0,0,.21.51,1.37,1.37,0,0,0,1.32.08.57.57,0,0,1,.31-.05c.27,0,.4,0,.48-.26a1.17,1.17,0,0,1,.49-.68l-.17-.09c-.36-.13-.4-.15-.33-.52a5.86,5.86,0,0,1,.28-.83.81.81,0,0,1,.14-.31,1.29,1.29,0,0,0,.33-.76.84.84,0,0,1,.09-.33,1.78,1.78,0,0,0,.19-1.62,1.11,1.11,0,0,1,.08-.9.86.86,0,0,0,.26.1.27.27,0,0,0,.21-.1.25.25,0,0,0,0-.23s-.16,0-.23,0a.79.79,0,0,0-.2.13l-.07,0a2.89,2.89,0,0,1,.46-1.14,1.58,1.58,0,0,0,.36-.75.52.52,0,0,1,.26-.4A.41.41,0,0,0,129.89,96.19Zm-17.17,17.13h.06a.34.34,0,0,0,0-.08.38.38,0,0,0,0-.11,1.1,1.1,0,0,1,.11-1.07c.14-.24.3-.47.45-.72a.57.57,0,0,0,.12-.31c-.06-.38.19-.55.45-.72.08-.05.19-.13.2-.21a3.35,3.35,0,0,0,.1-1.37,1.18,1.18,0,0,1,.17-.92,3.71,3.71,0,0,0,.47-1,2.14,2.14,0,0,0,.14-1.24.21.21,0,0,1,0-.18.31.31,0,0,0,0-.39.46.46,0,0,1-.05-.26c.08-.39.17-.77.27-1.16,0-.2.11-.39.17-.59a1.4,1.4,0,0,1,.13-.39,2.7,2.7,0,0,0,.47-1,2.09,2.09,0,0,0,.08-.59c0-.39,0-.77.4-1a.25.25,0,0,0,0-.4.69.69,0,0,0-.28-.12c-.2,0-.22-.16-.15-.32.19-.41.39-.81.58-1.21a2.12,2.12,0,0,0,.22-.52,4.77,4.77,0,0,0,0-.87.24.24,0,0,0-.29-.24c-.21,0-.42.09-.63.14a.3.3,0,0,1-.17.41.12.12,0,0,1-.1,0,.17.17,0,0,1,0-.13.73.73,0,0,1,.11-.17.35.35,0,0,0-.35.39c0,.35-.1.49-.43.53a2.28,2.28,0,0,0-.4.12,3.69,3.69,0,0,0-.19.58,3.68,3.68,0,0,1-.56,1.32.54.54,0,0,0-.1.53.57.57,0,0,1,0,.36c-.1.29-.24.56-.36.83,0,.06-.06.13-.11.15-.24.1-.27.31-.33.53a2.4,2.4,0,0,1-.21.58,3.45,3.45,0,0,0-.29.89,3,3,0,0,0,0,1.21,1.33,1.33,0,0,1-.38,1,1.29,1.29,0,0,1-.56.51s-.06.1-.09.14c.13.21.22,0,.34,0-.06.39-.56.68-.27,1.07-.05.17-.09.28-.12.39a1.55,1.55,0,0,1-.14.5,2.69,2.69,0,0,0-.42,1c0,.15-.09.29,0,.43a.23.23,0,0,1,0,.32.32.32,0,0,0-.08.2,1.22,1.22,0,0,1-.18.77.6.6,0,0,0,0,.59,1.69,1.69,0,0,1,0,1.42,1.14,1.14,0,0,0-.09.75,2.18,2.18,0,0,1-.12,1.4c-.18.47-.16.49.27.77s.62.15.77-.26a3.79,3.79,0,0,1,.77-1.65s.05-.09.08-.13Zm10.84-21.66a.84.84,0,0,0-.93.45,5.25,5.25,0,0,1-.44.76c-.2.26-.24.62-.42.9-.33.52-.24,1.14-.51,1.61a3.29,3.29,0,0,0-.44.45c-.19.29-.27.67-.63.85a.31.31,0,0,0-.11.15,2.26,2.26,0,0,0-.25,1.37.86.86,0,0,1-.09.63l-.15-.14a.33.33,0,0,0,.08.48c.13.1.2.24.09.36a1.11,1.11,0,0,0-.19,1,2.88,2.88,0,0,1-.08,1.22,5.44,5.44,0,0,1-.8,2,.36.36,0,0,0,0,.14L118.2,106c.13.11.23.21.34.29s.31.08.31.29c-.23,0-.31.08-.26.27a.58.58,0,0,0,.14.22,1.07,1.07,0,0,1,.22,1.08c-.17.49-.43,1-.62,1.44a1,1,0,0,0,0,.52,1.58,1.58,0,0,0,.16.36l.15,0a.55.55,0,0,0,.78-.42c.08-.24.15-.49.24-.73.17-.48.23-.49.6-.16.19.16.33.16.45,0a2.65,2.65,0,0,1,.23-.39,2.05,2.05,0,0,1,.39-.26s0-.08,0-.09c-.24-.24-.43-.47-.2-.84.05-.09,0-.23,0-.34a1.14,1.14,0,0,1,.2-.53,1.57,1.57,0,0,0,.32-.55,2.41,2.41,0,0,1,.21-.41,1.09,1.09,0,0,0,.29-.88c0-.08.06-.16.07-.25a2.93,2.93,0,0,0,.07-.75,6.08,6.08,0,0,1,.27-2.16,3.5,3.5,0,0,0,.16-.75c0-.38-.09-.76-.12-1.14a7.12,7.12,0,0,1,0-1.15,4.36,4.36,0,0,1,.24-1c.15-.43.15-.93.6-1.21,0,0,.06-.11.09-.16a2.11,2.11,0,0,0,.15-1.46.56.56,0,0,1,.12-.5c0-.05.08-.11.16-.22l-.88-.27a7,7,0,0,1,.72-1.78l-.08-.05-.33.3C123.33,92.08,123.48,91.88,123.57,91.66ZM81.28,71.8a5.17,5.17,0,0,0,.72-.64c.42-.55.81-1.12,1.18-1.71a4.29,4.29,0,0,1,.56-.68,8.31,8.31,0,0,0,.69-.77c.36-.49.69-1,1-1.49a1.31,1.31,0,0,1,.49-.48.84.84,0,0,0,.31-.28c.24-.38.46-.77.7-1.15s.54-.94.85-1.38a4.46,4.46,0,0,1,1-1.23.71.71,0,0,0,.18-.29,12,12,0,0,1,1.31-2.13c.28-.37.6-.71.84-1.1s.62-.94.94-1.4a10.05,10.05,0,0,0,.49-.88l-.45-.07.09-.5-.39,0,.56-.91L92,54.28c.48-.19.45-.14.41-.74l-.74.87,0,0a2,2,0,0,1-.76.62c-.2.06-.33.3-.5.46-.47.46-1.07.8-1.2,1.52l0,0c-.45.25-.57.78-.92,1.13A20.8,20.8,0,0,0,87,59.9c-.48.6-1,1.19-1.48,1.8l.13.31c-.21.26-.41.49-.59.74l-1.09,1.47c-.23.32-.54.6-.5,1a.36.36,0,0,1-.09.24A5.14,5.14,0,0,0,82.53,67a1.36,1.36,0,0,1-.27.45.33.33,0,0,0-.1.26.58.58,0,0,1-.18.6c-.22.28-.46.55-.7.85a1.46,1.46,0,0,0,.12.35.28.28,0,0,1,0,.38c-.17.21-.32.43-.48.65a1.19,1.19,0,0,0,.14.26.59.59,0,0,1,.16.76S81.24,71.69,81.28,71.8Zm30.38,19.56c.3-.26.6-.51.89-.78s.36-.4.55-.59a4.55,4.55,0,0,0,.93-1.09,1.43,1.43,0,0,1,.27-.42,9.43,9.43,0,0,0,1.36-1.91,11,11,0,0,0,.74-1.11,5,5,0,0,1,.68-.88,1.54,1.54,0,0,0,.32-.65,3.85,3.85,0,0,1,.32-.93c.22-.42.5-.8.77-1.2a2.8,2.8,0,0,1,.43-.59,2.75,2.75,0,0,0,.56-.9,2.76,2.76,0,0,1,.17-.35.67.67,0,0,0,0-.9.38.38,0,0,1,0-.5,7.39,7.39,0,0,1,.6-.7.35.35,0,0,0,.07-.42,6.05,6.05,0,0,1-.44.63.39.39,0,0,1-.57.05s0,0,0-.06l.23-.08v-.08c-.1,0-.26,0-.3,0-.23.3-.47.15-.74.07l0-.24c-.25,0-.31.24-.37.39a.66.66,0,0,1-.42.4,1.08,1.08,0,0,0-.51.31,8.71,8.71,0,0,0-.59,1c-.2.37-.38.76-.58,1.13a3.18,3.18,0,0,1-.5.77,6.67,6.67,0,0,0-1.18,1.74c-.14.26-.26.54-.58.64a.25.25,0,0,0-.11.1l-.54.79-.87,1.31a.56.56,0,0,0-.09.2,2.66,2.66,0,0,1-.7,1.29,4.49,4.49,0,0,0-.76,1.14,3.82,3.82,0,0,1-.86,1.41c.08.14.23.27.22.4a.5.5,0,0,0,.29.52,1.37,1.37,0,0,1-.12.27l-.68.88c-.07.09-.17.19-.17.28a1.5,1.5,0,0,0,.12.48.18.18,0,0,0,.16.07,3.92,3.92,0,0,0,1.15-.5,8.17,8.17,0,0,0,1-1.24ZM76.74,51,76.67,51l.28-.25s0-.14-.07-.24,0-.2-.05-.3l-.43-.09c0-.24,0-.36-.2-.37s-.1.05-.18.1l.22.11c0,.13-.06.35-.13.37-.29.08-.32.34-.46.53a.64.64,0,0,0-.15.29,1,1,0,0,1-.64.93c-.33.14-.64.34-1,.48a2.66,2.66,0,0,1-1.67.44l0,0c.2.31.57.49.71.87l-.2.15.12.28a4.77,4.77,0,0,1-.48.54,4.38,4.38,0,0,1-.59.36l.24.32a4.25,4.25,0,0,1-.59.24c-.2,0-.22.15-.15.3s.15.26.22.38a1.24,1.24,0,0,1-.76.31.55.55,0,0,0-.49.43,1.08,1.08,0,0,1-.06.16l-.3.11-.34,1.06-.49.13c0,.34.32.16.44.36l-.75.67c.18.38.09.58-.24.65-.14,0-.36-.05-.39.14s.11.26.19.39.1.09.12.15a.4.4,0,0,1,.06.24,1.12,1.12,0,0,0,.09,1l-.39.25a.5.5,0,0,1-.06.55c-.06.09-.23.51-.3.53-.23.08-.17.26-.15.41a1.36,1.36,0,0,0,.12.31,1.45,1.45,0,0,1,.25-.07,1.07,1.07,0,0,1,.22,0c.38-.51.59-1.14,1.29-1.25.1-.56.51-.67,1-.67,0-.13,0-.27.07-.35s.3-.24.39-.39.09-.39.3-.52a1,1,0,0,0,.26-.27l1.65-2.13c.2-.26.42-.51.62-.78s.22-.35.34-.51a.51.51,0,0,0,.11-.53.66.66,0,0,1,.23-.79,1.16,1.16,0,0,0,.14-.13L76,54.11c.38.08.49-.06.45-.51.26-.15.25-.15.37-.47a1,1,0,0,1,.1-.17,3.81,3.81,0,0,0,.54-1c0-.09.15-.17.23-.23a2.76,2.76,0,0,0,.6-.83l-.5.08-.17-.14ZM89.5,67h-1c.17.27.41.26.64.29l.17.54-.35-.11c0,.35.32.22.44.39s.32.22.55.37l-.68.32a.26.26,0,0,1-.35,0,.4.4,0,0,0-.49-.07.51.51,0,0,1-.25.07c-.27,0-.35.12-.44.31l.51,0,0,.48.38,0c-.21.33-.18.46.13.56l.16-.38a1.94,1.94,0,0,1,.11.36c0,.19,0,.39,0,.58a3.36,3.36,0,0,0,.1.64.43.43,0,0,0,.22.24.89.89,0,0,0,.94-.26c.29-.39.54-.81.85-1.19a4.48,4.48,0,0,1,.78-.79,2.42,2.42,0,0,0,.67-.62s.08-.06.12-.09l.3.25a.88.88,0,0,0,0-.27.94.94,0,0,0-.15-.19c.08-.12.16-.18.25-.05a.73.73,0,0,1,.09.28,2.77,2.77,0,0,1,0,.34c.23-.08.33-.14.22-.35s-.06-.25.15-.22.33,0,.44-.13l-.66-.38V67.8c.33.18.36-.16.56-.22l-.17-.28.65-1,.07.42c.27-.22,0-.47.12-.66.63-.25.63-.25.65-.43l-.52.11c0-.4.37-.17.62-.28l-.55-.4c0-.06.07-.13.09-.19a.56.56,0,0,0,.07-.24.57.57,0,0,1,.42-.73.59.59,0,0,0,.42-.45.3.3,0,0,1,.34-.25A.68.68,0,0,0,96.5,63c.29-.23.6-.41.88-.6a1.07,1.07,0,0,1-.07-.25,1,1,0,0,1,0-.3,1,1,0,0,0-.33-1,.2.2,0,0,0-.32,0c.53.64.58,1.15.16,1.47l-.29,0a4.79,4.79,0,0,1-.32.54.44.44,0,0,1-.3.18,3.84,3.84,0,0,1-.64-.15c0-.5,0-.51.3-.48l.83-.66h-.49a4.75,4.75,0,0,1-.29-.61c-.1-.33-.09-.33-.4-.33,0,0,0,0-.06-.08.07-.19.27-.36.2-.62,0,0,.06-.11.11-.15s.19-.13.29-.19c-.16-.27-.17-.36,0-.57a1.79,1.79,0,0,0,.26-.68c.08-.23.41-.36.5-.59a1.21,1.21,0,0,1,.78-.64l.29-.12a1.17,1.17,0,0,0-1.26.63.57.57,0,0,1-.44.38c-.08,0-.13.17-.22.28-.44.05-.44.05-.38.52s-.25.73-.47,1.05c0,0-.11,0-.17,0l-.09,0c0,.33-.35.29-.54.42s-.39.19-.45.34c-.12.3-.42.39-.6.61,0,0-.13,0-.16,0-.05.43.1.88-.32,1.2.13.36.13.79.57,1l-.58,0,0,.37c-.33-.12-.49.1-.67.28a.88.88,0,0,0-.13.73l-.52.22-.54-.33a.51.51,0,0,1-.75.3.69.69,0,0,0-.21,0l.38.32-.38.2v.41l-.52.23C89.63,66.45,89.63,66.45,89.5,67Zm44.86,28.29a.82.82,0,0,0-.17.67c0,.37,0,.73,0,1.16.23.16.26.47.26.8s0,.77,0,1.15.18.41.47.27a1,1,0,0,0,.61-.55,2.31,2.31,0,0,1,.23-.4,1,1,0,0,0,.42,0c.12-.07.17-.24.28-.34a2.1,2.1,0,0,0,.57-1.34l-.72.38c-.09-.41-.08-.48.22-.65a.94.94,0,0,0,.43-.47.93.93,0,0,1,.17-.26,6.46,6.46,0,0,0,1.18-2.4,1.2,1.2,0,0,0,.08-.41.48.48,0,0,1,.28-.49l0-.07-.38,0a.76.76,0,0,1-.18-.57,3.9,3.9,0,0,0,0-1.55.53.53,0,0,1,0-.23c0-.24,0-.48.06-.72a5.48,5.48,0,0,1,0-1.15.3.3,0,0,0-.06-.21.82.82,0,0,1,0-.94c.11-.19.2-.39.32-.57a.83.83,0,0,0,.19-.56c0-.33,0-.67,0-1a1.16,1.16,0,0,1,.3-.77l-.39-.31a.42.42,0,0,1-.51.39s0,.07,0,.1c.07.34.07.33-.27.47a.22.22,0,0,0-.17.27l.36-.12,0,0-.71.54c.08-.26-.16-.25-.42-.38.36,0,.43-.19.36-.4-.44-.13-.44-.13-.65.24a1.35,1.35,0,0,1-.18.22c-.37-.09-.28-.39-.37-.6a.59.59,0,0,0-.26.41,4.12,4.12,0,0,1-.34,1,2,2,0,0,0-.19,1.37s.11.07.17.1l0,.41.24.1c-.12.28-.4.1-.58.24l.21.12c0,.22,0,.39,0,.57s0,.23,0,.3a2.45,2.45,0,0,0-.18.9,2,2,0,0,0,0,1,.4.4,0,0,1,0,.32c-.15.17-.13.48-.43.54,0,0-.09.13-.1.2,0,.4-.06.8-.08,1.22-.25.17-.33.34-.18.61a.64.64,0,0,1,0,.67C133.9,94.93,134,95,134.36,95.26Zm-20.79-.37c0,.19.14.38.08.48-.18.28-.06.64-.3.89,0,0,0,.17,0,.25a1.25,1.25,0,0,1-.23,1.32c-.26.25-.53.49-.8.72a.56.56,0,0,0-.25.49c0,.13.08.31.17.35a.4.4,0,0,0,.37-.11c.33-.54,1-.79,1.15-1.48a4.87,4.87,0,0,1,2.19-2.2l.13-.07c-.08-.56-.08-.56.33-.81l.2-.12a1.47,1.47,0,0,0,.64-.79.66.66,0,0,1,.27-.31c.2-.13.42-.24.61-.34s.08-.31.13-.44c.17-.47.34-.94.52-1.4a5,5,0,0,1,.23-.52,2.76,2.76,0,0,1,1-1,1.76,1.76,0,0,0,.8-1.09c.05-.25.07-.53.31-.68s.1-.51.29-.72a7.77,7.77,0,0,0,.55-.79.09.09,0,0,0,0,0c-.24-.36-.18-.5.24-.58a.49.49,0,0,0,.27-.13,3.08,3.08,0,0,0,.4-.56c.18-.33.25-.72.63-.94l-.52-.65s-.08.06-.13.05a4.94,4.94,0,0,1-.56-.13c-.16,0-.3-.13-.29-.34a1.16,1.16,0,0,0-.05-.23,4.09,4.09,0,0,1-1.12,1.35,4.87,4.87,0,0,0-.58.67c-.22.29-.43.6-.64.9-.09.14-.27.29-.24.42,0,.29-.12.42-.26.6a3.63,3.63,0,0,0-.27.42c-.17.28-.25.61-.63.72-.15,0-.25.24-.36.38s-.22.4-.37.58-.43.46-.65.69a.33.33,0,0,0-.07.17c-.08.64-.64,1-.88,1.55,0,0,0,0-.06,0l-.86,1a.19.19,0,0,0,0,.14c.09.36-.16.57-.33.82C114.2,93.94,113.88,94.43,113.57,94.89ZM59.81,56.42l.07.05a.7.7,0,0,0,.22-.11c.25-.27.5-.54.73-.83a1.36,1.36,0,0,1,.75-.61c.08,0,.14-.11.21-.16a2.22,2.22,0,0,1,.44-.3,3.05,3.05,0,0,0,1-.87,8,8,0,0,0,.73-1,5.15,5.15,0,0,0,.37-.49c.1-.18.16-.36.4-.43.08,0,.15-.14.19-.22s.17-.43.27-.64a3.44,3.44,0,0,1,.35-.59,6.06,6.06,0,0,1,.6-.65,1,1,0,0,0,.31-.73.74.74,0,0,1,.24-.55,7.2,7.2,0,0,1,1-1.07.32.32,0,0,0,.1-.16,1.23,1.23,0,0,1,.48-.58,1.76,1.76,0,0,0,.68-1,1,1,0,0,1,.2-.32,2,2,0,0,0,.43-.73L68.81,44l0,.05.55.46c-.39.6-.58.74-.93.69.22-.2.26-.3.11-.4l-.3.1c-.12-.35-.43-.15-.64-.25l-.12-.36c-.17.56-.64.24-.92.48,0-.23,0-.29.21-.32a2.66,2.66,0,0,0,.57-.15.48.48,0,0,1,.67.13l0-.81.61-.13v-.85l.58-.62c.23.06.32.28.52.23l-.16.14-.31-.54c-.1.08-.25.2-.4.34s-.39.28-.41.44c-.06.52-.45.76-.79,1-.1.08-.18.19-.27.28l-.3.27L66.72,44a3.25,3.25,0,0,0-.42.38A8,8,0,0,1,64.7,46c-.28.2-.32.24-.13.6a.34.34,0,0,1,0,.45,1.76,1.76,0,0,0-.34.46,2.57,2.57,0,0,1-.76.91,2.71,2.71,0,0,0-.42.53,5.17,5.17,0,0,1-1,1.47,2.17,2.17,0,0,0-.69,1.22A.49.49,0,0,1,61,52c-.09,0-.21.2-.18.24.12.27,0,.43-.18.61a.42.42,0,0,0-.11.23,1,1,0,0,1-.39.68,4.23,4.23,0,0,0-.35.36.42.42,0,0,0-.07.24c0,.15,0,.31,0,.46l.17.08-.5,1.15.34-.11C60,56.06,59.92,56.24,59.81,56.42Zm1.1-10.52.16-.14a1.33,1.33,0,0,1,.58-.42,2.19,2.19,0,0,0,.68-.34,3.93,3.93,0,0,0,.56-.58c.52-.6,1-1.19,1.54-1.82a7.86,7.86,0,0,0,.93-1.12c.27-.51.62-1,.9-1.48a4,4,0,0,0,.42-1,1.7,1.7,0,0,1,.84-1.16A2.41,2.41,0,0,0,68,37.3a6.73,6.73,0,0,1,.67-.79,1.69,1.69,0,0,0,.46-.6,1.79,1.79,0,0,1,.42-.68.47.47,0,0,0,.11-.31,1,1,0,0,1,.35-.7,6.21,6.21,0,0,0,1.18-1.3c.19-.34.43-.66.61-1s0-.57-.36-.54a.41.41,0,0,0-.21.08.49.49,0,0,1-.47.07,1.28,1.28,0,0,0-.23,0c-.06.12-.11.22-.15.33a2,2,0,0,1-.56.82,2.3,2.3,0,0,0-.23.26L68.4,34.27l-.72.77c-.32-.15-.34.24-.54.39a.59.59,0,0,0-.89.17c-.25.44-.76.76-.64,1.42L65,36.78l-.62.74c.37.16.37.16.33.49,0,.18,0,.35-.06.56a8.2,8.2,0,0,1-.81.31,1,1,0,0,0-.74.84c0,.19-.06.38-.09.57s0,.21-.08.25c-.35.28-.58.74-1,.73a2,2,0,0,0-.3.52A3.12,3.12,0,0,1,61,42.91c-.11.16-.26.28-.18.51,0,.06-.05.16-.09.24s-.12.19-.18.3l.33.25a1.52,1.52,0,0,1-.53.91c-.13.13-.26.25-.13.44.25-.08.33-.36.6-.42l-.25.75.31-.17ZM107,79.61a7.18,7.18,0,0,1-.57.76,8.89,8.89,0,0,1-1.56,1.37.59.59,0,0,0-.28.34.38.38,0,0,1-.43.38c-.24,0-.28.14-.28.32a1.33,1.33,0,0,0,.05.3.71.71,0,0,1-.2.74,1.71,1.71,0,0,1-.5.34,1,1,0,0,0-.66.91.89.89,0,0,1-.38.64A1.05,1.05,0,0,0,102,86c-.22.36-.45.71-.65,1.08a29.49,29.49,0,0,1-1.53,2.53s-.05.07-.05.1a1.28,1.28,0,0,1-.35.71l-.56.86A.81.81,0,0,1,99,92.36a3.58,3.58,0,0,1-.33.47A.92.92,0,0,0,98.56,94a1,1,0,0,1,0,.35c.07,0,.19,0,.25-.05a8.67,8.67,0,0,0,.74-.72,3.19,3.19,0,0,0,.54-.74c.26-.58.83-.91,1.12-1.46a.36.36,0,0,1,.11-.1l.72-.5a.56.56,0,0,0,.28-.51.89.89,0,0,1,.12-.39,4.52,4.52,0,0,1,.38-.63,6.53,6.53,0,0,1,.85-1c.28-.25.33-.6.53-.87,0,0,0-.12,0-.18-.08-.29,0-.39.27-.45l.35-.05.06-.07c-.39-.12-.32-.36-.23-.6a3.51,3.51,0,0,1,1.3-1.57,1.45,1.45,0,0,0,.48-.57,2,2,0,0,1,.78-1.07s.07-.1.1-.14a.65.65,0,0,1,.14-.88,1,1,0,0,0,.38-1.06.45.45,0,0,1,.18-.48,3.25,3.25,0,0,0,.59-.74c.08-.11.19-.2.29-.3a1.42,1.42,0,0,0,.41-.72c-.25.29-.41.62-.67.76a.82.82,0,0,0-.47.57.21.21,0,0,1-.32.12l.18-.4h-.41c-.13,0-.23,0-.24-.19a.26.26,0,0,1,.19-.3l.4-.07c0-.33.39-.53.28-.9-.35.36-.68.71-1,1.05C107.06,79.23,106.93,79.4,107,79.61ZM49.24,46.26l-.36.41-.42-.1c.16.38.16.38.58.34l0,.42a3.64,3.64,0,0,1-.41,0,3.12,3.12,0,0,1-.38-.06l-.05.08a2.11,2.11,0,0,1,.22.43,2.18,2.18,0,0,1,0,.5h.37l-.12.29c0,.13,0,.25.11.29a.31.31,0,0,0,.25-.11,1.1,1.1,0,0,0,.2-.37.39.39,0,0,0-.13-.51.42.42,0,0,1-.2-.46l.5.46c.25.23.26.21.55,0a4.11,4.11,0,0,1,.75-.38.72.72,0,0,0,.43-.36c.06-.13.11-.3.22-.35.48-.25.7-.8,1.22-1a.44.44,0,0,0,.19-.19.91.91,0,0,1,.58-.42c.33-.07.42-.44.71-.56,0-.31.28-.45.39-.69a1.07,1.07,0,0,0,.13-.36,7.07,7.07,0,0,0,0-1,.9.9,0,0,1,.19-.65c.21-.27.41-.56.63-.83a.29.29,0,0,1,.27-.08.47.47,0,0,0,.43-.05,1.28,1.28,0,0,0,.61-.9,1.2,1.2,0,0,1,.41-.67.53.53,0,0,0,.21-.58.43.43,0,0,1,0-.26.88.88,0,0,0,.12-.7.17.17,0,0,1,0-.14c.18-.2.33-.41.68-.32s.56,0,.67-.39a.73.73,0,0,1,.29-.42c.25-.18.25-.34.06-.61a.33.33,0,0,1,0-.42.75.75,0,0,0,.1-.32c0-.17,0-.34,0-.5a2.14,2.14,0,0,0-1.32.8c-.12.15-.19.34-.32.47a4.6,4.6,0,0,0-.75,1.07.7.7,0,0,1-.29.29c-.26.13-.59.09-.77.38,0,0-.07,0-.11,0a3.07,3.07,0,0,1-.76.25c-.17,0-.33.19-.54.09l-.3.55c.28.34.59.69.35,1.22a1,1,0,0,0-.72.22.93.93,0,0,1-.64.18,2.2,2.2,0,0,0-.28.05c0,.09,0,.19.06.28a.86.86,0,0,0,.08.16c-.31.32-.31.32-.67.09-.09-.06-.19-.15-.28,0l.72.56-.46.1a2,2,0,0,1,.2.39.46.46,0,0,1,0,.35.36.36,0,0,1-.32.11.78.78,0,0,0-.6,0c0,.1,0,.2,0,.26-.19.29-.59.48-.47.93,0,0,0,0,0,0l-.63.79,0,.41-.66-.26.11.55a1.28,1.28,0,0,1-.46,0c-.12-.05-.21-.21-.3-.32l-.2.21a.34.34,0,0,1-.51.06c-.19-.15-.41-.26-.62-.4a.15.15,0,0,0-.05.06c-.06.2.07.27.22.37a1.26,1.26,0,0,0,1,.32,1.44,1.44,0,0,1,.38,0l-.24.3Zm48,32.45c0-.23-.06-.47.26-.51,0,0,.11-.13.1-.19,0-.29.18-.43.35-.61A5.35,5.35,0,0,0,99.09,76a.48.48,0,0,0,.06-.29.54.54,0,0,1,.12-.5l.61-.81c.1-.13.18-.27.26-.41s.1-.23.18-.29a4.7,4.7,0,0,0,.8-1.12,1.37,1.37,0,0,1,.15-.22A3,3,0,0,0,102,71a.91.91,0,0,0-.39.53.92.92,0,0,1-.29.33c-.18.15-.55.17-.45.56,0,0-.06,0-.08.06l-.19.3c-.23-.34-.41-.57-.21-.89a.24.24,0,0,0,0-.19.45.45,0,0,1,.07-.46,1.52,1.52,0,0,0,.13-.33l-.55-.33c.08-.1.44,0,.31-.29l-.7.06a.4.4,0,0,0-.37.16c-.21.3-.45.59-.68.88a.83.83,0,0,1-.22.13c0-.31.34-.45.26-.82l-.27.32c-.07.09-.13.21-.22.25a.35.35,0,0,0-.22.37,2.32,2.32,0,0,1-.47,1.24,3.56,3.56,0,0,0-.38.55,1,1,0,0,0-.1,1c0,.06,0,.18-.07.29l-.52-.11c-.08.51-.19,1-.81,1.05,0,.38-.21.58-.62.59.27.19.31.32.16.51a2.61,2.61,0,0,1-.48.55,4.77,4.77,0,0,0-.71.93.7.7,0,0,0-.19.49.34.34,0,0,1-.16.38l-.45.37c0,.29,0,.28-.3.34-.05,0-.09.1-.15.17l.37.22a2.22,2.22,0,0,0-.16.27c0,.08-.08.21,0,.25.21.24,0,.38-.09.56a1.08,1.08,0,0,0-.27.77.58.58,0,0,1-.1.42.93.93,0,0,0-.06.55c0,.1.18.18.25.24.37-.18.68-.32,1-.48a1.21,1.21,0,0,0,.35-.28c.31-.37.6-.77.92-1.14.08-.09.24-.11.36-.17s.24-.07.29-.15a1,1,0,0,1,.85-.57,1,1,0,0,1,.32-1,1.19,1.19,0,0,0,.24-.47C97,78.82,97,78.7,97.29,78.71Zm-32.39-19c-.41,0-.41,0-.41.53a.38.38,0,0,0,.09-.07.6.6,0,0,1,.46-.33.85.85,0,0,0,.65-.48,1.47,1.47,0,0,1,.15-.23,1.36,1.36,0,0,1,.92-.64.37.37,0,0,0,.24-.21,1.86,1.86,0,0,1,.65-.75.91.91,0,0,0,.19-.18c.14-.21.25-.44.4-.65q.58-.84,1.19-1.66c.34-.46.7-.92,1-1.38a3.52,3.52,0,0,0,.94-1.6.6.6,0,0,1,.15-.27c.44-.54.9-1.08,1.33-1.63a6.85,6.85,0,0,0,.91-1.38l-1.19.32-.16-.51-.41,0c.21-.42.21-.42.49-.45l-.1-.71.44-.34-.13-.1-.15-.1c-.53.2-.63.79-1.05,1.09L71.23,48l-1.42,1.93c-.06.08-.14.15-.2.23a4.86,4.86,0,0,0-.7.9,2.74,2.74,0,0,1-.6.67.27.27,0,0,1-.38,0,.75.75,0,0,0-.57-.08c0,.17.06.32.07.47s-.21.23-.31.36,0,.09,0,.14l.35.16a1.91,1.91,0,0,1-.24.53,1.9,1.9,0,0,0-.31.61,4.72,4.72,0,0,1-.33.69c-.42.67-.86,1.33-1.31,2l.22.3-.67.71c-.09.09-.15.2-.06.3s.13.39,0,.57a.26.26,0,0,0-.07.13,2.19,2.19,0,0,1-.52,1c-.06.09-.11.18-.21.34.49-.12.51-.6.81-.78Zm36.92,4.77c.06-.11.09-.24.18-.29a1.53,1.53,0,0,0,.43-.45,2.31,2.31,0,0,0,.55-.85c.07-.29.26-.56.34-.85s.29-.44.18-.72a.55.55,0,0,1,.23-.67,7.71,7.71,0,0,1,.71-.41l.31-1.21-.53.76.17.22-.07.17-.86.34a.18.18,0,0,0-.09.12c0,.27-.28.39-.45.56s-.27.15-.4-.08c0-.05-.11-.08-.17-.12l0-.34c-.22,0-.41.07-.59.12a2.6,2.6,0,0,1-.57.2c-.24,0-.35.1-.37.31l-.37,0-.18.58c-.4-.15-.24.25-.37.38l-.39-.09a1,1,0,0,0-.19.83c.05.3.1.6.18.89a.27.27,0,0,1-.15.35,2.19,2.19,0,0,1-.26.11l.11.47-.07,0-.29-.26c-.33.1-.2.44-.35.66s-.54.1-.54.5c-.17-.07-.3-.22-.46,0s0,.35.13.47c-.25.3-.47-.08-.72,0l.26.36.28,0-.13.42-.27-.2c-.22,0-.39.07-.56.12s-.28.12-.28.16c0,.22-.16.26-.28.4l.7.22v.26a1.73,1.73,0,0,1-.48.22,2.1,2.1,0,0,1-.56-.08.85.85,0,0,0,.22.92,1.08,1.08,0,0,1,.23.52c-.26.08-.26.08-.36.33a.74.74,0,0,1-.09.17.4.4,0,0,0,0,.58c.05.07.11.14.18.21s-.16.36,0,.55a1.46,1.46,0,0,0,.37.09A3.72,3.72,0,0,0,97,71.3a4.69,4.69,0,0,0,.77-.34l.17.18a1,1,0,0,1,.59-.88l.13.35.42-.31-.6-.28a3.53,3.53,0,0,1,1.11-1.3c.07,0,.19-.1.19-.16,0-.27.27-.36.41-.54a.34.34,0,0,1,.53-.1A.61.61,0,0,0,101,68a.41.41,0,0,0,.43-.31.52.52,0,0,0-.13-.6.37.37,0,0,0-.49,0c-.16.12-.27,0-.44,0,.58-.36,1-.75.67-1.45l.38-.32a1.15,1.15,0,0,1-.23-.11c-.21-.18-.21-.26,0-.4A6.49,6.49,0,0,1,101.82,64.45ZM.68,26.65a.74.74,0,0,0-.58.3.34.34,0,0,0,.19.59.62.62,0,0,0,.79-.42C1.23,26.84,1.11,26.65.68,26.65ZM151.49,80.82c.16-.22-.1-.39-.05-.58-.22-.15-.54-.07-.6-.4.13-.32.13-.32-.12-.49l-.26.41.26.31-.09.23c-.11,0-.19-.22-.41,0,.21,0,.21.15.39.18A5.09,5.09,0,0,1,151.49,80.82Zm-4.37-7.05a9.48,9.48,0,0,0-.42,1.55,2.61,2.61,0,0,1,.39,0c.36,0,.42,0,.63-.35-.06,0-.12-.08-.17-.08-.28,0-.28-.33-.5-.37a.49.49,0,0,1,0-.21c0-.07.1-.11.15-.17S147.34,73.91,147.12,73.77ZM89,42.62v-.29c-.32.26-.61.45-1,.33a.18.18,0,0,0-.15,0,.78.78,0,0,0-.12.17l0,.09c.22-.19.31,0,.46.08a5.33,5.33,0,0,0,.65.17l-.2-.31a3.66,3.66,0,0,0,.38,0,1.79,1.79,0,0,1,.4,0s0,0,.06,0l-.25-.38Zm-5.82,4.63c-.35-.08-.35-.08-.5-.27l.31-.55a4.61,4.61,0,0,1-.67.53,4.27,4.27,0,0,1-.77.24l.25.6c.11-.7.36-.82.9-.49-.11.12-.22.24-.1.39C82.89,47.71,82.88,47.38,83.13,47.25Zm14.63,11.4-.06-.09a1.1,1.1,0,0,0-.2.16,9.06,9.06,0,0,0-.55.74,1.83,1.83,0,0,0-.37.9.91.91,0,0,0,.05.23.64.64,0,0,0,.16-.32,1.26,1.26,0,0,1,.69-1l.45-.15-.5-.08Zm26.4,32.7a.73.73,0,0,0-.18-.77c-.16-.09-.48,0-.71.16s-.19.43-.3.64c0,0,0,.09.09.21l.18-.57.35.13-.17-.24.48-.12ZM103.63,58.56l-.45.43a5.73,5.73,0,0,0-.89,1.3s0,.14.07.25a3.08,3.08,0,0,1,.18-.35,2.55,2.55,0,0,0,.54-.82.13.13,0,0,1,.07-.09C103.49,59.18,103.5,58.84,103.63,58.56Z"/><path d="M89.7,42.19,89,41.93c-.14,0,0,.39-.36.34l.17-.27,0,0-.2.12-.52-.34.65-.87v.66c.09-.39.24-.78,0-1.13l.51-.32,0,.34c.28-.08.3-.33.34-.54a.52.52,0,0,1,.22-.37,1.1,1.1,0,0,0,.5-.6.54.54,0,0,1,.24-.27c.15-.09.16-.08.25-.31-.3.11-.56.22-.66.57s-.27.32-.59.25l.43-.49A7.29,7.29,0,0,0,90.6,38a.84.84,0,0,1,.38-.3,1.36,1.36,0,0,0,.88-1,.52.52,0,0,1,.09-.21A8.09,8.09,0,0,1,93.23,35a1.69,1.69,0,0,1,1-.57.18.18,0,0,0,.1-.06c.3-.29.62-.58.91-.88.53-.54,1-1.1,1.57-1.64a1.82,1.82,0,0,0,.52-.79c.11-.38.23-.49.56-.45a.5.5,0,0,0,.46-.24,4.35,4.35,0,0,1,1.13-.81c.13-.08.21-.24.34-.32s.34-.09.45-.19a7.78,7.78,0,0,0,.76-.9A4.6,4.6,0,0,1,102.14,27a6,6,0,0,0,.73-.68.4.4,0,0,0,.08-.13,1.45,1.45,0,0,1,.19-.44,3.37,3.37,0,0,1,1-.91l.35.21c.19,0,.38-.08.57-.14a1.09,1.09,0,0,0,.3-.16,4.48,4.48,0,0,1,.48-.37,5,5,0,0,0,.8-.59c.47-.38,1-.73,1.45-1.08a1.5,1.5,0,0,1,.28-.11.84.84,0,0,0,.3-.15,1.83,1.83,0,0,1,1-.59,1.15,1.15,0,0,0,.17-.07c.2.33.2.33,0,.6s-.2.32-.3.49l0,0c-.35.42-.68.86-1.07,1.25s-1,.92-1.51,1.36c-.22.19-.45.36-.67.53l.51.78c-.22.3-.28.72-.65,1s-.73.6-1.1.9c-.22.18-.46.32-.67.51s-.31.19-.18.41.27.11.48-.06a1,1,0,0,1,.52-.21.5.5,0,0,0,.32-.18c.34-.52.91-.76,1.34-1.16l.15-.12c.11-.1.19-.21.38-.2s.29-.14.46-.23a.3.3,0,0,1,.2.35c0,.19-.18.19-.32.22a1.4,1.4,0,0,0-.62.28c-.14.11-.31.17-.46.27s-.37.26-.51.36c0,.27-.05.5-.08.73a.61.61,0,0,0,0,.23c.17.54-.21.86-.48,1.22l-.27.37a1.94,1.94,0,0,1-.17.26L103.9,33c-.32.33-.63.67-1,1s-.59.57-.89.85l-.2.18L100.3,36.7l-1.15,1.24L96.52,40.8a1.16,1.16,0,0,1-.89.47l.26.11a.93.93,0,0,1-.12.26c-.42.45-.86.88-1.27,1.34s-.59.71-.88,1.07c-.11.14-.2.31-.45.19,0,.44-.32.56-.6.71l-.07-.07.41-.4L92.62,44l-.1.6c-.35-.19,0-.49-.16-.74l-.21.8a2.18,2.18,0,0,0-.25.1,2.24,2.24,0,0,1-.35.21,1.49,1.49,0,0,1-.43,0c-.14.13.12.28.12.46-.39-.15-.51-.06-.75.62-.21,0-.39,0-.43.35a.4.4,0,0,1-.44.32c-.06.09-.1.2-.16.22a.34.34,0,0,0-.26.46l-.33.35c-.11.12,0,.33-.17.42a.75.75,0,0,1,.05.1.35.35,0,0,1,0,.15c0,.17-.33.18-.23.42a2.26,2.26,0,0,1-.41.23.32.32,0,0,0-.25.29,3.86,3.86,0,0,1-.22.6l-.39-.14c-.26.26.16.4.08.65-.28,0-.49,0-.51.36,0,.07-.14.13-.24.22l.19.12c-.16.19-.31.12-.48,0l-.21.34c.42.38.42.4-.14.76.16.36.54.14.8.31l-.38.43-.08-.38-.16.22c-.13,0-.29,0-.39,0s-.11.22-.16.34a.63.63,0,0,0,0,.11c0,.11-.08.26.08.28s.19-.11.23-.19a.51.51,0,0,1,.46-.29l-.61.78c-.27.08-.57-.22-.8.13.2.13.4,0,.67,0a4.37,4.37,0,0,1-.25.47c-.4.55-.79,1.11-1.2,1.65s-.87,1.11-1.32,1.67c.19.28.07.57,0,.85a.42.42,0,0,0,.08.39.65.65,0,0,1-.12.8.19.19,0,0,1-.3,0c0-.07-.06-.14-.1-.21s-.15-.13-.26-.06a2.17,2.17,0,0,0-1,1.13,2.24,2.24,0,0,1-.49.64,5.38,5.38,0,0,1-.48.5c-.35.31-.3.74-.34,1.14,0,0,.06.1.11.19l.24-.28.2.42c-.08.22-.13.45-.43.46,0,0-.1.08-.14.13L78.6,65.53a1.35,1.35,0,0,1-.52.49,2.17,2.17,0,0,0-.47.44l.33.15s0,.09,0,.1a1.16,1.16,0,0,1-.37.16,1.22,1.22,0,0,0-.87.43c-.13.16-.31.27-.44.43a2.59,2.59,0,0,0-.24.44.72.72,0,0,0,.47.27c.1,0,.18.12.27.22-.38.08-.49.38-.64.64a11,11,0,0,1-.62,1A11,11,0,0,0,75.93,69c-.44-.1-.54-.06-.74.25a3.65,3.65,0,0,1-1.13,1.24,3.86,3.86,0,0,0-.5.4.17.17,0,0,0-.06.1c-.08.56-.56.86-.84,1.29a26.11,26.11,0,0,0-2.42,4,4.12,4.12,0,0,1-.39.62l-.92,1.37a.37.37,0,0,0-.05.1,5.59,5.59,0,0,1-.8,1.35,7.54,7.54,0,0,0-.57,1.09c-.38.93-.94,1.77-1.4,2.65a3.28,3.28,0,0,1-.48.6c-.25.29-.52.57-.8.88l-.08-.16-.83.7-.47-.34-.24.29L63,85.37c.26-.4.22-.47-.42-.72l.29-.08a.5.5,0,0,0-.42-.36A6.71,6.71,0,0,1,62.84,83a1.63,1.63,0,0,0-.08-1.33c0-.09,0-.17-.06-.28a1.07,1.07,0,0,0-.28,0,1.59,1.59,0,0,0-.31.19c0-.15.05-.26.09-.27.2-.07.25-.23.31-.41a.58.58,0,0,1,.16-.21c.2-.19.41-.36.33-.68,0,0,0-.12.07-.17l.39-.92s0-.09,0-.11c-.17-.24,0-.44.08-.66a1.11,1.11,0,0,1,.26-.5,2.42,2.42,0,0,0,.51-.85c0-.09.14-.15.17-.24.32-.77.9-1.4,1.23-2.17,0-.05.05-.14,0-.18-.15-.2,0-.33.13-.5l-.31-.49.14-.13a1.62,1.62,0,0,0,.57-.63,6,6,0,0,1,.68-.88c.41-.6.81-1.21,1.19-1.84.52-.87,1-1.75,1.53-2.62s.91-1.61,1.38-2.41.81-1.3,1.22-2a1.18,1.18,0,0,0,.08-.13c.36-.79,1-1.41,1.35-2.18a.59.59,0,0,1,.12-.15,7.07,7.07,0,0,0,1.05-1.46,5.68,5.68,0,0,1,.42-.64c.41-.51.42-.52.19-1.11l.8-.7c0-.13-.32-.29-.08-.52l.43.11-.16-.31-.17-.28a.67.67,0,0,0,.47-.73.12.12,0,0,1,0-.08c.25-.31,0-.55-.16-.83.11,0,.19-.11.27-.1s.3-.07.3-.29a1.65,1.65,0,0,1,.08-.34l.31.23.08-.65c.07,0,.21,0,.25-.16a4.77,4.77,0,0,1,.27-.8.35.35,0,0,1,.31-.24,1.31,1.31,0,0,0,.35-.17l-.09-.31h.71l-.09-.46.75-.11c0-.3-.25-.5-.12-.85l.14.31a.67.67,0,0,1,.11-.14c.16-.12.36-.21.33-.47,0,0,0-.07.07-.08.27-.09.25-.29.16-.54.11,0,.22,0,.24.07s-.07.48-.29.62c0,.4.35,0,.47.21l.27.45.1,0c0-.09.06-.18,0-.26s-.16-.29-.19-.44a1.17,1.17,0,0,1,0-.49c0-.07.14-.12.25-.19l.14.5.6-.83,0,.42c.28-.09.11-.43.35-.52l.2.41-.2,0c.05.26-.12.24-.27.2a.28.28,0,0,0-.35.16c-.15.35-.14.36-.5.19l.19.45.85-.69c.1.44.14.47.42.45L83,49l.37,0c0-.11.14-.23,0-.43l-.16.27c-.2-.08-.2-.08-.25-.27l.28-.85a1.91,1.91,0,0,1,.56.29c.26.28.52.18.85.1L84,47.55a.88.88,0,0,1,.32,0,.2.2,0,0,0,.3-.14c.05-.17.12-.31.22-.35l.92.41.27-.54.32.09a.45.45,0,0,0,.07-.09c.07-.19.16-.32.42-.31s.82-.57.87-.88c.11,0,.23.21.33,0l.18-.35L88,45.2c.15-.13.3-.24.43-.37s.12-.15.25-.09.16-.06.2-.12a1.56,1.56,0,0,0,.13-.31h.26c-.06-.24.09-.36.27-.45a.29.29,0,0,1,.17,0c.25,0,.25.05.28-.24l-.46-.19c.07-.06.14-.14.16-.13s.19.08.27,0,0-.24-.09-.3-.22-.38-.28-.59c0-.05,0-.12,0-.18l.24.11.71-.48,0-.08-.39,0c0-.2.32-.23.16-.46-.14.07-.27.15-.41.21C89.65,41.66,89.58,41.83,89.7,42.19Zm4.24-3.71.17.51c.07-.39.33-.48.53-.64a1.09,1.09,0,0,0,.27-.27,2.18,2.18,0,0,0,.15-.42l-.45.13c0,.32-.14.41-.38.27s-.2,0-.28.06.27.25,0,.37l-.11-.27c-.17.08-.27.36-.46.1,0,0-.06,0-.07,0-.17.15-.37,0-.55.07a1.88,1.88,0,0,0-.32.15l.44.12-.22.38a2,2,0,0,1,.27-.11,1.18,1.18,0,0,1,.21,0c0,.49-.1.56-.53.46-.17,0-.23,0-.26.17l.54.12v.1l-.44.05c-.08.17-.17.36-.27.54s-.12.15-.15.14c-.26-.1-.3.21-.48.25l.8.31a1,1,0,0,1,.41-.84s.05-.09.06-.14a.41.41,0,0,1,.21-.29,1.64,1.64,0,0,0,.51-.45A.52.52,0,0,1,93.9,39C93.61,38.66,93.61,38.63,93.94,38.48Zm-28.2,45c.16-.22.33-.43.47-.67.28-.47.54-1,.81-1.44.1-.18,0-.33-.21-.41.36-.31.39-.83.83-.92l.61-1-.58-.09.25.25c-.38.17-.58.32-.6.57a1,1,0,0,1-.21.44l-.16-.11a1.51,1.51,0,0,1,0,.44,1.91,1.91,0,0,1-.24.38.52.52,0,0,0-.07.14c-.06.22-.16.41-.41.43l0,.58.64-.88a1.7,1.7,0,0,1-.32.79,3.21,3.21,0,0,0-.31.44l-.31.48A.6.6,0,0,0,65.74,83.45Zm19.4-33.19c0-.15,0-.31.22-.31a.34.34,0,0,0,.32-.28,1,1,0,0,1,.18-.48.25.25,0,0,0,0-.23.9.9,0,0,0-.43,0c-.09,0-.18.14-.25.22s-.22.45-.56.44a.26.26,0,0,0-.19.38.63.63,0,0,1,0,.28l.44.18ZM77.56,65.75c.27.2.36.2.53,0a2.4,2.4,0,0,0,.24-.34l.28-.48-.16-.21A4.25,4.25,0,0,0,77.56,65.75ZM63.09,83.63l.3.35c.21-.29.21-.29,0-.44v-.38l.49-.17.08.45.24-.15L64,82.92H63l.19.51Z"/><path d="M51.93,17.53l.56-.2a2.81,2.81,0,0,0-.16.38,2.66,2.66,0,0,0,0,.39c.24-.22.47-.43.69-.65.06-.06.06-.16.09-.24s.06-.26.3-.24a1.22,1.22,0,0,1-.09.35,3.1,3.1,0,0,1-.83,1,.59.59,0,0,0-.17.2,5.33,5.33,0,0,1-.29.53c-.42.55-.85,1.09-1.28,1.64-.05.07-.07.16-.12.23a2.59,2.59,0,0,1-.21.25,5.6,5.6,0,0,0-.45.5c-.19.26-.32.55-.51.8-.44.58-.92,1.14-1.36,1.72a5.82,5.82,0,0,0-.45.72,17.54,17.54,0,0,1-1.54,2.16c-.68.87-1.33,1.76-2,2.64l-1.22,1.63s-.06.06-.07.09a3,3,0,0,1-.86,1.21.29.29,0,0,0-.09.13,4.71,4.71,0,0,1-1,1.71,22.32,22.32,0,0,0-1.5,1.95c-.29.47-.56,1-.89,1.4s-.6.9-.9,1.33a3.7,3.7,0,0,0-.49.76S37,40,37,40c-.33.16-.36.51-.55.77a.47.47,0,0,0,0,.63.18.18,0,0,1,0,.14,3.07,3.07,0,0,1-.36.84,2.94,2.94,0,0,0-.39.59,4.11,4.11,0,0,0-.32.81l.28-.2c0,.09.12.18.11.26s-.09.28-.17.3c-.25.06-.35.24-.48.41.1.07.22.12.27.2s-.08.18-.16.23-.22.39-.33.58a1.25,1.25,0,0,1-.5.47.34.34,0,0,1-.48-.09,3.07,3.07,0,0,1-.22-.36,3.25,3.25,0,0,1-.22-.44,4.46,4.46,0,0,1-.12-.5c-.22-.06-.33.1-.42.27s-.07.26-.25.26-.22-.15-.29-.27a1.23,1.23,0,0,0-.29-.39,3.47,3.47,0,0,1-.72-.8,3.63,3.63,0,0,0-.59-.59.56.56,0,0,1-.24-.54c0-.26,0-.52.08-.78,0-.09.06-.23.13-.26.34-.14.4-.49.57-.74a1.13,1.13,0,0,0,.14-.55c0-.19,0-.35.21-.46s.27-.21.2-.41a.13.13,0,0,1,0-.11c.31-.35.31-.88.73-1.18a1.58,1.58,0,0,0,.43-.67,3.5,3.5,0,0,1,.8-1.34,1.59,1.59,0,0,0,.34-.55c.17-.38.16-.38.71-.66-.1-.06-.22-.1-.23-.16s.06-.16.1-.23l1.52-2.27A1.12,1.12,0,0,1,36.4,32c.4-.36.8-.72,1.22-1.05a3.52,3.52,0,0,0,.91-.92c.13-.21.28-.4.43-.59.27-.37.52-.76.81-1.11a5.25,5.25,0,0,1,1.39-1.51,2,2,0,0,0,.49-.49c.2-.24.41-.48.63-.72.43-.46.79-1,1.18-1.49a2.46,2.46,0,0,1,.36-.4c.29-.23.59-.44.88-.67a.91.91,0,0,0,.13-.18l-.35-.13V22.7a1.1,1.1,0,0,1,.38,0A1.16,1.16,0,0,0,46,22.36l.83-.66a.9.9,0,0,0,.16-.16,10.13,10.13,0,0,0,.65-.9c.21-.37.6-.55.87-.84.08-.08.17-.16.24-.25a.79.79,0,0,1,.74-.39.39.39,0,0,0,.26-.13c.32-.32.62-.65.93-1,.15-.15.31-.29.47-.43h0c.08.18.26.11.39.15l.18.57.14-.37h0v-.12h0l.08-.28Z"/><path d="M33.5,19.21l-.64.8a2.34,2.34,0,0,0-.31.42.62.62,0,0,1-.34.39.25.25,0,0,0-.1.06.72.72,0,0,1-.65.22.85.85,0,0,1-.64-.29s-.07,0-.1-.05a2,2,0,0,1-1.15.38l-.06.36a1.59,1.59,0,0,1-.94-.53l-.45.28a2.76,2.76,0,0,1-.06.41c-.08.26-.21.31-.47.22-.1,0-.19-.09-.29-.11s-.2-.07-.26,0c-.28.18-.63.21-.87.49a.28.28,0,0,1-.51-.1.72.72,0,0,1,0-.67,1.32,1.32,0,0,0,.16-.87,1.54,1.54,0,0,1,.36-1.15,3.43,3.43,0,0,0,.36-.54c.13-.24.11-.28-.14-.42a.67.67,0,0,1-.11-.09s0,0,0,0c.2-.16.41-.3.59-.47a.84.84,0,0,0,.28-.86.63.63,0,0,1,.07-.4,4.66,4.66,0,0,1,.52-.89c.34-.41.62-.88.93-1.32A4.6,4.6,0,0,1,29,14a.77.77,0,0,0,.28-.76,1.18,1.18,0,0,0,.7-.53c0-.06.12-.13.13-.19,0-.47.38-.74.6-1.1a5.88,5.88,0,0,1,.66-1c.4-.43.66-.94,1-1.39s.57-.72.85-1.08c.1-.13.1-.13.52-.17l-.13-.11-.08-.11L34,7c.36-.48.71-1,1.08-1.45s.8-1,1.2-1.44A.36.36,0,0,1,36.71,4a3.5,3.5,0,0,1,.35.23,5,5,0,0,1,.55-.52,4.78,4.78,0,0,1,.68-.34c.08,0,.21,0,.23-.1.17-.39.57-.52.83-.8A2.66,2.66,0,0,0,39.67,2c0-.07.07-.16.12-.19a2.84,2.84,0,0,0,1-1A1,1,0,0,1,41,.58a.62.62,0,0,0,.18-.12A.76.76,0,0,1,42.32.11,1.11,1.11,0,0,1,43,.63a.56.56,0,0,1,0,.55,3.53,3.53,0,0,1-.69.93,6.72,6.72,0,0,0-.8.85c-.17.2-.26.47-.43.67a1.47,1.47,0,0,0-.28,1,1.17,1.17,0,0,1-.27.82,5.15,5.15,0,0,1-.89,1.05.19.19,0,0,0-.08.09,1.42,1.42,0,0,1-.68.75.61.61,0,0,0-.16.25,2.78,2.78,0,0,1-.26.55,4.24,4.24,0,0,0-.58,1.08,4,4,0,0,0-.43,1.38.28.28,0,0,1-.05.14,6.13,6.13,0,0,0-.66,1.84,4.65,4.65,0,0,1-.45.88c-.15.26-.32.49-.48.74a.56.56,0,0,0-.1.2,4.27,4.27,0,0,1-1,2.1c-.39.48-.89.83-1.27,1.31s-.42.77,0,1.2Z"/><path d="M39.83,48.42c0-.24.09-.42,0-.63s.06-.28.1-.43S40,47.1,40,47c-.21-.48,0-.88.21-1.28a8,8,0,0,1,.45-.8c0-.05.06-.14,0-.17-.14-.21,0-.31.14-.42A2.76,2.76,0,0,0,41.59,43a3.29,3.29,0,0,1,.27-.54c.1-.21.18-.42.27-.63a1,1,0,0,1,.34-.54s.08-.05.08-.08c0-.35.36-.49.51-.75s.33-.55.5-.82c.41-.63.85-1.25,1.23-1.9a4.58,4.58,0,0,1,.81-1.21.27.27,0,0,0,.06-.1,11,11,0,0,1,1.39-2.11A1,1,0,0,0,47.2,34c.14-.49.39-.64.87-.5.26-.14,0-.32,0-.45s.47-.12.39-.47l-.38,0c.09-.41.15-.48.48-.63l-.18.45c.14.1.28.07.28-.08s.18-.49,0-.74a.22.22,0,0,1,0-.18c.1-.19.22-.37.33-.56a6.85,6.85,0,0,0,.39-.69,2.07,2.07,0,0,1,.79-1,1.8,1.8,0,0,0,.36-.28.67.67,0,0,0,.17-.32c.06-.34.07-.37.4-.36.1,0,.2,0,.39,0a3.14,3.14,0,0,0-.27.27.31.31,0,0,0-.07.2s.09.09.14.1a.68.68,0,0,0,.75-.34,6.17,6.17,0,0,0,.28-.55,2.08,2.08,0,0,0,.09-.34l-.08,0-.19.27c-.07-.31.2-.4.36-.57l-.18-.3.26-.85a.29.29,0,0,1,.47-.14c.12.09.23.18.38.12a1.2,1.2,0,0,0,.44-.21,1.26,1.26,0,0,1,.7-.37c.29-.05.43-.31.58-.52.29-.4.54-.83.81-1.25a.66.66,0,0,1,.2-.23,1.45,1.45,0,0,0,.56-.81A.89.89,0,0,1,58,22.2a1.09,1.09,0,0,0,.28.13.92.92,0,0,1,.56.4l-.15.49L58,23.17l.31-.43-.43.06c-.19-.52-.25-.53-.73-.22,0,0-.08,0-.1.06a1.16,1.16,0,0,0-.09.27.23.23,0,0,0,.16.06c.11,0,.23-.08.14-.24,0,0,0,0,0,0a1.43,1.43,0,0,1,.39.17.52.52,0,0,1,.11.31,3.26,3.26,0,0,1,0,.43l.91-.2c.13.09.15.21,0,.34a1.36,1.36,0,0,0-.37.7c-.05.2-.09.41-.32.49,0,0-.09.07-.09.11,0,.2-.13.29-.24.41a9.22,9.22,0,0,0-.72.9,3.89,3.89,0,0,0-.37.79,2.87,2.87,0,0,1-.71,1.08,5.38,5.38,0,0,0-.6.89l-.79,1.14,0,0c-.42.16-.43.57-.56.91s-.23.63-.36.93a5,5,0,0,1-.29.45l-.86,1.5c-.06.11-.11.23-.17.34a.44.44,0,0,0,0,.43,1.44,1.44,0,0,1,0,.43l.39,0a2.65,2.65,0,0,0-1,.95l.4.13c-.08.1-.14.24-.21.25a1.34,1.34,0,0,0-1.11.91s0,0-.07.05l-.2-.07a4,4,0,0,1-.31.35,6,6,0,0,0-1.19,1.34c-.24.39-.6.7-.87,1.07s-.45.68-.68,1c0,.06-.07.14-.12.2-.57.79-1.15,1.57-1.72,2.36-.26.36-.49.74-.75,1.1s-.75,1-1.12,1.47c-.12.15-.22.32-.34.46a2.38,2.38,0,0,1-.78.72,1.18,1.18,0,0,0-.42.48c-.24.4-.32.44-.8.3a.28.28,0,0,0-.23.07c-.21.22-.4.45-.61.67s-.21.09-.28,0a.46.46,0,0,1-.06-.18A.44.44,0,0,0,39.83,48.42Z"/><path d="M2.52,25,2.2,25c-.2,0-.39-.08-.43-.31s0-.35.16-.44a.54.54,0,0,1,.62,0c.11.09.21.19.31.28a1,1,0,0,0,.35-1.12l1.2-1.7-.33-.21c.24-.18.34-.47.69-.48a.57.57,0,0,0,.34-.22,5.8,5.8,0,0,0,.4-.57c.29-.44.57-.89.87-1.32.15-.21.19-.39,0-.52L7,17.52c.14-.18.27-.38.41-.56s.2-.24.11-.55c.26.06.4-.11.53-.28L8.9,15a4.9,4.9,0,0,0,.79-1.13.39.39,0,0,1,.46-.27l0,.32.19-.13.19.31,1-.42a.6.6,0,0,0,.37-.53c0-.1,0-.2.05-.3a4.71,4.71,0,0,0,1.5-1.51,11.5,11.5,0,0,1,.85-1.12.4.4,0,0,1,.27-.11A.47.47,0,0,0,15,9.81s.07-.08.09-.13a.49.49,0,0,1,.62-.31,1.12,1.12,0,0,0,.78-.13.74.74,0,0,1,.32-.1.29.29,0,0,0,.34-.31c.39-.07.73-.1,1,.27-.13.25-.24.5-.38.73a1,1,0,0,1-.35.39.66.66,0,0,0-.4.47,7.07,7.07,0,0,0-.35,1.08c0,.23-.25.45-.4.67a4.43,4.43,0,0,0-.25.37,1.93,1.93,0,0,1-.68.88.74.74,0,0,0-.22,1,.85.85,0,0,1-.16.91,3.53,3.53,0,0,1-.64.74,2,2,0,0,0-.55.69,1.37,1.37,0,0,1-.61.61,1.59,1.59,0,0,0-.71,1,2,2,0,0,1-.51.8c-.12.11-.2.27-.31.39s-.25.42-.57.36c-.08,0-.2.13-.28.22a.25.25,0,0,0,0,.18,3.32,3.32,0,0,1-.31,1.21,1.14,1.14,0,0,1-.35.49c-.43.4-.88.78-1.33,1.17.27.55,0,1-.27,1.41a.86.86,0,0,1-.32.27,19.82,19.82,0,0,0-2.09,1.5,2.54,2.54,0,0,0-.3.35L4,28.93a1.16,1.16,0,0,1-1.59,0,.43.43,0,0,0-.28-.16c-.49,0-.57-.36-.73-.66a.73.73,0,0,1,0-.67c.12-.25.22-.52.35-.77s.4-.68.61-1A.77.77,0,0,0,2.52,25ZM14.1,12.59l.07-.32.52.36s.08,0,.08,0c0-.29.17-.31.39-.34s.14-.16,0-.34a2.33,2.33,0,0,1-1.06.12c-.1,0-.23.07-.35.12.15.22.15.31,0,.33s-.29.18-.21.39c-.16-.08-.1-.41-.39-.34l-.17.62-.62.27c.38,0,.7.17.82-.21a3.23,3.23,0,0,1,.45-.07c.14,0,.27.06.41,0A.28.28,0,0,0,14.2,13a.67.67,0,0,0,0-.25l.23,0-.07-.29ZM9.84,14.74c-.19.09-.26.32-.47.39,0,0-.05.11-.05.17a.44.44,0,0,1-.36.42.76.76,0,0,0-.18.13c.27.24.31.23.52,0a4.73,4.73,0,0,1,.44-.35l0-.16c.27,0,.5.25.72,0,0-.16,0-.35-.12-.44s-.29-.11-.44-.17Zm2.64-1c-.1,0-.24.15-.42,0s-.26.07-.34.1l.19.68c.05-.09.08-.19.13-.21a.81.81,0,0,1,.28,0l.19-.27a.41.41,0,0,0,.15,0,1.25,1.25,0,0,0,.22-.07l-.18-.14Z"/><path d="M52.6,6.66c-.35,0-.34,0-.4.37,0,.09-.14.23-.21.23s-.24-.06-.31.1-.1.32,0,.43h.73s0,0,.05-.06c.07-.45.06-.45.49-.55a.7.7,0,0,0,.46-.67c0-.36.26-.51.51-.66.08,0,.23,0,.38.08a.82.82,0,0,0,0-.2c0-.14,0-.25.17-.28a.16.16,0,0,0,.14-.21L53.91,5c0,.26-.23.33-.38.47s-.11,0-.18,0l.53-.73a1,1,0,0,1,.2,0l.56.24a.42.42,0,0,1,.22.67,4.22,4.22,0,0,1-1,.95,1.66,1.66,0,0,0-.26.3,1.37,1.37,0,0,1-.58.6.52.52,0,0,0-.19.26c-.31.66-.58,1.34-.93,2a2.67,2.67,0,0,1-.65.64c-.23.2-.5.36-.71.58-.38.41-.75.83-1.09,1.27a1.55,1.55,0,0,0-.23.52,2.29,2.29,0,0,1-.47,1,.51.51,0,0,0-.12.28,1.31,1.31,0,0,1-.58.83,2.84,2.84,0,0,0-.3.3c-.24.27-.46.55-.71.81A6,6,0,0,0,46,17.64a6.15,6.15,0,0,1-.82,1.16c-.18.23-.39.44-.6.65l-.92,1a1.19,1.19,0,0,0-.18.19,4,4,0,0,1-.88,1.07,1.08,1.08,0,0,0-.22.31,2.5,2.5,0,0,1-.5.68,6.22,6.22,0,0,0-.43.58c-.16.18-.35.34-.52.52-.46.5-.94,1-1.35,1.52a3.18,3.18,0,0,1-.7.7,1.79,1.79,0,0,0-.31.33c-.08.1-.16.2-.23.31-.21.29-.43.57-.62.87a.68.68,0,0,1-.58.39,1,1,0,0,0-.53.2c-.2.13-.42.23-.63.35-.21-.12-.47-.13-.48-.45s-.24-.38-.1-.64a1.92,1.92,0,0,0,.1-.52.81.81,0,0,1,.25-.46.52.52,0,0,0,.08-.82v-.08c0-.23.4-.17.39-.48a.61.61,0,0,1,.37-.49s0,0,0,0c0-.44.42-.66.44-1.08a1,1,0,0,1,.21-.41c.49-.76,1-1.52,1.49-2.28a2.55,2.55,0,0,1,.32-.31,7.28,7.28,0,0,0,1.07-1.67,9.26,9.26,0,0,1,1.3-1.89,9.21,9.21,0,0,0,.52-.76c.27-.36.56-.7.83-1.06s.61-.82.93-1.23c.1-.13.25-.22.35-.35s.3-.45.47-.66a5.81,5.81,0,0,1,.5-.58.32.32,0,0,1,.27-.07c.13,0,.08.16,0,.26s0,0,0,.09a.76.76,0,0,0,.17-.12c.49-.59,1-1.2,1.46-1.79.37-.43.77-.82,1.14-1.25s.5-.68.77-1c.21.08.49.07.65.33a.44.44,0,0,0,.38-.28.63.63,0,0,1,.49-.4s.11,0,.13-.06c.12-.29.38-.32.64-.42S52,7,52.05,6.5a.4.4,0,0,1,.27-.28.94.94,0,0,0,.76-.51.56.56,0,0,1,.12-.1c.24.25.23.26,0,.48l.06.5-.36.1-.08-.41C52.52,6.34,52.73,6.54,52.6,6.66Z"/><path d="M21.07,9.39l-.3-.34a3.43,3.43,0,0,0,1.58-1.26,1,1,0,0,1-.08-.22c0-.23.12-.37.35-.31A.3.3,0,0,0,23,7.14c.13-.17.23-.37.36-.53s.45-.55.69-.82a4.65,4.65,0,0,0,.6-.64,6.55,6.55,0,0,1,.8-.92.49.49,0,0,1,.68-.15A.57.57,0,0,0,26.7,4l0-.44a.45.45,0,0,0,.56-.34c0-.05.08-.1.13-.13a.42.42,0,0,0,.23-.5,3.12,3.12,0,0,1,.29-.2,1.52,1.52,0,0,1,.41-.18.88.88,0,0,0,.56-.3.62.62,0,0,1,.67-.25c.46.1.94.11,1.4.18a.56.56,0,0,1,.54.71c0,.13,0,.26,0,.41a1,1,0,0,0-.55.63.25.25,0,0,1-.16.15c-.51.12-.61.6-.92.94-.08,0-.25,0-.34.08s-.1.25-.15.38,0,.06,0,.07c-.28.28.06.19.2.28l-.44.4s-.07.06-.07.08a1.5,1.5,0,0,1-.35.71,1.08,1.08,0,0,0,0,.4c-.09,0-.22,0-.32.14a13,13,0,0,1-.78,1.1,2.59,2.59,0,0,1-.22.21L27,8.87a5.59,5.59,0,0,0-1,1.38c-.11.23-.35.38-.4.68,0,.14-.09.26.14.36l-.11.06-.34-.06c-.11.17-.23.36-.37.55a2.93,2.93,0,0,1-.33.37c-.19.18-.41.35-.59.53a2.32,2.32,0,0,0-.54.68c0,.11-.25.16-.39.25-.28.73-.28.78.24,1l-.07.27a.51.51,0,0,1-.13,0,.74.74,0,0,0-.88.44,4.6,4.6,0,0,1-.31.47.48.48,0,0,0-.1.24.61.61,0,0,1-.36.57l-.77.5a1.57,1.57,0,0,0-.26.17c-.35.34-.69.68-1,1s-.83.95-1.23,1.43a.51.51,0,0,1-.5.22,1.12,1.12,0,0,1-.9-.51.71.71,0,0,0-.22-.21A1.32,1.32,0,0,1,15.9,18a3.17,3.17,0,0,0,0-.56l-.39,0c.12-.2.22-.37.48-.3,0,0,.14-.06.18-.12a3.17,3.17,0,0,0,.56-.86,3,3,0,0,0,.17-.73c0-.08,0-.21.1-.22.35-.09.4-.4.54-.65s.24-.45.37-.67.23-.37.35-.55.19-.23.29-.35.11-.09.13-.14c.15-.51.58-.83.83-1.27a9.45,9.45,0,0,0,.75-1.35.37.37,0,0,1,.09-.12Z"/><path d="M99.56,79.17l.44-.67c.12-.18.17-.35,0-.47l1.24-1.48a.39.39,0,0,0,.06-.13,1.13,1.13,0,0,1,.48-.74v.23a18.6,18.6,0,0,0,3.6-4.2c0-.08-.24-.2-.06-.39.05,0,.13,0,.17,0,.24.21.45.12.65-.05a2.63,2.63,0,0,0,.24-.25,1.38,1.38,0,0,1,.74-.57.3.3,0,0,0,.14-.12l.84-1.08a.36.36,0,0,1-.1.44c-.27.29-.53.59-.79.89-.08.1-.15.21.06.28s.07.16,0,.2a.67.67,0,0,1-.25,0c0,.14,0,.31-.19.35s-.12.11-.17.17l-.22.27c0,.13.24.25.12.42l.54.38c-.26.2-.49.37-.71.55a.54.54,0,0,1-.52.14c-.23-.05-.32.08-.4.44a2,2,0,0,0,.18-.16,1.46,1.46,0,0,0,.12-.18.68.68,0,0,0,.85.17l-.19.4.07,0c.07-.08.19-.15.21-.25a1.57,1.57,0,0,1,.6-.76.33.33,0,0,0,.12-.46l.4,0a3.43,3.43,0,0,1-.18.37,6.65,6.65,0,0,1-.44.62c-.12.14-.29.25-.41.39s-.29.41-.44.62-.12.09-.17.14c-.2.22-.39.44-.57.67a.3.3,0,0,0,0,.18,1.15,1.15,0,0,0,0,.15,4.81,4.81,0,0,1,.11.64c0,.26-.31.28-.4.48s-.15.18-.2.28a7.66,7.66,0,0,1-1.28,1.69c-.17.19-.32.41-.47.61s-.08.17-.15.22a1.69,1.69,0,0,0-.46.73,4.51,4.51,0,0,1-.57.76c-.12.17-.23.35-.38.58-.42.13-.54.58-.73,1a.15.15,0,0,0,0,.08c0,.11.07.26,0,.31a1.27,1.27,0,0,1-.45.33.82.82,0,0,0-.37.25c-.38.47-.77.93-1.16,1.39a.44.44,0,0,1-.15.11,2,2,0,0,0-1.1,1.35.39.39,0,0,1-.1.19,7.52,7.52,0,0,1-.61.47c-.31.21-.63.4-.94.6s-.5.21-.74-.18a2.29,2.29,0,0,1-.1-.22l.27.16a.38.38,0,0,0-.05-.48.5.5,0,0,1,0-.67c.18-.31.35-.64.52-1,0-.05.07-.12.06-.16-.11-.25,0-.44.13-.65a11,11,0,0,1,.44-1.06,3.32,3.32,0,0,1,.9-1.26,1,1,0,0,0,.42-.62.89.89,0,0,1,.24-.42,3.55,3.55,0,0,0,.7-1,2.71,2.71,0,0,1,.53-.61l.37-.36a1.7,1.7,0,0,0-.25-.05,1.63,1.63,0,0,1-.41,0c-.09,0-.16-.14-.21-.23s.08-.16.12-.16a.59.59,0,0,1,.26.1S99.52,79.12,99.56,79.17Zm5.09-3.12c-.31.52-.31.52-.56.41-.36.44-.36.44-.09.9a.23.23,0,0,1,.29-.22.77.77,0,0,0,.27-.07s.11,0,.12,0,.19,0,.25-.08.05-.12.09-.13c.26-.06.21-.29.26-.47-.08,0-.12.11-.19.15s-.2.14-.25.11-.22-.12-.15-.29S104.67,76.15,104.65,76.05Zm1.48-3.74-.88,1c.31,0,.4,0,1.19-.47Z"/><path d="M110.06,82.49c.1,0,.15-.05.18,0,.56.24.89-.13,1.22-.48a.36.36,0,0,0,.09-.24.65.65,0,0,1,.27-.52c.36-.35.71-.7,1.05-1.06s.35-.32.67-.2.3.19.26.44a3.28,3.28,0,0,1-.86,1.64,4.17,4.17,0,0,0-.61.83c-.06.11.06.32.12.55l-.65,1s-.08.09-.08.13c0,.38-.27.57-.52.76a.44.44,0,0,0-.2.42.26.26,0,0,1-.16.32,1.94,1.94,0,0,0-1,1.26,6.27,6.27,0,0,1-.3.58c-.11.2-.23.39-.35.59l-.13.18-.63.91-.55.77a.91.91,0,0,0-.16.29,3.61,3.61,0,0,1-.6,1.32c-.46.65-.83,1.35-1.24,2a11,11,0,0,1-.61,1.07c-.3.4-.67.75-1,1.12l-.41.46c-.07.07-.14.18-.22.19-.25,0-.34.21-.45.38l-.92,1.47A.92.92,0,0,1,102,99c-.29.21-.58.07-.66-.28a1.3,1.3,0,0,1,.12-.93c.15-.29.27-.59.43-.86a.43.43,0,0,0-.07-.56l.4-.6a.7.7,0,0,0,.11-.2,9.9,9.9,0,0,1,1-2.29c.08-.16.14-.33.21-.49a2.05,2.05,0,0,1,.12-.24c.31-.51.64-1,.94-1.54.15-.26.27-.55.41-.84l-.14-.11a9.35,9.35,0,0,0,1-1.58,8,8,0,0,1,1.17-1.77.3.3,0,0,0,0-.39c-.06-.08-.1-.18-.14-.26a7.26,7.26,0,0,1,1.35-1.31,4.73,4.73,0,0,0,.63-.68c.07-.07.16-.17.24-.17.29,0,.43-.19.6-.37l.12-.15C110.08,83.09,110.28,82.86,110.06,82.49Z"/><path d="M129.89,96.19a.41.41,0,0,1-.19.48.52.52,0,0,0-.26.4,1.58,1.58,0,0,1-.36.75,2.89,2.89,0,0,0-.46,1.14l.07,0a.79.79,0,0,1,.2-.13c.07,0,.19,0,.23,0a.25.25,0,0,1,0,.23.27.27,0,0,1-.21.1.86.86,0,0,1-.26-.1,1.11,1.11,0,0,0-.08.9,1.78,1.78,0,0,1-.19,1.62.84.84,0,0,0-.09.33,1.29,1.29,0,0,1-.33.76.81.81,0,0,0-.14.31,5.86,5.86,0,0,0-.28.83c-.07.37,0,.39.33.52l.17.09a1.17,1.17,0,0,0-.49.68c-.07.25-.21.29-.48.26a.57.57,0,0,0-.31.05,1.37,1.37,0,0,1-1.32-.08.5.5,0,0,1-.21-.51c0-.19.08-.38.11-.57a1.42,1.42,0,0,0,0-.8.47.47,0,0,1,.12-.6.83.83,0,0,1-.25-.69l.19.24.16-.56c-.18-.2-.18-.2-.43.12-.12-.21.09-.42,0-.66a3,3,0,0,1-.13-.89,4.82,4.82,0,0,1,0-.84c0-.1.11-.19.18-.32a2.12,2.12,0,0,1,.08-1.65c0-.14.09-.27.13-.4a1,1,0,0,1,.73-.69,2.23,2.23,0,0,0-.31-.51.76.76,0,0,1-.2-.71c0-.23.05-.46.06-.69a1.27,1.27,0,0,0-.09-.32l-.08-.3c.39.12.49-.13.63-.37a7,7,0,0,0,.44-1.14.53.53,0,0,0-.08-.6l.17-.47c-.1-.12-.32-.13-.26-.34s.22-.24.56-.23l-.25-.19a3.48,3.48,0,0,0,.2-.44c.1-.32.17-.34.49-.11l-.21.1a.36.36,0,0,0-.15.55c.1.22.08.29-.19.41l.32.16v.25c.19.2.45.13.65-.19l.25.09-.19-.47c.32-.17.67.17,1-.22l.07.4.65.2-.21-.48c.08-.2.4-.12.39-.38a.75.75,0,0,0-.06-.18c-.25.08-.38.38-.66.29a1,1,0,0,1-.34-.17c-.14-.12-.06-.25,0-.39.09.09.16.2.27.24a.5.5,0,0,0,.33-.08.49.49,0,0,1-.42-.56c0-.34,0-.34-.34-.33,0-.27.28-.16.43-.24l0-.19.38-.33c0,.46-.35.85-.19,1.32.33-.1.65.2,1,0,0,.15,0,.24-.06.29a.77.77,0,0,0-.18.74,6,6,0,0,1,0,1.27c0,.12-.11.23-.18.34a9.62,9.62,0,0,0-.54,1,7.94,7.94,0,0,0-.32,1.1.29.29,0,0,0,.14.36.51.51,0,0,1,.18.27c.08.23.14.47.21.7S129.65,96.25,129.89,96.19Z"/><path d="M112.72,113.31l-.4.47s0,.1-.08.13a3.79,3.79,0,0,0-.77,1.65c-.15.41-.4.5-.77.26s-.46-.3-.27-.77a2.18,2.18,0,0,0,.12-1.4,1.14,1.14,0,0,1,.09-.75,1.69,1.69,0,0,0,0-1.42.6.6,0,0,1,0-.59,1.22,1.22,0,0,0,.18-.77.32.32,0,0,1,.08-.2.23.23,0,0,0,0-.32c-.12-.14-.07-.28,0-.43a2.69,2.69,0,0,1,.42-1,1.55,1.55,0,0,0,.14-.5c0-.11.07-.22.12-.39-.29-.39.21-.68.27-1.07-.12,0-.21.21-.34,0,0,0,0-.12.09-.14a1.29,1.29,0,0,0,.56-.51,1.33,1.33,0,0,0,.38-1,3,3,0,0,1,0-1.21,3.45,3.45,0,0,1,.29-.89,2.4,2.4,0,0,0,.21-.58c.06-.21.09-.43.33-.53.05,0,.09-.09.11-.15.13-.28.26-.55.36-.83a.57.57,0,0,0,0-.36.54.54,0,0,1,.1-.53,3.68,3.68,0,0,0,.56-1.32,3.69,3.69,0,0,1,.19-.58,2.28,2.28,0,0,1,.4-.12c.33,0,.46-.18.43-.53a.35.35,0,0,1,.35-.39.73.73,0,0,0-.11.17.17.17,0,0,0,0,.13.12.12,0,0,0,.1,0,.3.3,0,0,0,.17-.41c.21,0,.42-.11.63-.14a.24.24,0,0,1,.29.24,4.77,4.77,0,0,1,0,.87,2.12,2.12,0,0,1-.22.52c-.19.4-.39.81-.58,1.21-.07.15,0,.27.15.32a.69.69,0,0,1,.28.12.25.25,0,0,1,0,.4c-.43.22-.44.61-.4,1a2.09,2.09,0,0,1-.08.59,2.7,2.7,0,0,1-.47,1,1.4,1.4,0,0,0-.13.39c-.06.19-.12.39-.17.59-.1.38-.19.77-.27,1.16a.46.46,0,0,0,.05.26.31.31,0,0,1,0,.39.21.21,0,0,0,0,.18,2.14,2.14,0,0,1-.14,1.24,3.71,3.71,0,0,1-.47,1,1.18,1.18,0,0,0-.17.92,3.35,3.35,0,0,1-.1,1.37c0,.08-.12.16-.2.21-.27.17-.51.34-.45.72a.57.57,0,0,1-.12.31c-.14.24-.31.47-.45.72a1.1,1.1,0,0,0-.11,1.07.38.38,0,0,1,0,.11.34.34,0,0,1,0,.08Z"/><path d="M123.57,91.66c-.09.23-.24.42-.16.68l.33-.3.08.05a7,7,0,0,0-.72,1.78l.88.27c-.08.11-.11.17-.16.22a.56.56,0,0,0-.12.5,2.11,2.11,0,0,1-.15,1.46c0,.06,0,.14-.09.16-.45.28-.46.78-.6,1.21a4.36,4.36,0,0,0-.24,1,7.12,7.12,0,0,0,0,1.15c0,.38.11.76.12,1.14a3.5,3.5,0,0,1-.16.75,6.08,6.08,0,0,0-.27,2.16,2.93,2.93,0,0,1-.07.75c0,.09-.09.17-.07.25a1.09,1.09,0,0,1-.29.88,2.41,2.41,0,0,0-.21.41,1.57,1.57,0,0,1-.32.55,1.14,1.14,0,0,0-.2.53c0,.11,0,.26,0,.34-.23.36,0,.6.2.84,0,0,0,0,0,.09a2.05,2.05,0,0,0-.39.26,2.65,2.65,0,0,0-.23.39c-.12.18-.27.18-.45,0-.37-.33-.43-.32-.6.16-.09.24-.16.49-.24.73a.55.55,0,0,1-.78.42l-.15,0a1.58,1.58,0,0,1-.16-.36,1,1,0,0,1,0-.52c.19-.49.45-.95.62-1.44a1.07,1.07,0,0,0-.22-1.08.58.58,0,0,1-.14-.22c0-.19,0-.26.26-.27,0-.21-.2-.2-.31-.29s-.21-.18-.34-.29l.45-2.06a.36.36,0,0,1,0-.14,5.44,5.44,0,0,0,.8-2,2.88,2.88,0,0,0,.08-1.22,1.11,1.11,0,0,1,.19-1c.12-.13,0-.27-.09-.36a.33.33,0,0,1-.08-.48l.15.14a.86.86,0,0,0,.09-.63,2.26,2.26,0,0,1,.25-1.37.31.31,0,0,1,.11-.15c.36-.17.43-.55.63-.85a3.29,3.29,0,0,1,.44-.45c.27-.46.18-1.09.51-1.61.18-.28.22-.64.42-.9a5.25,5.25,0,0,0,.44-.76A.84.84,0,0,1,123.57,91.66Zm-1.3,3c-.05-.29-.21-.42-.47-.37-.06,0-.15.08-.16.13,0,.33,0,.66,0,1a.47.47,0,0,0-.26.41l.21,0c.17,0,.32,0,.35-.23s.13-.13.22,0c.26,0,.49,0,.71-.06s.45.17.66.42c0-.14,0-.24,0-.26s-.08-.16,0-.23c.2-.27,0-.54,0-.82-.63.27-.63.27-.84.17l.11-.28Z"/><path d="M81.28,71.8c0-.11-.13-.21-.1-.26a.59.59,0,0,0-.16-.76,1.19,1.19,0,0,1-.14-.26c.16-.22.31-.44.48-.65a.28.28,0,0,0,0-.38,1.46,1.46,0,0,1-.12-.35c.24-.29.47-.56.7-.85a.58.58,0,0,0,.18-.6.33.33,0,0,1,.1-.26,1.36,1.36,0,0,0,.27-.45,5.14,5.14,0,0,1,.81-1.49.36.36,0,0,0,.09-.24c0-.45.27-.73.5-1L85,62.75c.19-.25.38-.48.59-.74l-.13-.31c.51-.62,1-1.2,1.48-1.8a20.8,20.8,0,0,1,1.33-1.69c.35-.35.47-.88.92-1.13l0,0c.13-.72.73-1.07,1.2-1.52.16-.16.3-.4.5-.46a2,2,0,0,0,.76-.62l0,0,.74-.87c0,.6.07.55-.41.74l.29.44-.56.91.39,0-.09.5.45.07a10.05,10.05,0,0,1-.49.88c-.32.46-.65.91-.94,1.4s-.56.73-.84,1.1a12,12,0,0,0-1.31,2.13.71.71,0,0,1-.18.29,4.46,4.46,0,0,0-1,1.23c-.31.44-.57.92-.85,1.38s-.45.77-.7,1.15a.84.84,0,0,1-.31.28,1.31,1.31,0,0,0-.49.48c-.33.5-.66,1-1,1.49a8.31,8.31,0,0,1-.69.77,4.29,4.29,0,0,0-.56.68c-.37.59-.76,1.16-1.18,1.71A5.17,5.17,0,0,1,81.28,71.8Z"/><path d="M111.66,91.36l.11.2a8.17,8.17,0,0,1-1,1.24,3.92,3.92,0,0,1-1.15.5.18.18,0,0,1-.16-.07,1.5,1.5,0,0,1-.12-.48c0-.09.1-.19.17-.28l.68-.88a1.37,1.37,0,0,0,.12-.27.5.5,0,0,1-.29-.52c0-.12-.14-.26-.22-.4a3.82,3.82,0,0,0,.86-1.41,4.49,4.49,0,0,1,.76-1.14,2.66,2.66,0,0,0,.7-1.29.56.56,0,0,1,.09-.2l.87-1.31.54-.79a.25.25,0,0,1,.11-.1c.32-.1.44-.37.58-.64a6.67,6.67,0,0,1,1.18-1.74A3.18,3.18,0,0,0,116,81c.2-.37.38-.76.58-1.13a8.71,8.71,0,0,1,.59-1,1.08,1.08,0,0,1,.51-.31.66.66,0,0,0,.42-.4c.06-.15.12-.37.37-.39l0,.24c.26.08.51.23.74-.07,0-.05.2,0,.3,0V78l-.23.08s0,.05,0,.06a.39.39,0,0,0,.57-.05,6.05,6.05,0,0,0,.44-.63.35.35,0,0,1-.07.42,7.39,7.39,0,0,0-.6.7.38.38,0,0,0,0,.5.67.67,0,0,1,0,.9,2.76,2.76,0,0,0-.17.35,2.75,2.75,0,0,1-.56.9,2.8,2.8,0,0,0-.43.59c-.26.4-.54.78-.77,1.2a3.85,3.85,0,0,0-.32.93,1.54,1.54,0,0,1-.32.65,5,5,0,0,0-.68.88,11,11,0,0,1-.74,1.11,9.43,9.43,0,0,1-1.36,1.91,1.43,1.43,0,0,0-.27.42A4.55,4.55,0,0,1,113.1,90c-.19.19-.35.41-.55.59S112,91.1,111.66,91.36Zm7.28-12-.17.38a.8.8,0,0,1-.51.52c-.14,0-.22.27-.37.48s-.34.27-.12.67l.3-.36,0,.42a1.44,1.44,0,0,0,.48-.18,2,2,0,0,0,.47-.63,1.87,1.87,0,0,1,.3-.48.52.52,0,0,0,.12-.42c-.08-.18.06-.31,0-.51Z"/><path d="M76.74,51l.88-.16.17.14.5-.08a2.76,2.76,0,0,1-.6.83c-.09.07-.21.14-.23.23a3.81,3.81,0,0,1-.54,1,1,1,0,0,0-.1.17c-.12.32-.12.32-.37.47,0,.46-.07.6-.45.51L74.6,55.94a1.16,1.16,0,0,1-.14.13.66.66,0,0,0-.23.79.51.51,0,0,1-.11.53c-.12.16-.22.35-.34.51s-.42.52-.62.78l-1.65,2.13a1,1,0,0,1-.26.27c-.21.12-.2.35-.3.52s-.28.25-.39.39,0,.22-.07.35c-.48,0-.88.1-1,.67-.69.11-.91.74-1.29,1.25a1.07,1.07,0,0,0-.22,0,1.45,1.45,0,0,0-.25.07,1.36,1.36,0,0,1-.12-.31c0-.15-.08-.34.15-.41.07,0,.24-.45.3-.53a.5.5,0,0,0,.06-.55l.39-.25a1.12,1.12,0,0,1-.09-1,.4.4,0,0,0-.06-.24c0-.06-.09-.09-.12-.15s-.21-.27-.19-.39.25-.11.39-.14c.34-.07.42-.27.24-.65l.75-.67c-.12-.19-.48,0-.44-.36l.49-.13.34-1.06.3-.11a1.08,1.08,0,0,0,.06-.16.55.55,0,0,1,.49-.43,1.24,1.24,0,0,0,.76-.31c-.07-.12-.16-.25-.22-.38s-.05-.25.15-.3a4.25,4.25,0,0,0,.59-.24l-.24-.32a4.38,4.38,0,0,0,.59-.36,4.77,4.77,0,0,0,.48-.54L72.69,54l.2-.15c-.13-.38-.51-.56-.71-.87l0,0a2.66,2.66,0,0,0,1.67-.44c.33-.14.64-.34,1-.48a1,1,0,0,0,.64-.93.64.64,0,0,1,.15-.29c.14-.19.17-.45.46-.53.07,0,.09-.24.13-.37L76,49.82c.08,0,.13-.1.18-.1s.24.13.2.37l.43.09c0,.11,0,.21.05.3s.06.19.07.24l-.28.25Z"/><path d="M89.5,67c.13-.52.13-.52-.36-.65l.52-.23v-.41l.38-.2-.38-.32a.69.69,0,0,1,.21,0,.51.51,0,0,0,.75-.3l.54.33.52-.22a.88.88,0,0,1,.13-.73c.17-.19.34-.4.67-.28l0-.37.58,0c-.44-.19-.43-.61-.57-1,.42-.31.26-.77.32-1.2,0,0,.14,0,.16,0,.17-.23.48-.31.6-.61.06-.15.29-.23.45-.34s.5-.1.54-.42l.09,0c.06,0,.15,0,.17,0,.22-.32.53-.61.47-1.05s-.05-.47.38-.52c.08-.12.14-.27.22-.28a.57.57,0,0,0,.44-.38,1.17,1.17,0,0,1,1.26-.63l-.29.12a1.21,1.21,0,0,0-.78.64c-.09.23-.42.36-.5.59a1.79,1.79,0,0,1-.26.68c-.18.21-.17.29,0,.57-.1.06-.2.12-.29.19s-.12.11-.11.15c.07.26-.13.43-.2.62,0,0,0,.08.06.08.31,0,.3,0,.4.33a4.75,4.75,0,0,0,.29.61h.49l-.83.66c-.33,0-.33,0-.3.48a3.84,3.84,0,0,0,.64.15.44.44,0,0,0,.3-.18,4.79,4.79,0,0,0,.32-.54l.29,0c.42-.32.37-.83-.16-1.47a.2.2,0,0,1,.32,0,1,1,0,0,1,.33,1,1,1,0,0,0,0,.3,1.07,1.07,0,0,0,.07.25c-.28.19-.59.37-.88.6a.68.68,0,0,1-.45.18.3.3,0,0,0-.34.25.59.59,0,0,1-.42.45.57.57,0,0,0-.42.73.56.56,0,0,1-.07.24c0,.07-.06.13-.09.19l.55.4c-.25.11-.6-.12-.62.28l.52-.11c0,.18,0,.18-.65.43-.12.19.15.44-.12.66l-.07-.42-.65,1,.17.28c-.21.06-.23.4-.56.22v.11l.66.38c-.11.18-.27.15-.44.13s-.25,0-.15.22,0,.27-.22.35a2.77,2.77,0,0,0,0-.34.73.73,0,0,0-.09-.28c-.08-.13-.16-.07-.25.05a.94.94,0,0,1,.15.19.88.88,0,0,1,0,.27l-.3-.25s-.1,0-.12.09a2.42,2.42,0,0,1-.67.62,4.48,4.48,0,0,0-.78.79c-.3.38-.56.8-.85,1.19a.89.89,0,0,1-.94.26.43.43,0,0,1-.22-.24,3.36,3.36,0,0,1-.1-.64c0-.19,0-.39,0-.58a1.94,1.94,0,0,0-.11-.36l-.16.38c-.31-.1-.34-.23-.13-.56l-.38,0,0-.48-.51,0c.09-.19.17-.36.44-.31a.51.51,0,0,0,.25-.07.4.4,0,0,1,.49.07.26.26,0,0,0,.35,0l.68-.32c-.23-.15-.44-.22-.55-.37s-.44,0-.44-.39l.35.11-.17-.54c-.22,0-.47,0-.64-.29Z"/><path d="M134.36,95.26c-.4-.23-.46-.33-.27-.72a.64.64,0,0,0,0-.67c-.15-.27-.07-.45.18-.61,0-.42.05-.82.08-1.22,0-.07.05-.19.1-.2.3-.06.28-.37.43-.54a.4.4,0,0,0,0-.32,2,2,0,0,1,0-1,2.45,2.45,0,0,1,.18-.9c0-.07,0-.2,0-.3s0-.35,0-.57l-.21-.12c.18-.14.46,0,.58-.24l-.24-.1,0-.41c-.06,0-.17-.06-.17-.1a2,2,0,0,1,.19-1.37,4.12,4.12,0,0,0,.34-1,.59.59,0,0,1,.26-.41c.09.21,0,.52.37.6a1.35,1.35,0,0,0,.18-.22c.21-.37.2-.37.65-.24.07.21,0,.36-.36.4.25.13.5.12.42.38l.71-.54,0,0-.36.12a.22.22,0,0,1,.17-.27c.34-.13.34-.13.27-.47,0,0,0,0,0-.1a.42.42,0,0,0,.51-.39l.39.31a1.16,1.16,0,0,0-.3.77c0,.33,0,.66,0,1a.83.83,0,0,1-.19.56c-.12.18-.21.38-.32.57a.82.82,0,0,0,0,.94.3.3,0,0,1,.06.21,5.48,5.48,0,0,0,0,1.15c0,.24,0,.48-.06.72a.53.53,0,0,0,0,.23,3.9,3.9,0,0,1,0,1.55.76.76,0,0,0,.18.57l.38,0,0,.07a.48.48,0,0,0-.28.49,1.2,1.2,0,0,1-.08.41,6.46,6.46,0,0,1-1.18,2.4.93.93,0,0,0-.17.26.94.94,0,0,1-.43.47c-.3.18-.31.25-.22.65l.72-.38A2.1,2.1,0,0,1,136.5,98c-.11.09-.16.27-.28.34a1,1,0,0,1-.42,0,2.31,2.31,0,0,0-.23.4,1,1,0,0,1-.61.55c-.29.13-.45,0-.47-.27s0-.77,0-1.15,0-.64-.26-.8c0-.43,0-.79,0-1.16A.82.82,0,0,1,134.36,95.26Zm2.23-3-.6.08a.28.28,0,0,1-.13,0l-.91-.4c.22.66.66.74,1.27.56l-.25.23.58.2,0-.67.22.05.32-.44.64.06c.22-.23,0-.41,0-.58l.18-.38-.32-.1,0-.42.3.22c.05-.31-.28-.36-.27-.58.29-.14.28-.14.21-.43a.6.6,0,0,1,0-.22c0-.12,0-.25.07-.39l-.38,0,.24-.25a.68.68,0,0,0-.61-.11l-.81.19.16.18-.2.44a1.34,1.34,0,0,0,.32,0,1.37,1.37,0,0,0,.3-.14l-.28.9c.17-.09.22-.31.46-.25l-.17.59c-.32.3-.62-.1-.91.13.05.11.07.22.14.27s.16.3.4.35.54.16.52.52a.28.28,0,0,0-.4,0c-.23-.1-.42-.25-.57-.22a1.18,1.18,0,0,1-.6,0c.11.13.26.22.36.33s.22.25.51.11Z"/><path d="M113.57,94.89c.31-.46.64-1,1-1.43.18-.25.42-.46.33-.82a.19.19,0,0,1,0-.14l.86-1s0,0,.06,0c.25-.54.8-.91.88-1.55a.33.33,0,0,1,.07-.17c.21-.23.45-.45.65-.69s.24-.39.37-.58.21-.34.36-.38c.38-.11.47-.44.63-.72a3.63,3.63,0,0,1,.27-.42c.15-.18.31-.31.26-.6,0-.12.15-.28.24-.42.21-.3.42-.61.64-.9a4.87,4.87,0,0,1,.58-.67A4.09,4.09,0,0,0,121.92,83a1.16,1.16,0,0,1,.05.23c0,.21.13.29.29.34a4.94,4.94,0,0,0,.56.13s.11,0,.13-.05l.52.65c-.37.21-.45.6-.63.94a3.08,3.08,0,0,1-.4.56.49.49,0,0,1-.27.13c-.43.08-.49.22-.24.58a.09.09,0,0,1,0,0,7.77,7.77,0,0,1-.55.79c-.19.21,0,.54-.29.72s-.25.43-.31.68a1.76,1.76,0,0,1-.8,1.09,2.76,2.76,0,0,0-1,1,5,5,0,0,0-.23.52c-.18.47-.35.93-.52,1.4,0,.13-.08.27-.13.44s-.41.21-.61.34a.66.66,0,0,0-.27.31,1.47,1.47,0,0,1-.64.79l-.2.12c-.41.25-.41.25-.33.81l-.13.07a4.87,4.87,0,0,0-2.19,2.2c-.12.7-.83.94-1.15,1.48a.4.4,0,0,1-.37.11c-.09,0-.15-.22-.17-.35a.56.56,0,0,1,.25-.49c.27-.23.54-.47.8-.72a1.25,1.25,0,0,0,.23-1.32c0-.08-.07-.21,0-.25.24-.25.13-.61.3-.89C113.71,95.27,113.6,95.07,113.57,94.89Zm9-10.18c.2-.23.23-.35.13-.45a.49.49,0,0,0-.53-.07c0,.18.06.38,0,.49s-.27.16-.37.21l.11.52c.2,0,.32-.22.56-.29l-.12-.68C122.54,84.38,122.54,84.38,122.56,84.71Zm-5.73,9,.17-.82-.69-.22a1.49,1.49,0,0,1,.1.46C116.34,93.44,116.56,93.55,116.83,93.67Z"/><path d="M59.81,56.42c.11-.18.22-.37-.08-.48l-.34.11.5-1.15-.17-.08c0-.15,0-.31,0-.46a.42.42,0,0,1,.07-.24,4.23,4.23,0,0,1,.35-.36,1,1,0,0,0,.39-.68.42.42,0,0,1,.11-.23c.15-.18.3-.34.18-.61,0,0,.1-.21.18-.24a.49.49,0,0,0,.29-.4A2.17,2.17,0,0,1,62,50.37a5.17,5.17,0,0,0,1-1.47,2.71,2.71,0,0,1,.42-.53,2.57,2.57,0,0,0,.76-.91,1.76,1.76,0,0,1,.34-.46.34.34,0,0,0,0-.45c-.19-.36-.15-.4.13-.6a8,8,0,0,0,1.61-1.58,3.25,3.25,0,0,1,.42-.38l.28.27.3-.27c.09-.09.17-.19.27-.28.34-.29.72-.52.79-1,0-.16.26-.3.41-.44s.3-.26.4-.34l.31.54.16-.14c-.2,0-.29-.17-.52-.23l-.58.62v.85l-.61.13,0,.81a.48.48,0,0,0-.67-.13,2.66,2.66,0,0,1-.57.15c-.16,0-.25.09-.21.32.28-.25.76.07.92-.48l.12.36c.22.11.52-.09.64.25l.3-.1c.15.09.11.2-.11.4.35,0,.54-.09.93-.69l-.55-.46,0-.05.73.41a2,2,0,0,1-.43.73,1,1,0,0,0-.2.32,1.76,1.76,0,0,1-.68,1,1.23,1.23,0,0,0-.48.58.32.32,0,0,1-.1.16,7.2,7.2,0,0,0-1,1.07.74.74,0,0,0-.24.55,1,1,0,0,1-.31.73,6.06,6.06,0,0,0-.6.65,3.44,3.44,0,0,0-.35.59c-.1.21-.17.43-.27.64s-.11.2-.19.22c-.23.07-.3.25-.4.43a5.15,5.15,0,0,1-.37.49,8,8,0,0,1-.73,1,3.05,3.05,0,0,1-1,.87,2.22,2.22,0,0,0-.44.3c-.07.05-.13.14-.21.16a1.36,1.36,0,0,0-.75.61c-.23.29-.48.56-.73.83a.7.7,0,0,1-.22.11Z"/><path d="M60.91,45.91l-.08-.19-.31.17.25-.75c-.27.06-.36.34-.6.42-.13-.2,0-.32.13-.44a1.52,1.52,0,0,0,.53-.91L60.5,44c.07-.11.13-.2.18-.3s.11-.18.09-.24c-.09-.23.07-.35.18-.51a3.12,3.12,0,0,0,.66-1.11,2,2,0,0,1,.3-.52c.46,0,.69-.46,1-.73.06,0,.06-.16.08-.25s.05-.38.09-.57a1,1,0,0,1,.74-.84,8.2,8.2,0,0,0,.81-.31c0-.21,0-.39.06-.56,0-.33,0-.33-.33-.49l.62-.74.58.25c-.12-.67.39-1,.64-1.42a.59.59,0,0,1,.89-.17c.2-.15.22-.55.54-.39l.72-.77,1.22-1.37a2.3,2.3,0,0,1,.23-.26,2,2,0,0,0,.56-.82c0-.11.1-.21.15-.33a1.28,1.28,0,0,1,.23,0,.49.49,0,0,0,.47-.07.41.41,0,0,1,.21-.08c.4,0,.55.19.36.54s-.42.67-.61,1A6.21,6.21,0,0,1,70,34.21a1,1,0,0,0-.35.7.47.47,0,0,1-.11.31,1.79,1.79,0,0,0-.42.68,1.69,1.69,0,0,1-.46.6,6.73,6.73,0,0,0-.67.79,2.41,2.41,0,0,1-.53.53A1.7,1.7,0,0,0,66.67,39a4,4,0,0,1-.42,1c-.28.5-.63,1-.9,1.48a7.86,7.86,0,0,1-.93,1.12c-.49.62-1,1.22-1.54,1.82a3.93,3.93,0,0,1-.56.58,2.19,2.19,0,0,1-.68.34,1.33,1.33,0,0,0-.58.42Z"/><path d="M107,79.61c-.1-.22,0-.39.21-.56.35-.34.67-.69,1-1.05.12.37-.31.56-.28.9l-.4.07a.26.26,0,0,0-.19.3c0,.15.11.19.24.19H108l-.18.4a.21.21,0,0,0,.32-.12.82.82,0,0,1,.47-.57c.26-.13.42-.46.67-.76a1.42,1.42,0,0,1-.41.72c-.09.1-.2.19-.29.3a3.25,3.25,0,0,1-.59.74.45.45,0,0,0-.18.48,1,1,0,0,1-.38,1.06.65.65,0,0,0-.14.88s-.06.11-.1.14a2,2,0,0,0-.78,1.07,1.45,1.45,0,0,1-.48.57,3.51,3.51,0,0,0-1.3,1.57c-.08.24-.16.48.23.6l-.06.07-.35.05c-.3.06-.35.16-.27.45,0,.06.05.15,0,.18-.2.27-.25.62-.53.87a6.53,6.53,0,0,0-.85,1,4.52,4.52,0,0,0-.38.63.89.89,0,0,0-.12.39.56.56,0,0,1-.28.51l-.72.5a.36.36,0,0,0-.11.1c-.3.54-.86.88-1.12,1.46a3.19,3.19,0,0,1-.54.74,8.67,8.67,0,0,1-.74.72c-.06.05-.18,0-.25.05a1,1,0,0,0,0-.35.92.92,0,0,1,.09-1.14,3.58,3.58,0,0,0,.33-.47.81.81,0,0,0-.16-1.08l.56-.86a1.28,1.28,0,0,0,.35-.71s0-.07.05-.1a29.49,29.49,0,0,0,1.53-2.53c.2-.37.42-.73.65-1.08a1.05,1.05,0,0,1,.26-.28.89.89,0,0,0,.38-.64,1,1,0,0,1,.66-.91,1.71,1.71,0,0,0,.5-.34.71.71,0,0,0,.2-.74,1.33,1.33,0,0,1-.05-.3c0-.18,0-.33.28-.32a.38.38,0,0,0,.43-.38.59.59,0,0,1,.28-.34,8.89,8.89,0,0,0,1.56-1.37A7.18,7.18,0,0,0,107,79.61Z"/><path d="M148.24,76.25a.81.81,0,0,0,.23,0,2,2,0,0,0,.28-.13.67.67,0,0,1,0,.69.84.84,0,0,0-.09.74.78.78,0,0,1,0,.37,4.33,4.33,0,0,0-.11.52c0,.24,0,.46-.28.58-.05,0-.07.13-.09.2-.14.45-.28.91-.41,1.36a.38.38,0,0,0,0,.26,1,1,0,0,1,.09.67c0,.32,0,.53.39.59a2.08,2.08,0,0,1-.21,1.12,3.26,3.26,0,0,0-.24.84c-.13.49-.25,1-.4,1.48s-.3.84-.42,1.26c-.06.2-.05.42-.09.63a12,12,0,0,1-.61,2.15c-.06.14-.13.28-.2.41a.63.63,0,0,1-.79.38.78.78,0,0,0-.3,0,.59.59,0,0,1-.71-.73c.07-.25.07-.51.14-.76a.73.73,0,0,0-.08-.62c-.06-.1,0-.28,0-.45l-.12-.08a.44.44,0,0,1,0-.11c.21-.27.2-.33-.12-.46l-.39-.16,0,0,.29-.24a1.09,1.09,0,0,1,0-1.15,3,3,0,0,0,.3-1.09,2.14,2.14,0,0,1,.22-.73,5.14,5.14,0,0,0,.37-1.56,1.56,1.56,0,0,1,.18-.73.48.48,0,0,0,0-.47c-.1-.24,0-.53-.2-.76,0,0,0-.15,0-.23s.05-.37.1-.56.15-.36.5-.31c-.42-.26-.12-.56-.2-.83a1.37,1.37,0,0,1,0-.42l.45,0a1.57,1.57,0,0,1,0-.28c0-.32.1-.38.42-.41.17,0,.45.12.44-.26,0,0,.2-.07.29-.13s.31-.26.46-.39l.58.26,0-.09-.33-.16a.59.59,0,0,1,.63-.14Zm-1.16,9c.14.07.16,0,.16-.13,0-.26,0-.52,0-.77.33-.09.38-.23.3-.65.34-.22.31-.64.55-.93l-.47-.39a1.6,1.6,0,0,1-.2.27c-.06.05-.19.12-.22.09-.21-.18-.4-.36-.67-.1-.32-.18-.48.11-.75.22.19.16.31.29.19.56s0,.3.26.33h.17l.14-.19a5.54,5.54,0,0,1,.47.36s0,.15.07.26c-.19,0-.34,0-.38.2s.16.45.41.54l0,.32-.58-.39-.06-.4c-.35.22-.43.32-.35.5s.33.22.57.26l-.56.44L146,85.2l-.3.51.28.14a3.3,3.3,0,0,1,.34-.15,2.6,2.6,0,0,1,.37-.08A.35.35,0,0,0,147.08,85.21Zm-1.69-4a2.71,2.71,0,0,0-.21.61,1.24,1.24,0,0,1-.07.37,7.67,7.67,0,0,0-.25,1c.28,0,.47.22.74,0l-.47-.18a.55.55,0,0,1,.53-.34l-.07-.25.35,0c-.18-.17-.27-.33-.16-.56a.24.24,0,0,0,0-.19C145.65,81.65,145.54,81.48,145.39,81.25Z"/><path d="M49.24,46.26l-.14-.41.24-.3a1.44,1.44,0,0,0-.38,0,1.26,1.26,0,0,1-1-.32c-.15-.1-.28-.17-.22-.37a.15.15,0,0,1,.05-.06c.22.14.43.25.62.4a.34.34,0,0,0,.51-.06l.2-.21c.1.11.18.27.3.32a1.28,1.28,0,0,0,.46,0l-.11-.55.66.26,0-.41.63-.79s0,0,0,0c-.12-.45.28-.63.47-.93,0-.06,0-.16,0-.26a.78.78,0,0,1,.6,0,.36.36,0,0,0,.32-.11.46.46,0,0,0,0-.35,2,2,0,0,0-.2-.39l.46-.1L52,41c.09-.18.19-.08.28,0,.37.23.37.23.67-.09a.86.86,0,0,1-.08-.16c0-.09,0-.19-.06-.28a2.2,2.2,0,0,1,.28-.05.93.93,0,0,0,.64-.18,1,1,0,0,1,.72-.22c.24-.53-.07-.87-.35-1.22l.3-.55c.2.1.37-.08.54-.09a3.07,3.07,0,0,0,.76-.25s.09,0,.11,0c.18-.29.52-.25.77-.38a.7.7,0,0,0,.29-.29,4.6,4.6,0,0,1,.75-1.07c.13-.14.2-.33.32-.47a2.14,2.14,0,0,1,1.32-.8c0,.16,0,.33,0,.5a.75.75,0,0,1-.1.32.33.33,0,0,0,0,.42c.19.27.19.43-.06.61a.73.73,0,0,0-.29.42c-.11.37-.29.48-.67.39s-.5.12-.68.32a.17.17,0,0,0,0,.14.88.88,0,0,1-.12.7.43.43,0,0,0,0,.26.53.53,0,0,1-.21.58,1.2,1.2,0,0,0-.41.67,1.28,1.28,0,0,1-.61.9.47.47,0,0,1-.43.05.29.29,0,0,0-.27.08c-.22.27-.41.55-.63.83a.9.9,0,0,0-.19.65,7.07,7.07,0,0,1,0,1,1.07,1.07,0,0,1-.13.36c-.11.24-.4.38-.39.69-.29.12-.38.48-.71.56a.91.91,0,0,0-.58.42.44.44,0,0,1-.19.19c-.52.18-.74.74-1.22,1-.11.06-.16.23-.22.35a.72.72,0,0,1-.43.36,4.11,4.11,0,0,0-.75.38c-.29.19-.3.2-.55,0l-.5-.46a.42.42,0,0,0,.2.46.39.39,0,0,1,.13.51,1.1,1.1,0,0,1-.2.37.31.31,0,0,1-.25.11c-.12,0-.16-.16-.11-.29l.12-.29h-.37a2.18,2.18,0,0,0,0-.5,2.11,2.11,0,0,0-.22-.43l.05-.08a3.12,3.12,0,0,0,.38.06,3.64,3.64,0,0,0,.41,0l0-.42c-.42,0-.42,0-.58-.34l.42.1Z"/><path d="M97.29,78.71c-.24,0-.33.11-.37.32a1.19,1.19,0,0,1-.24.47,1,1,0,0,0-.32,1,1,1,0,0,0-.85.57c0,.08-.19.1-.29.15s-.28.08-.36.17c-.32.37-.61.76-.92,1.14a1.21,1.21,0,0,1-.35.28c-.31.16-.62.3-1,.48-.07-.06-.23-.14-.25-.24a.93.93,0,0,1,.06-.55.58.58,0,0,0,.1-.42,1.08,1.08,0,0,1,.27-.77c.12-.18.3-.33.09-.56,0,0,0-.17,0-.25a2.22,2.22,0,0,1,.16-.27L92.72,80c.06-.07.1-.15.15-.17.29-.06.29-.05.3-.34l.45-.37a.34.34,0,0,0,.16-.38.7.7,0,0,1,.19-.49,4.77,4.77,0,0,1,.71-.93,2.61,2.61,0,0,0,.48-.55c.15-.19.1-.32-.16-.51.41,0,.61-.22.62-.59.62-.08.73-.55.81-1.05l.52.11c0-.11.1-.22.07-.29a1,1,0,0,1,.1-1,3.56,3.56,0,0,1,.38-.55A2.32,2.32,0,0,0,98,71.66a.35.35,0,0,1,.22-.37c.09,0,.15-.16.22-.25l.27-.32c.08.37-.24.51-.26.82a.83.83,0,0,0,.22-.13c.24-.29.47-.58.68-.88a.4.4,0,0,1,.37-.16l.7-.06c.14.3-.23.19-.31.29l.55.33a1.52,1.52,0,0,1-.13.33.45.45,0,0,0-.07.46.24.24,0,0,1,0,.19c-.2.32,0,.55.21.89l.19-.3s.09-.05.08-.06c-.11-.38.27-.41.45-.56a.92.92,0,0,0,.29-.33A.91.91,0,0,1,102,71a3,3,0,0,1-.74,1.29,1.37,1.37,0,0,0-.15.22,4.7,4.7,0,0,1-.8,1.12c-.08.07-.12.19-.18.29s-.17.28-.26.41l-.61.81a.54.54,0,0,0-.12.5.48.48,0,0,1-.06.29A5.35,5.35,0,0,1,98,77.4c-.17.17-.37.32-.35.61,0,.06-.06.18-.1.19C97.23,78.24,97.32,78.48,97.29,78.71Zm1.54-3.76c-.17,0-.28,0-.34.15a1.16,1.16,0,0,1-.19.29c-.63-.39-.63-.39-.81-.25l.33.23-.78.46a1.12,1.12,0,0,0,.48.12c.15,0,.32-.09.46.07-.3.23-.3.24-.16.56.34-.07.34-.07.6.09a.36.36,0,0,1,.15-.56.85.85,0,0,0,.42-.76.84.84,0,0,1,.36-.65l-.42-.19Z"/><path d="M64.9,59.68l-.18-.47c-.3.18-.32.66-.81.78.1-.16.15-.25.21-.34a2.19,2.19,0,0,0,.52-1,.26.26,0,0,1,.07-.13c.16-.18.24-.36,0-.57s0-.21.06-.3l.67-.71-.22-.3c.44-.67.88-1.33,1.31-2a4.72,4.72,0,0,0,.33-.69,1.9,1.9,0,0,1,.31-.61,1.91,1.91,0,0,0,.24-.53l-.35-.16s0-.11,0-.14.32-.14.31-.36,0-.3-.07-.47a.75.75,0,0,1,.57.08.27.27,0,0,0,.38,0,2.74,2.74,0,0,0,.6-.67,4.86,4.86,0,0,1,.7-.9c.07-.08.14-.15.2-.23L71.23,48l.32.06c.43-.29.52-.88,1.05-1.09l.15.1.13.1-.44.34.1.71c-.28,0-.28,0-.49.45l.41,0,.16.51,1.19-.32a6.85,6.85,0,0,1-.91,1.38c-.43.55-.89,1.09-1.33,1.63a.6.6,0,0,0-.15.27,3.52,3.52,0,0,1-.94,1.6c-.35.46-.7.91-1,1.38s-.8,1.1-1.19,1.66c-.14.21-.26.44-.4.65a.91.91,0,0,1-.19.18,1.86,1.86,0,0,0-.65.75.37.37,0,0,1-.24.21,1.36,1.36,0,0,0-.92.64,1.47,1.47,0,0,0-.15.23.85.85,0,0,1-.65.48.6.6,0,0,0-.46.33.38.38,0,0,1-.09.07C64.49,59.7,64.49,59.7,64.9,59.68Z"/><path d="M101.82,64.45a6.49,6.49,0,0,0-.59.28c-.23.14-.23.21,0,.4a1.15,1.15,0,0,0,.23.11l-.38.32c.33.69-.09,1.09-.67,1.45.17.09.28.16.44,0a.37.37,0,0,1,.49,0,.52.52,0,0,1,.13.6A.41.41,0,0,1,101,68a.61.61,0,0,1-.29-.07.34.34,0,0,0-.53.1c-.14.18-.38.27-.41.54,0,.06-.12.12-.19.16A3.53,3.53,0,0,0,98.48,70l.6.28-.42.31-.13-.35a1,1,0,0,0-.59.88L97.78,71a4.69,4.69,0,0,1-.77.34,3.72,3.72,0,0,1-.87.07,1.46,1.46,0,0,1-.37-.09c-.16-.18-.06-.37,0-.55s-.13-.14-.18-.21a.4.4,0,0,1,0-.58.74.74,0,0,0,.09-.17c.1-.24.1-.24.36-.33a1.08,1.08,0,0,0-.23-.52.85.85,0,0,1-.22-.92,2.1,2.1,0,0,0,.56.08,1.73,1.73,0,0,0,.48-.22v-.26L96,67.4c.12-.14.32-.19.28-.4,0,0,.17-.13.28-.16s.35-.07.56-.12l.27.2.13-.42-.28,0-.26-.36c.25-.07.47.31.72,0-.11-.12-.32-.23-.13-.47s.29-.06.46,0c0-.39.34-.38.54-.5s0-.56.35-.66l.29.26.07,0-.11-.47a2.19,2.19,0,0,0,.26-.11.27.27,0,0,0,.15-.35c-.08-.29-.13-.59-.18-.89a1,1,0,0,1,.19-.83l.39.09c.13-.12,0-.53.37-.38l.18-.58.37,0c0-.21.13-.3.37-.31a2.6,2.6,0,0,0,.57-.2c.18-.05.36-.08.59-.12l0,.34c.06,0,.14.07.17.12.13.23.23.25.4.08s.4-.29.45-.56a.18.18,0,0,1,.09-.12l.86-.34.07-.17-.17-.22.53-.76-.31,1.21a7.71,7.71,0,0,0-.71.41.55.55,0,0,0-.23.67c.11.28-.11.49-.18.72s-.28.55-.34.85a2.31,2.31,0,0,1-.55.85,1.53,1.53,0,0,1-.43.45C101.92,64.2,101.89,64.34,101.82,64.45ZM99.47,66.3c0,.07.1.15.25,0l.77-.66c-.17-.35.28-.49.3-.82l-.33-.26a1.38,1.38,0,0,1-.4.81l-.23-.14.12.36Z"/><path d="M.68,26.65c.42,0,.54.18.41.47a.62.62,0,0,1-.79.42A.34.34,0,0,1,.11,27,.74.74,0,0,1,.68,26.65Z"/><path d="M151.49,80.82a5.09,5.09,0,0,0-.88-.34c-.18,0-.18-.2-.39-.18.22-.21.29,0,.41,0l.09-.23-.26-.31.26-.41c.25.17.25.17.12.49.05.34.38.26.6.4C151.39,80.43,151.65,80.6,151.49,80.82Z"/><path d="M148.25,76.25a1.8,1.8,0,0,1,.31-.89l-.16-.09.47-.62-.44-.22.7-.41.06-.68c.23.14.29.27.19.48-.26.54-.5,1.09-.75,1.64-.09.2-.15.41-.24.61a.87.87,0,0,1-.16.19Z"/><path d="M147.12,73.77c.22.13.2.25.11.36s-.12.11-.15.17a.49.49,0,0,0,0,.21c.23,0,.22.4.5.37.05,0,.11.05.17.08-.21.37-.27.39-.63.35a2.61,2.61,0,0,0-.39,0A9.48,9.48,0,0,1,147.12,73.77Z"/><path d="M89,42.62l.28-.18.25.38s0,.05-.06,0a1.79,1.79,0,0,0-.4,0,3.66,3.66,0,0,1-.38,0l.2.31a5.33,5.33,0,0,1-.65-.17c-.14-.06-.24-.27-.46-.08l0-.09a.78.78,0,0,1,.12-.17.18.18,0,0,1,.15,0c.38.12.67-.07,1-.33Z"/><path class="cls-1" d="M82.95,48.54c0,.19,0,.19.25.27l.16-.27c.12.2,0,.32,0,.43L83,49l.11.32c-.28,0-.32,0-.42-.45l-.85.69-.19-.45c.36.17.35.17.5-.19a.28.28,0,0,1,.35-.16c.15,0,.33.06.27-.2l.2,0Z"/><path d="M83.13,47.25c-.25.13-.24.46-.57.44-.12-.15,0-.27.1-.39-.55-.33-.79-.2-.9.49l-.25-.6a4.27,4.27,0,0,0,.77-.24,4.61,4.61,0,0,0,.67-.53l-.31.55C82.78,47.16,82.78,47.16,83.13,47.25Z"/><path d="M97.77,58.65l-.34.38.5.08-.45.15a1.26,1.26,0,0,0-.69,1,.64.64,0,0,1-.16.32.91.91,0,0,1-.05-.23,1.83,1.83,0,0,1,.37-.9,9.06,9.06,0,0,1,.55-.74,1.1,1.1,0,0,1,.2-.16Z"/><path d="M124.16,91.35l-.26-.57-.48.12.17.24-.35-.13-.18.57c-.05-.12-.1-.18-.09-.21.11-.21,0-.48.3-.64s.56-.25.71-.16A.73.73,0,0,1,124.16,91.35Z"/><path d="M103.63,58.56c-.13.27-.14.62-.48.73a.13.13,0,0,0-.07.09,2.55,2.55,0,0,1-.54.82,3.08,3.08,0,0,0-.18.35c0-.11-.1-.21-.07-.25a5.73,5.73,0,0,1,.89-1.3Z"/><path d="M51.93,17.53v.06l-.08-.19,0,0,0,0-.23,0c-.08.16.22.18.08.33l-.23-.15,0,0,0,0-.32.08h0a.66.66,0,0,1,.1-.2c.13-.13.28-.24.46-.4l.44.14Z"/><path class="cls-1" d="M93.94,38.48c-.33.16-.34.18,0,.54a.52.52,0,0,0-.38.31,1.64,1.64,0,0,1-.51.45.41.41,0,0,0-.21.29s0,.12-.06.14a1,1,0,0,0-.41.84l-.8-.31c.18,0,.22-.35.48-.25,0,0,.12-.08.15-.14s.18-.36.27-.54l.44-.05v-.1l-.54-.12c0-.15.09-.22.26-.17.43.11.51,0,.53-.46a1.18,1.18,0,0,0-.21,0,2,2,0,0,0-.27.11l.22-.38-.44-.12a1.88,1.88,0,0,1,.32-.15c.18,0,.38.09.55-.07,0,0,.06,0,.07,0,.19.26.29,0,.46-.1l.11.27Z"/><path class="cls-1" d="M65.74,83.45a.6.6,0,0,1,.15-.59l.31-.48a3.21,3.21,0,0,1,.31-.44,1.7,1.7,0,0,0,.32-.79l-.64.88,0-.58c.25,0,.35-.21.41-.43a.52.52,0,0,1,.07-.14,1.91,1.91,0,0,0,.24-.38,1.51,1.51,0,0,0,0-.44l.16.11a1,1,0,0,0,.21-.44c0-.26.22-.4.6-.57l-.25-.25.58.09-.61,1c-.44.09-.47.62-.83.92.26.08.31.22.21.41-.26.48-.53,1-.81,1.44C66.07,83,65.9,83.23,65.74,83.45Z"/><path class="cls-1" d="M85.14,50.27l-.3.15-.44-.18a.63.63,0,0,0,0-.28.26.26,0,0,1,.19-.38c.34,0,.41-.25.56-.44s.15-.2.25-.22a.9.9,0,0,1,.43,0,.25.25,0,0,1,0,.23,1,1,0,0,0-.18.48.34.34,0,0,1-.32.28C85.14,50,85.12,50.12,85.14,50.27Z"/><path class="cls-1" d="M77.56,65.75a4.25,4.25,0,0,1,.89-1l.16.21-.28.48a2.4,2.4,0,0,1-.24.34C77.92,66,77.83,65.94,77.56,65.75Z"/><path class="cls-1" d="M93.94,38.48c.28-.11,0-.24,0-.37s.13-.15.28-.06.35,0,.38-.27l.45-.13a2.18,2.18,0,0,1-.15.42,1.09,1.09,0,0,1-.27.27c-.2.16-.46.25-.53.64l-.17-.51Z"/><path class="cls-1" d="M89.7,42.19c-.12-.36,0-.53.28-.66.14-.06.26-.13.41-.21.17.23-.18.26-.16.46l.39,0,0,.08-.71.48-.24-.11Z"/><path class="cls-1" d="M63.09,83.63l.12-.2L63,82.92h1l.15.37-.24.15L63.84,83l-.49.17v.38c.25.16.25.16,0,.44Z"/><path class="cls-1" d="M51.84,17.39l.08.19-.08.28v0h0V18h0l-.14.37-.18-.57h0l.16-.08h0c.14-.15-.15-.17-.08-.33l.23,0Z"/><path class="cls-1" d="M51.46,17.55l.23.15h0l-.16.08h0c-.13,0-.31,0-.39-.15l.32-.08Z"/><polygon points="51.85 17.97 51.83 17.97 51.85 17.98 51.85 17.97"/><path class="cls-1" d="M9.84,14.74l.1.06c.15.05.34.07.44.17s.08.28.12.44c-.22.2-.46,0-.72,0l0,.16a4.73,4.73,0,0,0-.44.35c-.2.2-.24.21-.52,0A.76.76,0,0,1,9,15.71a.44.44,0,0,0,.36-.42c0-.06,0-.16.05-.17C9.58,15.06,9.65,14.83,9.84,14.74Z"/><path class="cls-1" d="M14.1,12.59l.3-.06.07.29-.23,0a.67.67,0,0,1,0,.25.28.28,0,0,1-.19.15c-.14,0-.27,0-.41,0a3.23,3.23,0,0,0-.45.07c-.12.38-.45.26-.82.21l.62-.27.17-.62c.29-.07.23.26.39.34S13.92,12.73,14.1,12.59Z"/><path class="cls-1" d="M14.1,12.59c-.18.13-.31.35-.59.27-.08-.21-.09-.37.21-.39s.17-.11,0-.33c.12,0,.25-.14.35-.12a2.33,2.33,0,0,0,1.06-.12c.14.18.15.32,0,.34s-.41,0-.39.34c0,0-.08.05-.08,0l-.52-.36Z"/><path class="cls-1" d="M12.48,13.72l.22.15.18.14a1.25,1.25,0,0,1-.22.07.41.41,0,0,1-.15,0l-.19.27a.81.81,0,0,0-.28,0c-.05,0-.08.12-.13.21l-.19-.68c.08,0,.27-.15.34-.1S12.38,13.73,12.48,13.72Z"/><path class="cls-1" d="M104.65,76.05c0,.09.08.2.05.27s.06.24.15.29.18-.06.25-.11.1-.12.19-.15c0,.18,0,.4-.26.47,0,0-.06.09-.09.13s-.11.23-.25.08-.08,0-.12,0a.77.77,0,0,1-.27.07.23.23,0,0,0-.29.22c-.27-.45-.27-.45.09-.9C104.34,76.57,104.34,76.57,104.65,76.05Z"/><path class="cls-1" d="M106.13,72.32l.32.53c-.8.46-.89.49-1.19.47Z"/><path class="cls-1" d="M122.26,94.64l.49-.09-.11.28c.21.1.21.1.84-.17,0,.28.17.55,0,.82-.05.07-.09.16,0,.23s0,.12,0,.26c-.21-.25-.35-.47-.66-.42s-.45,0-.71.06c-.09-.15-.21-.17-.22,0s-.18.23-.35.23l-.21,0a.47.47,0,0,1,.26-.41c0-.38,0-.72,0-1,0,0,.1-.12.16-.13C122.05,94.22,122.21,94.35,122.26,94.64Z"/><path class="cls-1" d="M118.94,79.33l.56-.11c0,.2-.1.33,0,.51a.52.52,0,0,1-.12.42,1.87,1.87,0,0,0-.3.48,2,2,0,0,1-.47.63,1.44,1.44,0,0,1-.48.18l0-.42-.3.36c-.21-.4-.15-.58.12-.67s.23-.44.37-.48a.8.8,0,0,0,.51-.52Z"/><path class="cls-1" d="M137.13,91.86c0-.36-.31-.47-.52-.52s-.26-.25-.4-.35-.09-.17-.14-.27c.29-.23.59.17.91-.13l.17-.59c-.24-.06-.29.16-.46.25l.28-.9a1.37,1.37,0,0,1-.3.14,1.34,1.34,0,0,1-.32,0l.2-.44-.16-.18.81-.19a.68.68,0,0,1,.61.11l-.24.25.38,0c0,.15-.05.27-.07.39a.6.6,0,0,0,0,.22c.07.29.08.29-.21.43,0,.22.32.27.27.58l-.3-.22,0,.42.32.1-.18.38c.06.17.26.36,0,.58l-.64-.06Z"/><path class="cls-1" d="M136.58,92.24l0,.67-.58-.2.25-.23c-.61.18-1.05.1-1.27-.56l.91.4a.28.28,0,0,0,.13,0l.6-.08Z"/><path class="cls-1" d="M136.59,92.24l-.15-.25c-.29.13-.29.12-.51-.11s-.25-.2-.36-.33a1.18,1.18,0,0,0,.6,0c.15,0,.34.12.57.22a.28.28,0,0,1,.4,0h0l-.32.44-.22-.05Z"/><path class="cls-1" d="M122.56,84.71c0-.32,0-.32-.23-.27l.12.68c-.23.07-.36.3-.56.29l-.11-.52c.1,0,.29-.09.37-.21s0-.3,0-.49a.49.49,0,0,1,.53.07C122.79,84.36,122.76,84.48,122.56,84.71Z"/><path class="cls-1" d="M116.83,93.67c-.27-.11-.48-.23-.43-.58a1.49,1.49,0,0,0-.1-.46l.69.22Z"/><path class="cls-1" d="M147.09,85.22l0-.32c-.25-.09-.47-.2-.41-.54s.19-.2.38-.2c0-.11,0-.22-.07-.26a5.54,5.54,0,0,0-.47-.36l-.14.19h-.17c-.25,0-.36-.12-.26-.33s0-.39-.19-.56c.27-.11.43-.4.75-.22.27-.26.46-.08.67.1,0,0,.16,0,.22-.09a1.6,1.6,0,0,0,.2-.27l.47.39c-.25.28-.21.71-.55.93.08.42,0,.55-.3.65,0,.25,0,.51,0,.77,0,.09,0,.19-.16.13Z"/><path class="cls-1" d="M145.39,81.25c.15.23.26.4.36.57a.24.24,0,0,1,0,.19c-.1.23,0,.39.16.56l-.35,0,.07.25a.55.55,0,0,0-.53.34l.47.18c-.27.18-.46,0-.74,0a7.67,7.67,0,0,1,.25-1,1.24,1.24,0,0,0,.07-.37A2.71,2.71,0,0,1,145.39,81.25Z"/><path class="cls-1" d="M147.08,85.21a.35.35,0,0,1-.35.42,2.6,2.6,0,0,0-.37.08,3.3,3.3,0,0,0-.34.15l-.28-.14.3-.51.06.43.56-.44c-.24,0-.47,0-.57-.26s0-.28.35-.5l.06.4.58.39Z"/><path class="cls-1" d="M98.83,74.95l.1-.45.42.19a.84.84,0,0,0-.36.65.85.85,0,0,1-.42.76.36.36,0,0,0-.15.56c-.26-.16-.26-.16-.6-.09-.14-.33-.14-.34.16-.56-.14-.16-.31-.06-.46-.07a1.12,1.12,0,0,1-.48-.12l.78-.46-.33-.23c.18-.14.18-.14.81.25a1.16,1.16,0,0,0,.19-.29C98.55,74.91,98.66,74.9,98.83,74.95Z"/><path class="cls-1" d="M99.47,66.3l.48-.7-.12-.36.23.14a1.38,1.38,0,0,0,.4-.81l.33.26c0,.33-.47.47-.3.82l-.77.66C99.57,66.45,99.5,66.37,99.47,66.3Z"/><polygon class="cls-1" points="51.85 17.39 51.86 17.37 51.84 17.39 51.85 17.39"/><polygon class="cls-1" points="51.46 17.54 51.44 17.53 51.46 17.55 51.46 17.54"/><path d="M51.53,17.78l.16-.08Z"/><polygon points="51.85 17.85 51.83 17.84 51.84 17.86 51.85 17.85"/></g></g></svg>