<svg xmlns="http://www.w3.org/2000/svg" viewBox="0 0 211.26 135.84"><defs><style>.cls-1{fill:#fff;}</style></defs><title>资源 5</title><g id="图层_2" data-name="图层 2"><g id="图层_1-2" data-name="图层 1"><path class="cls-1" d="M28.57,0a8.27,8.27,0,0,0-.44,1c-.24.78-.8,1.53-.26,2.4a.35.35,0,0,1-.12.32c-.59.27-.52.84-.64,1.33,0,.18-.06.45-.18.52-.52.33-.28.91-.48,1.33a4.54,4.54,0,0,0-.12.82c-.1.42-.27.82-.37,1.24a1.13,1.13,0,0,0,.07.5c.15.6.67.51,1,.59.32-.53.51-1.16.93-1.47a4.19,4.19,0,0,0,1.11-1.44c.07-.11.24-.15.34-.25.39-.41,1-.82.83-1.41a5.57,5.57,0,0,1,.07-2.27A2.39,2.39,0,0,1,31,1.77c.06-.47.09-.81.15-1.15s.1-.42.15-.62m180,131.37c-.2-.14-.49-.28-.54-.47-.13-.48-.52-.58-.86-.8-.6-.38-1.16-.81-1.76-1.25l.36-.27-1.56-1.67.71-.08c-.13-.12-.27-.19-.33-.31a5.67,5.67,0,0,0-1-1.35,7.12,7.12,0,0,0-2-1.54,4.55,4.55,0,0,1-1.58-1.16,25.46,25.46,0,0,0-2.93-3c-.26-.26-.51-.54-.79-.78-.51-.44-1-.88-1.55-1.29a6.05,6.05,0,0,0-.79-.45l-.2.27,2.35,2.34a5.89,5.89,0,0,0-.57-.42,4.83,4.83,0,0,0-1.45-.73,3.22,3.22,0,0,1-2.29-1.53,24.29,24.29,0,0,1-1.58-3.24,1.13,1.13,0,0,1,0-.72c.18-.61.47-1.19.62-1.81a4.85,4.85,0,0,0,.2-1.78,27.85,27.85,0,0,0-.74-3.13,5.66,5.66,0,0,0-1.22-2.53,2.56,2.56,0,0,1-.69-1.19,4.71,4.71,0,0,0-1.85-2.76c-1-.84-2-1.61-3-2.42-.15-.12-.36-.26-.39-.43-.22-1-.41-2.08-.58-3.12,0-.17.16-.39.12-.56a10.48,10.48,0,0,1-.14-3.28c.05-1.13.07-2.27.11-3.4-.56-.65-.37-1.47-.44-2.22A18.41,18.41,0,0,1,185,81.8a1,1,0,0,1,.13-.31h.11l.32,2c.17-.06.24-.12.24-.18,0-.57-.07-1.14-.1-1.72a4.75,4.75,0,0,1,0-1.64c.15-.45.62-.71.58-1.36,0-.49.44-1,.7-1.54-.45-.27-.25-.54.07-.81s.59-.37.11-.68a.22.22,0,0,1,0-.19.38.38,0,0,0-.38-.52,2.78,2.78,0,0,0-1,.21,4.42,4.42,0,0,0-.71.5,4.56,4.56,0,0,0-.7.43,20.74,20.74,0,0,1-1.6,1.64,2,2,0,0,0-.87,2.16.44.44,0,0,1-.09.31c-.56.8-1.11,1.6-1.7,2.38-.34.45-.73.85-1.1,1.28s-.61.72-.9,1.09a1.79,1.79,0,0,0-.39.61c-.18.75-.32,1.51-.45,2.26,0,.12,0,.33.11.37.32.16.22.39.19.64s0,.62-.07.94l.19.05c.39-.36.79-.71,1.15-1.09s.65-1,1.1-1.19.42-1,1.15-1.14c0,.65.1,1.24.12,1.83s0,1,0,1.47c0,.21.08.41.11.61s0,.46.05.69.12.74.18,1.11a17.35,17.35,0,0,1,.45,2s0,0,0,0c.1.22.34.48.29.66-.11.38.07.57.27.83a1.27,1.27,0,0,1,.13.63,3,3,0,0,0,0,.71c.37,1,.87,2,1.15,3.1a12.13,12.13,0,0,0,2.58,4.35,24.48,24.48,0,0,0,1.81,1.65,1.65,1.65,0,0,1,.43,1,9.46,9.46,0,0,1-.23,2,6.75,6.75,0,0,0-.14,3.34,3.36,3.36,0,0,1,0,.69,12.56,12.56,0,0,0,.31,3.83c.24.64.39,1.32.59,2a2,2,0,0,0,.2.31c.14.25.27.51.4.76s.16.28.23.42.12.34.2.5.22.21.24.33a5.67,5.67,0,0,0,1.75,2.77c.85,1,1.87,1.78,2.78,2.69a13.69,13.69,0,0,0,3.39,2.3l5.31,2.83a3.2,3.2,0,0,0,.38.15,2,2,0,0,0-.43-.43,3.2,3.2,0,0,1-.33-.44c.19,0,.41-.05.55,0,.56.34,1.12.71,1.65,1.11.83.62,1.62,1.29,2.44,1.92.39.3.82.57,1.23.85l1.26.83.33-1.5-.4-.76M110,58.57c-.09-.07-.23-.22-.27-.2-.47.28-.57-.13-.82-.49l-.28.53-.85.58h0c-.76.64-1.5,1.31-2.3,1.91-1.47,1.1-3,2.19-4.47,3.23a11.28,11.28,0,0,1-2.17,1.17,25.08,25.08,0,0,1-3,1,11.61,11.61,0,0,1-2.64.48,32.65,32.65,0,0,1-3.71-.24A12.16,12.16,0,0,1,88,66.19l.5-.59-1.37.28.07-.2c-1.08-.42-2.14-.88-3.24-1.23-1.34-.42-2.75-1.1-3.05-1.67a18.91,18.91,0,0,1,1.85.78,10.18,10.18,0,0,0,3.5,1.17c1,.15,2.07.22,3.1.26s2.33.11,3.49.06c1.42-.05,2.67-.87,4.11-1a14.66,14.66,0,0,0,2.93-.8,2.5,2.5,0,0,0,.86-.34c.55-.44,1.05-.94,1.57-1.43a5.21,5.21,0,0,0,.37-.45c-.74.17-1.36.24-1.72.8a2.73,2.73,0,0,1-2,1.06c-.07,0-.16,0-.25-.06l1.47-.59-.06-.16c-.73.45-1.66.32-2.37.82l0,.14.46,0c-.6.17-1.15.79-1.84.26-.06,0-.2,0-.31.05a16.93,16.93,0,0,1-2.63.48c-2,.05-3.95.31-5.85-.46-.81-.33-1.68-.49-2.47-.84-1.16-.51-2.29-1.09-3.41-1.67a5.53,5.53,0,0,1-2.65-3,4.38,4.38,0,0,0-.22-.42l-.11.05.1.64a6.12,6.12,0,0,1-1.1-2.88,5,5,0,0,1-.06-.88c0-.32.21-.64.17-.94-.13-.87-.32-1.73-.51-2.59a7.36,7.36,0,0,0-.26-.79c-.05.35.06.73-.08.95a1.09,1.09,0,0,0,.1,1.24c.6.82,0,1.55,0,2.32A6.34,6.34,0,0,1,76.71,53c0-.11.2-.25.21-.27a3,3,0,0,1-.42-.9c0-.53.09-1.08,0-1.61-.11-1.15,0-2.36-1-3.29a2.14,2.14,0,0,1-.34-.74,1.86,1.86,0,0,1-.14-.52c0-.46.35-1-.19-1.28a4.3,4.3,0,0,0,.19-.75,7.54,7.54,0,0,0,0-.91c0-.38.07-.65.54-.54s.45-.19.53-.52l-1,.39.13-.93c.81.35.81.35,1.08.13,0-.35-.15-.72,0-1s0-.49-.19-.58-.38,0-.58,0l-.06.18-.71-1.16-.27.7c-.43-.08-.46-.82-1.06-.52l-.26-.71a3.07,3.07,0,0,1-.22-.63c0-.26-.08-.72,0-.77.33-.15.3-.4.37-.65L72,35.85c.35-.79.71,0,1.06-.12l-.31-.39.35-.61-.83-.26a1.14,1.14,0,0,1-.33-.16l-2.37-1.85a13.55,13.55,0,0,0-4.66-2.15,4.7,4.7,0,0,0-2-.3,5.23,5.23,0,0,1-1.76-.33c-.15,0-.29-.23-.43-.22a1.67,1.67,0,0,1-1.31-.78,2.08,2.08,0,0,0-.47.06,1,1,0,0,0-.27.19L56,28.69l0,.14-.14-.48c-.09.1-.06.22-.11.28s-.21.19-.28.16a.37.37,0,0,1-.18-.28,4.45,4.45,0,0,0,0-.67c0-.08-.32-.19-.42-.15a1.33,1.33,0,0,1-1.46-.22l-.42.21,0-.16c-.21,0-.41,0-.62,0l-1.9.12,0-.14.36-.13c-.58-.29-.68-.21-.76.54l-1.46.41.2-.37-.62,0,.26.7-.64.11.1-.1c-.14-.12-.35-.37-.41-.34a2.35,2.35,0,0,1-1.91.05,1.45,1.45,0,0,0-1,.06c-.37.19-.52.1-.64-.25-.26.33-1.05-.1-.82.85l-.5-.44-.76.54-.1-.15a.94.94,0,0,0,.39-.31c-.41-.07-.41-.07-.29-1.12.45.25.89.66,1.39.27l-.4-.85c.48,0,.77.13.84.63a.4.4,0,0,0,.27-.64c-.2-.33,0-.37.2-.46a3.73,3.73,0,0,1,.45-.13l0,.13c.2,0,.44.18.58.11.37-.19.71-.67,1-.65s.24-.27.42-.25l.29.2c.42-.5.42-.5.88,0A1,1,0,0,0,48,26l1.62-.74L49.14,25c.16-.13.33-.2.39-.33.2-.39.46-.36.85-.3a5.11,5.11,0,0,0,1.24-.1c.15,0,.3,0,.58,0l-.65.5c.82.07,1-1.07,1.8-.62.27-.72.6-.86,1.31-.55l.2-.47c1.46.54,1.66.57,2.1.12l-.27-.48c.7.12,1.3.19,1.88.33a.57.57,0,0,1,.34.4c0,.37.25.4.53.33l1.61-.39c.16-.21.24-.44.37-.47a4.56,4.56,0,0,1,.94,0l.32,1,.18,0,.22-.88,3,.38-.3.45L67.1,24v.13l-.47.37,0,.07,1.26-.42a.9.9,0,0,0,.92.84l.19-.61c.3.52.55,1,.83,1.39a.31.31,0,0,0,.27.08,3.22,3.22,0,0,0,.49-.21,1.68,1.68,0,0,1,2,.62c.36-.29.51-.1.56.25a.71.71,0,0,0,.75.69,1.33,1.33,0,0,1,1.2.71,21.55,21.55,0,0,1,1.27,2.25,1.4,1.4,0,0,0,0-.45,6.68,6.68,0,0,0-.7-1.56,10.35,10.35,0,0,0-2.93-2.81,29.19,29.19,0,0,0-3.67-2A24.76,24.76,0,0,0,65,22.23a27.55,27.55,0,0,0-4.18-.64,49.51,49.51,0,0,0-5.38,0c-1.28.07-2.56.31-3.84.51-.48.07-1,.23-1.43.31-.29.05-.6,0-.9.05-.59.07-1.18.17-1.76.26l0-.12.35-.31-5.09,1.27,0-.17,1.46-.51,0-.14a3.26,3.26,0,0,0-.55.05L41,23.53c-.67.19-1,0-.92-.72-.16.14-.31.21-.35.31-.17.45-.5.54-.94.55-1.17,0-2.33,0-3.5.13a2.53,2.53,0,0,0-2.2,1.1.38.38,0,0,1-.17.11l-2.16,1s.07.08.1.09c.39.09.68.32.68.71,0,.09-.43.18-.67.27h-.05c-.28.1-.34.25-.11.46a1.59,1.59,0,0,0,.26.16c-.48.55-1.23.62-1.35.18a2.09,2.09,0,0,1,.14-1.81,4.52,4.52,0,0,0,1-1.75c.17-1.22.38-2.43.53-3.65,0-.18-.18-.39-.28-.58-.17.1-.35.19-.52.31a9.72,9.72,0,0,0-1,.72.48.48,0,0,0-.1.45c.44.61.46.67,0,1.25a2.47,2.47,0,0,0-.35.47,3.81,3.81,0,0,0-.19.82c0,.14.08.3,0,.42a3.85,3.85,0,0,1-.34.6c-.33,0-.75-.07-.9.12A6.79,6.79,0,0,0,27,26.58l-.74.13c.39,1,.39,1-.31,1.88.59.53.35,1.16.15,1.78,0,.15-.1.31-.14.46s.06.35.29.51c.58.42.87.11,1.21-.29.12-.15.31-.24.45-.38.3-.29.66-.48.81-1a8.38,8.38,0,0,1,.75-1.43c.43.2.76.67,1.25.22,0,0,.22,0,.25,0,.16.29.36.13.54,0s.46-.26.83-.47l-1.16,1.77c.36.06.73.12.7.64a2.83,2.83,0,0,0-2.3,1.15,1.61,1.61,0,0,1-1.36.5c-.1,0-.19,0-.36,0l1.41.67V33l-.85.34s0,.26-.07.29c-.61.29-1.13.88-1.93.56a2.43,2.43,0,0,0-.69-.07l0,.19a4.29,4.29,0,0,1,.67.26,4.82,4.82,0,0,1,.61.52l-.84.1c-.3,1.77.71,2.35,2.23,2.37a3,3,0,0,0-.19.68,2.26,2.26,0,0,0,.14.58l-.95-.13,0,.6c-1.7-.41-2.64.7-3.66,1.74a1.69,1.69,0,0,0,1.23.73c.78.06,1.57.06,2.36.08,1,0,2,0,3,.1.8,0,1.6.15,2.41.19.43,0,.86,0,1.29,0A18.6,18.6,0,0,0,37,42a26.5,26.5,0,0,0,4.39-1.23,16.18,16.18,0,0,1,3.09-.84,25.06,25.06,0,0,1,4.92-.31,21.94,21.94,0,0,0,3.16-.27c.55-.07,1-.51,1.62-.46,1.14.08,2.29,0,3.43.06h.16A26.58,26.58,0,0,1,64,40.28a14.64,14.64,0,0,1,3.64,2.1c.5.4.82,1.13,1.77,1-.63.75.41.92.4,1.53l-.7-.3a4.73,4.73,0,0,1,.22.81c.08,1.08.18,2.17.18,3.26a9.27,9.27,0,0,1-.28,1.52c-.21,1.26-.41,2.53-.61,3.79,0,.19-.09.38-.1.58-.11,1.66-.24,3.32-.29,5a14.77,14.77,0,0,0,.23,4.74A27.42,27.42,0,0,1,69,67.36c.24,1.37.68,2.71.82,4.1a.84.84,0,0,0,0,.16,22.18,22.18,0,0,0,.83,2.64,12.76,12.76,0,0,0,1.87,3.42,27.57,27.57,0,0,0,4.2,3.58,13.23,13.23,0,0,0,3.07,1.55,24.94,24.94,0,0,0,3.29.91,12.07,12.07,0,0,0,1.85.23c1,.08,2.08.18,3.12.16s2-.14,3-.24c.51-.05,1-.16,1.52-.24l.15-.55.18-.12c-.21.56.06.53.32.48a8.78,8.78,0,0,0,1.42-.3c.42-.15,1-.25.94-1l.31.44c.45-.19,1-.27,1.28-.59.41-.49.92-.26,1.4-.4l-.15.27.09.08c.13-.14.26-.29.39-.43a1.29,1.29,0,0,1,.34-.27c.26-.12.56-.17.8-.31.59-.33,1.17-.68,1.75-1,.82-.51,1.67-1,2.43-1.55a1.1,1.1,0,0,0-.34-2c-.1,0-.19-.09-.35-.17a4.32,4.32,0,0,0,1.26-.64,4.56,4.56,0,0,0,.61-1.27c.37-.21.8-.34.88-.9.31.22.51.09.53-.22a2.08,2.08,0,0,0-.2-.66l.39-.1-.15-.44.75.11a4.78,4.78,0,0,1,.21-.54s.15,0,.23,0l.37-.06c1-.15.08-.64.15-1l.55,0,.08-.6.47.29c.3-.46.53-.92,1.12-1.07a.49.49,0,0,0,.27-.74c-.05-.08.06-.29.13-.42a3.43,3.43,0,0,1,.45-.76,1.12,1.12,0,0,1,.63-.37c.38,0,.39,0,.31-.42h-.75c.15-.24.23-.54.37-.58.48-.11.27-.38.25-.58-.21.08-.55.15-.56.24,0,.7-.67.52-1,.66a1.78,1.78,0,0,0-1,.86c-.18.36-.36.61-.81.44-.19,1-1.14,1-1.59,1.4-.5-.16-.92-.28-1.34-.42s-.68-.32-.66.31c0,0-.09.08-.14.12l-.36.31c-.09.07-.18.21-.26.2-.58,0-.64.29-.58.59l-1.07.76.11-.76a1.25,1.25,0,0,0-.21.19,1.38,1.38,0,0,1-1.56.65,1.9,1.9,0,0,0-1,.28c-.19.09-.31.32-.5.44-.67.46-1.35.9-2,1.35l-.15.06-.32-.48v.57a2,2,0,0,0-.37,0l-1.24.12c-.37,0-.74,0-1.1.05H93.4c.13.32-.1.37-.41.34a4.7,4.7,0,0,0-1.27-.06,1.33,1.33,0,0,1-.67,0,.59.59,0,0,1-.22-1l.32.55.06-.1.69.24c.09-.07.18-.2.31-.24.43-.12.41-.28.21-.65a2.87,2.87,0,0,1-.14-1,5.36,5.36,0,0,0,0-.65.64.64,0,0,0-.06-.29c-.23-.31-.48-.61-.7-.9.44-.27,1-.6,1.52-.2a4.53,4.53,0,0,1,1-.56,3.93,3.93,0,0,1,1.1,0,4.46,4.46,0,0,1,.56.09l.11-.72a1.67,1.67,0,0,1,2.23.3l.43-.38-.5-.42c.29,0,.48-.06.57,0a7.52,7.52,0,0,1,.63.62c.24.23.82.12.8-.17,0-.46.24-.48.53-.56a3.21,3.21,0,0,0,.39-.17l-.51-.55a1.6,1.6,0,0,0,.42-.14,5.38,5.38,0,0,1,2.27-.65,1.13,1.13,0,0,0,.54-.35s-.11-.28-.19-.42a1.72,1.72,0,0,0-.27-.26l1-.22,0,0c.19-.06.43-.07.55-.19A1.31,1.31,0,0,1,106,64c.06,0,.14-.07.25-.12l-.34-.24c.68-.25.67-1.19,1.49-1.19,0,0,.05,0,.07-.08a3.1,3.1,0,0,1,1.26-1.17c.17-.09.25-.36.42-.63a3.1,3.1,0,0,0,.55-.45c.24-.29.41-.64.65-.94.1-.13.19-.46.47-.19.06-.09.17-.18.18-.28a1.24,1.24,0,0,0-.11-.39,2.19,2.19,0,0,1-.38.18,3,3,0,0,1-.47.06Zm8.3-1.3a3.76,3.76,0,0,0-.65.31c-.48.35-.95.65-1.4.39a4.1,4.1,0,0,1-2.36.68L113.54,60c.28.37.52.36.73-.17.05-.13,0-.32,0-.48s0-.3,0-.58l.27.31.28-.38.1.37a4.75,4.75,0,0,1,.73-.07c.08,0,.15.16.31.35l-.49-.12.57,1.11.47-.25.08.17.06,0-.15-.12v-.21h0l.74-.58c.15-.1.17-.45.3-.5.55-.22.45-.83.78-1.17.07-.07,0-.27,0-.4a1.39,1.39,0,0,0,1.49-.92l.71-.28c.1-.08.26-.15.28-.25.11-.61.61-.81,1.07-1,.22-.11.51-.12.68-.28.48-.43.74,0,1.06.23h-1.33l.39,1.22.13,0,0-.58c.17,0,.33.08.43,0a19,19,0,0,0,2.18-1.22c.34-.24,1-.17.92-.9.59.39.88.29,1.1-.24a39.7,39.7,0,0,0,5-1.31,1.39,1.39,0,0,0-.31-.25,2.65,2.65,0,0,1-.26-.28,1.28,1.28,0,0,1,.33-.21c.22-.06.46-.06.69-.11s.61-.27.47-.63-.14-.64.23-.85l.94-.53a24.3,24.3,0,0,0-10.18,2.4c.2.47.22.47.74-.06a2,2,0,0,1-.79,1.33c-.4.11-.8.16-1.2.25a.37.37,0,0,0-.21.13,4.47,4.47,0,0,1-.49.75c-.39.37-1,.45-1.31,1a1.51,1.51,0,0,1-.77.48c-.35.12-.34.31-.23.57-.21,0-.49-.13-.6,0a4.34,4.34,0,0,0-.78.87A5.75,5.75,0,0,0,118.31,57.27ZM128.45,44l.73.22-.25.38.58,0-.07-.49a.68.68,0,0,0,1-.06,2.67,2.67,0,0,1,.65-.39c.35-.18.71-.33,1.05-.51a.51.51,0,0,1,.77.23l-.5.62.11.1.8-.56.17.07c0,.3-.05.59-.06.89s0,.48,0,.82c-.38.18-.21-.41-.43-.53-.19.24-.58.63-.54.69.28.35-.07.6-.09.87.24,0,.5,0,.66.13a1.94,1.94,0,0,0,1.55.18,5.93,5.93,0,0,1,.75-.07c.87,0,1.15-.29,1.07-1.17a1.48,1.48,0,0,1,.34-1.34,8.28,8.28,0,0,0,.79-1.1,2.66,2.66,0,0,0-.79-.43c-.35-.05-.52-.13-.35-.52a3.76,3.76,0,0,0-.7,0c-1.56.32-3.12.61-4.65,1a23.37,23.37,0,0,0-2.54,1c-1,.44-1.92.87-2.88,1.32-.52.25-1,.53-1.55.8l0,.07.93,0,.15-.22.45.54c.19-.3.42-.51.45-.75.11-.66.62-.82,1.11-.87A1.63,1.63,0,0,0,128.45,44ZM17.53,26.68c.54-.37.89-.9,1.52-.52l-.13.77c.39.06.56-.06.58-.41s.06-1,.6-1.22c.06,0,.11-.15.12-.23.11-.76.22-1.52.32-2.28a11.53,11.53,0,0,1,.27-2.07c.12-.39.15-.61-.12-.89a.93.93,0,0,1-.13-1.1l1.08-2.54.32.44.77-.18c.05-.14.08-.38.17-.41.3-.09.24-.33.34-.53.29-.59.66-1.14,1-1.71a3,3,0,0,0,.27-.76c.08-.33.06-.7.16-1a2.31,2.31,0,0,0,0-2.16.94.94,0,0,1-.08-.51c0-.62.07-1.24.07-1.86,0-.15-.14-.3-.22-.45l-.45.31-.27.21a1.9,1.9,0,0,1-.14-.37c0-.1,0-.22,0-.32a2.91,2.91,0,0,0-.13-.43,1.49,1.49,0,0,0-.35.26c-.09.12-.11.31-.2.44s-.34.7-.56.73c-.5.08-.5.31-.48.7a2.62,2.62,0,0,1-.13.85c-.12.4-.27.79-.41,1.18l-.14,0c.05-.36.27-.77-.29-.92l.5-.48c-.54.19-.55,0-.49-.29.15-.68.3-1.36.42-2,.06-.38.23-.85-.42-.95-.09,0-.15-.18-.23-.28a6.14,6.14,0,0,0-.38-.52c-.19-.21-.35-.2-.48.09a3.49,3.49,0,0,1-1.21,1.61,3,3,0,0,0-1.15,2.36c-.07,1-.21,2-.35,3a3.38,3.38,0,0,0,.4,2.73.78.78,0,0,1,.07.61,13,13,0,0,1-.49,1.22c-.25-.4-.44-.74-.67-1.06a.8.8,0,0,0-1.2-.24,1.86,1.86,0,0,0-1,1.33,2.32,2.32,0,0,1-.67,1.12.55.55,0,0,1-.4.15c-.06,0-.14-.22-.16-.34-.06-.49-.11-1-.16-1.5-.13,0-.22,0-.25.09-.24.38-.45.44-.79.06a.82.82,0,0,0-.65-.12c-.69.12-1.37.27-2.05.44a3,3,0,0,0-2,2.74,20.51,20.51,0,0,0,.81,2.83c.06.19.32.32.46.5a2.08,2.08,0,0,1,.35.51c.15.36.22.77.73,1,0-.27,0-.45-.06-.62,0-.4,0-.71.52-.77a.62.62,0,0,0,.44-.26,13.1,13.1,0,0,0,.81-2,9.88,9.88,0,0,0,.17-1.66c.08-.79.62-1.08,1.24-.74,0,.68.08,1.32.1,2a1.33,1.33,0,0,1-.12.56.83.83,0,0,0,.18,1c.44.41.73,1.2,1.56.64.71.37.9-.2,1.15-.64a.55.55,0,0,1,.71-.29,3,3,0,0,0,.58,0c0,.13-.08.15-.16.21A1.27,1.27,0,0,0,16.2,23,1.88,1.88,0,0,1,16,24.71a.53.53,0,0,0,.08.8C16.57,25.91,17.06,26.3,17.53,26.68ZM140.87,55.14c-.28-.35-.86.19-1.19-.35l.44-.41a7.28,7.28,0,0,0-1,0,.42.42,0,0,0-.33.66c.28.43.14.6-.35.72l.7.6-.19.17c-.49.48-.47.62.13.91.34.17.68.36,1,.54l0,.12h-1l0,.13a2,2,0,0,0,.52.16,4.74,4.74,0,0,1,2,.4,6.36,6.36,0,0,0,1.39.35c.56.12,1.11.25,1.67.35a.68.68,0,0,0,.8-.49c.11-.47.41-.57.79-.63a4.2,4.2,0,0,1,.58-.06h2.11l0-.21a4.94,4.94,0,0,1-.55-.13,4.81,4.81,0,0,1-1.15-.48c-.09-.06.07-.53.16-.8.28-.84.27-.85-.6-1.18-.25-.1-.49-.24-.73-.35a14.37,14.37,0,0,0,1.22-.84,10.89,10.89,0,0,0,1-1.06,3,3,0,0,0,.42-.61.5.5,0,0,0,0-.35c-.11-.31-.24-.61-.37-.92l.73-.32-.31-.47a2.17,2.17,0,0,0,.38,0c.18,0,.36-.1.54-.15a1.69,1.69,0,0,0-.4-.36,6.75,6.75,0,0,0-.88-.26c.25-.31.72-.43.37-.86l1.68-.84a3.27,3.27,0,0,1,1-3.12l-.19-.15.24-.38c-.15-.25-.22-.58-.41-.66-.74-.33-1.51-.57-2.26-.86a3,3,0,0,1-.73-.34,4.89,4.89,0,0,0-2.75-.81,3.27,3.27,0,0,0-.87.19l0,.14,2.87.48v.09l-3.07.33a.8.8,0,0,1-1.08.58c.09.58.36,1.19-.52,1.18l.83,1.38-1.32.31c0,.39-.17.84.27,1.1s.22.8.42,1.17c0,0-.24.26-.4.34s-.27,0-.56,0l.57.8c-1.18-.15-2.29-.89-3.54-.36a2.22,2.22,0,0,0,1,.18,2.43,2.43,0,0,1,2.16.89l0,.14-2.13-.8,0,.09.76.54-1.49-.36-.05.14a3.92,3.92,0,0,0,.65.51,5.43,5.43,0,0,0,.89.28l0,.19-1,.24v.1l.43.14c0,.17-.08.44-.13.44-.31,0-.32.2-.25.41s0,.62.46.69a11.38,11.38,0,0,1,1.3.39l-1.12.64Zm27.53-2.88.13-.44-.07,0-.85,1.09-1-1.45-.18,1.06-.38,0a6.66,6.66,0,0,1-.26.87c-.05.11-.23.17-.36.25,0-.12,0-.25-.07-.37s-.07-.21-.11-.32l-.17.05a3,3,0,0,1,.1,1.13c-.1.31-.47.54-.72.81h.08l-.83,1.7a3.63,3.63,0,0,0-1.87-.9l1.9,1.23-.09.24c-.87-.63-1.87.06-2.76-.36,0,0-.11.06-.19.11.52.39,1,.77,1.52,1.12.24.17.25.32,0,.51l-.16.14c.07.48.12.84.2,1.2a.79.79,0,0,0,.22.4A5.59,5.59,0,0,0,166,61.7a1.54,1.54,0,0,1,.64.22c.3.16.57.37.86.56l.11-.15-1.83-1.43,0-.06,1.62.43.07-.17a1.62,1.62,0,0,1-.24-.33,3.53,3.53,0,0,1-.13-.53,4.38,4.38,0,0,1,.49-.1c.18,0,.36,0,.65,0l-.44-.74H168a4,4,0,0,1,0-.92,1.88,1.88,0,0,1,.42-.83.73.73,0,0,1,.63-.07.77.77,0,0,0,1.13-.73,10.05,10.05,0,0,1,.19-1.37.84.84,0,0,1,.39-.45,1.15,1.15,0,0,0,.59-1.41c0-.15.08-.36.13-.53s.13-.31.09-.37a4.29,4.29,0,0,0-.58-.48l-.28.35c-.14-.13-.27-.36-.4-.35-.61,0-.79-.47-1.1-.82,0,0-.07,0-.1,0C169,51.76,169.06,52.3,168.4,52.26ZM24.56,25.33c.45.27.62.07.64-.38a5.23,5.23,0,0,1,.71-2.72.78.78,0,0,0,.12-.62,1.74,1.74,0,0,1,.09-1.29,2.21,2.21,0,0,0,0-.36c-.18.13-.31.17-.34.26-.24.56-.44,1.14-.7,1.68s-.48.82-.72,1.22L24.23,23c.18-.38.37-.76.54-1.15.06-.14.15-.36.09-.44-.27-.35-.08-.64,0-1s.14-.45.21-.67L25,19.71a1.9,1.9,0,0,0-.38.37c-.18.31-.29.66-.47,1s-.42,1-.77,1.12c-.51.18-.55.53-.71.89L21.34,26c-.06.13-.12.26-.17.39a13.08,13.08,0,0,1-.85,2.06,5.27,5.27,0,0,0-.73,1.6c-.27,1.13-.63,2.24-1,3.4a2.65,2.65,0,0,0,.62.27.48.48,0,0,1,.42.63,1.16,1.16,0,0,0,.41,1.37.8.8,0,0,0,1,.17,6.27,6.27,0,0,0,1.78-2.61.57.57,0,0,0,0-.27,5.52,5.52,0,0,1,.71-2.65,7,7,0,0,1,.45-1,2.39,2.39,0,0,0,.28-2.08A6.49,6.49,0,0,1,24.56,25.33Zm6.93-11.42a.81.81,0,0,1-.12-1c.17-.39.38-.77.55-1.17a.91.91,0,0,0,0-.34l-.12,0-1.1,1.3c-.66-.49-.36-1.2-.39-1.78l-.74-.48.2-.57-.14-.08c-.4.54-1,.87-1.27,1.56a.71.71,0,0,1-.23.35A3.54,3.54,0,0,0,26.74,14a2.19,2.19,0,0,1-.53.89c-.05.06-.38-.14-.59-.2a1,1,0,0,0-.27,0,1.24,1.24,0,0,0,.44.39c.09.06.24.1.26.17a11.35,11.35,0,0,1,.16,1.29c0,.24-.14.52-.07.72.18.49-.06.86-.2,1.27a.67.67,0,0,0-.05.43c.27.57.57,1.14.88,1.7a.4.4,0,0,0,.21.16c.32.11.3.32.24.6a1.59,1.59,0,0,0,.09.61,2.21,2.21,0,0,1,.15.58,2.26,2.26,0,0,1-.22.6l.5.14c.1-.32.21-.67.33-1,.18-.5.35-1,.57-1.48s.42-.81.62-1.22c.06-.11.07-.28.16-.33.55-.32.55-1,.87-1.43a2.93,2.93,0,0,0,.34-1.13A9.31,9.31,0,0,1,31.49,13.91ZM0,26.31a2.06,2.06,0,0,0,1.2,2,4.12,4.12,0,0,0,2.22-.13c.12,0,.18-.32.25-.5.14-.33.25-.67.39-1a7.75,7.75,0,0,0,.44-1c.08-.28,0-.61,0-.9.19-1,.82-1.79.77-2.82,0,0,0-.06,0-.1a1.3,1.3,0,0,0-.13-1.32,3.91,3.91,0,0,1-.43-1c-.19-.85-.41-1-1.29-1a2.62,2.62,0,0,0-.43,0c-.36.1-.87.11-1.06.35a4.17,4.17,0,0,0-.68,2.47,1.83,1.83,0,0,1-.5,1.26,2.83,2.83,0,0,0-.76,1.74C0,25.1,0,25.71,0,26.31Zm162.76,23c-.25-.36-.88-.41-.64-.92-.85-.56-2-.23-2.73-1h-.05c-.34,0-.68,0-1,0a.5.5,0,0,1-.32-.13c-.21-.23-.4-.48-.64-.77l-.5.6.57-.09c-.11.86-1.13.3-1.28,1a.79.79,0,0,1-.17,1.2c-.07.06-.18.11-.19.18-.11.69-.68,1.05-1.11,1.49-.23.24-.29.32-.06.52A14.76,14.76,0,0,0,157,53.17a4.92,4.92,0,0,0,2.7.65c.38,0,.81-.05.91-.57s.18-1,.33-1.51c.07-.23.25-.56.43-.6.64-.13.75-.6.74-1.07S162.17,49.3,162.76,49.36Zm-3.26,13.77a5.46,5.46,0,0,1-.08,1.18.85.85,0,0,0,.29,1c.42.39.86.75,1.27,1.15a10.58,10.58,0,0,0,3,2.13c.83.38,1.2.2,1.34-.67.09-.54.32-.72.91-.56-.44-.63.26-.76.35-1.14.18-.76.74,0,1.06-.22l-2.22-1.45.48-.33c-.32-.68-.55-1.39-1.48-1.44a1.8,1.8,0,0,1-.72-.34c-.64-.39-1.28-.78-1.91-1.19-.37-.24-.8-.21-.94.13a.88.88,0,0,1-.89.58c.28,1-.56.83-1,1.13Zm13.65,4.36c.29-.31.57-.59.81-.89a1.42,1.42,0,0,0,.16-.44c-.18,0-.4,0-.54,0a2.12,2.12,0,0,0-.44.46c-.12-.17-.22-.4-.31-.4a.67.67,0,0,0-.41.27c-.33.4-.44.43-.83.11.15-.13.29-.35.45-.36.52,0,.76-.34,1-.74s.49-.7.27-1.23-.19-.55-1-.45c-.45.05-.43.4-.49.71a4.55,4.55,0,0,1-.27,1.21c-.13.25-.32.62-.78.51-.25-.06-.3.09-.17.31a.34.34,0,0,1,0,.25A2.05,2.05,0,0,1,169.9,68a1.23,1.23,0,0,0-.53,1c0,.4-.1,1-.62,1.07-.21,0-.49-.16-.8-.28l.11.41c0,.15.14.32.1.43-.31.68-.63,1.35-1,2a3.07,3.07,0,0,0,.35,3.37c.42.63.87.62,1.32,0,.24-.31.42-.67.65-1s.66-.75.92-1.17a1.63,1.63,0,0,0,.09-.8,3.64,3.64,0,0,1,0-1.09c.23-.67.59-1.29.89-1.94a9.55,9.55,0,0,0,.83-2,1.43,1.43,0,0,1,.6-1l-1,2.65c.19,0,.39,0,.45-.05.42-.49.83-1,1.19-1.5C173.59,67.89,173.58,67.58,173.15,67.49ZM77.36,30.31h.14c0-.45,0-.91-.09-1.35a6.33,6.33,0,0,1-.28-1.25A2.46,2.46,0,0,0,76,25.53c-1.07-.85-2.14-1.69-3.28-2.43a19.91,19.91,0,0,0-7.35-2.64c-.36-.07-.71-.17-1.07-.25l.05-.21,3,.67,0-.15a13.42,13.42,0,0,0-2.18-.72,40.64,40.64,0,0,0-4.66-.49,43.72,43.72,0,0,0-4.57.13c-1.05.07-2.1.26-3.15.42-.15,0-.41.15-.4.2.06.53-.34.42-.6.43a3.85,3.85,0,0,0-2.23.9,1.66,1.66,0,0,0,.55,0c1.16-.15,2.31-.38,3.47-.44,2.19-.13,4.38-.19,6.56-.25a27.48,27.48,0,0,1,7.57.89,16.76,16.76,0,0,1,5.12,2.2,5.68,5.68,0,0,1,2.33,2.47,5,5,0,0,0,.39.64l.11-.06-.1-.53L77,28.85a.56.56,0,0,1,0,.15ZM158,60.84a1.66,1.66,0,0,0-1.67-1,1.17,1.17,0,0,1-.51-.16c-1.14-.65-2.28-1.28-3.39-2-.72-.45-1-.38-1.06.42-.27,0-.62,0-.79.17a4,4,0,0,0-.72,1,.76.76,0,0,0,.25,1.09c1.35.81,2.69,1.64,4.08,2.36a2.55,2.55,0,0,0,3.12-.35c.44.21.84.62,1.36,0l-.77-.22-.4-1.4c.11,0,.15-.08.17-.07Zm-5.9-4.64a3.36,3.36,0,0,0,.4.38,14.19,14.19,0,0,0,4,1.91,4.52,4.52,0,0,0,1.16.21,1.1,1.1,0,0,0,1.06-1.56,16,16,0,0,0-.73-1.44l.5-.2c-.38-.2-.68-.35-1-.53a9.48,9.48,0,0,1-2.08-1.41,4.42,4.42,0,0,0-1.29-.94,2.36,2.36,0,0,0-.67-.12l.24,1.1c-.33-.36-.61-.45-.77.06-.64-.33-1.2-.87-2-.4a.85.85,0,0,0,.13.15,2.56,2.56,0,0,1,1.15,1.15c.06.15.39.21.61.28a4.08,4.08,0,0,0,.65.07c-.74.39-.95.34-1.42-.13a4.81,4.81,0,0,0-.58-.43l-.14.16a8.89,8.89,0,0,0,.75.86C152.44,55.63,152.65,55.85,152.15,56.2Zm22.2,15c-.27.34-.49.58-.67.86a1.47,1.47,0,0,0-.32.73,5.37,5.37,0,0,1-.58,2.37c-.29.68-.69,1.36.23,2,.48.32.75.48,1.12,0,.63-.81,1.17-1.68,1.77-2.52s.82-1.53,1.76-1.8c.18-.05.32-.24.48-.37l-.09-.1-.49.21-.06-.11.65-.41,0-.12-.42,0-.62-.47c.21-.27.59-.57.24-1,0,0,0-.13.1-.17l1.21-1-.17-.86-.71.54c0-.16,0-.3.08-.34.24-.16.5-.29.65-.38l.2-.93c-.39-.17-.47-.15-.62.16a2.31,2.31,0,0,1-.26.46c-.38.45-.75.91-1.16,1.33-.61.64-1.25,1.26-1.88,1.88l0-.08-.12.59-.16,0ZM184.17,70l-.86.67c-.43.32-.84.87-1.29.9-.79.05-1.13.35-1.24,1.07a.91.91,0,0,1-.09.34c-.14.22-.26.53-.46.6a2.81,2.81,0,0,0-1.5,1.41c-.13.21-.34.46-.55.5-.39.07-.5.24-.54.6a3.05,3.05,0,0,1-.24.64c0,.14-.14.32-.1.44a12.4,12.4,0,0,0,.76,1.76c.29.5.74.46,1.06,0s.53-.63.74-1,.94-.89.38-1.59c-.07-.09,0-.3.05-.46s0-.23,0-.44l.55,0a1.47,1.47,0,0,1,.36-.29,2.8,2.8,0,0,0,1.31-1.18c.4-.64.55-1.42,1.28-1.87a.85.85,0,0,0,.3-.76c-.15-.42-.16-.68.36-.77Zm-108-34.52c-.59.49-.64.59-.43,1.1l-.49.15c.27.41.08,1.06.74,1.23.21-.5,0-1.22.88-1.37a2.55,2.55,0,0,1,.36-2.17,7,7,0,0,0,.31-1.77l-.21,0L76.89,34l-.23,0,.17-1c-.25.14-.49.2-.51.3a11.89,11.89,0,0,0-.25,1.51A4.63,4.63,0,0,0,76.14,35.53ZM185.43,68.25a3.52,3.52,0,0,0-2.45.81,3.34,3.34,0,0,0-.64,1.15c0,.06.19.31.23.29a3,3,0,0,0,.63-.32c.13-.08.22-.27.36-.29C184.48,69.73,184.87,69,185.43,68.25ZM14.9,13.77l-.12-.06c0-.21,0-.43-.07-.64a.4.4,0,0,0-.61-.31,1,1,0,0,0-.34.69,9.94,9.94,0,0,0,.13,1.48c0,.09.08.22.15.25a.3.3,0,0,0,.27-.09C14.53,14.65,14.71,14.21,14.9,13.77Zm-3.32-.28a1.86,1.86,0,0,0-.28-.23c-.2-.1-.48-.31-.62-.25a1,1,0,0,0-.41.6,1.48,1.48,0,0,0,.09.73,1.83,1.83,0,0,0,.31.45c.15-.11.35-.19.44-.34A9.4,9.4,0,0,0,11.58,13.49Zm18.79,5.65c.08,0,.19,0,.2,0,.21-.43.62-.6,1-.83a.64.64,0,0,0-.09-1.13A2.7,2.7,0,0,0,30.37,19.14Zm-.3-8.76.18,0c-.2-1,1-1.56.82-2.57a6.09,6.09,0,0,0-1.17,2.35C29.88,10.2,30,10.29,30.06,10.38Zm80.62,53.34.66.39a.29.29,0,0,0,.15,0,1.29,1.29,0,0,0,.94-.95c-.33,0-.6.72-.91.13ZM33.33,14l0-.1-.95.29L31.9,15l.25.36ZM107.9,64.46l1.49-1.32-.23-.45C108.89,63.49,107.81,63.45,107.9,64.46Zm.85.37-.37.1.57.18.61-.6c.19-.2.47-.37.2-.75l-.56.81-.05-.49C108.61,64.21,108.58,64.26,108.74,64.83ZM70.88,21.46l-.09.16,2.65,1.45A6.79,6.79,0,0,0,70.88,21.46ZM58.8,23.59c-.1-.08-.16-.15-.23-.16a4.9,4.9,0,0,0-.72-.15,1.67,1.67,0,0,0-.43.06l.21.32a2.51,2.51,0,0,1,.16.27c.14.3.31.22.5,0s.18-.14.28-.21ZM159.86,47.06l2.2.57v-.09l-2.22-1ZM94.13,72.77l-.8-.92-.42.92Z"/><path d="M210.3,133.58l.4.76-.33,1.5-1.26-.83c-.41-.28-.83-.55-1.23-.85-.82-.63-1.62-1.29-2.44-1.92-.53-.4-1.08-.77-1.65-1.11-.14-.08-.36,0-.55,0a3.2,3.2,0,0,0,.33.44,2,2,0,0,1,.43.43,3.2,3.2,0,0,1-.38-.15L198.32,129a13.69,13.69,0,0,1-3.39-2.3c-.91-.91-1.93-1.72-2.78-2.69a5.67,5.67,0,0,1-1.75-2.77c0-.12-.18-.21-.24-.33s-.13-.33-.2-.5-.15-.28-.23-.42-.26-.51-.4-.76a2,2,0,0,1-.2-.31c-.2-.66-.35-1.34-.59-2a12.56,12.56,0,0,1-.31-3.83,3.36,3.36,0,0,0,0-.69,6.75,6.75,0,0,1,.14-3.34,9.46,9.46,0,0,0,.23-2,1.65,1.65,0,0,0-.43-1,24.48,24.48,0,0,1-1.81-1.65,12.13,12.13,0,0,1-2.58-4.35c-.27-1.06-.78-2.06-1.15-3.1a3,3,0,0,1,0-.71,1.27,1.27,0,0,0-.13-.63c-.2-.26-.37-.45-.27-.83.05-.18-.18-.43-.29-.66,0,0,0,0,0,0a17.35,17.35,0,0,0-.45-2c-.06-.37-.13-.74-.18-1.11s0-.46-.05-.69-.1-.41-.11-.61c0-.49,0-1,0-1.47S181,87,181,86.32c-.73.17-.56.92-1.15,1.14s-.72.8-1.1,1.19-.77.73-1.15,1.09l-.19-.05c0-.31,0-.63.07-.94s.13-.48-.19-.64c-.08,0-.13-.25-.11-.37.13-.76.27-1.52.45-2.26a1.79,1.79,0,0,1,.39-.61c.29-.37.6-.73.9-1.09s.76-.83,1.1-1.28c.59-.78,1.14-1.58,1.7-2.38a.44.44,0,0,0,.09-.31,2,2,0,0,1,.87-2.16,20.74,20.74,0,0,0,1.6-1.64,4.56,4.56,0,0,1,.7-.43,4.42,4.42,0,0,1,.71-.5,2.78,2.78,0,0,1,1-.21.38.38,0,0,1,.38.52.22.22,0,0,0,0,.19c.48.31.12.49-.11.68s-.52.54-.07.81c-.26.53-.73,1.05-.7,1.54,0,.65-.43.92-.58,1.36a4.75,4.75,0,0,0,0,1.64c0,.57.07,1.14.1,1.72,0,.05-.07.11-.24.18l-.32-2h-.11a1,1,0,0,0-.13.31,18.41,18.41,0,0,0-.06,2.45c.07.74-.12,1.56.44,2.22,0,1.13-.06,2.27-.11,3.4a10.48,10.48,0,0,0,.14,3.28c0,.16-.15.38-.12.56.17,1,.36,2.08.58,3.12,0,.16.24.3.39.43,1,.81,2,1.59,3,2.42a4.71,4.71,0,0,1,1.85,2.76,2.56,2.56,0,0,0,.69,1.19,5.66,5.66,0,0,1,1.22,2.53,27.85,27.85,0,0,1,.74,3.13,4.85,4.85,0,0,1-.2,1.78c-.15.62-.43,1.2-.62,1.81a1.13,1.13,0,0,0,0,.72,24.29,24.29,0,0,0,1.58,3.24,3.22,3.22,0,0,0,2.29,1.53,4.83,4.83,0,0,1,1.45.73,5.89,5.89,0,0,1,.57.42l-2.35-2.34.2-.27a6.05,6.05,0,0,1,.79.45c.53.41,1,.85,1.55,1.29.28.24.53.52.79.78a25.46,25.46,0,0,1,2.93,3,4.55,4.55,0,0,0,1.58,1.16,7.12,7.12,0,0,1,2,1.54,5.67,5.67,0,0,1,1,1.35c.06.12.2.19.33.31l-.71.08,1.56,1.67-.36.27c.6.43,1.16.87,1.76,1.25.34.22.73.32.86.8.05.19.34.33.54.47"/><path d="M31.27,0c-.05.21-.11.41-.15.62S31,1.3,31,1.77a2.39,2.39,0,0,0-.61,1.41,5.57,5.57,0,0,0-.07,2.27c.12.59-.44,1-.83,1.41-.1.1-.27.14-.34.25A4.19,4.19,0,0,1,28,8.54c-.42.3-.61.94-.93,1.47-.38-.08-.89,0-1-.59a1.13,1.13,0,0,1-.07-.5c.1-.42.26-.82.37-1.24a4.54,4.54,0,0,1,.12-.82c.2-.43,0-1,.48-1.33.12-.08.14-.34.18-.52.11-.49.05-1.05.64-1.33a.35.35,0,0,0,.12-.32c-.54-.87,0-1.62.26-2.4a8.27,8.27,0,0,1,.44-1Z"/><path d="M110,58.56a3,3,0,0,0,.47-.06,2.19,2.19,0,0,0,.38-.18,1.24,1.24,0,0,1,.11.39c0,.1-.11.19-.18.28-.29-.26-.37.06-.47.19-.24.3-.41.65-.65.94a3.1,3.1,0,0,1-.55.45c-.17.27-.25.54-.42.63a3.1,3.1,0,0,0-1.26,1.17s0,.08-.07.08c-.82,0-.81.94-1.49,1.19l.34.24c-.1.05-.18.13-.25.12a1.31,1.31,0,0,0-1.27.52c-.12.12-.37.13-.55.19l.15-.21h0l.13-.22-.28,0,0,.42-1,.22a1.72,1.72,0,0,1,.27.26c.08.14.24.37.19.42a1.13,1.13,0,0,1-.54.35,5.38,5.38,0,0,0-2.27.65,1.6,1.6,0,0,1-.42.14l.51.55a3.21,3.21,0,0,1-.39.17c-.29.09-.57.1-.53.56,0,.28-.56.39-.8.17a7.52,7.52,0,0,0-.63-.62c-.09-.07-.28,0-.57,0l.5.42-.43.38a1.67,1.67,0,0,0-2.23-.3l-.11.72a4.46,4.46,0,0,0-.56-.09,3.93,3.93,0,0,0-1.1,0,4.53,4.53,0,0,0-1,.56c-.53-.4-1.08-.07-1.52.2.22.28.47.58.7.9a.64.64,0,0,1,.06.29,5.36,5.36,0,0,1,0,.65,2.87,2.87,0,0,0,.14,1c.2.37.22.53-.21.65-.13,0-.22.17-.31.24L91.21,73l-.06.1-.32-.55a.59.59,0,0,0,.22,1,1.33,1.33,0,0,0,.67,0,4.7,4.7,0,0,1,1.27.06c.31,0,.54,0,.41-.34h1.31c.37,0,.74,0,1.1-.05l1.24-.12a2,2,0,0,1,.37,0v-.57l.32.48.15-.06c.68-.45,1.36-.89,2-1.35.18-.13.3-.36.5-.44a1.9,1.9,0,0,1,1-.28,1.38,1.38,0,0,0,1.56-.65,1.25,1.25,0,0,1,.21-.19l-.11.76,1.07-.76c-.06-.3,0-.64.58-.59.08,0,.18-.13.26-.2l.36-.31s.14-.08.14-.12c0-.63.33-.43.66-.31s.84.27,1.34.42c.46-.39,1.4-.43,1.59-1.4.44.16.63-.08.81-.44a1.78,1.78,0,0,1,1-.86c.35-.14,1,0,1-.66,0-.09.35-.15.56-.24,0,.21.23.47-.25.58-.14,0-.23.33-.37.58h.75c.07.43.07.38-.31.42a1.12,1.12,0,0,0-.63.37,3.43,3.43,0,0,0-.45.76c-.07.13-.18.34-.13.42a.49.49,0,0,1-.27.74c-.59.15-.82.61-1.12,1.07l-.47-.29-.73-.54-1.76-.29.08.42-1-.13-.24,1-.5-.2-.47.82-.24-.56-.16,0-.28.88a4.19,4.19,0,0,0-.67.35,9.73,9.73,0,0,1-1,.83,1.64,1.64,0,0,0-.84,1.49,2.86,2.86,0,0,0,.23.95l.12.5.73-.69.16.32a1.79,1.79,0,0,1,1.61-.74,1.71,1.71,0,0,0,1.2,0v0a4.56,4.56,0,0,1-.61,1.27,4.32,4.32,0,0,1-1.26.64c.15.07.25.13.35.17a1.1,1.1,0,0,1,.34,2c-.77.58-1.61,1-2.43,1.55-.58.36-1.16.71-1.75,1-.25.14-.54.19-.8.31a1.29,1.29,0,0,0-.34.27c-.14.14-.26.29-.39.43l-.09-.08.15-.27c-.47.14-1-.09-1.4.4-.27.32-.84.4-1.28.59l-.31-.44c0,.73-.52.82-.94,1a8.78,8.78,0,0,1-1.42.3c-.26,0-.52.08-.32-.48l-.18.12-.15.55c-.5.08-1,.18-1.52.24-1,.1-2,.23-3,.24S86,84,84.93,84a12.07,12.07,0,0,1-1.85-.23,24.94,24.94,0,0,1-3.29-.91,13.23,13.23,0,0,1-3.07-1.55,27.57,27.57,0,0,1-4.2-3.58,12.76,12.76,0,0,1-1.87-3.42,22.18,22.18,0,0,1-.83-2.64.84.84,0,0,1,0-.16c-.14-1.39-.58-2.73-.82-4.1a27.42,27.42,0,0,0-.51-3.07,14.77,14.77,0,0,1-.23-4.74c.05-1.66.19-3.32.29-5,0-.19.07-.38.1-.58.2-1.26.4-2.53.61-3.79a9.27,9.27,0,0,0,.28-1.52c0-1.09-.1-2.17-.18-3.26a4.73,4.73,0,0,0-.22-.81l.7.3c0-.61-1-.79-.4-1.53-1,.13-1.27-.6-1.77-1A14.64,14.64,0,0,0,64,40.28,26.58,26.58,0,0,0,57.77,39h-.16c-1.14,0-2.29,0-3.43-.06-.63,0-1.06.39-1.62.46a21.94,21.94,0,0,1-3.16.27,25.06,25.06,0,0,0-4.92.31,16.18,16.18,0,0,0-3.09.84A26.5,26.5,0,0,1,37,42a18.6,18.6,0,0,1-3,.12c-.43,0-.86.07-1.29,0-.8,0-1.6-.15-2.41-.19-1-.05-2-.07-3-.1-.79,0-1.57,0-2.36-.08A1.69,1.69,0,0,1,23.78,41c1-1,2-2.15,3.66-1.74l0-.6.95.13a2.26,2.26,0,0,1-.14-.58,3,3,0,0,1,.19-.68c-1.52,0-2.52-.6-2.23-2.37l.84-.1a4.82,4.82,0,0,0-.61-.52,4.29,4.29,0,0,0-.67-.26l0-.19a2.43,2.43,0,0,1,.69.07c.8.32,1.32-.27,1.93-.56.07,0,.06-.25.07-.29L29.3,33v-.2l-1.41-.67c.17,0,.26,0,.36,0a1.61,1.61,0,0,0,1.36-.5,2.83,2.83,0,0,1,2.3-1.15c0-.52-.34-.58-.7-.64l1.16-1.77c-.36.21-.59.35-.83.47s-.37.25-.54,0c0,0-.2,0-.25,0-.49.45-.82,0-1.25-.22a8.38,8.38,0,0,0-.75,1.43c-.15.47-.51.66-.81,1-.14.14-.33.23-.45.38-.34.4-.63.71-1.21.29-.23-.17-.35-.25-.29-.51s.09-.31.14-.46c.2-.62.44-1.25-.15-1.78.71-.84.71-.84.31-1.88l.74-.13a6.79,6.79,0,0,1,.68-1.34c.15-.19.58-.16.9-.12a3.85,3.85,0,0,0,.34-.6c0-.12-.05-.28,0-.42a3.81,3.81,0,0,1,.19-.82,2.47,2.47,0,0,1,.35-.47c.42-.58.4-.65,0-1.25a.48.48,0,0,1,.1-.45,9.72,9.72,0,0,1,1-.72c.16-.11.35-.21.52-.31.1.19.3.4.28.58-.15,1.22-.36,2.43-.53,3.65a4.52,4.52,0,0,1-1,1.75,2.09,2.09,0,0,0-.14,1.81c.12.45.87.37,1.35-.18a1.59,1.59,0,0,1-.26-.16c-.23-.21-.18-.37.11-.46h.05c.23-.09.66-.18.67-.27,0-.4-.29-.63-.68-.71,0,0-.05,0-.1-.09l2.16-1a.38.38,0,0,0,.17-.11,2.53,2.53,0,0,1,2.2-1.1c1.16-.09,2.33-.11,3.5-.13.44,0,.77-.1.94-.55,0-.11.19-.17.35-.31-.11.69.24.92.92.72l2.54-.71a3.26,3.26,0,0,1,.55-.05l0,.14-1.46.51,0,.17,5.09-1.27-.35.31,0,.12c.59-.09,1.17-.19,1.76-.26.3,0,.61,0,.9-.05.48-.08.95-.24,1.43-.31,1.28-.19,2.55-.44,3.84-.51a49.51,49.51,0,0,1,5.38,0,27.55,27.55,0,0,1,4.18.64,24.76,24.76,0,0,1,4.11,1.15,29.19,29.19,0,0,1,3.67,2,10.35,10.35,0,0,1,2.93,2.81,6.68,6.68,0,0,1,.7,1.56,1.4,1.4,0,0,1,0,.45A21.55,21.55,0,0,0,75.11,28a1.33,1.33,0,0,0-1.2-.71.71.71,0,0,1-.75-.69c-.05-.36-.2-.54-.56-.25a1.68,1.68,0,0,0-2-.62,3.22,3.22,0,0,1-.49.21.31.31,0,0,1-.27-.08c-.27-.43-.52-.88-.83-1.39l-.19.61a.9.9,0,0,1-.92-.84l-1.26.42,0-.07.47-.37V24l-1.31-.09.3-.45-3-.38-.22.88-.18,0-.32-1a4.56,4.56,0,0,0-.94,0c-.13,0-.22.26-.37.47l-1.61.39c-.28.07-.48,0-.53-.33a.57.57,0,0,0-.34-.4c-.58-.13-1.17-.21-1.88-.33l.27.48c-.44.45-.64.41-2.1-.12l-.2.47c-.71-.3-1-.17-1.31.55-.77-.45-1,.68-1.8.62l.65-.5c-.28,0-.43,0-.58,0a5.11,5.11,0,0,1-1.24.1c-.39-.07-.65-.1-.85.3-.07.13-.23.2-.39.33l.44.27L48,26a1,1,0,0,1-.18-.15c-.46-.49-.46-.49-.88,0l-.29-.2c-.17,0-.09.29-.42.25s-.66.46-1,.65c-.14.07-.38-.07-.58-.11l0-.13a3.73,3.73,0,0,0-.45.13c-.19.08-.4.13-.2.46a.4.4,0,0,1-.27.64c-.07-.5-.36-.68-.84-.63l.4.85c-.49.39-.93,0-1.39-.27-.12,1-.12,1,.29,1.12a.94.94,0,0,1-.39.31l.1.15.76-.54.5.44c-.24-1,.55-.52.82-.85.12.35.27.44.64.25a1.45,1.45,0,0,1,1-.06,2.35,2.35,0,0,0,1.91-.05c.06,0,.27.22.41.34l-.1.1.64-.11-.26-.7.62,0-.2.37,1.46-.41c.09-.74.19-.82.76-.54l-.36.13,0,.14,1.9-.12c.21,0,.41,0,.62,0l0,.16.42-.21a1.33,1.33,0,0,0,1.46.22c.1,0,.4.06.42.15a4.45,4.45,0,0,1,0,.67.37.37,0,0,0,.18.28c.07,0,.21-.08.28-.16s0-.18.11-.28l.14.48,0-.14,2.64.24a1,1,0,0,1,.27-.19,2.07,2.07,0,0,1,.47-.06,1.67,1.67,0,0,0,1.31.78c.14,0,.28.18.43.22A5.23,5.23,0,0,0,62.9,30a4.7,4.7,0,0,1,2,.3,13.55,13.55,0,0,1,4.66,2.15l2.37,1.85a1.14,1.14,0,0,0,.33.16l.83.26-.35.61.31.39c-.34.15-.7-.67-1.06.12l1.37.36c-.08.26,0,.5-.37.65-.11.05-.06.51,0,.77a3.07,3.07,0,0,0,.22.63l.26.71c.59-.3.63.44,1.06.52l.27-.7L75.48,40l.06-.18c.2,0,.43-.11.58,0s.37.24.19.58,0,.6,0,1c-.27.22-.27.22-1.08-.13l-.13.93,1-.39c-.08.33-.13.61-.53.52s-.56.16-.54.54a7.54,7.54,0,0,1,0,.91,4.3,4.3,0,0,1-.19.75c.54.3.15.82.19,1.28a1.86,1.86,0,0,0,.14.52,2.14,2.14,0,0,0,.34.74c.93.93.86,2.14,1,3.29.05.53-.09,1.08,0,1.61a3,3,0,0,0,.42.9s-.23.17-.21.27a6.34,6.34,0,0,0,.49,1.56c-.06-.77.58-1.5,0-2.32a1.09,1.09,0,0,1-.1-1.24c.14-.22,0-.6.08-.95a7.36,7.36,0,0,1,.26.79c.19.86.38,1.72.51,2.59,0,.3-.14.62-.17.94a5,5,0,0,0,.06.88,6.12,6.12,0,0,0,1.1,2.88l-.1-.64.11-.05a4.38,4.38,0,0,1,.22.42,5.53,5.53,0,0,0,2.65,3c1.12.59,2.25,1.17,3.41,1.67.79.35,1.67.51,2.47.84,1.91.77,3.89.52,5.85.46a16.93,16.93,0,0,0,2.63-.48c.11,0,.25-.1.31-.05.69.54,1.23-.09,1.84-.26l-.46,0,0-.14c.71-.5,1.65-.37,2.37-.82l.06.16-1.47.59c.09,0,.18.08.25.06a2.73,2.73,0,0,0,2-1.06c.36-.56,1-.63,1.72-.8a5.21,5.21,0,0,1-.37.45c-.52.48-1,1-1.57,1.43a2.5,2.5,0,0,1-.86.34,14.66,14.66,0,0,1-2.93.8c-1.44.11-2.69.92-4.11,1-1.16,0-2.33,0-3.49-.06s-2.08-.12-3.1-.26a10.18,10.18,0,0,1-3.5-1.17,18.91,18.91,0,0,0-1.85-.78c.3.57,1.71,1.24,3.05,1.67,1.1.35,2.16.81,3.24,1.23l-.07.2,1.37-.28-.5.59a12.16,12.16,0,0,0,1.45.32,32.65,32.65,0,0,0,3.71.24,11.61,11.61,0,0,0,2.64-.48,25.08,25.08,0,0,0,3-1A11.28,11.28,0,0,0,101,64.14c1.51-1,3-2.12,4.47-3.23.8-.6,1.54-1.27,2.3-1.91v1.18l.32-.59C109.12,59.79,109.46,59.6,110,58.56ZM74.57,52.88c.44,0,.45-.46.43-.68-.06-.74-.23-1.48-.35-2.18l.31-.31c-.25-.2-.48-.42-.74-.6-.08-.05-.23,0-.34,0-.11.67-.26,1.32.21,1.68L73.8,52.2c.45,0,.44,0,.58.5,0,.07.12.12.18.18-.58.28-.08.8-.29,1.17l.5,0,0,.09-.4.18.92.67A1.48,1.48,0,0,0,74.57,52.88Zm-32-16.44,0,.18a5.14,5.14,0,0,1,.56-.15,4.3,4.3,0,0,1,.83-.07c.53,0,1.06.11,1.59.13a6.54,6.54,0,0,1,1.28,0,3.74,3.74,0,0,0,2.21-.15,7.21,7.21,0,0,1,3.4-.22,2,2,0,0,0,.74.07c1.26-.39,2.45.17,3.67.21a11.13,11.13,0,0,1,1.86.23c.81.16,1.59.43,2.4.59a37.1,37.1,0,0,1,6.24,2,2.54,2.54,0,0,1,.35.21l-.31.2c.25.21.49.39.7.61a2.66,2.66,0,0,1,.3.47l-.52.21-.2.53,1.55,1.08a3.52,3.52,0,0,0,.38.45,5.14,5.14,0,0,1,.43.5,3.71,3.71,0,0,1,.25.53c.19-.16.41-.25.44-.38a9.33,9.33,0,0,0,.32-2.11,5,5,0,0,0-1.3-3.07,10.44,10.44,0,0,0-4.71-2.81,20,20,0,0,0-5.87-1c-1.38-.05-2.76-.13-4.13-.07-1.11,0-2.2.29-3.31.4-1.59.17-3.18.29-4.76.44a24.81,24.81,0,0,0-2.72.31A9.38,9.38,0,0,0,42.59,36.44ZM77.37,76.53l-.11.12a9,9,0,0,0,.83.8,22.84,22.84,0,0,0,7.5,3.41,15.09,15.09,0,0,0,6.78.18,19.37,19.37,0,0,0,4.35-1.28A45.26,45.26,0,0,0,101,77.37c-.54-.51-.9-.21-1.28.11a1.55,1.55,0,0,1-1.61.33c.35.43.08.46-.16.53-.7.21-1.39.48-2.1.65q-2.08.51-4.18.94a1.26,1.26,0,0,1-1.21-.25.63.63,0,0,0-.5-.13c-.52.12-1.17-.41-1.58.3,0,0-.1,0-.16,0-.66-.06-1.33-.08-2-.2-.41-.08-.77-.37-1.18-.46-.82-.2-1.67-.28-2.48-.5a18.59,18.59,0,0,1-2.38-.82C79.23,77.44,78.31,77,77.37,76.53ZM88.94,70c-.51,0-1-.27-1.36.22s.36.46.38.82c.1-.07.15-.1.17-.14s.17-.3.26-.46a2.45,2.45,0,0,0,.33.41,1.11,1.11,0,0,0,.47.24c.09,0,.22-.19.3-.17.51.13.61-.27.83-.63-.8.28-.83-.6-1.37-.77l.4-.22-.49-.21-.39.53ZM77.13,59.39c-.11-.07-.22-.21-.36-.24a1.6,1.6,0,0,0-.51.08l.11.42a7.43,7.43,0,0,1,.18.75c0,.12-.1.28-.06.38.22.51.47,1,.72,1.5l.16,0c0-.71-.22-1.48.51-1.9-.33-.16-.6-.27-.85-.42a1.48,1.48,0,0,1-.29-.34Zm6.08,12.79.1.2L85,71.54l-.18-.64L83,71.08l.38.9Zm-16.88-33-.15-.15c-.2.16-.56.3-.58.48-.06.42.4.4.67.52s.35,0,.42.14c.28.39.42.19.61-.12l-1.07-.62ZM81.12,70.49l-1,.19,1,1.15c.43-.16.42-.16.19-.68A4.2,4.2,0,0,1,81.12,70.49Zm5.11.45-.1-.11a3.31,3.31,0,0,0-.64.81c0,.11.32.42.54.57s.34,0,.5,0a.45.45,0,0,0,0-.27,3.39,3.39,0,0,0-.45-.15s-.05,0-.14-.12ZM76.45,58.27c-.11-.26-.22-.49-.31-.72s-.13-.46-.22-.82c-.12.3-.37.62-.3.8S75.72,58.47,76.45,58.27ZM39,28.13c-.32.47-.28.78.07.88s.87-.42.92-.77C39.6,28.33,39.23,28.62,39,28.13ZM75.89,49.46l-.07-.78c-.29.16-.66-.39-.94.19Z"/><path d="M17.53,26.68c-.47-.38-1-.77-1.44-1.18a.53.53,0,0,1-.08-.8A1.88,1.88,0,0,0,16.2,23a1.27,1.27,0,0,1,.4-1.25c.07-.05.16-.08.16-.21a3,3,0,0,1-.58,0,.55.55,0,0,0-.71.29c-.24.45-.44,1-1.15.64-.84.55-1.13-.24-1.56-.64a.83.83,0,0,1-.18-1,1.33,1.33,0,0,0,.12-.56c0-.64-.06-1.28-.1-2-.62-.33-1.16,0-1.24.74a9.88,9.88,0,0,1-.17,1.66,13.1,13.1,0,0,1-.81,2,.62.62,0,0,1-.44.26c-.49.06-.56.37-.52.77,0,.17,0,.34.06.62-.52-.22-.58-.62-.73-1a2.08,2.08,0,0,0-.35-.51c-.15-.17-.4-.3-.46-.5A20.51,20.51,0,0,1,7.1,19.4a3,3,0,0,1,2-2.74c.68-.17,1.36-.32,2.05-.44a.82.82,0,0,1,.65.12c.33.38.55.31.79-.06,0,0,.12,0,.25-.09.05.52.1,1,.16,1.5,0,.13.1.34.16.34a.55.55,0,0,0,.4-.15,2.32,2.32,0,0,0,.67-1.12,1.86,1.86,0,0,1,1-1.33.8.8,0,0,1,1.2.24c.23.32.42.66.67,1.06a13,13,0,0,0,.49-1.22.78.78,0,0,0-.07-.61,3.38,3.38,0,0,1-.4-2.73c.14-1,.28-2,.35-3a3,3,0,0,1,1.15-2.36,3.49,3.49,0,0,0,1.21-1.61c.13-.29.29-.3.48-.09a6.14,6.14,0,0,1,.38.52c.07.1.14.27.23.28.65.1.49.56.42.95-.12.69-.27,1.36-.42,2-.06.29-.05.48.49.29l-.5.48c.56.15.34.56.29.92l.14,0c.14-.39.3-.78.41-1.18a2.62,2.62,0,0,0,.13-.85c0-.38,0-.62.48-.7.22,0,.39-.47.56-.73s.1-.32.2-.44a1.49,1.49,0,0,1,.35-.26,2.91,2.91,0,0,1,.13.43c0,.1,0,.22,0,.32a1.9,1.9,0,0,0,.14.37l.27-.21L24.38,7c.08.15.22.3.22.45,0,.62-.05,1.24-.07,1.86a.94.94,0,0,0,.08.51,2.31,2.31,0,0,1,0,2.16c-.11.32-.09.68-.16,1a3,3,0,0,1-.27.76c-.31.58-.68,1.13-1,1.71-.1.2,0,.43-.34.53-.09,0-.12.27-.17.41l-.77.18-.32-.44-1.08,2.54a.93.93,0,0,0,.13,1.1c.27.28.24.5.12.89a11.53,11.53,0,0,0-.27,2.07c-.1.76-.21,1.52-.32,2.28,0,.08-.06.2-.12.23-.54.24-.56.74-.6,1.22s-.19.47-.58.41l.13-.77C18.42,25.78,18.07,26.31,17.53,26.68Z"/><path d="M140.87,55.14l-.66-.75,1.12-.64a11.38,11.38,0,0,0-1.3-.39c-.44-.07-.37-.43-.46-.69s-.06-.38.25-.41c.05,0,.08-.27.13-.44l-.43-.14v-.1l1-.24,0-.19a5.43,5.43,0,0,1-.89-.28,3.92,3.92,0,0,1-.65-.51l.05-.14,1.49.36L139.8,50l0-.09,2.13.8,0-.14a2.43,2.43,0,0,0-2.16-.89,2.22,2.22,0,0,1-1-.18c1.25-.53,2.37.21,3.54.36l-.57-.8c.28,0,.45,0,.56,0s.42-.3.4-.34c-.19-.37,0-.88-.42-1.17s-.29-.71-.27-1.1l1.32-.31-.83-1.38c.89,0,.61-.6.52-1.18a.8.8,0,0,0,1.08-.58l3.07-.33v-.09l-2.87-.48,0-.14a3.27,3.27,0,0,1,.87-.19,4.89,4.89,0,0,1,2.75.81,3,3,0,0,0,.73.34c.75.29,1.52.53,2.26.86.19.08.26.41.41.66l-.24.38.19.15a3.27,3.27,0,0,0-1,3.12l-1.68.84c.36.43-.12.55-.37.86a6.75,6.75,0,0,1,.88.26,1.69,1.69,0,0,1,.4.36c-.18.05-.36.12-.54.15a2.17,2.17,0,0,1-.38,0l.31.47-.73.32c.12.3.26.61.37.92a.5.5,0,0,1,0,.35,3,3,0,0,1-.42.61,10.89,10.89,0,0,1-1,1.06,14.37,14.37,0,0,1-1.22.84c.24.12.47.26.73.35.87.33.88.35.6,1.18-.09.27-.25.73-.16.8a4.81,4.81,0,0,0,1.15.48,4.94,4.94,0,0,0,.55.13l0,.21h-2.11a4.2,4.2,0,0,0-.58.06c-.38.06-.68.16-.79.63a.68.68,0,0,1-.8.49c-.56-.09-1.12-.22-1.67-.35a6.36,6.36,0,0,1-1.39-.35,4.74,4.74,0,0,0-2-.4,2,2,0,0,1-.52-.16l0-.13h1l0-.12c-.34-.18-.67-.37-1-.54-.6-.3-.62-.44-.13-.91l.19-.17-.7-.6c.49-.12.63-.3.35-.72a.42.42,0,0,1,.33-.66,7.28,7.28,0,0,1,1,0l-.44.41C140,55.33,140.58,54.79,140.87,55.14Z"/><path d="M168.4,52.26c.66,0,.58-.5.72-.85,0,0,.09,0,.1,0,.31.35.49.84,1.1.82.12,0,.26.22.4.35l.28-.35a4.29,4.29,0,0,1,.58.48c0,.06-.05.24-.09.37s-.18.38-.13.53a1.15,1.15,0,0,1-.59,1.41.84.84,0,0,0-.39.45,10.05,10.05,0,0,0-.19,1.37.77.77,0,0,1-1.13.73.73.73,0,0,0-.63.07,1.88,1.88,0,0,0-.42.83,4,4,0,0,0,0,.92h-.15l.44.74c-.28,0-.47,0-.65,0a4.38,4.38,0,0,0-.49.1,3.53,3.53,0,0,0,.13.53,1.62,1.62,0,0,0,.24.33l-.07.17-1.62-.43,0,.06,1.83,1.43-.11.15c-.28-.19-.56-.39-.86-.56a1.54,1.54,0,0,0-.64-.22,5.59,5.59,0,0,1-3.55-1.4.79.79,0,0,1-.22-.4c-.08-.36-.12-.72-.2-1.2l.16-.14c.22-.19.21-.34,0-.51-.5-.36-1-.73-1.52-1.12.08,0,.16-.12.19-.11.9.42,1.89-.27,2.76.36l.09-.24-1.9-1.23a3.63,3.63,0,0,1,1.87.9l.83-1.7h-.08c.25-.27.62-.49.72-.81a3,3,0,0,0-.1-1.13l.17-.05c0,.11.08.21.11.32s0,.25.07.37c.12-.08.31-.14.36-.25a6.66,6.66,0,0,0,.26-.87l.38,0,.18-1.06,1,1.45.85-1.09.07,0ZM166.74,60a4.1,4.1,0,0,0-2.45-.91A5.84,5.84,0,0,0,166.74,60Z"/><path d="M24.56,25.33a6.49,6.49,0,0,0-.22,1.92,2.39,2.39,0,0,1-.28,2.08,7,7,0,0,0-.45,1A5.52,5.52,0,0,0,22.89,33a.57.57,0,0,1,0,.27,6.27,6.27,0,0,1-1.78,2.61.8.8,0,0,1-1-.17,1.16,1.16,0,0,1-.41-1.37.48.48,0,0,0-.42-.63,2.65,2.65,0,0,1-.62-.27c.34-1.16.7-2.27,1-3.4a5.27,5.27,0,0,1,.73-1.6,13.08,13.08,0,0,0,.85-2.06c.05-.13.11-.26.17-.39l1.28-2.94c.15-.36.19-.71.71-.89.35-.12.54-.72.77-1.12s.29-.66.47-1a1.9,1.9,0,0,1,.38-.37l.15.09c-.07.22-.13.45-.21.67s-.3.61,0,1c.06.08,0,.3-.09.44-.17.39-.36.77-.54,1.15l.16.09c.24-.41.52-.8.72-1.22s.46-1.13.7-1.68c0-.08.17-.13.34-.26a2.21,2.21,0,0,1,0,.36A1.74,1.74,0,0,0,26,21.61a.78.78,0,0,1-.12.62,5.23,5.23,0,0,0-.71,2.72C25.18,25.4,25,25.61,24.56,25.33Z"/><path d="M31.49,13.91a9.31,9.31,0,0,0-.86,2.85,2.93,2.93,0,0,1-.34,1.13c-.32.46-.32,1.11-.87,1.43-.09.05-.1.22-.16.33-.21.41-.44.8-.62,1.22s-.39,1-.57,1.48c-.12.34-.23.7-.33,1l-.5-.14a2.26,2.26,0,0,0,.22-.6,2.21,2.21,0,0,0-.15-.58,1.59,1.59,0,0,1-.09-.61c.06-.28.08-.49-.24-.6a.4.4,0,0,1-.21-.16c-.3-.56-.61-1.12-.88-1.7a.67.67,0,0,1,.05-.43c.14-.41.38-.78.2-1.27-.08-.2.08-.48.07-.72a11.35,11.35,0,0,0-.16-1.29c0-.07-.17-.11-.26-.17a1.24,1.24,0,0,1-.44-.39,1,1,0,0,1,.27,0c.21.06.53.26.59.2a2.19,2.19,0,0,0,.53-.89,3.54,3.54,0,0,1,1.39-2.34.71.71,0,0,0,.23-.35c.23-.69.87-1,1.27-1.56l.14.08-.2.57.74.48c0,.58-.26,1.28.39,1.78l1.1-1.3.12,0a.91.91,0,0,1,0,.34c-.17.39-.38.77-.55,1.17A.81.81,0,0,0,31.49,13.91Z"/><path d="M0,26.31c0-.61,0-1.21.09-1.82a2.83,2.83,0,0,1,.76-1.74,1.83,1.83,0,0,0,.5-1.26A4.17,4.17,0,0,1,2,19c.19-.24.69-.25,1.06-.35a2.62,2.62,0,0,1,.43,0c.88-.08,1.1.11,1.29,1a3.91,3.91,0,0,0,.43,1,1.3,1.3,0,0,1,.13,1.32s0,.06,0,.1c0,1-.58,1.86-.77,2.82-.06.29,0,.62,0,.9a7.75,7.75,0,0,1-.44,1c-.14.33-.26.66-.39,1-.07.18-.13.47-.25.5a4.12,4.12,0,0,1-2.22.13A2.06,2.06,0,0,1,0,26.31Z"/><path d="M162.76,49.36c-.59-.05-.7.21-.69.71s-.1.94-.74,1.07c-.18,0-.36.37-.43.6-.15.49-.23,1-.33,1.51s-.53.56-.91.57a4.92,4.92,0,0,1-2.7-.65,14.76,14.76,0,0,1-2.32-1.71c-.23-.2-.17-.29.06-.52.42-.44,1-.81,1.11-1.49,0-.07.12-.13.19-.18a.79.79,0,0,0,.17-1.2c.15-.67,1.17-.12,1.28-1l-.57.09.5-.6c.24.29.42.54.64.77a.5.5,0,0,0,.32.13c.34,0,.68,0,1,0h.05c.77.73,1.88.4,2.73,1C161.89,48.94,162.51,49,162.76,49.36Z"/><path d="M159.51,63.13l-.6-.1c.45-.3,1.3-.17,1-1.13a.88.88,0,0,0,.89-.58c.14-.34.57-.37.94-.13.63.41,1.27.8,1.91,1.19a1.8,1.8,0,0,0,.72.34c.93.05,1.16.76,1.48,1.44l-.48.33,2.22,1.45c-.32.18-.88-.53-1.06.22-.09.38-.79.52-.35,1.14-.59-.16-.83,0-.91.56-.14.87-.52,1-1.34.67a10.58,10.58,0,0,1-3-2.13c-.41-.4-.85-.76-1.27-1.15a.85.85,0,0,1-.29-1A5.46,5.46,0,0,0,159.51,63.13ZM165,67a2.73,2.73,0,0,0-2-1.24A2.94,2.94,0,0,0,165,67Z"/><path d="M120.11,55.64c-.11-.27-.12-.45.23-.57a1.51,1.51,0,0,0,.77-.48c.32-.52.92-.6,1.31-1a4.47,4.47,0,0,0,.49-.75.37.37,0,0,1,.21-.13c.4-.09.81-.15,1.2-.25a2,2,0,0,0,.79-1.33c-.53.53-.54.53-.74.06a24.3,24.3,0,0,1,10.18-2.4l-.94.53c-.37.2-.37.47-.23.85s-.14.56-.47.63-.47.05-.69.11a1.28,1.28,0,0,0-.33.21,2.65,2.65,0,0,0,.26.28,1.39,1.39,0,0,1,.31.25,39.7,39.7,0,0,1-5,1.31c-.22.53-.51.63-1.1.24.1.73-.58.66-.92.9a19,19,0,0,1-2.18,1.22c-.1.05-.27,0-.43,0l0,.58-.13,0-.39-1.22h1.33c-.31-.27-.58-.67-1.06-.23-.17.15-.46.16-.68.28-.46.24-1,.44-1.07,1,0,.1-.18.17-.28.25Z"/><path d="M173.15,67.49c.43.1.43.4.24.68-.37.52-.78,1-1.19,1.5-.06.07-.26,0-.45.05l1-2.65a1.43,1.43,0,0,0-.6,1,9.55,9.55,0,0,1-.83,2c-.29.65-.66,1.27-.89,1.94a3.64,3.64,0,0,0,0,1.09,1.63,1.63,0,0,1-.09.8c-.25.42-.62.77-.92,1.17s-.41.67-.65,1c-.45.6-.9.61-1.32,0a3.07,3.07,0,0,1-.35-3.37c.36-.66.68-1.33,1-2,0-.11-.06-.29-.1-.43l-.11-.41c.31.12.58.33.8.28.52-.12.61-.68.62-1.07a1.23,1.23,0,0,1,.53-1,2.05,2.05,0,0,0,.77-1.12.34.34,0,0,0,0-.25c-.13-.22-.08-.37.17-.31.46.11.66-.27.78-.51a4.55,4.55,0,0,0,.27-1.21c.06-.31,0-.66.49-.71.81-.1.8,0,1,.45s0,.82-.27,1.23-.52.71-1,.74c-.16,0-.3.23-.45.36.39.31.5.28.83-.11a.67.67,0,0,1,.41-.27c.09,0,.19.23.31.4a2.12,2.12,0,0,1,.44-.46c.14-.08.36,0,.54,0a1.42,1.42,0,0,1-.16.44C173.72,66.9,173.44,67.17,173.15,67.49Z"/><path d="M77.36,30.31,77.09,29a.56.56,0,0,0,0-.15l-1.41-2.54.1.53-.11.06a5,5,0,0,1-.39-.64,5.68,5.68,0,0,0-2.33-2.47,16.76,16.76,0,0,0-5.12-2.2,27.48,27.48,0,0,0-7.57-.89c-2.19.06-4.38.12-6.56.25-1.16.07-2.31.29-3.47.44a1.66,1.66,0,0,1-.55,0,3.85,3.85,0,0,1,2.23-.9c.26,0,.66.1.6-.43,0-.05.25-.18.4-.2,1-.15,2.09-.35,3.15-.42a43.72,43.72,0,0,1,4.57-.13,40.64,40.64,0,0,1,4.66.49,13.42,13.42,0,0,1,2.18.72l0,.15-3-.67-.05.21c.36.09.71.19,1.07.25a19.91,19.91,0,0,1,7.35,2.64c1.14.74,2.22,1.58,3.28,2.43a2.46,2.46,0,0,1,1.15,2.18A6.33,6.33,0,0,0,77.42,29c.07.44.06.9.09,1.35Z"/><path d="M158,60.84l-.33-.08s-.06,0-.17.07l.4,1.4.77.22c-.53.57-.92.16-1.36,0a2.55,2.55,0,0,1-3.12.35c-1.39-.72-2.73-1.55-4.08-2.36a.76.76,0,0,1-.25-1.09,4,4,0,0,1,.72-1c.16-.16.51-.12.79-.17.11-.8.33-.87,1.06-.42,1.11.69,2.25,1.32,3.39,2a1.17,1.17,0,0,0,.51.16A1.66,1.66,0,0,1,158,60.84Z"/><path d="M152.15,56.2c.5-.35.29-.57,0-.84a8.89,8.89,0,0,1-.75-.86l.14-.16a4.81,4.81,0,0,1,.58.43c.47.47.68.51,1.42.13a4.08,4.08,0,0,1-.65-.07c-.22-.07-.56-.13-.61-.28a2.56,2.56,0,0,0-1.15-1.15.85.85,0,0,1-.13-.15c.77-.47,1.33.06,2,.4.17-.51.44-.42.77-.06l-.24-1.1a2.36,2.36,0,0,1,.67.12,4.42,4.42,0,0,1,1.29.94A9.48,9.48,0,0,0,157.52,55c.28.18.59.32,1,.53l-.5.2a16,16,0,0,1,.73,1.44,1.1,1.1,0,0,1-1.06,1.56,4.52,4.52,0,0,1-1.16-.21,14.19,14.19,0,0,1-4-1.91A3.36,3.36,0,0,1,152.15,56.2Z"/><path d="M174.35,71.21l.09.42.16,0,.12-.59,0,.08c.63-.63,1.27-1.24,1.88-1.88.41-.42.78-.88,1.16-1.33a2.31,2.31,0,0,0,.26-.46c.15-.31.23-.33.62-.16l-.2.93c-.15.08-.41.21-.65.38-.06,0,0,.18-.08.34l.71-.54.17.86-1.21,1s-.11.15-.1.17c.35.47,0,.78-.24,1l.62.47.42,0,0,.12-.65.41.06.11.49-.21.09.1c-.16.13-.3.32-.48.37-.94.26-1.27,1.11-1.76,1.8s-1.14,1.71-1.77,2.52c-.37.47-.63.31-1.12,0-.92-.61-.52-1.29-.23-2a5.37,5.37,0,0,0,.58-2.37,1.47,1.47,0,0,1,.32-.73C173.86,71.79,174.08,71.54,174.35,71.21Z"/><path d="M184.17,70l.31.61c-.53.09-.51.35-.36.77a.85.85,0,0,1-.3.76c-.72.44-.88,1.23-1.28,1.87a2.8,2.8,0,0,1-1.31,1.18,1.47,1.47,0,0,0-.36.29l-.55,0c0,.21,0,.32,0,.44s-.12.37-.05.46c.55.71-.09,1.12-.38,1.59s-.51.64-.74,1-.78.51-1.06,0a12.4,12.4,0,0,1-.76-1.76c0-.12,0-.3.1-.44a3.05,3.05,0,0,0,.24-.64c0-.36.15-.53.54-.6.21,0,.42-.29.55-.5a2.81,2.81,0,0,1,1.5-1.41c.2-.06.32-.38.46-.6a.91.91,0,0,0,.09-.34c.11-.71.45-1,1.24-1.07.45,0,.86-.58,1.29-.9Z"/><path d="M128.46,44A23.37,23.37,0,0,1,131,43c1.54-.4,3.1-.69,4.65-1a3.76,3.76,0,0,1,.7,0c-.17.39,0,.47.35.52a2.66,2.66,0,0,1,.79.43,8.28,8.28,0,0,1-.79,1.1,1.48,1.48,0,0,0-.34,1.34c.08.88-.19,1.17-1.07,1.17a5.93,5.93,0,0,0-.75.07,1.94,1.94,0,0,1-1.55-.18c-.16-.12-.42-.09-.66-.13,0-.26.37-.51.09-.87,0-.05.35-.45.54-.69.21.12,0,.71.43.53,0-.34,0-.58,0-.82s0-.59.06-.89l-.17-.07-.8.56-.11-.1.5-.62a.51.51,0,0,0-.77-.23c-.34.18-.71.33-1.05.51a2.67,2.67,0,0,0-.65.39.68.68,0,0,1-1,.06l.07.49-.58,0,.25-.38-.73-.22Zm7,.33v-.22c-.35-.09-.7-.19-1.05-.26a.25.25,0,0,0-.2.13.28.28,0,0,0,.07.22c.13.16.28.31.51.56Z"/><path class="cls-1" d="M105.45,74.36a1.71,1.71,0,0,1-1.2,0,1.79,1.79,0,0,0-1.61.74l-.16-.32-.73.69-.12-.5a2.86,2.86,0,0,1-.23-.95,1.64,1.64,0,0,1,.84-1.49,9.73,9.73,0,0,0,1-.83,4.19,4.19,0,0,1,.67-.35l.28-.88.16,0,.24.56.47-.82.5.2.24-1,1,.13-.08-.42,1.76.29-.32.17c0,.3.14.56.06.65-.41.44-.18.59.26.7.06,0,.1.09.17.15l-.22.43-.37.06c.2-.32.14-.56-.19-.68-.34.18-.55.59-1,.53.07-.48.57-.8.29-1.31a7.2,7.2,0,0,1-.66,1.16,7,7,0,0,1-1,.84l.06.09,1-.44.11.09c-.08.14-.16.39-.25.4-.4,0-.31.25-.24.49l.16.51-1.24-.5.23-1.3c-.28.19-.51.34-.72.51-.05,0-.1.2-.07.24.23.3.48.6.74.88a1.72,1.72,0,0,0,.38.23l-.5.16.07.61,0-.06Z"/><path d="M116.48,60.11l-.47.25-.57-1.11.49.12c-.16-.19-.23-.35-.31-.35a4.75,4.75,0,0,0-.73.07l-.1-.37-.28.38-.27-.31c0,.28,0,.43,0,.58s.1.35,0,.48c-.21.53-.45.54-.73.17l.35-1.37a4.1,4.1,0,0,0,2.36-.68c.45.26.92,0,1.4-.39a3.76,3.76,0,0,1,.65-.31h0c0,.14.06.33,0,.4-.33.34-.23,1-.78,1.17-.13.05-.15.4-.3.5l-.74.58h0v.21Z"/><path d="M105.45,74.36l-.21-.35,0,.06-.07-.61.5-.16a1.72,1.72,0,0,1-.38-.23c-.26-.28-.51-.58-.74-.88,0,0,0-.19.07-.24.21-.17.44-.32.72-.51l-.23,1.3,1.24.5-.16-.51c-.08-.24-.17-.45.24-.49.1,0,.17-.26.25-.4l-.11-.09-1,.44-.06-.09a7,7,0,0,0,1-.84,7.2,7.2,0,0,0,.66-1.16c.28.51-.21.83-.29,1.31.49.06.69-.34,1-.53.33.13.39.36.19.68-.08,0-.21,0-.23,0a4.78,4.78,0,0,0-.21.54l-.75-.11.15.44-.39.1a2.08,2.08,0,0,1,.2.66c0,.31-.22.45-.53.22-.07.56-.51.7-.88.9Z"/><path d="M76.14,35.53a4.63,4.63,0,0,1-.06-.81,11.89,11.89,0,0,1,.25-1.51c0-.11.26-.16.51-.3l-.17,1,.23,0,.39-1.3.21,0a7,7,0,0,1-.31,1.77,2.55,2.55,0,0,0-.36,2.17c-.85.16-.67.87-.88,1.37-.66-.17-.47-.82-.74-1.23l.49-.15C75.5,36.12,75.54,36,76.14,35.53Z"/><path d="M185.43,68.25c-.55.74-.95,1.48-1.88,1.64-.13,0-.23.21-.36.29a3,3,0,0,1-.63.32s-.25-.24-.23-.29a3.34,3.34,0,0,1,.64-1.15A3.52,3.52,0,0,1,185.43,68.25Z"/><path d="M14.9,13.77c-.19.44-.38.88-.58,1.31a.3.3,0,0,1-.27.09c-.07,0-.14-.16-.15-.25a9.94,9.94,0,0,1-.13-1.48,1,1,0,0,1,.34-.69.4.4,0,0,1,.61.31c0,.21,0,.43.07.64Z"/><path d="M128.45,44a1.63,1.63,0,0,1-1.29.86c-.49.05-1,.22-1.11.87,0,.24-.26.44-.45.75l-.45-.54-.15.22-.93,0,0-.07c.52-.27,1-.55,1.55-.8,1-.45,1.92-.88,2.88-1.32Z"/><path d="M11.58,13.49a9.4,9.4,0,0,1-.47,1c-.09.15-.29.23-.44.34a1.83,1.83,0,0,1-.31-.45,1.48,1.48,0,0,1-.09-.73,1,1,0,0,1,.41-.6c.14-.06.41.14.62.25A1.86,1.86,0,0,1,11.58,13.49Z"/><path d="M120.11,55.64l.4.43-.71.28a1.39,1.39,0,0,1-1.49.92h0a5.75,5.75,0,0,1,.41-.8,4.34,4.34,0,0,1,.78-.87C119.62,55.51,119.9,55.62,120.11,55.64Z"/><path d="M30.37,19.14a2.69,2.69,0,0,1,1.11-2,.64.64,0,0,1,.09,1.13c-.38.23-.79.4-1,.83C30.56,19.16,30.44,19.14,30.37,19.14Z"/><path class="cls-1" d="M110,58.56c-.55,1-.89,1.23-1.9,1l-.32.59V59h0c.51-.29,1.09.08,1.61-.16l.62-.27Z"/><path d="M108.44,71.52l.22-.43c-.07-.06-.12-.13-.17-.15-.44-.11-.66-.26-.26-.7.08-.09,0-.35-.06-.65l.32-.17.73.54-.08.6-.55,0C108.52,70.88,109.42,71.36,108.44,71.52Z"/><path d="M30.06,10.38c-.06-.09-.19-.18-.17-.25a6.09,6.09,0,0,1,1.17-2.35c.14,1-1,1.55-.82,2.57Z"/><path d="M110,58.57l-.62.27c-.52.25-1.1-.13-1.61.16l.85-.58.28-.53c.25.36.36.77.82.49C109.78,58.35,109.92,58.5,110,58.57Z"/><path d="M110.68,63.72l.85-.41c.31.59.58-.18.91-.13a1.29,1.29,0,0,1-.94.95.29.29,0,0,1-.15,0Z"/><path d="M33.33,14l-1.19,1.34L31.9,15l.44-.79.95-.29Z"/><path d="M107.9,64.46c-.08-1,1-1,1.25-1.77l.23.45Z"/><path d="M108.74,64.83c-.16-.56-.13-.62.39-.76l.05.49.56-.81c.27.38,0,.56-.2.75l-.61.6-.57-.18Z"/><path d="M70.88,21.46a6.79,6.79,0,0,1,2.56,1.61l-2.65-1.45Z"/><path d="M58.8,23.59l-.22.18c-.09.07-.19.13-.28.21s-.35.25-.5,0a2.51,2.51,0,0,0-.16-.27l-.21-.32a1.67,1.67,0,0,1,.43-.06,4.9,4.9,0,0,1,.72.15C58.64,23.44,58.7,23.51,58.8,23.59Z"/><path d="M159.86,47.06v-.48l2.22,1v.09Z"/><path d="M94.13,72.77H92.91l.42-.92Z"/><path class="cls-1" d="M104.3,64.5l-.15.21,0,0,0-.42.28,0-.13.22Z"/><path d="M116.48,60.11h0l.15.12-.06,0Z"/><polygon points="116.46 59.91 116.46 59.92 116.49 59.92 116.46 59.91"/><path class="cls-1" d="M42.59,36.44a9.38,9.38,0,0,1,1.71-.72A24.81,24.81,0,0,1,47,35.41c1.59-.15,3.18-.28,4.76-.44,1.11-.12,2.2-.36,3.31-.4,1.37-.05,2.76,0,4.13.07a20,20,0,0,1,5.87,1,10.44,10.44,0,0,1,4.71,2.81,5,5,0,0,1,1.3,3.07,9.33,9.33,0,0,1-.32,2.11c0,.13-.24.22-.44.38a3.71,3.71,0,0,0-.25-.53,5.14,5.14,0,0,0-.43-.5,3.52,3.52,0,0,1-.38-.45l-1.55-1.08.2-.53.52-.21a2.66,2.66,0,0,0-.3-.47c-.21-.21-.45-.39-.7-.61l.31-.2a2.54,2.54,0,0,0-.35-.21,37.1,37.1,0,0,0-6.24-2c-.81-.16-1.59-.43-2.4-.59a11.13,11.13,0,0,0-1.86-.23c-1.23,0-2.42-.59-3.67-.21a2,2,0,0,1-.74-.07,7.21,7.21,0,0,0-3.4.22,3.74,3.74,0,0,1-2.21.15,6.54,6.54,0,0,0-1.28,0c-.53,0-1.06-.1-1.59-.13a4.3,4.3,0,0,0-.83.07,5.14,5.14,0,0,0-.56.15Zm24.56,2.07-.13.16,2.19,1.73.14-.18A10.7,10.7,0,0,0,67.16,38.51Z"/><path class="cls-1" d="M77.37,76.53c.94.44,1.86.92,2.82,1.32a18.59,18.59,0,0,0,2.38.82c.81.22,1.66.3,2.48.5.41.1.77.39,1.18.46.65.12,1.32.14,2,.2.05,0,.14,0,.16,0,.41-.71,1.06-.18,1.58-.3a.63.63,0,0,1,.5.13,1.26,1.26,0,0,0,1.21.25q2.1-.43,4.18-.94c.71-.18,1.4-.44,2.1-.65.24-.07.51-.1.16-.53a1.55,1.55,0,0,0,1.61-.33c.37-.32.74-.62,1.28-.11a45.26,45.26,0,0,1-4.26,2.38A19.37,19.37,0,0,1,92.36,81a15.09,15.09,0,0,1-6.78-.18,22.84,22.84,0,0,1-7.5-3.41,9,9,0,0,1-.83-.8Z"/><path class="cls-1" d="M74.57,52.87c-.06-.06-.16-.11-.18-.18-.14-.46-.14-.47-.58-.5l.29-1.39c-.47-.36-.32-1-.21-1.68.11,0,.26-.07.34,0,.26.18.5.4.74.6l-.31.31c.12.7.29,1.44.35,2.18,0,.22,0,.65-.43.68Z"/><path class="cls-1" d="M88.94,70l-.47-.38.39-.53.49.21-.4.22c.54.16.57,1,1.37.77-.22.36-.32.76-.83.63-.08,0-.22.19-.3.17a1.11,1.11,0,0,1-.47-.24,2.45,2.45,0,0,1-.33-.41c-.08.15-.17.31-.26.46s-.08.06-.17.14c0-.36-.65-.42-.38-.82S88.43,70,88.94,70Z"/><path class="cls-1" d="M77.13,59.39l-.38.22A1.48,1.48,0,0,0,77,60c.25.15.52.26.85.42-.73.43-.5,1.2-.51,1.9l-.16,0c-.24-.5-.5-1-.72-1.5,0-.1.08-.26.06-.38a7.43,7.43,0,0,0-.18-.75l-.11-.42a1.6,1.6,0,0,1,.51-.08C76.91,59.18,77,59.32,77.13,59.39Z"/><path class="cls-1" d="M83.21,72.18l.19-.2-.38-.9,1.78-.18.18.64-1.67.84Z"/><path class="cls-1" d="M74.57,52.87h0A1.48,1.48,0,0,1,75.32,55l-.92-.67.4-.18,0-.09-.5,0C74.48,53.68,74,53.15,74.57,52.87Z"/><path class="cls-1" d="M66.33,39.22l-.1.23,1.07.62c-.19.32-.33.52-.61.12-.07-.1-.28-.08-.42-.14s-.73-.09-.67-.52c0-.18.38-.32.58-.48Z"/><path class="cls-1" d="M81.12,70.49a4.2,4.2,0,0,0,.16.66c.23.52.24.51-.19.68l-1-1.15Z"/><path class="cls-1" d="M86.23,70.94,86,71.7c.08.07.1.11.14.12a3.39,3.39,0,0,1,.45.15.45.45,0,0,1,0,.27c-.17,0-.39.06-.5,0s-.58-.46-.54-.57a3.31,3.31,0,0,1,.64-.81Z"/><path class="cls-1" d="M76.45,58.27c-.74.21-.69-.44-.82-.74s.18-.5.3-.8c.09.36.14.59.22.82S76.34,58,76.45,58.27Z"/><path class="cls-1" d="M39,28.13c.26.49.64.21,1,.11,0,.35-.67.84-.92.77S38.65,28.6,39,28.13Z"/><path class="cls-1" d="M75.89,49.46l-1-.59c.28-.58.65,0,.94-.19Z"/><path class="cls-1" d="M166.74,60a5.84,5.84,0,0,1-2.45-.91A4.1,4.1,0,0,1,166.74,60Z"/><path class="cls-1" d="M165,67a2.94,2.94,0,0,1-2-1.24A2.73,2.73,0,0,1,165,67Z"/><path class="cls-1" d="M135.43,44.34l-.66.43c-.23-.25-.38-.4-.51-.56a.28.28,0,0,1-.07-.22.25.25,0,0,1,.2-.13c.35.07.7.17,1.05.26Z"/><path d="M104.3,64.5h0Z"/><path d="M67.16,38.51a10.7,10.7,0,0,1,2.21,1.71l-.14.18L67,38.67Z"/></g></g></svg>