<svg xmlns="http://www.w3.org/2000/svg" viewBox="0 0 90.57 99.05"><defs><style>.cls-1{fill:#fff;}</style></defs><title>资源 6</title><g id="图层_2" data-name="图层 2"><g id="图层_1-2" data-name="图层 1"><path class="cls-1" d="M.2,11.55a1.74,1.74,0,0,0-.13,1.31c.16,1.22.91,2.23,1.13,3.45.3,1.65.8,3.27,1.21,4.9.12.47.27.93.37,1.41.14.67.22,1.35.37,2,.41,1.76.83,3.52,1.29,5.27S5.39,33.29,5.89,35a8,8,0,0,1,.79,2.63,1.88,1.88,0,0,0,.26.68c.08.2.18.4.25.61.43,1.32.83,2.65,1.3,4A39.39,39.39,0,0,0,11,49.19c.62,1.09,1.11,2.27,1.8,3.32,1.07,1.63,2.21,3.22,3.4,4.76a8.65,8.65,0,0,0,1.57,1.9c.43.32.82.7,1.23,1,.79.69,1.58,1.39,2.39,2.06s1.56,1.27,2.35,1.87,1.59,1.21,2.43,1.76,1.56.89,2.34,1.36c1.3.78,2.57,1.61,3.88,2.35.83.47,1.73.79,2.58,1.21,1,.53,2.07,1.09,3.11,1.64a2.33,2.33,0,0,0,.27.11c1.19.45,2.37.92,3.57,1.34,1.69.58,3.38,1.16,5.09,1.66,1.31.39,2.65.64,4,1a4.71,4.71,0,0,1,1.22.49c1,.61,2.06,1.22,3,1.92,1.56,1.14,3.07,2.35,4.58,3.55A12.71,12.71,0,0,1,64.51,89,13,13,0,0,1,65,90.84a10.55,10.55,0,0,1,.31,1.87,8,8,0,0,0,1.07,4.38,12.77,12.77,0,0,0,.73,1.44,1.35,1.35,0,0,0,.8.52c.13,0,.34-.39.51-.61a.39.39,0,0,0,0-.14c.24-.89.52-1.76.69-2.66a24.49,24.49,0,0,0,.42-3.11c.07-1.15,0-2.3,0-3.45a6,6,0,0,0-.5-3.15,1.32,1.32,0,0,1-.1-.5c-.1-.82-.16-1.66-.31-2.47a29,29,0,0,0-.79-3.73,24.89,24.89,0,0,0-4.27-7.5c-.82-1.07-1.66-2.12-2.52-3.16a23.68,23.68,0,0,0-1.88-2.05,45.28,45.28,0,0,0-5-4,41,41,0,0,0-6.51-4c-1.87-.86-3.78-1.63-5.67-2.44a51.09,51.09,0,0,1-5.44-2.57c-1.89-1.08-3.86-2-5.79-3-1.06-.55-2.11-1.13-3.19-1.65-2.33-1.12-4.72-2.13-7-3.33a37,37,0,0,1-4.36-2.82,18,18,0,0,1-3.22-2.76c-.86-1-1.79-1.94-2.63-3a20.4,20.4,0,0,1-1.61-2.26,7.72,7.72,0,0,1-.92-1.89c-.3-1.06-.46-2.15-.68-3.23-.31-1.53-.66-3.06-.93-4.61A47,47,0,0,0,4.75,18.8C4.45,17.85,4,17,3.63,16c-.18-.48-.27-1-.89-1.13-.08,0-.15-.12-.21-.2L.44,11.86ZM60.14,48c.54-.94,1-1.74,1.46-2.54s.86-1.42,1.27-2.14c.33-.57.64-1.14.92-1.73.44-.92.82-1.87,1.26-2.79.28-.59.6-1.17.9-1.75.14-.26.29-.51.43-.76a6.82,6.82,0,0,0,.43-.8A3.31,3.31,0,0,1,68,33.54c.42-.26.42-.73.39-1.19a29.33,29.33,0,0,1-.08-3.3,8.09,8.09,0,0,1,.58-3.2,5.93,5.93,0,0,1,1-1.74c.43-.43.81-.91,1.21-1.38,1.33-1.53,2.64-3.07,4-4.6.88-1,1.81-2,2.69-3s1.49-2.34,2.64-3.18a1.28,1.28,0,0,0,.14-.17c.6-.63,1.19-1.27,1.8-1.9,1.14-1.17,2.31-2.32,3.41-3.52.93-1,1.8-2.06,2.66-3.13.69-.86,1.32-1.76,2-2.65a2,2,0,0,0,.19-.5L90.44,0a11.54,11.54,0,0,0-1.12.85c-.63.61-1.2,1.29-1.84,1.88-.81.74-1.66,1.43-2.53,2.1a4.35,4.35,0,0,1-1.39.74,1.32,1.32,0,0,0-.87.7c-.15.27-.36.63-.61.7-.68.19-1,.74-1.42,1.18a1.25,1.25,0,0,1-.33.29.83.83,0,0,0-.47.83,1.64,1.64,0,0,1-.28.87c-.59.75-1.22,1.46-1.85,2.17-.15.17-.45.29-.48.47-.05.35-.26.46-.51.62a7.8,7.8,0,0,0-2.57,2,6.48,6.48,0,0,1-1,.95c-.4.37-.81.73-1.17,1.14-.63.71-1.22,1.46-1.84,2.18-.44.52-.91,1-1.36,1.53-.66.77-1.34,1.52-2,2.31s-1,1.47-1.58,2.18a24.35,24.35,0,0,0-2.84,4.42c-.21.46-.52.88-.75,1.34-.35.7-.71,1.4-1,2.13s-.32,1.34-.57,2a17.59,17.59,0,0,0-1.18,5.26,29.14,29.14,0,0,0,.13,4.38,10,10,0,0,0,.53,2.13C59.66,47.52,59.91,47.69,60.14,48Z"/><path d="M.2,11.55l.25.31,2.08,2.83c.06.08.13.18.21.2.61.13.7.66.89,1.13.36.93.82,1.83,1.12,2.78A47,47,0,0,1,6.32,25c.26,1.54.61,3.07.93,4.61.22,1.08.38,2.18.68,3.23a7.72,7.72,0,0,0,.92,1.89A20.4,20.4,0,0,0,10.45,37c.84,1,1.77,2,2.63,3a18,18,0,0,0,3.22,2.76,37,37,0,0,0,4.36,2.82c2.29,1.2,4.67,2.21,7,3.33,1.08.52,2.13,1.1,3.19,1.65,1.93,1,3.9,1.94,5.79,3a51.09,51.09,0,0,0,5.44,2.57c1.89.8,3.8,1.58,5.67,2.44a41,41,0,0,1,6.51,4,45.28,45.28,0,0,1,5,4,23.68,23.68,0,0,1,1.88,2.05c.86,1,1.7,2.09,2.52,3.16a24.89,24.89,0,0,1,4.27,7.5A29,29,0,0,1,68.66,83c.15.82.2,1.65.31,2.47a1.32,1.32,0,0,0,.1.5,6,6,0,0,1,.5,3.15c0,1.15.06,2.31,0,3.45a24.49,24.49,0,0,1-.42,3.11c-.17.9-.46,1.77-.69,2.66a.39.39,0,0,1,0,.14c-.17.22-.38.64-.51.61a1.35,1.35,0,0,1-.8-.52,12.77,12.77,0,0,1-.73-1.44,8,8,0,0,1-1.07-4.38A10.55,10.55,0,0,0,65,90.84,13,13,0,0,0,64.51,89a12.71,12.71,0,0,0-4.71-6.47c-1.51-1.2-3-2.41-4.58-3.55-1-.7-2-1.31-3-1.92A4.71,4.71,0,0,0,51,76.56c-1.32-.34-2.66-.6-4-1-1.71-.5-3.4-1.08-5.09-1.66-1.2-.41-2.38-.89-3.57-1.34a2.33,2.33,0,0,1-.27-.11C37,71.92,36,71.35,35,70.82c-.85-.43-1.76-.75-2.58-1.21-1.32-.74-2.59-1.57-3.88-2.35-.77-.46-1.58-.86-2.34-1.36s-1.63-1.15-2.43-1.76-1.58-1.23-2.35-1.87S19.8,60.9,19,60.22c-.41-.35-.79-.73-1.23-1a8.65,8.65,0,0,1-1.57-1.9c-1.19-1.54-2.33-3.13-3.4-4.76-.69-1-1.18-2.23-1.8-3.32a39.39,39.39,0,0,1-2.52-6.34c-.47-1.3-.87-2.64-1.3-4-.07-.21-.17-.41-.25-.61a1.88,1.88,0,0,1-.26-.68A8,8,0,0,0,5.89,35c-.5-1.69-1-3.38-1.44-5.08s-.88-3.51-1.29-5.27c-.16-.67-.23-1.35-.37-2-.1-.47-.25-.94-.37-1.41C2,19.58,1.5,18,1.2,16.31,1,15.09.23,14.08.07,12.86A1.74,1.74,0,0,1,.2,11.55Z"/><path d="M60.14,48c-.23-.27-.47-.44-.54-.66a10,10,0,0,1-.53-2.13,29.14,29.14,0,0,1-.13-4.38,17.59,17.59,0,0,1,1.18-5.26c.25-.63.33-1.33.57-2s.63-1.43,1-2.13c.23-.46.54-.88.75-1.34a24.35,24.35,0,0,1,2.84-4.42c.54-.72,1-1.48,1.58-2.18s1.3-1.55,2-2.31c.45-.52.91-1,1.36-1.53.62-.72,1.21-1.47,1.84-2.18.36-.41.78-.76,1.17-1.14a6.48,6.48,0,0,0,1-.95,7.8,7.8,0,0,1,2.57-2c.25-.16.45-.27.51-.62,0-.18.33-.3.48-.47.63-.72,1.27-1.42,1.85-2.17a1.64,1.64,0,0,0,.28-.87.83.83,0,0,1,.47-.83,1.25,1.25,0,0,0,.33-.29c.43-.44.75-1,1.42-1.18.25-.07.45-.43.61-.7a1.32,1.32,0,0,1,.87-.7,4.35,4.35,0,0,0,1.39-.74c.87-.66,1.72-1.36,2.53-2.1.65-.59,1.21-1.28,1.84-1.88A11.54,11.54,0,0,1,90.44,0l.13.11a2,2,0,0,1-.19.5c-.64.89-1.27,1.8-2,2.65-.86,1.07-1.73,2.12-2.66,3.13-1.11,1.2-2.27,2.35-3.41,3.52-.61.63-1.2,1.27-1.8,1.9a1.28,1.28,0,0,1-.14.17c-1.15.84-1.73,2.15-2.64,3.18s-1.81,2-2.69,3c-1.34,1.52-2.65,3.07-4,4.6-.4.46-.78.95-1.21,1.38a5.93,5.93,0,0,0-1,1.74,8.09,8.09,0,0,0-.58,3.2,29.33,29.33,0,0,0,.08,3.3c0,.46,0,.93-.39,1.19a3.31,3.31,0,0,0-1.15,1.9,6.82,6.82,0,0,1-.43.8c-.14.26-.29.51-.43.76-.31.58-.63,1.15-.9,1.75-.43.92-.82,1.87-1.26,2.79-.28.59-.6,1.17-.92,1.73-.41.72-.85,1.43-1.27,2.14S60.67,47,60.14,48Z"/></g></g></svg>