<svg xmlns="http://www.w3.org/2000/svg" viewBox="0 0 82.88 204.9"><defs><style>.cls-1{fill:#fff;}</style></defs><title>资源 2</title><g id="图层_2" data-name="图层 2"><g id="图层_1-2" data-name="图层 1"><path class="cls-1" d="M46,13.74c-.92-.41-1.85-.8-2.77-1.23a.77.77,0,0,1-.38-.38.87.87,0,0,0-.78-.59,25.8,25.8,0,0,0-3.38-.41,9.1,9.1,0,0,0-6.36,2.54,13.6,13.6,0,0,0-2.41,3.25,4,4,0,0,1-.84,1.38c-.07.85-.82,1.62-.27,2.53a.27.27,0,0,1,0,.18,5.09,5.09,0,0,0,.44,2.45,1,1,0,0,0,.32.55,10,10,0,0,1,1.65,1.75,10.35,10.35,0,0,0,5.51,2.92c1,.24,2.11.39,3.17.57a1.77,1.77,0,0,0,.66,0c1-.21,1.89-.45,2.84-.66.33-.08.74,0,1-.19C45,28,45.85,27.81,46.13,27l1.1.56c-.22-.63.18-1.13-.17-1.57l-.55-.08c.37-.32.66-.55.93-.81a5.68,5.68,0,0,0,1.73-2.77c0-.18.19-.33.24-.51a8.71,8.71,0,0,0,.4-1.45,7.13,7.13,0,0,0-1.23-4.77,3.91,3.91,0,0,0-1.84-1.85,1.73,1.73,0,0,0-.25-.28C46.19,13.24,46.11,13.28,46,13.74ZM6.72,71.81h0c.22.45.72.28,1.18.46l-.43.35.16.21a3.44,3.44,0,0,1,.27.27,14.35,14.35,0,0,0,5.32,4,11.27,11.27,0,0,0,7.51.59,6.63,6.63,0,0,0,3-1.52c.44-.41.92-.77,1.37-1.16a17.87,17.87,0,0,0,3.64-4.08,11.42,11.42,0,0,1,2.52-2.81,29.57,29.57,0,0,1,2.79-2.39,5.28,5.28,0,0,0,1-1,9,9,0,0,0,1.4-3.28.62.62,0,0,0-.48-.89A2.73,2.73,0,0,0,35,62a6.9,6.9,0,0,1-.6,1.39A10.17,10.17,0,0,1,31.84,66c-.46.34-1,.78-1.63.54a.4.4,0,0,0-.27.07,4.52,4.52,0,0,1-3.33.17,15.49,15.49,0,0,1-7.29-4.57,17.39,17.39,0,0,1-2.74-4,38.5,38.5,0,0,1-3.88-9.94,29.74,29.74,0,0,1-.54-7.73,21.31,21.31,0,0,1,1.89-8,41.29,41.29,0,0,1,3.8-7.28c.82-1.16,1.46-2.44,2.32-3.57s1.56-2.42,2.43-3.58a33.72,33.72,0,0,0,2.24-3.62c1.26-2.22,2.54-4.43,4-6.53.18-.26.31-.55.46-.82h0c.55-.43.55-.43.11-1.2l.34-1.15c.52.34.52.34.41,1.07a8.59,8.59,0,0,0,1-1.34c.36-.43-.07-.88,0-1.44l.66.75c0-.68-.28-1.22.23-1.63.4,0,.94,0,1.06-.52a1.38,1.38,0,0,1,.69-.84c.21-.15.41-.31.3-.61C32.63-.18,31.07.11,29.54,0a1,1,0,0,0-.86.5L27.4,2.38C26.17,4.18,25,6,23.72,7.77c-1.79,2.56-3.64,5.08-5.43,7.65A79.8,79.8,0,0,0,13.59,23c-1.36,2.49-2.84,4.92-4.31,7.35-.8,1.32-1.72,2.57-2.51,3.9C5.85,35.77,5,37.36,4.14,38.94a30.17,30.17,0,0,0-2.88,6.67A32.29,32.29,0,0,0,0,54.29a23.42,23.42,0,0,0,1.71,8.19A37.24,37.24,0,0,0,4.32,68c.61,1,1,2.3,2.17,2.78ZM6.8,203l1.29.28h.26c.62.41,1.22.85,1.85,1.25a.84.84,0,0,0,.52.12c.59-.08,1.17-.2,1.75-.29,1-.15,1.19-.21,1.47-1.38,0-.22.08-.44.12-.66h.2c.07.22.15.44.22.67.12.42.2.86.35,1.27,0,.12.26.19.46.31a4.56,4.56,0,0,0,.42-2.37c0-.39-.22-.83.42-1,.09,0,.2-.42.13-.58a2.66,2.66,0,0,1,0-1.4,13,13,0,0,0,.47-2.68c0-.07.24-.16.43-.27a4.7,4.7,0,0,0,.26,1.3,6.45,6.45,0,0,1,.44,2.58,4.72,4.72,0,0,0,.13.53l.84-.61c.08.44,0,.72-.37.83a.72.72,0,0,0-.54.58,3.14,3.14,0,0,0,1.21,3.17.67.67,0,0,0,1.11-.22,2,2,0,0,0,.2-.63c.28-1.77.22-2-.79-3.49.62-.26.59-.82.59-1.35a1.05,1.05,0,0,0-.12-.62c-.11-.14-.38-.14-.62-.22,0-.35-.36-.72.13-1.12l.34.77c.16-.48.35-.93,0-1.25l-.86-.09.59-1.7c.65-.29.54-.86.47-1.38a1.69,1.69,0,0,1,.16-.9,3.56,3.56,0,0,0,.28-2.12c-.13-.62-.15-.66-.73-.83-1.58-.47-3.25-.23-4.84-.66a11.92,11.92,0,0,1-2.72-.09,3.74,3.74,0,0,0-1.59.1,1.34,1.34,0,0,1-1.49-.17l-3.44.06H4a12.68,12.68,0,0,0-1.5,0c-.69.1-.85.25-.91,1-.11,1.26-.18,2.52-.24,3.78a.76.76,0,0,0,.46.75c.42.22.54.58.22.85a1.22,1.22,0,0,0-.37,1.2c.06.66-.08,1.37.42,2,.1.12,0,.43,0,.63a12.61,12.61,0,0,0-.14,2.82s.07.09.22.25c.1-.73.18-1.36.26-2A7.15,7.15,0,0,1,3,198.14c.9.3.37,1.22.87,1.73.54-.47.44-1.12.52-1.67a12.87,12.87,0,0,0,0-1.75h.16l.32.93c.4-.29.13-.87.61-1.08a1.93,1.93,0,0,1,.86,1.21,8.44,8.44,0,0,1-.23,3.94l-.65-.82a3.19,3.19,0,0,0,0-2.8,1.54,1.54,0,0,0-.19.33c-.19,1-.38,2-.54,3,0,.16,0,.45.16.5.57.27.52.82.63,1.32l.87.42Zm76-44.42a.56.56,0,0,0-.25-.75l-.1,0c-1-.53-2.09-1-3.12-1.6s-2-1.13-3-1.73c-1.58-.93-3.14-1.88-4.71-2.83-.62-.37-1.24-.75-1.85-1.14s-.92-.66-1.41-.95c-.68-.4-1.39-.75-2.08-1.14-.34-.19-.78-.28-.85-.8,0-.11-.23-.19-.37-.27-1.34-.78-2.7-1.52-4-2.33-2.23-1.38-4.46-2.76-6.65-4.21-1.68-1.12-3.31-2.32-4.94-3.51q-1.65-1.2-3.24-2.46a16.41,16.41,0,0,1-2-1.83q-1.63-1.84-3.12-3.8a45.4,45.4,0,0,1-3.44-5.66,40.5,40.5,0,0,1-3.64-9c-.86-3.2-1.71-6.42-2.41-9.66-.44-2-.59-4.06-.87-6.09-.11-.81-.21-1.63-.32-2.44a.85.85,0,0,0-.2-.51,2.87,2.87,0,0,0-2.66-.9c-.51.15-.67.22-.66.75a1.13,1.13,0,0,1-.25.77,1.62,1.62,0,0,0-.24,1.18c.08,1.29.15,2.58.24,3.88a15.09,15.09,0,0,0,.19,1.79c.41,2.17.86,4.34,1.29,6.51A32.81,32.81,0,0,0,30.4,117c.51,1.12,1,2.23,1.57,3.35A41.69,41.69,0,0,0,43.51,135.2a49.69,49.69,0,0,0,6.26,4.9c1.88,1.16,3.65,2.5,5.48,3.75.83.57,1.67,1.14,2.53,1.66,1.11.66,2.28,1.2,3.34,1.94a24.46,24.46,0,0,0,2.35,1.4c2.17,1.17,4.33,2.34,6.52,3.46,1.65.85,3.35,1.63,5,2.46,2.06,1,4.11,2.11,6.17,3.15.5.24,1,.42,1.63.66ZM16.88,204.76a2.42,2.42,0,0,0,.45-1.39,10.57,10.57,0,0,0,0-1.41c0-.46.31-.94,0-1.48-.26.5-.49.9-.68,1.32a1.58,1.58,0,0,0,0,1.45,3.22,3.22,0,0,1,.2.9,3,3,0,0,0,0,.6Zm-13-4a1.27,1.27,0,0,0-.5,1.23.41.41,0,0,0,.31.26A.4.4,0,0,0,4,202c0-.41-.06-.81-.09-1.21Zm-1-.24c-.12.09-.24.15-.24.18a1,1,0,0,0,.14.27.29.29,0,0,0,.2-.12,1.14,1.14,0,0,0-.11-.34ZM48,25.09c-.08.06-.17.11-.16.12a1.13,1.13,0,0,0,.13.2s.14-.08.13-.1a.91.91,0,0,0-.12-.23Zm1.09,0L49.3,25l-.15-.31s-.12.07-.12.09a2.47,2.47,0,0,0,.09.32Z"/><path d="M29.31,7.25c-.15.27-.28.56-.46.82-1.45,2.11-2.72,4.31-4,6.53a33.72,33.72,0,0,1-2.24,3.62c-.87,1.16-1.55,2.43-2.43,3.58s-1.5,2.41-2.32,3.57a41.29,41.29,0,0,0-3.8,7.28,21.31,21.31,0,0,0-1.89,8,29.74,29.74,0,0,0,.54,7.73,38.5,38.5,0,0,0,3.88,9.94,17.39,17.39,0,0,0,2.74,4,15.49,15.49,0,0,0,7.29,4.57A4.52,4.52,0,0,0,30,66.72a.4.4,0,0,1,.27-.07c.69.24,1.17-.2,1.63-.54a10.17,10.17,0,0,0,2.53-2.66,6.9,6.9,0,0,0,.6-1.39,2.73,2.73,0,0,1,1-1.43.62.62,0,0,1,.48.89c-.44,1.1-.56,2.35-1.4,3.28a5.28,5.28,0,0,1-1,1,29.57,29.57,0,0,0-2.79,2.39A11.42,11.42,0,0,0,28.75,71a17.87,17.87,0,0,1-3.64,4.08c-.45.39-.93.76-1.37,1.16a6.63,6.63,0,0,1-3,1.52,11.27,11.27,0,0,1-7.51-.59,14.35,14.35,0,0,1-5.32-4c-.08-.1-.18-.17-.27-.27l-.16-.21.43-.35c-.46-.18-1,0-1.18-.46a.35.35,0,0,0,.39-.4c-.12,0-.22,0-.26.09a1.41,1.41,0,0,0-.12.32L6.53,71c-1.2-.48-1.56-1.74-2.17-2.78a37.24,37.24,0,0,1-2.61-5.56A23.42,23.42,0,0,1,0,54.46,32.29,32.29,0,0,1,1.3,45.78a30.17,30.17,0,0,1,2.88-6.67c.87-1.58,1.71-3.17,2.63-4.72.79-1.33,1.71-2.58,2.51-3.9,1.47-2.43,3-4.86,4.31-7.35a79.8,79.8,0,0,1,4.7-7.55C20.12,13,22,10.5,23.76,7.94,25,6.16,26.22,4.35,27.44,2.55L28.72.67a1,1,0,0,1,.86-.5c1.53.11,3.09-.18,4.61.27.11.31-.09.46-.3.61a1.38,1.38,0,0,0-.69.84c-.12.56-.67.47-1.06.52-.5.41-.21,1-.23,1.63l-.66-.75c-.13.57.3,1,0,1.44a8.59,8.59,0,0,1-1,1.34c.12-.73.12-.73-.41-1.07l-.34,1.15c.44.77.44.77-.11,1.2a.54.54,0,0,0-.55-.46c-.14.26-.43.48-.2.92ZM10,73.35h0c0-.26-.12-.54-.41-.55a2.14,2.14,0,0,0-.89.16.32.32,0,0,0,0,.59,2.36,2.36,0,0,0,1.51.12Zm.75-21.93a1.59,1.59,0,0,1,.87,1.05,9.75,9.75,0,0,0,.36,1l2,4.59a23.55,23.55,0,0,0,2.43,4.16,17.87,17.87,0,0,0,3.49,3.57,12.06,12.06,0,0,0,5.35,2.49,10.91,10.91,0,0,0,4,0c.14,0,.26-.17.39-.25l0-.18a3,3,0,0,0-.89.09,8.4,8.4,0,0,1-3.29-.24,12.5,12.5,0,0,1-4.52-2.1,11.14,11.14,0,0,1-2.49-2.16c-.19-.25-.41-.47-.61-.71a14.15,14.15,0,0,1-1-1.2c-.49-.7-.92-1.43-1.37-2.16a13.28,13.28,0,0,1-1.64-3.29,2.85,2.85,0,0,0-.69-1.53c-.1-.09-.09-.29-.14-.44a5.38,5.38,0,0,0-.22-.6,2.42,2.42,0,0,1-.41-1.12,3.74,3.74,0,0,0-.45-1.2.35.35,0,0,1,0-.19c.2-1-.62-1.77-.5-2.76,0-.27-.35-.6-.62-1-.22,1.51.58,2.76.62,4.12Zm1.16,17.12c-.59-.42-1.12-.19-1.73-.07.2.25.44.44.35.82s.26.54.61.56.55-.08.59-.45A8.07,8.07,0,0,1,11.87,68.54Zm2.68,1c-.48-1.14-.78-1.32-1.77-1l.43.1a.82.82,0,0,1,.75.5c.07.2-.09.46-.11.7a2.24,2.24,0,0,0,.09.5Zm-5.88.12c.89-.24.12-.88.5-1.21L9,68.33l-.69.35ZM7.51,71.09c.61,1.11.75,1.19,1.25.68A1.64,1.64,0,0,0,7.51,71.09Zm3.91-15.24a1.15,1.15,0,0,0,.49-1.19l-.71.43Zm-.76-9.31c.47-.24.71-.47.63-.86,0-.11-.27-.16-.48-.28Zm.44,26.67c.3.19.46.35.64.38a.52.52,0,0,0,.62-.31c-.44-.08-.72-.36-1.31-.07ZM22.74,15.78l.52.47c.34-.7.35-.72.13-.86Zm-8.21,55c-.76-.19-.76-.19-1.14.15ZM24,14l-.12.9c.47-.35.47-.35.08-.86ZM9.47,58.89a.67.67,0,0,0,.12.94l.09.06a1.48,1.48,0,0,0,0-.41,3.67,3.67,0,0,0-.25-.56ZM25.69,11.1c0,.48,0,.48.49.51Zm-9.9,60.75a1.45,1.45,0,0,0-.24-.16.72.72,0,0,0-.19.28l.17.18Zm7-54.77a1.86,1.86,0,0,0,.14-.44c0-.06-.13-.19-.15-.18a.69.69,0,0,0-.27.2,2,2,0,0,0,.24.46ZM8.51,66.41l-.13.1a1.28,1.28,0,0,0,.21.26,1.49,1.49,0,0,0,.33.14L9,66.79Zm5.37,4.84c.49.26.49.26.82.06ZM24.79,13l-.08.15.41.17.06-.14Zm-4.26,7.31-.23-.13c0,.08-.11.16-.09.23s.12.1.18.15ZM6.91,67.57l.06.22.4-.13c0-.05,0-.15-.06-.15l-.37.05ZM10,49.38a2,2,0,0,0-.13.35s0,.14.08.14a.91.91,0,0,0,.22-.08Zm.86,25.4.16-.09a.88.88,0,0,0-.17-.15.16.16,0,0,0-.13.07Zm5.37,2.12-.15.11a1.17,1.17,0,0,0,.14.17s.12-.07.12-.09a1,1,0,0,0-.07-.19Zm-5.94-4.8-.18.05a.61.61,0,0,0,.13.16h.15Zm3.49.13L13.49,72l-.12.08s.15.17.23.24Z"/><path d="M46.76,13.74a3.91,3.91,0,0,1,1.84,1.85,7.13,7.13,0,0,1,1.23,4.77,8.71,8.71,0,0,1-.4,1.45c-.06.18-.2.33-.24.51a5.68,5.68,0,0,1-1.73,2.77c-.27.25-.56.49-.93.81l.55.08c.35.44,0,.94.17,1.57L46.15,27c-.28.81-1.11,1-1.73,1.41-.26.17-.66.11-1,.19-1,.22-1.89.45-2.84.66a1.77,1.77,0,0,1-.66,0c-1.06-.18-2.12-.33-3.17-.57a10.35,10.35,0,0,1-5.51-2.92A10,10,0,0,0,29.59,24a1,1,0,0,1-.32-.55A5.09,5.09,0,0,1,28.83,21a.27.27,0,0,0,0-.18c-.55-.91.2-1.69.27-2.53.48-.35.57-.91.84-1.38a13.6,13.6,0,0,1,2.39-3.25,9.1,9.1,0,0,1,6.36-2.52,25.8,25.8,0,0,1,3.38.41.87.87,0,0,1,.78.59.77.77,0,0,0,.38.38c.92.42,1.84.82,2.77,1.23h0c.51.34.51.34.78,0Z"/><path d="M6.8,203l-.45.42L5.48,203c-.1-.5-.06-1-.63-1.32-.11,0-.19-.34-.16-.5.16-1,.35-2,.54-3a1.54,1.54,0,0,1,.19-.33,3.19,3.19,0,0,1,0,2.8l.65.82a8.44,8.44,0,0,0,.23-3.94,1.93,1.93,0,0,0-.86-1.21c-.48.2-.21.79-.61,1.08l-.32-.93H4.37a12.87,12.87,0,0,1,0,1.75c-.08.55,0,1.2-.52,1.67-.5-.51,0-1.44-.87-1.73a7.15,7.15,0,0,0-.57,1.89c-.09.63-.17,1.25-.26,2-.14-.16-.22-.21-.22-.25A12.61,12.61,0,0,1,2.07,199c.06-.2.11-.51,0-.63-.51-.58-.36-1.29-.42-2a1.22,1.22,0,0,1,.37-1.2c.32-.27.2-.64-.22-.85a.76.76,0,0,1-.46-.75c.07-1.26.13-2.52.24-3.78.07-.74.22-.89.91-1a12.68,12.68,0,0,1,1.5,0H5.87l3.44-.06a1.34,1.34,0,0,0,1.49.17,3.74,3.74,0,0,1,1.59-.1,11.92,11.92,0,0,0,2.72.09c1.58.43,3.26.2,4.84.66.58.17.6.21.73.83a3.56,3.56,0,0,1-.28,2.12,1.69,1.69,0,0,0-.16.9c.07.52.18,1.09-.47,1.38l-.59,1.7.86.09c.3.33.11.78,0,1.25l-.34-.77c-.49.41-.11.78-.13,1.12.24.08.51.08.62.22a1.05,1.05,0,0,1,.12.62c0,.53,0,1.1-.59,1.35,1,1.5,1.06,1.73.79,3.49a2,2,0,0,1-.2.63.67.67,0,0,1-1.11.22,3.14,3.14,0,0,1-1.21-3.17.72.72,0,0,1,.54-.58c.38-.11.45-.38.37-.83l-.84.61a4.72,4.72,0,0,1-.13-.53,6.45,6.45,0,0,0-.44-2.58,4.7,4.7,0,0,1-.26-1.3c-.19.12-.44.21-.43.27a13,13,0,0,1-.47,2.68,2.66,2.66,0,0,0,0,1.4c.07.15,0,.56-.13.58-.64.13-.47.56-.42,1a4.56,4.56,0,0,1-.42,2.37c-.2-.13-.41-.19-.46-.31-.15-.41-.23-.85-.35-1.27-.06-.23-.14-.45-.22-.67h-.2A2.48,2.48,0,0,1,14,203c-.28,1.18-.45,1.24-1.47,1.38-.59.08-1.17.21-1.75.29a.84.84,0,0,1-.52-.12c-.62-.4-1.23-.84-1.85-1.25H8.11Zm12.71-3.83c-.15.22-.16.4.12.5a.17.17,0,0,0,.15-.08C19.82,199.36,19.78,199.19,19.51,199.18Z"/><path d="M82.79,158.58c-.59-.24-1.13-.42-1.63-.68-2.06-1-4.1-2.11-6.17-3.15-1.66-.84-3.36-1.61-5-2.46-2.19-1.13-4.36-2.29-6.52-3.46a24.46,24.46,0,0,1-2.35-1.4c-1.06-.74-2.24-1.28-3.34-1.94-.87-.52-1.7-1.09-2.53-1.66-1.83-1.25-3.59-2.59-5.48-3.75a49.69,49.69,0,0,1-6.26-4.9,41.69,41.69,0,0,1-11.62-14.9c-.51-1.12-1.06-2.22-1.57-3.35a32.81,32.81,0,0,1-2.31-7.2c-.43-2.17-.87-4.33-1.29-6.51a15.09,15.09,0,0,1-.19-1.79c-.09-1.29-.15-2.58-.24-3.88a1.62,1.62,0,0,1,.24-1.18,1.13,1.13,0,0,0,.25-.77c0-.53.15-.61.66-.75a2.87,2.87,0,0,1,2.66.9.85.85,0,0,1,.2.51c.12.81.21,1.63.32,2.44.28,2,.44,4.09.87,6.09.71,3.24,1.55,6.45,2.41,9.66a40.5,40.5,0,0,0,3.64,9A45.4,45.4,0,0,0,41,129.11q1.49,2,3.12,3.8a16.41,16.41,0,0,0,2,1.83q1.59,1.28,3.24,2.46c1.63,1.19,3.26,2.39,4.94,3.51,2.19,1.45,4.41,2.84,6.65,4.21,1.32.81,2.67,1.55,4,2.33.13.08.35.17.37.27.07.52.51.61.85.8.69.39,1.4.74,2.08,1.14.49.29.93.64,1.41.95s1.23.77,1.85,1.14c1.57.95,3.14,1.9,4.71,2.83,1,.59,2,1.17,3,1.73s2.08,1.07,3.12,1.6a.56.56,0,0,1,.42.87Z"/><path d="M16.87,204.75a1.76,1.76,0,0,0-.07-.6,3.22,3.22,0,0,0-.2-.9,1.58,1.58,0,0,1,0-1.45c.19-.42.42-.82.68-1.32.35.54,0,1,0,1.48a10.57,10.57,0,0,1,0,1.41A2.42,2.42,0,0,1,16.87,204.75Z"/><path d="M3.87,200.75c0,.4.09.8.09,1.19a.4.4,0,0,1-.27.29.41.41,0,0,1-.31-.26A1.27,1.27,0,0,1,3.87,200.75Z"/><path d="M46,13.74c.11-.45.19-.5.5-.28a1.73,1.73,0,0,1,.25.28H46Z"/><path d="M2.87,200.51a1.14,1.14,0,0,1,.1.34l-.2.12a1,1,0,0,1-.14-.27Z"/><path d="M48,25.08a.91.91,0,0,1,.1.22l-.13.1a1.13,1.13,0,0,1-.13-.2Z"/><path d="M49.12,25.1a2.47,2.47,0,0,1-.1-.31l.12-.09.15.31Z"/><path class="cls-1" d="M10.71,51.42l.53-.09c0-1.36-.83-2.61-.62-4.12.26.41.65.74.62,1-.12,1,.69,1.78.5,2.76a.35.35,0,0,0,0,.19,3.74,3.74,0,0,1,.45,1.2,2.42,2.42,0,0,0,.41,1.12,5.38,5.38,0,0,1,.22.6c0,.15,0,.35.14.44A2.85,2.85,0,0,1,13.65,56a13.28,13.28,0,0,0,1.64,3.29c.45.73.88,1.46,1.37,2.16a14.15,14.15,0,0,0,1,1.2,8.17,8.17,0,0,1,.61.71,11.14,11.14,0,0,0,2.49,2.16,12.5,12.5,0,0,0,4.52,2.1,8.4,8.4,0,0,0,3.29.24,8.94,8.94,0,0,0,.89-.09l0,.18c-.13.09-.25.23-.39.25a10.91,10.91,0,0,1-4,0,12.06,12.06,0,0,1-5.35-2.49,17.87,17.87,0,0,1-3.49-3.57A23.55,23.55,0,0,1,13.85,58l-2-4.59a9.75,9.75,0,0,1-.36-1A1.59,1.59,0,0,0,10.71,51.42Z"/><path class="cls-1" d="M11.87,68.54c-.06.31-.14.58-.17.85a.53.53,0,0,1-.59.45c-.31,0-.68-.27-.61-.56s-.16-.57-.35-.82C10.75,68.35,11.28,68.12,11.87,68.54Zm-.52,0c-.38.36-.42.57,0,.92Z"/><path class="cls-1" d="M14.51,69.5l-.62.78a2.24,2.24,0,0,1-.09-.5c0-.24.18-.5.11-.7a.82.82,0,0,0-.75-.5l-.43-.1C13.78,68.18,14.08,68.36,14.51,69.5Z"/><path class="cls-1" d="M10,73.35l.28.34a2.36,2.36,0,0,1-1.51-.12.32.32,0,0,1,0-.59,2.14,2.14,0,0,1,.89-.16c.29,0,.37.29.41.55a1.28,1.28,0,0,0-1.22-.09A1.12,1.12,0,0,0,10,73.35Z"/><path class="cls-1" d="M8.68,69.67l-.33-1L9,68.32l.15.12C8.8,68.74,9.57,69.38,8.68,69.67Z"/><path class="cls-1" d="M7.51,71.09a1.64,1.64,0,0,1,1.25.68C8.22,72.28,8.07,72.2,7.51,71.09Z"/><path class="cls-1" d="M11.38,55.85l-.22-.76.71-.43A1.15,1.15,0,0,1,11.38,55.85Z"/><path class="cls-1" d="M10.61,46.54l.16-1.14c.2.11.46.17.48.28C11.33,46.07,11.09,46.3,10.61,46.54Z"/><path class="cls-1" d="M29.31,7.25l-.76.47c-.23-.44.06-.66.2-.92a.54.54,0,0,1,.55.46Z"/><path class="cls-1" d="M11.05,73.21c.58-.28.86,0,1.25.06a.52.52,0,0,1-.62.31C11.51,73.56,11.36,73.4,11.05,73.21Z"/><path class="cls-1" d="M22.69,15.78l.65-.39c.21.14.21.16-.13.86Z"/><path class="cls-1" d="M14.51,70.82,13.37,71C13.73,70.67,13.73,70.67,14.51,70.82Z"/><path class="cls-1" d="M24,14.07c.39.51.39.51-.12.9Z"/><path class="cls-1" d="M9.43,58.92a3.67,3.67,0,0,1,.25.54,1.48,1.48,0,0,1,0,.41A.67.67,0,0,1,9.4,59Z"/><path class="cls-1" d="M25.65,11.14l.49.51C25.69,11.61,25.69,11.61,25.65,11.14Z"/><path class="cls-1" d="M15.75,71.89l-.27.29c-.06-.06-.18-.14-.17-.18a.72.72,0,0,1,.19-.28A1.45,1.45,0,0,1,15.75,71.89Z"/><path class="cls-1" d="M22.7,17.12a3.84,3.84,0,0,1-.28-.42.69.69,0,0,1,.27-.2s.16.12.15.18A1.86,1.86,0,0,1,22.7,17.12Z"/><path class="cls-1" d="M8.51,66.41l.48.38-.06.12a1.49,1.49,0,0,1-.33-.14,1.28,1.28,0,0,1-.21-.26Z"/><path class="cls-1" d="M13.92,71.24l.82.06C14.42,71.5,14.42,71.5,13.92,71.24Z"/><path class="cls-1" d="M24.83,13l.39.19-.06.14-.41-.17Z"/><path class="cls-1" d="M20.57,20.31l-.14.25a.25.25,0,0,1-.18-.15c0-.06.06-.15.09-.23Z"/><path class="cls-1" d="M6.94,67.56c.13,0,.27-.05.4-.06s0,.1.06.15l-.4.13Z"/><path class="cls-1" d="M10,49.37l.17.42a.91.91,0,0,1-.22.08s-.08-.09-.08-.14A2,2,0,0,1,10,49.37Z"/><path class="cls-1" d="M10.88,74.78l-.15-.17s.11-.09.13-.07a.88.88,0,0,1,.17.15Z"/><path class="cls-1" d="M16.25,76.9a1,1,0,0,1,.11.2s-.11.1-.12.09A1.17,1.17,0,0,1,16.1,77Z"/><path class="cls-1" d="M6.72,71.81a1.41,1.41,0,0,1,.12-.32l.26-.09c0,.33-.21.35-.39.4Z"/><path class="cls-1" d="M10.31,72.1l.1.18s-.12.06-.15,0a.61.61,0,0,1-.13-.16Z"/><path class="cls-1" d="M13.8,72.23l-.16.14-.23-.24c-.07-.08.1-.09.12-.08Z"/><path class="cls-1" d="M46,13.72h.78C46.51,14.06,46.51,14.06,46,13.72Z"/><path class="cls-1" d="M19.51,199.18c.31,0,.35.18.27.42a.17.17,0,0,1-.15.08C19.31,199.58,19.31,199.4,19.51,199.18Z"/><path d="M11.35,68.57v.92C10.93,69.14,11,68.93,11.35,68.57Z"/><path d="M10,73.35a1.12,1.12,0,0,1-1.21-.08,1.28,1.28,0,0,1,1.22.09Z"/></g></g></svg>