<svg xmlns="http://www.w3.org/2000/svg" viewBox="0 0 141 182.82"><defs><style>.cls-1{fill:#fff;}</style></defs><title>资源 3</title><g id="图层_2" data-name="图层 2"><g id="图层_1-2" data-name="图层 1"><path class="cls-1" d="M0,182.82V.39C0,.07.07,0,.39,0M141,0,52.77,102l.21-.24c.47-.5.91-1,1.41-1.5A1.34,1.34,0,0,1,55,100a1.19,1.19,0,0,0,.46,0,2,2,0,0,1,1.66.46.35.35,0,0,0,.49.06l.06-.06c.36-.4.74-.78,1.11-1.16s1-1.05,1.5-1.55,1.33-1.22,2-1.79c1-.84,2.08-1.69,3.16-2.46,1.45-1,3-2,4.43-3a.55.55,0,0,0,.31-.59.69.69,0,0,1,.28-.7,1.1,1.1,0,0,0,.33-.53c.09-.33.14-.67.52-.8.14-.53.68-.59,1-.87A17.77,17.77,0,0,1,74,86a12.4,12.4,0,0,1,1.41-.82c.68-.3,1.39-.53,2.09-.78h.28a4.94,4.94,0,0,0,.81-.28c.08,0,.09-.23.15-.4.22.39.51.33.83.17a3.52,3.52,0,0,1,.67-.27,1.25,1.25,0,0,1,.57,0A.83.83,0,0,0,82,83.18h.17c0,.24.15.08.23.06l2.08-.59a4.19,4.19,0,0,0,.57-.16c1.24-.55,2.46-1.14,3.7-1.67a29,29,0,0,0,4.18-2.2l3.43-2.17c1-.61,2-1.17,2.89-1.83a45,45,0,0,0,5.1-4c.66-.63,1.35-1.24,2-1.85s1.58-1.45,2.41-2.13A17.23,17.23,0,0,0,111.55,64c.84-1.07,1.63-2.19,2.45-3.28a.55.55,0,0,1,.35-.22,21.54,21.54,0,0,1,4.35.22,12.2,12.2,0,0,0,2.78.12c.71,0,1.43-.09,2.14-.15a.65.65,0,0,0,.33-.06l1-.07a3.2,3.2,0,0,0,.86-.07,3,3,0,0,1,1.08-.1c-.08.12-.18.22-.19.32s.15.12.23.18a1.21,1.21,0,0,0,.24.14l.36.09c-.25-.49-.18-.72.27-.86a1,1,0,0,1,.34,0,1.63,1.63,0,0,0,1-.2,1.63,1.63,0,0,1,.75-.24,1.43,1.43,0,0,0,1.09-.23,3.68,3.68,0,0,1,.76-.43.5.5,0,0,0,.32-.62c-.08-.3-.19-.54-.55-.61a5.51,5.51,0,0,1-1.49-.42,6.55,6.55,0,0,0-2.1-.33c-.22,0-.39,0-.5-.25s-.24-.28-.37,0-.33.3-.63.19l.39-.31v-.09h-.29a2.52,2.52,0,0,1-1.43.45,5.64,5.64,0,0,0-1.47.32,1.16,1.16,0,0,1-.3,0c-.56,0-1.12-.06-1.68-.06-.31,0-.62.08-.93.07-1,0-2-.1-2.94-.11-.33,0-.6,0-.74-.38-.19.33-.39.39-.84.31-.18,0-.24-.12-.29-.3-.09-.36.12-.62.23-.91.24-.71.48-1.41.74-2.11s.48-1.16.68-1.75.33-1.12.48-1.69c.19-.76.37-1.53.55-2.3,0-.14.08-.3-.17-.27l-.08-.17h.16c.07,0,.18-.06.19-.11a1.82,1.82,0,0,0,.08-.5c0-.72.31-1.45-.11-2.18.33,0,.25-.18.26-.34V43.34c0-1.39-.08-2.79-.17-4.18a19.57,19.57,0,0,0-.26-2.52c-.11-.84-.27-1.67-.45-2.5a27.23,27.23,0,0,0-.7-2.92c-.49-1.47-1.06-2.91-1.63-4.36a21,21,0,0,0-1-2.19,9.44,9.44,0,0,0-2.87-3c-.9-.67-1.85-1.28-2.81-1.89a14.8,14.8,0,0,0-5.9-2.22,22.42,22.42,0,0,0-4-.19,21.92,21.92,0,0,0-4,.48q-1.59.35-3.17.75c-.91.23-1.82.47-2.72.76s-1.46.59-2.2.85a12.74,12.74,0,0,0-3,1.43c-.68.45-1.32,1-2,1.44L77.53,26.3c-.25.18-.49.38-.73.58a13.8,13.8,0,0,0-2,1.73,14.72,14.72,0,0,0-2.13,3.93l-.09.18h0l.52-1.88H73c-.22.5-.47,1-.66,1.49A23.14,23.14,0,0,0,71,37.87a25.61,25.61,0,0,0,.08,5.62,18.44,18.44,0,0,0,1.44,5.2,17,17,0,0,0,3,4.67A16,16,0,0,0,78.6,56a14.47,14.47,0,0,0,4.81,2.12c1.49.33,3,.61,4.49.81,2.18.29,4.37.52,6.56.74,1.46.14,2.93.2,4.39.3.45,0,.5.09.44.55a5.8,5.8,0,0,1-.88,2.27A10.71,10.71,0,0,1,96.64,65c-.84.81-1.65,1.65-2.49,2.46s-1.57,1.45-2.35,2.18c-.39.36-.75.77-1.16,1.09-.78.6-1.64,1.1-2.38,1.75a23,23,0,0,1-4,2.62C83,75.8,81.72,76.4,80.45,77l-3.17,1.39c-1.15.57-2.29,1.14-3.45,1.69s-2.32,1-3.46,1.6S68.1,82.91,67,83.53c-2.27,1.26-4.54,2.51-6.79,3.8-.94.54-1.83,1.14-2.74,1.73-.74.48-1.48,1-2.19,1.5-.88.67-1.74,1.39-2.59,2.1s-2,1.68-2.93,2.54Q48,96.75,46.3,98.33c-.32.3-.6.66-.91,1l.18.13c.28.14.55.28.51.68,0,.06.11.16.19.19a9.9,9.9,0,0,1,1,.31,1.08,1.08,0,0,1,.56.4c.14.28.24.21.45.12a1.34,1.34,0,0,1,.61-.1,8.11,8.11,0,0,1,1.43.17.68.68,0,0,1,.38.23c.34.42.85.28,1.28.4a.17.17,0,0,0,.14-.08c.3-.23.49-.18.63.22ZM75,26.27c-.06-.43,0-.6.46-.5.2,0,.6.18.74-.28a1.1,1.1,0,0,1-.33,0c-.09,0-.15-.12-.22-.19a1.33,1.33,0,0,1,.23-.14h.21a5.57,5.57,0,0,0,.23-.52l.35.09-.15-.38.44.12a1.17,1.17,0,0,0,.22-.43A1.21,1.21,0,0,1,77.69,23a.12.12,0,0,0,0-.11c-.19-.38-.08-.8-.17-1.17-.13-.57-.1-1.27-.74-1.62a.11.11,0,0,1,0-.07l-.18-.78a1.83,1.83,0,0,1-.55,0,.88.88,0,0,1-.46-.3,2.33,2.33,0,0,1-.16-.55,6,6,0,0,0-2.15-2.92,9,9,0,0,0-3.16-1.27,5.48,5.48,0,0,0-4,.56,7.37,7.37,0,0,0-2.78,3c.12.52-.25.19-.54.21A.65.65,0,0,1,63,19l-.18-.26c-.12.16-.3.3-.3.43a2.12,2.12,0,0,1-.29,1.25.19.19,0,0,0,0,.12,2.07,2.07,0,0,1,0,.95c0,.09.19.24.3.36s-.26.32,0,.47.14.23.09.4-.27.43.15.46c0,0,.08.09.07.14a.9.9,0,0,0,.52,1.1v.08c.22.41.52.77.78,1.16a2.07,2.07,0,0,0,1.09.65,8.5,8.5,0,0,0,1.85.58,5.35,5.35,0,0,1,.77.18,6.3,6.3,0,0,0,1,.2h1.42c.66,0,.83,0,1.1-.28s.21-.16.34-.09a.48.48,0,0,0,.5-.14h.09V27h.1l.28-.49a3,3,0,0,0,.55,0,.72.72,0,0,1,.06-.3c.06-.09.37.12.39.09.13-.23.3-.14.48-.12a.46.46,0,0,0,.34-.08C74.67,26,74.79,26.09,75,26.27ZM36,160.82a1.71,1.71,0,0,0-.29-.37l-2-1.36c-.21-.14-.44-.26-.65-.4-.72-.46-1.42-1-2.15-1.39-1-.61-2-1.17-3.06-1.77-.86-.51-1.69-1.06-2.55-1.58-.51-.31-1-.6-1.56-.92s-.68-.55-1-.78c-1.11-.68-2.23-1.33-3.34-2l-1.53-.9c-.18-.1-.41-.2-.53,0a.59.59,0,0,0,0,.52,2.18,2.18,0,0,0,.71.76,2.68,2.68,0,0,1,1.09,1.11,6.84,6.84,0,0,0,.33.62c.32.4.67.78,1,1.17a10.63,10.63,0,0,1,1.07,1.28,2.67,2.67,0,0,0,1.42,1c1.31.55,2.53,1.29,3.85,1.82,2.77,1.13,5.57,2.17,8.35,3.26A.75.75,0,0,0,36,160.82ZM35.3,106a.75.75,0,0,0,.1.17c.47.42.94.85,1.42,1.26l2.74,2.32,2.13,1.85c.29.25.59.48.89.71,1.13.88,2.23,1.82,3.42,2.62a25.6,25.6,0,0,0,2.62,1.37c.26.13.5.31.75.45.42.23.85.43,1.27.66a4.53,4.53,0,0,0,.89.56c.84.23,1.7.38,2.56.54.12,0,.28-.14.42-.22a1.74,1.74,0,0,0-.18-.31,1.89,1.89,0,0,0-.29-.24c-.61-.46-1.22-.9-1.82-1.37-.86-.68-1.7-1.4-2.57-2.06s-1.5-1-2.23-1.58-1.21-.93-1.82-1.37c-.43-.31-.88-.6-1.34-.88s-1.23-.72-1.85-1.08l-.75-.45-1.46-.84a21.6,21.6,0,0,1-2.52-1.27,13.13,13.13,0,0,0-2.09-.86s-.13,0-.25,0ZM12.7,153.19l-.09.07a3.56,3.56,0,0,0,.33.54c.28.32.59.61.88.91A37.58,37.58,0,0,1,17,157.63a10.48,10.48,0,0,1,.82,1.12,5.59,5.59,0,0,0,1.53,1.67,32.12,32.12,0,0,0,4.11,2.82c1,.56,2,1.17,3,1.67s2.37,1,3.55,1.48c.26.11.51.17.67-.12s-.08-.43-.28-.57l-2.11-1.52c-.18-.13-.41-.18-.59-.31-.59-.4-1.15-.84-1.74-1.24s-1.22-.76-1.81-1.16-1.14-.81-1.72-1.21L21,159.33c-.48-.34-1-.66-1.43-1s-1.08-.94-1.62-1.4a1.18,1.18,0,0,0-.21-.13,6.54,6.54,0,0,1-1-.53,32.06,32.06,0,0,1-2.53-2.12,6.82,6.82,0,0,0-1.5-1Zm9.57,19.12a.43.43,0,0,0,.32-.17.51.51,0,0,0-.07-.38.68.68,0,0,0-.28-.25c-.32-.17-.67-.29-1-.48-.76-.46-1.49-1-2.24-1.43a17.5,17.5,0,0,1-2-1.25,17.44,17.44,0,0,0-2-1.18,5.75,5.75,0,0,1-.68-.33,6.79,6.79,0,0,0-2.31-1c-.4-.12-.57,0-.72.37a1.8,1.8,0,0,0-.06.62c0,.18.06.36.07.54a1.28,1.28,0,0,0,.63,1.36c.42.23.72.67,1.13.94a12.28,12.28,0,0,0,4,1.75c1.77.39,3.5.6,5.25.89ZM47.1,129.48a1.25,1.25,0,0,0,.33-.27.79.79,0,0,0-.15-.29c-.52-.39-1-.79-1.58-1.15s-1.48-.93-2.23-1.37c-1.12-.66-2.25-1.29-3.37-1.94a19.21,19.21,0,0,1-3.3-2,1.23,1.23,0,0,0-.21-.14l-2.78-1.59c-.44-.25-.86-.53-1.3-.77s-.78-.38-1.18-.56-.84-.39-1.27-.57a.28.28,0,0,0-.22,0V119a1.34,1.34,0,0,0,.23.3c.53.48,1.06,1,1.61,1.43.81.67,1.6,1.37,2.46,2q2,1.4,4.16,2.66c.83.49,1.75.83,2.6,1.28s1.5.89,2.25,1.33a6.87,6.87,0,0,0,1,.55c.57.22,1.16.38,1.74.57Zm-4,9.81a.46.46,0,0,0,.31-.18c.06-.1-.08-.25-.16-.35a2,2,0,0,0-.45-.45c-.86-.53-1.73-1.05-2.6-1.57s-1.52-.92-2.3-1.34-1.68-.84-2.49-1.32c-1.33-.77-2.63-1.59-3.94-2.39-1-.61-2-1.25-3-1.85-.72-.43-1.46-.82-2.19-1.22a1,1,0,0,0-.35,0,.81.81,0,0,0,0,.37,10.61,10.61,0,0,0,.9.9,25.85,25.85,0,0,0,2.84,2.41c1.41.92,3,1.64,4.44,2.44.61.33,1.24.61,1.82,1s1.23.88,1.87,1.29a21.94,21.94,0,0,0,4.76,2.24,3.61,3.61,0,0,0,.53,0Zm-22.26,3.13c-.14.06-.27.08-.3.14s0,.18,0,.27a.63.63,0,0,0,.16.2c.54.5,1.06,1,1.62,1.49,1.16,1,2.35,1.93,3.52,2.9.09.07.16.17.25.23.58.39,1,1,1.58,1.36,1.29.72,2.53,1.53,3.8,2.29A34.49,34.49,0,0,0,36,153.66c.46.19.92.36,1.39.51a.4.4,0,0,0,.36-.1.42.42,0,0,0-.07-.37,2.3,2.3,0,0,0-.53-.53c-.78-.5-1.57-1-2.35-1.47L32,150c-1.06-.64-2.14-1.25-3.19-1.9-.83-.51-1.64-1-2.43-1.59-1-.68-2-1.36-2.93-2.08-.69-.51-1.34-1.08-2-1.61C21.25,142.69,21,142.57,20.84,142.42ZM23,136l0,.1a.76.76,0,0,0,.12.21c.48.43.94.89,1.44,1.29a4.77,4.77,0,0,1,1.58,1.49.83.83,0,0,0,.33.32,14.44,14.44,0,0,1,1.46,1.06c.9.68,1.84,1.3,2.8,1.89,1.5.92,3,1.83,4.55,2.69,1.22.68,2.48,1.27,3.73,1.89a.86.86,0,0,0,.45.08c.27,0,.33-.21.17-.42a.91.91,0,0,0-.22-.2l-1.48-1-3-2c-.39-.26-.77-.53-1.17-.76-.64-.37-1.32-.7-2-1.09-1.25-.76-2.48-1.55-3.71-2.34-.92-.59-1.83-1.21-2.74-1.83-.62-.42-1.22-.86-1.84-1.28A2,2,0,0,0,23,136Z"/><path d="M52.75,102c-.14-.4-.32-.45-.58-.22,0,0-.1.09-.14.08-.43-.12-.94,0-1.28-.4a.68.68,0,0,0-.38-.23,13.61,13.61,0,0,0-1.43-.17,1.34,1.34,0,0,0-.61.1c-.21.09-.31.16-.45-.12a1.08,1.08,0,0,0-.56-.4c-.34-.13-.7-.2-1-.31-.08,0-.19-.13-.19-.19,0-.4-.23-.54-.51-.68l-.18-.13c.31-.34.59-.7.91-1q1.7-1.58,3.44-3.13,1.45-1.29,2.93-2.54c.85-.72,1.7-1.43,2.59-2.1.7-.54,1.45-1,2.19-1.5.9-.59,1.8-1.19,2.74-1.73,2.25-1.29,4.52-2.54,6.79-3.8,1.12-.62,2.25-1.25,3.39-1.82s2.31-1.06,3.46-1.6,2.3-1.13,3.45-1.69l3.21-1.61c1.27-.64,2.57-1.23,3.81-1.92a23,23,0,0,0,4-2.62c.74-.64,1.6-1.14,2.38-1.75.42-.32.77-.73,1.16-1.09.78-.73,1.58-1.44,2.35-2.18s1.65-1.65,2.49-2.46a10.71,10.71,0,0,0,1.77-2.25,5.8,5.8,0,0,0,.88-2.27c0-.46,0-.52-.44-.55-1.46-.1-2.93-.16-4.39-.3-2.19-.21-4.38-.44-6.56-.74-1.51-.2-3-.48-4.49-.81a14.47,14.47,0,0,1-4.81-2.12,16,16,0,0,1-3.1-2.61,17,17,0,0,1-3-4.67,18.44,18.44,0,0,1-1.44-5.2,25.61,25.61,0,0,1-.08-5.62,23.14,23.14,0,0,1,1.33-5.54c.18-.51.44-1,.66-1.49h.13l-.52,1.88h0l.09-.18a14.72,14.72,0,0,1,2.14-3.9,13.8,13.8,0,0,1,2-1.73c.24-.2.47-.4.73-.58l4.55-3.22c.67-.47,1.31-1,2-1.44a12.74,12.74,0,0,1,3-1.43c.74-.25,1.45-.6,2.2-.85s1.81-.53,2.72-.76,2.11-.52,3.17-.75a21.92,21.92,0,0,1,4-.48,22.42,22.42,0,0,1,4,.19,14.8,14.8,0,0,1,5.9,2.22c1,.61,1.9,1.22,2.81,1.89a9.44,9.44,0,0,1,2.87,3,21,21,0,0,1,1,2.19c.57,1.44,1.14,2.89,1.63,4.36a27.23,27.23,0,0,1,.7,2.92c.17.83.33,1.66.45,2.5s.22,1.68.26,2.52c.08,1.39.12,2.79.17,4.18V44.5c0,.15.07.38-.26.34.42.73.11,1.46.11,2.18a1.82,1.82,0,0,1-.08.5c0,.05-.12.08-.19.11h-.16a.27.27,0,0,0,.08.17c.25,0,.21.13.17.27-.18.77-.36,1.54-.55,2.3-.14.57-.29,1.14-.48,1.69s-.46,1.16-.68,1.75-.5,1.41-.74,2.11c-.1.29-.32.55-.23.91,0,.18.11.27.29.3.45.08.65,0,.84-.31.14.37.41.38.74.38,1,0,2,.09,2.94.11.31,0,.62-.08.93-.07a15.72,15.72,0,0,1,1.68.06,1.16,1.16,0,0,0,.3,0,5.64,5.64,0,0,1,1.47-.32,2.52,2.52,0,0,0,1.43-.45H127v.09l-.39.31c.31.11.51.07.63-.19s.27-.22.37,0,.28.2.5.25a6.55,6.55,0,0,1,2.1.33,5.51,5.51,0,0,0,1.49.42c.36.07.47.31.55.61a.5.5,0,0,1-.32.62,3.68,3.68,0,0,0-.76.43c-.34.31-.71.21-1.09.23a1.63,1.63,0,0,0-.75.24,1.63,1.63,0,0,1-1,.2,1,1,0,0,0-.34,0c-.45.14-.52.36-.27.86l-.36-.09a1.21,1.21,0,0,1-.24-.14c-.08-.06-.24-.13-.23-.18a2.28,2.28,0,0,1,.19-.32,3,3,0,0,0-1.08.1,3.2,3.2,0,0,1-.86.07l-1,.07a.65.65,0,0,0-.33.06l-2.14.15a12.2,12.2,0,0,1-2.78-.12,21.54,21.54,0,0,0-4.35-.22.55.55,0,0,0-.35.22c-.82,1.09-1.61,2.21-2.45,3.28a17.23,17.23,0,0,1-2.84,2.64c-.83.67-1.61,1.41-2.41,2.13s-1.37,1.22-2,1.85a45,45,0,0,1-5.1,4c-.93.66-1.92,1.22-2.89,1.83L92.9,78.42a29,29,0,0,1-4.18,2.2c-1.25.53-2.47,1.11-3.7,1.67a4.19,4.19,0,0,1-.57.16L82.37,83c-.08,0-.21.18-.23-.06H82a.83.83,0,0,1-1.09.41,1.25,1.25,0,0,0-.57,0,3.52,3.52,0,0,0-.67.27c-.32.16-.61.21-.83-.17-.06.16-.06.36-.15.4a4.94,4.94,0,0,1-.81.28h-.28c-.7.25-1.41.48-2.09.78a12.4,12.4,0,0,0-1.41.82,17.77,17.77,0,0,0-1.69,1.09c-.35.28-.89.34-1,.87-.38.13-.43.47-.52.8a1.1,1.1,0,0,1-.33.53.69.69,0,0,0-.28.7.55.55,0,0,1-.31.59c-1.48,1-3,2-4.43,3-1.09.78-2.13,1.62-3.16,2.46-.7.57-1.37,1.17-2,1.79s-1,1-1.5,1.55-.75.77-1.11,1.16a.35.35,0,0,1-.49.06l-.06-.06a2,2,0,0,0-1.66-.46,1.19,1.19,0,0,0-.46,0,1.34,1.34,0,0,0-.66.22c-.5.47-.94,1-1.41,1.5Zm35.6-78c-.32.49-.68,1-1,1.48a16.7,16.7,0,0,0-.91,2,21,21,0,0,0-1.61,4.31,18.2,18.2,0,0,0-.47,4.53,29.62,29.62,0,0,0,.56,6.13c.25,1.12.64,2.22,1,3.32.08.28.08.59.39.77.07,0,.1.17.14.25.49.9,1,1.8,1.49,2.7a1,1,0,0,0,.37.33c.23.13.46.22.38.56a.48.48,0,0,0,.14.34,22.4,22.4,0,0,0,1.59,1.73,11.05,11.05,0,0,0,3.38,2.12c.37.15.74.31,1.12.44a9.66,9.66,0,0,0,1.43.48c1.07.21,2.16.35,3.24.52a.36.36,0,0,0,.42-.18c.19-.3.4-.27.61,0a.32.32,0,0,0,.17.14,9.14,9.14,0,0,0,1,.1.36.36,0,0,0,.29-.15c.16-.46.31-.93.43-1.41s.23-1,.34-1.52.34-1.28.43-1.94c.19-1.29.32-2.59.47-3.89.19-1.67.43-3.33.52-5s0-3.36,0-5a25.48,25.48,0,0,0-1-6.38A22.91,22.91,0,0,0,101,25.26a7,7,0,0,0-1.77-2.09A16.5,16.5,0,0,0,95.35,21a9.77,9.77,0,0,0-2.8-.77,1.3,1.3,0,0,0-.72.15,8.09,8.09,0,0,0-.94.72c-.29.23-.59.46-.85.71s-.56.61-.78.85a1.37,1.37,0,0,0-.44-.2c-.08,0-.21.14-.23.23s0,.32.2.33a.26.26,0,0,1,.07.21q-.14.26-.31.51a3,3,0,0,0-.48-.11s-.11.25-.08.27a1.56,1.56,0,0,0,.36.09Zm20.42,31.35a1,1,0,0,0,.13.88c.11.14.22.21.37,0s.22-.09.26-.06a1.71,1.71,0,0,0,.72.35c.34.1.67.23,1,.35a.14.14,0,0,0,.12,0c.18-.2.32-.06.47.05s.13.1.18.09l1.53-.36c.12,0,.26-.11.36-.08.26.09.42-.06.62-.17a1,1,0,0,1,.61-.17c.44.08.6,0,.57-.49l-.41.15c-.17.07-.64-.13-.58-.25.18-.42-.27-.36-.38-.55S114.1,55,114,55l-.4-.06c-.25.1-.55.19-.83.33s-.33.2-.35.33c-.07.4-.3.4-.61.36s-.5-.27-.31-.64a6.92,6.92,0,0,0,.27-.68l-.13-.08-.48.66-.48-.45v.79l-1.53-.16.16.32c-.06,0-.16.09-.17.08l-.34-.52Zm-3.23-.27.34.13c-.13.3.17.71-.3.92v.08l1.93.32-.16-.46a1.3,1.3,0,0,0,.38.12,1.1,1.1,0,0,0,.33-.13,1,1,0,0,0-.19-.25,5.42,5.42,0,0,0-.5-.28l.23-.26a3.92,3.92,0,0,0-.6-.13s-.11.16-.18.23l-.28.26c-.06-.11-.19-.22-.18-.32a.39.39,0,0,0-.29-.45c-.07-.09-.29.06-.53.17Zm5.29-.59c-.06-.06-.08-.09-.12-.11l-.21-.07a.24.24,0,0,0,.07.21.46.46,0,0,0,.65-.06l.06-.09a2.67,2.67,0,0,1,.27-.34c.06-.08.18-.19.16-.26a.45.45,0,0,0-.24-.25q-.36-.14-.73-.24c.37.37.26.73.09,1.14Zm4.3.88a2.78,2.78,0,0,1-.25-.72c0-.36-.08-.5-.45-.55a1.33,1.33,0,0,0-.37.06c0,.17,0,.41.11.5a9.78,9.78,0,0,0,1,.66Zm.58-1.19.09-.1a3.56,3.56,0,0,0-.53-.46s-.19.1-.29-.07-.29,0-.43.1-.07.16-.11.25c.14,0,.32.14.41.09a.63.63,0,0,1,.85.13Zm-2.3,0h-.07V54a2,2,0,0,0-.17-.27c-.07.07-.17.13-.19.22a5.17,5.17,0,0,0-.11.57c0,.22.14.24.22.16a2.12,2.12,0,0,0,.31-.56Z"/><path d="M36,160.82a.75.75,0,0,1-.87.15c-2.78-1.09-5.58-2.13-8.35-3.26-1.31-.53-2.54-1.28-3.85-1.82a2.67,2.67,0,0,1-1.42-1,10.63,10.63,0,0,0-1.07-1.28c-.34-.39-.69-.77-1-1.17a6.84,6.84,0,0,1-.33-.62A2.68,2.68,0,0,0,18,150.71a2.18,2.18,0,0,1-.71-.76.59.59,0,0,1,0-.52c.12-.2.35-.11.53,0l1.53.9c1.12.66,2.24,1.31,3.34,2,.37.23.69.54,1,.78s1,.61,1.56.92c.85.52,1.69,1.07,2.55,1.58s2,1.16,3.06,1.77c.73.44,1.44.93,2.15,1.39.21.14.44.26.65.4.68.45,1.36.9,2,1.36A1.71,1.71,0,0,1,36,160.82Z"/><path d="M35.34,106h.27a13.13,13.13,0,0,1,2.09.86,21.6,21.6,0,0,0,2.52,1.27c.5.26,1,.56,1.46.84l.75.45c.62.36,1.24.71,1.85,1.08s.91.57,1.34.88c.62.45,1.21.93,1.82,1.37s1.51,1,2.23,1.58l2.57,2.06c.6.47,1.21.91,1.82,1.37a1.89,1.89,0,0,1,.29.24,1.74,1.74,0,0,1,.18.31c-.14.08-.3.25-.42.22-.86-.15-1.72-.31-2.56-.54a4.53,4.53,0,0,1-.89-.56c-.41-.23-.85-.43-1.27-.66-.26-.14-.49-.31-.75-.45A25.6,25.6,0,0,1,46,114.91c-1.19-.81-2.28-1.74-3.42-2.62l-.89-.71-2.13-1.85-2.72-2.31c-.48-.41-1-.84-1.42-1.26A.75.75,0,0,1,35.34,106Z"/><path d="M12.74,153.19a6.82,6.82,0,0,1,1.56.89,32.06,32.06,0,0,0,2.53,2.12,6.54,6.54,0,0,0,1,.53,1.18,1.18,0,0,1,.21.13c.54.47,1.07,1,1.62,1.4s1,.69,1.43,1l1.35.93c.57.4,1.13.82,1.72,1.21s1.22.76,1.81,1.16,1.15.83,1.74,1.24c.18.13.41.18.59.31.71.5,1.41,1,2.11,1.52.2.14.43.29.28.57s-.41.23-.67.12c-1.18-.49-2.39-.93-3.55-1.48s-2-1.11-3-1.67a32.12,32.12,0,0,1-4.17-2.75,5.59,5.59,0,0,1-1.49-1.64,10.48,10.48,0,0,0-.82-1.12,37.58,37.58,0,0,0-3.13-2.92c-.29-.3-.6-.6-.88-.91a3.56,3.56,0,0,1-.33-.54Z"/><path d="M22.31,172.31c-1.75-.29-3.48-.49-5.17-.88a12.28,12.28,0,0,1-4-1.75c-.41-.27-.71-.71-1.13-.94-.59-.32-.61-.82-.63-1.36,0-.18-.07-.36-.07-.54a1.8,1.8,0,0,1,.06-.62c.14-.4.32-.49.72-.37a6.79,6.79,0,0,1,2.31,1,5.75,5.75,0,0,0,.68.33,17.44,17.44,0,0,1,2,1.18,23,23,0,0,0,2,1.25c.67.41,1.49,1,2.24,1.43.31.19.66.31,1,.48a.68.68,0,0,1,.28.25.51.51,0,0,1,.07.38C22.59,172.23,22.41,172.26,22.31,172.31Z"/><path d="M47.14,129.48l-1.25-.4c-.58-.19-1.17-.35-1.74-.57a6.87,6.87,0,0,1-1-.55c-.75-.45-1.48-.92-2.25-1.33s-1.77-.79-2.6-1.28q-2.12-1.26-4.16-2.66a26.9,26.9,0,0,1-2.46-2c-.55-.46-1.08-.95-1.61-1.43a1.34,1.34,0,0,1-.23-.3c0-.05,0-.17,0-.19a.28.28,0,0,1,.22,0c.43.18.85.38,1.27.57s.79.36,1.18.56.86.52,1.3.77l2.78,1.59a1.23,1.23,0,0,1,.21.14,19.21,19.21,0,0,0,3.34,2.05c1.12.65,2.25,1.28,3.37,1.94.75.44,1.5.89,2.23,1.37.55.36,1.06.76,1.58,1.15.08.06.18.24.15.29A1.25,1.25,0,0,1,47.14,129.48Z"/><path d="M43.14,139.29l-.45-.08A21.94,21.94,0,0,1,37.93,137c-.64-.41-1.23-.89-1.87-1.29s-1.22-.64-1.82-1c-1.49-.8-3-1.52-4.44-2.44A25.85,25.85,0,0,1,27,129.83a10.61,10.61,0,0,1-.9-.9c-.07-.08,0-.25,0-.37a1,1,0,0,1,.35,0c.74.4,1.48.79,2.19,1.22,1,.6,2,1.24,3,1.85,1.31.8,2.61,1.62,3.94,2.39.81.47,1.67.86,2.49,1.32s1.53.89,2.3,1.34,1.74,1,2.6,1.57a2,2,0,0,1,.45.45c.08.1.2.28.16.35A1.28,1.28,0,0,1,43.14,139.29Z"/><path d="M20.84,142.42a7.23,7.23,0,0,1,.61.41c.67.53,1.32,1.1,2,1.61,1,.71,1.94,1.4,2.93,2.08q1.2.83,2.43,1.59c1,.65,2.13,1.27,3.19,1.9l2.78,1.69c.79.48,1.58,1,2.35,1.47a2.3,2.3,0,0,1,.53.53.42.42,0,0,1,.07.37.4.4,0,0,1-.36.1c-.47-.15-.93-.33-1.39-.51a34.49,34.49,0,0,1-4.49-2.36c-1.27-.76-2.51-1.57-3.8-2.29-.64-.35-1-1-1.58-1.36-.09-.06-.16-.16-.25-.23-1.17-1-2.36-1.92-3.52-2.9-.56-.47-1.08-1-1.62-1.49a.63.63,0,0,1-.16-.2c0-.08-.08-.2,0-.27S20.7,142.5,20.84,142.42Z"/><path d="M23,136a2,2,0,0,1,.51.17c.62.41,1.22.86,1.84,1.28.91.62,1.82,1.23,2.74,1.83,1.23.79,2.46,1.58,3.71,2.34.63.39,1.31.71,2,1.09.4.23.78.5,1.17.76l3,2,1.48,1a.91.91,0,0,1,.22.2c.16.21.1.39-.17.42A.86.86,0,0,1,39,147c-1.25-.62-2.51-1.21-3.73-1.89-1.54-.86-3-1.77-4.55-2.69a29.16,29.16,0,0,1-2.8-1.89,14.44,14.44,0,0,0-1.46-1.06.83.83,0,0,1-.33-.32,4.77,4.77,0,0,0-1.58-1.49,17.86,17.86,0,0,1-1.44-1.29.76.76,0,0,1-.12-.21Z"/><path class="cls-1" d="M88.35,23.95a1.56,1.56,0,0,1-.4-.17,1.38,1.38,0,0,1,.08-.27,3,3,0,0,1,.48.11q.17-.25.31-.51a.26.26,0,0,0-.07-.21c-.25,0-.23-.2-.2-.33s.15-.24.23-.23a1.37,1.37,0,0,1,.44.2c.22-.24.48-.56.78-.85s.57-.48.85-.71a8.09,8.09,0,0,1,.94-.72,1.3,1.3,0,0,1,.72-.15,9.77,9.77,0,0,1,2.8.77,16.5,16.5,0,0,1,3.84,2.21,7,7,0,0,1,1.77,2.09,22.91,22.91,0,0,1,2.31,5.52,25.48,25.48,0,0,1,1,6.38c0,1.68.08,3.36,0,5s-.33,3.34-.52,5c-.14,1.3-.28,2.6-.47,3.89-.09.65-.28,1.29-.43,1.94s-.21,1-.34,1.52-.27.94-.43,1.41a.36.36,0,0,1-.29.15,9.14,9.14,0,0,1-1-.1.32.32,0,0,1-.17-.14c-.21-.3-.42-.33-.61,0a.36.36,0,0,1-.42.18c-1.08-.17-2.17-.32-3.24-.52a9.66,9.66,0,0,1-1.43-.48l-1.12-.44a11.05,11.05,0,0,1-3.38-2.12,22.4,22.4,0,0,1-1.59-1.73.48.48,0,0,1-.14-.34c.07-.34-.15-.44-.38-.56a1,1,0,0,1-.27-.32c-.51-.89-1-1.8-1.49-2.7a.34.34,0,0,0-.14-.25c-.31-.17-.31-.49-.39-.77-.33-1.1-.72-2.2-1-3.32a29.62,29.62,0,0,1-.56-6.13,18.2,18.2,0,0,1,.47-4.53,21,21,0,0,1,1.61-4.31c.32-.64.57-1.32.91-2A8.21,8.21,0,0,1,88.35,23.95Z"/><path class="cls-1" d="M108.77,55.3c.14.21.23.36.33.49s.11-.05.17-.08l-.16-.32,1.53.16v-.79l.48.45.48-.66.13.08a6.92,6.92,0,0,1-.27.68c-.19.37-.09.59.31.64s.54,0,.61-.36c0-.13.21-.26.35-.33s.58-.24.83-.33l.4.06c.13,0,.33,0,.37.07s.56.14.38.55c0,.12.42.32.58.25l.41-.15c0,.45-.13.57-.57.49a1,1,0,0,0-.61.17c-.2.11-.35.26-.62.17a.63.63,0,0,0-.36.08L112,57a.19.19,0,0,1-.18-.09.3.3,0,0,0-.47-.05.14.14,0,0,1-.12,0l-1-.35a1.71,1.71,0,0,1-.72-.35s-.21,0-.26.06a.3.3,0,0,1-.37,0A1,1,0,0,1,108.77,55.3Z"/><path class="cls-1" d="M105.54,55c.24-.11.42-.26.57-.24a.39.39,0,0,1,.29.45c0,.1.12.22.18.32a2.27,2.27,0,0,0,.28-.26c.08-.1.13-.24.18-.23a3.92,3.92,0,0,1,.6.13l-.23.26a5.42,5.42,0,0,1,.5.28,1,1,0,0,1,.19.25,1.1,1.1,0,0,1-.33.13,1.3,1.3,0,0,1-.38-.12l.16.46-1.93-.32v-.08c.47-.21.17-.62.3-.92Z"/><path class="cls-1" d="M110.83,54.42c.16-.43.29-.79-.08-1.2q.37.1.73.24a.45.45,0,0,1,.24.25c0,.07-.1.18-.16.26a2.67,2.67,0,0,0-.27.34.46.46,0,0,1-.62.21l-.09-.06a.35.35,0,0,0-.07-.21l.21.07S110.77,54.42,110.83,54.42Z"/><path class="cls-1" d="M115.12,55.32a9.79,9.79,0,0,1-1-.71c-.1-.1-.08-.33-.11-.5a1.33,1.33,0,0,1,.37-.06c.37,0,.44.19.45.55A2.78,2.78,0,0,0,115.12,55.32Z"/><path class="cls-1" d="M115.7,54.12a.63.63,0,0,0-.85-.19c-.09.05-.27-.06-.41-.09s0-.22.11-.25.41-.14.43-.1.24,0,.29.07a3.56,3.56,0,0,1,.53.46Z"/><path class="cls-1" d="M113.4,54.14a2.12,2.12,0,0,1-.3.48c-.08.08-.26.06-.22-.16a5.17,5.17,0,0,1,.11-.57c0-.08.13-.15.19-.22a2,2,0,0,1,.17.27v.16Z"/></g></g></svg>