<svg xmlns="http://www.w3.org/2000/svg" viewBox="0 0 83.84 186.08"><defs><style>.cls-1{fill:#fff;}</style></defs><title>资源 4</title><g id="图层_2" data-name="图层 2"><g id="图层_1-2" data-name="图层 1"><path class="cls-1" d="M31.31,10.77h0l.31-.91-.42-.15-.4-.15.27-1.15.57.09.63-.79.1-.6c.37-.33.37-.33.45-.71l-.4-.16a1.64,1.64,0,0,1,.66-1.33c.85-.68,1.61-1.5,2.53-2.1.6-.39,1.14-.9,1.74-1.38L37.11.78c.16-.29.58-.3.4-.78a2,2,0,0,0-.93.46c-1.1.88-2.17,1.8-3.29,2.65A23.66,23.66,0,0,0,29.7,6.76c-.94,1.12-1.76,2.36-2.63,3.55-.38.52-.76,1-1.1,1.57-.7,1.11-1.39,2.22-2,3.35s-1.13,2.05-1.68,3.09q-.55,1-1.07,2.13c-.46,1-.92,1.92-1.35,2.9a26.8,26.8,0,0,0-1,2.64c-.51,1.4-1.22,2.68-1.68,4.12s-1.15,3-1.72,4.5c-.19.5-.3,1-.49,1.53-.46,1.19-.94,2.37-1.41,3.56a6.16,6.16,0,0,0-.19.69,1.85,1.85,0,0,1-.14.52,12.51,12.51,0,0,0-1,2.48c-.8,2.11-1.47,4.28-2.2,6.42-.31.9-.67,1.79-.94,2.7-.57,2-1.29,3.85-1.93,5.78-.87,2.61-1.75,5.21-2.6,7.82-.23.71-.38,1.45-.6,2.17a61.4,61.4,0,0,0-1.83,8.93C2,78.58,1.82,80,1.65,81.34s-.35,3-.49,4.5c-.09,1-.12,1.93-.18,2.9-.16,2.57-.36,5.13-.46,7.7-.14,3.33-.21,6.65-.29,10-.07,2.94-.09,5.87-.17,8.81a131.44,131.44,0,0,0,.51,16.33c.39,4.06.91,8.11,1.41,12.15a74.12,74.12,0,0,0,2,10.55,51,51,0,0,0,1.61,4.85c.68,1.78,1.47,3.5,2.22,5.25.21.49.43,1,.66,1.46.6,1.25,1.25,2.48,1.81,3.75a24.24,24.24,0,0,0,2.89,4.8c.31.42.61.84.91,1.27a12.51,12.51,0,0,0,2.78,3,15.47,15.47,0,0,0,4.31,2.28,13,13,0,0,1,5.32,3,3.4,3.4,0,0,0,.62.43A12.82,12.82,0,0,0,33.77,186h3.41a25.26,25.26,0,0,0,6.3-.41c.79-.17,1.57-.43,2.36-.65,1-.28,1.93-.56,2.89-.85a18.88,18.88,0,0,0,3.58-1.69,35.18,35.18,0,0,0,3.12-1.93,37,37,0,0,0,3.24-2.56c1.33-1.19,2.64-2.41,3.87-3.73s2.29-2.67,3.33-4.08a21.61,21.61,0,0,0,1.87-3,72.41,72.41,0,0,0,4-9.91c.66-1.92,1.27-3.86,1.91-5.79,1-3.18,2.14-6.35,3.15-9.54s1.89-6.12,2.81-9.2A64.7,64.7,0,0,0,81.74,124c.41-2.68.84-5.37,1.16-8.07s.52-5.12.69-7.68c.14-2.23.16-4.48.23-6.72a6.75,6.75,0,0,0-.48-2.83c-.24-.58-.42-1.18-.61-1.78s-.37-1.27-.6-1.88c-.77-2-1.58-4-2.34-6.09-.27-.72-.43-1.49-.66-2.24s-.44-1.36-.7-2c-.15-.38-.35-.74-.53-1.11s-.26-.53-.4-.78c-.27-.49-.55-1-.83-1.45L75,78.58a1,1,0,0,0-.7-.5,1.76,1.76,0,0,0-.45,1.18c-.11.81-.2,1.62-.3,2.43-.12,1-.26,1.92-.37,2.88-.22,1.89-.4,3.78-.63,5.67-.13,1.14-.34,2.27-.47,3.41-.25,2.25-.48,4.51-.7,6.76-.29,2.92-.78,5.81-1.28,8.69a21.89,21.89,0,0,1-.54,2.28c-.46,1.61-1,3.21-1.45,4.81a3.12,3.12,0,0,1-.46,1.14,1.92,1.92,0,0,0-.49,1.28c0,.28,0,.55-.35.63-.2-.62-.24-.64.11-1.34a5.39,5.39,0,0,0,.35-3,5.71,5.71,0,0,0,.84-2.54,18.21,18.21,0,0,1,.42-2,8.75,8.75,0,0,0,.25-1.23,3,3,0,0,1,.67-2.07.4.4,0,0,1,.07-.21l-.2-.4a19.63,19.63,0,0,0,.27-2.18,3.81,3.81,0,0,1,.69-2.26l-.21-.54a7.11,7.11,0,0,0,.19-1.28,8.63,8.63,0,0,1,.35-2.11,4.06,4.06,0,0,0,.16-1.75l.3-.24V94.25a18.16,18.16,0,0,1,.22-2l.35-.23.14-1.39a1.74,1.74,0,0,1-.15-1.46l.46-.36-.1-.63.25-.42a3.68,3.68,0,0,1,.08-2.42,4.2,4.2,0,0,1-.1-.69,5.45,5.45,0,0,1,.11-.76l.32.08c.07-.92-.39-1.82.08-2.68l-.19-.44.32-2.19-.21-.5.32-.53-.32-.94.65-1-.18-.79c.49-.3.41-.82.46-1.29l-.48-.22.53-.68A14.22,14.22,0,0,0,73.78,69l.3-.72L73.85,68a14.26,14.26,0,0,1-.16-1.53c0-.46.06-1,.09-1.44l.47-.22-.39-.43c0-.34-.06-.64-.07-.93a4.72,4.72,0,0,1,0-1.16,2.38,2.38,0,0,0-.08-1.42A3.13,3.13,0,0,0,74,59.08v-2c-.07-2-.16-4-.24-6V51c-.14-1.29-.3-2.58-.4-3.87A3,3,0,0,0,73,45.47c0-.93,0-1.8-.07-2.67a2.49,2.49,0,0,0-.1-.53c-.33-1.27-.47-2.6-.82-3.88-.24-.88-.29-1.83-.53-2.73s-.51-1.91-.77-2.86l-.55-.27L70,31.94l.32-.57-.33-.5c-.12-.66-.24-1.22-.32-1.78s-.59-.91-.76-1.24a5.16,5.16,0,0,0-.08-1.22q-.7-2-1.49-3.93c-.38-.94-.8-1.85-1.22-2.76a8.64,8.64,0,0,0-1.07-2c-.3.06-.6.07-.75.49a2.19,2.19,0,0,1,.46,1.78l-.88.7-.56-1L62,19.62l-.11-.15.4-.47-.18-.26-.63.71c-.69-.1-.55-.66-.78-.94l-1.11-1.3.27-.69L59,16.15l.51-.29c0-.63-.65-1.17-.19-1.93l1,1.65a1.71,1.71,0,0,0-.15-1.64l.38-.13c.25-.46-.08-.81-.11-1.27l-.51.31a3.77,3.77,0,0,0-.53-.47c-.55-.32-1.13-.59-1.67-.91a3.1,3.1,0,0,1-.92-.73c-.57-.76-1.07-1.59-1.6-2.38a5.87,5.87,0,0,0-.38-.46l-.72.65-.2-1.42a3.69,3.69,0,0,1-.29.37,2.21,2.21,0,0,1-.3.2c-.24-.28-.45-.55-.69-.79S52.46,6.15,52,6l-.33.8L50.45,7V6.08c-.58-.54-1.17-.12-1.73,0l-.35-.92-.65.12-.22-.63c.12-.48.66-.83.12-1.36a2.76,2.76,0,0,0-.56.34.59.59,0,0,1-.83.11l-.05,0c-.3-.29-.12-.83-.57-.92l-.76.41-.09-.49a2.38,2.38,0,0,1-1.17-1.06h-.14l-.22.48H42.8a2.22,2.22,0,0,1-.2.25l-.26.21-1.74-1a4.41,4.41,0,0,0-1.28.57,2,2,0,0,1-1,.59c-.34.38-.59.71-.88,1a12.1,12.1,0,0,1-1,.73,4.48,4.48,0,0,1-1.3,1.65,4.74,4.74,0,0,0-1.57,2.41L33,8.79c-.45.66-.8,1.23-1.2,1.76C31.73,10.66,31.51,10.69,31.31,10.77ZM61,18.26a.93.93,0,0,0,1.13-.46l-.06-.61.58-.4a.48.48,0,0,0-.55-.38c-.49.06-1,.17-1.47.26Zm-19.59-17,.11.1L42.44,1l.31.29c.34-.24.91-.18.82-.95L42,.7a.63.63,0,0,0-.3.13A2.13,2.13,0,0,0,41.44,1.21ZM51.51,5.77c0-.51.08-.86.1-1.21s0-.54-.38-.58l-.13.89Z"/><path d="M31.31,10.77c.16-.08.38-.11.48-.25.39-.53.75-1.1,1.2-1.76l.57-.27a4.74,4.74,0,0,1,1.57-2.41,4.48,4.48,0,0,0,1.3-1.65,12.1,12.1,0,0,0,1-.73,9.56,9.56,0,0,0,.88-1,2,2,0,0,0,1-.59,4.41,4.41,0,0,1,1.28-.57l1.74,1,.26-.21a2.22,2.22,0,0,0,.2-.25h.43l.22-.48h.14a2.38,2.38,0,0,0,1.17,1.06l.09.49.76-.41c.45.08.26.62.57.92a.59.59,0,0,0,.83,0l0-.05a2.76,2.76,0,0,1,.56-.34c.55.53,0,.88-.12,1.36l.22.63.65-.12.35.92c.56-.12,1.15-.54,1.73,0v.89l1.26-.2.33-.8c.42.18.35.68.61.94s.45.51.69.79a2.21,2.21,0,0,0,.3-.2,3.69,3.69,0,0,0,.29-.37l.2,1.42.72-.65a5.87,5.87,0,0,1,.38.46c.53.79,1,1.62,1.6,2.38a3.1,3.1,0,0,0,.92.73c.55.33,1.12.6,1.67.91a3.77,3.77,0,0,1,.53.47l.51-.31c0,.46.36.81.11,1.27l-.38.13a1.71,1.71,0,0,1,.15,1.64l-1-1.64c-.46.76.18,1.3.19,1.93l-.51.29.86.37-.27.69,1.08,1.34c.23.28.09.84.78.94l.63-.71.18.26-.4.47a.18.18,0,0,0,.11.15l1.26.29.56,1,.88-.7a2.19,2.19,0,0,0-.46-1.78c.15-.41.45-.43.75-.49A8.64,8.64,0,0,1,66,20c.42.91.84,1.83,1.22,2.76q.78,1.94,1.49,3.93a5.16,5.16,0,0,1,.08,1.22c.16.33.67.63.76,1.24s.2,1.12.32,1.78l.33.5L69.9,32l.17.59.55.27c.26,1,.51,1.91.77,2.86s.29,1.85.53,2.73c.35,1.28.49,2.6.82,3.88a2.49,2.49,0,0,1,.1.53c0,.87,0,1.74.07,2.67a3,3,0,0,1,.43,1.65c.1,1.29.26,2.58.4,3.87v.09c.08,2,.17,4,.24,6v2a3.13,3.13,0,0,1-.33,1.76,2.38,2.38,0,0,1,.08,1.42,4.72,4.72,0,0,0,0,1.16,4.35,4.35,0,0,0,.07.93l.39.43-.47.22c0,.48-.1,1-.09,1.44s.1.93.16,1.53l.23.28-.3.72a14.22,14.22,0,0,1-.12,3.74l-.53.68.48.22c0,.48,0,1-.46,1.29l.18.79-.65,1,.32.94-.32.53.21.5-.32,2.19.19.44c-.47.86,0,1.76-.08,2.68l-.32-.08a5.45,5.45,0,0,0-.11.76,4.24,4.24,0,0,0,.1.69,3.68,3.68,0,0,0-.08,2.42L72,88.2l.1.63-.46.36a1.74,1.74,0,0,0,.15,1.46L71.61,92l-.35.23c-.08.75-.18,1.38-.22,2s0,1.19,0,1.84l-.3.24a4.06,4.06,0,0,1-.16,1.75,8.63,8.63,0,0,0-.35,2.11,7.11,7.11,0,0,1-.19,1.28l.21.54a3.81,3.81,0,0,0-.69,2.26,19.63,19.63,0,0,1-.27,2.18l.2.4c0,.1,0,.17-.07.21a3,3,0,0,0-.67,2.07,8.75,8.75,0,0,1-.25,1.23,18.21,18.21,0,0,0-.42,2,5.71,5.71,0,0,1-.77,2.53,5.39,5.39,0,0,1-.35,3c-.35.7-.31.72-.11,1.34.3-.09.34-.36.35-.63a1.92,1.92,0,0,1,.49-1.28,3.12,3.12,0,0,0,.46-1.14c.49-1.6,1-3.2,1.45-4.81a21.89,21.89,0,0,0,.54-2.28c.5-2.88,1-5.77,1.28-8.69.23-2.26.45-4.51.7-6.76.13-1.14.33-2.27.47-3.41.22-1.89.41-3.78.63-5.67.11-1,.25-1.92.37-2.88.1-.81.19-1.62.3-2.43a1.76,1.76,0,0,1,.45-1.18,1,1,0,0,1,.7.5l1.64,2.81c.28.48.56,1,.83,1.45.14.26.27.52.4.78s.38.72.53,1.11c.25.67.48,1.35.7,2s.39,1.51.66,2.24c.76,2,1.57,4.05,2.34,6.09.23.61.4,1.25.6,1.88s.38,1.2.61,1.78a6.75,6.75,0,0,1,.48,2.83c-.07,2.24-.09,4.48-.23,6.72-.16,2.57-.38,5.13-.69,7.68s-.75,5.38-1.16,8.07a64.7,64.7,0,0,1-2.13,8.66c-.92,3.07-1.84,6.15-2.81,9.2s-2.1,6.36-3.15,9.54c-.64,1.93-1.25,3.87-1.91,5.79a72.41,72.41,0,0,1-4,9.91,21.61,21.61,0,0,1-1.87,3q-1.56,2.12-3.33,4.08c-1.22,1.32-2.54,2.54-3.87,3.73a37,37,0,0,1-3.24,2.56,35.18,35.18,0,0,1-3.12,1.93,18.88,18.88,0,0,1-3.58,1.69c-1,.3-1.93.58-2.89.85-.78.23-1.56.48-2.36.65a25.26,25.26,0,0,1-6.3.41H33.78a12.82,12.82,0,0,1-6.66-1.65,3.4,3.4,0,0,1-.62-.43,13,13,0,0,0-5.32-3,15.47,15.47,0,0,1-4.31-2.28,12.51,12.51,0,0,1-2.78-3c-.3-.43-.6-.86-.91-1.27a24.24,24.24,0,0,1-2.89-4.8c-.56-1.28-1.21-2.5-1.81-3.75-.23-.48-.45-1-.66-1.46-.75-1.75-1.54-3.47-2.22-5.25A50.09,50.09,0,0,1,4,154.29a74.12,74.12,0,0,1-2-10.55c-.5-4-1-8.09-1.41-12.15a131.44,131.44,0,0,1-.51-16.33c.08-2.94.1-5.87.17-8.81.08-3.33.16-6.66.29-10,.11-2.57.31-5.13.46-7.7.06-1,.09-1.94.18-2.9.14-1.5.31-3,.49-4.5s.34-2.76.54-4.13A61.4,61.4,0,0,1,4,68.29c.22-.72.36-1.46.6-2.17q1.29-3.92,2.6-7.82c.64-1.93,1.36-3.82,1.93-5.78.27-.92.63-1.8.94-2.7.73-2.14,1.4-4.31,2.2-6.42a12.51,12.51,0,0,1,1-2.48,1.85,1.85,0,0,0,.14-.52,6.16,6.16,0,0,1,.19-.69c.46-1.19,1-2.36,1.41-3.56.19-.5.3-1,.49-1.53.57-1.5,1.23-3,1.72-4.5S18.37,27.4,18.88,26c.33-.89.66-1.77,1-2.64s.89-1.94,1.35-2.9q.51-1.07,1.07-2.13c.55-1,1.09-2.08,1.68-3.09s1.35-2.25,2-3.35c.34-.54.73-1.05,1.1-1.57.87-1.19,1.69-2.44,2.63-3.55a23.66,23.66,0,0,1,3.6-3.64C34.42,2.28,35.5,1.36,36.6.48A2,2,0,0,1,37.53,0c.18.48-.24.49-.4.78l.24.65a21,21,0,0,1-1.74,1.38c-.91.6-1.67,1.42-2.53,2.1a1.64,1.64,0,0,0-.66,1.33l.4.16c-.09.38-.09.38-.45.71l-.1.6-.63.79-.57-.09-.27,1.15.4.15.42.15-.31.91H30.8l.12-.71c-.57.19-.69.75-1.09,1,.3.08.66-.07.73.53l-.51.58L29.22,12c.33.51.08,1,.46,1.5a4.58,4.58,0,0,0,.46-.47,10,10,0,0,1,1-1.56A.64.64,0,0,0,31.31,10.77Zm13.8,78.51c.33-.21.33-.6.42-.94s.15-.71.23-1.06c.81-3.54,1.66-7.08,2.43-10.63.47-2.14.83-4.32,1.24-6.48a1.1,1.1,0,0,0,0-.34,7.62,7.62,0,0,0-.51,1.75c-.24,1.33-.43,2.67-.7,4-.35,1.71-.74,3.4-1.13,5.09-.47,2-1,4-1.41,6.06a10,10,0,0,0-.49,2.56,8.81,8.81,0,0,0-1,3.94c.25-.82.49-1.5.66-2.19s.24-1.13.34-1.75Zm-25.31,46,.33.32,2.6-2.25a5.63,5.63,0,0,0,.47-.57l-1.3.41-1.25,1a.78.78,0,0,1-.42.91,4.32,4.32,0,0,1-.45.19l-.15-.32a1.71,1.71,0,0,0-.42.12c-.43.25-.84.54-1.27.79q-1.73,1-3.47,1.95A2.94,2.94,0,0,1,14,138l-2.46.87-.11.2a3.68,3.68,0,0,0,1.67.18,13.48,13.48,0,0,0,2.42-1c1-.56,2-1.27,2.94-1.89a3.06,3.06,0,0,1,.72-.23.77.77,0,0,1,.65-.78Zm-6-1.46-.09-.44a10.62,10.62,0,0,0-3,1.17l.36.88.73-1h.7v-.07l1.35-.54-.28.83c-.42.43-1.12.33-1.44,1a.75.75,0,0,0,.93,0,9.92,9.92,0,0,1,.93-.54,7.82,7.82,0,0,1,1.07-.28.47.47,0,0,0,.15-.06,5.28,5.28,0,0,0,1.48-1,1.41,1.41,0,0,1,.48-.32,7.79,7.79,0,0,0,2-1.33,6.65,6.65,0,0,1,1.43-1.29s.07-.14.1-.22c-.48-.11-.46-.09-.75.1a16.28,16.28,0,0,1-1.69,1,2.17,2.17,0,0,1-.61.13l-.14.06v.37c-.62.5-1.21.92-1.75,1.41a2.12,2.12,0,0,1-1.43.62Zm30.54,1.64a1.09,1.09,0,0,0,.78-.71,8.39,8.39,0,0,1,1.52-2.54c.08-.08.07-.27.09-.33.21-.15.42-.22.51-.38.54-.93,1-1.93,1.58-2.82a.3.3,0,0,1,0-.17L49.6,127l.32-.11a1.7,1.7,0,0,1,.59-1A3,3,0,0,0,51,125c.39-.86.78-1.73,1.14-2.6a2.59,2.59,0,0,0,.32-1.19,1.57,1.57,0,0,1,.23-.85,3.47,3.47,0,0,0,.46-1.25l.12-.1.33.47c.14-.26.26-.45.36-.65.21-.43-.18-.79-.16-1.24l.67-.43c.44-.88.44-.88.92-.89,0,.73-.61,1.39-.16,2.17l-.75.62-.16.78.3,2.24-1.12.13-.39.71.17,1.63.36.37c-.58.48-.62-.31-1-.52a3.13,3.13,0,0,0-.07,1.07,3.72,3.72,0,0,1,0,1.61l.35.48-.44,1a3.43,3.43,0,0,0-1.76,2.61l1,.09.4-1.18-.4-.09a5.84,5.84,0,0,1,.81-.87,3,3,0,0,0,1.4-1.53c0-.12.2-.19.29-.3a1.22,1.22,0,0,0,.29-.42,6.39,6.39,0,0,0,.36-2,1,1,0,0,1,.17-.92l.22.54a2.35,2.35,0,0,0,.59-1.62,7.25,7.25,0,0,0,1.6-3.27c.06-.2.09-.41.16-.61a2.8,2.8,0,0,1,.84-1.27,4.84,4.84,0,0,1-.3,2.13c-.22.55-.39,1.13-.57,1.7a3.43,3.43,0,0,0,0,.57,3.55,3.55,0,0,0,.73-1.58,18,18,0,0,1,.46-1.82c.22-.63.53-1.23.82-1.9l.59.89c-.13.56-.25,1.11-.4,1.66s-.33,1.08-.51,1.65a2.78,2.78,0,0,0-.47.67,22.26,22.26,0,0,1-1,2.36,21.1,21.1,0,0,0-.75,2.11,2.4,2.4,0,0,0-.06.62l.09.12.51-.2-.07.88c-.32.44-.83.59-.8,1.25.27.28.61.59.22,1.07l-.48-.22-.27,1.25.67-.51.1.63-.55.38c-.09.68-.09.68.24,1.14l-.06.66,1.14-1.47a2,2,0,0,1,.39-1.17c.11-.13.1-.4.16-.59.14-.51.27-1,.45-1.53a3.3,3.3,0,0,0,.3-1.11,1.17,1.17,0,0,1,.28-.72,13,13,0,0,1,1.18-1v-.95l.28-1.21c.15-.6.29-1.21.46-1.81.11-.37.29-.72.43-1.08a1.29,1.29,0,0,0,0-.28l-.41-.53.24-.5.6.31c.35-.46,0-.94.16-1.41l.44-.43a10.7,10.7,0,0,1,.11-1.29c.25-1.26.52-2.52.83-3.76a9.13,9.13,0,0,1,.74-2.73,1.36,1.36,0,0,0,.11-.52c.14-1.17.26-2.34.4-3.51a5.19,5.19,0,0,1,.23-1.33,2.61,2.61,0,0,0,.16-1.35c.3-1.57.73-2.89.43-4.33l.39-.35a5,5,0,0,0,.14-2.14l-.36-.14c0-.37.09-.67.11-1s0-.59,0-.83l.48-.38-.65-.58-.41.32c.12.31.37.63-.07.82a1,1,0,0,1-.32-.83,14.12,14.12,0,0,1,.22-1.73l-.47-.64a.73.73,0,0,1,.49-.74c.06,0,.09-.14.14-.23l-.37-.71h-.54l.45-.61a1,1,0,0,1,.07-.66c.52.37.1,1.22.67,1.57l.24-.91a.7.7,0,0,1-.08-1h0a.87.87,0,0,0,0-1.15l-.47.28-.2-.34a10.75,10.75,0,0,0,0-1.43,3.11,3.11,0,0,1,.09-1.34A6,6,0,0,0,65.46,83a9.74,9.74,0,0,1,.08-1.52,2.33,2.33,0,0,0-.16-1.4,1.75,1.75,0,0,1-.21-1.16l.45.36a1.09,1.09,0,0,0-.12-.53l-.19-.49.52-.28a1,1,0,0,0-.58-1.07l.51-.3c.15-1.15.47-2.29-.59-3l.14-.34c-.24-.24-.44-.34-.61-.1l-.12,1.39.31.48c-.67.43-.79.55-.67,1.16A4.37,4.37,0,0,1,64,78.5a3.56,3.56,0,0,0-.13.62c-.18,1.28-.36,2.57-.53,3.85-.07.54-.07,1.08-.16,1.62-.17,1-.39,2.07-.58,3.11s-.4,2-.49,2.94a3.26,3.26,0,0,1-.25,1.48c-.3.46,0,1-.31,1.47a.21.21,0,0,0,0,.08L61.24,96l-.37.31v.76l-.32.41v1.73l-.47.39a6,6,0,0,1,0,1.26,5.47,5.47,0,0,1-.5,1.1l.16.9-.34.06c-.3.55-.1,1.3-.63,1.78a1.4,1.4,0,0,1,.06-1,6.32,6.32,0,0,0,.26-1,6.81,6.81,0,0,0,.39-2.47v-.09c.18-.79.32-1.59.55-2.36a14.22,14.22,0,0,0,.53-3.43l-.43-.92.71.24.12-.77-.55-.37a7,7,0,0,0,.43-.91,20.56,20.56,0,0,1,.37-2.35V89a6.54,6.54,0,0,1,.07-.8,2.46,2.46,0,0,0,.1-1.32,1.16,1.16,0,0,1,0-.53c.14-.7.31-1.4.43-2.1a2.87,2.87,0,0,0-.09-.75l-.59.83a6.49,6.49,0,0,1,0-.75c.13-1,.28-1.91.42-2.86.08-.54.15-1.08.24-1.61a14.44,14.44,0,0,0,.5-3.46,1,1,0,0,1,0-.18c.15-1.26.3-2.51.44-3.77a7.55,7.55,0,0,1,.07-1.26c.11-.87.25-1.73.39-2.59,0-.33.13-.66.22-1.1l.24.64.18-1.26L63.44,66v-.89c.09-1.05.19-2.1.29-3.15a1.33,1.33,0,0,1,.06-.44,2.49,2.49,0,0,0,.11-1.06,8.43,8.43,0,0,1,.2-2.06,2.86,2.86,0,0,0,0-2.1c0-.86,0-1.56,0-2.25a2.29,2.29,0,0,1,.18-1.14v-.19l-.17-.31V50.72c0-1.39-.07-2.78-.1-4.17a16.64,16.64,0,0,1,0-2,22.72,22.72,0,0,0-.17-3.15l-.46-.24L63.37,40h.13l.3,1a6.88,6.88,0,0,0-.12-2.66l-.25.16L63,37.89l.2-.36c-.42-.57-.25-1.22-.33-1.92l.58.38v-.71L62.8,35a19.17,19.17,0,0,1-.18-2.87c.29-.33.67-.6.43-1.17l-.55-.34a4.43,4.43,0,0,1-.21-1.7l.4-.2-.08-.42h-.3c-.07-.72-.44-1.44,0-2.16-.6-.7-.48-1.68-.87-2.45l-.85-.57-.43.59.59,1.16-.22.47.11.53a.76.76,0,0,1-.78.29c-.25-.07-.48-.32-.79-.09a4.6,4.6,0,0,0-.29,1.82l.37.49.56-.56.41,1.35-.68.11v-.57A1,1,0,0,0,59,29.8c.44.41.94.12,1.44.24l.24-.81-.79-2.32,1.43.46a8.54,8.54,0,0,1,.13,2.14,3.71,3.71,0,0,0,.12,1.61,3,3,0,0,1,.07.8A5.45,5.45,0,0,0,61.71,33a3.31,3.31,0,0,0,0,.67h-.64l-.53-.81H60a2,2,0,0,0-.08-.71,9,9,0,0,0-.16-1.06c0-.13-.21-.22-.35-.35A1.43,1.43,0,0,0,59,32.25l.45.38-.33,1.29.49.29c0,.46,0,.46-.31.76.38,1.07.38,1.07.13,1.61l-.49-.29a1.73,1.73,0,0,0-.07,1.47,2.65,2.65,0,0,1,.07.88,5.76,5.76,0,0,1,0,.59l.79.14-.9,1.26.75,1.29-.53.5.12.59c-.66.85-.25,1.86-.34,2.8.28.14.62,0,.72.45-.34.3-.83.47-.87,1l.14.81-1-.92c0-.12.2-.45-.17-.64a1,1,0,0,0-.31,1.12,1.38,1.38,0,0,1-.78.62c0-.34-.16-.66,0-1A3.08,3.08,0,0,0,56.74,46a3.19,3.19,0,0,1,.64-1.76c-.56-.71-.56-.72-.35-1.71a1.08,1.08,0,0,0,0-.35,1.09,1.09,0,0,0-.15-.3c-.47.59-.49,1-.14,2.46a8.84,8.84,0,0,0-.4,1.09,11.73,11.73,0,0,0-.16,1.25,5.56,5.56,0,0,1-.12.9,3.31,3.31,0,0,1-.16.45,1.61,1.61,0,0,1,0-1c.18-1.8.41-3.6.52-5.4.12-2,.12-4.05.18-6.08a2.5,2.5,0,0,1,.06-.67h.14v1a2.19,2.19,0,0,0,.37,0l.08-.11L57,33.21h-.08l-.17,1a.83.83,0,0,1-.12-.45c-.07-1.84-.13-3.69-.2-5.53,0-.36-.06-.72-.09-1.09a17.72,17.72,0,0,1-.17-2.44,18.23,18.23,0,0,0-.25-2.76c-.08-1-.25-1.91-.37-2.87a.67.67,0,0,1,0-.27,1.87,1.87,0,0,0-.2-1.39A3.5,3.5,0,0,1,55,16l.31-.32-.48-.32-.67-2.46-.42-.32-2-.49a7.22,7.22,0,0,1-.76.26c-.37.08-.75.09-1.11.19s-1,.32-1.46.49c.08.34.06.68.21.84.33.35.27.76.34,1.13a7.12,7.12,0,0,1-1.31,1.58,15.14,15.14,0,0,0-1.34,1.51c-.25.31-.47.66-.71,1,.15,1-.55,1.56-1,2.34l.6,1.14c.29.54.61,1.07.89,1.62s.44,1,.7,1.43a1.92,1.92,0,0,1,.42,1.65l.67.35c.32.88,1,1.62.67,2.63l.53.21a2.07,2.07,0,0,0,.83,1.74c0,.89.62,1.65.39,2.44a7.26,7.26,0,0,1,.34,1,1.85,1.85,0,0,0,1.09,1.53,10.91,10.91,0,0,1,.52,1.45c.27,1.3.54,2.6.7,3.91a35.8,35.8,0,0,1,.36,6.41,3.44,3.44,0,0,0,0,.36c0,.84.1,1.69.12,2.53a8,8,0,0,1-.08,1.63,19.71,19.71,0,0,0-.34,4.3,10.27,10.27,0,0,0,.16,1.42,2,2,0,0,0-.23,1.78,3.13,3.13,0,0,1,0,.36c0,1.33-.41,2.61-.4,3.94,0,.11-.09.22-.12.33a1,1,0,0,0-.07.43c.12.44-.13.75-.26,1.07a2.58,2.58,0,0,1,.07.65c-.18,1.07-.39,2.13-.59,3.19-.08.44-.19.88-.26,1.33-.16,1-.33,2-.47,2.94s-.49,2-.57,3a10.67,10.67,0,0,1-.5,2.65c-.23.66-.29,1.4-.46,2.09s-.15,1.53-.41,2.29c-.41,1.21-.65,2.49-1,3.74-.15.61-.28,1.23-.44,1.84s-.4,1.37-.59,2.06-.3,1.34-.53,2a1.42,1.42,0,0,0,0,1.23,1.16,1.16,0,0,0-.51,1.08.47.47,0,0,1-.09.33c-.33.32-.28.76-.32,1.18v.24l-.47.48.13.51a4.78,4.78,0,0,0-.59,1.19A6.36,6.36,0,0,1,44,102.4c-.33.82-.63,1.66-.93,2.5a11.69,11.69,0,0,1-.51,1.51,2.75,2.75,0,0,0-.41,1.7.59.59,0,0,1-.45.65c.37.78-.33.92-.59,1.35l-.13.78a13.06,13.06,0,0,0-1.68,3.92,7.45,7.45,0,0,0-.63.91c-.5,1-1,2.07-1.46,3.12-.23.51-.43,1-.69,1.54a15.49,15.49,0,0,0-1.23,2.53c0,.14-.23.22-.35.34a.84.84,0,0,0-.09.14l0,.36c-.15.2-.39.38-.44.61a2,2,0,0,1-.65,1,2.35,2.35,0,0,0-.71,1.29.93.93,0,0,1-.26.54,2.26,2.26,0,0,0-.57,1c-.22.47-.46.95-1,1l-.09.49-.42.19a1,1,0,0,1-.31.89c-.42.51-.85,1-1.23,1.56a16.88,16.88,0,0,1-3.54,3.79,10.08,10.08,0,0,1-1.8,1.22,9.73,9.73,0,0,0-1.24.85l-.49.31c-.44.29-.88.59-1.33.86a8.93,8.93,0,0,0-1.53,1.06,1,1,0,0,1-.52.23,1.44,1.44,0,0,0-1.06.79,3.28,3.28,0,0,0-2.16,1c-.11.14-.34.16-.52.23a3.37,3.37,0,0,0-1-.16,1.34,1.34,0,0,1-.4,0A7.24,7.24,0,0,1,10.57,141c-.08-.09-.24-.08-.38-.13a1.17,1.17,0,0,0-.15.36,12.88,12.88,0,0,0,0,1.45c.13,1.17.3,2.33.43,3.5.06.51,0,1,.07,1.53.06,1.06.38,1.43,1.32,1.56l.18.13.19.69,2.29.82.86-.26a6.27,6.27,0,0,0,3.23-.13l.45.62,3.16-.84c.36,0,1,.32,1.28-.33l2.92-1.06.48.47.62-.75.66.32.62-.31c.37-.64-.18-.84-.35-1.17l.26-.94c-.45,0-.84.14-1.08-.24l-.15-.58-.46.55-.88-.12.27-.83H24.78a5,5,0,0,0-.23-.67c0-.06-.19,0-.29-.06l-.32.71h-.11l-.09-1.5.42-.8-.35-1.23-.94-.17-.6,1.39c-.08-.21-.18-.34-.17-.45a6.66,6.66,0,0,1,.2-1.06c.25-.84.55-1.65,1.33-1.94.35-.95,1.17-1.06,1.75-1.47a5.76,5.76,0,0,1,.55-.78c.68-.69,1.41-1.32,2.07-2s1.53-1.17,1.91-2.17a.15.15,0,0,1,0-.07,2.22,2.22,0,0,0,.66-.89,2.75,2.75,0,0,1,1.29-1.23c-.24.7-.24.71-.58,1a2.93,2.93,0,0,0-1,2.2,2.71,2.71,0,0,1,.73.13l.14.26h-.57a1.47,1.47,0,0,0-.7,1.21h-.46c.34.45.34.45.83,0l.19.32,1-.09c.09.19.2.48.58.27a2.63,2.63,0,0,1,1.3-1.45,6.37,6.37,0,0,1,1.14-.45.29.29,0,0,1,.06-.17l-.56-.32.12-.67a7.9,7.9,0,0,0,.91-1.22c.19-.39.69-.67.44-1.29-.33-.11-.5.1-.59.41a3.2,3.2,0,0,1-.92,1.47,1.58,1.58,0,0,0-.44,1l-.06.57-.78-.25V133c.52,0,.66-.49.89-.85h0c.62-.23.69-1,1-1.41a3.89,3.89,0,0,1-.62-1.54c.35-.48.84-.44,1.3-.52v-.72l-.51-.43.42-.64c0-.51-.18-1,.36-1.35l.48.29.23-.29-.34-.71c.18-.31.35-.61.53-.9h.15l-.14.6c.18.09.32.18.46.24s.1,0,.19-.07V123l1,.7.2-2.28.2-.1c.26-.38.42-.61.56-.84s.35-.43.37-.67a2.14,2.14,0,0,1,1-1.67c.06,0,.09-.14.15-.26a3.65,3.65,0,0,0-.2-.36c-.1-.14-.21-.26-.36-.44l.71-.85v-.43l.38-.4c0-.34-.34-.68.07-.9l.43.91-.07,1-.42.39a3.71,3.71,0,0,0-.16,1.65,1.83,1.83,0,0,1,1.56-.49l.66-1c-.09-.4-.59-.54-.67-1.08a1.21,1.21,0,0,0,1.31-.65c.25.28.41.71.84.57.18-.43.35-.86.54-1.29s.3-1,.61-1.22.31-.87.72-1.2a1.63,1.63,0,0,0,.09.52c0,.14.1.33.16.51l.55-.08-.11.73c.65.84.81.87,1.66.32a.52.52,0,0,1,.44.66l-.68,1a4.77,4.77,0,0,0-.15-.6,2.83,2.83,0,0,0-.25-.4.78.78,0,0,0-.27.85.86.86,0,0,1-.09.12l-.31-.63-.25.81-.71-.39-.45.67-.42-.33c-.07.63-.61,1-.62,1.58l.76.72.43-.73.54,1,.48-.5a6.27,6.27,0,0,1,0-.75c0-.26.17-.45.5-.33l.18,1c-.27.76-.16,1.68-.78,2.34l-.54.18a6.73,6.73,0,0,1-.14,1.31,7.36,7.36,0,0,1-.61,1.75.74.74,0,0,0,0,.85l1.23-1.53-.13-.39.58-.47a6.71,6.71,0,0,1,.43-.81c0-.08.24,0,.4,0-.14.43-.24.76-.37,1.08s-.3.63-.43,1c-.56,1.4-1.1,2.81-1.68,4.27l-.5.47-.37,1.3a.53.53,0,0,0,.22.69l.63-.2c-.48,1.38-1.39,2.4-1.69,3.84l.75.17-.63,1.84-.27-.22.18-1.17-.58-.43c.1-.25.17-.47.26-.68a11.9,11.9,0,0,1,.67-1.34c.33-.52.17-1.06.22-1.68a1,1,0,0,0-.6.68,23.69,23.69,0,0,1-1.6,3,3.21,3.21,0,0,1-.53.9,5.55,5.55,0,0,0-1,1.55c-.26.53-.57,1-.82,1.55a14.25,14.25,0,0,1-1.38,2c-.88,1.25-1.72,2.53-2.57,3.8v.22c.53.06.54-.55.82-.8.67-.15,1.08-.36,1.15-.82a2.6,2.6,0,0,1,.76-1.24A15.47,15.47,0,0,0,40.46,139a3.37,3.37,0,0,1,.64-.7,13.36,13.36,0,0,1,2-3.71,2.42,2.42,0,0,1-.06.77,8.59,8.59,0,0,1-1.17,2.06,1.13,1.13,0,0,0-.24.36,14.76,14.76,0,0,1-1.81,3,7.42,7.42,0,0,0-.43.72c.44-.11.64-.51.91-.82a14.46,14.46,0,0,0,2.07-2.73,8.27,8.27,0,0,1,.94-1.23ZM22,122.26a5.85,5.85,0,0,1,.66-1,4.92,4.92,0,0,0,1.24-1.52,1.24,1.24,0,0,1,.16-.2c.87-1.15,1.77-2.28,2.59-3.47a6.47,6.47,0,0,0,1.24-2.2.89.89,0,0,1,.24-.36,5.34,5.34,0,0,0,1.19-2.1,5.09,5.09,0,0,1,.44-.86c.29-.54.59-1.07.85-1.63.46-1,1-1.88,1.42-2.84.35-.71.72-1.4,1-2.14a10.5,10.5,0,0,1,.86-1.94,16.69,16.69,0,0,0,1-2.23c.51-1.12.86-2.33,1.28-3.5.23-.64.43-1.3.67-1.93s.47-1.12.8-1.91a22.08,22.08,0,0,1,.76-2.86c.24-.61.37-1.24.56-1.85.28-.91.43-1.87.7-2.79a13,13,0,0,1,.88-2.8.84.84,0,0,0,0-.35A11,11,0,0,1,41.12,79a11,11,0,0,0,.42-1.65,15.18,15.18,0,0,1,.69-3.16,1,1,0,0,0,.08-.32,8.44,8.44,0,0,1,.43-2.48,3.76,3.76,0,0,0,.31-1.66,2.25,2.25,0,0,1,.15-.7A13.44,13.44,0,0,0,43.63,67a20.35,20.35,0,0,1,.28-2.05c.24-1.54.54-3.07.73-4.62.06-.51.16-1,.25-1.51a3.78,3.78,0,0,0,.16-1.06,3.5,3.5,0,0,1,.13-1.42,4.63,4.63,0,0,0,.13-.8c.09-1.05.16-2.1.25-3.15.14-1.6.3-3.19.42-4.79.1-1.3.16-2.59.22-3.89.09-1.93.2-3.86.23-5.8,0-1.36-.08-2.72-.14-4.08a18.81,18.81,0,0,0-.15-1.9,7.73,7.73,0,0,0-.36-1.18L45.54,30c-.4-.16-.61.19-.85.4s-.71.65-1.17.56l-.87,1.12a.52.52,0,0,1,0-.71c.14-.22.31-.42.45-.64v-.3l-.48.17c-.27.7-.54,1.38-1.37,1.31l-.1.13.26.46c-.53.26-1-.06-1.56-.28a3.07,3.07,0,0,1-.54,2.51h-.54c-.2.56.35.75.38,1.16l-.55.88-.73.18-.38.6A10.35,10.35,0,0,1,37.38,39a2,2,0,0,0-.14.93.58.58,0,0,1-.39.61,3.23,3.23,0,0,0-1.54,2.33l-.44,1L34.13,45l-1,.23,1,.38c-.25.55.15,1.13-.23,1.69l-.37-.76c-.14.77-.25,1.34-.35,1.91s-.21,1.23-.31,1.85h-.28l-.31-.06.33.82-1,1.26.13.62-.42.34a3.87,3.87,0,0,1-.61,2.89,6.94,6.94,0,0,0-.29.84c-.09.28-.19.55-.29.82a3.37,3.37,0,0,0-.42,1.79c-.08.05-.18.08-.22.15-.35.7-.71,1.4-1,2.12a5.12,5.12,0,0,0-.18,1l.37.31a1,1,0,0,0,.64-.82c.07-.32.18-.63.28-.95l.16-.11.2.32c-.1.19-.26.36-.24.49a1.81,1.81,0,0,1-.28,1.1c-.41.9-.8,1.81-1.18,2.68L28.75,67l-.59,1.36c-.14.32-.31.63-.44,1-.31.84-.59,1.69-.9,2.52-.38,1-.77,2.06-1.18,3.08-.71,1.75-1.31,3.57-2.1,5.28a.92.92,0,0,0-.07.26,2.42,2.42,0,0,1-.5,1.12.91.91,0,0,0-.28.82l.38-.11a.53.53,0,0,1,0,.19c-.52,1.39-1,2.78-1.58,4.15s-1,2.41-1.49,3.62c-.37.9-.71,1.82-1.07,2.73h-.1v1.56H19l1.14-2.4h.31L19.85,94a1.06,1.06,0,0,1-.12.33c-.38.47-.37,1.17-.81,1.62-.14.14-.16.44-.22.67a8.78,8.78,0,0,1-.24.86c-.47,1.15-1,2.29-1.43,3.44a5.89,5.89,0,0,0-.5,1.43c-.17,1.32-.94,2.37-1.2,3.64a9.2,9.2,0,0,1-.44,1c-.43,1.3-.82,2.62-1.24,3.93s-.78,2.38-1.14,3.59c-.25.83-.46,1.67-.68,2.51-.13.49-.22,1-.38,1.68l.08.6a1.73,1.73,0,0,1-.15.2,1.3,1.3,0,0,0-.37,1.38,2.14,2.14,0,0,1,.06.81c-.16,1.23-.23,2.46-.29,3.7-.09,1.75-.27,3.49-.42,5.24a.69.69,0,0,0,.23.7,1.22,1.22,0,0,0,.42,0c1.07-.46,2.14-.94,3.25-1.43l.65.41L16,129.4h.43c.16.26.3.56.63.25l.23-.9.87-.72a6.57,6.57,0,0,0,0-.87,1.57,1.57,0,0,1,.65-1.54c.39-.32.73-.72,1.09-1.07a2.65,2.65,0,0,1,.44-.39,1.5,1.5,0,0,0,.55-.64A1.92,1.92,0,0,1,22,122.3Zm9.89,43.41c-.2-.31-.46-.22-.69-.22-.77,0-1.5.45-2.29.27-.48.36-1,.13-1.5.13-1.26,0-2.52.2-3.78.09a4.37,4.37,0,0,0-1.21,0,5.68,5.68,0,0,1-2.16-.23,6.87,6.87,0,0,1-2.88-1.14A19.39,19.39,0,0,1,15.28,163a30.22,30.22,0,0,1-4.71-6,4.93,4.93,0,0,0-.68-.92,1.2,1.2,0,0,0-.08.32,63,63,0,0,0,1,6.25,2.14,2.14,0,0,0,.55,1.08,13.66,13.66,0,0,0,4.43,3.12c1.3.59,2.66,1,4,1.5a5.12,5.12,0,0,0,2.07.33,19.1,19.1,0,0,0,2.26-.17,14.52,14.52,0,0,0,2.48-.41,19.76,19.76,0,0,0,4.4-1.76,1.78,1.78,0,0,0,.9-.65ZM21.59,132c-.56-.05-.56-.06-.73.08-.39.32-.76.67-1.16,1-.63.49-1.4.73-2,1.27a1,1,0,0,1-.37.18l-1.19.38-.26.59-1.75.71c-.14.2-.31.61-.79.64l-.28-.46c-.34,0-.5.08-.49.47l.54.66h1.51c.44-.4.91-.86,1.4-1.26a13.55,13.55,0,0,1,1.3-.9,7.25,7.25,0,0,1,1.35-.77c.5-.18.69-.85,1.23-.91a4.21,4.21,0,0,1,1.3-1.18,3.18,3.18,0,0,0,.42-.46Zm28.85,17c.07.36.24.46.43.37a.91.91,0,0,0,.44-.37,6.33,6.33,0,0,1,1.39-1.62,2,2,0,0,0,.55-.75,2.53,2.53,0,0,1,.58-1,2.08,2.08,0,0,0,.59-1.29c-.14,0-.27,0-.33.08a9.6,9.6,0,0,0-1,1.25,9.41,9.41,0,0,1-1.46,2C51.21,148,50.84,148.45,50.44,148.91Zm-5.13-121a6.13,6.13,0,0,1-.18-.92,2.09,2.09,0,0,0-.59-1.42h-.16l-.33.44h-.57l.16,1.36A2.37,2.37,0,0,0,45.31,27.91ZM65.62,65.2a7.07,7.07,0,0,0-.1,1.36,11,11,0,0,1-.3,1.92,2.52,2.52,0,0,0,.09,1.43,1.14,1.14,0,0,0,.25.28l.57-2.3c-.45-.74.1-1.75-.21-2.67Zm-2-43.09-.26.49a2.55,2.55,0,0,1,.16,1.51,1,1,0,0,0,.22.91c.07.06.2,0,.38.06l.09-.75L63.78,24l.33-1.08.49.51.33-.48-1.19-1.68-.29.29ZM36.84,155.28l.11.15c.42-.21.92-.23,1.18-.78a.49.49,0,0,1,.25-.21l1.36-.51.11-.1L40,153l-.82-.25v.61l-.65.17-.39.55h-.32ZM66.42,39.55l1.08.77V38.73l-.62-.63.36-.91c-.2,0-.39,0-.49.11a1.11,1.11,0,0,0-.29.51,4.75,4.75,0,0,0-.14,1,5,5,0,0,0,.1.74Zm-52,101.06a1.18,1.18,0,0,0,1.18-.09c1-.68,2.08-1.39,3.12-2.1.07,0,.09-.17.23-.45ZM56.78,18.27l-.95-2.36c-.31.5-.1,1-.23,1.44A1.2,1.2,0,0,1,56,19c.25.3.44.61.78.35Zm-7.32,51.1a4.34,4.34,0,0,0,.21-.6q.42-2.53.82-5.07a3.17,3.17,0,0,0,0-.54,2.74,2.74,0,0,0-.06-.61,58.43,58.43,0,0,0-1,6.82Zm1.79-14.18h-.16q-.33,3.24-.67,6.48a.54.54,0,0,0,0,.17.11.11,0,0,0,0,.07h.15a57.39,57.39,0,0,0,.63-6.72Zm-1.37,88.46c.7-.68,1.58-1.24,1.7-2.48l-.27-.26-.36.55-.53-.83a3.72,3.72,0,0,0,0,.7,2.85,2.85,0,0,0,.27.52Zm12-61c.3,0,.37-.21.4-.47.07-.53.16-1.06.2-1.59.07-.77.11-1.55.16-2.33l-.17-.11a3.73,3.73,0,0,0-.1.51,14.43,14.43,0,0,1-.59,3.15.85.85,0,0,0,.11.79Zm-4,56.85.47-1.12.41-1,.52-.29a1.68,1.68,0,0,0-.18-1.5c-.14.47-.14.88-.32,1.06-.62.62-.58,1.6-1,2.29-.06,0,0,.2.12.51Zm6.79-14.35c-.11.06-.23.1-.23.14A1.8,1.8,0,0,1,64,126.4a.57.57,0,0,0-.12.33,2.85,2.85,0,0,1-.39,1.27.54.54,0,0,0,0,.67,5.71,5.71,0,0,0,.84-1.76c.06-.59.71-1,.38-1.81Zm-53,8.45h.17a1.81,1.81,0,0,0,.16-.45,5.63,5.63,0,0,0-.12-1.66,1.29,1.29,0,0,0-.77.57Zm7.91,29.23a24.23,24.23,0,0,1-3.33-1.21.33.33,0,0,0-.19.08,2.6,2.6,0,0,0,1.07.61,3.66,3.66,0,0,1,.82.35,1.66,1.66,0,0,0,1.67.12ZM66.94,90a4.26,4.26,0,0,1-.07,1,7.69,7.69,0,0,0-.27,2.18c0,.11.14.24.22.36a19.82,19.82,0,0,0,.4-3c0-.17-.1-.3-.25-.59ZM32,146.43l-.09-.18a7.42,7.42,0,0,0-2.54,1.47V148l2.45-1.35a1.82,1.82,0,0,0,.21-.3Zm-14.56-16c-.63-.88-1.28-.2-2-.32.22.42.08.89.54,1.09l.28-.6ZM52.31,140c.69-.06.84-.62,1.17-1l-.38-1.57-.33.32.31.87ZM66,58.84c-.21,1-.19,1.49.1,1.89.38-.43,0-1,.13-1.49h.61c-.25-.67-.25-.67-.8-.4ZM14.21,140l-.75-.23c-.14.08-.26.14-.38.22a2.49,2.49,0,0,0-.31.27c1,.47,1.06.45,1.48-.26ZM28.56,63.64a6.35,6.35,0,0,0-1.06,2.54c.12-.07.26-.11.28-.18a12.24,12.24,0,0,0,.82-2.36ZM65.73,121c-.26.68-.48,1.23-.69,1.8,0,0,.1.16.21.31.33-.68.83-1.19.52-2.11ZM25.21,163.66a5.58,5.58,0,0,0,2.7-.63,7.35,7.35,0,0,0-2.67.63ZM66.8,35.74A1.6,1.6,0,0,0,66,34.3l-.36.36Zm-9.29-1.83.69.25.51-1.54-.79.45.11.54Zm8.41,27.83a1.77,1.77,0,0,0,0,1.49.67.67,0,0,1,.27.07c0-.51.34-1.06-.27-1.53ZM58,32.48c.53-.56.52-.79,0-1.26l-.27.94a1.4,1.4,0,0,0,.13.21l.14.14ZM23.24,135.14c-.65.25-1.35.4-1.64,1.25a6.17,6.17,0,0,0,1.64-1.22ZM15.6,43.3c.25.18.45.31.71.1,0-.36,0-.77-.4-.92a.88.88,0,0,0-.31.85Zm26.07,61.34a5.67,5.67,0,0,0,.91-2.4,15,15,0,0,0-.74,1.73c-.07.24-.11.48-.17.7Zm17.53,28.5c-.58-.15-.7.21-.84.53.08.31.21.45.53.35Zm-7.63,6.77a1.4,1.4,0,0,0,.54,1.21.72.72,0,0,0,.07-.83Z"/><path d="M61.07,18.26l-.38-1.59c.5-.09,1-.2,1.47-.26a.48.48,0,0,1,.55.38l-.58.4.06.61A.93.93,0,0,1,61.07,18.26Z"/><path d="M41.44,1.21a2.13,2.13,0,0,1,.24-.39A.63.63,0,0,1,42,.69L43.57.28c.09.77-.48.71-.82.95L42.44.94l-.89.36Z"/><path d="M51.5,5.77l-.41-.9L51.22,4c.36,0,.4.29.38.58S51.54,5.26,51.5,5.77Z"/><path class="cls-1" d="M33.57,132.18c-.23.36-.37.82-.89.85v.89l.78.25.06-.57a1.58,1.58,0,0,1,.44-1,3.2,3.2,0,0,0,.92-1.47c.09-.31.27-.52.59-.41.25.62-.25.9-.44,1.29a7.9,7.9,0,0,1-.91,1.22l-.12.67.56.32c0,.07,0,.16-.06.17a6.37,6.37,0,0,0-1.14.45,2.63,2.63,0,0,0-1.3,1.45c-.38.22-.49-.08-.58-.27l-1,.09-.19-.32c-.49.44-.49.44-.83,0h.46a1.47,1.47,0,0,1,.7-1.21h.57c-.06-.13-.09-.25-.14-.26a6.86,6.86,0,0,0-.73-.13,2.93,2.93,0,0,1,1-2.2c.33-.31.33-.31.58-1a2.75,2.75,0,0,0-1.33,1.16,2.22,2.22,0,0,1-.66.89.15.15,0,0,0,0,.07c-.39,1-1.26,1.47-1.91,2.17s-1.39,1.34-2.07,2a5.76,5.76,0,0,0-.55.78c-.58.41-1.4.52-1.75,1.47a2.64,2.64,0,0,0-1.33,1.94,6.66,6.66,0,0,0-.2,1.06,1.53,1.53,0,0,0,.17.45l.6-1.39.94.17.35,1.23-.42.8.09,1.5h.11l.32-.71c.1,0,.26,0,.29.06a5,5,0,0,1,.23.67h1.63l-.27.83.88.12.46-.55.15.58c.24.37.63.27,1.08.24l-.26.94c.18.33.72.53.35,1.17l-.62.31-.66-.32-.62.75-.48-.47-2.91,1c-.31.65-.92.34-1.28.33l-3.16.84-.45-.62a6.27,6.27,0,0,1-3.23.13l-.86.26L12.19,150l-.19-.69c-.09-.06-.13-.12-.18-.13-.94-.13-1.26-.51-1.32-1.56a11.34,11.34,0,0,0-.07-1.53c-.13-1.17-.3-2.33-.43-3.5a12.88,12.88,0,0,1,0-1.45,1.17,1.17,0,0,1,.15-.36c.14,0,.3,0,.38.13a7.24,7.24,0,0,0,3.08,1.51,1.34,1.34,0,0,0,.4,0,3.37,3.37,0,0,1,1,.16c.18-.07.41-.09.52-.23a3.28,3.28,0,0,1,2.16-1,1.44,1.44,0,0,1,1.06-.79,1,1,0,0,0,.52-.23,8.93,8.93,0,0,1,1.57-1.08c.45-.27.88-.57,1.33-.86l.49-.31a9.73,9.73,0,0,1,1.24-.85A10.08,10.08,0,0,0,25.7,136a16.88,16.88,0,0,0,3.54-3.79,18.75,18.75,0,0,1,1.23-1.56,1,1,0,0,0,.31-.89l.42-.19.09-.49c.55-.08.79-.56,1-1a2.26,2.26,0,0,1,.57-1,.93.93,0,0,0,.26-.54,2.35,2.35,0,0,1,.71-1.29,2,2,0,0,0,.65-1c0-.23.29-.41.44-.61l0-.36a.83.83,0,0,1,.09-.14c.12-.12.31-.2.35-.34a15.49,15.49,0,0,1,1.25-2.53c.26-.49.45-1,.69-1.54.48-1,1-2.09,1.46-3.12a7.45,7.45,0,0,1,.63-.91A13.06,13.06,0,0,1,41,110.82l.13-.78c.26-.43,1-.57.59-1.35a.59.59,0,0,0,.45-.65,2.75,2.75,0,0,1,.41-1.7,11.69,11.69,0,0,0,.51-1.51c.3-.84.6-1.67.93-2.5a6.36,6.36,0,0,0,.47-1.32,4.78,4.78,0,0,1,.59-1.19L45,99.31l.47-.48v-.24a1.56,1.56,0,0,1,.32-1.18.47.47,0,0,0,.09-.33A1.16,1.16,0,0,1,46.36,96a1.42,1.42,0,0,1,0-1.23c.23-.64.35-1.32.53-2s.41-1.37.59-2.06.29-1.23.44-1.84a34.34,34.34,0,0,1,1-3.74c.26-.76.22-1.54.41-2.29s.23-1.43.46-2.09a10.67,10.67,0,0,0,.5-2.65c.09-1,.43-2,.57-3s.31-2,.47-2.94c.07-.45.18-.88.26-1.33.2-1.06.41-2.12.59-3.19a2.58,2.58,0,0,0-.07-.65c.12-.32.38-.63.26-1.07a1,1,0,0,1,.07-.43c0-.12.12-.22.12-.33,0-1.33.45-2.6.4-3.94a3.13,3.13,0,0,0,0-.36,2,2,0,0,1,.23-1.78c0-.47-.14-.95-.16-1.42a19.71,19.71,0,0,1,.34-4.3,8,8,0,0,0,.08-1.63c0-.85-.08-1.69-.12-2.53a3.44,3.44,0,0,1,0-.36A35.8,35.8,0,0,0,53,42.52c-.16-1.32-.43-2.62-.7-3.91a10.91,10.91,0,0,0-.52-1.45,1.85,1.85,0,0,1-1.09-1.53,7.26,7.26,0,0,0-.34-1c.23-.79-.35-1.54-.39-2.44a2.07,2.07,0,0,1-.83-1.74l-.53-.21c.28-1-.35-1.75-.67-2.63l-.67-.35a1.93,1.93,0,0,0-.42-1.65c-.28-.5-.45-1-.7-1.43s-.6-1.08-.89-1.62c-.21-.38-.41-.77-.6-1.14.44-.79,1.14-1.36,1-2.34.25-.36.46-.71.71-1a15.14,15.14,0,0,1,1.36-1.53A7.12,7.12,0,0,0,49,14.91c-.07-.37,0-.78-.34-1.13-.14-.15-.13-.5-.21-.84.5-.17,1-.36,1.46-.49s.74-.11,1.11-.19a7.22,7.22,0,0,0,.76-.26l2,.49.42.32.67,2.46.48.32-.31.32a3.5,3.5,0,0,0,.37,1.44,1.87,1.87,0,0,1,.2,1.39.67.67,0,0,0,0,.27c.12,1,.29,1.91.37,2.87a18.23,18.23,0,0,1,.25,2.76,17.72,17.72,0,0,0,.17,2.47c0,.36.07.72.09,1.09.07,1.84.13,3.69.2,5.53a.83.83,0,0,0,.12.45l.17-1H57l.28,2.59s0,.1-.08.11a2.19,2.19,0,0,1-.37,0V34.81h-.14c0,.22-.06.45-.06.67-.06,2-.06,4.06-.18,6.08-.11,1.81-.34,3.6-.52,5.4a1.61,1.61,0,0,0,0,1,3.31,3.31,0,0,0,.16-.45,6.94,6.94,0,0,1,.12-.9,11.73,11.73,0,0,1,.16-1.25,8.84,8.84,0,0,1,.4-1.09c-.35-1.46-.34-1.86.14-2.46a1.09,1.09,0,0,1,.15.3,1.08,1.08,0,0,1,0,.35c-.21,1-.2,1,.35,1.71a3.19,3.19,0,0,0-.64,1.76,3.08,3.08,0,0,1-.23,1.23c-.16.31,0,.63,0,1a1.38,1.38,0,0,0,.78-.62,1,1,0,0,1,.31-1.12c.36.19.12.52.17.64l1,.92-.14-.81c0-.51.53-.68.87-1-.1-.45-.44-.31-.72-.45.08-.93-.32-1.95.34-2.8L59,42.33l.53-.5-.75-1.29.9-1.26-.79-.14a5.76,5.76,0,0,0,0-.59,2.65,2.65,0,0,0-.07-.88,1.73,1.73,0,0,1,.07-1.47l.49.29c.25-.54.25-.54-.13-1.61.29-.3.29-.3.31-.76l-.49-.29.33-1.29L59,32.16a1.43,1.43,0,0,1,.45-1.52c.14.13.32.22.35.35a9,9,0,0,1,.16,1.06,6.17,6.17,0,0,0,.08.71h.6l.53.81h.64a2.77,2.77,0,0,0,0-.67,5.45,5.45,0,0,0-.07-1.07,3,3,0,0,0-.07-.8,3.71,3.71,0,0,1-.12-1.61,8.54,8.54,0,0,0-.13-2.14l-1.43-.37.76,2.27-.24.81c-.5-.12-1,.17-1.44-.24a1,1,0,0,1,.44-1.06v.57l.68-.11-.41-1.35-.56.56-.37-.49A4.6,4.6,0,0,1,59,26.05c.32-.23.54,0,.79.09a.76.76,0,0,0,.78-.29l-.11-.53.22-.47-.59-1.16.43-.59.85.57c.4.77.27,1.75.87,2.45-.46.73-.08,1.44,0,2.16h.47l.08.42-.4.2a4.43,4.43,0,0,0,.21,1.7l.55.34c.24.57-.14.84-.43,1.17A19.17,19.17,0,0,0,62.94,35l.65.25v.68L63,35.53c.09.7-.09,1.35.33,1.92l-.2.36.43.58.25-.16a6.88,6.88,0,0,1,.12,2.66l-.3-1h-.13l.11,1.19.46.24a22.72,22.72,0,0,1,.17,3.15,16.64,16.64,0,0,0,0,2c0,1.39.07,2.78.1,4.17V52.3l.17.31v.19a2.29,2.29,0,0,0-.18,1.14c0,.69,0,1.39,0,2.25a2.86,2.86,0,0,1,0,2.1,8.43,8.43,0,0,0-.2,2.06,2.49,2.49,0,0,1-.11,1.06,1.33,1.33,0,0,0-.06.44c-.1,1.05-.2,2.1-.29,3.15v.89l.44.18-.18,1.26-.24-.64c-.09.44-.16.77-.22,1.1-.14.86-.28,1.72-.39,2.59,0,.42,0,.84-.07,1.26-.14,1.26-.29,2.52-.44,3.77a1,1,0,0,0,0,.18A14.44,14.44,0,0,1,62,79c-.09.54-.16,1.07-.24,1.61-.14,1-.29,1.91-.42,2.86a6.49,6.49,0,0,0,0,.75l.59-.83a2.87,2.87,0,0,1,.09.75c-.12.71-.29,1.4-.43,2.1a1.16,1.16,0,0,0,0,.53,2.46,2.46,0,0,1-.1,1.32,6.54,6.54,0,0,0-.07.8v.27A20.56,20.56,0,0,0,61,91.56a7,7,0,0,1-.43.91l.55.37-.12.77-.71-.24.43.92a14.22,14.22,0,0,1-.53,3.43c-.22.77-.37,1.57-.55,2.36v.09a6.81,6.81,0,0,1-.39,2.47,6.32,6.32,0,0,1-.26,1,1.4,1.4,0,0,0-.06,1c.54-.48.33-1.23.63-1.78l.34-.06-.16-.9a5.47,5.47,0,0,0,.5-1.1,6,6,0,0,0,0-1.26l.47-.39V97.42L61,97v-.76l.37-.31.32-2.35a.21.21,0,0,1,0-.08c.28-.44,0-1,.31-1.47a3.26,3.26,0,0,0,.25-1.48c.1-1,.31-2,.49-2.94s.41-2.07.58-3.11c.09-.53.09-1.08.16-1.62.17-1.29.35-2.57.53-3.85a3.56,3.56,0,0,1,.13-.62,4.37,4.37,0,0,0,.21-2.31c-.12-.61,0-.73.67-1.16l-.31-.48.12-1.39c.17-.24.37-.14.61.1l-.14.34c1.06.76.74,1.9.59,3l-.51.3A1,1,0,0,1,66,77.89l-.52.28.19.49a1.09,1.09,0,0,1,.12.53l-.45-.36A1.75,1.75,0,0,0,65.52,80a2.33,2.33,0,0,1,.16,1.4c-.08.5,0,1-.08,1.52a6,6,0,0,1-.17,1.15,3.11,3.11,0,0,0-.09,1.34,10.75,10.75,0,0,1,0,1.43l.2.34.47-.28A.87.87,0,0,1,66,88a.7.7,0,0,0,.06,1h0l-.24.91c-.58-.35-.15-1.2-.67-1.57a1,1,0,0,0-.07.66l-.45.61h.54l.37.71c-.06.09-.08.2-.14.23a.73.73,0,0,0-.49.74l.47.64c-.09.67-.19,1.2-.22,1.73a1,1,0,0,0,.32.83c.44-.19.19-.51.07-.82l.41-.32.65.58-.48.38v.83c0,.29-.07.6-.11,1l.36.14a5,5,0,0,1-.14,2.14l-.39.35c.31,1.45-.12,2.76-.43,4.33a2.61,2.61,0,0,1-.16,1.35,5.19,5.19,0,0,0-.23,1.33c-.14,1.17-.27,2.34-.4,3.51a1.36,1.36,0,0,1-.11.52,9.13,9.13,0,0,0-.74,2.73c-.31,1.24-.57,2.5-.83,3.76a10.7,10.7,0,0,0-.11,1.29l-.44.43c-.18.47.18.95-.16,1.41l-.6-.31-.24.5.41.53a1.29,1.29,0,0,1,0,.28c-.14.36-.32.71-.43,1.08-.18.59-.31,1.2-.46,1.81-.09.34-.16.69-.28,1.21v.95a13,13,0,0,0-1.18,1,1.17,1.17,0,0,0-.28.72,3.3,3.3,0,0,1-.3,1.11,15,15,0,0,0-.45,1.53c-.06.2,0,.46-.16.59a2,2,0,0,0-.39,1.17l-1.14,1.47.06-.66c-.33-.45-.33-.45-.24-1.14l.55-.38-.1-.63-.67.51.27-1.25.48.22c.39-.48,0-.8-.22-1.07,0-.66.47-.81.8-1.25l.07-.88-.51.2s-.09-.08-.09-.12a2.4,2.4,0,0,1,.06-.62,21.1,21.1,0,0,1,.75-2.11c.35-.78.7-1.55,1-2.36a2.78,2.78,0,0,1,.47-.67c.18-.57.36-1.1.51-1.65s.27-1.1.4-1.66l-.59-.89c-.29.67-.6,1.26-.82,1.9a18,18,0,0,0-.46,1.82,3.55,3.55,0,0,1-.73,1.58,3.43,3.43,0,0,1,0-.57c.18-.57.36-1.14.57-1.7a4.84,4.84,0,0,0,.3-2.13,2.8,2.8,0,0,0-.84,1.27,6.06,6.06,0,0,0-.16.61,7.25,7.25,0,0,1-1.6,3.27,2.35,2.35,0,0,1-.59,1.62l-.22-.54a1,1,0,0,0-.17.92,6.39,6.39,0,0,1-.36,2c0,.16-.18.29-.29.42s-.25.18-.29.3A3,3,0,0,1,52.7,129a5.84,5.84,0,0,0-.81.87l.4.09-.4,1.18-1-.09a3.43,3.43,0,0,1,1.76-2.61l.44-1-.35-.48a3.72,3.72,0,0,0,0-1.61,3.13,3.13,0,0,1,.07-1.07c.36.21.41,1,1,.52l-.36-.37-.17-1.63.39-.71,1.12-.13-.3-2.24.16-.78.75-.62c-.46-.78.19-1.44.16-2.17-.48,0-.48,0-.92.89l-.67.43c0,.45.37.81.16,1.24-.1.2-.22.39-.36.65l-.33-.47s-.11.06-.12.1a3.47,3.47,0,0,1-.46,1.25,1.57,1.57,0,0,0-.23.85,2.59,2.59,0,0,1-.32,1.19c-.36.88-.75,1.74-1.14,2.6a3,3,0,0,1-.52.91,1.7,1.7,0,0,0-.59,1l-.32.11L49,128.43a.22.22,0,0,1,0,.17c-.59.89-1,1.89-1.58,2.82-.09.16-.3.23-.51.38,0,.06,0,.26-.09.33a8.39,8.39,0,0,0-1.52,2.54,1.09,1.09,0,0,1-.78.71h0l.63-1.84-.75-.17c.3-1.43,1.21-2.46,1.69-3.84l-.63.2a.53.53,0,0,1-.22-.69l.37-1.3.5-.47c.57-1.47,1.12-2.87,1.68-4.27.13-.33.3-.63.43-1s.23-.66.37-1.08h-.4a6.71,6.71,0,0,0-.43.81l-.58.47.13.39L46,124.12a.74.74,0,0,1,0-.85,7.36,7.36,0,0,0,.61-1.75,6.73,6.73,0,0,0,.14-1.31l.54-.18c.62-.66.51-1.58.78-2.34l-.18-1c-.33-.12-.45.07-.5.33a6.27,6.27,0,0,0,0,.75l-.48.5-.54-1L46,118l-.76-.72c0-.6.55-.94.62-1.58l.42.33.45-.67.71.39.31-.73.31.63s.09-.09.09-.12a.78.78,0,0,1,.27-.85,2.83,2.83,0,0,1,.25.4,4.77,4.77,0,0,1,.15.6l.68-1a.52.52,0,0,0-.36-.64L49,114c-.86.54-1,.51-1.66-.32l.11-.73-.55.08c-.06-.19-.12-.35-.16-.51a2.46,2.46,0,0,0-.09-.52c-.41.33-.33.9-.72,1.2s-.42.8-.61,1.22-.36.86-.54,1.29c-.44.14-.59-.29-.84-.57-.35.43-.7.79-1.31.65.08.54.58.68.67,1.08l-.66,1a1.83,1.83,0,0,0-1.56.49,3.71,3.71,0,0,1,.16-1.65l.42-.39.07-1-.43-.91c-.4.22-.06.55-.07.9l-.38.4v.43l-.71.85c.15.19.27.31.36.44a3.65,3.65,0,0,1,.2.36c-.06.11-.09.22-.15.26a2.14,2.14,0,0,0-1,1.67c0,.23-.23.45-.37.67l-.56.84-.2.1-.2,2.28-1-.7v1.64c-.1,0-.16.09-.19.07l-.46-.24.14-.6h-.15c-.18.29-.35.6-.53.9l.34.71-.23.29-.48-.29c-.53.3-.4.84-.36,1.35l-.42.64.51.43v.73c-.46.08-1,0-1.3.52a3.89,3.89,0,0,0,.62,1.54c-.36.45-.43,1.17-1,1.41a1.56,1.56,0,0,0-.2-1.79c-.51.14-.57.53-.52,1-.26.25-.71.32-.61.83a8.84,8.84,0,0,1,.92.14Zm22-81.54a1.62,1.62,0,0,0-.18.4c-.15,1-.29,2-.43,2.95a.85.85,0,0,0,.08.22c0-.07.11-.11.11-.15a14.73,14.73,0,0,1,.34-2.14,1.73,1.73,0,0,0,.06-1.3,3.55,3.55,0,0,0,.23-2.23,6,6,0,0,0-.2,2.25Zm1.74,49.2a17.93,17.93,0,0,0,.77-2.56,4,4,0,0,1,.22-.78c.23-1.05.47-2.11.68-3.16v-.53c.24-1,.51-2,.76-2.95.07-.29.13-.59.18-.89.14-.86.22-1.74.43-2.58.45-1.84.56-3.74.86-5.6.1-.62.13-1.26.23-1.89.24-1.57.5-3.14.73-4.72.12-.83.18-1.67.28-2.51.12-1.08.27-2.15.37-3.23.09-.9.11-1.81.18-2.71.13-1.72.3-3.43.41-5.15a5.33,5.33,0,0,0,0-2,.86.86,0,0,1,.24-.94V55.36l-.37-.57c0,1-.6,1.6-.26,2.43v.35q-.19,1.48-.37,3c-.08.65-.15,1.3-.23,2s-.2,1.68-.31,2.52a.73.73,0,0,1-.34.7l-.3-1.29a1.52,1.52,0,0,0,.38-1.32,6,6,0,0,1,0-1.33,7.39,7.39,0,0,1,.19-1c0-.31.08-.89.11-1.34a.41.41,0,0,0,0-.15h-.54l.56-.56-.44-.38.61-.6-.19-.88-.24-.15-.22-1.42.5-.61-1.09-.51-.18.05a1.84,1.84,0,0,1,.1,1.82,1,1,0,0,0,0,.27v1.09l.39.5-.34.31c-.62-.47-.35-1.36-.8-1.86a6.13,6.13,0,0,1-.66.35l.17-1.1.72-.23-.11-.24-1.43-.3c-.07-.64.63-.42.72-1-.1-.2-.27-.5-.41-.82a1.34,1.34,0,0,1,0-.42l.55.41v-1l-.62-.36.13-.44L58,51.15l.54.71a10.93,10.93,0,0,1-.11,3.76,3.58,3.58,0,0,0-.09,1.66L57.25,59.4l-.11,1.75.24.48a5.63,5.63,0,0,0-.63,4.05l-.58.48.15,3.26H56l-.35,1.25a.9.9,0,0,0-.76-.06l.62.64-.1,1.69-.35.45c-.38.14-.75-.21-1,.3L55,74.78l-.16,1.51-.69.32c.14.26.56.23.37.65l-1.06.46c-.17.55.21.66.43.9l.62-.49-.23,1.07.6.38c0,.44-.11.7-.12,1a1.83,1.83,0,0,1-.32,1.26,1.16,1.16,0,0,0-.11.86,1.76,1.76,0,0,1-.11,1.14,1.69,1.69,0,0,0-.13.61,6.69,6.69,0,0,1-.4,2.17l-.43.17.25,1.42-.34,1.1a1.31,1.31,0,0,0,.6-.92c.22-1,.43-2.06.71-3.07a7,7,0,0,0,.32-1.39,4.36,4.36,0,0,1,.24-.8,1.86,1.86,0,0,1,.11.41c-.06.57-.1,1.13-.2,1.69-.14.8-.32,1.58-.48,2.38-.12.61-.25,1.23-.36,1.84l.16.12a1.12,1.12,0,0,0,.15-.28c.17-.82.32-1.65.49-2.48.1-.5.26-1,.32-1.49a28.83,28.83,0,0,1,.71-3.43c0-.19.16-.33.35-.16L56,83.39c-.18.95-.36,1.89-.53,2.84a.86.86,0,0,0,.41,1l.42-2.17L56,84.61a1.58,1.58,0,0,0,.61-1.16c.07-.54.14-1.08.19-1.62a1.55,1.55,0,0,1,.35-1.05c.07.09.13.14.13.18a3.69,3.69,0,0,1,0,.54A10.4,10.4,0,0,0,57,83.2a13.26,13.26,0,0,1-.48,2.74c-.15.79-.46,1.55-.62,2.34a3.53,3.53,0,0,0,.12,2.62,5.84,5.84,0,0,0,.44.82,4.11,4.11,0,0,1,.36.68,3,3,0,0,0-.55,1.51,2.48,2.48,0,0,1-.39,1,.36.36,0,0,1-.48.17l-.07,0c-.29-.27-.09-.82-.49-1a.51.51,0,0,0-.43.58l0,.08a.9.9,0,0,1-.21.87H53.18c-.43-.52-.09-1,0-1.56a4.93,4.93,0,0,0-.77,3.34,3.78,3.78,0,0,0,.16-.49,4.65,4.65,0,0,1,0-.52c0-.07.16-.1.27-.16l.25.65.55.38a1.25,1.25,0,0,1-.12,1.17,3,3,0,0,0-.46,1.61.52.52,0,0,1-.37.6c-.06-.57.35-1.17-.16-1.61l-.8,2.06a3,3,0,0,1,0,.6,4.49,4.49,0,0,0,0,.82,1,1,0,0,1-.31.8v.19l.6-.09c0,.66,0,.66-.47,1.44a22.23,22.23,0,0,0-.47,2.43c-.07.86-.57,1.54-.73,2.44l.72.2.19-.64-.25-.34.37-1.26.36,1,.35-.89a2.24,2.24,0,0,1,.21.51c.07.6-.52.72-.7,1.17a1.82,1.82,0,0,0,0,.43,1,1,0,0,1-.36,1.19,2,2,0,0,0-.37.57v1.85c-.31,0-.6,0-.7.41l.18.7a9.71,9.71,0,0,0-.15,1c0,.32-.36.56-.62.83l.34.62,1.82-4.34a2.46,2.46,0,0,0,.09-.26l.93-3.17c.31-1.05.71-1.94.94-3,0-.14.11-.27.16-.42.14-.46.3-.91.42-1.37.43-1.62.84-3.24,1.29-4.85a7.89,7.89,0,0,0,.58-2.34,1.44,1.44,0,0,1,.13-.43c.14-.43.3-.85.4-1.28a15.09,15.09,0,0,1,.28-1.5,25.31,25.31,0,0,0,.83-3.5c0-.09.12-.15.21-.25.28.42.06.76,0,1.08a8.83,8.83,0,0,0-.38,2,4.12,4.12,0,0,1-.26,1.3,10,10,0,0,0-.57,2.73,5.41,5.41,0,0,1-.53,2.07,4.45,4.45,0,0,0-.5,1.79,1.34,1.34,0,0,1-.34,1.07.74.74,0,0,1,0,.24l.19.63a13.64,13.64,0,0,0,.87-2.49c.52-2.1,1-4.22,1.54-6.3.45-1.65.74-3.34,1.1-5,.26-1.2.45-2.43.69-3.64,0-.21,0-.53.3-.65a43.65,43.65,0,0,1-.83,5.1c-.16.67-.23,1.38-.43,2a17.8,17.8,0,0,0-.57,3.2,10.84,10.84,0,0,1-.32,1.49,8.73,8.73,0,0,0-.51,2.82l-.39.51a7.91,7.91,0,0,0-.56,3,.47.47,0,0,0,.21-.27A9,9,0,0,1,57,101.6a13.49,13.49,0,0,0,.35-1.77Zm5.2-62.76a2.07,2.07,0,0,1-.12-.66,1.65,1.65,0,0,0-.45-1.61,1.22,1.22,0,0,1-.2-.41l-.93.06a.78.78,0,0,0-.76.64,1.34,1.34,0,0,1,1.26,1.28l-.36,1c-.39-.42.25-1.14-.44-1.35a.78.78,0,0,0-.49.76l.45.35.06,1.12L61,38.1l.36.78a1.29,1.29,0,0,0,.67-.77,8,8,0,0,1,.49-1ZM51.9,95.33a.61.61,0,0,0,.38-.62A14.76,14.76,0,0,1,53,92.05c.19-.71.29-1.45.43-2.18a1.68,1.68,0,0,0-.09-.27h-.4l-.09,1-.31.28a8.86,8.86,0,0,1-.36,1.43c-.22.49.1.93,0,1.4a13.4,13.4,0,0,0-.25,1.62Zm.76,17.21h.14a1.42,1.42,0,0,1,.11-.33,22.59,22.59,0,0,1,.73-2.39c.65-1.53,1-3.18,1.5-4.77a2.53,2.53,0,0,0,0-.66,4.64,4.64,0,0,0-.63,1.58,3.52,3.52,0,0,1-.31,1.11,2.54,2.54,0,0,0-.35,1.07c0,.35-.29.67-.25,1.1a1.52,1.52,0,0,1-.19.58c-.08.22-.18.44-.25.66l-.55,1.73ZM55.78,115l.15.07c.38-1,.77-2.09,1.15-3.14a.6.6,0,0,0-.13-.74c-.35,0-.39.33-.49.6a19.24,19.24,0,0,0-.68,3.21Zm-4.56-15a4.5,4.5,0,0,0-.09-1.13,2.16,2.16,0,0,0-.27-.63h-.25l-.14.7-.52.38c.5.32.52.8.58,1.32l.3-.57ZM62.69,47.24a4.5,4.5,0,0,1-.59-.36,5.63,5.63,0,0,1-.47-.55,2.08,2.08,0,0,0-.21.58c0,.53.06,1.06.1,1.6l.1.13.51-.26L62,48,62,47.64Zm-14.12,71c-.2.34.14.66.08,1l-.19,1.12a1.49,1.49,0,0,0,.68-1.14c0-.48.59-.76.32-1.27Zm-29.8,25.55-.87-.17a.79.79,0,0,0,.25.87c.69,0,1.11-.68,1.69-.95a.4.4,0,0,1,.09-.22l-.32-.28c-.16.16-.27.29-.4.4s-.29.23-.43.33ZM57.59,52.46V51.37c0-.35.22-.68-.06-1l-.88,1.2.49.15c.17.48.17.48.46.73Zm3.12,33.93c-.07.35-.14.7-.19,1s-.09.72-.13,1.08-.21.66,0,1.1a5.27,5.27,0,0,0,.33-3.2ZM56.6,59.33a2.86,2.86,0,0,1,.48-2c.2-.27.06-.53-.29-.69-.6,2.1-.6,2.1-.19,2.68ZM53.69,94.91c.77-.49.65-1.27.83-1.9a.33.33,0,0,0,0-.17H54ZM16.83,145.69a.72.72,0,0,0-.85,0,.65.65,0,0,0-.38.69,2,2,0,0,0,.89.25Zm41-97.92a.63.63,0,0,0-.49.55l.58.13-.26.86c.45.17.61.09.65-.28a1.88,1.88,0,0,0-.52-1.29Zm-10.56,61.3v2c.13-.1.25-.15.27-.23a4.34,4.34,0,0,0,.27-1.75Zm-4-.45.6.87c.19-.28.59-.14.63-.68a9.57,9.57,0,0,0-.89-.46c-.09-.05-.22.12-.37.24Zm17.9-66.71-.19-1h-.6c.53.61.09,1.29.38,2Zm3.46,51.52-.41.42a1.33,1.33,0,0,0,.25,1,3.09,3.09,0,0,0,.16-2.42Zm-9.49-5.77-.29,1.83a2.14,2.14,0,0,0,.76-1.67.36.36,0,0,0-.09-.21Zm-3.72,27.19v1.3c.29-.71.51-1.23.7-1.76a2.45,2.45,0,0,0,0-.62Zm-6.71-7.74.1-1.95a1.74,1.74,0,0,0-.43,1.69,3.83,3.83,0,0,0,.34.23Zm20.71-6.64c-.4.34-.31.81-.45,1.17-.08.19-.22.44,0,.67.25-.07.29-.33.34-.55a2.54,2.54,0,0,0,.12-1.32ZM55.67,66.54l.07-.1a2.84,2.84,0,0,1-.33-.55,3.94,3.94,0,0,1-.1-.73l-.77-.36c-.08.61.47.45.61.78v.7Zm-5.84,36.69.48-1.3a.82.82,0,0,0,.07-.35,1.54,1.54,0,0,0-.19-.39,3.25,3.25,0,0,0-.36,2Zm-.43,6.51a1.15,1.15,0,0,0,.49-1.05c0-.1-.12-.22-.22-.38a1.17,1.17,0,0,0-.27,1.4Zm5.9-2.7c-.68,1.09-.71,1.28-.35,1.72a1.72,1.72,0,0,0,.18-.4c.07-.45.11-.91.18-1.35Zm-2.43,7a2.78,2.78,0,0,0-.56,2c.28-.73.75-1.19.56-2Zm1.88-45.45.68.38c.11-.64.12-.64-.15-.92,0-.05-.15-.05-.29-.1Zm1-11.33a1.6,1.6,0,0,0,.17-1.6l-.43.78Zm6.1-6.72a3.65,3.65,0,0,0-.54-1.33l-.15,1.23Z"/><path class="cls-1" d="M22,122.3a1.92,1.92,0,0,0-1.12,1.12,1.5,1.5,0,0,1-.55.64,2.65,2.65,0,0,0-.44.39c-.36.36-.7.75-1.09,1.07a1.57,1.57,0,0,0-.65,1.54,6.57,6.57,0,0,1,0,.87l-.87.72-.23.9c-.34.31-.47,0-.63-.25H16l-1.13.89-.65-.41c-1.1.49-2.17,1-3.25,1.43a1.22,1.22,0,0,1-.42,0,.69.69,0,0,1-.23-.7c.14-1.75.33-3.49.42-5.24.06-1.24.14-2.47.29-3.7a2.14,2.14,0,0,0-.06-.81,1.3,1.3,0,0,1,.37-1.38,1.73,1.73,0,0,0,.15-.2l-.08-.6c.16-.69.26-1.19.38-1.68.22-.84.43-1.68.68-2.51.36-1.2.76-2.39,1.14-3.59s.81-2.62,1.24-3.93a9.2,9.2,0,0,0,.44-1c.25-1.28,1-2.33,1.2-3.64a5.89,5.89,0,0,1,.5-1.43c.47-1.15,1-2.29,1.43-3.44a8.78,8.78,0,0,0,.24-.86c.07-.23.08-.53.22-.67.44-.45.43-1.15.81-1.62a1.06,1.06,0,0,0,.12-.33l.55-1.76h-.31l-1.14,2.4h-.12V93h.1c.36-.91.7-1.82,1.07-2.73.49-1.21,1-2.41,1.49-3.62.54-1.38,1.06-2.77,1.58-4.15a.53.53,0,0,0,0-.19l-.38.11a.91.91,0,0,1,.28-.82,2.42,2.42,0,0,0,.5-1.12.92.92,0,0,1,.07-.26c.79-1.71,1.39-3.53,2.1-5.28.41-1,.8-2,1.18-3.08.31-.84.59-1.69.9-2.52.12-.33.29-.64.44-1l.59-1.36-.5-1c.38-.86.77-1.78,1.18-2.68a1.81,1.81,0,0,0,.28-1.1c0-.13.14-.3.24-.49l-.2-.32c-.08.05-.15.07-.16.11-.1.31-.2.62-.28.95a1,1,0,0,1-.64.82l-.32-.29a5.12,5.12,0,0,1,.2-1.06c.3-.73.67-1.42,1-2.12,0-.07.13-.09.22-.15a3.37,3.37,0,0,1,.42-1.79c.1-.27.2-.55.29-.82a6.94,6.94,0,0,1,.29-.84,3.87,3.87,0,0,0,.61-2.89l.42-.34-.13-.62,1-1.26-.33-.82.31.06h.28c.1-.62.2-1.24.31-1.85l.35-1.91.37.76c.37-.55,0-1.14.23-1.69l-1-.38,1-.23.74-1.11.44-1a3.23,3.23,0,0,1,1.56-2.36.58.58,0,0,0,.42-.58,2,2,0,0,1,.14-.93,10.35,10.35,0,0,0,.11-1.49l.38-.6.73-.18.55-.88c0-.41-.59-.6-.38-1.16h.54a3.07,3.07,0,0,0,.54-2.51c.61.22,1,.54,1.56.28L41.22,32s.07-.13.1-.13c.83.07,1.1-.61,1.37-1.31l.48-.17v.3c-.14.22-.31.42-.45.64a.52.52,0,0,0,0,.71l.87-1.12c.46.09.81-.24,1.17-.56s.45-.56.85-.4l.24.71a7.73,7.73,0,0,1,.36,1.18,18.81,18.81,0,0,1,.15,1.9c.06,1.36.16,2.72.14,4.08,0,1.93-.14,3.87-.23,5.8-.06,1.3-.12,2.6-.22,3.89-.12,1.6-.29,3.19-.42,4.79-.09,1.05-.16,2.1-.25,3.15a4.63,4.63,0,0,1-.13.8,3.5,3.5,0,0,0-.13,1.42A3.78,3.78,0,0,1,45,58.72c-.08.5-.19,1-.25,1.51-.19,1.55-.49,3.08-.73,4.62a20.35,20.35,0,0,0-.28,2.05A13.44,13.44,0,0,1,43.27,69a2.25,2.25,0,0,0-.15.7,3.76,3.76,0,0,1-.31,1.66,8.44,8.44,0,0,0-.5,2.54,1.05,1.05,0,0,1-.06.35,15.18,15.18,0,0,0-.69,3.16,11,11,0,0,1-.42,1.65,11,11,0,0,0-.54,2.74.84.84,0,0,1,0,.35,13,13,0,0,0-.88,2.8c-.27.92-.42,1.88-.7,2.79-.19.61-.32,1.24-.56,1.85a22.08,22.08,0,0,0-.76,2.86c-.34.79-.59,1.34-.8,1.91s-.44,1.29-.67,1.93c-.42,1.17-.77,2.38-1.28,3.5a16.69,16.69,0,0,1-1,2.23A10.5,10.5,0,0,0,33,104c-.29.75-.66,1.44-1,2.14-.46,1-1,1.88-1.42,2.84-.27.55-.57,1.08-.85,1.63a5.09,5.09,0,0,0-.44.86,5.34,5.34,0,0,1-1.14,2.15A.89.89,0,0,0,28,114a6.47,6.47,0,0,1-1.24,2.2c-.82,1.19-1.72,2.32-2.59,3.47a1.24,1.24,0,0,0-.16.2,4.92,4.92,0,0,1-1.24,1.52A5.85,5.85,0,0,0,22,122.3Zm9.35-61.39a21.85,21.85,0,0,0,1.52-4.22l-.77,1.23C32.11,59,31.41,59.86,31.36,60.91Z"/><path class="cls-1" d="M31.9,165.71c-.21.39-.59.49-.91.68a19.76,19.76,0,0,1-4.4,1.76,14.52,14.52,0,0,1-2.48.41c-.75.09-1.5.13-2.26.17a5.12,5.12,0,0,1-2.07-.33c-1.33-.49-2.69-.91-4-1.5a13.66,13.66,0,0,1-4.43-3.12,2.14,2.14,0,0,1-.55-1.08c-.41-2.07-.75-4.15-1-6.25a1.2,1.2,0,0,1,.08-.32,4.93,4.93,0,0,1,.68.92,30.22,30.22,0,0,0,4.71,6,19.39,19.39,0,0,0,2.09,1.55,6.87,6.87,0,0,0,2.88,1.14,5.68,5.68,0,0,0,2.16.23,4.37,4.37,0,0,1,1.21,0c1.26.12,2.52-.1,3.78-.09.5,0,1,.23,1.5-.13.79.18,1.52-.29,2.29-.27C31.45,165.49,31.7,165.4,31.9,165.71Z"/><path class="cls-1" d="M44.36,135.51l-1,1.2a8.27,8.27,0,0,0-.94,1.23,14.46,14.46,0,0,1-2.07,2.73c-.27.31-.47.71-.91.82a7.42,7.42,0,0,1,.43-.72,14.76,14.76,0,0,0,1.81-3,1.13,1.13,0,0,1,.24-.36,8.59,8.59,0,0,0,1.17-2.06c.09-.14,0-.39.06-.77a13.36,13.36,0,0,0-2,3.71,3.37,3.37,0,0,0-.64.7,15.47,15.47,0,0,1-1.38,1.87,2.6,2.6,0,0,0-.76,1.24c-.08.46-.49.68-1.15.82-.28.25-.29.86-.82.8v-.22c.85-1.27,1.69-2.56,2.57-3.8a14.25,14.25,0,0,0,1.38-2c.25-.53.57-1,.82-1.55a5.55,5.55,0,0,1,1-1.55,3.21,3.21,0,0,0,.53-.9,23.69,23.69,0,0,0,1.6-3,1,1,0,0,1,.6-.68c0,.62.11,1.16-.22,1.68A11.9,11.9,0,0,0,44,133c-.1.21-.17.43-.26.68l.58.43-.18,1.17.27.22Z"/><path class="cls-1" d="M21.62,132a3.18,3.18,0,0,1-.37.49,4.21,4.21,0,0,0-1.3,1.18c-.55.06-.73.73-1.23.91a7.25,7.25,0,0,0-1.35.77,13.55,13.55,0,0,0-1.3.9c-.5.41-1,.86-1.4,1.26H13.16l-.54-.66c0-.39.15-.52.49-.47l.28.46c.48,0,.65-.44.79-.64l1.75-.71.26-.59,1.19-.38a1,1,0,0,0,.37-.18c.61-.54,1.38-.77,2-1.27.4-.31.77-.66,1.16-1C21.05,131.91,21.06,131.91,21.62,132Z"/><path class="cls-1" d="M13.83,133.91l.45.47a2.12,2.12,0,0,0,1.43-.62c.54-.49,1.13-.91,1.75-1.41V132l.14-.06a2.17,2.17,0,0,0,.61-.13q.86-.48,1.69-1c.28-.19.27-.22.75-.1a.3.3,0,0,1-.1.22,6.65,6.65,0,0,0-1.43,1.29,7.79,7.79,0,0,1-2,1.33,1.41,1.41,0,0,0-.48.32,5.28,5.28,0,0,1-1.48,1,.47.47,0,0,1-.15.06,7.82,7.82,0,0,0-1.07.28,9.92,9.92,0,0,0-.93.54.75.75,0,0,1-.93,0c.32-.69,1-.59,1.44-1l.28-.83Z"/><path class="cls-1" d="M19.83,135.32a.77.77,0,0,0-.61.84,3.06,3.06,0,0,0-.72.23c-1,.62-1.93,1.33-2.94,1.89a13.48,13.48,0,0,1-2.42,1,3.68,3.68,0,0,1-1.67-.18c0-.11.07-.19.11-.2L14,138a2.94,2.94,0,0,0,.47-.14q1.74-1,3.47-1.95c.43-.25.84-.54,1.27-.79a1.71,1.71,0,0,1,.42-.12l.15.32Z"/><path class="cls-1" d="M45.15,89.3a10,10,0,0,1,.49-2.56c.43-2,1-4,1.41-6.06.39-1.69.79-3.39,1.13-5.09.27-1.32.46-2.67.7-4a7.62,7.62,0,0,1,.51-1.75,1.1,1.1,0,0,1,0,.34c-.4,2.16-.77,4.33-1.24,6.48-.78,3.55-1.62,7.09-2.43,10.63-.08.35-.13.71-.23,1.06s-.09.73-.42.94Z"/><path class="cls-1" d="M50.44,148.91c.4-.43.77-.87,1.18-1.26a9.41,9.41,0,0,0,1.46-2,9.6,9.6,0,0,1,1-1.25c.06-.07.19-.05.33-.08a2.08,2.08,0,0,1-.59,1.29,2.53,2.53,0,0,0-.58,1,2,2,0,0,1-.55.75,6.33,6.33,0,0,0-1.38,1.55.91.91,0,0,1-.43.37C50.68,149.34,50.51,149.24,50.44,148.91Z"/><path class="cls-1" d="M45.31,27.91a2.37,2.37,0,0,1-1.67-.53L43.48,26h.57l.33-.44h.16A2.09,2.09,0,0,1,45.13,27,6.14,6.14,0,0,0,45.31,27.91Z"/><path class="cls-1" d="M65.59,65.2h.31c.31.92-.24,1.93.21,2.67l-.57,2.3a1.14,1.14,0,0,1-.23-.26,2.52,2.52,0,0,1-.11-1.41,11,11,0,0,0,.3-1.92A7.07,7.07,0,0,1,65.59,65.2Z"/><path class="cls-1" d="M31.31,10.77a.64.64,0,0,1-.12.82,10,10,0,0,0-1,1.56,4.58,4.58,0,0,1-.46.47c-.38-.46-.13-1-.46-1.5l.83.15.51-.58c-.07-.6-.43-.45-.73-.53.4-.27.52-.84,1.09-1l-.12.71h.53Z"/><path class="cls-1" d="M63.56,22.12l-.16-.6.29-.29,1.19,1.68-.33.48-.49-.51L63.73,24l.43.37-.09.75c-.18,0-.31,0-.38-.06a1,1,0,0,1-.22-.91,2.55,2.55,0,0,0-.16-1.5Z"/><path class="cls-1" d="M36.84,155.28l1-1.14h.32l.39-.55.65-.17v-.61l.82.25-.12.82a.58.58,0,0,1-.11.1l-1.36.51a.49.49,0,0,0-.25.21c-.26.55-.76.57-1.18.78Z"/><path class="cls-1" d="M66.42,39.55a5,5,0,0,1-.08-.77,4.75,4.75,0,0,1,.14-1,1.11,1.11,0,0,1,.29-.51c.1-.09.28-.07.49-.11l-.36.91.62.63v1.59Z"/><path class="cls-1" d="M14.42,140.61,19,138c-.14.28-.16.4-.23.45-1,.71-2.07,1.41-3.12,2.1A1.18,1.18,0,0,1,14.42,140.61Z"/><path class="cls-1" d="M56.78,18.27v1.06c-.35.26-.54-.05-.78-.35a1.2,1.2,0,0,0-.4-1.63c.13-.45-.08-.94.23-1.44Z"/><path class="cls-1" d="M19.81,135.34l.45-.19a.78.78,0,0,0,.42-.91l1.25-1,1.3-.41a5.63,5.63,0,0,1-.47.57l-2.6,2.25-.33-.32Z"/><path d="M33.57,132.18a1.23,1.23,0,0,1-.39.1,6.22,6.22,0,0,1-.92-.14c-.11-.51.34-.57.61-.83,0-.44,0-.84.52-1a1.56,1.56,0,0,1,.2,1.79Z"/><path class="cls-1" d="M49.46,69.37a58.43,58.43,0,0,1,1-6.81c0,.31.06.46.06.61a3.17,3.17,0,0,1,0,.54q-.4,2.54-.82,5.07A4.34,4.34,0,0,1,49.46,69.37Z"/><path class="cls-1" d="M51.25,55.19a57.39,57.39,0,0,1-.6,6.69H50.5a.11.11,0,0,1,0-.07.54.54,0,0,1,0-.17q.33-3.24.67-6.48Z"/><path class="cls-1" d="M13.84,133.85l-1.35.54v.07h-.7l-.73,1-.36-.88a10.62,10.62,0,0,1,3-1.17l.09.44Z"/><path class="cls-1" d="M49.88,143.65l.84-1.79a2.85,2.85,0,0,1-.27-.52,3.72,3.72,0,0,1,0-.7l.53.83.33-.56.28.25C51.46,142.41,50.58,143,49.88,143.65Z"/><path class="cls-1" d="M61.89,82.6a.85.85,0,0,1-.09-.83,14.43,14.43,0,0,0,.59-3.15,3.73,3.73,0,0,1,.1-.51c.09.05.17.08.17.11,0,.78-.09,1.55-.16,2.33a14.39,14.39,0,0,1-.2,1.59A.39.39,0,0,1,61.89,82.6Z"/><path class="cls-1" d="M57.9,139.45c-.09-.32-.19-.49-.15-.54.46-.7.42-1.67,1-2.29.18-.18.19-.59.32-1.06a1.68,1.68,0,0,1,.18,1.5l-.52.29-.41,1Z"/><path class="cls-1" d="M64.69,125.1c.33.79-.32,1.22-.4,1.85a5.71,5.71,0,0,1-.79,1.67.54.54,0,0,1,0-.67,2.85,2.85,0,0,0,.39-1.27.57.57,0,0,1,.12-.33,1.8,1.8,0,0,0,.46-1.11Z"/><path class="cls-1" d="M11.7,133.55,11.14,132a1.29,1.29,0,0,1,.77-.57,5.63,5.63,0,0,1,.12,1.66,1.81,1.81,0,0,1-.16.45Z"/><path class="cls-1" d="M19.62,162.78a1.66,1.66,0,0,1-1.64-.17,3.66,3.66,0,0,0-.82-.35,2.6,2.6,0,0,1-1.07-.61c.1,0,.16-.1.19-.08A24.23,24.23,0,0,0,19.62,162.78Z"/><path class="cls-1" d="M67,90c.14.28.28.42.27.55a19.82,19.82,0,0,1-.4,3c-.08-.12-.22-.25-.22-.36A7.69,7.69,0,0,1,66.89,91,4.26,4.26,0,0,0,67,90Z"/><path class="cls-1" d="M32,146.38c-.06.09-.11.21-.2.26L29.39,148v-.31a7.42,7.42,0,0,1,2.54-1.47Z"/><path class="cls-1" d="M17.48,130.42l-1.17.17-.28.6c-.47-.2-.32-.67-.54-1.09C16.19,130.21,16.84,129.54,17.48,130.42Z"/><path class="cls-1" d="M52.31,140l.77-1.37-.31-.87.33-.32.38,1.57C53.19,139.35,53,139.91,52.31,140Z"/><path class="cls-1" d="M66.07,58.84c.55-.28.55-.28.83.36h-.61c-.1.52.25,1.05-.13,1.49C65.88,60.33,65.85,59.8,66.07,58.84Z"/><path class="cls-1" d="M45.14,89.29c-.1.59-.16,1.19-.3,1.77s-.41,1.36-.66,2.19a8.81,8.81,0,0,1,1-3.94Z"/><path class="cls-1" d="M14.25,140c-.41.71-.51.73-1.44.26a3.3,3.3,0,0,1,.31-.27,3.89,3.89,0,0,1,.38-.22Z"/><path class="cls-1" d="M28.6,63.64A12.24,12.24,0,0,1,27.82,66c0,.08-.16.11-.28.18A6.35,6.35,0,0,1,28.6,63.64Z"/><path class="cls-1" d="M65.77,121c.31.94-.19,1.43-.48,2.1-.11-.15-.23-.26-.21-.31C65.31,122.22,65.5,121.67,65.77,121Z"/><path class="cls-1" d="M25.24,163.66a7.35,7.35,0,0,1,2.7-.63A5.58,5.58,0,0,1,25.24,163.66Z"/><path class="cls-1" d="M66.83,35.73l-1.15-1.08.36-.36A1.6,1.6,0,0,1,66.83,35.73Z"/><path class="cls-1" d="M57.51,33.91l.53-.29-.11-.54.79-.45-.51,1.54Z"/><path class="cls-1" d="M65.92,61.77c.6.47.28,1,.3,1.55-.13,0-.24,0-.27-.07A1.77,1.77,0,0,1,65.92,61.77Z"/><path class="cls-1" d="M58,32.51l-.19-.12a1.4,1.4,0,0,1-.13-.21l.27-.94C58.56,31.72,58.57,31.91,58,32.51Z"/><path class="cls-1" d="M23.24,135.17a6.17,6.17,0,0,1-1.64,1.25C21.89,135.57,22.59,135.42,23.24,135.17Z"/><path class="cls-1" d="M15.6,43.33c0-.35,0-.63.31-.81.44.15.36.56.4.92C16.05,43.64,15.85,43.51,15.6,43.33Z"/><path class="cls-1" d="M41.67,104.67c.06-.22.1-.45.18-.67a15,15,0,0,1,.74-1.73A5.67,5.67,0,0,1,41.67,104.67Z"/><path class="cls-1" d="M59.2,133.17l-.31.88c-.31.1-.45,0-.53-.35C58.5,133.38,58.62,133,59.2,133.17Z"/><path class="cls-1" d="M51.57,139.91l.61.39a.72.72,0,0,1-.07.83A1.4,1.4,0,0,1,51.57,139.91Z"/><path d="M57.31,99.85A8.72,8.72,0,0,1,57.82,97a10.84,10.84,0,0,0,.32-1.49,17.8,17.8,0,0,1,.57-3.2c.2-.65.26-1.36.43-2a43.65,43.65,0,0,0,.83-5.1c-.32.12-.26.44-.3.65-.24,1.21-.43,2.43-.69,3.64-.36,1.67-.65,3.36-1.1,5-.57,2.08-1,4.21-1.54,6.3a13.64,13.64,0,0,1-.87,2.49l-.19-.63c0-.13,0-.22,0-.24a1.34,1.34,0,0,0,.34-1.07,4.45,4.45,0,0,1,.5-1.79,5.41,5.41,0,0,0,.53-2.07,10,10,0,0,1,.57-2.73,4.12,4.12,0,0,0,.26-1.3,8.83,8.83,0,0,1,.38-2c.08-.32.31-.66,0-1.08-.09.1-.2.17-.21.25a25.31,25.31,0,0,1-.83,3.5,15.09,15.09,0,0,0-.28,1.5c-.1.44-.27.86-.4,1.28a1.44,1.44,0,0,0-.13.43,7.89,7.89,0,0,1-.58,2.34c-.45,1.61-.86,3.24-1.29,4.85-.12.46-.28.92-.42,1.37,0,.14-.13.27-.16.42-.23,1-.65,2-.94,3s-.62,2.11-.93,3.17a2.46,2.46,0,0,1-.09.26l-1.82,4.34-.34-.62c.26-.27.59-.42.62-.83s.1-.65.15-1l-.18-.7c.1-.45.39-.43.7-.41v-1.85a2,2,0,0,1,.37-.57,1,1,0,0,0,.36-1.19,1.82,1.82,0,0,1,0-.43c.19-.44.78-.57.7-1.17a2.24,2.24,0,0,0-.21-.51l-.35.89-.36-1L50.92,109l.25.34L51,110l-.72-.2c.17-.9.66-1.58.73-2.44a22.23,22.23,0,0,1,.47-2.43c.46-.79.46-.79.47-1.44l-.6.09v-.19a1,1,0,0,0,.31-.8v-.82a1.86,1.86,0,0,1,0-.6l.8-2.06c.52.44.1,1,.16,1.61a.52.52,0,0,0,.37-.6,3,3,0,0,1,.46-1.61,1.25,1.25,0,0,0,.12-1.17l-.55-.38-.25-.65c-.11.06-.25.09-.27.16a4.65,4.65,0,0,0,0,.52,3.78,3.78,0,0,1-.16.49,4.93,4.93,0,0,1,.77-3.34c0,.54-.38,1,0,1.56h1.17a.9.9,0,0,0,.21-.87.51.51,0,0,1,.33-.64l.08,0c.4.2.2.74.49,1a.36.36,0,0,0,.51-.06L56,95a2.48,2.48,0,0,0,.39-1,3,3,0,0,1,.52-1.56,4.11,4.11,0,0,0-.36-.68,5.84,5.84,0,0,1-.44-.82A3.53,3.53,0,0,1,56,88.33c.16-.79.48-1.55.62-2.34a13.26,13.26,0,0,0,.48-2.74,10.4,10.4,0,0,1,.25-1.7,3.69,3.69,0,0,0,0-.54l-.13-.18a1.55,1.55,0,0,0-.35,1.05,11.17,11.17,0,0,1-.19,1.62A1.58,1.58,0,0,1,56,84.66l.24.45-.42,2.17a.86.86,0,0,1-.41-1c.17-.95.35-1.89.53-2.84l.3-1.66c-.2-.17-.31,0-.35.16a28.83,28.83,0,0,0-.71,3.43c-.06.5-.22,1-.32,1.49-.17.82-.32,1.65-.49,2.48a1.12,1.12,0,0,1-.15.28c-.09-.06-.17-.1-.16-.12l.36-1.84c.16-.79.34-1.58.48-2.38.1-.56.14-1.13.2-1.69a1.86,1.86,0,0,0-.11-.41,4.36,4.36,0,0,0-.24.8,7,7,0,0,1-.32,1.39c-.28,1-.49,2-.71,3.07a1.31,1.31,0,0,1-.6.92l.34-1.1-.25-1.42.43-.17a6.69,6.69,0,0,0,.4-2.17,1.69,1.69,0,0,1,.13-.61,1.76,1.76,0,0,0,.11-1.14,1.16,1.16,0,0,1,.11-.86,1.83,1.83,0,0,0,.32-1.26,9,9,0,0,1,.12-1l-.6-.38.23-1.07-.62.49c-.22-.24-.6-.35-.43-.9l1.06-.46c.19-.42-.23-.39-.37-.65l.69-.32L55,74.83l-.88-1.09c.24-.51.62-.15,1-.3l.35-.45.1-1.69-.62-.64a.9.9,0,0,1,.76.06L56,69.47h.3l-.15-3.26.58-.48a5.63,5.63,0,0,1,.63-4.05l-.24-.48.11-1.75,1.08-2.12a3.58,3.58,0,0,1,.09-1.66,10.93,10.93,0,0,0,.11-3.76L58,51.2l1.29.13-.13.44.62.36v1l-.55-.41a1.34,1.34,0,0,0,0,.42c.14.32.3.62.41.82-.09.59-.8.37-.72,1l1.41.07.11.24-.72.23-.17,1.1a6.13,6.13,0,0,0,.66-.35c.45.51.19,1.39.8,1.86l.34-.31L61,57.3V56.21a1,1,0,0,1,0-.27,1.84,1.84,0,0,0-.1-1.82l.18-.05,1.09.51-.5.61.22,1.42.24.15.19.88-.61.6.44.38-.56.56h.54a.41.41,0,0,1,0,.15A11.91,11.91,0,0,1,62,60.67c0,.44-.16.69-.19,1a6,6,0,0,0,0,1.33,1.52,1.52,0,0,1-.38,1.32l.3,1.29c.26-.13.3-.43.34-.7.11-.84.21-1.68.31-2.52.08-.65.15-1.3.23-2q.18-1.48.37-3c0-.12.07-.26,0-.35-.34-.83.25-1.48.26-2.43l.37.57v2.28a.86.86,0,0,0-.24.94,5.33,5.33,0,0,1,0,2c-.11,1.72-.28,3.43-.41,5.15-.07.9-.1,1.81-.18,2.71-.1,1.08-.25,2.15-.37,3.23-.09.84-.16,1.68-.28,2.51-.23,1.58-.49,3.15-.73,4.72-.09.63-.13,1.26-.23,1.89-.3,1.86-.42,3.76-.86,5.6-.2.84-.28,1.72-.43,2.58a4,4,0,0,1-.18.89c-.25,1-.52,2-.76,2.95v.53c-.22,1.06-.45,2.11-.68,3.16-.06.26-.18.51-.22.78a17.93,17.93,0,0,1-.77,2.56Zm-3.89,2.94.84-1.08-.17-.37c.13-.3.53-.35.49-.77-1.15.34-1.5.95-1.13,2.22Zm-.52,2.15c.42-.11.49-.14.62-.53s.35-.74.06-1.22a2.41,2.41,0,0,0-.32.3c-.34.42-.12,1-.34,1.42Zm1.8-6.5c.44-.18.51-.29.42-.67s-.17-.61-.27-1l-.36.11Zm3.21-8.66h.16a7.59,7.59,0,0,0,.44-3.07ZM60,59.23c.08.62-.22,1.29.25,1.85-.13-.69.35-1.35,0-2.1ZM54.68,99.91c-.14-1.11-.22-1.21-.77-1.09l.28,1.19Zm.86-19.34c-.39.62-.22,1.39-.43,2.06a2.57,2.57,0,0,0,.43-2.05Z"/><path d="M62.52,37.08a8,8,0,0,0-.48,1,1.29,1.29,0,0,1-.67.77L61,38.07l-.47.16-.06-1.12L60,36.76a.78.78,0,0,1,.49-.76c.69.21,0,.93.44,1.35l.36-1a1.34,1.34,0,0,0-1.26-1.28.78.78,0,0,1,.76-.64l.93-.06a1.22,1.22,0,0,0,.2.41,1.65,1.65,0,0,1,.45,1.61A2.07,2.07,0,0,0,62.52,37.08Z"/><path d="M51.9,95.33a13.39,13.39,0,0,1,.21-1.62c.12-.48-.2-.92,0-1.4a8.86,8.86,0,0,0,.36-1.43l.31-.28.09-1h.4c0,.1.11.19.09.27-.13.73-.23,1.47-.43,2.18a14.76,14.76,0,0,0-.69,2.66A.61.61,0,0,1,51.9,95.33Z"/><path d="M52.66,112.53l-.09-.33c.21-.67.38-1.21.55-1.73.07-.22.17-.44.25-.66a1.52,1.52,0,0,0,.19-.58c0-.42.25-.74.25-1.1a2.54,2.54,0,0,1,.35-1.07,3.52,3.52,0,0,0,.31-1.11,4.64,4.64,0,0,1,.63-1.58,2.53,2.53,0,0,1,0,.66c-.5,1.59-.85,3.23-1.5,4.77a22.59,22.59,0,0,0-.73,2.39,1.42,1.42,0,0,1-.11.33Z"/><path d="M55.78,115a19.24,19.24,0,0,1,.69-3.21c.1-.27.13-.6.49-.6a.6.6,0,0,1,.13.74c-.38,1-.76,2.09-1.15,3.14Z"/><path d="M51.22,100h-.39l-.3.57c-.06-.52-.09-1-.58-1.32l.52-.38.14-.7h.25a2.16,2.16,0,0,1,.27.63C51.2,99.23,51.19,99.59,51.22,100Z"/><path d="M62.69,47.24l-.71.4L62,48l.09.41-.51.26c-.07-.09-.1-.11-.1-.13,0-.53-.09-1.06-.1-1.6a2.08,2.08,0,0,1,.21-.58,5.63,5.63,0,0,0,.47.55A4.5,4.5,0,0,0,62.69,47.24Z"/><path d="M48.57,118.22l.88-.28c.27.51-.33.79-.32,1.27a1.49,1.49,0,0,1-.68,1.14l.19-1.12C48.72,118.91,48.37,118.56,48.57,118.22Z"/><path d="M18.78,143.77l.45-.34a5,5,0,0,0,.4-.4l.32.28a.27.27,0,0,1-.09.22c-.59.26-1,.91-1.69.95a.79.79,0,0,1-.25-.87Z"/><path d="M57.6,52.45c-.31-.25-.31-.25-.45-.78l-.49-.15.88-1.2c.27.36.07.71.06,1S57.6,52.05,57.6,52.45Z"/><path d="M57.31,99.83a13.49,13.49,0,0,1-.38,1.84,9,9,0,0,0-.35,1.39.47.47,0,0,1-.21.27,7.91,7.91,0,0,1,.56-3l.39-.51Z"/><path d="M60.72,86.37a5.27,5.27,0,0,1-.27,3.22,1.28,1.28,0,0,1,0-1.1c.08-.33.07-.72.13-1.08S60.65,86.72,60.72,86.37Z"/><path d="M56.6,59.32c-.42-.57-.42-.57.19-2.65.34.16.49.42.29.69A2.86,2.86,0,0,0,56.6,59.32Z"/><path d="M53.69,94.91l.3-2.07h.48c0,.07.07.13,0,.17C54.31,93.61,54.46,94.4,53.69,94.91Z"/><path d="M16.83,145.66l-.34.91a2,2,0,0,1-.89-.25.65.65,0,0,1,.38-.69A.72.72,0,0,1,16.83,145.66Z"/><path d="M57.79,47.74A1.88,1.88,0,0,1,58.27,49c0,.37-.2.45-.65.28l.26-.86-.58-.13A.63.63,0,0,1,57.79,47.74Z"/><path d="M47.23,109h.55a4.34,4.34,0,0,1-.27,1.75c0,.08-.15.13-.27.23Z"/><path d="M55.56,50.62a1.73,1.73,0,0,1-.06,1.3,14.73,14.73,0,0,0-.34,2.14l-.11.15c0-.08-.09-.16-.08-.22.14-1,.28-2,.43-2.95a1.62,1.62,0,0,1,.18-.4Z"/><path d="M43.24,108.59c.15-.12.28-.29.34-.27a9.57,9.57,0,0,1,.89.46c0,.54-.44.41-.63.68Z"/><path d="M61.17,41.91l-.41,1c-.3-.69.15-1.37-.38-2H61Z"/><path d="M64.63,93.4v-1a3.09,3.09,0,0,1-.16,2.42,1.33,1.33,0,0,1-.25-1Z"/><path d="M55.14,87.63h.38c0,.11.09.16.09.21a2.14,2.14,0,0,1-.76,1.67Z"/><path d="M51.42,114.82l.71-1.07a2.45,2.45,0,0,1,0,.62c-.19.53-.41,1-.7,1.76Z"/><path d="M44.72,107.08c-.11-.08-.29-.14-.33-.26a1.74,1.74,0,0,1,.43-1.69Z"/><path d="M65.43,100.44a2.54,2.54,0,0,1-.09,1.28.53.53,0,0,1-.34.55c-.25-.23-.1-.47,0-.67C65.11,101.25,65,100.77,65.43,100.44Z"/><path d="M55.67,66.51l-.48-.26v-.7c-.14-.33-.68-.17-.61-.78l.77.36a3.94,3.94,0,0,0,.1.73,2.84,2.84,0,0,0,.33.55Z"/><path d="M49.83,103.2a3.25,3.25,0,0,1,.35-2,1.54,1.54,0,0,1,.19.39.82.82,0,0,1-.07.35C50.16,102.34,50,102.77,49.83,103.2Z"/><path d="M49.4,109.71a1.25,1.25,0,0,1,.27-1.44c.1.17.22.28.22.38A1.15,1.15,0,0,1,49.4,109.71Z"/><path d="M55.31,107c-.06.44-.1.88-.17,1.32a1.72,1.72,0,0,1-.18.4C54.59,108.29,54.62,108.1,55.31,107Z"/><path d="M52.87,114c.19.82-.28,1.28-.56,2A2.78,2.78,0,0,1,52.87,114Z"/><path d="M54.75,68.58l.24-.64c.15,0,.24,0,.29.1.27.27.26.28.15.92Z"/><path d="M55.76,57.24l-.27-.81.43-.78A1.6,1.6,0,0,1,55.76,57.24Z"/><path d="M61.86,50.53l-.69-.1.15-1.23A3.65,3.65,0,0,1,61.86,50.53Z"/><path d="M55.58,50.64a6,6,0,0,1,.22-2.24,3.55,3.55,0,0,1-.23,2.23Z"/><path d="M31.36,60.91c0-1.08.75-1.92.75-3l.77-1.23A21.85,21.85,0,0,1,31.36,60.91Z"/><path class="cls-1" d="M53.45,102.79c-.37-1.27,0-1.91,1.16-2.22,0,.42-.36.47-.49.77l.17.37Z"/><path class="cls-1" d="M52.92,104.91c.22-.46,0-1,.36-1.44.09-.1.19-.18.32-.3.29.47.06.85-.06,1.22S53.31,104.83,52.92,104.91Z"/><path class="cls-1" d="M54.72,98.44l-.21-1.53.36-.11c.1.35.2.65.27,1S55.16,98.27,54.72,98.44Z"/><path class="cls-1" d="M57.93,89.79l.59-3a7.59,7.59,0,0,1-.44,3.07Z"/><path class="cls-1" d="M60,59.24l.3-.25c.3.74-.17,1.41,0,2.1C59.8,60.52,60.1,59.86,60,59.24Z"/><path class="cls-1" d="M54.68,99.91l-.5.1-.28-1.19C54.46,98.72,54.54,98.82,54.68,99.91Z"/><path class="cls-1" d="M55.54,80.58a2.57,2.57,0,0,1-.43,2.06C55.31,82,55.15,81.2,55.54,80.58Z"/></g></g></svg>