<svg xmlns="http://www.w3.org/2000/svg" viewBox="0 0 255.9 221.59"><defs><style>.cls-1{fill:#fff;}</style></defs><title>资源 5</title><g id="图层_2" data-name="图层 2"><g id="图层_1-2" data-name="图层 1"><path class="cls-1" d="M0,221.59V0H255.88V144.25c-.38-.28-1-.5-1.07-.84a.72.72,0,0,0-.73-.68c-1.81-.28-3.64-.51-5.44-.86a51.16,51.16,0,0,0-10.41-.73c-2.54,0-5.1.11-7.63-.11-3.31-.29-6.61-.84-9.91-1.29-.4,0-.8-.1-1.2-.17-1.74-.31-3.46-.66-5.21-.93s-3.22-.44-4.83-.62c-3.23-.35-6.45-.78-9.69-1a85.78,85.78,0,0,0-9.28.14,24.33,24.33,0,0,0-6.7,1.54,3.11,3.11,0,0,0-.57.43,10.84,10.84,0,0,0,1.26.23c1.26.06,2.52,0,3.78.14,3.86.27,7.72.55,11.57.88,3.3.29,6.59.69,9.9,1,4.26.38,8.52.75,12.78,1.06,2.17.16,4.36.14,6.53.24,1.9.09,3.8.26,5.7.32,2.3.07,4.61,0,6.92.08,1.77,0,3.55.09,5.32.09a20.32,20.32,0,0,1,2.93-.11,17.32,17.32,0,0,1,6,2.2v76.3m-54.79-101c-.63-.12-1.28-.21-1.91-.38-.46-.13-.88-.41-1.34-.54a1.21,1.21,0,0,1-1-.89,6.14,6.14,0,0,0-.78-1.45.6.6,0,0,0-.52-.11,15.29,15.29,0,0,0-1.77.55c-3.86,1.52-7.63,3.27-11.68,4.26a51.62,51.62,0,0,1-10.5,1.59,10.93,10.93,0,0,1-5.43-1c-2.11-1.07-4.26-2.11-6.25-3.38a63.26,63.26,0,0,1-7.15-5.1,69.39,69.39,0,0,1-6.52-6.51,66.85,66.85,0,0,1-8-11.05c-1.74-3-3.46-6-5-9.1a35.57,35.57,0,0,1-2.93-8c-.72-3.19-1.51-6.36-2.27-9.54-.58-2.41-1.09-4.84-1.76-7.22a15.7,15.7,0,0,0-4.91-7.75c-1.53-1.32-3.16-2.55-4.81-3.72a22.1,22.1,0,0,0-7.23-3.22,43.92,43.92,0,0,0-12-1.62,31,31,0,0,0-9.62,1.27,20.16,20.16,0,0,0-2.36,1c-.5.24-.56.9-.14,1.07A3.94,3.94,0,0,0,86.5,50c1.32.09,2.63.15,4,.17,2.33,0,4.67,0,7,.06a10.73,10.73,0,0,1,3.13.49c1.37.48,2.63,1.25,4,1.81a12.55,12.55,0,0,1,3.87,3.15,13.66,13.66,0,0,1,2.5,4,19.23,19.23,0,0,1,1.46,6.59c.19,2.25.28,4.52.6,6.75a26.6,26.6,0,0,0,1.25,6.2c.41,1,.66,2.15,1,3.2s.81,2,1.29,3c.67,1.38,1.41,2.72,2.13,4.07,1.64,3.06,3.21,6.16,5,9.15a63.33,63.33,0,0,0,4.27,6.32,27.82,27.82,0,0,0,6.14,6.11q4.18,2.9,8.44,5.69a29.72,29.72,0,0,0,3.26,1.75,67.36,67.36,0,0,0,6.19,2.89c2.41.89,4.94,1.47,7.42,2.18,1.56.44,3.12.91,4.69,1.3s3.29.8,5,1.09a31.43,31.43,0,0,0,3.25.26l-.66.52c1.12.21,2.09.44,3.08.56,2.54.3,5.09.62,7.64.78a57.54,57.54,0,0,0,6.09,0c1.8-.07,3.59-.33,5.38-.53.14,0,.26-.18.38-.28l.52-.45.1.11-.31.47a24.49,24.49,0,0,0,7.35-2c-.64-.77-1.2-1.48-1.8-2.14s-.17-.75.31-1a.9.9,0,0,0,.47-.42,11,11,0,0,0,.15-1.3ZM78.55,56.94a2.45,2.45,0,0,1-2.67,1.45,4.32,4.32,0,0,0-1.27.09c-1.18.19-2.32.73-3.58.39-.35-.09-.8.18-1.21.27s-.67.24-.91.13a1.28,1.28,0,0,0-1.61.45,1.23,1.23,0,0,1-.77.31A12.27,12.27,0,0,1,64,60c-.89-.15-2,.49-2.68-.51h-.19a7.32,7.32,0,0,0-3.69.14c-.39.11-.73.4-1.06-.1,0,0-.33,0-.5.11a5.58,5.58,0,0,1-1.13.41,21.31,21.31,0,0,1-2.16.07,3.78,3.78,0,0,1-.82-.06,4.18,4.18,0,0,0-.77,0,9.77,9.77,0,0,1-1,.23c-1.15.06-2.3,0-3.44.11-2.07.12-4.13.23-6.19.44s-4.4.54-6.59.85a3.51,3.51,0,0,0-1.34.42,1.53,1.53,0,0,0-.74.94c0,.51.49.69,1,.75a4.68,4.68,0,0,1,.83,0l1.27.08c1.08.07,2.17.19,3.25.19,2.43,0,4.85,0,7.28-.08H48.5c.72,0,1.43-.19,2.14-.24h1.49c.49,0,.92-.14,1.34.32a1.26,1.26,0,0,0,1,.18A10.81,10.81,0,0,1,58.25,64a6.75,6.75,0,0,0,1.14,0c1.2-.06,2.41-.2,3.61-.17a12.92,12.92,0,0,0,2.3.18,23.33,23.33,0,0,1,3.82,0,1.84,1.84,0,0,1,1,.29,1.21,1.21,0,0,0,1.31.14,2.57,2.57,0,0,1,1,0c.24,0,.53.11.73,0a4.65,4.65,0,0,1,3.43-.21c.78.22.79.26.88-.39l2.77-.46a1.31,1.31,0,0,1,.57,0c.71.23,1.4-.46,2.1,0a.3.3,0,0,0,.18-.06,20.47,20.47,0,0,1,2-.7c.74-.18,1.52-.18,2.25-.38a17,17,0,0,1,5-.37c1.88.06,3.77,0,5.66-.1.3,0,.64.06.72-.43s-.21-.63-.53-.74c-1.33-.45-2.66-.91-4-1.29a11.93,11.93,0,0,0-3.88-.6,1,1,0,0,1-.6-.18c-.89-.72-2.07-.7-3-1.18-.26-.13-.54-.36-.8-.34a7.31,7.31,0,0,0-2.72.42,3.11,3.11,0,0,1-2.27.39,1.77,1.77,0,0,0-.87.08C79,58,78.62,57.79,78.55,56.94Zm19.56,0a3.78,3.78,0,0,0-.45.65,1,1,0,0,0,.29.3,3.26,3.26,0,0,0,.55-.54,4.32,4.32,0,0,0-.39-.36ZM63,59.08l-.05.18,1,.33v-.64Z"/><path d="M255.88,145.28a17.32,17.32,0,0,0-6-2.2,20.32,20.32,0,0,0-2.93.11c-1.77,0-3.55-.06-5.32-.09-2.31,0-4.61,0-6.92-.08-1.9-.06-3.8-.23-5.7-.32-2.18-.1-4.36-.09-6.53-.24q-6.39-.46-12.78-1.06c-3.3-.3-6.59-.7-9.9-1-3.85-.34-7.71-.61-11.57-.88-1.26-.09-2.52-.08-3.78-.14a10.84,10.84,0,0,1-1.26-.23,3.11,3.11,0,0,1,.57-.43,24.33,24.33,0,0,1,6.7-1.54,85.78,85.78,0,0,1,9.28-.14c3.24.18,6.46.62,9.69,1,1.61.17,3.23.37,4.83.62s3.47.62,5.21.93c.4.07.8.11,1.2.17,3.3.44,6.59,1,9.91,1.29,2.53.22,5.09.14,7.63.11a51.16,51.16,0,0,1,10.41.73c1.8.35,3.63.58,5.44.86a.72.72,0,0,1,.73.68c.07.34.69.57,1.07.84Z"/><path d="M201.09,120.58a11,11,0,0,1-.24,1.36.9.9,0,0,1-.47.42c-.47.22-.8.43-.31,1s1.16,1.37,1.8,2.14a24.49,24.49,0,0,1-7.35,2l.31-.47-.1-.11-.52.45c-.12.1-.24.26-.38.28-1.79.2-3.58.46-5.38.53a57.54,57.54,0,0,1-6.09,0c-2.55-.17-5.1-.49-7.64-.78-1-.12-2-.35-3.08-.56l.66-.52A31.42,31.42,0,0,1,169,126c-1.67-.29-3.32-.68-5-1.09s-3.13-.85-4.69-1.3c-2.48-.71-5-1.29-7.42-2.18a67.36,67.36,0,0,1-6.19-2.89,29.72,29.72,0,0,1-3.26-1.75q-4.26-2.78-8.44-5.69a27.82,27.82,0,0,1-6.14-6.11,63.33,63.33,0,0,1-4.27-6.32c-1.76-3-3.33-6.09-5-9.15-.72-1.35-1.46-2.69-2.13-4.07q-.72-1.47-1.29-3c-.39-1-.63-2.16-1-3.2a26.6,26.6,0,0,1-1.25-6.2c-.32-2.23-.41-4.5-.6-6.75a19.23,19.23,0,0,0-1.46-6.59,13.66,13.66,0,0,0-2.5-4,12.55,12.55,0,0,0-3.87-3.15c-1.35-.55-2.61-1.33-4-1.81a10.73,10.73,0,0,0-3.13-.49c-2.33-.08-4.67,0-7-.06-1.32,0-2.64-.08-4-.17a3.94,3.94,0,0,1-1.23-.31c-.42-.17-.35-.83.14-1.07a20.16,20.16,0,0,1,2.36-1,31,31,0,0,1,9.62-1.27,43.92,43.92,0,0,1,12,1.62,22.1,22.1,0,0,1,7.23,3.22c1.65,1.17,3.27,2.4,4.81,3.72a15.7,15.7,0,0,1,4.91,7.75c.68,2.38,1.18,4.81,1.76,7.22.76,3.18,1.55,6.35,2.27,9.54a35.57,35.57,0,0,0,2.93,8c1.54,3.1,3.25,6.11,5,9.1a66.85,66.85,0,0,0,8.09,11,69.39,69.39,0,0,0,6.52,6.51,63.26,63.26,0,0,0,7.15,5.1c2,1.27,4.14,2.31,6.25,3.38a10.93,10.93,0,0,0,5.43,1,51.62,51.62,0,0,0,10.5-1.59,93.17,93.17,0,0,0,11.68-4.26,15.29,15.29,0,0,1,1.77-.55.6.6,0,0,1,.52.11,6.14,6.14,0,0,1,.78,1.45,1.21,1.21,0,0,0,1,.89c.46.12.88.41,1.34.54S200.46,120.46,201.09,120.58Zm-10.75,5v.21a7,7,0,0,0,1-.11v-.28h-.82s-.1.08-.22.13Zm-5.65,1.67.8-.53c-.59-.17-.91,0-.8.48Z"/><path d="M78.55,56.94c.07.85.49,1.13,1.38.9a1.77,1.77,0,0,1,.87-.08,3.11,3.11,0,0,0,2.27-.39,7.31,7.31,0,0,1,2.72-.42,2.12,2.12,0,0,1,.8.34c1,.48,2.15.45,3,1.18a1,1,0,0,0,.6.18,11.93,11.93,0,0,1,3.88.6c1.35.38,2.68.84,4,1.29.32.11.61.26.53.74s-.42.42-.72.43c-1.89,0-3.77.15-5.66.1a17,17,0,0,0-5,.37c-.73.2-1.51.2-2.25.38a20.47,20.47,0,0,0-2,.7c-.06,0-.14.08-.18.06-.7-.45-1.4.24-2.1,0a1.31,1.31,0,0,0-.57,0l-2.77.46c-.09.66-.09.62-.88.39a4.65,4.65,0,0,0-3.43.21c-.19.09-.48,0-.73,0a2.57,2.57,0,0,0-1,0A1.21,1.21,0,0,1,70,64.24a1.84,1.84,0,0,0-1-.29,23.33,23.33,0,0,0-3.7.1,12.92,12.92,0,0,1-2.39-.25c-1.2,0-2.41.11-3.61.17a6.75,6.75,0,0,1-1.14,0,10.81,10.81,0,0,0-3.78.29,1.26,1.26,0,0,1-1-.18c-.42-.45-.85-.36-1.34-.32s-1,0-1.49,0c-.72,0-1.43.21-2.14.24H45.29c-2.43,0-4.85.09-7.28.08-1.08,0-2.17-.12-3.25-.19l-1.27-.08a4.57,4.57,0,0,1-.83,0c-.47-.06-1-.23-1-.75a1.53,1.53,0,0,1,.74-.94,3.51,3.51,0,0,1,1.34-.42c2.19-.31,4.39-.62,6.59-.85s4.13-.32,6.19-.44c1.15-.07,2.3,0,3.44-.11A9.77,9.77,0,0,0,51,60a4.18,4.18,0,0,1,.77,0c.27,0,.55.06.82.06a21.31,21.31,0,0,0,2.25,0,5.58,5.58,0,0,0,1.13-.41c.17-.06.47-.16.5-.11.33.5.67.21,1.06.1a7.32,7.32,0,0,1,3.69-.14h.19c.73,1,1.79.36,2.68.51a12.27,12.27,0,0,0,2.48,0,1.23,1.23,0,0,0,.77-.31,1.28,1.28,0,0,1,1.61-.45c.24.11.61-.07.91-.13s.86-.37,1.21-.27c1.27.34,2.4-.2,3.58-.39a4.32,4.32,0,0,1,1.27-.09A2.45,2.45,0,0,0,78.55,56.94Z"/><path class="cls-1" d="M190.3,125.53c.08,0,.16-.14.25-.15h.82v.28c-.33,0-.66.08-1,.11Z"/><path class="cls-1" d="M184.69,127.2c-.11-.51.2-.65.8-.53Z"/></g></g></svg>