<svg xmlns="http://www.w3.org/2000/svg" viewBox="0 0 96.06 127.4"><defs><style>.cls-1{fill:#fff;}</style></defs><title>资源 6</title><g id="图层_2" data-name="图层 2"><g id="图层_1-2" data-name="图层 1"><path class="cls-1" d="M42.79,83.16a1.48,1.48,0,0,1,.07-.4,13.24,13.24,0,0,1,7.84-6.5C53.35,75,56.19,75,59,75.26A2.35,2.35,0,0,1,61,76.51c.8,1.25,1.63,2.47,2.44,3.71a20.57,20.57,0,0,1,3.71,9.17,17.47,17.47,0,0,1-1.21,8.23c-.67,1.69-1.55,3.3-2.35,4.94a16,16,0,0,1-3.85,5,17.08,17.08,0,0,1-4.89,3.16,19.67,19.67,0,0,1-5.76,1.17,20.38,20.38,0,0,1-6.28-.49c-1.56-.34-3.13-.61-4.7-.86-2.1-.33-4.23-.53-6.32-.92-1.74-.32-3.45-.81-5.16-1.26-1.21-.32-2.42-.65-3.59-1.07a23.51,23.51,0,0,1-5.4-2.9,15.14,15.14,0,0,1-3.12-2.63c-1-1.21-2.13-2.32-3.16-3.51A21,21,0,0,1,8.82,95c-1-1.77-1.75-3.67-2.59-5.52A2,2,0,0,1,6,88.61a27.75,27.75,0,0,1,1.29-7.34Q8.4,78,9.79,74.8a25.72,25.72,0,0,1,5-7.66c1.39-1.44,2.7-3,4-4.48a40.2,40.2,0,0,1,5.62-5.75A23.36,23.36,0,0,1,33,52.55a15.82,15.82,0,0,1,5.42-.43,34.1,34.1,0,0,1,4,.78,9.73,9.73,0,0,1,1.58.45c1.29.52,2.58,1.07,3.85,1.64s2.79,1.24,4.16,1.92c1.63.81,3.22,1.71,4.85,2.52q2.05,1,4.16,1.9c1.4.59,3,1.28,4.62,1.82a23.64,23.64,0,0,0,7.21,1.38,13.21,13.21,0,0,0,5.68-1,17.53,17.53,0,0,0,3.65-2.24,26.54,26.54,0,0,0,4.54-4.35,36,36,0,0,0,5.34-8.83,50,50,0,0,0,2.22-6.56,63,63,0,0,0,1.29-6.86A34,34,0,0,0,95.42,23a19.8,19.8,0,0,0-1.87-5.48,20.43,20.43,0,0,0-8.18-8.16L79.64,6.08c-.72-.41-1.41-.86-2.14-1.24s-1.37-.67-2.07-1q-1.61-.69-3.24-1.33A30.55,30.55,0,0,1,68.07.78,11.16,11.16,0,0,0,65.78,0a.52.52,0,0,0-.29,0,2,2,0,0,0-1,1.91A1.73,1.73,0,0,0,66,3.27a11.27,11.27,0,0,1,2.18.43,18.34,18.34,0,0,1,2.39,1.17c1.33.71,2.69,1.38,4,2.21a17.52,17.52,0,0,1,2.62,2.23,11,11,0,0,1,1.6,2A16.24,16.24,0,0,1,80.1,14,17.33,17.33,0,0,1,81,17c.34,1.75.64,3.52.81,5.29a37.31,37.31,0,0,1,0,3.94v1c-.16,1.52-.33,3-.52,4.55A8.49,8.49,0,0,1,81,32.93c-.18.67-.37,1.34-.58,2-.41,1.26-.78,2.55-1.28,3.77A27.77,27.77,0,0,1,77.51,42a14.45,14.45,0,0,1-1.22,2,13.5,13.5,0,0,1-1.68,1.87,21.37,21.37,0,0,1-3,2.49,8.51,8.51,0,0,1-5.93,1,22.73,22.73,0,0,1-5.5-1.81c-3.54-1.53-7-3.13-10.5-4.86a44.11,44.11,0,0,0-14.76-4.89,21.7,21.7,0,0,0-7.08.36,17,17,0,0,0-2.59.83,32,32,0,0,0-4,1.71,33.28,33.28,0,0,0-3.83,2.63,24,24,0,0,0-5.16,5.4C11.07,50.46,10,52.26,8.85,54c-2.44,3.66-4.94,7.28-6.58,11.4-.06.14-.1.29-.15.44h.1L3.8,62.74l.11.06L3.82,63A25,25,0,0,0,2,67.85C1.55,70.43,1,73,.51,75.57c0,.08,0,.22,0,.23-.44.1-.29.47-.31.72v2a24.48,24.48,0,0,0,1.39,8.69c1,2.75,2.09,5.44,3.23,8.12.86,2,1.8,4,2.8,6A30.76,30.76,0,0,0,12,108c1.66,1.86,3.27,3.76,5,5.57a40.64,40.64,0,0,0,6.7,5.52,43.9,43.9,0,0,0,8.07,4.34c1.59.66,3.2,1.28,4.83,1.83,1.91.64,3.83,1.29,5.78,1.74a21.28,21.28,0,0,0,9.48-.31c1.31-.29,2.44-1.21,3.86-1.06h.14c1-.23,1.91-.48,2.87-.68a19.84,19.84,0,0,0,3.32-1.11,10.92,10.92,0,0,0,3.28-2.16,1.77,1.77,0,0,0,.26-.41l-.12-.09c-1.73,1.39-3.83,2-5.86,2.8a.92.92,0,0,1,.39-.37,23.93,23.93,0,0,0,5.1-2.53,2.67,2.67,0,0,1,2.29-.6,1.46,1.46,0,0,0,.55-.15c.39-.16.77-.34,1.15-.51.18-.08.34-.44.59,0a2.92,2.92,0,0,0,.76-.36,25.93,25.93,0,0,0,5.85-4.67,21.66,21.66,0,0,0,2.44-3.33,21.94,21.94,0,0,0,2.54-7.59A23.3,23.3,0,0,0,81,96a39.15,39.15,0,0,0-1.17-4.48,25.33,25.33,0,0,0-1.65-4.12c-1-1.92-2.2-3.77-3.38-5.6a20.58,20.58,0,0,0-6.1-6.43c-1.51-1-3.08-1.83-4.61-2.76a19.15,19.15,0,0,0-5.78-2.42,44.13,44.13,0,0,0-9.06-1.06,15.06,15.06,0,0,0-7.7,1.62c-.08,0-.19.11-.27.09-.41-.12-.66.15-.88.4-.82,1-1.65,1.88-2.41,2.88a11,11,0,0,0-1.78,4.8,5.43,5.43,0,0,0,.49,3.61,18.37,18.37,0,0,0,1.49,2.61c.78,1,1,2.27,1.7,3.3h0c.37,1,.69,1.93,1.1,2.86a20.85,20.85,0,0,0,2.53,4.16A5,5,0,0,0,46,97.32a13.91,13.91,0,0,0,4.59.54A13.54,13.54,0,0,0,54.81,97a12,12,0,0,0,5.32-3.66,14.27,14.27,0,0,0,2.22-5.07V88l-.31.28.07-1.22c-.41.33-.41.33-.72-.54-.13.16-.23.42-.38.46-.32.07-.37.28-.41.52a7.29,7.29,0,0,1-1.92,3.54,1.32,1.32,0,0,1-.29.15,12.78,12.78,0,0,0,2-5.43c-.26.08-.44.21-.58.17-.35-.1-.6-.33-.54-.64-.25,0-.55,0-.66-.06s-.13-.45-.16-.56a6.14,6.14,0,0,1-.69-.15c.06-.57-.4-.7-.8-1a20.45,20.45,0,0,1-4.66,4.66.38.38,0,0,1,.07-.28c1.12-1.33,2.24-2.67,3.38-4,.25-.29.42-.55.19-.9a7.09,7.09,0,0,0-.64-.78c-.07-.08-.26-.08-.28-.15-.14-.46-.44-.55-.87-.37L54,81.19l-3.3,2.74-.14-.16c.25-.22.5-.43.74-.66.8-.77,1.84-1.38,1.8-2.73h-.45v-.59l-3,2.29L49.54,82a5.9,5.9,0,0,0,2-2.55L50,81l-.17-.17.21-.12a1.28,1.28,0,0,0,.16-.19A17.92,17.92,0,0,1,42.79,83.16Z"/><path d="M42.79,83.16a17.92,17.92,0,0,0,7.42-2.59,1.28,1.28,0,0,1-.16.19l-.21.12.17.17,1.63-1.61A5.9,5.9,0,0,1,49.54,82l.11.13,3-2.29v.59h.45c0,1.35-1,2-1.8,2.73-.24.23-.49.44-.74.66l.14.16L54,81.2l.14.52c.42-.17.73-.09.87.37,0,.07.21.08.28.15a7.09,7.09,0,0,1,.64.78c.24.35.07.61-.19.9-1.14,1.31-2.26,2.65-3.38,4a.38.38,0,0,0-.07.28,20.45,20.45,0,0,0,4.66-4.66c.4.29.86.42.8,1a6.14,6.14,0,0,0,.69.15.82.82,0,0,0,.16.56c.16.16.41,0,.66.06-.06.31.19.54.54.64a2.93,2.93,0,0,0,.58-.17,12.78,12.78,0,0,1-2,5.43,1.32,1.32,0,0,0,.29-.15,7.29,7.29,0,0,0,1.92-3.54A.48.48,0,0,1,61,87c.15,0,.25-.29.38-.46.31.88.31.88.72.54L62,88.3l.31-.28c0,.09.06.17,0,.23a14.27,14.27,0,0,1-2.22,5.07A12,12,0,0,1,54.84,97a13.54,13.54,0,0,1-4.18.89,13.91,13.91,0,0,1-4.59-.54,5,5,0,0,1-2.48-1.89,20.85,20.85,0,0,1-2.53-4.16c-.41-.93-.74-1.91-1.1-2.86h0c-.69-1-.92-2.29-1.7-3.3a18.37,18.37,0,0,1-1.49-2.61,5.43,5.43,0,0,1-.49-3.61,11,11,0,0,1,1.78-4.8c.75-1,1.59-1.94,2.41-2.88.21-.25.46-.52.88-.4a.34.34,0,0,0,.27-.09,15.06,15.06,0,0,1,7.7-1.62,44.13,44.13,0,0,1,9.06,1.06,19.15,19.15,0,0,1,5.78,2.42c1.53.93,3.1,1.8,4.61,2.76a20.58,20.58,0,0,1,6.1,6.43c1.18,1.83,2.35,3.68,3.38,5.6a25.33,25.33,0,0,1,1.65,4.12A39.15,39.15,0,0,1,81.07,96a23.3,23.3,0,0,1,.26,7.91,21.94,21.94,0,0,1-2.54,7.59,21.66,21.66,0,0,1-2.44,3.33,25.93,25.93,0,0,1-5.85,4.67,2.92,2.92,0,0,1-.76.36c-.26-.39-.41,0-.59,0-.39.17-.76.35-1.15.51-.18.07-.4.19-.55.15a2.67,2.67,0,0,0-2.29.6,23.93,23.93,0,0,1-5.1,2.53.92.92,0,0,0-.39.37c2-.8,4.14-1.41,5.86-2.8l.12.09a1.77,1.77,0,0,1-.26.41,10.92,10.92,0,0,1-3.28,2.16A19.84,19.84,0,0,1,58.79,125c-1,.19-1.91.45-2.87.68,0,0-.09,0-.14,0-1.42-.14-2.55.78-3.86,1.06a21.28,21.28,0,0,1-9.48.31c-2-.46-3.87-1.1-5.78-1.74-1.63-.55-3.24-1.17-4.83-1.83a43.9,43.9,0,0,1-8.07-4.34,40.64,40.64,0,0,1-6.7-5.52c-1.71-1.81-3.32-3.72-5-5.57a30.76,30.76,0,0,1-4.46-6.63c-1-2-1.94-4-2.8-6C3.66,92.69,2.53,90,1.57,87.25A24.48,24.48,0,0,1,0,78.59v-2c0-.25-.13-.62.31-.72a.54.54,0,0,1,0-.23l1.5-7.72A25,25,0,0,1,3.69,63l.09-.22-.11-.06L2.09,65.85H2l.15-.44C3.78,61.29,6.28,57.67,8.72,54c1.15-1.73,2.22-3.52,3.41-5.23a24,24,0,0,1,5.16-5.4,33.28,33.28,0,0,1,3.83-2.63,32,32,0,0,1,4-1.71,17,17,0,0,1,2.59-.83,21.7,21.7,0,0,1,7.08-.36,44.11,44.11,0,0,1,14.75,4.88c3.45,1.73,7,3.33,10.5,4.86a22.73,22.73,0,0,0,5.5,1.81,8.51,8.51,0,0,0,5.93-1,21.37,21.37,0,0,0,3-2.49A13.5,13.5,0,0,0,76.15,44a14.45,14.45,0,0,0,1.22-2c.57-1.09,1.16-2.19,1.62-3.33s.87-2.51,1.28-3.77c.21-.66.4-1.33.58-2a8.49,8.49,0,0,0,.27-1.19c.19-1.52.35-3,.52-4.55v-1a37.31,37.31,0,0,0,0-3.94A52.79,52.79,0,0,0,80.83,17,17.33,17.33,0,0,0,80,14a16.24,16.24,0,0,0-1.32-2.65,11,11,0,0,0-1.6-2,17.52,17.52,0,0,0-2.62-2.23c-1.26-.83-2.62-1.49-4-2.21a18.34,18.34,0,0,0-2.39-1.17,11.27,11.27,0,0,0-2.18-.43A1.73,1.73,0,0,1,64.54,2a2,2,0,0,1,1-1.91.52.52,0,0,1,.29,0,11.16,11.16,0,0,1,2.29.76,30.55,30.55,0,0,0,4.12,1.73q1.63.64,3.24,1.33a21.83,21.83,0,0,1,2.07,1c.68.38,1.42.83,2.14,1.24l5.73,3.26a20.43,20.43,0,0,1,8.18,8.16A19.8,19.8,0,0,1,95.47,23a34,34,0,0,1,.16,11.71,63,63,0,0,1-1.29,6.86,50,50,0,0,1-2.22,6.56A36,36,0,0,1,86.78,57a26.54,26.54,0,0,1-4.54,4.35,17.53,17.53,0,0,1-3.65,2.24,13.21,13.21,0,0,1-5.68,1,23.64,23.64,0,0,1-7.21-1.38c-1.56-.54-3.09-1.18-4.62-1.82s-2.8-1.22-4.16-1.9c-1.63-.81-3.22-1.71-4.85-2.52-1.37-.68-2.76-1.3-4.16-1.92s-2.56-1.12-3.85-1.64a9.73,9.73,0,0,0-1.58-.45,34.1,34.1,0,0,0-4-.78,15.82,15.82,0,0,0-5.42.43,23.36,23.36,0,0,0-8.6,4.36,40.2,40.2,0,0,0-5.62,5.75c-1.31,1.52-2.62,3-4,4.48a25.72,25.72,0,0,0-5,7.66Q8.46,78,7.36,81.3a27.75,27.75,0,0,0-1.29,7.34,2,2,0,0,0,.21.89c.84,1.85,1.6,3.75,2.59,5.52a21,21,0,0,0,2.51,3.23c1,1.2,2.15,2.31,3.16,3.51a15.14,15.14,0,0,0,3.12,2.63,23.51,23.51,0,0,0,5.4,2.9c1.17.42,2.38.75,3.59,1.07,1.71.45,3.42.94,5.16,1.26,2.09.39,4.22.59,6.32.92,1.57.24,3.15.51,4.7.86a20.38,20.38,0,0,0,6.28.49,19.67,19.67,0,0,0,5.76-1.17,17.08,17.08,0,0,0,4.89-3.16,16,16,0,0,0,3.85-5c.8-1.64,1.68-3.25,2.35-4.94a17.47,17.47,0,0,0,1.21-8.23,20.57,20.57,0,0,0-3.71-9.17C62.65,79,61.82,77.79,61,76.54a2.35,2.35,0,0,0-1.93-1.25c-2.85-.17-5.69-.17-8.34,1a13.24,13.24,0,0,0-7.84,6.5A1.48,1.48,0,0,0,42.79,83.16ZM.67,77A59.24,59.24,0,0,1,2.86,66.76l-.26,0A35.58,35.58,0,0,0,.67,77Z"/><path class="cls-1" d="M.67,77A35.58,35.58,0,0,1,2.6,66.71l.26,0A59.24,59.24,0,0,0,.67,77Z"/></g></g></svg>