<svg xmlns="http://www.w3.org/2000/svg" viewBox="0 0 114.98 183.7"><defs><style>.cls-1{fill:#fff;}</style></defs><title>资源 7</title><g id="图层_2" data-name="图层 2"><g id="图层_1-2" data-name="图层 1"><path class="cls-1" d="M65.91,173.94l.29-.39-.9-1c-.67.2-.75.44-.21.91a5,5,0,0,0,.84.5l.13.7,1-.21a1,1,0,0,0,1.17.79l.08,0,.22-.38c.11.14.26.24.25.33,0,.6.45.76.87.88s.59.2.6.69l.53-.57-1.12-.6-.42.09a.88.88,0,0,0-.81-.95h-.19c-.15,0-.29-.16-.42-.27a1,1,0,0,1-.16-.26h-.39l-.08-.54Zm14.8,5.91.26.85.1-.09,1.26.63-.14-.53.49-.21a1.06,1.06,0,0,0,.31.16,1.16,1.16,0,0,1,1,.65c.07.14.3.2.45.3l.07-.09-.14-.38c.61-.43,1.1,0,1.48.19.56-.13.23-.84.79-.89.08.8.08.8.34,1l.64-.23-.14-.79.45-.11v-.12l-2.36-.2-.07.26-.49-.34-.33,1c-.54,0-.75-.28-.57-.7l.18.17h.07l-.09-.43-.47-.12-.55.58-.25-.47-.8.43-.29-.71-.29.21a2.36,2.36,0,0,0-.59-.28c-.19,0-.48,0-.33.34l-.22-.19-.89-.08v1.24l.86-.29Zm.61-6.62.37.46,0-.49.63,1.19-.09.08.56.18h0a2.68,2.68,0,0,0,.64.26c.56.07,1.12.09,1.68.14.35,0,.69.11,1,.13s.87,0,1.31.06h.69l1.36.1c-.22-.51-.62-.36-1-.43l.44-.42-.44-.54V174l-2.1-1-.15.5-.55-.58c-.81-.17-1.55.41-2.44.51l-.15-.61-.45.29-.2-.76L82,172.3l-.24.44-.34-.06-.14.59c-.1-.37-.28-.65-.72-.65H79.46l-.12-.39-.4.45-.15-.21c-.32-.4-.44-.4-.76,0a3.61,3.61,0,0,1-.27.28l-.06-.06.26-1c-.74-.32-.74-.32-1.25,0l.34.53h.11v-.45h.07l.21.46-.38.61c-.4.15-.26-.29-.52-.46l-.14.64,1.65.51a6.63,6.63,0,0,0,.67.12,14.14,14.14,0,0,0,2.71.83.91.91,0,0,0,.39-.06v-.14l-.86-.45Zm9.5-42.84h0c.1.18.13.33-.1.46a7.51,7.51,0,0,0-.83.57,1.78,1.78,0,0,0-.28.36l.14.17a9.5,9.5,0,0,1,3.36-1.44,11.16,11.16,0,0,1,3.7-.22.51.51,0,0,1-.3.2c-.81.12-1.63.22-2.45.35-.53.08-1.06.19-1.58.32a1.93,1.93,0,0,0-.46.26c.36,0,.66-.11,1-.13a3.79,3.79,0,0,1,.69.08l.82.1-.19.3.9-.15v0l-.44-.1a.82.82,0,0,1,1-.1,2.73,2.73,0,0,1-.13.53.67.67,0,0,1-.68.56c-.89.07-1.78.14-2.66.24a7.42,7.42,0,0,0-1,.25v.11l.3.16-.38.42c-.46-.21-.94.49-1.43-.13l.17.86-.47-.07-.12-.42-.27,1H89l-.21-.36c-.23.25-.52.44-.61.7a2.56,2.56,0,0,0,0,.91l.47.25.5-.17.14-.46a1.64,1.64,0,0,0,.52-.07,11.9,11.9,0,0,1,3.93-1.12,5.57,5.57,0,0,1,.92,0l.1.18c-.62.43-1.34.78-1.35,1.67h-.1l-.14-.67h-.16a4.69,4.69,0,0,1-.07.47,3.06,3.06,0,0,1-.14.38h-.1a5.3,5.3,0,0,0,.08-.59c0-.24-.14-.36-.36-.24s-.53.37-.8.56l-.34-.24-.08.24a1.56,1.56,0,0,0-1.26.2l.41.34-.06.1-.33-.07c-.27.77-.87.22-1.24.28-.12.26-.21.46-.31.66s-.18.48-.49.22l.45-.87-1-1c-.54.64-.55.92-.15,1.47a.31.31,0,0,0,.07.23,3.49,3.49,0,0,1,.26.47c-.53.2-.17.54-.07.85-.27.3-.42,0-.6,0a6.11,6.11,0,0,0-.24-.7.26.26,0,0,0-.46-.08c-.26.28-.5.59-.75.9l-.42-.21a1.4,1.4,0,0,0,.08.64c.3.37,0,.36-.22.42a1.87,1.87,0,0,1-.39,1.21,5.41,5.41,0,0,0-.56.94c-.4,1.09-.77,2.19-1.1,3.3a5.85,5.85,0,0,0-.21,1.43V149a3.2,3.2,0,0,0,0,.75q.44,1.62.93,3.23c.14.45.33.88.53,1.39l.16-.57h.09v.74h.38l.2.74h.13a2.08,2.08,0,0,0,0-.7c-.42-1.11-.89-2.2-1.32-3.31a2.58,2.58,0,0,1,0-.74h.17A28.52,28.52,0,0,0,85.79,155l.08-.49h.08l.17.41c.29-.12.8.11,1.27.48l.62.18.18-1-.7-.46.71-.49h-.56a1.57,1.57,0,0,0-.28-1,1.18,1.18,0,0,1,0-.15c-.1-.26-.21-.52-.3-.78a1.42,1.42,0,0,1,0-.31l.12-.06,1.15,1.54a3.64,3.64,0,0,1,.32.64,1.43,1.43,0,0,1,.1,1.12,1,1,0,0,0,0,.51c.1.42.26.83-.08,1.25h.27c.27.54.07,1.21.51,1.7a2.51,2.51,0,0,1,.45.58,20,20,0,0,0,1.89,3c1,1.47,2.53,2.29,3.89,3.31a22.54,22.54,0,0,0,2.77,1.63,8,8,0,0,0,1.66.73c.77.21,1.58.31,2.38.45.51.09.59.19.5.71l.39-.47c.5.1,1,.18,1.55.31a1.37,1.37,0,0,0,1.07-.12,6.78,6.78,0,0,1,1.8-.75,1.88,1.88,0,0,0,1.15-.66,2.09,2.09,0,0,1,.63-.48,1.15,1.15,0,0,0,.67-.75c0-.16.26-.29.42-.4s.36-.18.53-.29.28-.26.12-.46h-.15v.41l-.31-.07c.17-.82.59-1.15,1.18-1l.4,1.06h-.1l-.18-.09c-.29.48.58,1-.18,1.51.48.24,0,.55.08.85a7.15,7.15,0,0,1-.07,1.15c0,.72-.52,1.32-.47,2.09a4.29,4.29,0,0,1-.38,1.38c-.16.51-.31,1-.48,1.51-.08.24-.19.46-.27.69s-.12.42-.18.63l.2.06c.38-1.14.78-2.28,1.12-3.43a18.66,18.66,0,0,0,.61-2.55c.24-1.63.41-3.27.6-4.91.08-.65.14-1.31.2-2A4.71,4.71,0,0,0,113,161c0-.53-.12-1.06-.13-1.6,0-.15.17-.3.27-.45h.14l-.19-1a.78.78,0,0,0,.13-.6c0-.09-.3-.1-.52-.16l.07-1.42c0-.15-.32-.25,0-.55l.55.75a6.72,6.72,0,0,1,0-1.06c0-.11-.08-.25,0-.33a3.84,3.84,0,0,0,.35-2A10.77,10.77,0,0,1,114,150a4.55,4.55,0,0,0-.06-2.32,2.24,2.24,0,0,1,0-.64l.74.65a8.17,8.17,0,0,0,.19-.88,26.51,26.51,0,0,0-.17-6,17.1,17.1,0,0,0-1.59-4.67,11.41,11.41,0,0,1-.65-1.58c-.25-.91-.4-1.84-.63-2.75-.5-2-1-3.92-1.54-5.86a20.63,20.63,0,0,0-1-2.55,1.68,1.68,0,0,0-2.07-1.1,2.69,2.69,0,0,0-.8.08c-.49.09-1,.21-1.46.31v.12c.47-.06,1-.14,1.42-.18a9.43,9.43,0,0,1,1.36,0,1,1,0,0,1,.86.59,5.08,5.08,0,0,0-1-.28,7.21,7.21,0,0,0-2.89.37,12.25,12.25,0,0,0-5.56,4,9.68,9.68,0,0,1-.79.84,1.93,1.93,0,0,1-1.46.42,21.13,21.13,0,0,0-4.85.59,8.57,8.57,0,0,0-2.3,1l.17.58c.53,0,.17-.44.43-.65Zm-30.34,43a1.46,1.46,0,0,0,1.32,1.14c-.17-.38-.76-.47-.68-1l-.66-.15.6-.35.4.45.28-.18h.08l-.2.59A5.3,5.3,0,0,0,63.2,175l.25-.51.17.07-.33,1c.21.59.43.65.87.18l.81.12a1.16,1.16,0,0,1,0-.19.1.1,0,0,1,0-.08c.78.54.78.54.62,1l.41.18v-.43l.66.34a12.45,12.45,0,0,1,2.37,1.2c.66.53,1.45.73,2.13,1.18.25.16.46.41.81.2a3.65,3.65,0,0,1,.31.23c.1.09.18.23.3.28a7.63,7.63,0,0,0,.76.27l.82-.43L72.75,179h-.14c-.53-.21-1-.43-1.59-.62-.71-.25-1.13-1-2-1.06l-.07-.07a2.7,2.7,0,0,0-1.49-.78,3.94,3.94,0,0,0-2-1.37,4.44,4.44,0,0,0-.64-.5c-.39-.2-.65-.58-1.12-.68a1.31,1.31,0,0,1-1-.83.61.61,0,0,0-.23-.26L61.24,172l.69-.93,1,.55.18-.16-.55-.42.07-.15,1.46.47c-.32-.46-.57-.83-.36-1.29,0-.07.23-.06.42-.1l-.2.51.56.68.08-.06-.07-.71c.23.12.37.17.49.25a1.41,1.41,0,0,0,1.45,0c.24-.18.43-.09.65.09l-.3.14.38.26.35-.41-.12-.58.35.27c.09.09.16.19.3.36l.13-.59.44-.24-.83-.31.1-.33-1.23-.74-.36.25-.17-.53c-.56,0-.71-.83-1.33-.64l-1-.81-.36-.07c.1-.67.1-.67-.57-.63L62,165l-.47.36-.3-.35.46-.07c-.32-.31-.93-.24-.87-.88l-.32.16-.76-1,.11-.12a5.54,5.54,0,0,1,1.55,1.13c.22.1.51.14.55.26.13.41.51.52.78.75l.67.59c.38.13,1,.08,1.06.76.42.19.79.33,1.13.52.15.08.23.29.38.39.47.31,1,.59,1.45.88.06,0,.13.08.18.07.38-.09.58.19.83.38a2.17,2.17,0,0,0,.74.49,3,3,0,0,1,1.18.64,9.2,9.2,0,0,0,1.13.62l.22-.5.1-.07c.26.91.71,1.56,1.73,1.44.1.11.2.3.3.3.49,0,.75.45,1.18.56a4.62,4.62,0,0,1,.53.2v-.71c-.61,0-.81-.39-.8-.94,0-.12-.11-.23-.17-.37l-.56.19c.32-.64.24-.79-.46-.93l-.28.32c-.36-.44-1.18-.34-1.13-1.13h-.7l.22-.59,1,.52c-.38-.57-.82-1-1.43-.48l-.45-.41-.26.47c-.32-.49.13-.68.27-1-.18-.08-.37-.14-.55-.23s-.32-.22-.49-.32-.24-.35-.53-.12l.15.1a1.31,1.31,0,0,1,.12.18c-.47-.17-.73-.38-.66-.74a4.2,4.2,0,0,1-.59-.34,7.91,7.91,0,0,1-.61-.64l-.11.41c-.28-.29-.48-.47-.27-.83,2.54,1.31,4.93,2.9,7.63,3.83l.21-.33.7.42c-.24.06-.46-.23-.6.15l1.3.58a3.06,3.06,0,0,0,.75.29c.72.1,1.35.66,2,.39.34.27.6.62.82.61a1.24,1.24,0,0,1,.83.2.89.89,0,0,0,.49.1c.49,0,1-.06,1.48-.09l-.11.49,1.83.22c.75.1,1.49.23,2.24.33a11,11,0,0,0,1.21.08,4.73,4.73,0,0,0,.94-.07c.25.24.68.09,1.09.11l1.94.08h.25c.32-.07.65-.13,1-.23s.5-.22.76-.31a1.24,1.24,0,0,1,.47,0,8.21,8.21,0,0,1,1.07.13l.26-1h.43l-.12.49a4.3,4.3,0,0,0,1.39-.2c.5-.26,1,.12,1.41,0v-1.21a5.38,5.38,0,0,0-.7.49.49.49,0,0,1-.52.16,3.89,3.89,0,0,0-1,0c-1,.06-1.9.16-2.85.22-.24,0-.49-.07-.74-.07-.41,0-.82.07-1.22,0-.61,0-1.22-.17-1.83-.16a1.36,1.36,0,0,1-1-.35.87.87,0,0,0-1.18-.07,1.48,1.48,0,0,0-1.42-.15l.5.21v.13a11.85,11.85,0,0,1-3.75-.66l.33-.23v-.13l-1.31-.23.3.4a9.61,9.61,0,0,1-3.94-1.31l.89.24c0-.12,0-.16-.09-.18l-3.2-1.44c-.67-.3-1.37-.56-2-.9-1-.51-1.9-1.07-2.85-1.61l-2-1.11a11.45,11.45,0,0,0-1.39-.78c-.36-.14-.38-.29-.16-.63a1.15,1.15,0,0,1-1.25-.3c-.85-.62-1.7-1.25-2.52-1.91a13.83,13.83,0,0,1-1.08-1.08c-.23,0-.67,0-.8-.41-.21-.65-.82-.89-1.19-1.36h-.45a7.45,7.45,0,0,0-1.81-2.24.17.17,0,0,0-.09,0c-.54-.07-.73-.57-1-.9-.59-.65-.93-1.52-1.8-1.92a.21.21,0,0,1-.07-.07l-1.23-1.78c-.31-.45-.5-1-1-1.26a.72.72,0,0,1-.23-.26L52,146.41l-.1-.11-.69-.91a.41.41,0,0,0-.1-.18c-.61-.73-1.13-1.53-1.67-2.31-1-1.47-2-2.94-3-4.45a20,20,0,0,1-1.21-2.15c-.86-1.88-1.67-3.8-2.51-5.69a32.52,32.52,0,0,1-1.81-5.25,3.28,3.28,0,0,1,0-.69,19.71,19.71,0,0,1,2,.19,12.18,12.18,0,0,1,3.7,1.59,1.42,1.42,0,0,1,.75,1.22,22.91,22.91,0,0,0,.3,2.7,33.78,33.78,0,0,0,1,3.43,14.75,14.75,0,0,0,2.12,3.88,21.2,21.2,0,0,0,1.83,2.07,28.11,28.11,0,0,0,4.06,3.63c1,.69,2,1.27,3,1.91a12.25,12.25,0,0,0,3.6,1.53,8,8,0,0,0,3.85.19A17.67,17.67,0,0,0,72,145.14a1.71,1.71,0,0,1,1.11-.22,8,8,0,0,0,1.26,0,1.49,1.49,0,0,0,1.29-.69,12.45,12.45,0,0,0,1-2c.27-.71.65-1.5,1-2.24a4.71,4.71,0,0,1,1.51-1.76,8.74,8.74,0,0,0,1.46-1.59c.78-1,1.54-1.93,2.31-2.89-.1-.27-.15-.51.25-.54a.2.2,0,0,0,.12-.08c.38-.49.79-1,1.14-1.48,1-1.41,1.91-2.82,2.8-4.26,1.2-2,2.4-3.91,3.5-5.91,1-1.77,1.86-3.59,2.73-5.42.6-1.26,1.13-2.56,1.62-3.87.63-1.69,1.26-3.38,1.77-5.11a48.72,48.72,0,0,0,1.73-7.32c.18-1.37.36-2.74.41-4.11a31,31,0,0,0-.13-4.09c-.13-1.36-.2-2.45-.37-3.67s-.42-2.45-.67-3.67c-.32-1.6-.61-3.2-1-4.77a24.44,24.44,0,0,0-1.81-5.11c-.36-.68-.64-1.39-1-2.08s-.6-1.08-.91-1.61a7.13,7.13,0,0,0-.49-.74q-.39-.51-.82-1c-.23-.25-.48-.49-.72-.73a9.9,9.9,0,0,0-.68-.85c-.3-.34-.89-.44-.9-1L88.86,66l-.06.1.3.35c-.54,0-.65-.47-1-.69h.26a3.78,3.78,0,0,0-2.22-1.51l1.43,1-.06.08L84.2,63.45c-.62.2-1-.38-1.46-.68a1.2,1.2,0,0,1-1.46,0l-.69-.16c.06.22-.07.35-.29.31-.39-.08-.78.1-1.13.06a2.37,2.37,0,0,0-1.56.33,19.64,19.64,0,0,0-2.5,1c-.36.26-.77.47-1.12.76a32.89,32.89,0,0,0-2.82,2.43,41.07,41.07,0,0,0-2.86,3.4C67,72.57,65.79,74.27,64.54,76c-1.07,1.45-2.08,2.94-3.19,4.36A14.1,14.1,0,0,1,56.6,84.1a9.66,9.66,0,0,1-6,1,18,18,0,0,1-5.54-2,24.73,24.73,0,0,1-6.86-5.37C37.08,76.52,36.07,75.22,35,74c-.31-.37-.61-.76-.93-1.13-.9-1-1.83-2.07-2.69-3.15-1-1.25-1.92-2.55-2.84-3.86-.49-.7-.92-1.44-1.36-2.18a3.44,3.44,0,0,1-.22-.58l.52-.19a14.68,14.68,0,0,0,5.63-3.48c.77-.77,1.5-1.59,2.2-2.43s1.09-1.45,1.63-2.18l.83-1.13c.56-.76,1.16-1.48,1.66-2.28s1-1.84,1.57-2.75a3.93,3.93,0,0,1,.34-.44h.16l.66,2.63c.44-.27.86-.49,1.24-.77s.73-.6,1.1-.91l.3.13a3.73,3.73,0,0,1,.28-.52,1,1,0,0,1,.39-.35,3.55,3.55,0,0,0,1.43-1.2c.35-.4.66-.85,1-1.25s.6-.62.9-.92a.82.82,0,0,1,.2-.16c.74-.38.93-1.16,1.3-1.81a.6.6,0,0,0,0-.35c-.16-1.17-.3-2.34-.51-3.5-.14-.79-.4-1.57-.57-2.36-.58-2.6-1.16-5.2-1.71-7.8a4.48,4.48,0,0,1-.12-1.44q.38-3.13.86-6.26a18.49,18.49,0,0,1,.54-2.52A2.65,2.65,0,0,0,48.95,17c-.35.32-.16,1.11-.88,1-.5.74-1,1.43-1.44,2.13l-1.36,2.14h-.18a17.52,17.52,0,0,1-.86-2.07c-.41-1.48-.73-3-1.1-4.5l-.2.3h-.11A23.17,23.17,0,0,1,43,13.64c0-.46.26-.92.27-1.38a2.56,2.56,0,0,1,.45-1.84v-.2c-1.38.4-2.2,1.53-3.19,2.23l-1.18.44c-3.37-3.2-6.84-6.35-11.06-8.57l.07-.1.4-.12L28.1,2.62c.44-.53.39-1.47,1.29-1.7V.78A2.6,2.6,0,0,0,27.7,0a5.77,5.77,0,0,0-3.1.65c-.38.16-.54.17-.72-.21a.52.52,0,0,0-.66-.31,10.42,10.42,0,0,0-4.5,2.08c-1.07.82-2.06,1.74-3.1,2.6-.28.23-.6.43-.9.64l-.08-.1.42-.59V4.66a3.17,3.17,0,0,0-.8.06,13.43,13.43,0,0,0-1.87.75,15.54,15.54,0,0,0-5,3.8,14.65,14.65,0,0,1-2.82,2.59,5.16,5.16,0,0,0-1.66,2.06,12.07,12.07,0,0,1-1.51,2.62,4.57,4.57,0,0,0-.55,1A7.71,7.71,0,0,0,.11,21a32.09,32.09,0,0,0,.22,4c.29,1.74.78,3.44,1.2,5.15,0,.14.18.25.31.42s0,.44,0,.7a14.81,14.81,0,0,1,.08,1.56A13,13,0,0,0,2.32,37c.39,1.48.29,3,.91,4.46a.19.19,0,0,1,0,.1,4.31,4.31,0,0,0,.48,1.91c.17.56.46,1.08.6,1.65.28,1.19.47,2.41.75,3.61.46,1.92.91,3.84,1.49,5.72.65,2.13,1.4,4.23,2.19,6.3.69,1.81,1.46,3.59,2.27,5.35,1.09,2.37,2.23,4.72,3.39,7a32.53,32.53,0,0,0,2,3.53,37.53,37.53,0,0,0,4,5.47,25.6,25.6,0,0,0,3.19,3.27,1.93,1.93,0,0,1,.33.43,2.45,2.45,0,0,0,.32.44c.25.22.56.37.79.6a9.71,9.71,0,0,1,.73.92l.86.88a1.31,1.31,0,0,0,.2.22.89.89,0,0,1,.49.72c0,.24.24.3.47.25h.14V90a2,2,0,0,1,.54.24c.55.5,1.06,1,1.61,1.52.31.27.73.43.83.9a.26.26,0,0,0,.19.15c.63.09.92.66,1.4,1L34.13,95l.06-.07.09.5.62-.12.22.45.55-.11,0,.11c.31.19.6.4.92.58s.65.22.63.67c0,.07.11.14.17.22h0l-.09-.35a.72.72,0,0,1,.81.18,1.47,1.47,0,0,0,1.14.56.3.3,0,0,1,.23.09c.27.36.67.33,1,.38a1.34,1.34,0,0,1,.54.11,3.78,3.78,0,0,0,1.34.31,6.5,6.5,0,0,0,1.75.18,12.1,12.1,0,0,0,2.17,0c.74-.13,1.68-.09,2.52-.17.52,0,1-.25,1.56-.27a2.62,2.62,0,0,0,1.81-.75,3,3,0,0,1,.68-.42,7,7,0,0,0,.68-.31c.8-.53,1.58-1.08,2.38-1.61a22.84,22.84,0,0,0,4.49-4.39l1-1.18c.55-.77,1.08-1.54,1.6-2.33.62-.94,1.23-1.89,1.84-2.84.43-.66.85-1.33,1.3-2a25.22,25.22,0,0,1,1.6-2.2,14.9,14.9,0,0,1,1.64-1.89,11.16,11.16,0,0,1,4-2.42,6.92,6.92,0,0,1,5,.06c.31.13.63.22.92.32l.48-.42-.1-.43.83.48-.26-.43.09-.12c.43.27.86.53,1.28.81a4.37,4.37,0,0,1,.46.41l-.33.08v.08l.65.06-.09.25h.46l.12.56.34-.2,2.1,2.43h-.45l.06.73.49.14.25-.38.53.9-.11.2.35,1.37.77-.07a1.12,1.12,0,0,0,.14,1.18.57.57,0,0,1,.08.33,2.28,2.28,0,0,0,.36,1.25,3.24,3.24,0,0,1,.55,1.62,4.45,4.45,0,0,1,.33.72,9.27,9.27,0,0,0,.43,1.35,2.27,2.27,0,0,1,.39,2,4,4,0,0,1,.29.55,8.39,8.39,0,0,1,.32,1.09c.07.35.08.71.12,1.07a1.27,1.27,0,0,0,.08.54c.11.58.73,1,.43,1.73,0,.06.06.15.07.23.06.26.28.5,0,.79a.44.44,0,0,0,.13.35,1.58,1.58,0,0,1,.4,1.43l-.42.25c.67.43.5,1,.4,1.58-.15.76-.19.75.49,1a.21.21,0,0,0,0,.12c-.33.18-.56.39-.42.85a1.89,1.89,0,0,1-.31,2.11c.46.42.46.42.45,1a12.74,12.74,0,0,0,0,2.54c.07.37-.08.78.14,1.15v.32l-.33-.1-.22,2h.31a6.14,6.14,0,0,0-.44,1A7.48,7.48,0,0,0,91,113.9a.55.55,0,0,1,0,.1c-.12.41-.25.82-.36,1.24s-.13.65-.2,1a4,4,0,0,0-.22,1.07c0,.38,0,.64-.3.66l-.54,1c0,.07-.09.17-.07.23a1.74,1.74,0,0,1-.39,1.36c-.67,1.18-1.41,2.33-2.18,3.45a17.18,17.18,0,0,1-2.85,3.34c-.13.11-.27.2-.4.3l-.1-.09.12-.47a23.43,23.43,0,0,0,1.08-6,14,14,0,0,0-.82-5.11,29.14,29.14,0,0,0-1.54-3.45,22.3,22.3,0,0,0-2.06-3.16,37.78,37.78,0,0,0-2.67-2.89,20.55,20.55,0,0,0-5.11-3.76,24.4,24.4,0,0,0-2.68-1.18,10.32,10.32,0,0,0-5.35-.75,9.46,9.46,0,0,0-3.72,1.45,11.6,11.6,0,0,0-3,2.29c-1.32,1.64-2.56,3.33-3.8,5-.5.69-.87,1.48-1.34,2.2s-1,1.35-1.43,2c-.3.42-.47.48-.93.21a7.59,7.59,0,0,0-4.08-1,5.25,5.25,0,0,0-4.65,2.39c-.86,1.36-1.61,2.8-2.36,4.22-.47.89-.88,1.82-1.29,2.74a9.48,9.48,0,0,0-.52,1.37,11.48,11.48,0,0,1-1.07,2.82,12.77,12.77,0,0,0-1.23,3.31,12.59,12.59,0,0,0-.18,4.82,16.36,16.36,0,0,0,.72,3c.5,1.52,1,3,1.65,4.5.45,1.08,1.06,2.1,1.59,3.14a22.48,22.48,0,0,1,1.24,2.52c.34,1,1.08,1.65,1.38,2.62.13.44.56.79.79,1.21.49.88,1.41,1.45,1.7,2.46,0,.07.11.13.16.19.31.38.64.76.93,1.15.53.71.76,1.65,1.59,2.14a.54.54,0,0,1,.2.28c.12.35.18.73.65.81.08,0,.13.18.19.28.23.38.44.78.71,1.14.48.64,1,1.24,1.5,1.89.66.91,1.22,1.88,1.91,2.77a8.13,8.13,0,0,0,2,2.4,2.35,2.35,0,0,1,.49.56c.39.47.76,1,1.18,1.42l1.49,1.48c.25.28.48.5.77.43a7.75,7.75,0,0,0,.74.92,3.51,3.51,0,0,0,2,1.15.63.63,0,0,0,.15.33Zm13.68,7.17a10.9,10.9,0,0,1,1.24.39,31.27,31.27,0,0,0,5.44,1.61,33.6,33.6,0,0,0,3.51.57c.85.12,1.71.18,2.56.27l-.19-.21.47-.28-1-.19c-.44.72-.57,0-.81-.09l-.31.18L84,182.28l.1.6L84,183c-.12-.09-.29-.16-.34-.28a.73.73,0,0,0-.67-.44l-3.17-.39c-.28-.64-.92-.61-1.42-.48a3.16,3.16,0,0,1-1,0c0-.37-.11-.47-.4-.4-.13,0-.34,0-.39,0a1.43,1.43,0,0,0-1.23-.62l-.36.34-.11-.08c0-.26.19-.58-.2-.66a2.38,2.38,0,0,0-.59,0l.27.29ZM87,176.4l-1.14-.17-1,.79-.09-.64-.52-.16-.13.48.4-.07.45.78.62-.29.23.59.61-.44c.42.35.26.6-.07.79v.36l-1.09-.55-.61.48,2.77.74c.11-.48,0-.68-.37-.64l-.13.32-.11-.07-.2-.51L87.79,177l.15,1h.52l-.45-.7c.39.07.61.54,1,0-.62.06-.78-.31-.85-.89l-.85.67ZM74.34,179l.43.18.23-.43.48.25.33-.22-.21-.42h.6c0,.17-.1.43,0,.5s.35.63.78.38l.14.32c.39-.21.4-.59.07-1.08l-.62.19v-.51a5.42,5.42,0,0,0-.75-.09,6.33,6.33,0,0,0-.79.11l-.11-.36-.54.06-.22.52Zm26.24-8.77c.23,0,.4-.06.58-.07a4.1,4.1,0,0,0,.92,0,7.13,7.13,0,0,0,1.07-.52l-.06-.49c.32-.07.42-.23.18-.53l-.92.49c0,.21.34.43-.08.57l-.28-.5c-.12.09-.23.14-.28.23-.16.28-.81.75-1,.6-.41-.31-.59.07-.89.15l-.2-.18-.33.62c.52.56,1,0,1.51,0Zm-9.17,3c-.68-.11-.31.7-.74.89l-.22-.6-.41.3-.74-.26.31-.4H88.37L89,174l.15-.26c.06.61.07.6.59.94a4.4,4.4,0,0,1,.53.49h.42l-.17-.53c.27-.18.54-.27.63-.44a4,4,0,0,0,.27-1ZM81,178.15l.35-.82h.31l-.24-.39,1-.25c.27-.46.27-.49-.06-.72l-.54.71-.44-.59.4-.23v-.13l-.69-.17v2l-.57-.61-.2.34h-.47v.12Zm-9.37-1.32-.1.09c0,.18,0,.43.1.51a2.51,2.51,0,0,0,.75.35.83.83,0,0,0,.26-.12l-.41-.55.41-.26.08-.16c-.71.2-.92-.19-1-.72-.87.48-1,.73-.45,1.16v-.51Zm4.54-.9-1.31.21v.08l2,.59.41-.08v-.6l-.81.13-.12-.12Zm-9-2.78a2.4,2.4,0,0,0,.17-.48c.06-.62.06-.62.64-.64-.21-.26-.42-.43-.74-.26s-.07.58,0,.9h-.85l-.14-.66a.46.46,0,0,0,0,.85l.86.49.35.13.17-.19Zm2.16.07a.62.62,0,0,0-.49-.73h-.17l.25-.85h-.11l-.77.91c.58.63.86.78,1.27.69Zm8.51,6c.18.7.81.66,1.41.93v-1.06c-.49.78-.65-.17-.89-.09Zm10.2,4.23,2.8.17v-.1c-.5,0-1-.09-1.5-.16-.24,0-.59,0-.69-.18-.28-.44-.62-.29-1-.2l.45.17Zm-5.17-7.14a4.57,4.57,0,0,0,.26.6c0,.08.24.16.28.12a2.07,2.07,0,0,0,.51-.49c.06-.09,0-.28,0-.41s-.18,0-.27,0-.49.12-.79.2Zm-8.56-3.22-.43.41c.51.11.47.86,1.08.77v-.59h-.34Zm9.15,5.17h1.1v-.08a1.77,1.77,0,0,0-1.44-.25Zm2.77-41.64-.12-.06a2.22,2.22,0,0,0-.07.54,4,4,0,0,0,.21.67c.24.12.24.12.42,0Zm9.65,29h-.6c.32.62.94.47,1.36.71l.07-.09Zm-3.46,8.74-.8-.67-.14.58.61.44Z"/><path d="M60.47,173.4c-.06-.08-.12-.22-.19-.23a3.51,3.51,0,0,1-2-1.15,7.75,7.75,0,0,1-.74-.92c-.29.07-.52-.15-.77-.43-.47-.52-1-1-1.49-1.48a16.12,16.12,0,0,1-1.18-1.42,2.35,2.35,0,0,0-.49-.56,8.13,8.13,0,0,1-2-2.4c-.68-.89-1.25-1.86-1.91-2.77-.47-.65-1-1.25-1.5-1.89-.27-.36-.47-.76-.71-1.14-.06-.1-.11-.27-.19-.28-.47-.08-.53-.46-.65-.81a.54.54,0,0,0-.2-.28c-.83-.49-1.06-1.43-1.59-2.14-.3-.4-.62-.77-.93-1.15,0-.07-.14-.12-.16-.19-.29-1-1.21-1.58-1.7-2.46a6.77,6.77,0,0,1-.79-1.21,28.41,28.41,0,0,0-1.38-2.62,22.48,22.48,0,0,0-1.24-2.52c-.53-1-1.14-2.06-1.59-3.14-.62-1.47-1.16-3-1.65-4.5a16.36,16.36,0,0,1-.72-3,12.59,12.59,0,0,1,.18-4.82,12.77,12.77,0,0,1,1.23-3.31,11.48,11.48,0,0,0,1.07-2.82,9.48,9.48,0,0,1,.52-1.37c.42-.92.82-1.84,1.29-2.74.75-1.43,1.5-2.87,2.36-4.22A5.25,5.25,0,0,1,46,113a7.59,7.59,0,0,1,4.08,1c.46.27.63.22.93-.21.48-.67,1-1.33,1.43-2s.83-1.5,1.34-2.2c1.23-1.7,2.48-3.4,3.8-5a11.6,11.6,0,0,1,3-2.29,9.46,9.46,0,0,1,3.72-1.45,10.32,10.32,0,0,1,5.35.75,24.4,24.4,0,0,1,2.68,1.18,20.55,20.55,0,0,1,5.11,3.76,37.78,37.78,0,0,1,2.67,2.89,22.3,22.3,0,0,1,2.06,3.16,29.14,29.14,0,0,1,1.54,3.45,14,14,0,0,1,.82,5.11,23.43,23.43,0,0,1-1.08,6l-.12.47.1.09.4-.3a17.18,17.18,0,0,0,2.85-3.34c.77-1.12,1.51-2.27,2.18-3.45a1.74,1.74,0,0,0,.34-1.43.31.31,0,0,1,.07-.23l.54-1c.33,0,.33-.28.3-.66a4,4,0,0,1,.22-1.07c.07-.33.12-.66.2-1s.24-.83.36-1.24a.55.55,0,0,0,0-.1,7.48,7.48,0,0,1,.11-1.14,6.14,6.14,0,0,1,.44-1h-.31l.22-2,.33.1c0-.13.06-.25,0-.32-.22-.37-.07-.78-.14-1.15a12.74,12.74,0,0,1,0-2.54c0-.6,0-.6-.45-1a1.89,1.89,0,0,0,.31-2.11c-.14-.47.09-.67.42-.85,0-.06,0-.11,0-.12-.67-.27-.63-.26-.49-1,.1-.54.27-1.15-.4-1.58L91.3,99a1.58,1.58,0,0,0-.4-1.43c-.08-.09-.17-.3-.13-.35.23-.29,0-.53,0-.79,0-.08-.1-.18-.07-.23.3-.69-.32-1.15-.43-1.73a5,5,0,0,0-.08-.54A3.23,3.23,0,0,0,90,92.83a8.39,8.39,0,0,0-.32-1.09,4,4,0,0,0-.29-.55,2.27,2.27,0,0,0-.39-2,9.27,9.27,0,0,1-.43-1.35,4.45,4.45,0,0,0-.33-.72,3.24,3.24,0,0,0-.55-1.62,2.28,2.28,0,0,1-.36-1.25.57.57,0,0,0-.08-.33,1.12,1.12,0,0,1-.14-1.18l-.77.07L86,81.44l.11-.2-.53-.9-.25.38-.49-.14-.06-.73h.45l-2.1-2.43-.34.2-.12-.56H82.2l.09-.25-.65-.06v-.08l.33-.08a4.37,4.37,0,0,0-.46-.41c-.42-.28-.85-.54-1.28-.81l-.09.12.26.43-.83-.48.1.43-.47.36c-.29-.1-.61-.19-.92-.32a6.92,6.92,0,0,0-5-.06,11.16,11.16,0,0,0-4,2.42,14.9,14.9,0,0,0-1.64,1.89c-.56.71-1.08,1.46-1.6,2.2s-.87,1.32-1.3,2c-.61,1-1.22,1.9-1.84,2.84-.52.78-1,1.56-1.6,2.33a10.79,10.79,0,0,1-1,1.18,22.84,22.84,0,0,1-4.49,4.39c-.79.53-1.58,1.09-2.38,1.61-.21.14-.46.19-.68.31a3,3,0,0,0-.68.42,2.62,2.62,0,0,1-1.81.75c-.52,0-1,.22-1.56.27-.84.08-1.68.08-2.52.17s-1.46-.07-2.17,0a6.5,6.5,0,0,1-1.75-.18,3.78,3.78,0,0,1-1.34-.31,1.34,1.34,0,0,0-.54-.11c-.38,0-.78,0-1-.38a.3.3,0,0,0-.23-.09A1.47,1.47,0,0,1,38,97a.72.72,0,0,0-.81-.18l.09.35h0c-.06-.07-.18-.15-.17-.22,0-.45-.35-.51-.63-.67s-.61-.38-.92-.58l0-.11L35,95.7l-.22-.45-.62.12-.09-.5-.06.07c-.55-.38-1.08-.78-1.64-1.13s-.77-.87-1.4-1a.26.26,0,0,1-.19-.15c-.1-.47-.52-.63-.83-.9-.55-.49-1.06-1-1.61-1.52a2,2,0,0,0-.54-.24v-.2h-.14c-.23,0-.44,0-.47-.25a.89.89,0,0,0-.49-.72,1.31,1.31,0,0,1-.2-.22l-.86-.88a9.71,9.71,0,0,0-.73-.92c-.23-.23-.54-.38-.79-.6a2.45,2.45,0,0,1-.32-.44,1.93,1.93,0,0,0-.33-.43,25.6,25.6,0,0,1-3.19-3.27,37.53,37.53,0,0,1-4-5.47c-.72-1.14-1.36-2.33-2-3.53-1.16-2.33-2.3-4.68-3.39-7-.81-1.76-1.58-3.54-2.27-5.35-.79-2.08-1.54-4.18-2.19-6.3-.58-1.88-1-3.81-1.49-5.72-.29-1.19-.47-2.41-.75-3.61-.13-.56-.43-1.09-.6-1.65a4.31,4.31,0,0,1-.48-1.91.19.19,0,0,0,0-.1c-.63-1.42-.52-3-.91-4.46a13,13,0,0,1-.4-4.09,14.81,14.81,0,0,0-.08-1.56v-.7c0-.18-.27-.28-.31-.42C1,28.44.51,26.74.23,25A32.09,32.09,0,0,1,0,21,7.71,7.71,0,0,1,.7,17.51a4.57,4.57,0,0,1,.55-1,12.07,12.07,0,0,0,1.51-2.62,5.16,5.16,0,0,1,1.66-2.06A14.65,14.65,0,0,0,7.24,9.24a15.54,15.54,0,0,1,5-3.8,13.43,13.43,0,0,1,1.87-.75,3.17,3.17,0,0,1,.8-.06v.14l-.42.59.08.1c.3-.21.62-.4.9-.64,1-.86,2-1.78,3.1-2.6A10.42,10.42,0,0,1,23.12.14a.52.52,0,0,1,.66.31c.18.38.34.37.72.21A5.77,5.77,0,0,1,27.6,0a2.6,2.6,0,0,1,1.69.74V.89c-.9.23-.85,1.17-1.29,1.7l.62,1.48-.4.12-.07.1c4.22,2.21,7.69,5.37,11.06,8.57l1.18-.44c1-.7,1.81-1.83,3.19-2.23,0,.14,0,.18,0,.2a2.56,2.56,0,0,0-.38,1.84c0,.46-.23.91-.27,1.38-.08.78-.1,1.57-.14,2.36h.11l.2-.3c.36,1.51.68,3,1.1,4.5a17.52,17.52,0,0,0,.86,2.07h.18c.45-.71.9-1.43,1.36-2.14S47.54,18.7,48,18c.72.12.54-.67.88-1a2.65,2.65,0,0,1-.15,1.83,18.49,18.49,0,0,0-.54,2.52q-.46,3.12-.86,6.26A4.48,4.48,0,0,0,47.49,29c.55,2.6,1.13,5.2,1.71,7.8.18.79.43,1.56.57,2.36.21,1.16.35,2.33.51,3.5a.6.6,0,0,1,0,.35c-.37.65-.55,1.43-1.3,1.81a.82.82,0,0,0-.2.16c-.3.3-.62.6-.9.92s-.66.85-1,1.25a3.55,3.55,0,0,1-1.43,1.2,1,1,0,0,0-.39.35,3.73,3.73,0,0,0-.28.52l-.3-.13c-.37.31-.72.63-1.1.91s-.81.5-1.24.77l-.66-2.63h-.16a3.93,3.93,0,0,0-.34.44c-.53.92-1,1.86-1.57,2.75s-1.11,1.52-1.66,2.28l-.83,1.13c-.54.73-1,1.48-1.63,2.18s-1.43,1.66-2.2,2.43a14.68,14.68,0,0,1-5.63,3.48l-.52.19a3.44,3.44,0,0,0,.22.58c.44.73.87,1.48,1.36,2.18.92,1.3,1.86,2.6,2.84,3.86.85,1.08,1.79,2.1,2.69,3.15.32.37.62.76.93,1.13C36,75.2,37.06,76.5,38.17,77.7A24.73,24.73,0,0,0,45,83.09a18,18,0,0,0,5.54,2,9.66,9.66,0,0,0,6-1,14.1,14.1,0,0,0,4.75-3.77c1.11-1.42,2.12-2.91,3.19-4.36,1.25-1.7,2.48-3.4,3.77-5.07a41.07,41.07,0,0,1,2.86-3.4A32.89,32.89,0,0,1,74,65.06c.35-.29.75-.5,1.12-.76a19.64,19.64,0,0,1,2.5-1A2.37,2.37,0,0,1,79.15,63a5.15,5.15,0,0,1,1.13-.06c.22,0,.35-.08.29-.31l.69.16a1.2,1.2,0,0,0,1.46,0c.46.3.84.88,1.46.68l3.35,1.81.06-.08-1.43-1a3.78,3.78,0,0,1,2.22,1.51h-.26c.32.22.43.72,1,.69l-.3-.35.06-.1.68.34c0,.61.59.71.9,1a9.9,9.9,0,0,1,.68.85c.24.24.49.47.72.73s.56.65.82,1a7.13,7.13,0,0,1,.49.74c.31.53.63,1.06.91,1.61s.63,1.4,1,2.08a24.44,24.44,0,0,1,1.81,5.11c.43,1.57.72,3.18,1,4.77.25,1.22.49,2.44.67,3.67s.29,2.44.37,3.67.17,2.73.13,4.09-.24,2.75-.41,4.11A48.72,48.72,0,0,1,96.92,107c-.5,1.73-1.13,3.42-1.77,5.11-.49,1.31-1,2.61-1.62,3.87-.86,1.83-1.75,3.65-2.73,5.42-1.11,2-2.3,4-3.5,5.91-.89,1.45-1.85,2.85-2.8,4.26-.35.52-.76,1-1.14,1.48a.2.2,0,0,1-.12.08c-.39,0-.34.27-.25.54-.77,1-1.52,1.94-2.31,2.89a8.74,8.74,0,0,1-1.48,1.66,4.71,4.71,0,0,0-1.53,1.88c-.34.74-.64,1.5-1,2.24s-.67,1.33-1,2a1.49,1.49,0,0,1-1.29.69,8,8,0,0,1-1.26,0,1.71,1.71,0,0,0-1.11.22,17.67,17.67,0,0,1-4.94,1.87,8,8,0,0,1-3.85-.19,12.25,12.25,0,0,1-3.6-1.53c-1-.64-2-1.23-3-1.91a28.11,28.11,0,0,1-4.06-3.63,21.2,21.2,0,0,1-1.83-2.07,14.75,14.75,0,0,1-2.12-3.88,33.78,33.78,0,0,1-1-3.43,22.91,22.91,0,0,1-.3-2.7,1.42,1.42,0,0,0-.75-1.22,12.18,12.18,0,0,0-3.7-1.59c-.64-.11-1.29-.12-2-.19a3.28,3.28,0,0,0,0,.69,32.52,32.52,0,0,0,1.81,5.25c.85,1.89,1.65,3.8,2.51,5.69a20,20,0,0,0,1.21,2.15q1.41,2.28,3,4.45c.54.78,1,1.58,1.67,2.31,0,0,.06.12.1.18l.69.91.1.11,1.24,1.87a.72.72,0,0,0,.23.26c.55.26.74.81,1,1.26l1.23,1.78a.21.21,0,0,0,.07.07c.86.4,1.21,1.27,1.8,1.92.3.33.48.83,1,.9a.17.17,0,0,1,.09,0,7.45,7.45,0,0,1,1.81,2.24h.45c.37.47,1,.71,1.19,1.36.13.4.57.42.8.41a13.83,13.83,0,0,0,1.08,1.08c.82.66,1.67,1.29,2.52,1.91.35.25.71.54,1.25.3-.22.34-.2.48.16.63a11.45,11.45,0,0,1,1.39.78l1.92,1.11c1,.54,1.88,1.1,2.85,1.61.65.34,1.35.6,2,.9l3.2,1.44a.32.32,0,0,1,.09.18l-.89-.24a9.61,9.61,0,0,0,3.94,1.31l-.3-.4,1.31.23v.13l-.33.23a11.85,11.85,0,0,0,3.75.66v-.13l-.5-.21a1.48,1.48,0,0,1,1.42.15.87.87,0,0,1,1.18.07,1.36,1.36,0,0,0,1,.35c.61,0,1.22.13,1.83.16.4,0,.81,0,1.22,0,.25,0,.5.09.74.07,1-.06,1.9-.16,2.85-.22a3.89,3.89,0,0,1,1,0,.49.49,0,0,0,.52-.16,5.38,5.38,0,0,1,.7-.49v1.17c-.46.14-.91-.25-1.41,0a4.3,4.3,0,0,1-1.39.2l.12-.49H95.6l-.26,1c-.37,0-.72-.1-1.07-.13a1.24,1.24,0,0,0-.47,0c-.26.09-.5.23-.76.31s-.64.16-1,.23h-.25l-1.94-.08c-.41,0-.84.13-1.09-.11-.38,0-.66.08-.94.07a11,11,0,0,1-1.21-.08c-.75-.1-1.49-.22-2.24-.33l-1.83-.22.11-.49c-.5,0-1,.08-1.48.09a.89.89,0,0,1-.49-.1,1.24,1.24,0,0,0-.83-.2c-.23,0-.48-.34-.82-.61-.64.26-1.27-.3-2-.39a3.06,3.06,0,0,1-.75-.29L75,169c.14-.38.36-.09.6-.15l-.7-.42-.21.33C72,167.85,69.58,166.25,67,165c-.21.36,0,.54.27.83l.11-.41A7.91,7.91,0,0,0,68,166a4.2,4.2,0,0,0,.59.34c-.07.36.18.57.66.74a1.31,1.31,0,0,0-.12-.18l-.15-.1c.28-.23.38,0,.53.12a3.18,3.18,0,0,0,.49.32,4.53,4.53,0,0,0,.55.23c-.14.32-.58.5-.27,1l.26-.47.45.41c.61-.46,1-.08,1.43.48l-1-.52-.22.59h.7c0,.79.76.68,1.13,1.13l.28-.32c.7.14.78.29.46.93l.56-.19c.07.14.17.26.17.37,0,.55.19.92.8.94v.71a4.62,4.62,0,0,0-.53-.2c-.43-.1-.7-.55-1.18-.56-.1,0-.2-.2-.3-.3-1,.12-1.47-.53-1.73-1.44l-.1.07-.22.5a9.2,9.2,0,0,1-1.13-.62,3,3,0,0,0-1.18-.64,2.17,2.17,0,0,1-.74-.49c-.25-.19-.46-.46-.83-.38a.2.2,0,0,1-.18-.07c-.49-.29-1-.57-1.45-.88-.15-.1-.23-.3-.38-.39-.34-.19-.71-.33-1.13-.52,0-.68-.69-.63-1.06-.76l-.67-.59c-.27-.23-.65-.34-.78-.75,0-.12-.32-.16-.55-.26a5.54,5.54,0,0,0-1.55-1.13l-.11.12.76,1,.32-.16c-.06.63.54.57.87.88L61,165l.3.35.47-.36.93,1.18c.67,0,.67,0,.57.63l.36.07,1,.81c.61-.19.76.64,1.33.64l.17.53.36-.25,1.23.74-.1.33.83.31-.44.24-.13.59a3.72,3.72,0,0,0-.3-.36l-.35-.27.12.58-.35.41-.38-.26.3-.14c-.22-.18-.41-.27-.65-.09a1.41,1.41,0,0,1-1.45,0,5.18,5.18,0,0,0-.49-.25l.07.71-.08.06-.56-.68.2-.51c-.19,0-.39,0-.42.1-.21.46,0,.83.36,1.29L62.46,171l-.07.15.55.42-.18.16-1-.55-.69.93,1.23.82a.61.61,0,0,1,.23.26,1.31,1.31,0,0,0,1,.83c.47.1.73.49,1.12.68a4.44,4.44,0,0,1,.64.5,3.94,3.94,0,0,1,2,1.37,2.7,2.7,0,0,1,1.49.78.07.07,0,0,0,.07.07c.83,0,1.25.81,2,1.06.54.19,1.06.41,1.59.62h.14l1.46.65-.82.43a7.63,7.63,0,0,1-.76-.27c-.12-.06-.2-.19-.3-.28s-.27-.26-.31-.23c-.35.21-.56,0-.81-.2-.67-.45-1.46-.65-2.13-1.18a12.45,12.45,0,0,0-2.37-1.2l-.66-.34v.43l-.41-.18c.16-.51.16-.51-.62-1a.1.1,0,0,1,0,.08,1.16,1.16,0,0,0,0,.19l-.81-.12c-.44.46-.66.4-.87-.18l.33-1-.17-.07-.25.51A5.3,5.3,0,0,1,61.46,174l.2-.59h-.08l-.28.18-.4-.45-.6.35ZM43,118v-.42a1.87,1.87,0,0,0-1.55,1.07l.84-.38v.25c.5.14.46-.33.65-.53a1.76,1.76,0,0,0,.58.17c.6,0,1.19-.17,1.79-.21a5.79,5.79,0,0,1,1.25.06c.47.07.94.21,1.41.32.06-.33.06-.34-.21-.43A6,6,0,0,0,43,118Zm27.82,5.19.3-.18.52.8c.09-.08.13-.09.14-.12a1.94,1.94,0,0,0-1.17-1.84h0c-.52,0-.62-.06-.82-.51l-.51-.51h0l-.43-.16-.2.25-1-.43a10.07,10.07,0,0,1-1-.44c-.31-.17-.69,0-1-.08,0,0-.12.09-.23.17l1.32.66a.79.79,0,0,1,.81.23,4.54,4.54,0,0,0,.62.32,2.2,2.2,0,0,1,.42.37c.16.17.31.36.44.52l.51-.21c.08.28,0,.65.4.68v-.44l.21.13.78.79h-.24a4.34,4.34,0,0,0-.35.42l-.18-.16h-.09l.07.55.62.13v.41l.11.08.42-.44-.5-.67.43-.25ZM56.4,167.44c.16-.33-.06-.4-.31-.47s-.51-.19-.8-.29l.7-.6c-.47-.21-.6-.8-1.18-.51l.09-.3-1-1.46-.3.11-.15-.49c-.22.23-.54.33-.53,0,0-.5-.37-1-.11-1.49a1.76,1.76,0,0,0-.11-.33l-.34.47-1.31-1-.48.25a3.59,3.59,0,0,0,.57.6,1.44,1.44,0,0,1,.58.85,1.9,1.9,0,0,0,1.08,1.15l.87,1.15.16.08c-.14-.49.08-.53.36-.52.28.34.54.66.32,1.07l.57,1.14c.24.15.54.36.87.54a1.31,1.31,0,0,0,.44.06c-.11.25-.3.5-.06.79l.43-.1c.6.83.62.84,1,.91.15.76.92.82,1.36,1.3v.32c.46.36.83.68,1.24,1a.52.52,0,0,0,.48,0,3.22,3.22,0,0,0,.5-.58l-.21-.59-.06.06-1.32-1-.43.29-.47-.38v-.81l-1.69-1,.09-.69-.33.26H56.8a2.42,2.42,0,0,1,.1-.84c.1-.28,0-.42-.27-.66a8.56,8.56,0,0,1-.09,1.51C56.59,167.23,56.47,167.36,56.4,167.44ZM18.78,36.3l.61-.64c.6-.63,1.18-1.29,1.8-1.9a8.29,8.29,0,0,1,.94-.7c.61-.45.66-.67.16-1.27A8.39,8.39,0,0,0,20,29.58a6.74,6.74,0,0,1-.56-.39l1-1.24-.38-1.17.11-.1c.2.1.4.2.59.31l.59.37v-.13l.83-.29a1.18,1.18,0,0,1,.89-1l.2-.52h1l.29-.86L26.19,24l1.22,1,.1-.11-1-1.29.56-.08a2,2,0,0,0-1-1.6c-1.09-.84-2.2-1.66-3.34-2.45A17.23,17.23,0,0,0,21,18.58l-.48.53.6.26-1.15,1,.85.17-.51.1.33.26-1,.25.17.57,1.1.49c-.38.79-.38.79-1.11.68a4.2,4.2,0,0,1-.59-.14,1.55,1.55,0,0,0-1.21.13,7.35,7.35,0,0,0,.88.17c.3.06.59.15.89.23v.11l-.32.07.17.36h-.42l-.11.36h-.56l-.09.13.53.26-.1.13-.62-.07,0,.29h-.8V25l.59.22-.16.3.88.44a.39.39,0,0,1,.18.65l-.59.94c-.33.54-.63,1.11-1,1.63s-.84.54-1.14-.09l-.09-.18h.1l.07-1-1.46-.22A40.17,40.17,0,0,0,18.78,36.3ZM13.61,21.57c.47-.15.68-.68,1.19-.45a4.59,4.59,0,0,1,2-2,.51.51,0,0,0,.25-.24c.13-.43.5-.57.85-.72l.93-.41v-.14a10.07,10.07,0,0,0-5.13-.45,15.8,15.8,0,0,0-.09,4.41ZM38.2,128.79h-.12a1,1,0,0,0,0,.29c.29,1.25.49,2.52.89,3.73a56.42,56.42,0,0,0,3.79,8.69c.64,1.18,1.35,2.33,2.06,3.47s1.53,2.33,2.3,3.5c.38.57.78,1.13,1.15,1.71a5.65,5.65,0,0,0,.82,1.28,5,5,0,0,1,.82.92c.3.41.58.84,1,1.39a2.59,2.59,0,0,1,.85,1.37,1.12,1.12,0,0,1,.72.76.56.56,0,0,0,.15.2l.65.74.32-.26-1-1.28c-.4-.53-.82-1-1.21-1.59-.62-.84-1.22-1.69-1.84-2.53s-1.08-1.37-1.57-2.09c-.73-1-1.42-2.13-2.13-3.19a45.85,45.85,0,0,1-3.47-6q-1.24-2.66-2.3-5.39c-.61-1.58-1.11-3.22-1.64-4.83A3.91,3.91,0,0,1,38.2,128.79Zm22.16-12.7a2.57,2.57,0,0,1,.66-.24,9.27,9.27,0,0,1,1.46,0,.67.67,0,0,1,.42.34.53.53,0,0,0,.66.36h0a1.59,1.59,0,0,1,.7,0c1.13.26,2.26.52,3.38.82a9,9,0,0,1,1.2.52c.33-.31.19-.47-1-.91l.37-.22a11.64,11.64,0,0,0-1.25-.49c-.83-.22-1.66-.42-2.5-.56a14.44,14.44,0,0,0-3.76-.3,5.6,5.6,0,0,0-.78.18v.14Zm2.09,30A27.87,27.87,0,0,1,49,133.46c0,1,1.75,3.89,3.65,5.83,2.81,2.88,5.83,5.54,9.8,6.74Zm-13.3-29.51.38-.61c-1.7-1.08-4.43-1.31-5.79-.26a5,5,0,0,0,1,0,5.25,5.25,0,0,1,3.92.7,2.93,2.93,0,0,0,.47.16ZM46.41,119l1.29.53.1-.09c-.06-.12-.1-.32-.19-.35a3.81,3.81,0,0,0-1.76-.31V119c-1.73-.33-2.85-.34-3.56.67l1-.18a5.59,5.59,0,0,1,3.58.43,3.69,3.69,0,0,0,.73.19l.06-.14c-.2-.61-.94-.5-1.27-1Zm16.88-1.54a2,2,0,0,0,.49.27c.52.11,1,.15,1.57.28,1.09.28,2.16.6,3.24.93a4,4,0,0,1,.85.41c.29.18.56.39.88.62l.14-.12-1.08-1.25c-.48-.08-.86-.11-1.22-.2-.83-.22-1.63-.51-2.46-.7a4.45,4.45,0,0,0-2.43-.24ZM47,126.15l.11-.19a4.6,4.6,0,0,0-.53-.45,8.73,8.73,0,0,0-3-1.3A17.37,17.37,0,0,0,41.1,124c-.17,0-.48,0-.39.41a10.67,10.67,0,0,1,6.3,1.7Zm9.06-10.7a1.22,1.22,0,0,0-1.32,1.11v0c0,.87.28,1.3.9,1.33ZM87.33,69.23l-.12.1c.92,1,1.89,2,2.75,3.08s1.59,2.24,2.38,3.37A19.9,19.9,0,0,0,87.33,69.23ZM48.7,116.9c0-.34-.29-.38-.5-.44a5.34,5.34,0,0,0-4.51.15,1.08,1.08,0,0,0,.56,0,6.4,6.4,0,0,1,2.84-.12C47.62,116.63,48.14,116.77,48.7,116.9Zm5.08,39.86a.61.61,0,0,0,0,.86h0c.23.27.52.5.78.76.58.56,1.18,1.11,1.71,1.71.2.23.33.27.69.09l-.53-.47a8.07,8.07,0,0,1-1.26-1.19,3.81,3.81,0,0,0-.84-1,3.44,3.44,0,0,1-.55-.77ZM61,114.83a2.23,2.23,0,0,0,.43.13h.8l2.65.38a4.28,4.28,0,0,0,.51,0,6.11,6.11,0,0,0-4.39-.51ZM22.12,14.3c-1.4-1-3-.84-4.58-.86A19,19,0,0,1,22.12,14.3ZM62.7,170.09l-.55.21a1.18,1.18,0,0,0,1,.5c.09,0,.22-.18.39-.33l-.29-.08-.23-.08c.47-.28.49-.36.21-.86H62.6ZM30,48.09l.13-.1-.16-1-1.25.22v.18ZM64.62,168.67l-.13.1.23,1.34h.19l.19-.54.36,0c-.13-.51-.63-.52-.83-.86Zm2.27-4-.69-.44-.62-.43c-.43-.3-.42-.3-.6-.19,1.57,1.25,1.37,1.34,1.92,1Zm-6.12,5.49c.44-.11.68,0,.84.3.07.14.29.21.44.31l.06-.08-.44-.84h-.6v-.23h-.13Z"/><path d="M90.81,130.38l-.44-.27c-.26.21.1.67-.43.65l-.17-.58a8.57,8.57,0,0,1,2.3-1,21.13,21.13,0,0,1,4.85-.59,1.93,1.93,0,0,0,1.46-.42,9.68,9.68,0,0,0,.79-.84,12.25,12.25,0,0,1,5.56-4,7.21,7.21,0,0,1,2.89-.37,5.08,5.08,0,0,1,1,.28,1,1,0,0,0-.86-.59,9.43,9.43,0,0,0-1.36,0,11.25,11.25,0,0,0-1.42.18v-.12l1.46-.31a2.72,2.72,0,0,0,.8-.08,1.68,1.68,0,0,1,2.07,1.1,20.63,20.63,0,0,1,1,2.55c.55,1.94,1,3.9,1.54,5.86.23.91.38,1.85.63,2.75a11.41,11.41,0,0,0,.65,1.58,17.1,17.1,0,0,1,1.59,4.67,26.51,26.51,0,0,1,.17,6,8.17,8.17,0,0,1-.19.88L114,147a2.24,2.24,0,0,0,0,.64A4.55,4.55,0,0,1,114,150a10.77,10.77,0,0,0-.24,2.59,3.84,3.84,0,0,1-.35,2v.33a8.34,8.34,0,0,1,0,1.06l-.55-.75c-.33.3,0,.4,0,.55l-.07,1.42c.22.06.48.07.52.16a.78.78,0,0,1-.13.6l.19,1h-.14c-.09.15-.27.3-.27.45,0,.53.1,1.06.13,1.6a4.71,4.71,0,0,1-.06.73c-.07.65-.12,1.31-.2,2-.19,1.64-.35,3.28-.6,4.91a18.66,18.66,0,0,1-.61,2.55c-.34,1.15-.74,2.29-1.12,3.43l-.2-.06c.06-.21.11-.43.18-.63s.2-.46.27-.69c.17-.5.33-1,.48-1.51a4.29,4.29,0,0,0,.38-1.38c0-.77.45-1.37.47-2.09a7.15,7.15,0,0,0,.07-1.15c0-.3.4-.61-.08-.85.77-.48-.1-1,.18-1.51l.18.09h.1l-.4-1.06c-.6-.14-1,.2-1.18,1l.31.07v-.41h.15c.17.2,0,.35-.12.46s-.37.17-.53.29-.38.24-.42.4a1.15,1.15,0,0,1-.67.75,2.09,2.09,0,0,0-.63.48,1.88,1.88,0,0,1-1.15.66,6.78,6.78,0,0,0-1.8.75,1.37,1.37,0,0,1-1.07.12c-.52-.14-1.06-.21-1.55-.31l-.39.47c.09-.52,0-.62-.5-.71-.79-.14-1.6-.23-2.38-.45a8,8,0,0,1-1.66-.73A22.54,22.54,0,0,1,95.74,165a15.18,15.18,0,0,1-3.89-3.31,20,20,0,0,1-1.89-3,2.51,2.51,0,0,0-.45-.58c-.44-.49-.25-1.15-.51-1.7h-.27c.35-.42.18-.83.08-1.25a1,1,0,0,1,0-.51,1.43,1.43,0,0,0-.1-1.12,3.64,3.64,0,0,0-.32-.64l-1.24-1.63-.12.06a1.42,1.42,0,0,0,0,.31c.09.26.2.52.3.78a1.18,1.18,0,0,0,0,.15,1.57,1.57,0,0,1,.28,1h.59l-.71.49.7.46-.18,1-.62-.18c-.46-.37-1-.6-1.27-.48l-.17-.41h-.08l-.08.49a28.52,28.52,0,0,1-1.91-4.46h-.17a2.58,2.58,0,0,0,0,.74c.42,1.11.89,2.2,1.32,3.31a2.08,2.08,0,0,1,0,.7h-.13l-.2-.74h-.38v-.74h-.09l-.16.57c-.2-.51-.39-.94-.53-1.39q-.49-1.61-.93-3.23a3.2,3.2,0,0,1,0-.75c0-.64-.06-1.29,0-1.93a5.85,5.85,0,0,1,.21-1.43c.33-1.11.71-2.21,1.1-3.3a5.41,5.41,0,0,1,.56-.94,1.87,1.87,0,0,0,.39-1.21c.21-.07.52,0,.22-.42-.1-.12,0-.37-.08-.64l.42.21c.26-.31.49-.62.75-.9a.26.26,0,0,1,.46.08,6.11,6.11,0,0,1,.24.7c.17,0,.33.34.6,0-.1-.31-.46-.65.07-.85l-.26-.47c-.08-.15,0-.17-.07-.23-.4-.55-.39-.82.15-1.47l1,1-.45.87c.31.26.39,0,.49-.22l.31-.66c.37-.06,1,.49,1.24-.28l.33.07.06-.1L90,136.4a1.56,1.56,0,0,1,1.26-.2l.08-.24.34.24c.27-.19.52-.4.8-.56s.36,0,.36.24a5.3,5.3,0,0,1-.08.59h.1a3.06,3.06,0,0,0,.14-.38,4.69,4.69,0,0,0,.07-.47h.14l.14.67h.1c0-.88.72-1.24,1.35-1.67l-.1-.18a5.57,5.57,0,0,0-.92,0,11.9,11.9,0,0,0-3.93,1.12,1.64,1.64,0,0,1-.52.07l-.12.6-.5.17-.47-.25a2.56,2.56,0,0,1,0-.91c.09-.26.38-.45.61-.7l.21.36h.08l.27-1,.12.42.47.07-.17-.86c.49.62,1-.08,1.43.13l.38-.42-.3-.16V133a7.42,7.42,0,0,1,1-.25c.89-.1,1.77-.17,2.66-.24a.67.67,0,0,0,.68-.56,2.05,2.05,0,0,1,.13-.53.82.82,0,0,0-1,.1l.44.1v0l-.9.15.19-.3-.82-.1a3.79,3.79,0,0,0-.69-.08c-.31,0-.62.1-1,.13a1.93,1.93,0,0,1,.46-.26c.52-.13,1-.23,1.58-.32.81-.13,1.63-.23,2.45-.35a.51.51,0,0,0,.3-.2,11.16,11.16,0,0,0-3.7.22A9.5,9.5,0,0,0,89.75,132l-.14-.17a1.78,1.78,0,0,1,.28-.36,7.51,7.51,0,0,1,.83-.57c.23-.13.2-.28.1-.46l.51.35c.18-.17.3-.4.48-.45a24.93,24.93,0,0,1,2.54-.65c.75-.14,1.52-.15,2.28-.23a5.33,5.33,0,0,0,.57-.2v-.13H95.57a18,18,0,0,0-2.2.22,6.63,6.63,0,0,0-1.15.26c-.4.13-.66.55-1.13.54C90.95,130.17,90.88,130.31,90.81,130.38Zm16.08-.79.23-.33-.45-.17.06.38c-.58-.19-1.11-.49-1.66,0a1.64,1.64,0,0,0,.58.11h1.26c.06.09.13.26.19.26.71,0,1,.58,1.44,1l-.66.12c.3.16.51.47.82.16s.09-.52-.1-.75a1.89,1.89,0,0,1-.21-.39,1,1,0,0,0-1.2-.45,1.11,1.11,0,0,1-.29.07Zm4.31,27.75h0l.27-.33-.33-.58c.21-.63.21-.63-.08-.85l-.12.42c-.14-.47-.19-.5-.58-.29-.15.08-.31.14-.42.19a3,3,0,0,0-.21-.67,1.68,1.68,0,0,1-.11-1.66l.29.83H110a2.28,2.28,0,0,1,.16-.56c.09-.16.28-.27.4-.42a.44.44,0,0,0,.07-.33c-.14-.57-.31-1.14-.49-1.82l.38-.48c.15.41.38.72.35,1a1.59,1.59,0,0,0,.46,1,5.06,5.06,0,0,0-.69-2.59h-.12l-.48.9-.47-.29c-.09.62.08,1.22-.22,1.76l-.21-.68H109c0,1.15.4,2.32,0,3.47,0,.08.11.22.16.31l-.27.31.46.71c-.48.17-.44.58-.52,1-.2.92-.44,1.83-.67,2.74l-.33,1.39c-.17.27-.38.57-.54.88a5.84,5.84,0,0,1-.45,1c-.6.74-1.25,1.43-1.88,2.15a5.13,5.13,0,0,0-.32.44.63.63,0,0,0-.69.41c1.39.54,2-.66,2.94-1.21h0l.8-.75a6.29,6.29,0,0,0,.55-.56c.13-.16.2-.37.33-.53s.44-.46.66-.7a3,3,0,0,1,.13-.58,5.69,5.69,0,0,0,.08-.6h.36c.52-1.07,1-2.13,1.55-3.2A1.09,1.09,0,0,0,111.2,157.34Zm-4.71-8.17c-.25-.26-.47-.48-.67-.71a7.48,7.48,0,0,0-2.73-2,7.36,7.36,0,0,0-3.28-.86,8.27,8.27,0,0,0-3.15.46c-.46.21-.54.33-.22.76a9.71,9.71,0,0,0,2.13,2.2,6.82,6.82,0,0,0,7.9.15ZM91,146.86c.09-.49.15-.94.26-1.37s.27-.86.44-1.37l.43.83h.13a1.72,1.72,0,0,0-.07-.29,2.62,2.62,0,0,1-.33-.76c0-.7.06-1.41.12-2.11a.59.59,0,0,1,.15-.37c.26-.22.12-.44,0-.69l-.52-.1.51-.19-.34-.19v-.1l.42-.08a.71.71,0,0,0-1-.24l-.13.11-.17-.35c1.48-.14,1.53-.15,1.88-.55a.46.46,0,0,0-.65,0h0a1.47,1.47,0,0,1-.48.2c-.36.07-.72.11-1.09.15a1.26,1.26,0,0,1-.31,0v-.11l1-.27c-.49-.52-1.21.33-1.58-.47-.09.28-.09.54-.22.66a.65.65,0,0,0-.13.9v.28H89.2l-.49-.83-1.24.63a1.61,1.61,0,0,0,0,.41c.22.7.41,1.42.69,2.1.4,1,.86,2,1.31,3a3.42,3.42,0,0,0,.51.8,5.81,5.81,0,0,0,.82.75.81.81,0,0,0,.34-.06c.12-.06,0-.06,0-.1Zm12.51-20.71a18.43,18.43,0,0,0-3.06,2.23h1.84L102,128a7.11,7.11,0,0,0,.75-.31c.35-.19.66-.44,1-.63s.83-.36,1.24-.54l-.52-.1v-.14a3.11,3.11,0,0,1,.57-.14c.72,0,1.44-.06,2.16-.1a4,4,0,0,0,.51-.1c-.84-.64-1.71-.37-2.54-.43.55-.2,1.22,0,1.72-.63l-.71-.18a1,1,0,0,1-1.25.2.53.53,0,0,0-.48.11,1.94,1.94,0,0,1-1.18.62ZM89,152.83a7.74,7.74,0,0,0-.36-1c-.21-.38-.5-.72-.7-1.1a15.1,15.1,0,0,1-1.58-3.35,2.58,2.58,0,0,0-.42-.67C85.63,147.71,87.82,152.13,89,152.83Zm11.07-26.27c-.41.72-1.19,1.1-1.43,1.89l1.35-.36-.55-.14,1.43-1.23a.78.78,0,0,0,.35-1c-.41.24-.45,1-1.15.8Zm-7.49,15-.56.15.5.31c0,.41-.24.76.15,1,.46-.22.31-.7.42-1a5.32,5.32,0,0,0,.12-1.14c-.39-.06-.51.07-.62.66Zm11.07,23.09.23.25-.63.45.76-.14-.18-.15.86-.41-1.11-.25h-.4a.34.34,0,0,0-.37.41l.31.16ZM85.92,153.82c-.09-1.13-.2-1.33-.8-1.36-.11.58.29,1,.54,1.44Zm16.4,13.32a2.58,2.58,0,0,0,1.84.35,2.07,2.07,0,0,0-1.84-.36Zm9.58-3.91.26-.67-.38-.6-.08.06v.42l-.39.53Z"/><path d="M82.84,174.64l-.56-.18.09-.08-.63-1.19,0,.49-.37-.46h0l.14-.59.34.06.24-.44.46.06.2.76.45-.29.15.61c.89-.1,1.63-.68,2.44-.51l.55.58.15-.5,2.1,1v-.06l.44.54-.44.42c.37.07.77-.07,1,.43l-1.34-.06h-.69a9.58,9.58,0,0,1-1.31-.06c-.44-.06-.69-.1-1-.13-.56,0-1.12-.07-1.68-.14a2.68,2.68,0,0,1-.64-.26l.41-.72.33.5.58-.19-.59-.21.16-.42a2.91,2.91,0,0,0-.84.25A.68.68,0,0,0,82.84,174.64Z"/><path d="M74.15,180.57l.26-.3-.27-.29a2.38,2.38,0,0,1,.59,0c.39.09.24.4.2.66l.11.08.36-.34a1.43,1.43,0,0,1,1.23.62c0,.06.26,0,.39,0,.3-.07.42,0,.4.4a3.16,3.16,0,0,0,1,0c.5-.13,1.14-.16,1.42.48l3.17.39a.73.73,0,0,1,.67.44c0,.12.22.19.34.28l.1-.07-.1-.6,1.09.53.31-.18c.24.14.37.81.81.09l1,.19-.47.28.19.21c-.85-.09-1.71-.15-2.56-.27a33.6,33.6,0,0,1-3.51-.57A31.27,31.27,0,0,1,75.39,181,10.89,10.89,0,0,0,74.15,180.57Z"/><path d="M80.68,179.82c-.15-.36.13-.37.33-.34a2.36,2.36,0,0,1,.59.28l.29-.21.29.71.8-.43.25.47.55-.58.47.12.09.43h-.07l-.18-.17c-.18.42,0,.69.57.7l.33-1,.49.34.07-.26,2.36.2v.12l-.45.11.14.79-.64.23c-.26-.2-.26-.2-.34-1-.56,0-.23.76-.79.89-.38-.16-.87-.62-1.48-.19l.14.38-.07.09c-.16-.1-.38-.16-.45-.3a1.16,1.16,0,0,0-1-.65,1.06,1.06,0,0,1-.31-.16l-.49.21.14.53L81,180.5l-.1.09-.26-.85Z"/><path d="M81.31,173.23l-.24.52.86.45v.14c-.13,0-.28.1-.39.06a14.14,14.14,0,0,1-2.71-.83,6.63,6.63,0,0,1-.67-.12c-.55-.16-1.08-.33-1.65-.51l.14-.64c.26.17.12.61.52.46l.38-.61-.21-.46H77.2v.45h-.11l-.34-.53c.52-.29.52-.29,1.25,0l-.26,1,.06.06a3.61,3.61,0,0,0,.27-.28c.32-.41.44-.42.76,0l.15.21.4-.45.12.39h1.12c.43,0,.61.28.72.65Z"/><path d="M87,176.41l.34.64.85-.67c.07.58.23.94.85.89-.41.52-.63,0-1,0l.45.7H88l-.15-1-1.16,1.26.2.51.11.07.13-.32c.41,0,.48.16.37.64l-2.77-.74.61-.48,1.09.55v-.36c.33-.2.48-.44.07-.79l-.61.44-.23-.59-.62.29-.45-.78-.4.07.13-.48.52.16.09.64,1-.79Z"/><path d="M65.91,173.94l1.35-.29.08.54h.39a1,1,0,0,0,.16.26c.13.11.28.26.42.27a.88.88,0,0,1,1,.94l.42-.09,1.12.6-.53.57c0-.49-.27-.59-.6-.69s-.88-.28-.87-.88c0-.09-.14-.19-.25-.33l-.22.38a1,1,0,0,1-1.23-.69l0-.08-1,.21L66,174Z"/><path d="M74.33,179l-.2-.61.22-.52.54-.06.11.36a6.33,6.33,0,0,1,.79-.11,5.42,5.42,0,0,1,.75.09v.51l.62-.19c.33.49.33.88-.07,1.08l-.14-.32c-.43.25-.57-.19-.78-.38s0-.33,0-.5h-.6l.21.42-.33.22-.48-.25-.23.43Z"/><path d="M100.58,170.23l.2.32c-.51,0-1,.57-1.51,0l.33-.62.2.18c.29-.08.48-.46.89-.15.19.15.85-.32,1-.6,0-.09.16-.14.28-.23l.28.5c.43-.14.14-.37.08-.57l.92-.49c.25.29.15.45-.18.53l.06.49a7.13,7.13,0,0,1-1.07.52,4.1,4.1,0,0,1-.92,0A1.29,1.29,0,0,1,100.58,170.23Z"/><path d="M91.42,173.23a4,4,0,0,1-.24.94c-.1.18-.36.26-.63.44l.17.53H90.3a4.4,4.4,0,0,0-.53-.49c-.53-.35-.53-.34-.59-.94L89,174l-.63-.83h1.24l-.31.4.74.26.41-.3.22.6C91.11,174,90.73,173.15,91.42,173.23Z"/><path d="M81,178.18l-1.18-.73v-.12h.47l.2-.34.57.61v-2l.69.17v.13l-.4.23.44.59.54-.71c.33.23.34.25.06.72l-1,.25.24.39h-.31Z"/><path d="M71.68,176.86l-.34-.2v.51c-.51-.44-.42-.68.45-1.16.06.52.27.92,1,.72l-.08.16-.41.26.41.55c-.09,0-.2.14-.26.12a2.51,2.51,0,0,1-.75-.35c-.1-.08-.07-.34-.1-.51Z"/><path d="M76.2,176l.17.22.12.12.81-.13v.6l-.41.08-2-.59v-.08Z"/><path d="M67.2,173.17l.43.14-.17.19-.35-.13-.86-.49c-.4-.23-.42-.58,0-.85l.14.66h.81c0-.32-.4-.66,0-.9s.53,0,.74.26c-.59,0-.58,0-.64.64A2.4,2.4,0,0,1,67.2,173.17Z"/><path d="M65.92,173.93a5,5,0,0,1-.84-.5c-.54-.48-.47-.71.21-.91l.9,1-.29.39Z"/><path d="M80.68,179.82h0l-.28.65-.86.29v-1.24l.89.08Z"/><path d="M69.35,173.23c-.41.08-.7-.07-1.29-.7l.77-.91h.11l-.25.85a.62.62,0,0,1,.66.76Z"/><path d="M77.87,179.3l.51-.22c.25-.08.4.87.89.09v1.06C78.68,180,78,180,77.87,179.3Z"/><path d="M88.07,183.53l.09-.3-.45-.17c.37-.1.71-.24,1,.2.1.15.45.15.69.18.5.07,1,.11,1.5.16v.1Z"/><path d="M82.9,176.38c.31-.09.53-.16.76-.21s.26,0,.27,0,.09.32,0,.41a2.07,2.07,0,0,1-.51.49s-.24,0-.28-.12A4.57,4.57,0,0,1,82.9,176.38Z"/><path d="M74.34,173.16l.36.58H75v.59c-.61.09-.57-.66-1.08-.77Z"/><path d="M60.46,173.41l.66.15c-.08.51.51.6.68,1a1.46,1.46,0,0,1-1.32-1.14Z"/><path d="M83.49,178.33l-.32-.37a1.77,1.77,0,0,1,1.44.25v.13Z"/><path d="M86.27,136.69l.45,1.14c-.19.15-.19.15-.42,0a4,4,0,0,1-.21-.67,2.22,2.22,0,0,1,.07-.54Z"/><path d="M95.92,165.68l.82.62-.07.09c-.42-.25-1-.09-1.36-.71Z"/><path d="M92.46,174.43l-.33.35-.61-.44.14-.58Z"/><path class="cls-1" d="M18.78,36.3A40.17,40.17,0,0,1,15,27.78l1.46.22-.07,1h-.1l.09.18c.3.63.72.68,1.14.09s.66-1.09,1-1.63c.19-.32.39-.63.59-.94a.39.39,0,0,0-.18-.65L18,25.61l.16-.3-.59-.22V25h.8l0-.29.62.07.1-.13-.53-.26.09-.13h.56l.11-.36h.42l-.17-.36.32-.07v-.11c-.3-.08-.59-.17-.89-.23a7.35,7.35,0,0,1-.88-.17,1.55,1.55,0,0,1,1.21-.13A4.2,4.2,0,0,1,20,23c.73.11.73.11,1.11-.68L20,21.78l-.17-.57,1-.25-.33-.26.51-.1-.85-.17,1.15-1-.6-.26.48-.53a17.23,17.23,0,0,1,1.69.92c1.13.78,2.24,1.61,3.34,2.45a2,2,0,0,1,1,1.6l-.56.08,1,1.29-.1.11-1.22-1-1.61.53-.29.86h-1l-.2.52a1.18,1.18,0,0,0-.89,1l-.83.29v.11L20.92,27c-.2-.12-.39-.21-.59-.31l-.11.1L20.6,28l-1,1.24a6.74,6.74,0,0,0,.56.39,8.39,8.39,0,0,1,2.27,2.21c.5.6.46.82-.16,1.27a8.29,8.29,0,0,0-.94.7c-.62.61-1.2,1.26-1.8,1.9Z"/><path class="cls-1" d="M13.61,21.57a15.8,15.8,0,0,1,.08-4.43,10.07,10.07,0,0,1,5.13.45v.14l-.93.41c-.36.15-.72.29-.85.72a.51.51,0,0,1-.25.24,4.59,4.59,0,0,0-2,2C14.29,20.89,14.08,21.42,13.61,21.57Z"/><path class="cls-1" d="M38.2,128.79c.08.31.13.62.23.92.54,1.61,1,3.24,1.64,4.83q1.06,2.73,2.3,5.39a45.85,45.85,0,0,0,3.47,6c.71,1.07,1.4,2.14,2.13,3.19.5.72,1,1.39,1.57,2.09s1.22,1.69,1.84,2.53c.4.54.81,1.06,1.21,1.59l1,1.28-.32.26-.65-.74a.56.56,0,0,1-.15-.2,1.12,1.12,0,0,0-.72-.76,2.59,2.59,0,0,0-.85-1.37c-.38-.55-.67-1-1-1.39a5,5,0,0,0-.82-.92,5.65,5.65,0,0,1-.82-1.28c-.37-.58-.77-1.13-1.15-1.71-.77-1.16-1.56-2.31-2.3-3.5s-1.42-2.29-2.06-3.47A56.42,56.42,0,0,1,39,132.84a35.55,35.55,0,0,1-.89-3.73,1,1,0,0,1,0-.29Z"/><path class="cls-1" d="M56.4,167.44c.07-.09.19-.17.2-.26,0-.51.07-1,.09-1.51.3.24.33.37.27.66a8.33,8.33,0,0,0-.1.84H57l.33-.26-.09.69,1.69,1v.81l.47.38.43-.29,1.32,1,.06-.06.21.59a3.22,3.22,0,0,1-.5.58.52.52,0,0,1-.48,0,11.83,11.83,0,0,1-1.24-1v-.32c-.43-.48-1.21-.54-1.36-1.3-.38-.06-.4-.08-1-.91l-.43.1c-.24-.3,0-.54.06-.79Z"/><path class="cls-1" d="M60.34,116.08l-.36-.32v-.14a5.6,5.6,0,0,1,.78-.18,14.44,14.44,0,0,1,3.76.3c.84.14,1.67.35,2.5.56a11.64,11.64,0,0,1,1.25.49l-.37.22c1.14.44,1.28.6,1,.91a9,9,0,0,0-1.2-.52c-1.12-.3-2.25-.56-3.38-.82a1.59,1.59,0,0,0-.7,0,.53.53,0,0,1-.67-.33v0a.67.67,0,0,0-.42-.34,9.27,9.27,0,0,0-1.46,0A2.57,2.57,0,0,0,60.34,116.08Z"/><path class="cls-1" d="M56.41,167.43a1.31,1.31,0,0,1-.44-.06c-.32-.17-.63-.39-.87-.54l-.57-1.14c.21-.4,0-.73-.32-1.07-.27,0-.5,0-.36.52l-.16-.08-.87-1.15a1.9,1.9,0,0,1-1.08-1.15,1.44,1.44,0,0,0-.58-.85,3.59,3.59,0,0,1-.57-.6l.48-.25,1.31,1,.34-.47c0,.14.15.27.11.33-.26.52.12,1,.11,1.49s.31.23.53,0l.15.49.3-.11,1,1.46-.09.3c.58-.29.71.3,1.18.51l-.7.6c.29.11.54.22.8.29s.47.14.31.47Z"/><path class="cls-1" d="M70.87,123.23l-.78-.79-.21-.13v.44c-.46,0-.32-.4-.4-.68l-.51.21c-.13-.16-.28-.35-.44-.52a2.2,2.2,0,0,0-.42-.37,4.54,4.54,0,0,1-.62-.32.79.79,0,0,0-.81-.23l-1.32-.66c.1-.08.17-.18.23-.17a2,2,0,0,1,1,.08c.3.17.68.29,1,.44l1,.43.2-.25.43.16h0l.51.51c.2.44.3.51.82.51h0a1.94,1.94,0,0,1,1.17,1.84l-.14.12-.52-.8-.3.18Z"/><path class="cls-1" d="M62.43,146c-4-1.2-7-3.86-9.82-6.75-1.9-1.94-3.66-4.87-3.65-5.83A27.87,27.87,0,0,0,62.43,146Z"/><path class="cls-1" d="M49.13,116.52a2.93,2.93,0,0,1-.46-.17,5.25,5.25,0,0,0-3.92-.7,5,5,0,0,1-1,0c1.35-1,4.08-.83,5.79.26Z"/><path class="cls-1" d="M46.39,119c.33.49,1.07.38,1.29,1l-.06.14a3.69,3.69,0,0,1-.73-.19,5.59,5.59,0,0,0-3.58-.43l-1,.18c.71-1,1.83-1,3.56-.67v-.23a3.81,3.81,0,0,1,1.76.31c.09,0,.12.23.19.35l-.1.09Z"/><path class="cls-1" d="M63.27,117.47a4.45,4.45,0,0,1,2.41.24c.83.19,1.64.48,2.46.7a10.35,10.35,0,0,0,1.22.2l1.08,1.25-.14.12c-.32-.23-.59-.44-.88-.62a4,4,0,0,0-.85-.41q-1.61-.49-3.24-.93c-.51-.13-1-.17-1.57-.28A2,2,0,0,1,63.27,117.47Z"/><path class="cls-1" d="M47,126.14a10.67,10.67,0,0,0-6.31-1.71c-.09-.43.22-.41.39-.41a17.37,17.37,0,0,1,2.51.18,8.73,8.73,0,0,1,3,1.3,4.6,4.6,0,0,1,.53.45Z"/><path class="cls-1" d="M56.07,115.44l-.42,2.47c-.62,0-.9-.46-.9-1.33A1.22,1.22,0,0,1,56,115.44Z"/><path class="cls-1" d="M43,118a6,6,0,0,1,4.84-.1c.27.09.26.1.21.43-.47-.11-.93-.25-1.41-.32a5.79,5.79,0,0,0-1.25-.06c-.6,0-1.19.17-1.79.21a1.76,1.76,0,0,1-.58-.17Z"/><path class="cls-1" d="M87.33,69.23a19.9,19.9,0,0,1,5,6.54c-.79-1.13-1.53-2.29-2.38-3.37s-1.83-2.06-2.75-3.08Z"/><path class="cls-1" d="M48.7,116.9c-.55-.13-1.08-.27-1.61-.38a6.4,6.4,0,0,0-2.84.12,1.08,1.08,0,0,1-.56,0,5.34,5.34,0,0,1,4.51-.15C48.4,116.52,48.71,116.56,48.7,116.9Z"/><path class="cls-1" d="M53.78,156.76a3.44,3.44,0,0,0,.58.74,3.81,3.81,0,0,1,.84,1,8.07,8.07,0,0,0,1.26,1.19l.53.47c-.35.18-.48.14-.69-.09-.53-.6-1.13-1.14-1.71-1.71-.26-.25-.54-.48-.78-.76A.61.61,0,0,1,53.78,156.76Z"/><path class="cls-1" d="M61,114.83a6.11,6.11,0,0,1,4.39.55,4.28,4.28,0,0,1-.51,0L62.22,115h-.8A2.23,2.23,0,0,1,61,114.83Z"/><path class="cls-1" d="M22.12,14.3a19,19,0,0,0-4.58-.86C19.11,13.47,20.72,13.32,22.12,14.3Z"/><path class="cls-1" d="M62.7,170.09l-.1-.64h.6c.28.5.26.58-.21.86l.23.08.29.08c-.17.15-.29.34-.39.33a1.18,1.18,0,0,1-1-.5Z"/><path class="cls-1" d="M30,48.07l-1.32-.69V47.2L29.9,47l.16,1Z"/><path class="cls-1" d="M43.06,118c-.2.19-.15.67-.65.53v-.25l-.84.38a1.87,1.87,0,0,1,1.55-1.07V118Z"/><path class="cls-1" d="M70.87,123.23h0l.29.11-.43.25.5.67-.42.44-.11-.08v-.39l-.62-.13-.07-.55h.09l.18.16a4.34,4.34,0,0,1,.35-.42A1,1,0,0,1,70.87,123.23Z"/><path class="cls-1" d="M64.63,168.66c.2.34.71.36.83.86l-.36,0-.19.54h-.19l-.23-1.34Z"/><path class="cls-1" d="M66.9,164.64c-.55.32-.35.23-1.9-1,.18-.11.18-.11.6.19l.62.43Z"/><path class="cls-1" d="M60.78,170.13l.23-.62h.13v.23h.6l.44.84-.06.08c-.15-.1-.37-.17-.44-.31A.79.79,0,0,0,60.78,170.13Z"/><path class="cls-1" d="M106.47,149.17a6.82,6.82,0,0,1-7.92-.17,9.71,9.71,0,0,1-2.13-2.2c-.31-.43-.24-.55.22-.76a8.27,8.27,0,0,1,3.15-.46,7.36,7.36,0,0,1,3.28.86,7.48,7.48,0,0,1,2.73,2A7.29,7.29,0,0,0,106.47,149.17Z"/><path class="cls-1" d="M111.2,157.34a1.09,1.09,0,0,1,.18,1.19c-.5,1.07-1,2.12-1.55,3.2h-.36a5.69,5.69,0,0,1-.08.6,3,3,0,0,0-.13.58c-.22.23-.45.45-.66.7s-.2.37-.33.53a6.29,6.29,0,0,1-.55.56l-.8.75h0c-.91.56-1.55,1.75-2.94,1.21a.63.63,0,0,1,.69-.41c.13-.18.21-.31.32-.44.63-.72,1.28-1.41,1.88-2.15a5.84,5.84,0,0,0,.45-1c.16-.31.37-.61.54-.88.11-.47.21-.93.33-1.39.22-.91.47-1.82.67-2.74.08-.38,0-.78.52-1l-.46-.71.27-.31c0-.09-.19-.23-.16-.31.4-1.15,0-2.32,0-3.47h.17l.21.68c.3-.54.12-1.14.22-1.76l.47.29.48-.9h.12a5.06,5.06,0,0,1,.69,2.59c-.21-.31-.5-.54-.46-1a3.53,3.53,0,0,0-.35-1l-.38.48c.18.67.35,1.24.49,1.82a.44.44,0,0,1-.07.33c-.11.15-.31.26-.4.42a2.28,2.28,0,0,0-.16.56h-.13l-.29-.83a1.68,1.68,0,0,0,.11,1.66,3,3,0,0,1,.21.67,1.34,1.34,0,0,0,.42-.19c.39-.21.44-.18.58.29l.12-.42c.29.22.29.22.08.85l.33.58-.27.33L111,157l-1.23.39a1.88,1.88,0,0,1-.2.54c-.15.19-.26.34,0,.6l.54-.74.31.63v.1c-.67-.36-.52.41-.86.55l-.19-.28-.47.62h1.21l.19-.52a1.16,1.16,0,0,0,.31-.22c.07-.1,0-.24,0-.4l.29.25Zm-1.4-.47.66.21c-.07-.33.38-.65,0-1-.52,0-.37.56-.68.79Z"/><path class="cls-1" d="M91,146.86h.23v.1s-.28.11-.34.06a5.81,5.81,0,0,1-.82-.75,3.42,3.42,0,0,1-.51-.8c-.45-1-.91-2-1.31-3-.27-.68-.47-1.39-.69-2.1a1.61,1.61,0,0,1,0-.41l1.24-.63.49.83h.11c0-.09.08-.21,0-.28a.65.65,0,0,1,.13-.9c.13-.13.14-.38.22-.66.37.8,1.09,0,1.58.47l-1,.27v.11a1.26,1.26,0,0,0,.31,0,5.83,5.83,0,0,0,1.09-.15,1.47,1.47,0,0,0,.48-.2.46.46,0,0,1,.65,0h0c-.35.4-.4.41-1.88.55l.17.35a.71.71,0,0,1,1.11.13l-.42.08v.1l.34.19-.51.19.52.1c.08.25.21.46,0,.69a.59.59,0,0,0-.15.37c-.06.7-.13,1.41-.12,2.11,0,.26.22.51.33.76a1.72,1.72,0,0,1,.07.29H92.2l-.43-.83c-.17.51-.33.94-.44,1.37S91.09,146.37,91,146.86Z"/><path class="cls-1" d="M103.51,126.15l-.21-.5a1.94,1.94,0,0,0,1.18-.62.53.53,0,0,1,.48-.11,1,1,0,0,0,1.25-.2l.71.18c-.5.62-1.17.43-1.72.63.83.06,1.7-.21,2.54.43a4,4,0,0,1-.51.1c-.72,0-1.44.06-2.16.1a3.11,3.11,0,0,0-.57.14v.14l.52.1c-.41.18-.84.33-1.24.54s-.67.43-1,.63a7.11,7.11,0,0,1-.75.31l.29.36h-1.84A18.43,18.43,0,0,1,103.51,126.15Z"/><path class="cls-1" d="M89,152.83c-1.23-.71-3.41-5.12-3.06-6.08a2.58,2.58,0,0,1,.42.67A15.1,15.1,0,0,0,88,150.77c.2.38.49.72.7,1.1A7.74,7.74,0,0,1,89,152.83Z"/><path class="cls-1" d="M90.81,130.38c.07-.07.14-.21.21-.21.48,0,.74-.41,1.13-.54a6.63,6.63,0,0,1,1.15-.26c.73-.1,1.47-.18,2.2-.22h1.63v.13l-.54.11c-.76.08-1.53.09-2.28.23a24.93,24.93,0,0,0-2.54.65c-.18,0-.31.28-.48.45l-.51-.35Z"/><path class="cls-1" d="M100.11,126.57c.69.18.74-.55,1.14-.79a.78.78,0,0,1-.35,1c-.46.37-.9.77-1.43,1.23l.55.14-1.35.36C98.92,127.66,99.7,127.28,100.11,126.57Z"/><path class="cls-1" d="M92.63,141.54c.12-.6.23-.72.63-.7a5.32,5.32,0,0,1-.12,1.14c-.11.35,0,.83-.42,1-.4-.28-.16-.62-.15-1l-.5-.31Z"/><path class="cls-1" d="M106.9,129.6a1.11,1.11,0,0,0,.3,0,1,1,0,0,1,1.2.45,1.89,1.89,0,0,0,.21.39c.19.24.37.49.1.75s-.53,0-.82-.16l.66-.12c-.49-.45-.74-1-1.44-1-.06,0-.13-.17-.19-.26Z"/><path class="cls-1" d="M103.69,164.63l-.52.38-.31-.16c0-.3.15-.38.37-.41h.4l1.11.25-.86.41.18.15-.76.14.63-.45Z"/><path class="cls-1" d="M85.92,153.8l-.27.09c-.24-.46-.64-.86-.54-1.44C85.72,152.47,85.83,152.67,85.92,153.8Z"/><path class="cls-1" d="M106.91,129.59h-1.26a1.64,1.64,0,0,1-.58-.11c.54-.45,1.08-.15,1.66,0l-.06-.38.45.17-.23.33Z"/><path class="cls-1" d="M102.32,167.13a2.07,2.07,0,0,1,1.84.35A2.58,2.58,0,0,1,102.32,167.13Z"/><path class="cls-1" d="M111.9,163.23l-.55-.25.39-.53V162l.08-.06.38.6Z"/><path class="cls-1" d="M82.84,174.64c-.1-.29-.14-.61.12-.79a2.91,2.91,0,0,1,.84-.25l-.16.42.59.21-.66.19-.33-.5-.41.72Z"/><path d="M111.2,157.34l-.35,1.29-.29-.25v.4c0,.1-.21.15-.31.22l-.19.52h-1.21l.47-.62.19.28c.34-.14.19-.91.86-.55v-.1l-.31-.63-.54.74c-.23-.27-.13-.41,0-.6a1.88,1.88,0,0,0,.2-.54l1.23-.39.23.26Z"/><path d="M109.78,156.87c.31-.23.15-.75.68-.77.37.33-.08.64,0,1Z"/></g></g></svg>