<svg xmlns="http://www.w3.org/2000/svg" viewBox="0 0 325.28 245.22"><defs><style>.cls-1{fill:#fff;}</style></defs><title>资源 8</title><g id="图层_2" data-name="图层 2"><g id="图层_1-2" data-name="图层 1"><path class="cls-1" d="M0,0H320.6l-.89.39V.61M121.87,88.27c-.59,0-1.23,0-1.56-.67l.74-.35v-.16l-1.25-.24c0,1.55-.17,1.88-1.57,1.79a11.76,11.76,0,0,1-2.52-.75l-1.35,1-.46-.5-.53,1.08-2.21.28.15,1.57-1.15.14-.83,1.41c1.06.14,1.1,1,.87,1.84a5.58,5.58,0,0,1,1,.12,14.65,14.65,0,0,0,1.77.66c1.1.21,2.23.29,3.34.45.57.08,1.13.27,1.7.33,1.5.18,3,.27,4.52.49a50.64,50.64,0,0,0,6.51,1,81.93,81.93,0,0,0,8.45-.65c1.07-.1,1.28.06,1.14.9l-7.22,3.05c0,1.26.24,1.42,1.25,1.14,1.17-.33,2.35-.64,3.53-.93a2.29,2.29,0,0,1,.72.07c-.34.95-.93,1.05-1.73.68-.27.8-.74,1-1.31.58-.22.28-.37.65-.62.75-.78.29-1.61.47-2.36.68v1.76c.46,0,1,.16,1.2,0a2.91,2.91,0,0,1,3.16-.25l-.48,1.21,1.07,1.21c.48-.4.7-.8.34-1.23-.63-.76-.26-1.29.23-1.79l.88.72c0-.93.49-1.34,1.22-1.25s1.4.19,2.08.29c.31-1.16-.87-.29-.91-.95.73-.49,1.3-.32,1.6.22a17.39,17.39,0,0,0,2.94.25,8.34,8.34,0,0,0,2.11-.81c.52.27.28.59-.19.82l.24,1.49a3.59,3.59,0,0,0-.55,0c-.9.2-2.11-.42-2.6.95,0,.08-.23.12-.35.13l-2,.27v1l-.78.15,1,.75-1.36.69.26.15c-.1.71-.17,1.42-.3,2.12s-.48.76-1.06.75c-.88,0-1.76,0-2.63.08-.17,0-.33.25-.49.39l.11.17.73-.15-.69,1.2a1.83,1.83,0,0,0-2.16-1c-.23,0-.4.57-.61.88-1.23-1.12-2.09,0-3.08.77,0-.93,0-1.73-.86-2.1l-1.38.79.86,1.18.87-.42c-.08,1-.77,1.12-1.37,1.33s-1.07.45-1.61.68l-.12-.22-.17.56-.57-.1v.85c-.32.1-.78.17-.78.25a10.9,10.9,0,0,0,.17,1.5c-.46.26-1.4-.23-1.77.86L124,120c0,.67.24,1.14,1,1.19.18,0,.32.3.51.4a1.71,1.71,0,0,0,.86.33,2.65,2.65,0,0,1,2.88,1.64l1,.12c.1.74.65,1.5-.43,2v.24l5,2.43-1.29.58c3.08,0,6,1.8,9.19.4v1c-1.15.33-1.15.33-1,.65l1.41-.2,0,.27c-.85.5-1.7,1-2.57,1.48-.12.07-.34-.05-.48,0-.73.32-1.81-.12-2.12,1l-1.13-.47.58-.89-.12-.09-3.21,2.07a4.13,4.13,0,0,1-2.56,2.19l.4,1.19-2.32.89-.31.05c-.25.06-.63,0-.74.21-.53.8-1,1.65-1.46,2.48l.19.15a13.76,13.76,0,0,1-1.39.39c-1,.17-1.31.66-1.31,1.65a18.66,18.66,0,0,1-.31,2.23,2.27,2.27,0,0,0,0,.81c.16.67.37,1.32.6,2.1l-.55-.28v2.28l-.2-.08c-.17.22-.48.44-.49.67a2.7,2.7,0,0,0,.27,1.4c.39.64.15,1.15,0,1.78l-.86-.28-1.31,2.29.18.08.17-.32,1.85.23-.08-1.09,1.27-.1-.86-.63.9-.42.5.84a3.58,3.58,0,0,1-.38.51c-1.44,1.32-1.56,1.89-.83,3.73a15.68,15.68,0,0,1,.42,1.54l-1.15-.89-.17.21c1.44,2.88,4,4.84,6,7.18,2.3-1,2.44-1,3.5-.67a9.51,9.51,0,0,1-3.8,1.8c-.1.19-.17.59-.36.66a3.63,3.63,0,0,0-2.12,1.16c-.65.92-1.45,1.73-2.17,2.6a.7.7,0,0,0,.07.3l.63-.33.16.14-.46.81-1.66-.65-.24,2.3-.81,1.53c-.9.19-.9.19-.59,2.38-.86-.57-1.09.26-1.61.5l.09.27,1.37-.39c.16,1.36-1.08.49-1.63,1l.82,1.35c-.86-.08-.09.62-.35.88-1.46,1.06-1.64,1.87-.78,2.92a3.48,3.48,0,0,1,.25.41,9.07,9.07,0,0,0,7.65,4.45c1.84.12,3.69.06,5.51.27a28,28,0,0,0,7.27-.36c4.11-.61,8.08-1.86,12.21-2.41a17.41,17.41,0,0,1,5.82.35l-.89,1,.56,1.08-.18.17-1.06-.4c0,.06-.11.1-.12.16a2.61,2.61,0,0,0,0,.28,5.74,5.74,0,0,1,.83,2.93,1.56,1.56,0,0,0,.27.73c1.22,1.75,2,3.8,3.68,5.24a3.5,3.5,0,0,0,1.23.71,18.42,18.42,0,0,0,8.3.26c2.69-.41,5.37-1,8-1.63,3.3-.85,6.55-1.9,9.82-2.83a3.79,3.79,0,0,1,1.16,0,30.43,30.43,0,0,1,1.1,3.12A10,10,0,0,0,193.8,204a8.64,8.64,0,0,0,5.08,2.86,27.73,27.73,0,0,0,4,.08c3.49-.07,6.77-1.14,10.05-2.18,1.56-.5,3.17-.85,4.67-1.24.69,1.54,1.31,2.85,1.88,4.19a11.85,11.85,0,0,0,2.81,3.37,9.82,9.82,0,0,0,5,2.78,15,15,0,0,0,7.52-.27,17.14,17.14,0,0,1,1.72-.29c-.15.46-.21.7-.31.93a7.69,7.69,0,0,0-.88,2.1,13.19,13.19,0,0,0,.07,4.54,37.7,37.7,0,0,0,2.46,5.43,1.23,1.23,0,0,0,.25.3c1,1.06,2.07,2.06,3,3.18a9.18,9.18,0,0,0,5,2.92,42.26,42.26,0,0,0,5.29.71c.7.08,1.4.13,2.19.2a8.42,8.42,0,0,1-.23,1,5.49,5.49,0,0,0,.95,5.33,12.94,12.94,0,0,0,3.84,3.77,8,8,0,0,0,2.39,1.18c1.9.39,3.8-.14,5.65-.52,2.66-.55,5.29-1.28,7.93-2,3.07-.79,6.15-1.55,9.21-2.41a27.24,27.24,0,0,0,8-3.5c.34-.23.79-.3,1.15-.51a28,28,0,0,0,3.09-2,32,32,0,0,0,2.66-2.62,30.62,30.62,0,0,0,2.37-2.51c.57-.73.89-1.65,1.42-2.43.68-1,1.48-1.92,2.17-2.91a.78.78,0,0,0-.11-1.1l-.14-.09a4.12,4.12,0,0,0-1.41-.6,9.32,9.32,0,0,0-5.23.65,3.07,3.07,0,0,1-1,0c1-.92,1.81-1.6,2.56-2.36a4.09,4.09,0,0,0,1.36-2.83,2.34,2.34,0,0,1,.7-1.74c1.54-1.6,1.91-3.71,2.38-5.75a1.76,1.76,0,0,0-.36-1.36,41.22,41.22,0,0,0-3.19-3.26,39.17,39.17,0,0,0-3.37-2.71,14.41,14.41,0,0,0-1.91-1.11,16.41,16.41,0,0,1-2.42-1.25,5.09,5.09,0,0,0-2.58-1l-3.15-.35c.26-.42.42-.7.6-1a10.21,10.21,0,0,0,2-4.3,6.6,6.6,0,0,1,.73-2c.35-.73.84-1.39,1.17-2.13a3.65,3.65,0,0,0-.23-3.72,9,9,0,0,0-5-3.6,3.53,3.53,0,0,1-.88-.34c-1.42-.89-2.83-1.8-4.41-2.82-.67-2.19-2.76-1.55-4.58-1.63a2.77,2.77,0,0,1,.05-.83c.66-1.54,1.3-3.08,2-4.58.5-1,1.06-2,.63-3.15a7.08,7.08,0,0,0-2.66-3.15,1.33,1.33,0,0,0-.66-.11,2.2,2.2,0,0,1-1.79-1c-.62-.85-1.35-1.61-2.08-2.46-1.4.35-2-1-3.26-1.48.35-.33.54-.54.76-.72,1.39-1.17,2.87-2.25,4.15-3.52,2.23-2.22,4.38-4.52,6.48-6.86,1.1-1.22,2.28-2.44,2.48-4.21a.8.8,0,0,1,.39-.52,4.14,4.14,0,0,0,1.67-2.52,3.61,3.61,0,0,1,.42-1c1.07-1.34,2.26-2.6,3.25-4a35.75,35.75,0,0,0,2.67-4.49,5.62,5.62,0,0,0,.77-2.85c-.28-2.75-2.2-4.21-4.93-4.13a2.86,2.86,0,0,1-1.39-.44c-.87-.49-1.7-1.07-2.7-1.7,0,.05-.09-.13,0-.26.39-.93-.14-1.4-.8-1.94-1.51-1.25-3.07-2.32-5.16-2-.2-.83.37-1.22.68-1.72q1.38-2.23,2.74-4.48a.88.88,0,0,0,.12-.56,5.25,5.25,0,0,1,.81-3.25c.92-2,1.86-3.94,2.69-5.94a6.34,6.34,0,0,0,.47-4.55,3.49,3.49,0,0,1,.18-2.65c.44-.93.62-2,1-3a3.47,3.47,0,0,0-.49-3h-.17l-.16,1-2.63-1.7.07-.27,1.13-.14a1.59,1.59,0,0,0-1.32-1.77,5,5,0,0,1-1.3-.75c.69-.78,1.17.79,1.86-.21-1.81-1-3.49-2.14-5.93-1.75l1.24-1.5-1.33-.21a8.24,8.24,0,0,1,.71-2.28,8.28,8.28,0,0,0,1.75-5.91,5.2,5.2,0,0,1,.07-1.65c.25-1.25.05-1.6-1.21-2l-.77-.23a12.57,12.57,0,0,1,.57-1.7,5.72,5.72,0,0,0,.81-3.64c-.22-1.18-.14-2.59-1.61-3.18-.13-.05-.15-.34-.23-.51a1.23,1.23,0,0,0-.17-.21l-.62.29-1.8-1-1.09-1.27-1.11.44c.16-.76.09-1.48.42-1.79a15.12,15.12,0,0,1,2.33-1.58l-.52-1.34H270.1l-1.26,1.36-.58-.71.92-.85c-.8-1-1.43-1.12-2.29-.31a1.34,1.34,0,0,1-1.76.31l1-.9-.12-.23a9.08,9.08,0,0,0-2,.66c-2.24,1.37-4.43,2.82-6.64,4.24-.71.46-1.41.92-2.13,1.36-.89.54-1.84,1-2.67,1.61-1.46,1.08-2.84,2.27-4.26,3.39a1,1,0,0,1-.69.21c-.62-.15-1.22-.41-1.84-.57a3.29,3.29,0,0,0-1.38-.19,32.39,32.39,0,0,0-3.81,1c-.39.11-.83.23-.91.86s-1.2,1.11-2.06.93l.95-.87-.8-.78a5.82,5.82,0,0,1,1.06-.37,5,5,0,0,0,2.76-1,1.64,1.64,0,0,0-2.59-.08,7.1,7.1,0,0,1-.9.71,10,10,0,0,1-1-.79,7.84,7.84,0,0,1-.66-.89l.16-.32c.68,0,1.36-.13,2-.12s1.38.1,2.07.16l.14-.27-1.4-1-4.43.5.1-1.5h-2.44A1.7,1.7,0,0,0,230.88,62l-.45-1a15.34,15.34,0,0,1-1.33,1.17c-2.61,1.78-5.24,3.54-7.86,5.3-.39.27-.58.57-.18,1.06,1.24-1.13,2.87-1.47,4.08-2.62a12.23,12.23,0,0,1,3.08-1.55c.26,1.13-.55,1.27-1,1.62s-.89.31-1,.56c-.25.86-.83.76-1.37.64-.37.49-.61,1.08-1,1.31a2.11,2.11,0,0,0-1,1.1,2.29,2.29,0,0,1-1.94,1.27l-2.32,2.65a4.91,4.91,0,0,0-.42-.7c-.79-.85-.78-1.05-.08-2a1.54,1.54,0,0,0,.22-.91,5,5,0,0,0-.25-1.21c-.44-1.42-.39-3.1-2.39-4l-.77.77,1.52,1-.81,1.19c1.87,2.51.79,3.36-.81,4.16a4.64,4.64,0,0,1-1.18-3.13c-.93.91-2.12.54-2.83-.84l1.72-.6-.82-1.94,1-.81-.91-1.08-.12.18a8.64,8.64,0,0,1-.86-.26c-.63-.26-1.23-.57-1.87-.8a1,1,0,0,0-.83,0c-.79.6-1.52.13-2.31,0,.71-1.32.7-1.35-.09-2,.66-.5.58-1,0-1.62l.56-.33a1.72,1.72,0,0,0,2.22.71,2.82,2.82,0,0,1,2.69.6,15.13,15.13,0,0,1,1.78,2,3,3,0,0,0-1.24-2.62A5.66,5.66,0,0,0,205.62,58c.21-1.08-.39-1.3-1.07-1.39a6.71,6.71,0,0,0-1.26,0c-.66,0-1.32.1-2,.15l-.07-.22,1.19-.62a2,2,0,0,0-2,0,2.39,2.39,0,0,1-1.09.33c-1,.06-2,0-3,.07a3,3,0,0,0-.77,0,21.5,21.5,0,0,1-3.22.95,31.84,31.84,0,0,0-6.71,1.57c-.16.06-.39-.07-.65-.13a2.1,2.1,0,0,1,.2-.44c1-1.15,2.06-2.28,3-3.46a13.18,13.18,0,0,0,1.27-1.95c.25-.45,0-.72-.51-.87l-1.21,1.62-.85-1.68h-.26l-.86,2.52-1.85,1.36a8,8,0,0,0-.32-1,1.55,1.55,0,0,0-.5-.67c-1.12-.7-1.2-1.11-.41-2.15l-1.24-.12c.39-.53.55-1,.82-1.07.76-.18.75-.75.94-1.28-.8-.18-.88-.36-.56-.93s.53-1,.79-1.53a3.42,3.42,0,0,0,.82-.21,4.12,4.12,0,0,0,.71-.62l.59,1,.21-.76.19-.72c.59,0,1.08,0,1.16.66a1.61,1.61,0,0,1-1.41,1.71l.4,1a4.33,4.33,0,0,0,1.51-2.5c.06-.29.46-.73.7-.72a.72.72,0,0,1,.73.93c-.14.69-.16,1.42-.82,1.91-.2.14-.25.49-.44.92a2.22,2.22,0,0,0,.49-.17c1.29-1.18,1.66-2.85,2.18-4.4.19-.57-.28-1.4-.54-2.07-.14-.37-.5-.65-.69-1A1.55,1.55,0,0,1,189,41a9.43,9.43,0,0,1,.71-2c.76-1.51.58-1.9-1.11-2.08l.9,1.31c-.83.74-1.42.25-2-.07a1.69,1.69,0,0,0-2.19,0c-.16.16-.53.12-.8.17l.08-.21-1.88-1.76-.17.17.32.61-1,.6v.82c-.29-.79-.81-.63-1.39-.45a3.36,3.36,0,0,1-.84.08c.33-.62.6-1.18.92-1.71a3.49,3.49,0,0,1,.7-.89,12.87,12.87,0,0,1,1.36-.87l-7-1V33.5l1.4-.63-.19-.69c-.88.13-1.7.24-2.52.39s-1.86.42-2.81.56a1,1,0,0,1-.66-.32c.18-1-.17-1.93.25-3a20.79,20.79,0,0,0,1.48-5.11,13,13,0,0,0-2.61-9.84c-.79-1-1.48-2.51-3.14-2.39-.18-.32-.27-.72-.49-.83a12.67,12.67,0,0,0-3.43-1.17,13.47,13.47,0,0,0-10,2.54c-1.25.88-2.26,2.12-3.88,2.48-.47.1-.85.61-1.3,1l.47.63-1.91,2.46c-1.36-.63-.85,1.15-1.66,1.34l.63.62-.76.32a1.2,1.2,0,0,1-.12.63,9.14,9.14,0,0,1-1.47,1.4,7.8,7.8,0,0,1-1.64.81c-.67.27-1.36.48-2,.71v.3l1.29.57-2.21.49-.14.94-1-.37-.12.89-.17-.18a14,14,0,0,0-1.68,1,5.63,5.63,0,0,1-2.37,1.43c-.36.06-.82-.07-1.09.11-.79.52-1.5,1.16-2.25,1.74l-1.4,1-.38-.72-4,2.29.08.21-1.92-.47-.07.63-.13-.17a13,13,0,0,0-1.23.83,1.62,1.62,0,0,1-2.18-.18c.26-.11.46-.23.68-.3.53-.17,1.28-.17,1.56-.53A2.73,2.73,0,0,1,123,33.75a2.8,2.8,0,0,0,1-.36l.28.48.59-.41c.56-.38,1.12-1.09,1.66-1.08a2.51,2.51,0,0,0,2.08-1.11,4.28,4.28,0,0,1,1.14-.81,13.42,13.42,0,0,0,1.77-.89,15.34,15.34,0,0,0,2.1-2,5,5,0,0,0,1.08-1.71c.39-1.27.61-2.59.94-4a3.83,3.83,0,0,1,.72-.52,5.12,5.12,0,0,1,1.12-.22c.65.46,1.09-.32,1.42-.79.94-1.36,1-1.77-.14-3.37-1.65.55-2.14.27-2-1.18l.59.14c-.42-1.28-.83-1.69-1.67-1.65v1.16c-2.25.34-3.26-1.61-4.78-2.55l-.73,1.21,1.07.2.65,2a7.9,7.9,0,0,1-2.08,0,7.26,7.26,0,0,1-1.67-1l.69-.19c-.12-1.29-.12-1.29,1.11-1.62l-.22-1.68,2.14-.52c-.7-1.28-1.83-.87-2.77-1V10l1.13-.5L130,8.13l-6.7.6L123,7.27l1.22.77V5.34c-1.55,0-3-.08-4.37,0-1.69.13-3.38.39-5.06.63a6.21,6.21,0,0,0-1.65.44c-1.39.62-2.74,1.32-4.11,2l.09.3a6.05,6.05,0,0,0,3.28-.86c.54-.39,1-.8,1.75-.57a.55.55,0,0,0,.46-.06c.82-.9,1.87-.73,2.9-.67a1.11,1.11,0,0,1,.29.13l-.16.8-2,.33.12.93-2.36-.27c1,1-.25,2,.21,3l-.77-.49a4.85,4.85,0,0,1-.74.94c-.82.61-1.66,1.2-2.54,1.73-.38.23-.69,0-.91-.41-.52-1-1.13-2.06-1.64-3l1.62-.74-.48-.25.57-.43V8.53c-.51-.08-1-.13-1.51-.24a7.68,7.68,0,0,1-2.64-.71,2.7,2.7,0,0,0-1.56-.66,2.66,2.66,0,0,1-1,0c-1.23-.51-2.42-1.09-3.65-1.6a2.13,2.13,0,0,0-1.14-.18A22.14,22.14,0,0,1,93.5,6c-2.78,0-5.43.92-8.18,1.08a21.77,21.77,0,0,1-4,.12,14.73,14.73,0,0,0-4.39.36A28.64,28.64,0,0,0,72.59,9c-.43.15-.9.15-1.34.28-.63.2-1.23.48-1.85.67s-1.2.22-1.78.41C66,10.9,64.5,11.49,62.93,12c-1.21.39-2.61.12-3.66,1.09-.11.1-.38,0-.57,0a2.41,2.41,0,0,0-2.34,1,3.71,3.71,0,0,1-2,1.4c-1.48.13-2.37,1.2-3.55,1.77a17.43,17.43,0,0,0-2.36,1.68c-.59,1.75-2.48,1.36-3.56,1.68l-1.57,2,.11.71-3.87,2.3.6.78-.33.91a7.7,7.7,0,0,0,.69.36,13,13,0,0,0,6.22.7c1.32-.12,2.66-.13,4-.13.42,0,1.07,0,.9.71-.37,1.48.42,2.46,1.32,3.42a1.81,1.81,0,0,1,.49.67,1.49,1.49,0,0,0,1.45,1.2,1.82,1.82,0,0,1,1.64,1.36,4,4,0,0,0,1.15,1.74,11.74,11.74,0,0,0,3.46,1.72,57.62,57.62,0,0,0,8,1.57,17,17,0,0,1,5.5,1l-.42.87L73,41.62l-.74,1.25,2.84-.16V43l-1.17.32a1.55,1.55,0,0,0,.82.34,3,3,0,0,1,1.8,1.43c.14.56.29,1.12.37,1.41l5,1.87c.11.43.11.82.3,1,.76.87,1.6,1.67,2.36,2.54a1.92,1.92,0,0,1,.6,1.17C85,54,85,54,86,54.31c1.52.34,3,.73,4.54,1.07a4.58,4.58,0,0,0,.86,0l3.88.12a14.66,14.66,0,0,0,2.12.08,11.59,11.59,0,0,0,1.88-.48,2.14,2.14,0,0,0,2.16.78l.46-.95a6.09,6.09,0,0,0,3.14-.5,12,12,0,0,1,3.33-.64c.5-.09,1-.21,1.32-.28h2.45v-.75l1.31.26.18.83-.75.2-.15,1.44-.82-.15.83,1.52-1-.14.18,1.38c-.58.39-1.8,0-2.09,1.19l2,.9.79-.37.3,1.24h.19l.12-1.53c.2.23.45.39.44.52,0,.37-.09.92-.33,1a1.8,1.8,0,0,1-1.35.12,1,1,0,0,0-1.34.25l2.53.74a2.54,2.54,0,0,1-.27.39l-1,.86c-1.07-.77-1.45-.62-1.83.7l-.71-.19v.16l-1.77.64c-.25,1.19-1.71.5-2.31,1.17-1.42-1.05-2.93-.42-4.49-.63,0,.49-.15,1,0,1.21.46.61.32.76-.37.79-.08,0-.15.29-.25.5l-.49-.7c-.21.77-1.09,1.49-1.52,1.33s-.7-1.33-.4-2.23l-1.9.7.26-.92C95,66.08,93.7,65.46,93,67l-1.28-1a7.32,7.32,0,0,0-.89,2c-.3,1.07-.82,1.61-2,1.49l-.23.26c.83,1.15,2.16,1.51,3.39,2l-.43.61c.86.62,2,1,2,2.28,0,.05.07.12.12.14.73.35,1.46.7,2.2,1,.56.25,1.15.46,1.71.73s.9.56,1.37.77,1.24.45,1.87.65c.93.29,1.85.59,2.79.84s1.72.35,2.56.61c1.3.4,2.49,1.16,3.93,1,.48,0,1.07-.25,1.41-.05.82.49,1.46-.1,2.19-.11.4,1.55,1,1.9,2.79,1.43l-.45-.66,1.23.27v.18l1.32-.38a2.71,2.71,0,0,0,2.18,1.31,2.32,2.32,0,0,1,.72.33c.33.21.64.45,1,.67l.13-.15.52,1.41,2.42-1.32c-.21.77-.19,1.5-.54,1.79s-1.13.26-1.64.35ZM302.73,50.73a6.18,6.18,0,0,1-1.38.26c-1.71,0-3.64.92-5-1.17l-.13,1.23c-1.53.47-1.52.47-2.35-.84-.11-.17-.37-.24-.59-.39l-.33.92-1.16-.09c.59,1.63-1.28,1.93-1.56,3.15-1.11-.56-.92.72-1.42,1.07-.5-1.23-.82-1.46-1.74-1.16a21,21,0,0,0,2,2c1.79,1.52,3.36,3.36,5.68,4.15.37.13.78.26.56.8l-.74.16c.54.79,1,1.22,2,.91,1.42-.45,2.9-.69,4.31-1.14a4.9,4.9,0,0,0,2.68-1.26c.15-.19.68-.07,1-.1.06,0,.11-.06.2-.11l.09-.62.13.15c.25-.2.63-.35.73-.6a22.75,22.75,0,0,0,.9-2.83,2.42,2.42,0,0,0,0-1.45,16,16,0,0,0-1.66-3c-.62-.84-1.28-1.81-2.69-1.76Zm6.9,43.22h.84l1,2.21a14.59,14.59,0,0,1,2.05.48c1.21.46,2.37,1,3.57,1.53a1,1,0,0,0,.72-.09c1.24-.68,2.42-1.48,3.69-2.08a3.47,3.47,0,0,0,1.8-2.5c.18-.64.46-.86,1.07-.85a5.47,5.47,0,0,0,.91-.14v-.22l-.86-.32-.27-3.28c-1.13-.15-2.15.92-3-.21l.28-1.11-1.4-.65L320,87l-1.25-.09a7.84,7.84,0,0,1-.85-.11c-.45-.09-.9-.23-1.35-.31a1.69,1.69,0,0,0-.87-.05,10.52,10.52,0,0,0-1.38.83l.12.82-1.52-.1.14.28a5.22,5.22,0,0,1-1,.91,7.07,7.07,0,0,1-1.8.34c-.73.08-1.14.34-1,1.19s-.26,1.9.49,2.71c.05,0,0,.3-.07.5Zm-41.1-40.71c.31-.06.75-.15,1.2-.21a2.9,2.9,0,0,0,2.58-2.6c.16-1.34-.45-2.27-2.06-3a3.07,3.07,0,0,0-2.8.16c-1.1.51-1.26,1.68-2,2.42-.14.14,0,.74.21,1,.3.49.84.86,1.06,1.37.37.74,1,.76,1.82.81Zm-.81-18.42c-.7-.33-1.37-.72-2.08-1A3.34,3.34,0,0,0,262.53,35a2.81,2.81,0,0,0,4,3.35,2.12,2.12,0,0,0,1.15-1.89,14.54,14.54,0,0,0,0-1.64ZM265.39,27c-1.5,0-2.66.86-2.66,2a2.62,2.62,0,0,0,2.42,2.8h.18a2.53,2.53,0,0,0,2.46-2.46A2.15,2.15,0,0,0,265.4,27ZM129,109.13a4.67,4.67,0,0,0,.74,1.09,3.83,3.83,0,0,0,1.75,1,6.83,6.83,0,0,0,2.23-.63l-.44-.65,1-.26c-1.1-.37-.81-2.06-2.14-2.14l-.65,2.49-1.24-.9.76-.48C129.73,108.15,129.2,108.33,129,109.13ZM295,48h2l-.23.66a.81.81,0,0,0,.61-.22,6.1,6.1,0,0,0,.44-.5c1.51-.37,2.76.42,4.2,1-.92-1.56-5.53-2.18-7-.93Z"/><path d="M319.75.6V.39l.89-.39"/><path d="M121.87,88.27l1.54-2.78c.51-.09,1.24,0,1.64-.35s.34-1,.54-1.79l-2.42,1.32-.52-1.41-.13.15a8.29,8.29,0,0,0-1-.67,2.32,2.32,0,0,0-.72-.33,2.71,2.71,0,0,1-2.19-1.21l-1.32.38V81.4l-1.23-.27.45.66c-1.75.46-2.39.12-2.79-1.43-.73,0-1.37.6-2.19.11-.34-.2-.93,0-1.41.05-1.44.14-2.64-.62-3.93-1-.84-.26-1.71-.38-2.56-.61s-1.86-.55-2.79-.84c-.63-.2-1.26-.39-1.87-.65s-.9-.54-1.37-.77-1.14-.47-1.71-.73c-.74-.33-1.47-.69-2.2-1,0,0-.12-.09-.12-.14,0-1.29-1.15-1.66-2-2.28l.43-.61c-1.23-.53-2.56-.9-3.39-2,.14-.17.19-.26.23-.26,1.13.11,1.65-.42,2-1.49A7.32,7.32,0,0,1,92,66.32l1.28,1c.66-1.54,1.93-.92,3.09-1.06l-.26.92,1.9-.7c-.3.89,0,2.06.4,2.23s1.32-.56,1.52-1.33l.49.7c.1-.2.17-.49.25-.5.68,0,.83-.17.37-.79-.18-.24,0-.72,0-1.21,1.56.21,3.07-.42,4.49.63.6-.67,2.06,0,2.31-1.17l1.77-.64v-.16l.71.19c.38-1.33.76-1.47,1.83-.7l1-.86a2.54,2.54,0,0,0,.27-.39l-2.51-.82a1,1,0,0,1,1.34-.25,1.8,1.8,0,0,0,1.35-.12c.24-.13.28-.68.33-1,0-.13-.23-.29-.44-.52l-.1,1.5h-.19l-.3-1.24-.79.37-2-.9c.29-1.22,1.51-.79,2.09-1.19L112,56.93l1,.14-.83-1.52.82.15.15-1.44.75-.2-.18-.83L112.38,53v.75h-2.51c-.32.07-.82.19-1.32.28a12,12,0,0,0-3.33.64,6.09,6.09,0,0,1-3.14.5l-.46.95a2.14,2.14,0,0,1-2.16-.78,11.59,11.59,0,0,1-1.88.48,14.66,14.66,0,0,1-2.12-.08l-3.88-.12a4.58,4.58,0,0,1-.86,0c-1.51-.34-3-.74-4.54-1.07-1-.22-1-.23-.85-1.26a1.92,1.92,0,0,0-.6-1.17c-.76-.87-1.6-1.67-2.36-2.54-.19-.22-.18-.61-.3-1l-5-1.87c-.08-.29-.23-.85-.37-1.41a3,3,0,0,0-1.8-1.43,1.55,1.55,0,0,1-.82-.34l1.17-.32v-.26l-2.84.16.74-1.25,1.26.88.42-.87a17,17,0,0,0-5.5-1,57.62,57.62,0,0,1-8-1.57,11.74,11.74,0,0,1-3.46-1.72,4,4,0,0,1-1.15-1.74A1.82,1.82,0,0,0,55,34.27a1.49,1.49,0,0,1-1.45-1.2,1.81,1.81,0,0,0-.49-.67c-.9-1-1.69-1.94-1.32-3.42.17-.68-.47-.71-.9-.71-1.33,0-2.67,0-4,.13a13,13,0,0,1-6.22-.7,7.7,7.7,0,0,1-.69-.36l.33-.91-.6-.78,3.87-2.3-.11-.71,1.57-2c1.07-.32,3,.06,3.56-1.68a17.43,17.43,0,0,1,2.31-1.69c1.18-.57,2.07-1.64,3.55-1.77a3.71,3.71,0,0,0,2-1.4,2.41,2.41,0,0,1,2.34-1c.19,0,.46.07.57,0,1-1,2.45-.7,3.66-1.09,1.57-.51,3.12-1.1,4.69-1.61.58-.19,1.2-.24,1.78-.41s1.23-.48,1.85-.67c.43-.13.91-.14,1.34-.28A28.64,28.64,0,0,1,77,7.54a14.73,14.73,0,0,1,4.39-.36,21.77,21.77,0,0,0,4-.12c2.75-.16,5.39-1,8.18-1.08a22.14,22.14,0,0,0,3.76-.82,2.13,2.13,0,0,1,1.14.18c1.23.51,2.42,1.09,3.65,1.6a2.66,2.66,0,0,0,1,0,2.7,2.7,0,0,1,1.56.66,7.68,7.68,0,0,0,2.64.71c.5.11,1,.16,1.51.24v.29l-.57.43.48.25-1.62.74c.52.92,1.12,1.93,1.64,3,.22.45.53.63.91.41.88-.53,1.72-1.12,2.54-1.73a4.85,4.85,0,0,0,.74-.94l.77.49c-.45-.93.77-2-.21-3l2.36.27-.12-.93,2-.33.16-.8a1.11,1.11,0,0,0-.29-.13c-1-.07-2.08-.23-2.9.67a.55.55,0,0,1-.46.06c-.73-.22-1.21.19-1.75.57a6.05,6.05,0,0,1-3.28.86l-.09-.3c1.37-.67,2.72-1.36,4.11-2A6.21,6.21,0,0,1,114.89,6c1.68-.24,3.37-.51,5.06-.63,1.4-.1,2.82,0,4.37,0v2.7L123,7.27l.32,1.39,6.7-.6.15,1.38-1.13.5v.25c.93.13,2.07-.28,2.77,1l-2.14.52.22,1.68c-1.22.33-1.22.33-1.11,1.62l-.69.19a7.26,7.26,0,0,0,1.67,1,7.9,7.9,0,0,0,2.08,0l-.64-2.07-1.07-.2.73-1.21c1.52.94,2.53,2.89,4.78,2.55V14.2c.84,0,1.25.36,1.67,1.65l-.59-.14c-.16,1.44.32,1.73,2,1.18,1.15,1.6,1.08,2,.14,3.37-.33.47-.77,1.24-1.42.79a5.12,5.12,0,0,0-1.12.22,3.83,3.83,0,0,0-.72.52c-.33,1.46-.55,2.78-.94,4a5,5,0,0,1-1.08,1.71,15.34,15.34,0,0,1-2.1,2,13.42,13.42,0,0,1-1.77.89,4.28,4.28,0,0,0-1.14.81,2.51,2.51,0,0,1-2.08,1.16c-.55,0-1.11.7-1.66,1.08l-.59.41-.28-.48a2.8,2.8,0,0,1-1,.36,2.73,2.73,0,0,0-2.48,1.11c-.29.36-1,.35-1.56.53a6.21,6.21,0,0,0-.68.3,1.62,1.62,0,0,0,2.18.18,13,13,0,0,1,1.23-.83l.13.17.07-.63,1.91.48-.08-.21,4-2.29.38.72,1.37-1c.75-.59,1.46-1.22,2.25-1.74.27-.18.73,0,1.09-.11a5.63,5.63,0,0,0,2.37-1.43,14,14,0,0,1,1.68-1l.17.18.12-.89,1,.37.14-.94,2.21-.49-1.29-.57v-.3c.68-.23,1.37-.44,2-.71a7.8,7.8,0,0,0,1.64-.81,9.14,9.14,0,0,0,1.47-1.4c.14-.16.09-.48.12-.63l.76-.32-.63-.62c.81-.19.3-2,1.66-1.34l1.91-2.46-.47-.63c.44-.34.83-.84,1.3-1,1.61-.36,2.63-1.59,3.88-2.48a13.47,13.47,0,0,1,10-2.54,12.67,12.67,0,0,1,3.38,1.41c.23.11.31.51.49.83,1.66-.12,2.35,1.36,3.14,2.39a13,13,0,0,1,2.61,9.84A20.79,20.79,0,0,1,171,30c-.42,1-.07,2-.25,3a1,1,0,0,0,.66.32c.94-.15,1.87-.39,2.81-.56s1.64-.26,2.52-.39l.19.69-1.4.63V34l7,1a12.87,12.87,0,0,0-1.36.87,3.49,3.49,0,0,0-.7.89c-.32.53-.59,1.09-.92,1.71a3.36,3.36,0,0,0,.84-.08c.58-.18,1.1-.34,1.39.45V38l1-.6-.32-.61.17-.17,1.88,1.76-.08.21c.27-.05.63,0,.8-.17.76-.74,1.45-.38,2.19,0s1.17.8,2,.07l-.9-1.31c1.68.18,1.86.56,1.11,2.08a9.43,9.43,0,0,0-.71,2,1.55,1.55,0,0,0,.23.94c.18.36.54.64.69,1,.26.68.73,1.5.54,2.07-.52,1.54-.89,3.22-2.18,4.4a2.22,2.22,0,0,1-.49.17c.2-.43.24-.78.44-.92.67-.49.68-1.22.82-1.91a.72.72,0,0,0-.73-.93c-.23,0-.63.43-.7.72a4.33,4.33,0,0,1-1.51,2.5l-.4-1A1.61,1.61,0,0,0,187,46.6c-.08-.7-.57-.67-1.16-.66l-.19.72-.21.76-.59-1a4.12,4.12,0,0,1-.71.62,3.42,3.42,0,0,1-.82.21c-.26.5-.5,1-.79,1.53s-.24.74.56.93c-.18.53-.18,1.1-.94,1.28-.26.06-.43.54-.82,1.07l1.24.12c-.8,1-.71,1.45.41,2.15a1.55,1.55,0,0,1,.5.67,8,8,0,0,1,.32,1l1.85-1.36.86-2.52h.26l.85,1.68,1.21-1.62c.51.15.77.43.51.87A13.18,13.18,0,0,1,188.1,55c-1,1.18-2,2.3-3,3.46a2.1,2.1,0,0,0-.2.44c.26.06.49.18.65.13a31.84,31.84,0,0,1,6.71-1.57,21.5,21.5,0,0,0,3.22-.95,3,3,0,0,1,.77,0c1,0,2,0,3-.07a2.39,2.39,0,0,0,1.09-.33,2,2,0,0,1,2,0l-1.19.62.07.22c.66-.05,1.32-.11,2-.15a6.71,6.71,0,0,1,1.26,0c.67.09,1.27.31,1.07,1.39a5.66,5.66,0,0,1,6.09,1.32,3,3,0,0,1,1.24,2.62,15.13,15.13,0,0,0-1.78-2,2.82,2.82,0,0,0-2.69-.6c-1.09.33-1.47.17-2.22-.71l-.56.33c.55.58.63,1.11,0,1.62.8.7.8.73.09,2,.79.11,1.51.57,2.31,0a1,1,0,0,1,.83,0c.64.22,1.24.54,1.87.8a8.64,8.64,0,0,0,.86.26l.12-.18.91,1.08-1,.81.82,1.94-1.72.6c.71,1.38,1.9,1.76,2.83.84a4.64,4.64,0,0,0,1.18,3.13c1.59-.8,2.68-1.65.81-4.16l.81-1.19-1.52-1,.77-.77c2,.9,2,2.59,2.39,4a5,5,0,0,1,.25,1.21,1.54,1.54,0,0,1-.22.91c-.7,1-.71,1.18.08,2a4.91,4.91,0,0,1,.42.7l2.32-2.65a2.29,2.29,0,0,0,1.94-1.27,2.11,2.11,0,0,1,1-1.1c.43-.23.67-.82,1-1.31.55.12,1.12.22,1.37-.64.07-.26.65-.34,1-.56s1.31-.49,1-1.62a12.23,12.23,0,0,0-3.08,1.55c-1.21,1.14-2.84,1.49-4.08,2.62-.4-.49-.22-.8.18-1.06,2.62-1.77,5.25-3.52,7.86-5.3a15.34,15.34,0,0,0,1.33-1.17l.45,1a1.7,1.7,0,0,1,1.76-1.35H235l-.1,1.5,4.43-.5,1.4,1-.14.27c-.69-.06-1.38-.15-2.07-.16s-1.36.08-2,.12l-.16.32a7.84,7.84,0,0,0,.66.89,10,10,0,0,0,1,.79,7.1,7.1,0,0,0,.9-.71,1.64,1.64,0,0,1,2.59.08,5,5,0,0,1-2.76,1,5.82,5.82,0,0,0-1.06.37l.8.78-.95.87c.86.18,2-.31,2.06-.93s.52-.75.91-.86c1.26-.37,2.53-.7,3.81-1a3.29,3.29,0,0,1,1.38.19c.62.16,1.22.43,1.84.57a1,1,0,0,0,.69-.21c1.43-1.12,2.81-2.3,4.26-3.39.83-.62,1.78-1.07,2.67-1.61.72-.44,1.42-.91,2.13-1.36,2.21-1.42,4.4-2.87,6.64-4.24a9.08,9.08,0,0,1,2-.66l.12.23-1,.9a1.34,1.34,0,0,0,1.76-.31c.86-.81,1.49-.74,2.29.31l-.92.85.58.71L270,55.34h3.11l.52,1.34a15.12,15.12,0,0,0-2.33,1.58c-.33.31-.26,1-.42,1.79l1.11-.44,1.09,1.27,1.8,1,.62-.29a1.23,1.23,0,0,1,.17.21c.08.17.11.46.23.51,1.47.59,1.39,2,1.61,3.18a5.72,5.72,0,0,1-.81,3.64,12.57,12.57,0,0,0-.57,1.7l.77.23c1.26.35,1.46.71,1.21,2a5.2,5.2,0,0,0-.07,1.65,8.28,8.28,0,0,1-1.75,5.91,8.24,8.24,0,0,0-.71,2.28l1.33.21-1.24,1.5c2.44-.39,4.13.76,5.93,1.75-.7,1-1.17-.57-1.86.21a5,5,0,0,0,1.3.75,1.59,1.59,0,0,1,1.32,1.77l-1.13.14-.07.27,2.63,1.7.16-1h.17a3.47,3.47,0,0,1,.49,3c-.35,1-.54,2-1,3a3.49,3.49,0,0,0-.18,2.65,6.34,6.34,0,0,1-.47,4.55c-.83,2-1.77,4-2.69,5.94a5.25,5.25,0,0,0-.81,3.25.88.88,0,0,1-.12.56q-1.36,2.25-2.74,4.48c-.31.5-.89.89-.68,1.72,2.09-.27,3.65.8,5.16,2,.66.54,1.19,1,.8,1.94-.05.12,0,.31,0,.26,1,.63,1.82,1.21,2.7,1.7a2.86,2.86,0,0,0,1.39.44c2.73-.09,4.65,1.38,4.93,4.13a5.62,5.62,0,0,1-.77,2.85,35.75,35.75,0,0,1-2.67,4.49c-1,1.4-2.18,2.66-3.25,4a3.61,3.61,0,0,0-.42,1c-.37,1-.63,2-1.67,2.52a.8.8,0,0,0-.39.52c-.2,1.78-1.39,3-2.48,4.21-2.1,2.34-4.25,4.64-6.48,6.86-1.28,1.28-2.77,2.35-4.15,3.52-.21.18-.41.38-.76.72,1.26.46,1.87,1.83,3.26,1.48.73.85,1.46,1.61,2.08,2.46a2.2,2.2,0,0,0,1.79,1,1.33,1.33,0,0,1,.66.11,7.08,7.08,0,0,1,2.66,3.15c.43,1.11-.13,2.13-.63,3.15-.74,1.5-1.38,3-2,4.58a2.77,2.77,0,0,0-.05.83c1.82.08,3.91-.56,4.58,1.63,1.59,1,3,1.93,4.41,2.82a3.53,3.53,0,0,0,.88.34,9,9,0,0,1,5,3.6,3.65,3.65,0,0,1,.23,3.72c-.33.74-.82,1.4-1.17,2.13a6.6,6.6,0,0,0-.73,2,10.21,10.21,0,0,1-2,4.3c-.17.27-.34.55-.6,1,1.19.13,2.17.23,3.15.35a5.09,5.09,0,0,1,2.58,1,16.41,16.41,0,0,0,2.42,1.25,14.41,14.41,0,0,1,1.91,1.11,42,42,0,0,1,3.37,2.71,41.22,41.22,0,0,1,3.19,3.26,1.76,1.76,0,0,1,.36,1.36c-.47,2-.84,4.15-2.38,5.75a2.34,2.34,0,0,0-.7,1.74,4.09,4.09,0,0,1-1.36,2.83c-.74.76-1.56,1.44-2.56,2.36a3.07,3.07,0,0,0,1,0,9.32,9.32,0,0,1,5.23-.65,4.12,4.12,0,0,1,1.41.6.78.78,0,0,1,.25,1.19c-.7,1-1.49,1.91-2.17,2.91-.53.77-.85,1.69-1.42,2.43a30.62,30.62,0,0,1-2.37,2.51,32,32,0,0,1-2.66,2.62,28,28,0,0,1-3.09,2c-.36.22-.81.28-1.15.51a27.24,27.24,0,0,1-8,3.5c-3.05.86-6.13,1.62-9.21,2.41-2.64.67-5.27,1.4-7.93,2-1.85.38-3.74.91-5.65.52a8,8,0,0,1-2.39-1.18,12.94,12.94,0,0,1-3.84-3.77,5.49,5.49,0,0,1-.95-5.33,8.42,8.42,0,0,0,.23-1c-.79-.07-1.49-.12-2.19-.2a42.26,42.26,0,0,1-5.29-.71,9.18,9.18,0,0,1-5-2.92c-.94-1.12-2-2.12-3-3.18a1.23,1.23,0,0,1-.25-.3,37.7,37.7,0,0,1-2.43-5.48,13.19,13.19,0,0,1-.07-4.54,7.69,7.69,0,0,1,.88-2.1c.1-.23.16-.48.31-.93a17.14,17.14,0,0,0-1.72.29,15,15,0,0,1-7.52.27,9.82,9.82,0,0,1-5-2.78,11.85,11.85,0,0,1-2.81-3.37c-.57-1.34-1.19-2.65-1.88-4.19-1.5.39-3.11.74-4.67,1.24-3.29,1-6.56,2.11-10.05,2.18a27.73,27.73,0,0,1-4-.08,8.64,8.64,0,0,1-5.08-2.86A10,10,0,0,1,191,199.4a30.43,30.43,0,0,0-1.1-3.12,3.79,3.79,0,0,0-1.16,0c-3.28.93-6.52,2-9.82,2.83a81.57,81.57,0,0,1-8,1.63,18.42,18.42,0,0,1-8.3-.26,3.5,3.5,0,0,1-1.23-.71c-1.65-1.44-2.46-3.49-3.68-5.24a1.56,1.56,0,0,1-.27-.73,5.74,5.74,0,0,0-.83-2.93v-.28c0-.09.07-.1.12-.16l1.06.4.18-.17-.56-1.08.89-1a17.41,17.41,0,0,0-5.82-.35c-4.12.56-8.1,1.8-12.21,2.41A28,28,0,0,1,133,191c-1.82-.2-3.68-.15-5.51-.27a9.07,9.07,0,0,1-7.65-4.45,3.48,3.48,0,0,0-.25-.41c-.86-1.05-.68-1.86.78-2.92.26-.26-.51-1,.35-.88l-.82-1.35c.54-.49,1.79.39,1.63-1l-1.37.39-.09-.27c.52-.24.75-1.07,1.61-.5-.31-2.19-.31-2.19.59-2.38l.81-1.53.24-2.3,1.66.65.46-.81-.16-.14-.63.33c0-.12-.11-.26-.07-.3.72-.87,1.52-1.68,2.17-2.6a3.63,3.63,0,0,1,2.12-1.16c.19-.06.26-.47.36-.66a9.51,9.51,0,0,0,3.84-1.85c-1.07-.35-1.2-.32-3.5.67-2-2.34-4.59-4.3-6-7.18l.17-.21,1.15.89a15.68,15.68,0,0,0-.42-1.54c-.73-1.84-.61-2.41.83-3.73a3.58,3.58,0,0,0,.38-.51l-.5-.84-.9.42.86.63-1.27.1.08,1.09-1.85-.23-.17.32-.18-.08L123,154l.86.28c.15-.63.4-1.15,0-1.78a2.7,2.7,0,0,1-.27-1.4c0-.22.31-.44.49-.67l.2.08v-2.28l.55.28c-.22-.77-.43-1.43-.6-2.1a2.27,2.27,0,0,1,0-.81,18.66,18.66,0,0,0,.31-2.23c0-1,.34-1.48,1.31-1.65a13.76,13.76,0,0,0,1.39-.39l-.19-.15c.48-.83.94-1.68,1.46-2.48.11-.16.48-.15.74-.21l.31-.05,2.32-.89-.4-1.19a4.13,4.13,0,0,0,2.56-2.19l3.21-2.07.12.09-.58.89,1.13.47c.31-1.11,1.38-.68,2.12-1,.14-.06.35.06.48,0,.86-.48,1.71-1,2.57-1.48l0-.27-1.41.2c-.11-.33-.11-.33,1-.65v-1c-3.16,1.4-6.11-.35-9.19-.4l1.29-.58-5-2.43v-.24c1.08-.52.53-1.28.43-2l-1-.12a2.65,2.65,0,0,0-2.88-1.64,1.71,1.71,0,0,1-.86-.33c-.19-.1-.34-.39-.51-.4-.72,0-.91-.52-1-1.19l-.88.18c.38-1.09,1.32-.6,1.77-.86a10.9,10.9,0,0,1-.17-1.5c0-.08.47-.15.78-.25v-.85l.57.1.17-.56.12.22c.54-.23,1.06-.48,1.61-.68s1.29-.3,1.37-1.33l-.87.42-.86-1.18,1.38-.79c.86.37.85,1.17.86,2.1,1-.82,1.85-1.89,3.08-.77.21-.32.38-.86.61-.88a1.83,1.83,0,0,1,2.16,1l.69-1.2-.73.15-.11-.17c.16-.13.32-.37.49-.39.87-.06,1.75-.1,2.63-.08.58,0,1-.18,1.06-.75s.2-1.41.3-2.12l-.26-.15L141,109l-1-.75.78-.15v-1l2-.27c.13,0,.32-.06.35-.13.49-1.36,1.7-.74,2.6-.95a3.59,3.59,0,0,1,.55,0l-.24-1.49c.47-.24.7-.55.19-.82a8.34,8.34,0,0,1-2.11.81,17.39,17.39,0,0,1-2.94-.25c-.29-.54-.87-.71-1.6-.22,0,.66,1.22-.21.91.95l-2.08-.29c-.7-.09-1.19.32-1.22,1.25l-.88-.72c-.49.51-.87,1-.23,1.79.36.43.14.84-.34,1.23l-1.07-1.21.48-1.21a2.91,2.91,0,0,0-3.16.25c-.23.19-.74,0-1.2,0v-1.76c.75-.21,1.57-.39,2.36-.68.25-.09.4-.47.62-.75.57.41,1,.22,1.31-.58.8.37,1.4.27,1.73-.68a2.29,2.29,0,0,0-.72-.07c-1.18.29-2.36.6-3.53.93-1,.28-1.22.12-1.25-1.14l7.22-3.05c.14-.84-.07-1-1.14-.9a81.93,81.93,0,0,1-8.45.65,50.64,50.64,0,0,1-6.51-1c-1.5-.22-3-.31-4.52-.49-.57-.07-1.13-.25-1.7-.33-1.11-.16-2.24-.24-3.34-.45a14.65,14.65,0,0,1-1.77-.66,5.58,5.58,0,0,0-1-.12c.23-.86.2-1.7-.87-1.84l.83-1.41,1.15-.14-.15-1.57,2.21-.28.53-1.08.46.5,1.35-1a11.76,11.76,0,0,0,2.52.75c1.4.09,1.61-.24,1.57-1.79l1.25.24v.16l-.74.35c.33.71,1,.64,1.56.67L120.12,91l.22.14.53-.62.46.37.71-1.28,1.65.1.67-1.16-1.11-.06Zm43.34-23.13c.25-.47.36-.92-.31-1.22.29-.11.54-.12.67-.26a2.71,2.71,0,0,0,.32-.77l.63.84.55-.36-1-1.2-3.2,1.1.89,1.24.53-.83a6.72,6.72,0,0,0,.46,1,1.91,1.91,0,0,0,.54.38l-.5.85-.78-.19-.22.63-.47-.26v.84l-2,.62c.29.26.44.51.61.52h3l.22-.75.17.18,1.05-.58a2.66,2.66,0,0,1,.8-.37c1-.13,1-.2,1-1.2a3,3,0,0,1,.19-.76c.8,1.38,1.82.56,2.75.56l-.24-.81c1.52,0,1.8-1.6,2.87-2.08l.88.59.15-.21L174,61.51l.49-.8a6.21,6.21,0,0,0,3-1.31l-.86-.58-.39-1.37H174L172.29,59l-1.21-.79c.58,1.21,1,2.33-.45,3.2-.81.47-1.29,1.61-2.52,1.22-.07,0-.2.12-.42.27l1,1.15h-2c0,.57-.06,1-.72.82a1.73,1.73,0,0,0-.77.27Zm20.38,19.62-.17-.17a9.74,9.74,0,0,0-1.19.37c-.48.22-.91.55-1.4.75-1.13.46-2.27.89-3.42,1.3s-2.09,1.46-3.42,1.6c-.17,0-.32.22-.49.3-1,.48-2,1-3,1.41-.49.23-1,.43-1.48.64l-1.32.56c-.44.19-.86.41-1.29.61l.09.28.91.34-.76.66c-.54-.27-.29-1.15-1.18-1l.27.44.28.39-1.16.25.41,1.72c-1.4-.45-2.18.5-3.18,1.13v1.9l-3.44-.32L159.83,99l-.52-.44-.45.34a3.92,3.92,0,0,0-1.2,0,4.78,4.78,0,0,0-1.25.68,6.41,6.41,0,0,0-.77.75l1.3.36c-.68.68-.91,1.23,0,1.83.52.36.37.85,0,1.24a4.13,4.13,0,0,1-.51.36v.4c1.22-.78,2.27.52,3.51-.07l.23-1.09,1.12,1.7.93-.78c.53.22,1.2.64,1.33.52.64-.64,1.3-.14,1.93-.19s1.19-.14,1.21-.94l.14-.16.43.62c.93-.37,1.83-.7,2.7-1.07.37-.16.67-.48,1-.62s1.17-.14,1.5-.65a2.28,2.28,0,0,1,2.47-1.24v-.76l1.25.2c.95-.68.38-1.34.1-2.1a1.86,1.86,0,0,1,.95.41,1.45,1.45,0,0,0,1.47.26,2.07,2.07,0,0,1,.78-.33c.93-.08,1.74-.6,2.76-.52A10,10,0,0,0,185,97.2a1.88,1.88,0,0,0,.3-.13v-.81l-.84-.53.1-.14,2.58.16V93.81l.95.86v-.76c1.44-1.33,3-.37,4.23-.45l.62,1.33c1.31-1.23,2.53-2.19,4-2.14l1-.87c.23-.56.37-1.3.57-1.32,1-.1,1.06-.73,1.07-1.47,1.09.44,1.23.23,1.26-1.61-.44-.28-1.06-.46-1.13-.77A2.14,2.14,0,0,1,201,84.1c.23-.12.53-.35.56-.56a13.77,13.77,0,0,0,0-1.75L198.07,81l-.42.65c-.75-1.52-1.67-.07-2.53-.25l-.41,1-1.17.23-.22-.76c-1.09-.1-1.89.63-2.82,1a15.44,15.44,0,0,1-3,1.05c-.83,0-1.55,0-1.92.84ZM136.31,66.63l-.73-.64.13-.2,2.15.43,1.39-.86-.49-1.17c-1.55.46-1.55.46-1.91,0,.34-.27.71-.78,1-.75,1.1.11,1.26-.62,1.4-1.36.21.23.36.5.58.59a2.11,2.11,0,0,0,.78,0v2c.29-.37.46-.81.68-.83a17.4,17.4,0,0,1,2.18,0c.36-.83.56-.93,1.88-1L146,62l2.42-.39c.31-.52.61-1,1.57-.78.46.13,1.12-.38,1.66-.66s1.1-.76,1.7-1a7.59,7.59,0,0,1,1.6-.32c.4-.12.77-.43,1.18-.52s.66.18,1,.29a.89.89,0,0,0,0-.41.53.53,0,0,1,.46-.82c1.62.09,1.66-1.59,2.85-2.2l.66.14.15-.7,1,.07.46-1.41a3.69,3.69,0,0,0,1.06-.08c1.06-.47,2.1-1,3.18-1.52V51.4l1.75-.36.27.42.36-.11.36-1.57c.93-.65.54-1.52.25-2.42h.47a1.49,1.49,0,0,0,1.86-.22,24.52,24.52,0,0,1,2.53-1.46l.31.43,1-.79-.56-1.06h-.25l-.46.94a9.52,9.52,0,0,0-1.17.35c-.94.42-1.85.91-2.81,1.3a2.6,2.6,0,0,1-1-.05v-.24c.74-.07,1.29-.35,1.29-1.12l.72-.08v-.55c.36-.36.61-.63.88-.87s.56-.43.93-.71l.32,1.6c1.19-.75.71-1.77.79-2.73l-1.25.45-.53-.62-2.42,1.62v1.2a1.31,1.31,0,0,0-1.81.4l-.07.13c-1.16-.17-2,1-3.1.74a3.28,3.28,0,0,1-.24.42c-.3.39-.61.75-1.22.54a1.27,1.27,0,0,0-.72,0,6.89,6.89,0,0,0-1.13.44,5.8,5.8,0,0,0-.7.46,3.7,3.7,0,0,1-.91.59A9.32,9.32,0,0,0,157.57,50a3.26,3.26,0,0,1-1.11.28c-.1.12-.28.54-.56.62-.46.13-.67.3-.65.79,0,.11-.17.25-.28.35-1.11,1-2.8.8-3.89,1.88a2.85,2.85,0,0,1-2.1.63,1.07,1.07,0,0,0-.81.43,4.21,4.21,0,0,1-1.85,1.57l-.88-.42c0,.89-.67.86-1.23.9l-.31.77c-1.15.55-2.65,0-3.38,1.38,0,.09-.22.1-.34.16-.87.41-1.49,1.34-2.61,1.22a.91.91,0,0,0-.16.11l-1.28,1.09-.32-.66-.11.3c-2.33.22-4.14,2.41-6.74,1.62l.51.32-.42.38.67.21-1,1.3-1.27-.3-.11.93c-.91.16-1.9-.44-2.57.53l-1.4-.77-2.16.41c-.23-.38-.52-.62-1-.08-.2.23-.55.54-.78.51a6,6,0,0,0-3.39.87.5.5,0,0,1-.26-.05l-.15-1a5,5,0,0,1-.68.35,6,6,0,0,1-2.33.64A1.47,1.47,0,0,0,111,68c1.09.43,1.15.57.89,2.42l1.87.37.14.45c.2,0,.48-.18.54-.11.85.92.85-.08,1.12-.5,2.38.14,4.75,1.08,7.13.18l1,.9c.46-.43.9-.76,1.44-.2.09.09.37.05.54,0,.51-.1,1-.24,1.51-.36-.12-1.43,1.88-.74,1.9-2l.9.43.66-.82h2.24a.8.8,0,0,0,.57-.4,8,8,0,0,0,.34-1.18c.88-.74,1.9.45,2.47-.6Zm-3.89,21.55a3.07,3.07,0,0,0-.57,3.81c-.53.74-.85,0-1.39-.41l.19,1.07,1.77.49.44-1,.8,1.24h3.69c.22-.56.74-.29,1.2-.32a7.72,7.72,0,0,0,1.42-.31,6.92,6.92,0,0,0,.72-.27l.1.25-.67.48,1.56.11-.14-.58,2,.31A4.24,4.24,0,0,0,144,91.9c0-.55.35-.72.79-.82.62-.13,1.24-.28,1.86-.38a1.43,1.43,0,0,1,.53.05c.17.57.17,1.08.42,1.26.5.38.64-.32,1-.49a2.25,2.25,0,0,1,1.22-.35c.85.11,1,0,1-.82a3.52,3.52,0,0,0,1,0,11.06,11.06,0,0,0,1.41-.66l.41.69,1.3-.52-.38-1.42,2.38.77.47-.74c1.63.89,2.83-.33,4.08-.94a3.25,3.25,0,0,1,2.16-.65l.37-1.6c.61-.11,1.18-.06,1.5-.31s.14-.79.18-1.17c2.41,1.11,2.67,1.07,3.49-.6,1.16.29,1.53-.83,2.29-1.28,1.13.25,1.41.13,1.89-1a.82.82,0,0,1,1-.57,4,4,0,0,0,2.37-.67c.79-.48,1.26-1.62,2.49-1.31.07,0,.24-.33.35-.5l-1.36-1.27-.33.15-1.09-1.35h-.25c0,1-.52,1.24-1.33,1.06a3.71,3.71,0,0,1-.69-.18,1.21,1.21,0,0,0-1.36.13c-.39.29-1.07.67-1.35.52-.72-.38-1.32.1-2-.11L169.72,78c-.2.07-.38.11-.55.19a4.63,4.63,0,0,0-.44.24v.2l1.17.08.12.19a3.77,3.77,0,0,1-.95.61c-1.07.29-1.71-.46-2.5-1.29-.16.26-.42.49-.37.63a12.82,12.82,0,0,0,.61,1.41l-1,.61-.75-.92-.15.1,1.08.1.13-.24-1.38-1.09c-1,1.35-2.26,1.44-3.75.85l.35,1c-1.08-.17-2-.22-2.69.72l-.34-.79-1.14.8a1.28,1.28,0,0,0-1.81,0l-.06.07a35.48,35.48,0,0,1-4.07,1.65h-1.36l.09,1.21-2.86-.15a1.88,1.88,0,0,1-.62.46c-1.79.51-3.58,1-5.39,1.44a13.38,13.38,0,0,1-2.14.08,15.39,15.39,0,0,0-1.83.22c-.61-.4-3.32.75-3.69,1.9l-1.14-1.08ZM196,138.69c2.47-.89,5-1.42,6.43-4.13h-.84a2.28,2.28,0,0,1,.32-.7c.9-.87,1.82-1.74,2.78-2.54.23-.19.65-.17,1-.24l.09.23-.33.63c.85-.68,1.68-1.32,2.46-2,.19-.17.16-.56.3-.8A5.06,5.06,0,0,1,209,128a13.47,13.47,0,0,1,1.49-1.18c.56-.41,1.13-.79,1.71-1.17s1.61-.4,2.26-1.16a14,14,0,0,1,2.5-1.87l-.4,1.51c1.54.2,2.21-1,3.3-1.39l-.07-.33-2.33.14c-.48-.46.1-.83.46-1.2.55-.57,1.13-1.1,1.72-1.63.29-.26.6-.49.9-.74l.15.2-.76,1,.21.24a9.17,9.17,0,0,0,1.17-.88c.8-.82.88-.84,1.74-.1h1.31l.29-.61h-1.77c.23-1,.77-1.49,1.42-1.32,1.22.31,1.87-.66,3-1l-.74-.31c.62-.84,1.46-.79,2.29-.87l.18.8.55-.78c0-.48-.6-1,.07-1.41.61.91.79.92,1.42.1.44-.56.89-1.11,1.38-1.71,1.12.85,1.42-.24,1.92-.82a4.22,4.22,0,0,1-1.12,0,1.43,1.43,0,0,1-.79-.58c-.43-.74-1.08-.79-1.61-.06a9.89,9.89,0,0,1-.68.78,7.11,7.11,0,0,0-.93,1,2.63,2.63,0,0,1-1.81,1.46,3.67,3.67,0,0,0-1.75.78c-.79.75-1.41,1.67-2.61,1.86a1,1,0,0,0-.59.6,1.54,1.54,0,0,1-1.56,1.1,3.5,3.5,0,0,0-2.27,1.19c-.77.67-1.45,1.45-2.24,2.25-.52-.84-1.06,0-1.69.22-.13-.93.53-1.29,1.06-1.74l2.45-2.14c.6-.53,1.18-1.08,1.81-1.57,1-.78,2.12-1.47,3.12-2.28s2.26-1.92,3.33-2.95a3.32,3.32,0,0,0,.8-1.39,1,1,0,0,0-.33-.93,1.08,1.08,0,0,0-1,0,18,18,0,0,0-2.22,1.57c-1.77,1.48-3.46,3-5.25,4.49-1.05.86-2.26,1.51-3.34,2.35-2.36,1.83-4.68,3.71-7,5.56-.81.64-1.66,1.23-2.48,1.87q-2.77,2.15-5.52,4.32c-1,.82-2.1,1.64-3.09,2.53a4.32,4.32,0,0,0-.67,1.13l.26.21a17.73,17.73,0,0,1,1.61-1,16.53,16.53,0,0,1,1.73-.61l-.06-.08,1.18-.61L201,132l1.24-.32c-.8,1.11-1.82,1.34-2.48.61a116.29,116.29,0,0,0-15.58,9.35c0,1-1.05,1.13-2,1.37l.53.59c-1,.62-2.43.56-2.57,2.37l-.78-1.06-1.26,1.83-.66.16,1.58.66c-.09-.87.2-1,1.09-1.17a12.06,12.06,0,0,0,3-.86,8.78,8.78,0,0,0,1.74-1.33,1.14,1.14,0,0,1,1.57,0,2.87,2.87,0,0,0,1,.31l.14-1.83c.74-.42,1.65.44,2-.64a1.94,1.94,0,0,1,.55.25,1.69,1.69,0,0,1,.27.52l1-.21c.12-1,.92-1.27,1.7-1.54a8.25,8.25,0,0,1,1.4-.23l.05-1.09,1.62-.85ZM110,41.11a2,2,0,0,0-2.49-.56,28,28,0,0,0-8.63,5.52,3.36,3.36,0,0,0-.44.67l.2.17.86-.71v.23h3.73l-.35.84a6.09,6.09,0,0,1,1.16-.65c1-.27,2-.46,3-.69.12.67-.42.81-1,.91l.22.8a9.16,9.16,0,0,1,.79-.7c.25-.17.56-.43.82-.41.79.05,1.57.27,2.36.34,1,.09,2.1.95,2.85-.47a2.28,2.28,0,0,0,2.27-.38c0-.47-.1-1,.08-1.14.71-.7,1.44,0,2.19.1l.31-.53-1.81-.18c1-.77,1.86-.94,2.22-.37a1.4,1.4,0,0,0,1.6.5c.6-.13,1.25-.16,1.88-.24a2.16,2.16,0,0,0,.81-.3c.28-.12.85-.29,1.33-.44a.85.85,0,0,0,.12.36,1.92,1.92,0,0,0,.11.22l1-1.05c0-.76.1-.79,1.25-.42l3.56-1.6v-.42l.18.14a13.56,13.56,0,0,0,1.06-.93c.32-.34.82-.84,1.37-.17,1.15-1.44,1.15-1.51,0-2.44l.44-.47-.45-.41,2.29-2.63,1,.58.53-1.21.73.07.29-1,2-.25a1.22,1.22,0,0,0-1.87-.86,5,5,0,0,1-2.26.72,2.72,2.72,0,0,0-2.44.94c-.36.46-.82.86-1.2,1.36s-1.69.4-2.26-.12c-1,.65-1.81,1.68-3.18,1.67l-.44.68h-2.31l-.28,1.15-1.06-.46v.52L119,37l-.22,1-1-.5c-.56.9-1.41.69-2.23.69a4.14,4.14,0,0,0-1,.24v.22h-1v.88h-1.36l.63.9Zm111.49,99.71.11.09c2.11-1.17,4.19-2.39,6.34-3.49a29.74,29.74,0,0,0,5.64-3.58,1.82,1.82,0,0,1,.67-.39,1.42,1.42,0,0,1,1.68.39c-.69.44-1.07,1.36-2,.78-.95,1-.19,2-.29,3.2a3.34,3.34,0,0,0,1.14,0,16.73,16.73,0,0,0,1.79-1.29,8.26,8.26,0,0,1,1-.71c.63-.33,1.36.07,2.06-.34.87-.51,1-.68.53-1.59.7-.89.8-.9,2.36-.27l.8-2.25.85.1.39-.77c.75.09,1.26,0,1.29-.88a1.79,1.79,0,0,1,1.31-1.84c.18-.05.33-.26.48-.4.79-.73,1.55-1.49,2.38-2.18a23.91,23.91,0,0,1,2-1.44,2.52,2.52,0,0,1,1.74-.67,3.39,3.39,0,0,0,2-.65,4.9,4.9,0,0,0,1.45-1.83,3.33,3.33,0,0,1,1.92-1.59c.86-.36,1.39-.74,1.28-1.61,2.09-.73,3.19-2.31,4.15-4.11l-.7.07.18-2.16h-.39a17.86,17.86,0,0,1-3.51,2.28,2.23,2.23,0,0,0-.83.67,12.37,12.37,0,0,1-4,3.44c-.16.08-.27.26-.41.39a8.94,8.94,0,0,1-2.31,2.1c-.72.35-1.17,1.22-1.76,1.84-.29.31-.58.73-.94.82a21.59,21.59,0,0,1-2.67.35c.33-.62.54-1,.73-1.41a3.91,3.91,0,0,0,.47-1.15,1.49,1.49,0,0,0-.25-1.15c-.21-.17-.83,0-1.13.16-1.55,1.06-3.07,2.17-4.59,3.28-1.31,1-2.64,1.88-3.91,2.88a19.48,19.48,0,0,0-3.65,3.16,17.32,17.32,0,0,1-2.71,2.72l-4.78,4L223.5,139Zm-68.8,9.32a3.69,3.69,0,0,1,1.18-.2,3.86,3.86,0,0,0,2.47-.49.31.31,0,0,1,.19,0c1.4.36,2.43-.67,3.64-1a4.73,4.73,0,0,0,1.16-.43,5.59,5.59,0,0,0,.85-.74l-.12-.17,5.44-2a6.31,6.31,0,0,1,1.2-1.16c1.21-.62,2.49-1.11,3.7-1.72.86-.42,1.82-.74,2.26-1.73l.23-.1.17.54,7.34-3,.07-1.12c1.55.87,2.52-.48,3.78-.62l-.07-.31-2,.46a1.47,1.47,0,0,1,1.53-1.83,6.09,6.09,0,0,0,1-.17l-.1-.78a6.79,6.79,0,0,1,1.23-1,10.86,10.86,0,0,1,1.55-.38c.13,0,.22-.23.34-.34a3.19,3.19,0,0,1,.42-.3l1.39-.83c.09,0,.59.06.73-.13a8.84,8.84,0,0,0,.74-1.71l2.15-.32c0-.52,0-1.25.7-1.45l.17,1.31c.5-.39,1-.56,1-.82.2-.86.8-1,1.61-1-1.06-.67-.82-1.41-.27-2.21h.93c.11-.69.26-1.35.32-2s1-1,.33-1.87c-.35.41-.76.69-.85,1a1.25,1.25,0,0,1-1.13,1c-.37,0-.74-.21-1.05.07s-.72.77-1.15,1.24c.86.41-.16.6-.13,1a1.09,1.09,0,0,1-.49.88c-.21.1-.61-.2-1.06-.37l-.43,1.14-1-.25a13.17,13.17,0,0,1-2.86,1.91,21.9,21.9,0,0,0-4.94,2.84c-.21.13-.3.45-.51.8l-.79.68-.27-.5-2,1.74h-.5v.77l-2.88,1.79.38-1.53c-.53.27-1.13.45-1.12.58a6.12,6.12,0,0,0,.53,1.46l-1.08-.85-1.55.42.51,1.11-.79.9-.16-.12L175,137l-.23-.21-3.34,1.94c-.25.15-.47.35-.73.48-2.23,1-4.45,2.1-6.7,3.1-2,.9-4.1,1.72-6.17,2.55-.58.24-1.2.4-1.85.61l.37.83a1.17,1.17,0,0,1-1.25.87,6.28,6.28,0,0,0-1.93.53,10,10,0,0,1-4.74.89,1.61,1.61,0,0,0-1.79.92l.67.92.42-1,1.32,1.33c1.35-1.22,2.6-.56,3.92-.08ZM221.6,81.8c.57-.57,1-1.37,1.68-1.58.86-.27,1-.89,1.35-1.43L224,77.64l1.2-.55.46,1.17L228,75.89l-.17-.2-.93.09.12-1.24,1.15-.38.35-1.54a10.3,10.3,0,0,0-1.24.74c-.67.56-1.3,1.17-2,1.74-.4.35-.82.69-1.23,1l.18.26-3.14,1.27-.33.68-.39-.88c-.22.17-.45.36-.69.51a14.15,14.15,0,0,0-1.41.9c-.74.57-1.49,1.16-2.21,1.74-.91.72-2.06,1.21-3,2-1.12.88-2.35,1.62-3.53,2.42-.95.64-1.9,1.27-2.82,1.94a1.76,1.76,0,0,0-.52.77,1.57,1.57,0,0,1-1.7,1h-1.64l.39,1c-.71.67-1.65,1.18-1.94,1.95-.4,1-.91.88-1.57.62l-.38,1a5.24,5.24,0,0,0-1.12.34,10.9,10.9,0,0,0-1.21.93c-.24.2-.45.42-.67.63l-.86.81-.15-.13-.41.87L194,97c.65.48,1.06,1,.61,1.62s-.82,1.05-1.58.6a2.42,2.42,0,0,0-.56,2.21c0,.07.36.11.58.17l-.07-1.31.74-.19.12,1c.72-.31,1.3-.53,1.86-.8.93-.45,2.13-.53,2.42-1.47l2.22-1,.52.36,2.35-2.26.14.72.61-.94a4.46,4.46,0,0,1,1.87.23c1,.16.71-1.19,1.47-.92.11-.75,0-1.72.38-2s1.39-.19,2.18-.26c0-.08.12-.26.07-.38-.29-.63-.11-1,.57-1.12.11,0,.2-.15.27-.26a7.13,7.13,0,0,1,3-2.32,3.72,3.72,0,0,0,1.47-1.22,29.85,29.85,0,0,1,2.36-2.67,1.32,1.32,0,0,1,.69-.31c.49-.09,1-.13,1.44-.19a2.28,2.28,0,0,1,2.22-1.77Zm-61.48,57.6c7.19-4.57,14.59-8.52,21.24-13.65l.29.22-.55,1.5.67.48a15.33,15.33,0,0,0,4.07-2.66l-.17-.35-1.2.47-.37-.31.05.85h-1.6c-.05-.34-.26-.76-.14-1a3,3,0,0,1,3-1l1-1.87,1-.16v-.27a2.17,2.17,0,0,0-.7,0,16.77,16.77,0,0,0-2.43,1c-2.55,1.41-5.07,2.87-7.61,4.32-.79.45-1.54,1-2.35,1.36a162.91,162.91,0,0,0-14.82,8c-1.41.86-2.85,1.67-4.22,2.59-1.94,1.29-3.84,2.65-5.74,4-.35.25-.66.55-1.12.94a2.18,2.18,0,0,0,.58.1,27,27,0,0,0,6.66-2.38c1.3-.71,2.62-1.4,4-2.07a1.08,1.08,0,0,1,.43-.11Zm17.55-32.73h-2l-.22.51c-1,0-1.57.78-2.1,1.35a10,10,0,0,0-4.68,1.07c-1.22.5-2.42,1.08-3.66,1.53-1,.36-2,.58-3.06.86-.25.07-.51.08-.76.14l-2.55.55c-.77.16-1.55.28-2.32.46a5,5,0,0,0-1.21.44c-.53.28-1,.64-1.61,1a1,1,0,0,0,1.07.92h.1l.45-1.32.22.05v.93l1.5.55A1.58,1.58,0,0,0,159,115a1.56,1.56,0,0,0,.08-.18c.08-.17.17-.33.29-.54l2.19.86a2.37,2.37,0,0,0,.3-.19,1,1,0,0,0,.25-.29,1.64,1.64,0,0,1,2.86-.45l2.77-2.26c1.22,0,2.56.53,3.43-.84,1.14.84,2,.65,2.69-.55l.26.67a16.57,16.57,0,0,1,1.7-1.19c.78-.42,1.39-1.27,2.46-1.07.11,0,.27-.25.42-.37a2.62,2.62,0,0,0,1-1.45,4.39,4.39,0,0,1,.59-1l.37,1.1c.91.13,1.73.15,2-1.07.07-.31.67-.55,1.06-.7a3.17,3.17,0,0,1,1,0l-.21-.72c1.26-.55,2.48-1,3.64-1.61a5.77,5.77,0,0,0,1.33-1.19c.05-.05-.1-.31-.21-.61-.35.36-.55.74-.86.87a4.34,4.34,0,0,1-1.23.12c-.06,0-.11.06-.17.09-.6.28-1.19.59-1.82.82-1.15.43-2.34.78-3,2-.07.13-.23.21-.34.31-1.16-.67-1.91.15-2.76.6l-.69-.55Zm35.47,7.19c.27-1.31.65-1.71,1.46-1.63l.1.8h.19l.73-2a9.11,9.11,0,0,0,1-.6c.75-.53,1.46-1.12,2.25-1.6a6,6,0,0,1,1.37-.47c0-.64-.1-1.17.11-1.4a15.4,15.4,0,0,1,1.94-1.65c.07-.05.27.06.41.1l-.15-1.42-2.89,2.08-.1-.13-.18.76-2.83.79c-.22.61-1.3.46-1.91,1.26a16.36,16.36,0,0,1-3.2,2.52,17.19,17.19,0,0,0-1.41,1.27c-.5.49-1,1-1.48,1.5-.18.15-.53.1-.86.16a4.93,4.93,0,0,1-2.16,2,2.55,2.55,0,0,0-.65.36c-.91.69-1.77,1.46-2.72,2.08-.64.42-1.12.83-.89,1.7-.64-.25-.72.07-.75.53s-.16,1.14-.22,1.7v.82l1.25-.41-.46-1.3,1.84-1.29.28.19L203,122a1,1,0,0,0,.58-.59,3.2,3.2,0,0,1,2.47-2,1.08,1.08,0,0,0,1.08-.8c.07-.18.11-.41.25-.52,1-.77,1.93-1.56,3-2.25a2.2,2.2,0,0,0,1.23-2.35l-1,.79c-.58-1,.8-.76.51-1.42Zm-29-38.26a10.19,10.19,0,0,1,1-.51c.81-.36,1.62-.71,2.44-1,.35-.14.81-.09,1.07-.31.77-.63,1.54-1.18,2.59-.77.12-1.41.13-1.35,1.42-1.6.52-.1,1.27,0,1.48-.78,0-.09.27-.13.41-.2a5.81,5.81,0,0,0,1.22-.57,13.4,13.4,0,0,0,1.31-1.35h.62l.16-.22-.9-.9.57-.53c-.66-.64-1.16-.45-1.72.11l.69.64-.07.2-2.49-.39v-.26a4.07,4.07,0,0,1,.63-.56,5.21,5.21,0,0,1,.87-.33,1.51,1.51,0,0,0-2.29-.37c-.75.59,0,1,.25,1.56a7.27,7.27,0,0,1-1.69,1.5,4.53,4.53,0,0,0-2.23,2.48c-.1.22-.23.43-.47.9l-1.62-1.7-.15.06.34.85-3.15.79v-.16l-1.18,1.39a8.68,8.68,0,0,1-1.27-.15c-.65-.16-1,0-1.08.69a1.77,1.77,0,0,1-1.41,1.57l.14,1.69,1.15-.36c-.08-.33-.25-.65-.16-.75a1.64,1.64,0,0,1,.86-.64,5.27,5.27,0,0,1,1.43.21l-.06-.23.65-.72Zm52.57,15.19,2.52.13c.26-1.86,1.71-2.35,3.23-2.73a3.62,3.62,0,0,1,.62-1.12,22.66,22.66,0,0,1,2.34-2.26c.32-.3.5-.76.84-1,.64-.54,1.35-1,2-1.49-.45-1-.75.13-1.13-.08s-.86-.4-1.29-.59v.26L245,82l.34-1.1A2.09,2.09,0,0,0,243,82.05a4.49,4.49,0,0,1,.45,1c0,.12-.35.3-.65.54V82.47l-.2-.2a7.92,7.92,0,0,0-1,.79c-.3.32-.45.81-.79,1.08a1.21,1.21,0,0,0-.48,1.64v0l-4.25,3.73v-.12l-.55,1.41.54.76.29-1.56h.23ZM90.5,38.34a2.81,2.81,0,0,1,.39-.29c.92-.23,1.86-.4,2.77-.69a3.81,3.81,0,0,0,1-.72l-.06-.07,1-.39v-.36l-1.45-.26c-.61,1.42-1.43,0-2.13.27-.21.18-.47.55-.65.51-1-.19-1.46.54-2.1,1a1.4,1.4,0,0,1-.7.28,7.33,7.33,0,0,0-1.48,0,29.89,29.89,0,0,0-2.82,1c-.34.13-.66.32-1.18.58.26.24.49.64.79.69a22.19,22.19,0,0,1,3.9,1.23,2,2,0,0,0,.67,0c1-.06-.53,1.63,1,1.43.72-.09,1.4.07,2-.57l-.82-.9c-.13-1,.44-1.51,1.35-1.81l-.54-.07.3-.71Zm95.79,25.24,1.93-1.18.52.73c1.34-1.44,1.38-1.62.53-2.46l-.78.31.09-.23c-.45-.23-.9-.64-1.35-.65a4.36,4.36,0,0,0-1.5.6l.51.89-4.64,2.58a1.93,1.93,0,0,0-2.71.31l0,0A3.92,3.92,0,0,1,177.12,66a16.72,16.72,0,0,0-2.63,1.34c-.82.51-1.57,1.15-2.41,1.77.92.59,1,.57,1.37-.49l.72.62.33-1c1.16-.54,2.35-1.14,3.57-1.66s2.38-.94,3.58-1.4c.24-.12.61.06.85-.05A9.81,9.81,0,0,0,185,63.7c.54-.43.85-.43,1.26-.12Zm-28.76,5c-.24.58-.45,1.28-1.43,1.46l-.13-1.2-1.4.51c.34.55,1.3.09,1.07,1.07l-1,.05-.11.66-.26.08-.56-1.1-.91.17.42.79-1.35-.8-.16,1.66-.82-.07.9.8-.1,1.56,1.35-.08-.21-.19,1.25-.9a3.45,3.45,0,0,0,1.72-.29,9.83,9.83,0,0,0,1.5-1.2c1.17.29,3.44-1,4.11-2.55l-.7-1.25-1,1.37c-.67-.39-1.25-1.18-2.19-.54ZM113.27,29.27l-.32-1-2.7,1.52-.62-1.16-1,1.53c-.89,0,.19,1.22-.68,1.22a1.44,1.44,0,0,0,1.94.62l.06,0a2.83,2.83,0,0,1,1.51-.26c1.42.17,2.36-.74,3.41-1.4.13-.08.15-.33.24-.55l-.59-.06v-.26c.24,0,.51-.13.71,0a3.68,3.68,0,0,0,3.61-.52l-.58-1.41-.68.53-.28-1C116,27.7,114.3,27.71,113.27,29.27ZM152,144.52c1.06,1.07,1.24,1.11,2.58.46,3.09-1.49,6.23-2.92,9.26-4.52,3.64-1.92,7.19-4,10.77-6,.92-.52,1.81-1.11,2.71-1.68l-.12-.29a10.1,10.1,0,0,0-1.76.59c-2.67,1.46-5.3,3-8,4.46q-5.3,2.85-10.68,5.58a20.89,20.89,0,0,1-3.18,1.11,15.15,15.15,0,0,1-1.58.27Zm32.71,4,.06-.57.81.09c.53-.45,1-.82,1.45-1.23.73-.69.92-1,.85-1.34l-.84.65v-.57h-.3a14,14,0,0,1-5.16,2,1.27,1.27,0,0,0-.39.18,16.4,16.4,0,0,1-1.51.92c-.9.42-1.85.74-2.74,1.17a4.32,4.32,0,0,0-.91.82v-.1l-.91.39.1.26c1.09.28,1.68-1,2.88-.87.94.14,1.86-1.1,3.1-.53.53-2,2.33-.68,3.51-1.29Zm72-76.8a14.24,14.24,0,0,1-2.76,2,9.71,9.71,0,0,0-3,2.6.61.61,0,0,0,0,.6c.12.14.41.12.63.17.79.17,1.19-.18,1.15-1.06l1.2.65-.25-1.21a3,3,0,0,0,3.49-2.13c1,.33,1.06-.32,1.33-1l-2,.71-.09-.24.72-.53ZM146.15,42.07l.11.21c.53-.22,1.41-.33,1.52-.68a1.23,1.23,0,0,1,1.26-.95l-.15-1.19,1.54-.64V37.69l-.27-.19a10.37,10.37,0,0,0-1.29.77c-.49.4-.9.92-1.38,1.33-.16.14-.47.11-.71.15l-.25.57-1.87-.12.84,1.51-.57,1.6.23.1Zm111.8,28c-.27.46-.63.79-.57,1a5,5,0,0,0,.62.86l3.15-1.56.08-1h.65l-.72-1.5-3.29,1.88ZM120.67,17.72a19.31,19.31,0,0,0-1.28-1.81c-.1-.11-.58,0-.79.14s-.29.47-.43.73l-.64-.26-1,.93L115.24,17c-.11.24-.17.38-.23.53s-.13.35-.18.5c-1,.25-1.08.4-.64,1.21,1-.27,2.13-.41,2.71-1.54a.84.84,0,0,1,.67-.27C118.52,17.5,119.48,17.61,120.67,17.72ZM92.87,46.53A1.32,1.32,0,0,0,92,48.31c.12.56.08,1.27.87,1.37A1.64,1.64,0,0,0,95,48.44a1,1,0,0,0-.36-.85A16.94,16.94,0,0,0,92.87,46.53Zm99.81,75.9-.06-.25-.62.56a23,23,0,0,1-1.77,1.48c-.86.6-1.78,1.1-2.67,1.66-.51.32-.35.6,0,.82l1.28-.71c1-1,1.9-2.12,3.73-1.72l-.71-.85c2.3.33,2.48.27,3.16-1Zm62-56.13c-.9.11-1.39,1-2.25.67l-.2.19a1.66,1.66,0,0,0,.61,2.86c.21-.28.35-.69.63-.82,1.22-.56,1-1.7,1.13-2.93ZM117.66,61c.37.25,1.38.15,1.52-.22s0-.56-.06-1l-.7.61-1-1.47c-1.32-.19-1.34-.21-2,.43a1,1,0,0,0-.25.81c.08.21.46.35.73.45a1.58,1.58,0,0,0,.59,0l.2,1.18.24.05Zm4.67-9.07c.06-1.08.56-1.45,1.51-1.35a5.63,5.63,0,0,0,1.38-.24l-.87-.72-2.77.8.73.26-1.14.73-.48-.89-2.52,1.63,1.35.63a3.33,3.33,0,0,1,2.81-.85ZM103.44,33.36h1.29c1-.07,2-.19,2.49-1.15a4.64,4.64,0,0,0,0-1.88l-2.1.4c.11,1,1.34.63,1.77,1.4C105.71,32.34,104.3,32,103.44,33.36ZM251.56,70.57c.27-.84-.21-1.36-1-1.78l-.84.47-.53-.41c0,.48.08.9.07,1.31,0,.74.4,1.06,1.11.83Zm-45,85.48,6.42-3.27-.17-.43a9.61,9.61,0,0,0-1,.38c-.89.45-1.76.93-2.65,1.39h-.28l.34-.45-.34-.16c-.37.52-.67,1-1,1.41s-1.25.09-1.36,1.13Zm3.89,5.28.14.19a2.13,2.13,0,0,1,.83,0c.61.25,1.05.25,1.33-.44.05-.12.24-.21.37-.28l1.85-1c-.33-.59-.6-.85-1.18-.44s-1.21.73-1.82,1.08Zm-39-91.9-3.84,2.37c.42.73.93.32,1.35.13.65-.29,1.25-.67,1.88-1,.31-.16.82-.22.92-.46s-.2-.66-.33-1Zm62.13,26c-1-.62-1-.62-1.85.49.27.83.91,1.11,1.44.68a11.4,11.4,0,0,1,1.18-.75l.18.2.58-1.9c-1.18-.19-.47,1.41-1.55,1.26Zm-27,69.33a7,7,0,0,0,3.54-2.15c-.89-.29-1.58-.43-2.21.17a3.67,3.67,0,0,0-1.32,2Zm-7.12,13.34-.12.24.66.79c1.59-.29,3.12-.56,3.81-2.43-.32,0-.72,0-.8.1a2.28,2.28,0,0,1-2,1.22c-.2,0-.38.3-.46.37Zm-44.59-19.63.1.29c.09,0,.19.13.25.11,1.47-.47,2.95-.94,4.4-1.46.22-.08.33-.45.5-.68l-.22-.29ZM122.79,91.13a2,2,0,0,1,1.72,1.47c0,.15.49.25.75.25a5.79,5.79,0,0,0,1.06-.2l.11-.25c-.39-.24-.79-.48-1.17-.74a2.26,2.26,0,0,1-.72-.54c-.53-.77-.78-.85-1.8,0ZM138,46.6l1.6-1.06.4,1a2.49,2.49,0,0,0,.27-.66c0-.39.06-.93-.16-1.14-.39-.37-.86-.16-1.3.19a4.42,4.42,0,0,1-1.15.48Z"/><path d="M302.74,50.68,302.28,49A3.23,3.23,0,0,1,305,50.78a16,16,0,0,1,1.66,3,2.42,2.42,0,0,1,0,1.45,22.75,22.75,0,0,1-.9,2.83c-.1.26-.48.4-.73.6l-.13-.15-.09.62c-.09.06-.15.11-.2.11-.35,0-.88-.08-1,.1a4.9,4.9,0,0,1-2.68,1.26c-1.42.45-2.9.69-4.31,1.14-1,.31-1.45-.13-2-.91l.74-.16c.22-.54-.19-.68-.56-.8-2.33-.79-3.89-2.63-5.68-4.15-.7-.6-1.29-1.32-2-2,.92-.3,1.24-.07,1.74,1.16.5-.35.31-1.63,1.42-1.07.29-1.22,2.15-1.53,1.56-3.15l1.16.09.33-.92c.23.14.49.22.59.39.82,1.31.81,1.32,2.35.84l.13-1.23c1.32,2.09,3.25,1.13,5,1.17A6.18,6.18,0,0,0,302.74,50.68Z"/><path d="M309.64,93.9c0-.2.12-.47,0-.56-.75-.81-.33-1.8-.49-2.71s.26-1.11,1-1.19a7.07,7.07,0,0,0,1.8-.34,3.32,3.32,0,0,0,1-.91l-.14-.28,1.52.1-.12-.82a10.52,10.52,0,0,1,1.38-.83,1.69,1.69,0,0,1,.87.05c.45.08.9.22,1.35.31a7.84,7.84,0,0,0,.85.11l1.25.09.05-.26,1.4.65-.28,1.11c.82,1.13,1.84.06,3,.21l.27,3.28.86.32v.22a5.47,5.47,0,0,1-.91.14c-.61,0-.89.21-1.07.85a3.47,3.47,0,0,1-1.8,2.5c-1.27.6-2.45,1.4-3.69,2.08a1,1,0,0,1-.72.09c-1.2-.49-2.36-1.07-3.57-1.53a14.59,14.59,0,0,0-2.05-.48l-1-2.21Z"/><path d="M268.54,53.19c-.82-.05-1.45-.07-1.8-.87-.23-.51-.76-.88-1.06-1.37-.18-.29-.35-.89-.21-1,.74-.75.89-1.92,2-2.42a3.07,3.07,0,0,1,2.8-.16c1.62.78,2.23,1.7,2.06,3a2.9,2.9,0,0,1-2.58,2.6Z"/><path d="M267.73,34.78V36.4a2.12,2.12,0,0,1-1.16,1.87,2.81,2.81,0,0,1-4-3.35,3.34,3.34,0,0,1,3.11-1.14C266.36,34.06,267,34.44,267.73,34.78Z"/><path d="M265.4,27a2.15,2.15,0,0,1,2.4,2.33,2.53,2.53,0,0,1-2.46,2.46,2.62,2.62,0,0,1-2.61-2.63q0-.09,0-.18C262.74,27.84,263.87,27,265.4,27Zm-.18,3.63c.86,0,1.91-.61,1.78-1a2.7,2.7,0,0,0-1-1.4c-.74-.49-1.17-.26-1.59.53-.12.21-.4.33-.6.51s-.36.26-.35.38a.72.72,0,0,0,.3.54c.53.19,1.11.33,1.45.44Z"/><path d="M129,109.13c.16-.8.69-1,2-.46l-.76.48,1.24.9.65-2.49c1.33.08,1,1.77,2.14,2.14l-1,.26.44.65a6.83,6.83,0,0,1-2.23.63,3.83,3.83,0,0,1-1.75-1A4.67,4.67,0,0,1,129,109.13Z"/><path d="M295,48c1.52-1.25,6.13-.62,7,.93-1.44-.58-2.68-1.37-4.2-1a6.1,6.1,0,0,1-.44.5.81.81,0,0,1-.61.22L297,48Z"/><path class="cls-1" d="M185.58,84.74c.36-.87,1.09-.8,1.84-.93a15.44,15.44,0,0,0,3-1.05c.93-.37,1.73-1.11,2.82-1l.22.76,1.17-.23.41-1c.86.18,1.78-1.27,2.53.25l.42-.65,3.53.81a13.77,13.77,0,0,1,0,1.75c0,.21-.33.44-.56.56a2.14,2.14,0,0,0-1.34,2.51c.06.3.69.48,1.13.77,0,1.84-.17,2.05-1.26,1.61,0,.74-.11,1.37-1.07,1.47-.21,0-.34.76-.57,1.32l-1,.87c-1.48,0-2.7.91-4,2.14l-.62-1.33c-1.27.09-2.79-.87-4.23.45v.76l-.95-.86v1.94l-2.58-.16-.1.14.84.53V97a1.88,1.88,0,0,1-.3.13,10,10,0,0,1-2.75.54c-1-.08-1.82.44-2.76.52a2.07,2.07,0,0,0-.78.33,1.45,1.45,0,0,1-1.47-.26,1.86,1.86,0,0,0-.95-.41c.27.76.84,1.42-.1,2.1l-1.25-.2v.76a2.28,2.28,0,0,0-2.47,1.24c-.32.51-1,.46-1.5.65a6.59,6.59,0,0,0-1,.62c-.87.38-1.77.71-2.7,1.07l-.43-.62c-.06.07-.14.11-.14.16,0,.81-.6.9-1.21.94s-1.29-.45-1.93.19c-.13.12-.8-.3-1.33-.52l-.93.78-1.12-1.7-.23,1.09c-1.24.59-2.29-.71-3.51.07v-.4a4.13,4.13,0,0,0,.51-.36c.41-.39.56-.88,0-1.24-.86-.6-.63-1.15,0-1.83l-1.3-.36a6.41,6.41,0,0,1,.77-.75,4.78,4.78,0,0,1,1.25-.68,3.92,3.92,0,0,1,1.2,0l.45-.34.52.44.82-1.11,3.44.32V96.27c1-.63,1.79-1.57,3.18-1.13l-.41-1.72,1.16-.25-.28-.39-.27-.44c.89-.13.64.75,1.18,1l.76-.66-.91-.34-.09-.28c.43-.2.86-.42,1.29-.61l1.32-.56c.44-.19,1-.41,1.48-.64,1-.46,2-.94,3-1.41.17-.08.32-.29.49-.3,1.33-.14,2.23-1.17,3.42-1.6s2.29-.84,3.42-1.3c.49-.2.92-.53,1.4-.75a9.74,9.74,0,0,1,1.19-.37Zm12.78.94a6.33,6.33,0,0,0-.36.91,2.21,2.21,0,0,1-3,1.8,1.13,1.13,0,0,0-.84.29c-.14.12-.23.58-.14.65a1.08,1.08,0,0,0,.76.23,1.54,1.54,0,0,1,1.43.27,3.73,3.73,0,0,0,1.34.46V90.1l1.51-.68v-.21l-1-.13c-.16-1.11,0-1.44.85-1.83Z"/><path class="cls-1" d="M136.3,66.61c-.58,1.05-1.6-.13-2.46.54a8,8,0,0,1-.34,1.18.8.8,0,0,1-.57.4h-2.24l-.66.82-.9-.43c0,1.29-2,.6-1.9,2-.51.12-1,.26-1.51.36-.18,0-.45.08-.54,0-.54-.56-1-.23-1.44.2l-1-.9c-2.37.9-4.74,0-7.13-.18-.27.42-.26,1.42-1.12.5-.06-.07-.34.06-.54.11l-.14-.45-1.87-.37c.26-1.85.21-2-.89-2.42a1.47,1.47,0,0,1,1.55-.72,6,6,0,0,0,2.33-.64,5,5,0,0,0,.68-.35l.15,1c.08,0,.19.08.26.05a6,6,0,0,1,3.39-.87,1.38,1.38,0,0,0,.78-.51c.46-.54.75-.3,1,.08l2.16-.41,1.4.77c.67-1,1.66-.36,2.57-.53l.11-.93,1.27.3.86-1.21-.67-.21.42-.38-.51-.32c2.6.79,4.41-1.41,6.74-1.62l.11-.3.32.66,1.28-1.09s.11-.11.16-.11c1.12.11,1.74-.81,2.61-1.22.11-.05.29-.07.34-.16.72-1.41,2.23-.82,3.38-1.38l.31-.77c.56,0,1.2,0,1.23-.9l.88.42A4.21,4.21,0,0,0,148,55a1.07,1.07,0,0,1,.81-.43,2.85,2.85,0,0,0,2.1-.63c1.1-1.07,2.78-.87,3.89-1.88.11-.1.29-.24.28-.35,0-.49.19-.65.65-.79.28-.08.46-.5.56-.62a3.26,3.26,0,0,0,1.11-.28,9.32,9.32,0,0,1,3.13-1.57,3.7,3.7,0,0,0,.91-.59,5.8,5.8,0,0,1,.7-.46,6.89,6.89,0,0,1,1.13-.44,1.27,1.27,0,0,1,.72,0c.6.21.91-.15,1.22-.54.1-.13.19-.43.24-.42,1.14.22,1.94-.91,3.1-.74a1.31,1.31,0,0,1,1.75-.6l.13.07v-1.2L172.86,42l.53.62,1.25-.45c-.08,1,.4,2-.79,2.73l-.32-1.6c-.37.28-.66.48-.93.71s-.51.5-.88.87v.55l-.72.08c0,.77-.55,1-1.29,1.12v.24a2.6,2.6,0,0,0,1,.05c1-.38,1.86-.88,2.81-1.3a9.52,9.52,0,0,1,1.17-.35l.46-.94h.25l.56,1.06-1,.79-.31-.43a24.52,24.52,0,0,0-2.53,1.46,1.49,1.49,0,0,1-1.86.22c-.09-.06-.24,0-.47,0,.28.89.67,1.77-.25,2.42l-.36,1.57-.36.11-.27-.42-1.75.36v.26c-1.08.52-2.12,1-3.18,1.52a3.69,3.69,0,0,1-1.06.08l-.46,1.41-1-.07-.15.7-.66-.14c-1.19.61-1.23,2.29-2.85,2.2a.53.53,0,0,0-.46.82.89.89,0,0,1,0,.41c-.37-.12-.73-.36-1-.29s-.78.41-1.18.52a7.59,7.59,0,0,0-1.6.32c-.6.26-1.12.71-1.7,1s-1.2.79-1.66.66c-1-.27-1.26.26-1.57.78l-2.42.39-.66.87c-1.32,0-1.51.12-1.88,1a17.4,17.4,0,0,0-2.18,0c-.22,0-.39.46-.68.83v-2a2.11,2.11,0,0,1-.78,0c-.22-.09-.37-.36-.58-.59-.15.74-.31,1.47-1.4,1.36-.31,0-.67.48-1,.75.36.42.36.42,1.91,0l.49,1.17-1.39.86-2.15-.43-.13.2ZM145,61.45a1,1,0,0,0-1.64-.26,1.87,1.87,0,0,1-1.89.6,5.18,5.18,0,0,0-1.11.11,4.17,4.17,0,0,1,.86.51c.59.65,1.12.64,1.61-.06a2.62,2.62,0,0,1,2.18-.9Z"/><path class="cls-1" d="M132.42,88.16l-.14-1,1.14,1.08c.37-1.15,3.08-2.3,3.69-1.9.76-.09,1.29-.18,1.83-.22a13.38,13.38,0,0,0,2.14-.08c1.81-.41,3.6-.92,5.39-1.44a1.88,1.88,0,0,0,.62-.46l2.86.15-.09-1.21h1.3a35.48,35.48,0,0,0,4.07-1.65,1.28,1.28,0,0,1,1.8-.14l.07.06,1.14-.8.34.79c.66-.94,1.61-.88,2.69-.72l-.35-1c1.48.59,2.73.5,3.75-.85L166,79.86l-.13.24-1.08-.1.15-.1.75.92,1-.61a12.82,12.82,0,0,1-.61-1.41c0-.14.21-.37.37-.63.79.83,1.43,1.58,2.5,1.29a3.77,3.77,0,0,0,.95-.61l-.12-.19-1.17-.08v-.2a4.63,4.63,0,0,1,.44-.24c.17-.07.35-.12.55-.19l.07-1.15c.71.21,1.31-.27,2,.11.29.15,1-.23,1.35-.52a1.21,1.21,0,0,1,1.36-.13,3.71,3.71,0,0,0,.69.18c.81.19,1.34,0,1.33-1.06h.25l1.09,1.35.33-.15,1.36,1.27c-.12.17-.28.52-.35.5-1.23-.31-1.7.83-2.49,1.31a4,4,0,0,1-2.37.67.82.82,0,0,0-1,.57c-.48,1.11-.76,1.23-1.89,1-.76.45-1.12,1.57-2.29,1.28-.83,1.67-1.09,1.71-3.49.6,0,.39,0,1-.18,1.17a4.86,4.86,0,0,1-1.5.31l-.37,1.6a3.25,3.25,0,0,0-2.16.65c-1.26.61-2.45,1.83-4.08.94l-.47.74-2.38-.77.38,1.42-1.3.52-.41-.69a11.06,11.06,0,0,1-1.41.66,3.52,3.52,0,0,1-1,0c.06.84-.1.93-1,.82a2.25,2.25,0,0,0-1.22.35c-.33.18-.47.87-1,.49-.24-.18-.25-.69-.42-1.26a1.43,1.43,0,0,0-.53-.05c-.63.1-1.24.25-1.86.38-.44.1-.75.27-.79.82a4.24,4.24,0,0,1-.43,1.15l-2-.31.14.58L140,93.19l.67-.48-.1-.25a6.92,6.92,0,0,1-.72.27,7.72,7.72,0,0,1-1.42.31c-.45,0-1-.25-1.2.32h-3.69l-.8-1.24-.44,1-1.77-.49-.19-1.07c.53.42.86,1.14,1.39.41A3.07,3.07,0,0,1,132.42,88.16Z"/><path class="cls-1" d="M196,138.68l.06.33-1.62.85-.05,1.09a8.25,8.25,0,0,0-1.4.23c-.78.26-1.58.55-1.7,1.54l-1,.21a1.69,1.69,0,0,0-.27-.52,1.94,1.94,0,0,0-.55-.25c-.34,1.08-1.25.21-2,.64l-.14,1.83a2.87,2.87,0,0,1-1-.31,1.14,1.14,0,0,0-1.57,0,8.78,8.78,0,0,1-1.74,1.33,12.06,12.06,0,0,1-3,.86c-.89.14-1.18.3-1.09,1.17l-1.58-.66.66-.16,1.26-1.83.78,1.06c.13-1.81,1.58-1.75,2.57-2.37l-.53-.59c1-.24,2-.35,2-1.37a116.29,116.29,0,0,1,15.58-9.35c.66.73,1.69.5,2.48-.61l-1.24.32.1-1.19-1.18.61.06.08a16.53,16.53,0,0,0-1.73.61,17.73,17.73,0,0,0-1.61,1l-.26-.21a4.32,4.32,0,0,1,.67-1.13c1-.88,2-1.7,3.09-2.53q2.75-2.17,5.52-4.32c.82-.63,1.67-1.23,2.48-1.87,2.34-1.85,4.66-3.74,7-5.56,1.07-.83,2.28-1.49,3.34-2.35,1.79-1.45,3.48-3,5.25-4.49a18,18,0,0,1,2.22-1.57,1.08,1.08,0,0,1,1,0,1,1,0,0,1,.33.93,3.32,3.32,0,0,1-.8,1.39c-1.06,1-2.18,2-3.33,2.95s-2.1,1.5-3.12,2.28a21.86,21.86,0,0,0-1.81,1.57l-2.45,2.14c-.52.45-1.19.81-1.06,1.74.63-.17,1.18-1.07,1.69-.22.79-.81,1.48-1.58,2.24-2.25a3.5,3.5,0,0,1,2.27-1.19,1.54,1.54,0,0,0,1.56-1.1,1,1,0,0,1,.59-.6c1.2-.2,1.81-1.12,2.61-1.86a3.67,3.67,0,0,1,1.75-.78,2.63,2.63,0,0,0,1.81-1.46,7.11,7.11,0,0,1,.93-1,9.89,9.89,0,0,0,.68-.78c.53-.73,1.18-.69,1.61.06a1.43,1.43,0,0,0,.79.58,4.22,4.22,0,0,0,1.12,0c-.5.57-.79,1.67-1.92.82-.49.6-.95,1.14-1.38,1.71-.63.82-.82.81-1.42-.1-.66.44,0,.93-.07,1.41l-.55.78-.18-.8c-.83.08-1.68,0-2.29.87l.74.31c-1.11.37-1.76,1.34-3,1-.65-.17-1.19.34-1.42,1.32h1.74l-.29.61h-1.31c-.86-.74-.94-.72-1.74.1a9.17,9.17,0,0,1-1.17.88l-.21-.24.76-1-.15-.2c-.3.24-.61.48-.9.74-.58.53-1.17,1.06-1.72,1.63-.35.37-.94.74-.46,1.2l2.33-.14.07.33c-1.08.36-1.76,1.58-3.3,1.39l.4-1.51a14,14,0,0,0-2.5,1.87c-.65.75-1.55.7-2.26,1.16s-1.15.76-1.71,1.17a13.47,13.47,0,0,0-1.49,1.18,5.06,5.06,0,0,0-.79,1.13c-.14.25-.11.64-.3.8-.78.7-1.62,1.33-2.46,2l.33-.63-.09-.23c-.33.07-.75,0-1,.24-1,.81-1.87,1.67-2.78,2.54a2.28,2.28,0,0,0-.32.7h.84C201,137.27,198.46,137.79,196,138.68Z"/><path class="cls-1" d="M110,41.1l3-.59-.63-.9h1.36v-.88h1v-.22a4.14,4.14,0,0,1,1-.24c.82,0,1.67.2,2.23-.69l1,.5.22-1,3.16.39v-.6l1.06.46.28-1.15h2.23l.44-.68c1.37,0,2.14-1,3.18-1.67.57.52,1.8.72,2.26.12s.84-.9,1.2-1.36a2.72,2.72,0,0,1,2.44-.94,5,5,0,0,0,2.26-.72,1.22,1.22,0,0,1,1.87.86l-2,.25-.29,1L136.5,33l-.63,1.2-1-.58-2.29,2.63.45.41-.44.47c1.13.92,1.13,1,0,2.44-.55-.67-.94-.28-1.37.17a12.56,12.56,0,0,1-1.06.93L130,40.5v.42l-3.56,1.6c-1.15-.37-1.22-.34-1.25.42l-1,1.05a1.92,1.92,0,0,1-.11-.22,1.26,1.26,0,0,0-.12-.36c-.48.16-.92.27-1.33.44s-.52.33-.81.3c-.63.08-1.26.11-1.88.24s-1.16.19-1.6-.5-1.23-.4-2.22.37l1.75.17-.31.53c-.75-.08-1.48-.81-2.19-.1-.18.18-.06.67-.08,1.14a2.28,2.28,0,0,1-2.27.38c-.75,1.42-1.87.56-2.85.47-.79-.08-1.57-.29-2.36-.34a1.72,1.72,0,0,0-.82.41,9.16,9.16,0,0,0-.79.7l-.22-.8c.59-.1,1.13-.23,1-.91-1,.23-2,.42-3,.69a6.09,6.09,0,0,0-1.09.67l.36-.8H99.47v-.23l-.86.71-.2-.17a3.36,3.36,0,0,1,.44-.67,28,28,0,0,1,8.61-5.53A2,2,0,0,1,110,41.1Z"/><path class="cls-1" d="M221.45,140.81l2.15-1.8,3.89-3.21,4.78-4a17.32,17.32,0,0,0,2.71-2.72,19.48,19.48,0,0,1,3.65-3.16c1.27-1,2.6-1.93,3.91-2.88,1.52-1.1,3-2.22,4.59-3.28a1.32,1.32,0,0,1,1.13-.16,1.49,1.49,0,0,1,.25,1.15,3.91,3.91,0,0,1-.47,1.15c-.19.4-.41.78-.73,1.41A21.59,21.59,0,0,0,250,123c.36-.09.65-.52.94-.82.59-.62,1-1.49,1.76-1.84a8.94,8.94,0,0,0,2.31-2.1c.13-.13.25-.32.41-.39a12.37,12.37,0,0,0,4-3.44,2.23,2.23,0,0,1,.83-.67,17.86,17.86,0,0,0,3.51-2.28c.09-.06.24,0,.39,0l-.18,2.16.7-.07c-1,1.8-2.06,3.38-4.15,4.11.11.87-.41,1.25-1.28,1.61a3.33,3.33,0,0,0-1.92,1.59,4.9,4.9,0,0,1-1.45,1.83,3.39,3.39,0,0,1-2,.65,2.52,2.52,0,0,0-1.74.67c-.67.48-1.39.91-2,1.44-.82.69-1.59,1.45-2.38,2.18-.15.14-.3.35-.48.4a1.79,1.79,0,0,0-1.31,1.84c0,.9-.54,1-1.29.88l-.39.77-.85-.1-.8,2.25c-1.55-.63-1.65-.62-2.36.27.51.91.35,1.08-.53,1.59-.7.41-1.42,0-2.06.34a8.26,8.26,0,0,0-1,.71,16.73,16.73,0,0,1-1.79,1.29c-.29.16-.75,0-1.14,0,.11-1.17-.65-2.22.29-3.2.88.57,1.26-.34,2-.78a1.42,1.42,0,0,0-1.68-.39,1.82,1.82,0,0,0-.67.39,29.74,29.74,0,0,1-5.64,3.58c-2.14,1.1-4.23,2.32-6.34,3.49Z"/><path class="cls-1" d="M152.65,150.13l.37.7c-1.31-.48-2.56-1.14-3.92.08l-1.32-1.33-.42,1-.67-.92a1.61,1.61,0,0,1,1.79-.92,10,10,0,0,0,4.74-.89,6.28,6.28,0,0,1,1.93-.53,1.17,1.17,0,0,0,1.25-.87l-.37-.83c.66-.22,1.27-.38,1.85-.61,2.06-.83,4.13-1.66,6.17-2.55,2.25-1,4.47-2.05,6.7-3.1a8.33,8.33,0,0,0,.73-.48l3.34-1.94.23.21-.38,1.2.16.12.79-.9-.51-1.11,1.55-.42,1.08.85a6.12,6.12,0,0,1-.53-1.46c0-.13.59-.32,1.12-.58l-.38,1.53,2.88-1.79v-.77h.5l2-1.74.27.5.79-.68c.21-.34.3-.66.51-.8a21.9,21.9,0,0,1,4.94-2.84,13.17,13.17,0,0,0,2.86-1.91l1,.25.43-1.14c.45.17.85.47,1.06.37a1.09,1.09,0,0,0,.49-.88c0-.41,1-.6.13-1,.43-.47.76-.89,1.15-1.24s.69-.09,1.05-.07a1.25,1.25,0,0,0,1.13-1c.09-.36.5-.64.85-1,.69.88-.28,1.29-.33,1.87s-.21,1.32-.32,2h-.93c-.55.8-.79,1.54.27,2.21-.81,0-1.41.15-1.61,1-.06.26-.51.43-1,.82l-.17-1.31c-.73.2-.67.92-.7,1.45l-2.15.32a8.84,8.84,0,0,1-.74,1.71c-.13.19-.63.12-.73.13l-1.39.83a3.19,3.19,0,0,0-.42.3c-.12.1-.2.3-.34.34a10.86,10.86,0,0,0-1.55.38,6.79,6.79,0,0,0-1.23,1l.1.78a6.09,6.09,0,0,1-1,.17,1.47,1.47,0,0,0-1.53,1.83l2-.46.07.31c-1.26.14-2.23,1.49-3.78.62l-.07,1.12-7.34,3-.17-.54c-.12.05-.21.06-.23.1-.44,1-1.41,1.31-2.26,1.73-1.22.6-2.49,1.1-3.7,1.72a6.31,6.31,0,0,0-1.2,1.16l-5.44,2,.12.17a5.59,5.59,0,0,1-.85.74,4.73,4.73,0,0,1-1.16.43c-1.22.32-2.24,1.35-3.64,1a.31.31,0,0,0-.19,0,3.86,3.86,0,0,1-2.47.49A3.69,3.69,0,0,0,152.65,150.13Z"/><path class="cls-1" d="M221.57,81.79l.29.58a2.28,2.28,0,0,0-2.22,1.77c-.45.06-1,.1-1.44.19a1.32,1.32,0,0,0-.69.31,29.85,29.85,0,0,0-2.36,2.67,3.72,3.72,0,0,1-1.47,1.22,7.13,7.13,0,0,0-3,2.32c-.07.1-.17.24-.27.26-.68.14-.86.49-.57,1.12.05.11-.05.3-.07.38-.79.06-1.71-.12-2.18.26s-.26,1.28-.38,2c-.76-.27-.49,1.08-1.47.92a4.46,4.46,0,0,0-1.87-.23l-.61.94-.14-.72L200.77,98l-.52-.36-2.22,1c-.28.94-1.48,1-2.42,1.47-.56.27-1.14.49-1.86.8l-.12-1-.74.19.07,1.31c-.22-.06-.58-.1-.58-.17a2.42,2.42,0,0,1,.56-2.21c.75.45,1.21-.08,1.58-.6s0-1.14-.61-1.62l1-.25.41-.87.15.13.86-.81c.22-.21.44-.43.67-.63a10.9,10.9,0,0,1,1.21-.93,5.24,5.24,0,0,1,1.12-.34l.38-1c.66.26,1.17.41,1.57-.62.3-.76,1.24-1.27,1.94-1.95l-.39-1h1.66a1.57,1.57,0,0,0,1.7-1,1.76,1.76,0,0,1,.52-.77c.92-.68,1.88-1.3,2.82-1.94,1.18-.8,2.42-1.54,3.53-2.42s2.11-1.25,3-2c.72-.58,1.47-1.17,2.21-1.74.44-.34.95-.59,1.41-.9.24-.16.46-.35.69-.51l.39.88.33-.68,3.14-1.27-.18-.26,1.23-1c.66-.58,1.29-1.19,2-1.74a10.3,10.3,0,0,1,1.24-.74L228.17,74l-1.15.38-.12,1.24.93-.09.17.2-2.32,2.37L225.22,77l-1.2.55.59,1.15c-.33.55-.49,1.16-1.35,1.43C222.6,80.42,222.14,81.27,221.57,81.79Z"/><path class="cls-1" d="M160.09,139.4a1.08,1.08,0,0,0-.53,0c-1.33.67-2.65,1.35-4,2.07a27,27,0,0,1-6.66,2.38,2.18,2.18,0,0,1-.58-.1c.45-.38.76-.69,1.12-.94,1.91-1.34,3.8-2.7,5.74-4,1.37-.91,2.81-1.72,4.22-2.59a162.91,162.91,0,0,1,14.82-8c.81-.39,1.57-.91,2.35-1.36,2.53-1.45,5.05-2.92,7.61-4.32a16.77,16.77,0,0,1,2.43-1,2.17,2.17,0,0,1,.7,0v.27l-1,.16-1,1.87a3,3,0,0,0-3,1c-.13.26.08.68.14,1H184L184,125l.37.31,1.2-.47.17.35a15.33,15.33,0,0,1-4.07,2.66l-.67-.48.55-1.5-.29-.22C174.68,130.87,167.27,134.83,160.09,139.4Z"/><path class="cls-1" d="M177.64,106.67l.56-1.18.69.55c.85-.45,1.61-1.27,2.76-.6.11-.1.27-.18.34-.31.66-1.18,1.85-1.53,3-2,.62-.23,1.21-.55,1.82-.82.06,0,.11-.08.17-.09a4.34,4.34,0,0,0,1.23-.12c.31-.13.52-.5.86-.87.11.3.27.56.21.61a5.77,5.77,0,0,1-1.33,1.19c-1.16.59-2.38,1.06-3.64,1.61l.21.72a3.17,3.17,0,0,0-1,0c-.4.16-1,.4-1.06.7-.28,1.22-1.1,1.19-2,1.07l-.37-1.1a4.39,4.39,0,0,0-.59,1,2.62,2.62,0,0,1-1,1.45c-.15.12-.3.39-.42.37-1.07-.2-1.68.65-2.46,1.07a16.57,16.57,0,0,0-1.7,1.19l-.26-.67c-.67,1.21-1.55,1.39-2.69.55-.87,1.37-2.21.85-3.43.84l-2.77,2.26a1.64,1.64,0,0,0-2.86.45,1,1,0,0,1-.25.29,2.37,2.37,0,0,1-.3.19l-2.19-.86c-.12.22-.21.38-.29.54a1.58,1.58,0,0,1-2,1l-.18-.08-1.5-.55v-.93l-.22-.05-.45,1.32a1,1,0,0,1-1.16-.81s0-.07,0-.1c.58-.37,1.07-.72,1.61-1a5,5,0,0,1,1.21-.44c.77-.18,1.55-.3,2.32-.46L161,112c.25-.05.51-.07.76-.14,1-.27,2.07-.5,3.06-.86,1.24-.45,2.44-1,3.66-1.53a10,10,0,0,1,4.68-1.07c.54-.57,1.06-1.32,2.1-1.35l.22-.51Z"/><path class="cls-1" d="M213.11,113.86l-2.07-.94c.29.67-1.08.47-.51,1.42l1-.79a2.2,2.2,0,0,1-1.23,2.35c-1,.69-2,1.48-3,2.25a1.33,1.33,0,0,0-.25.52,1.08,1.08,0,0,1-1.08.8,3.2,3.2,0,0,0-2.47,2,1,1,0,0,1-.58.59l.25-1.45-.28-.19-1.84,1.29.46,1.3-1.25.41v-.82c.06-.57.18-1.13.22-1.7s.12-.78.75-.53c-.23-.87.25-1.27.89-1.7,1-.63,1.81-1.39,2.72-2.08a2.55,2.55,0,0,1,.65-.36,4.93,4.93,0,0,0,2.16-2c.33-.05.68,0,.86-.16.53-.46,1-1,1.48-1.5a17.19,17.19,0,0,1,1.41-1.27,16.36,16.36,0,0,0,3.2-2.52c.6-.79,1.69-.64,1.91-1.26l2.83-.79.18-.76.1.13,2.89-2.08.15,1.42c-.15,0-.35-.15-.41-.1a15.4,15.4,0,0,0-1.94,1.65c-.21.23-.07.76-.11,1.4a6,6,0,0,0-1.37.47c-.79.47-1.5,1.07-2.25,1.6-.31.22-.66.39-1,.6l-.73,2h-.19l-.1-.8C213.76,112.15,213.38,112.55,213.11,113.86Z"/><path class="cls-1" d="M184.11,75.6l-.69-.71-.65.72.06.23a5.27,5.27,0,0,0-1.43-.21,1.64,1.64,0,0,0-.86.64c-.09.1.08.42.16.75l-1.15.36-.14-1.69a1.77,1.77,0,0,0,1.41-1.57c.11-.69.43-.85,1.08-.69a8.68,8.68,0,0,0,1.27.15l1.18-1.39v.16l3.15-.79-.34-.85.15-.06,1.62,1.7c.25-.47.37-.68.47-.9A4.53,4.53,0,0,1,191.63,69a7.27,7.27,0,0,0,1.69-1.5c-.26-.55-1-1-.25-1.56a1.51,1.51,0,0,1,2.29.37,5.21,5.21,0,0,0-.87.33,4.07,4.07,0,0,0-.63.56v.26l2.49.39.07-.2-.69-.64c.56-.56,1.06-.75,1.72-.11l-.57.53.9.9-.16.22H197a13.4,13.4,0,0,1-1.31,1.35,5.81,5.81,0,0,1-1.22.57c-.14.06-.38.1-.41.2-.21.81-1,.68-1.48.78-1.29.25-1.3.19-1.42,1.6-1.06-.41-1.82.14-2.59.77-.26.22-.73.17-1.07.31-.82.32-1.63.68-2.44,1Z"/><path class="cls-1" d="M165.2,65.11c.22-.09.46-.3.66-.25.66.14.72-.25.72-.82h2l-1-1.15c.22-.14.35-.29.42-.27,1.23.39,1.71-.75,2.52-1.22,1.49-.87,1-2,.45-3.2l1.21.79,1.71-1.52h2.26l.39,1.37.86.58a6.21,6.21,0,0,1-3,1.31l-.49.8.75,1.13-.15.21-.88-.59c-1.07.49-1.35,2-2.87,2.08l.24.81c-.93,0-1.95.82-2.75-.56a3,3,0,0,0-.19.76c.08,1,0,1.07-1,1.2a2.66,2.66,0,0,0-.8.37l-1.05.58-.17-.18-.22.75h-3c-.16,0-.32-.26-.61-.52l2-.62v-.84l.47.26.22-.63.78.19.5-.85Z"/><path class="cls-1" d="M236.68,90.79l-.1-.78h-.23l-.29,1.56-.54-.76.55-1.41v.12l4.25-3.73a1.21,1.21,0,0,1,.45-1.65h0c.34-.27.48-.75.79-1.08a7.92,7.92,0,0,1,1-.79l.2.2v1.12c.3-.24.67-.42.65-.54a4.49,4.49,0,0,0-.45-1,2.09,2.09,0,0,1,2.35-1.16L245,82l.79-.08v-.26c.43.19.88.36,1.29.59s.67-.89,1.13.08c-.66.48-1.37.95-2,1.49-.33.28-.51.74-.84,1A22.66,22.66,0,0,0,243,87.06a3.62,3.62,0,0,0-.62,1.12c-1.52.38-3,.87-3.23,2.73Z"/><path class="cls-1" d="M90.5,38.34l1.23.2-.3.71.54.07c-.91.3-1.48.79-1.35,1.81l.82.9c-.6.63-1.28.47-2,.57-1.57.2,0-1.49-1-1.43a2,2,0,0,1-.67,0,22.19,22.19,0,0,0-3.9-1.23c-.29-.06-.52-.45-.79-.69.52-.26.84-.44,1.18-.58a29.89,29.89,0,0,1,2.82-1,7.33,7.33,0,0,1,1.48,0,1.4,1.4,0,0,0,.7-.28c.64-.46,1.12-1.19,2.1-1,.18,0,.43-.34.65-.51.7-.22,1.52,1.15,2.13-.27l1.45.26v.36l-1,.39.06.07a3.81,3.81,0,0,1-1,.72c-.91.29-1.85.46-2.77.69C90.81,38.07,90.74,38.16,90.5,38.34Z"/><path class="cls-1" d="M186.28,63.58c-.4-.27-.72-.32-1.25.16a9.81,9.81,0,0,1-2.52,1.39c-.24.11-.61-.07-.85.05-1.19.46-2.4.89-3.58,1.4s-2.41,1.12-3.57,1.66l-.33,1-.72-.62c-.39,1.05-.45,1.08-1.37.49.84-.62,1.59-1.26,2.41-1.77A16.72,16.72,0,0,1,177.13,66a3.92,3.92,0,0,0,1.75-1.46,1.93,1.93,0,0,1,2.71-.35l0,0,4.64-2.58-.51-.89a4.36,4.36,0,0,1,1.5-.6c.45,0,.9.41,1.35.65l-.09.23.78-.31c.85.83.8,1-.53,2.46l-.52-.73Z"/><path class="cls-1" d="M157.52,68.59c.94-.65,1.52.14,2.17.51l1-1.37.7,1.25c-.67,1.51-2.95,2.84-4.11,2.55a9.83,9.83,0,0,1-1.5,1.2,3.45,3.45,0,0,1-1.72.29l-1.25.9.21.19-1.35.08.1-1.56-.9-.8.82.07.18-1.63,1.36.84-.42-.79.91-.17.56,1.1.26-.08.11-.66,1-.05c.23-1-.73-.52-1.07-1.07l1.4-.51.13,1.2C157.07,69.87,157.28,69.18,157.52,68.59Z"/><path class="cls-1" d="M113.27,29.27c1-1.54,2.68-1.55,4-2.21l.28,1,.68-.53.58,1.41a3.68,3.68,0,0,1-3.61.52,2.11,2.11,0,0,0-.71,0v.26l.59.06c-.09.22-.12.47-.24.55-1,.66-2,1.58-3.41,1.4a2.83,2.83,0,0,0-1.51.26,1.44,1.44,0,0,1-2-.53l0-.06c.87,0-.21-1.18.68-1.22l1-1.53.62,1.16,2.7-1.52Z"/><path class="cls-1" d="M152,144.5a15.15,15.15,0,0,0,1.59-.32,20.89,20.89,0,0,0,3.18-1.11q5.38-2.71,10.68-5.58c2.68-1.44,5.31-3,8-4.46a10.1,10.1,0,0,1,1.76-.59l.12.29c-.9.56-1.79,1.15-2.71,1.68-3.58,2-7.13,4.1-10.77,6-3,1.61-6.17,3-9.26,4.52C153.21,145.61,153,145.57,152,144.5Z"/><path class="cls-1" d="M184.68,148.5c-1.18.61-3-.72-3.52,1.35-1.24-.58-2.17.66-3.1.53-1.21-.18-1.79,1.15-2.88.87l-.1-.26.91-.39v.1a4.32,4.32,0,0,1,.91-.82c.89-.43,1.84-.75,2.74-1.17a16.4,16.4,0,0,0,1.51-.92,1.27,1.27,0,0,1,.39-.18,14,14,0,0,0,5.16-2h.3v.57l.84-.65c.07.32-.12.65-.85,1.34-.44.41-.91.78-1.45,1.23l-.81-.09Z"/><path class="cls-1" d="M256.71,71.7l.39.6-.72.53.09.24,2-.71c-.27.64-.37,1.28-1.33,1a3,3,0,0,1-3.49,2.13l.25,1.21L252.7,76c0,.88-.36,1.23-1.15,1.06-.22,0-.51,0-.63-.17a.61.61,0,0,1,0-.6,9.71,9.71,0,0,1,3-2.6A14.24,14.24,0,0,0,256.71,71.7Z"/><path class="cls-1" d="M146.15,42.07l-1,1.35-.23-.1.57-1.6-.84-1.51,1.87.12.25-.57a1.1,1.1,0,0,0,.71-.15c.49-.41.89-.93,1.38-1.33a10.37,10.37,0,0,1,1.31-.79l.27.19v1.14l-1.54.64.15,1.19a1.23,1.23,0,0,0-1.26.95c-.11.35-1,.46-1.52.68Z"/><path class="cls-1" d="M258,70l-.12-.29,3.33-1.85.72,1.5h-.65l-.08,1L258,72c-.17-.21-.54-.5-.62-.86S257.69,70.51,258,70Z"/><path class="cls-1" d="M120.67,17.72c-1.18-.11-2.14-.22-3.11-.28a.84.84,0,0,0-.67.27c-.58,1.12-1.67,1.27-2.71,1.54-.44-.81-.36-1,.64-1.21,0-.15.11-.32.18-.5s.12-.28.23-.53l1.29.44,1-.93.64.26c.14-.26.22-.58.43-.73s.69-.25.79-.14A19.31,19.31,0,0,1,120.67,17.72Z"/><path class="cls-1" d="M92.87,46.53a16.94,16.94,0,0,1,1.75,1.06,1,1,0,0,1,.36.85,1.64,1.64,0,0,1-1.92,1.3l-.23-.06c-.79-.1-.75-.82-.87-1.37a1.32,1.32,0,0,1,.73-1.72Z"/><path class="cls-1" d="M192.64,122.43H195c-.68,1.25-.86,1.31-3.16,1l.71.85c-1.83-.4-2.71.74-3.73,1.72l-1.28.71c-.35-.22-.51-.5,0-.82.89-.56,1.81-1.07,2.67-1.66a23,23,0,0,0,1.77-1.48l.62-.56Z"/><path class="cls-1" d="M254.6,66.27c-.1,1.2.09,2.33-1.22,2.91-.28.12-.42.54-.63.82-1.32-.6-1.62-2-.61-2.86.07-.06.17-.21.2-.19C253.21,67.33,253.71,66.41,254.6,66.27Z"/><path class="cls-1" d="M117.66,61l-.72.8-.24-.05-.2-1.18a1.58,1.58,0,0,1-.59,0c-.27-.09-.65-.23-.73-.45a1,1,0,0,1,.25-.81c.67-.64.69-.62,2-.43l1,1.47.7-.61c0,.45.16.77.06,1A1.61,1.61,0,0,1,117.66,61Z"/><path class="cls-1" d="M122.33,51.94a3.33,3.33,0,0,0-2.82.84l-1.35-.63,2.52-1.63.48.89,1.14-.73-.73-.26,2.77-.8.87.72a5.63,5.63,0,0,1-1.38.24C122.87,50.48,122.39,50.86,122.33,51.94Z"/><path class="cls-1" d="M103.44,33.36c.86-1.36,2.28-1,3.51-1.23-.43-.78-1.66-.4-1.77-1.4l2.1-.4a4.64,4.64,0,0,1,0,1.88c-.45,1-1.51,1.08-2.49,1.15C104.33,33.38,103.92,33.36,103.44,33.36Z"/><path class="cls-1" d="M165.2,65.11h.05a1.91,1.91,0,0,1-.54-.38,6.72,6.72,0,0,1-.46-1l-.53.83-.85-1.29,3.26-1.15,1,1.2-.55.36-.63-.84a2.71,2.71,0,0,1-.32.77c-.13.14-.38.15-.67.26C165.56,64.19,165.45,64.64,165.2,65.11Z"/><path class="cls-1" d="M121.87,88.27l1.5.13,1.11.06-.67,1.16-1.65-.1-.71,1.28-.46-.37-.53.62-.22-.14Z"/><path class="cls-1" d="M251.55,70.57l-1.17.41c-.71.23-1.12-.09-1.11-.83a8.67,8.67,0,0,0-.07-1.31l.53.41.84-.47C251.35,69.21,251.87,69.73,251.55,70.57Z"/><path class="cls-1" d="M206.52,156c.11-1,1-.74,1.31-1.16s.63-.89,1-1.41l.34.16-.34.45c.12,0,.22.08.28,0,.88-.46,1.76-.94,2.65-1.39a9.61,9.61,0,0,1,1-.38l.17.43Z"/><path class="cls-1" d="M210.41,161.33l1.52-.9c.61-.36,1.25-.68,1.82-1.08s.86-.15,1.18.44l-1.85,1c-.14.07-.32.16-.37.28-.28.69-.73.7-1.33.44a2.13,2.13,0,0,0-.83,0Z"/><path class="cls-1" d="M171.43,69.43c.13.39.42.8.31,1s-.61.29-.92.46c-.63.33-1.23.71-1.88,1-.42.19-.93.59-1.35-.13Z"/><path class="cls-1" d="M233.56,95.41c1.07.15.37-1.45,1.54-1.27l-.58,1.9-.18-.2a11.4,11.4,0,0,0-1.18.75c-.53.43-1.18.15-1.44-.68C232.52,94.8,232.53,94.79,233.56,95.41Z"/><path class="cls-1" d="M206.59,164.74a3.67,3.67,0,0,1,1.33-2c.63-.6,1.32-.46,2.21-.17A7,7,0,0,1,206.59,164.74Z"/><path class="cls-1" d="M199.47,178.08l1.14.29c.08-.07.26-.35.46-.37a2.28,2.28,0,0,0,2-1.22c.07-.13.48-.07.8-.1-.69,1.87-2.22,2.15-3.81,2.43l-.66-.79Z"/><path class="cls-1" d="M154.87,158.47l5-2,.22.29c-.16.23-.28.6-.5.68-1.45.52-2.93,1-4.4,1.46a.77.77,0,0,1-.25-.11Z"/><path class="cls-1" d="M122.74,91.13c1-.82,1.26-.77,1.75,0a2.26,2.26,0,0,0,.72.54l1.17.74-.11.25a5.79,5.79,0,0,1-1.06.2c-.26,0-.7-.1-.75-.25A2,2,0,0,0,122.74,91.13Z"/><path class="cls-1" d="M137.93,46.6l-.34-1.23a4.42,4.42,0,0,0,1.15-.48c.43-.35.91-.56,1.3-.19.22.21.15.75.16,1.14a2.49,2.49,0,0,1-.27.66l-.4-1Z"/><path class="cls-1" d="M265.21,30.61a13.49,13.49,0,0,1-1.46-.48.72.72,0,0,1-.3-.54c0-.12.22-.26.35-.38s.48-.29.6-.51c.43-.79.85-1,1.59-.53a2.7,2.7,0,0,1,1,1.4C267.12,30,266.07,30.64,265.21,30.61Z"/><path d="M198.36,85.67l.51,1.6c-.86.4-1,.72-.85,1.83l1,.13v.21l-1.51.68v.19a3.73,3.73,0,0,1-1.34-.46,1.54,1.54,0,0,0-1.43-.27,1.08,1.08,0,0,1-.76-.23c-.09-.08,0-.53.14-.65a1.13,1.13,0,0,1,.84-.29,2.21,2.21,0,0,0,3-1.8A6.33,6.33,0,0,1,198.36,85.67Z"/><path d="M145,61.45a2.62,2.62,0,0,0-2.18.9c-.49.71-1,.71-1.61.06a4.17,4.17,0,0,0-.86-.51,5.18,5.18,0,0,1,1.11-.11,1.87,1.87,0,0,0,1.89-.6,1,1,0,0,1,1.65.26Z"/></g></g></svg>