<?xml version="1.0" encoding="utf-8"?>
<!-- Generator: Adobe Illustrator 23.0.3, SVG Export Plug-In . SVG Version: 6.00 Build 0)  -->
<svg version="1.1" id="Layer_1" xmlns="http://www.w3.org/2000/svg" xmlns:xlink="http://www.w3.org/1999/xlink" x="0px" y="0px"
	 viewBox="0 0 612 792" style="enable-background:new 0 0 612 792;" xml:space="preserve">
<path d="M241.39,356.57c-21.96-21.13-28.32-49.61-36.17-77.31c-4-14.12-7.26-28.46-10.79-42.71c-0.24-0.99,0.04-2.1,0.09-3.16
	c0.54,0.71,1.01,1.5,1.64,2.12c13.46,13.15,10.97,32.03,17.43,47.49c4.59,10.98,12.64,22.81,22.48,28.83
	c23.96,14.68,49.95,25.99,74.93,39.05c23.01,12.03,43.12,28.29,50.35,53.78c4.2,14.8,1.42,31.59,1.69,47.49
	c0.01,0.64-0.86,1.29-1.32,1.93c-0.73-0.64-1.46-1.29-2.19-1.93l0.03,0c-0.88-1.12-1.76-2.24-2.65-3.36l-0.03,0.03
	c2.44-14.38-8.09-35.18-24.14-43.54c-13.32-6.93-28.4-10.52-41.63-17.58c-16.43-8.77-31.76-19.6-47.55-29.55
	c-0.76-0.48-1.45-1.07-2.17-1.6C241.36,356.54,241.39,356.57,241.39,356.57z"/>
<path d="M370.04,250.75c4.68-4.44,9.36-8.88,14.04-13.33c0,0-0.03,0.03-0.03,0.03c4.9-6.11,9.34-12.68,14.82-18.21
	c5.45-5.49,11.95-9.94,18.01-14.83c0.18-0.15,0.52-0.11,0.78-0.16c-0.16,0.54-0.17,1.21-0.51,1.6
	c-7.46,8.66-14.99,17.26-22.43,25.93c-4.56,5.32-9,10.74-13.49,16.12l0.03-0.02c-9.39,11.28-21.14,20.73-18.94,38.6
	c0.74,6.01-6.15,12.96-9.56,19.48c-2.95,5.64-5.9,11.29-8.89,16.91c-0.33,0.63-0.93,1.11-1.4,1.67c-0.46-0.66-1.19-1.25-1.36-1.98
	c-4.79-20.41,2.52-37.72,14.16-53.75c4.57-6.29,9.82-12.09,14.76-18.11C370.04,250.73,370.04,250.74,370.04,250.75z"/>
</svg>
