<svg id="Layer_1" data-name="Layer 1" xmlns="http://www.w3.org/2000/svg" viewBox="0 0 499.94 334.39"><defs><style>.cls-1{fill:#fff;}</style></defs><title>Untitled-4</title><path d="M555.28,558.28c0,.27,0,.66.1.81,1.45,1.44-.29,2.88,0,4.31,0,0-.45.28-.55.21-1.77-1.18-3.58-2.32-5.27-3.61-2.82-2.15-5.56-4.41-8.34-6.61a12.58,12.58,0,0,0-1.87-1.31c-.25-.13-.7.13-1.06.21a3.23,3.23,0,0,0,.54.86,6.14,6.14,0,0,1,1.36,1.09c-.22,0-.49,0-.66-.08-2.67-1.56-5.3-3.18-8-4.71-1.54-.88-3.18-1.61-4.77-2.41a25.78,25.78,0,0,1-9-6.65c-1.19-1.47-2.95-2.47-4.24-3.87a46.7,46.7,0,0,1-4.79-5.91c-1-1.51-1.33-3.38-2.43-5-1-1.4-1.08-3.35-1.68-5-.49-1.38-1.2-2.69-1.69-4.07a7.24,7.24,0,0,1-.3-2.23c0-2.89.31-5.82-.11-8.65a21.66,21.66,0,0,1,.38-7.54,26.19,26.19,0,0,0,.6-5.06,4.22,4.22,0,0,0-1.07-2.68c-3.51-3.59-7.35-6.94-9.25-11.76-1.16-3-2.06-6-3.09-9-.15-.43-.36-.84-.55-1.26-.33-.73-.83-1.42-.15-2.27a1.29,1.29,0,0,0,0-1.09c-.58-1.4-1.25-2.76-1.85-4.15a5.51,5.51,0,0,1-.16-1.09,9.45,9.45,0,0,0-.46-2.15c-.41-1-.49-.93.63-2.17-.77-.14-2,.11-1-1.39.25-.41-.5-1.34-.54-2-.12-2.59-.13-5.18-.21-7.76a4.34,4.34,0,0,0-.25-1.24,9,9,0,0,0-.53-1.08c-.32.38-.82.72-.91,1.15-.14.68-.29,1.05-1.06,1.23-.45.1-.81.69-1.18,1.1-1.37,1.52-2.72,3.07-4.12,4.57-.09.1-.77-.13-.77-.23a7,7,0,0,1,.09-1.64c.1-.66.4-1.31-.48-1.76-.2-.1-.28-.7-.22-1,.34-1.89.71-3.78,1.15-5.64a4.15,4.15,0,0,1,.86-1.47q1.89-2.38,3.83-4.73c.51-.62,1.11-1.16,1.58-1.8a42.6,42.6,0,0,0,3-4.33,4.65,4.65,0,0,0,.35-2.53,4.59,4.59,0,0,1,1.86-3.75,1.92,1.92,0,0,0,.46-.4c1-1.16,2.06-2.32,3.07-3.5a5.78,5.78,0,0,1,2.92-2.07c.41-.11.73-.59,1.1-.9.18-.15.48-.47.54-.43.48.32,1.12,1.11,1.35,1,1.08-.52.72.27.9.74.34.91.49,1.71-.35,2.43-.08.07-.15.28-.1.35,1.25,1.85-.71,3-1,4.44,0,.12-.21.27-.18.33.78,1.52-.88,2.13-1.14,3.19a14.27,14.27,0,0,0,.05,3.91c.07,1.39.2,2.79.26,4.19,0,.21-.19.42-.29.63-.16-.21-.41-.4-.45-.63-.18-1.22-.3-2.45-.45-3.67a1.9,1.9,0,0,0-.31-.93,13.91,13.91,0,0,0-.75,6.2,17.42,17.42,0,0,1,.31,3.28c-.08,1.21.83,2.12.87,3.11.12,2.79-.11,5.6-.22,8.41-.09,2.59-.34,5.19.3,7.77.14.55-.31,1.24-.23,1.82q.54,3.6,1.27,7.16a2.67,2.67,0,0,0,.94,1.29c2.39,2,4.91,3.92,7.19,6.07,1.39,1.31,3.26,2.4,3.72,4.38.58,2.48,2,4.39,3.23,6.51s1.81,4.89,2.6,7.39c.43,1.33.79,2.69,1.09,4.05.71,3.18-.12,6.15-1.46,9a4.16,4.16,0,0,0-.1,3.79,62.88,62.88,0,0,0,3.38,7,7.81,7.81,0,0,0,5.5,3.74,8.68,8.68,0,0,1,3,1.59,10.08,10.08,0,0,1,1.43,1.27l.35-.35c-.52-.56-1-1.13-1.56-1.67-1.11-1.12-2.24-2.21-3.33-3.34a2.41,2.41,0,0,1-.35-.74c.32,0,.72-.09.92.06.86.69,1.67,1.43,2.49,2.18,2.67,2.44,5.38,4.84,8,7.36,1,1,1.64,2.28,2.63,3.24a50.84,50.84,0,0,0,4.1,3.36c1.38,1.09,2.81,2.13,4.19,3.21a7,7,0,0,1,1.81,1.65c.52.85,1.19,2,.95,2.82a1.59,1.59,0,0,0,.37,1.76c.69.8,1.5,1.5,2.2,2.3.15.17,0,.57.09.85s0,.68.18.77c1.56.9,2.36,2.78,4.31,3.24" transform="translate(-56.02 -229.24)"/><path d="M130.42,229.24c-.19.68-.4,1.37-.59,2.06a.83.83,0,0,0-.08.37c.53,2.62-1.74,4.55-1.72,7.05,0,.66-.34,1.4-.14,2,.88,2.62-.38,4.34-2.25,5.88a3.27,3.27,0,0,0-.58.82,6.89,6.89,0,0,1-2.16,2.68c-.89.55-1.26,1.93-1.87,2.95-.2.34-.44,1-.6,1-.67-.07-1.61-.15-1.93-.6a3.91,3.91,0,0,1-.58-2.44,15,15,0,0,1,.89-2.91,6,6,0,0,0,.26-1.11c.13-1.12-.17-2.61.44-3.29,1.23-1.37.63-3.45,1.63-4.38,1.4-1.31.6-2.44.74-3.71a22.15,22.15,0,0,1,1.32-4.47c.22-.64.55-1.24.83-1.85Z" transform="translate(-56.02 -229.24)"/><path d="M254.26,389.39c.23-.18.6-.32.66-.54.18-.67.37-.92,1.15-.63,2,.75,4.07,1.36,6.09,2.09.34.12,1.16.08.67,1-.13.24.75.89.83,1.41.11.74.23,1,1,.64,0,0,.32.33.29.46s-.26.33-.43.45a4,4,0,0,1-.59.29c.22.15.43.4.66.42,1.58.13,3.15.21,4.73.32a3.59,3.59,0,0,1,.68.22c-.11.21-.21.43-.33.63a9.29,9.29,0,0,0-.61.93c-.12.26-.3.68-.18.83s.56.18.85.3.77.38,1.16.57a3.81,3.81,0,0,1-.67.81c-.79.54-1.66,1-.56,2,.14.13.12.4.17.61-.24,0-.64.11-.7,0a18.26,18.26,0,0,0-.87-1.71,5.89,5.89,0,0,0-1.27-1c-.23.48-.45,1-.71,1.43-.1.16-.28.4-.42.4a2,2,0,0,0-2.21,1.54c.4.32.69.74,1.05.81a9.58,9.58,0,0,0,3.35.44,16.44,16.44,0,0,0,3.17-1.41,4.68,4.68,0,0,1,1.46-.12c.26.63-1.25,2.41,1.1,1.7.05,0,.15.08.21.13l.66.59.12-1.17a3.1,3.1,0,0,1,.81.2,2.4,2.4,0,0,1,.74.64c0,.05-.2.46-.36.5-1.59.38-.74,1.39-.51,2.13a6.35,6.35,0,0,0,.95,1.47c-1.68-.05-3.45.85-3.41,1.37.82,0,1.62,0,2.41,0a7.57,7.57,0,0,0,1.63-.31c.47-.13.93-.35,1.54-.59-.06-1-.31-1.18-1.59-.57a2.06,2.06,0,0,1-.61.11l1.71-4,1.1,1.48-1,.3a3.5,3.5,0,0,1,.71.67c.25.43.65,1,.56,1.37-.33,1.44.72.89,1.25.9.82,0,1.65-.11,2.47-.17l.36-.05h3.88L287,408v0c1.92.94,2.87-.61,4.25-1.44a35.37,35.37,0,0,0,4.22-3.05,1.56,1.56,0,0,1,1.22,0c1.47.55,2.5-.05,3.51-1.06.34-.34,1-.37,1.5-.55h.6c1-.53,1.16-2.09,2.74-1.91.3,0,.76-1,1.07-1.57a2.22,2.22,0,0,1,2.65-1.15l0,0a2.76,2.76,0,0,0,2.75,1.36c1.79-.33,2.65-1.54,3.4-3,0,0,.05-.1.07-.1,1.8.19,1.78-1.29,2.33-2.36.2-.4,1-.51,1.61-.68,1.23-.37,2.45-.69,2.89-2.17.08-.26.71-.36,1.08-.53a7.34,7.34,0,0,1,.28,1c0,.29-.08.61,0,.89a4.52,4.52,0,0,0,.4.87l.86-.43.63-.35c-.12.26-.16.66-.36.75-.79.4-.77,2-2.16,1.48l.85,1.35a13.24,13.24,0,0,1-1.86.56c-.78.12-1.62,1.55-1.55,2.3,0,.48-.43,1.05-.79,1.49-.88,1.08-1.81,2.12-2.78,3.12a1.26,1.26,0,0,1-1,.31c-1-.24-1.11.17-.8.92.56,1.37-.77,1.85-1.33,2.58-.32.41-1.38.29-2.11.36-.35,0-.94-.17-1,0a5.42,5.42,0,0,0-.4,1.42h1.12l.44,0c0,.19,0,.47-.11.57-1,.92-1.93,2.44-3,2.55-1.35.15-.85,1.06-1.38,1.57l2.53-.42c-.51,1.11-.22,2.47-1.84,2.94-.51.15-.81,1.08-1.15,1.67-.69,1.18-1.87,2.06-1.81,3.67,0,.49-.59,1.14-1.08,1.47-3.63,2.47-7.26,5-11,7.26-1.14.7-2.63.8-3.94,1.23a18.41,18.41,0,0,0-2.7,1.05,38,38,0,0,1-12.48,3.72c-6.65.9-13.31,1.47-19.93-.16a42.92,42.92,0,0,1-8.86-2.8c-3.71-1.84-7.59-3.54-10.59-6.58-2.16-2.18-4.62-4.18-6.31-6.69s-2.78-5.66-4-8.56a29.06,29.06,0,0,1-1.34-4.18c-.5-1.92-.94-3.85-1.35-5.79-.61-3-1.31-6-1.73-9-.53-3.82-1.53-7.58-1.15-11.52.25-2.48-.08-5,.12-7.52.32-4.05.84-8.08,1.31-12.12.31-2.64.69-5.27,1.05-7.9a38.19,38.19,0,0,0,.72-5.26c0-3.51-.05-7-1.83-10.25a15.1,15.1,0,0,0-4.61-5.23,31.79,31.79,0,0,0-11.42-5.35c-4.82-1-9.68-2-14.68-1.51a14,14,0,0,1-2.79-.26c-1.78-.21-3.36.79-5,1-4,.49-8.14.42-12.2.68-2.23.15-4.45.52-6.68.78a21.22,21.22,0,0,0-2.66.3,21.18,21.18,0,0,0-2.94,1.08c-1.45.59-2.85,1.36-4.35,1.81a46,46,0,0,1-11.83,2.36c-1.23,0-2.46-.13-3.7-.18-4.62-.19-9.24-.38-13.86-.54-2.29-.08-4.6,0-6.88-.19a7.57,7.57,0,0,1-2.76-1.36c-.14-.08-.12-.74.06-1,.44-.55,1.13-.92,1.51-1.49a5.82,5.82,0,0,1,5-2.5c.5,0,1.89.68,1.51-1l1.89-.34c0-.44-.13-1.1.13-1.52.8-1.3-.3-1.25-1-1.5a20.21,20.21,0,0,1-2.48-.88,2.39,2.39,0,0,1-1.32-2.54,2.44,2.44,0,0,0-.12-1.26c-.3-.71-.07-.92.62-1a5.69,5.69,0,0,0,1-.27,5.7,5.7,0,0,0-.73-1.16c-.26-.24-.7-.28-1-.47a6.24,6.24,0,0,1-.8-.58c.34-.09.79-.38,1-.25,1.66.91,3,0,4.4-.69.37-.17.55-.7.89-1a5.37,5.37,0,0,1,.87-.41c.35-.2.67-.43,1-.65a3.37,3.37,0,0,0-.7-.71c-.76-.41-1.55-.75-2.5-1.19a3.34,3.34,0,0,1,.67-.07,3.25,3.25,0,0,0,3.27-1.31,8.59,8.59,0,0,1,4.72-2.86c.31-.07.61-.18.92-.28a9.46,9.46,0,0,0-.86-1c-.16-.13-.48-.08-.72-.12a2.3,2.3,0,0,1,0-.28c2-.14,2.06-2.33,3.4-3.18a1.26,1.26,0,0,0,.31-1c0-.25-.37-.48-.58-.72-.06.25-.13.5-.18.76s-.08.52-.07.45a4,4,0,0,0-1.29-.2c-1.2.33-2.36.81-3.57,1.09a2,2,0,0,1-1.38-.35c-1-.68-1.39.11-1.55.75a7.73,7.73,0,0,1-3.48,5,5.87,5.87,0,0,0-.92.88,2.06,2.06,0,0,1-3.05.07,1.42,1.42,0,0,1-.12-1.07,15.71,15.71,0,0,0,.61-2.33,18.68,18.68,0,0,0-.33-2.77c0-.31-.1-.76.06-.92,1-1,1.48-1.95.58-3.24-.51-.75,0-.86.61-.87s1-.22,1.23-1a7.85,7.85,0,0,1,1.3-2.58,1.26,1.26,0,0,1,1.12-.4c1.51.56,1.55-.83,1.93-1.53.17-.32-.3-1-.52-1.51-.14-.31-.55-.63-.49-.86s.54-.41.79-.66a9.39,9.39,0,0,0,1.88-2c.2-.4-.38-1.16-.51-1.78-.08-.39-.17-1,0-1.19a24.36,24.36,0,0,1,2.32-2c.41-.32.87-.59,1.3-.88.24.51.72,1.05.67,1.53-.35,3.06-.87,6.1-1.23,9.16-.2,1.71-1.55,2.7-2.31,4a5.86,5.86,0,0,0-.4,4.53c.08.34.9.6,1.42.71a2.36,2.36,0,0,0,1.35-.21c.34-.15.57-.53.86-.81a3.35,3.35,0,0,1-.73-.28,6.06,6.06,0,0,1-.67-.67c.23-.21.43-.53.7-.6,1-.27,2-.46,3-.68l0,0c1.35,0,2.71,0,4-.12.44-.05.82-.59,1.22-.91.12-.1.28-.33.33-.31a1.66,1.66,0,0,1,.43.37c.16.15.33.44.46.42.62-.1,1.67-.15,1.77-.47.37-1.13.88-.59,1.24-.21a2.3,2.3,0,0,0,2.23.52,7.59,7.59,0,0,1,2.42-.08c1.33.25,2.73-.45,2.62-1.47.84,1.42,2,1.29,3.25.68a1.39,1.39,0,0,1,1,0c1,.4,1.82.58,2.43-.55a1.09,1.09,0,0,1,.57.14,5.92,5.92,0,0,1,1.26.88c1.13,1.12,1.84,0,2.7-.42a2.72,2.72,0,0,1,.92-.09,5.67,5.67,0,0,1-.45.8c-.12.17-.34.26-.48.41-.55.55-.83.93-1.89.42-1.23-.59-2.86-.32-4.53-.34,1.05.72.77,1.1,0,1.45-.66.29-1.69.55-1.83,1-.62,2.08-1.83.4-2.67.81l0-.46a7.85,7.85,0,0,0,1.19,0c.16,0,.42-.19.43-.31a2.12,2.12,0,0,0-.18-.71,2.24,2.24,0,0,0-.47.21l-3.08,2.33c-1.39-.65-1.4-.65-2.38-.34.33-.33.67-.65,1-1s.36-.41.54-.62c-.24-.13-.48-.27-.73-.39s-.47-.29-.69-.27a13,13,0,0,0-1.49.28c.12.27.34.55.32.8a3.67,3.67,0,0,1-.4,1c0-.49.3-1.15-.69-.56a15,15,0,0,1-2.37.78,2.92,2.92,0,0,0-.72.52c.29.11.64.38.85.29a1.24,1.24,0,0,1,1.71.54c.1.15.42.17.64.24-.42-1.23,1.09-.34,1.16-1l-.51,1.67c.59-.51.88-.79,1.2-1a.7.7,0,0,1,.5-.05c.45.1,1,.44,1.31.29s.5-.76.74-1.17c.78.48,1.55,1,2.36,1.4.13.06.49-.42.78-.59s.71-.4.89-.29c.61.36,1.11.91,1.71,1.29.19.12.59-.06.88-.14a23.24,23.24,0,0,1,2.84-.74,12.62,12.62,0,0,1,2.45.09l.54.06c-.14-2.11,1.63-.5,2.41-1.15.57-.48,1.93,0,3,0a9.45,9.45,0,0,0,3.25-.2c1-.37,1.39-.5,1.37,1,.42-.57.87-.9.87-1.24,0-1.53,1-.74,1.62-.72a13,13,0,0,0,2.16.05c.28,0,.5-.55.74-.87s.35-.68.63-.87.53.11.81.17l-.74.75c1.69-.09,3.16-.19,4.64-.23a6.16,6.16,0,0,1,1.33.22c.08,0,.19.13.21.11.82-.72,1.49.07,2.22.2s1.7.71,2.4-.27c.3.22.79.4.85.68a10.75,10.75,0,0,1-.05,1.49c0,.22.35.41.53.62a3.89,3.89,0,0,0,.56-.59,1.85,1.85,0,0,1,.78-.87,4.67,4.67,0,0,0-.25.94c0,.1.33.3.52.31.75,0,1.5,0,2.25,0,1.22.07,2.49.88,3.63-.25.52.64,1.38-.23,2.13.66.52.62,1.36,2.32,3,1.4.11-.06.39.08.55.19,1.58,1,2,.93,3.12-.38a2.92,2.92,0,0,1,.55-.42c.07.14.15.23.15.32.09,1.06.08,1.62,1.7,1.73a28.68,28.68,0,0,1,7.41,2c4.82,1.7,8.73,4.86,12.55,8.14.16.14.31.39.48.41,2.79.22,2.54,2,2,3.9,0,.15.27.49.49.59,1.06.47.77,1.12.09,1.53-1.19.7-.43,1.75-.3,2.4.27,1.33.42,2.92,2.09,3.56.31.12.38.79.69,1,.85.57,1.45.1,1.57-1.15a5.62,5.62,0,0,1,.92,5.26c-.33.84,0,2.11-.55,2.66-.86.9,1.06,2.24-.65,2.73,1.2.8-.7,1.93.33,2.88.39.36.36,1.29.34,1.95-.06,1.31-.2,2.61,1,3.55.05,0,.08.21,0,.23-1.12,1,.15,1.58.3,2.36a4.06,4.06,0,0,1-.42,1.62c-.46-.21-1.48.35-1.25-.89a1.92,1.92,0,0,0-1.11-.3c-.4.11-1,.49-1,.84-.25,1.32-.33,2.67-.47,4,0,.08,0,.19,0,.25,1.21,1.7-.1,3.35-.13,5,0,.71.1.68.64.36.21-.13.63.09,1,.15-.12.24-.36.49-.35.72a25.52,25.52,0,0,1,.2,2.59c-.07.88.23,1,1,.9a3.61,3.61,0,0,0-1,.37,1.2,1.2,0,0,0-.41.79c0,.13.37.33.61.43a4.45,4.45,0,0,0,.76.2l-.52.43c.73.17-.83,1.79.88,1.38.19,0,.46.3.71.47l-2.49,1.42.17.35.87-.36c.57-.24,1.22-1,1.48.36,0,.26.8.38,1.37.62a11.49,11.49,0,0,0-2.07,1.62c-.31.37-.18,1.11-.25,1.72l1-.43a3.36,3.36,0,0,0,.08.85c.27.79-.53,1.88.73,2.42.21.08.18.76.23,1.17s.09.92.13,1.38a14.82,14.82,0,0,0,0,1.64c1.18.1.5.77.44,1.26,0,.3,0,.82.16.88,1.19.45,2.41.79,3.61,1.2a11.82,11.82,0,0,1,1.71.75c.17.09.41.43.36.53a1.07,1.07,0,0,1-.6.51,3,3,0,0,1-.86-.15c-.24,0-.49-.05-.74-.07.21.18.4.46.64.53.72.2,1.45.31,2.18.47l-.45,1.2c1.36-.8.55,2.29,2.09,1.16,0,0,0,.1,0,.12a15.74,15.74,0,0,0,1.89,1.38c.25.13.72-.14,1.1-.22-.21-.32-.41-.65-.63-1s-.63-.87-.95-1.3v0c1,.18,2,.41,3,.53a3.47,3.47,0,0,0,1.13-.28c.16.42.2,1,.5,1.23a3.14,3.14,0,0,0,1.52.3,2.28,2.28,0,0,0,.79-.28c-.06-.12-.09-.31-.18-.34-.88-.32-1.76-.6-2.65-.89l-.8-1.57c.88.46,1.46.78,2.06,1.07a8.09,8.09,0,0,0,1.86.83c1.36.26,1.28,1.24,1.28,2.23a2.45,2.45,0,0,0-.38,0h-1.83l.87.91s0,.1,0,.11l1.12.5a2.32,2.32,0,0,1-.17-.76A2.53,2.53,0,0,1,254.26,389.39Zm56.56,12.75a15,15,0,0,0-.46,1.58,3.44,3.44,0,0,0,.07.95c.22-.14.45-.28.67-.44,1.11-.77,1-1.16-.3-2.07-.12-.62.42-1.6-1-1.44-.68.08-1.44-.4-2.13-.33-.28,0-.48.85-.74,1.35.7-.2,1.48-.57,1.59-.43A1.89,1.89,0,0,0,310.82,402.14Zm-94-75.92.45.19-.74.4a12.68,12.68,0,0,0,2,2.11c1,.7,1.27,2.5,3.09,2.06.19,0,.87,1,.81,1-.5.56.61,1.89-.91,1.92-.2,0-.41.25-.57.42s.1.31.21.38c.91.55,1.83,1.08,2.9,1.71.27-1.49,1-3.28.86-5-.44-5.25-3.51-9-7.89-11.52-6.05-3.44-12.77-4.8-19.65-5.41-4.83-.43-9.67-.74-14.5.15-1.79.33-3.58.64-5.37.87-1.31.17-2.63.18-3.94.31-2.71.28-5.41.76-8.12.85a13.38,13.38,0,0,0-7.95,2.52,9.09,9.09,0,0,0,1.18-.21,8,8,0,0,1,1.74-.24c1.77.05,3.53.17,5.29.25.64,0,1.28.06,1.91,0a22.59,22.59,0,0,0,5.23-.41,19.57,19.57,0,0,1,7.83-.49,5.19,5.19,0,0,0,1.88.19c3-.93,5.81.41,8.72.49a21.62,21.62,0,0,1,4.54.57c3.65.91,7.31,1.84,10.89,3S213.45,324.94,216.83,326.22Zm22.95,91.54-.21.15a10,10,0,0,0,1.57,1.89,58.19,58.19,0,0,0,18.43,8.71c3.24.93,6.84.86,10.26.78a39.71,39.71,0,0,0,8.79-1.29A45.63,45.63,0,0,0,293,421.57a13.47,13.47,0,0,0,1.35-1l-.32-.44a14.46,14.46,0,0,0-1.63.44c-.93.34-1.7,1.43-2.87.57a3.12,3.12,0,0,0-.25.35c-.13.24-.2.64-.39.71-1.31.47-2.63.9-4,1.3a57.33,57.33,0,0,0-6,1.72c-2.68,1.11-5.44,1.11-8.23,1.17-.11,0-.36-.3-.33-.36.46-.95-.25-.89-.8-.92a13.07,13.07,0,0,0-1.77,0,8.19,8.19,0,0,0-1.28.3l1.09.53s0,.12,0,.45c-2.52-.39-5.13-.37-7.4-1.25a48.36,48.36,0,0,0-7.58-2.07,33.67,33.67,0,0,1-6-1.95C244.27,420.13,242.05,418.89,239.78,417.76Zm66.59-12.9a11.42,11.42,0,0,0-.58,1.6,3.29,3.29,0,0,0,0,1.68c.12.31.89.7,1.1.58a2.69,2.69,0,0,0,.86-1.24c0-.07-.39-.41-.65-.54a2.3,2.3,0,0,0-.71-.11c.2-.24.4-.69.61-.7,1.61-.07,1.86-1.27,2.16-2.45a3.17,3.17,0,0,0,0-.69,3.92,3.92,0,0,0-.68.43c-.29.29-.52.64-.81.92,0,0-.47-.24-.46-.26a9.44,9.44,0,0,1,.62-1.23c.08-.13.3-.16.39-.29a2.69,2.69,0,0,0,.26-.57,4.67,4.67,0,0,0-.64.18c-.41.19-.95.68-1.17.56-1.41-.75-1.63.36-2.07,1.19a2.5,2.5,0,0,1-.55.69.66.66,0,0,1-.58,0c-.15-.11-.2-.37-.29-.56-.09.27-.28.54-.25.79.08.7,0,1-.85,1.17a6.42,6.42,0,0,0-2.62,1.43,17.68,17.68,0,0,0-2.46,2.85c-.18.25,0,.78.06,1.19a3.2,3.2,0,0,0,.9-.18c.7-.37,1.35-.84,2-1.23a3.1,3.1,0,0,1,.75-.22,2.68,2.68,0,0,1-.35.72c-.22.24-.64.33-.79.6-.6,1.07-2.48,1.12-2.26,2.81a8.68,8.68,0,0,0,.23,1,8.53,8.53,0,0,0,.76-.53,4.64,4.64,0,0,1,3.64-1.47,1.92,1.92,0,0,0,1.89-2.48c-.06-.32.3-.73.5-1.07.09-.16.28-.25.43-.37-.16-.13-.3-.32-.48-.37a4.74,4.74,0,0,0-.83-.12,7.72,7.72,0,0,1,.72-2.47C304.62,405.5,305.5,405.31,306.37,404.86Zm-48.61-.17-.19-.51c-.26-.11-.52-.32-.77-.3-.8.07-1.59.3-2.39.33-1,.05-1,.58-.87,1.35.08.5,1.17.93.15,1.53.24.12.59.4.69.33C255.53,406.54,256.64,405.61,257.76,404.69ZM263,402c-.06-.12-.16-.7-.41-.78a28.68,28.68,0,0,0-3.68-.79c-.33-.06-.71.21-1.07.33.22.28.38.67.66.82s.62,0,.91-.12a8.91,8.91,0,0,0,1.06-.54l-.41,1.08a8.44,8.44,0,0,0,1.1.13C261.7,402.08,262.25,402,263,402Zm-15.77,1-.2-.4a2.94,2.94,0,0,0-.15.62,1.67,1.67,0,0,0,.14.78c.4.66.85,1.29,1.3,1.91a1.94,1.94,0,0,0,.51.36c.18-.32.6-.79.51-1C248.79,404.37,249.12,402.71,247.22,403Zm13.59.91-.25-.16a12,12,0,0,0-.89,1.23c-.24.41-.64,1.17-.53,1.26a8.33,8.33,0,0,0,1.92,1.12c.12.05.41-.28.62-.44-.17-.15-.33-.43-.51-.43-1.14,0-.93-.77-.77-1.44A9.71,9.71,0,0,1,260.81,403.86Zm-29-60.11-.48.21c0,.22-.14.52,0,.64a11.69,11.69,0,0,0,1.11,1c.18.14.45.2.56.37s-.05.36-.09.55c.21-.27.64-.71.58-.8C232.93,345,232.35,344.39,231.79,343.75Zm30.85,49.84-.43-1.5c-.3.21-.58.42-.89.61a.65.65,0,0,1-.44.15,1.77,1.77,0,0,1-.45-.3c.11.32.13.77.36.92a3.25,3.25,0,0,0,1.32.42C262.29,393.91,262.51,393.66,262.64,393.59ZM249,426.37l-.25.63,3.87,1.41.15-.36Zm12.88-26.75-1.75-1.31c-.1.17-.32.44-.29.48a11.05,11.05,0,0,0,1.28,1.28C261.23,400.13,261.58,399.83,261.92,399.62ZM148.15,304a2.58,2.58,0,0,1-.46-.18c-.25-.16-.66-.36-.66-.54,0-.84-.29-.67-.7-.26a3.41,3.41,0,0,0-.4.54,5.37,5.37,0,0,0,1.25.95c.22.09.6-.18.9-.29C148.1,304.23,148.11,304.17,148.15,304Zm103,96.39,1.84,1.92C252.25,400.23,252.25,400.23,251.15,400.41Zm.76-5.71-.1-.24c-.69-.06-1.38-.18-2.06-.17-.25,0-.49.31-.74.48.1.11.2.31.29.3C250.17,395,251,394.83,251.91,394.7Zm4.53-3.28,1.24-.55c-.27-.18-.57-.53-.82-.51a5.19,5.19,0,0,0-1.31.52Zm6.82,16.73-2.4.75C262.66,409.68,263.09,409.52,263.26,408.15Zm-1.4-11.56a13.6,13.6,0,0,1,1.19.9,1.82,1.82,0,0,1,.27.56c.23-.17.61-.31.64-.51s-.13-.76-.33-.82A7.42,7.42,0,0,0,261.86,396.59ZM245.2,406.2l-.1.36,1.64.74.56.28c-.06-.3,0-.81-.18-.87A13.91,13.91,0,0,0,245.2,406.2Zm-2.12-1.79.84-.65c-.47-.33-.94-.66-1.42-1,0,0-.33.24-.32.26C242.44,403.47,242.71,403.87,243.08,404.41Zm8-2.29-.74.35c.63.26,1.25.53,1.88.77.11,0,.27-.1.41-.15ZM134.36,297l-.06.22h2.9v-.37Z" transform="translate(-56.02 -229.24)"/><path d="M96,282.36a5.24,5.24,0,0,0-1.63-.11,2.82,2.82,0,0,0-1.47.92c-1.59,2.32-4.1,2.42-6,.38-1.1-1.21-1.45-2.31-.74-3.79a3.3,3.3,0,0,0,0-1.37,33.08,33.08,0,0,0-.1-3.31,2,2,0,0,0-.84-1.21c-.22-.14-.84.06-1.1.3-1.59,1.49-.91,3.6-1.43,5.39a54.82,54.82,0,0,1-1.89,5.2,1.1,1.1,0,0,1-.77.57c-1.68.22-1.72,1.31-1.51,2.61a2.35,2.35,0,0,1-.18.88c-.26-.17-.67-.3-.75-.53-.55-1.62-1.77-2.83-2.52-4.23a22.18,22.18,0,0,1-2.1-7.41c-.34-2.48,2.59-5.92,5-6.47,1.46-.33,2.91-.66,4.37-.94.44-.09,1.06-.18,1.35.05.82.64,1.51,1.33,2.26,0,.23.19.62.36.64.58.13,1.09.14,2.2.25,3.29a.91.91,0,0,0,.45.66.82.82,0,0,0,.7-.31,17.71,17.71,0,0,0,1.73-3.16,5.65,5.65,0,0,1,3-3.41c.5-.24,1.64.42,2.22,1a11.37,11.37,0,0,1,1.58,2.49c.76-1.94,1.83-3.43.43-5.66-.83-1.33-.52-3.53-.36-5.32.3-3.37.84-6.73,1.33-10.09a3.79,3.79,0,0,1,.71-1.4c1.37-2,3.72-3.26,4.42-5.8,0-.18.88-.38,1.08-.22a10.73,10.73,0,0,1,2.33,2.28,3.25,3.25,0,0,1,.15,2.09c-.26,1.63-.7,3.23-.94,4.86-.06.39.62,1.2.57,1.23-.82.56-.61.84.07,1.39.27.22.05,1.05.05,1.61l.43.09c.36-1.78.8-3.55,1-5.34a1.49,1.49,0,0,1,.88-1.37c.83-.51,1.28-1.64,1.9-2.5.3-.4.61-.8.92-1.19.13.51.27,1,.37,1.54s.15.87.22,1.31c.29-.25.57-.51.87-.73s.66-.51.82-.42a1.15,1.15,0,0,1,.6.84c0,1.55-.12,3.1-.15,4.66a2.78,2.78,0,0,0,.21,1.45c1.08,1.68.66,3.31.13,5a21.74,21.74,0,0,0-.43,2.8A5.93,5.93,0,0,1,114,263c-.85,1.72-1.71,3.43-2.67,5.09a4.08,4.08,0,0,1-2.72,2.19c-.34.06-.79-.52-1.15-.77-.77,1.93-1.75,4.09-2.45,6.34-.21.69.38,1.62.54,2.45a5.89,5.89,0,0,1,.13,1.67c-.17,1.93-.37,3.86-.62,5.79s-.53,3.58-.82,5.37a.58.58,0,0,1-.26.42c-1.37.66-1.18,2-1.47,3.16-.1.4-.61.71-.94,1.06-.1-.42-.24-.82-.3-1.24s.06-1,0-1a4.1,4.1,0,0,0-1.44-.07A1.66,1.66,0,0,0,99,294c-1.09,1-1.7,1-2.73-.09a11.92,11.92,0,0,0-1.08-1.05c-1.47-1.16-1.43-1.43-.74-3.14a5.5,5.5,0,0,0,.4-3.22C94.41,284.75,94.43,283.4,96,282.36Z" transform="translate(-56.02 -229.24)"/><path d="M409.58,373c-1.76,0-3.52,0-5.27,0-1.35,0-2.76-.08-3.34,1.71a2,2,0,0,1-1.57,1,24.28,24.28,0,0,1-4.12-.69c-2.65-.59-5.3-1.24-7.95-1.86a4.16,4.16,0,0,1-1.8-.73c.39-.07.77-.11,1.15-.2a4.53,4.53,0,0,0,.69-.28,7.64,7.64,0,0,0-.47-.69c-.07-.08-.23-.09-.34-.14-2.08-.93-2.06-.91-.85-2.86.09-.16-.22-.69-.47-.91-.46-.42-1.17-.71,0-1.11a.84.84,0,0,0,.35-.75c-.62-2.09-.43-2.4,2.26-2.76a7.65,7.65,0,0,1-1.37-.56,3.12,3.12,0,0,1-.58-.75,3.18,3.18,0,0,1,.84-.31c.33,0,.67.16,1,.16.1,0,.32-.37.27-.48a13.1,13.1,0,0,0-.93-2,2.82,2.82,0,0,0-.87-.77,10.24,10.24,0,0,0-1-.54l.17-.4c.58.25,1.14.55,1.74.74a3.17,3.17,0,0,0,1,0,9,9,0,0,0-.5-.92,2.76,2.76,0,0,0-.56-.45,5.25,5.25,0,0,1,.69-.47c.14-.08.33-.05.5-.1l1.25-.38a11.73,11.73,0,0,0-1.53-1c-.27-.13-.78.12-1,0a6.16,6.16,0,0,1-.93-1.25,7.64,7.64,0,0,1,1.06-.12,3.8,3.8,0,0,0,1.42,0l-.71-.5.14-.34c1.27.51,2.53,1,3.8,1.5a6.35,6.35,0,0,0,1.07.22,6,6,0,0,0-.66-1c-1.22-1.13-2.73-1.22-4.3-1.22a11.24,11.24,0,0,1-2.25-.46c.67-.23,1.37-.72,2-.65a45.15,45.15,0,0,1,4.41,1l1.72.42c-.31-.45-.47-.7-.65-.95-.45-.64-.4-.9.5-.89,1.27,0,1.71-.63,1.22-1.78-.39-.88-1.05-1.65-1.4-2.55a4.61,4.61,0,0,1-.11-2c0-.15.7-.23,1.08-.32a6.68,6.68,0,0,0,1.36-.26c.58-.26,1.07-.53.27-1.27a8.75,8.75,0,0,1-1.4-2.18c0-.06.26-.46.39-.45,1.21.06,1.2-.55.95-1.46-.08-.29.21-.67.33-1a2.83,2.83,0,0,0,.63.57.62.62,0,0,0,.52-.09c.53-2.41,2.33-2.43,4.24-2.35s3.54-1.24,5.46-.51c1.29.49,2.64.84,3.94,1.32,1,.36,1.95.83,2.94,1.21.72.27.88,1.64,1.07,2.23.36,1.13-.6,1.23-.9,1.82a10.46,10.46,0,0,0-1,2.6c-.23,1.12-.19,2.3-.34,3.45a1.38,1.38,0,0,1-.5.87c-1,.6-2,1.09-2.93,1.72-.22.15,0,.89-.22,1.09-2.15,1.92.42,1.24.91,1.7.35.31.68.64,1,1-.43.12-.86.25-1.3.36-.23.05-.48.06-.72.09.08.17.24.34.23.51s0,.71-.22.81a1.77,1.77,0,0,0-.61,2.6,2.55,2.55,0,0,1,.13,1.67c-.08.36-.52.64-.8,1-.86,1-1.67,2-2.58,2.87a11,11,0,0,1-1.72,1.19c-.27.18-.56.31-.83.47a7.14,7.14,0,0,0,.75.61,4,4,0,0,0,.82.36c2.5.93,2.08.93,1.27,3.24-.59,1.68-.37,2.28,1.43,2.63.71.14,1.42.23,2.12.38a1.91,1.91,0,0,1,.58.39Z" transform="translate(-56.02 -229.24)"/><path d="M444.4,369.27c-1.27-.77-2.55-1.53-3.82-2.31a4.22,4.22,0,0,1-.59-.53c.31-.05.69-.24.91-.12,1,.52,1.89,1.13,2.83,1.72.47.29,1,1,1-.33a3.92,3.92,0,0,1,.88-1.81c.32-.45,1.18-.75.15-1.32.56-.52,1.08-1.41,1.68-1.47,1.08-.11,1-.38.6-1.12a4.82,4.82,0,0,1-.26-1.35c.48.31.94.83,1.29.76a2.64,2.64,0,0,0,1.25-1c.35-.43.23-1.65,1.25-.39.26.32,1.45.08,2.12-.16s2,.1,1.46-1.38a1.89,1.89,0,0,1,.52-.13,6.2,6.2,0,0,0,.74.08c1.24-.15,1.55.2,1.21,1.42a1.41,1.41,0,0,0,.07.53,1.71,1.71,0,0,0,.48-.27c.23-.29.41-.62.62-.94.5.5,1,1,1.49,1.52.14.17.05.53.41.83,0-.53,0-1.06.12-1.58s0-1.17.75-.3c.22.27.82.23,1,.26.17.71.61,1.47.42,2a15.25,15.25,0,0,1-1.61,2.89,9.17,9.17,0,0,0-1,1.66c-.43,1.39-.69,2.83-1.08,4.24-.28,1-1,.93-1.81.61-.48-.19-1.38-.29-1.59,0a6.53,6.53,0,0,0-.93,2.19c-.09.28.19.74.05,1a1.75,1.75,0,0,0,.12,2.27c.55.74-.15.88-.76.94s-1.09.13-1.63.19c.22.51.45,1,.65,1.51a4.06,4.06,0,0,1,.16.69,2.59,2.59,0,0,1-.72.07,19.17,19.17,0,0,0-3.12-.69l4.16,3.29-.29.4c-.69-.46-1.37-1-2.1-1.37a3.21,3.21,0,0,0-1.41-.48,13.51,13.51,0,0,1-8.35-3.18,1.82,1.82,0,0,1-.65-1.28c.14-1.78-.78-2.83-2.18-3.69-.39-.24-.59-.77-.89-1.17l1.43.59c.07,0,.11.13.18.17.41.25.81.51,1.24.72a1.79,1.79,0,0,0,.34-.44c-.32-.35-.68-.67-1-1-.89-.78-1.77-1.55-2.65-2.34-.07-.06-.12-.29-.08-.32s.44-.31.52-.26c1.48,1.12,3.1-.37,4.62.26a8.55,8.55,0,0,0,1.69.31Zm1.85,5.28-.15.44c1.57.66,3.14,1.33,4.72,2a2.84,2.84,0,0,0,.83,0c-.2-.26-.35-.65-.61-.77-1.08-.49-2.19-.9-3.31-1.31C447.25,374.77,446.74,374.68,446.25,374.55Zm11.61-10.77c.76-1.51.76-1.82-.15-2.44a5.85,5.85,0,0,0-1.66-.51c.31.51.85.6,1.05.91A10.31,10.31,0,0,1,457.86,363.78Zm-15.19,7.66c-.68-.33-1.17-.59-1.68-.79-.07,0-.26.23-.4.36.49.31,1,.63,1.46.9C442.11,371.94,442.32,371.72,442.67,371.44Z" transform="translate(-56.02 -229.24)"/><path d="M114.32,286.12l2.41-5.44a1.82,1.82,0,0,1,.07-.25l1.27-1.86c0,.66-.1,1.33-.17,2,0,.21-.22.46-.16.6,1,2-.54,3.45-1,5.15a35.15,35.15,0,0,0-.65,4.27c-.11.72,0,1.71-1.31,1.19-.08,0-.38.18-.39.3-.17,1.55-.35,3.1-.41,4.66a3.22,3.22,0,0,0,.44,1.58c.38.69.34,1.19-.33,1.63a.62.62,0,0,0-.26.27c-.86,2.15-1.84,4.27-2.53,6.47-.45,1.43-.19,3.12-.79,4.44-1.07,2.37-1.7,5.15-4.23,6.56a1.63,1.63,0,0,1-2.47-.4c-.89-1.16-1.43-2-.92-3.52.22-.66-.23-1.31-1.13-1.54s-1.58-.27-1.08-1.74c1-3,1.63-6.18,2.41-9.29a1.29,1.29,0,0,1,.32-.65c2-1.59,2.25-4,3-6.16.11-.31.18-.64.31-.94,1.06-2.54,2.13-5.06,3.2-7.59.37-.88.53-1.67,1.76-2.15.9-.35,1.33-2,1.91-3,.38-.71.6-1.51,1-2.21.15-.27.58-.39.88-.58a2.69,2.69,0,0,1,.12,1c-.34,1.15-.88,2.15-.37,3.52.24.65-.71,1.73-1.09,2.63a7,7,0,0,0-.28.92Z" transform="translate(-56.02 -229.24)"/><path d="M238.07,360.55a12.86,12.86,0,0,1,.49,1.44c0,.14-.21.33-.33.5-1-.87-.79.19-.9.62-.23.92.42,1.07,1.1,1.14s1.2.25,1.27-.72c.1-1.31.27-2.62.43-3.93a1.75,1.75,0,0,1,.37-.9c.19,1.48,1.52,2.86.08,4.46-.31.34.12,1.35.21,2a17.36,17.36,0,0,0,2.71,7.33l-.26-1.94c1,1.7,1.84,3.08,2.62,4.51a11.6,11.6,0,0,0,5,4.39c2.49,1.33,5.13,2.4,7.61,3.75,5.64,3.06,11.7,3.81,18,3.33,2.65-.2,5.27-.77,7.91-1.17.25,0,.6-.19.73-.08,1.12.95,2.2.28,3.25-.07,1.93-.67,3.86-1.39,5.75-2.18a4.44,4.44,0,0,0,2.31-1.86c.52-.84,2-1.11,3-1.63l.32.49c-1.09.93-2.2,1.86-3.27,2.82-.34.32-.53.83-.89,1.11a12.31,12.31,0,0,1-1.65,1c-.06,0-.16,0-.24,0-2.17.62-4.31,1.43-6.52,1.84-5.63,1.06-11.07,3.77-17,2.71-4.91-.88-10.07-.3-14.75-2.44-2.28-1-4.52-2.15-6.77-3.22a5,5,0,0,0-.47-.22c-.6-.23-1.92.64-1.64-1.08,0-.12-1-.41-1.53-.62a2.91,2.91,0,0,0-.68-.46c-.36-.11-.77,0-1.11-.16-1.48-.58-1.77-1.92-2.14-3.27-.14-.5-.75-.88-1.19-1.28-.07-.06-.34.1-.51.15.07-.36.13-.72.22-1.07s.17-.44.25-.67c-1.07.38-1-1-1.79-1.13.67-.56.52-1.78-.2-2.69-.39-.49-1.85-.83-.46-1.81-1.55-1.28.64-3.81-1.65-4.92-.29-.14-.28-1-.34-1.51-.2-1.7-.4-3.4-.51-5.11,0-.24.38-.56.65-.75a2.18,2.18,0,0,1,.77-.25,5.68,5.68,0,0,0-.87-1.3,4.29,4.29,0,0,0-1.3-.5c.31-.23.63-.44.92-.69a.48.48,0,0,0,.15-.39c-.28-.82-.63-1.62-.87-2.46-.05-.17.33-.66.4-.64.86.27,1.54.27,2,1.64.63,1.88,0,3.89,1,5.66a5.86,5.86,0,0,1,.29,2.22,3.56,3.56,0,0,0-.61-.56,9.39,9.39,0,0,0-1.12-.51,2.85,2.85,0,0,0,.14,1.12C237,361.43,237.58,361.27,238.07,360.55Zm5.57,19.05c.36-.88-.24-3.05-1.11-3.44-.23-.11-.6,0-.88.14a.65.65,0,0,0,0,.5C242.31,377.77,243,378.72,243.64,379.6Z" transform="translate(-56.02 -229.24)"/><path d="M116.14,265.23a7.76,7.76,0,0,1,.91.15c.49.15,1.29.58,1.39.44a7.06,7.06,0,0,0,1.25-2.26c.67-2.13,1.3-4.24,3.24-5.64.25-.18.38-.54.59-.8q1.38-1.81,2.8-3.61c.07-.09.3-.06.46-.08,0,.2.14.48,0,.58-.87,1,.12,1.43.69,1.64.74.28.61.64.62,1.23a15.83,15.83,0,0,0,.41,3c0,.24.38.41.58.61l.44-.58c.62-.8,1.23-1.61,1.87-2.39.1-.13.34-.14.52-.2,0,.19.18.41.12.57-.27.76-.58,1.51-.91,2.24-.49,1.07-1.13,2-.31,3.33.26.43-.6,1.47-.78,2.26-.42,1.9-.72,3.82-1.14,5.71a5.41,5.41,0,0,1-.82,2.06c-.78,1-.75,2.5-2,3.34-.43.31-.48,1.13-.74,1.7a53.43,53.43,0,0,0-2.33,5.41,4.84,4.84,0,0,1-.92,2.27,13.2,13.2,0,0,1-1.08.9c-.1-.14-.32-.31-.29-.42a8.56,8.56,0,0,0,.46-1.58,7.57,7.57,0,0,0-.37-1.55c-.08-.46,0-1-.15-1.4a7.25,7.25,0,0,0-.51-1.44c-.12-.26-.41-.43-.54-.69-.59-1.11-1.13-2.24-1.71-3.35a1.62,1.62,0,0,1-.09-1.93c.45-.79.23-2,.3-3a3.87,3.87,0,0,1,.06-1c.73-2.07.34-3.74-1.63-4.89C116.5,265.8,116.43,265.62,116.14,265.23Z" transform="translate(-56.02 -229.24)"/><path d="M56,293.91c.33-2.21.64-4.42,1-6.62a1.92,1.92,0,0,1,.52-1.14c2.32-1.86,1.68-4.66,2.33-7a18,18,0,0,0,.85-2.31c.16-1.22,1-1.14,1.82-1.26,1-.15,2.09-.34,3.15-.39,1.35-.06,1.55,1.1,1.91,2s.7,1.89,1.11,2.81c.5,1.16.93,2.26.26,3.53-.21.41-.06,1-.12,1.5a5.39,5.39,0,0,1-.22,1.06A56.79,56.79,0,0,0,67,292c-.22,1.29-.09,2.53-1.33,3.49-.48.36-.46,1.35-.7,2-.15.43-.29,1.16-.55,1.22a16.22,16.22,0,0,1-3.84.53C57.47,299.24,56,296.45,56,293.91Z" transform="translate(-56.02 -229.24)"/><path d="M340.9,366.37c.29-.48.54-1,.87-1.43,1.19-1.61,3-2.46,4.55-3.59.21-.16.2-.59.41-.76.64-.54,1.28-1.36,2-1.46a4.61,4.61,0,0,0,4.34-3.63,2.4,2.4,0,0,1-.58.25c-.39,0-.78,0-1.17,0,.2-.25.36-.63.62-.73a89.56,89.56,0,0,1,9.52-3.45c3.6-.91,7.35-1.25,11-1.86.75-.12,1.48-.38,2.23-.5.22,0,.48.22.72.34-.2.15-.4.31-.61.45a25.25,25.25,0,0,0-2.27,1.41c-.17.14-.13.7,0,1,.36,1.23,0,1.77-1.28,2a4,4,0,0,0-.5.08l-1.63.51c.37.33.75.64,1.1,1,.61.6.2.9-.38,1.05-2.06.52-4.17.88-6.18,1.55-3,1-5.86,2.19-8.77,3.34a1.67,1.67,0,0,0-.65.88c-.28.67-.24,1.37-1.44.78-.56-.27-1.7.59-2.55,1-.67.32-1.29.76-2,1.1-.13.07-.39-.09-.73-.18a6.25,6.25,0,0,1,.2.76,5.61,5.61,0,0,1,0,.71c-.21-.08-.43-.15-.63-.24a14.23,14.23,0,0,1-2.68-1.44,6.91,6.91,0,0,0,1.1.22,2.76,2.76,0,0,0,.76-.2l-.49-1A22.34,22.34,0,0,0,343,366c-.44.33-.62,1-.91,1.55a.43.43,0,0,0-.12-.11Z" transform="translate(-56.02 -229.24)"/><path d="M433,383.73a6.81,6.81,0,0,1,1,0c1,.15,1.39-.23,1.54-1.2.07-.39.57-.73.91-1.06s.71-.42.87-.73a1.6,1.6,0,0,1,2.47-.82c2.66,1.48,5.4,2.83,8,4.47.91.58,1.38,1.86,2,2.82a.26.26,0,0,1,0,.24c-.52,1.08-.29,1.57.77,2.1s2.21,1.29,3.31,1.95c.08.05.09.21.14.32-.15.06-.31.19-.44.16-.37-.09-.74-.37-1.08-.32a2.19,2.19,0,0,0-1.18.55,3.16,3.16,0,0,0-.77,1.13,12,12,0,0,0-.47,1.63c-1.3-.54-1.62.44-1.91,1.78-.42,2-1.76,2.43-3.48,1.31a52.84,52.84,0,0,1-9.89-8.32c-.62-.68-1.46-1.46-.37-2.59a2.06,2.06,0,0,0,0-1.82c-.16-.34-.95-.37-1.42-.6A9,9,0,0,1,432,384Zm10.08,7.65-.26.43c1.38.82,2.75,1.65,4.13,2.46a1.42,1.42,0,0,0,.59.05c0-.11,0-.27-.07-.34C446.22,392.82,445,391.59,443.12,391.38Z" transform="translate(-56.02 -229.24)"/><path d="M465.64,394.28c-.31.82-.59,1.66-.93,2.47-.74,1.79-1.44,3.61-2.27,5.37-1.14,2.42-2.36,4.73-1.67,7.63.2.83-.53,2-1.09,2.86-.91,1.41-2,2.69-3.05,4s-2,1.28-2.89,0c-1.8-2.58-2.54-5.32-1-8.34.86-1.68,1.65-3.4,2.39-5.14.12-.28-.25-.74-.34-1.12a7,7,0,0,1-.07-.92,2.3,2.3,0,0,1,.65.43c.81,1.08,1.5.29,1.95-.26a3.37,3.37,0,0,0,.69-2,3.7,3.7,0,0,1,1.5-3c1-.79,1.94-1.68,1.32-3.19,0-.11.31-.54.46-.53,1.47.06,2-.81,2.17-2.07.14-.89.33-1.78.45-2.67.23-1.77,1.72-1.13,2.71-1.36.17,0,.53.78.8,1.21,1.27,2-1.28,2.84-1.5,4.41,0,.16-.88.13-1.27.34a10.3,10.3,0,0,0-1.35,1.06c.13.15.31.44.39.41a13.49,13.49,0,0,0,1.42-.61c.06,0,.06-.18.13-.21a2.71,2.71,0,0,1,1-.53c.15,0,.35.54.57.9a7,7,0,0,1,1.18-1.12c.3-.18.78-.05,1.18-.06a2.81,2.81,0,0,1-.3,1c-.58.72-1.25,1.38-1.68,1.84.15.69.54,1.4.33,1.75a42.45,42.45,0,0,1-2.85,4c-.12.16-.55.07-.83.1a1.68,1.68,0,0,1,0-.63c.33-.77.72-1.52,1-2.3a14.76,14.76,0,0,0,.42-1.52c.2-.7.42-1.39.64-2.09Z" transform="translate(-56.02 -229.24)"/><path d="M174,282.14c1.71-1.27,3.29-2.64,5.53-2.55.55,0,1.49.22,1.34-1,0-.13.66-.47,1-.5,5.76-.47,11.52-1.17,17.29-1.27A72.45,72.45,0,0,1,211,278a16.1,16.1,0,0,1,5.22,2.07l-7.54-1.64-.12.62c1.33.26,2.68.42,4,.78,5.8,1.64,11.71,3.09,16.74,6.6,2.78,1.94,5.36,4.18,8,6.35,1.5,1.25,1.9,3,2,4.89.14,2.24,1.5,4.38.53,6.73-.23-1.26-.45-2.51-.68-3.76a2.61,2.61,0,0,0-.16-.61c-1.05-2.12-2.1-4.23-3.16-6.35a6,6,0,0,0-.49-.6l.54,2.33-.25.11a4.61,4.61,0,0,1-.57-.91c-.91-2.9-3.1-4.69-5.42-6.4-5.8-4.27-12.51-5.87-19.45-7.11a75.82,75.82,0,0,0-17.91-.86c-5.67.34-11.32,1.18-17,1.8C174.83,282.08,174.4,282.1,174,282.14Z" transform="translate(-56.02 -229.24)"/><path d="M433,383.73,432,384c-.23,0-.56.08-.69-.05-1.12-1.07-2.19-.94-3.32,0-1.74,1.46-3.65,1-5.41.14-2.71-1.33-5.34-2.82-8-4.31a12.82,12.82,0,0,1-2.55-1.9,2.48,2.48,0,0,1-.52-1.58c0-1.48,1.84-3.61,3.22-3.9a1,1,0,0,0,.62-.63c.3-1.24,1.06-1.34,2-.8,2.77,1.59,5.48,3.28,8.27,4.82a14.44,14.44,0,0,0,2.78.81,3.21,3.21,0,0,1,1.24.5c1,.94,1.91,2,2.91,3a16.73,16.73,0,0,0-1.76-.94,1,1,0,0,0-.72.29c.21,1.2.28,2.46,1.7,3C432.29,382.72,432.63,383.31,433,383.73Z" transform="translate(-56.02 -229.24)"/><path d="M416.3,365c-.17-.23-.35-.46-.51-.7s-.35-.61-.53-.92a6.77,6.77,0,0,0,1-.09c.16,0,.44-.21.43-.3a1.5,1.5,0,0,0-.27-.9c-.51-.45-1.11-.79-1.66-1.19a2.52,2.52,0,0,1-.41-.45c.2-.1.41-.3.61-.29a14.7,14.7,0,0,1,2.4.28c.73.16,1.36,1.37,2.2.09.06-.09.77.24,1.18.37-.09-.39-.19-.79-.27-1.2s-.13-.72-.19-1.07a3.62,3.62,0,0,1,1.34.14,11,11,0,0,1,3.37,2.32c1.25,1.48,3.12,2.44,4.76,3.57.69.47,1.48.8,2.45,1.32-1.15.38-1.43.5-.57,1.57s1,2.85,1.12,4.34a2.35,2.35,0,0,1-1.52,1.75,14.73,14.73,0,0,1-4.47-.46,26.19,26.19,0,0,1-8.51-4.46c-.57-.4-1.51-.78-.55-1.76a4.79,4.79,0,0,0-.86-1.16c-.08-.09-.43.13-.61.06a12.56,12.56,0,0,1-1.23-.59,1.75,1.75,0,0,1,.59-.24c.18,0,.36.13.55.2Zm1.24-.54-.05.35a13.07,13.07,0,0,0,1.64.28c.27,0,.56-.22.84-.35a3.81,3.81,0,0,0-.85-.27C418.6,364.39,418.07,364.43,417.54,364.43Z" transform="translate(-56.02 -229.24)"/><path d="M431,348.2c-.73.09-1.47.16-2.2.29-.16,0-.28.31-.42.47l-.49.6a4.48,4.48,0,0,1-.32-.91c0-.13.23-.35.39-.43,1.41-.7,2.81-1.4,4.23-2.06.24-.11.76-.12.81,0,.71,1.5,2.09.92,3.23,1.13,1.44.26,2.87.61,4.31.94.11,0,.22.21.27.34s-.09.27,0,.37c.26.65.55,1.29.83,1.93-1.25.21-.89,1.13-1,2a2.19,2.19,0,0,1-1.73,2.31c-.41.1-.83.81-1,1.31-.35,1.22-.43,2.51-.82,3.7a2.33,2.33,0,0,1-1.32,1.42,9.25,9.25,0,0,1-6.91-1.15,7.2,7.2,0,0,0-1.73-.45,1.45,1.45,0,0,1-.7-.38c-.52-.58-1-1.26-1.49-1.82-.78-.79-1.64-1.5-2.44-2.28-.14-.14-.13-.43-.18-.65,1.16.38,1.56-2.1,3-.83.11.09.94-.51,1.3-.91.53-.61.85-.83,1.1.16.19.74.5,1,1,.16.36-.65.7-1.31,1.1-1.92.09-.14.4-.12.6-.2l1.35-.6c-.33-.49-.66-1-1-1.47a.88.88,0,0,0-.46.23,10.17,10.17,0,0,0-.57.88c-.08-.18-.29-.42-.23-.53a6.31,6.31,0,0,1,.79-1.19,2.56,2.56,0,0,1,.67-.43l1.84,1.79a18,18,0,0,0-1.16,2c-.09.21.26.6.41.9.44-.48,1-.91,1.26-1.48.13-.34-.33-.92-.53-1.39a17.17,17.17,0,0,0,0-2.38c-.11-.83-.74-1.06-1.51-.82C430.36,347.08,430.9,347.68,431,348.2Zm5.72,2.08a6.57,6.57,0,0,0,.07-1.59c-.05-.27-.46-.47-.71-.7a3.29,3.29,0,0,0,0,1.08,6.67,6.67,0,0,0,.7,1.21c-1.2-.63-1.24.62-1.73,1.11-.11.11-.06.49,0,.68s.47.08.6,0c.84-.67,1.65-1.39,2.46-2.08-.06,0,.13.2.38.32s.35-.11.54-.17c-.18-.28-.3-.64-.55-.81C437.32,348.47,437.38,350,436.75,350.28Zm-2.8-.39,1.14-.81c-.25-.21-.5-.59-.76-.59s-.53.36-.68.63S433.8,349.52,434,349.89Z" transform="translate(-56.02 -229.24)"/><path d="M165.63,289c.39.91.18,1.36-.9,1.28a12.23,12.23,0,0,0-2.77,0c-1.39.21-2.75.63-4.13,1a11.65,11.65,0,0,1-1.4.39c-2.16.24-4.32.41-6.48.66-.28,0-.52.36-.78.55-.46-.18-.9-.39-1.37-.53-.64-.19-1.3-.29-1.93-.49-.18-.06-.3-.33-.44-.5l.66-.11.62-.08a8.9,8.9,0,0,0-.57-1.21c0-.07-.46,0-.65.12-.5.31-1,.68-1.37,1a4.33,4.33,0,0,1-.1,1.1c0,.13-.64.25-.67.21-1-1.85-1.92-.88-2.87.08a1.05,1.05,0,0,1-.71.21c-2.33.05-4.66.06-7,.12a6,6,0,0,0-1.3.31,11.79,11.79,0,0,0,1.06,1.34c.12.12.5,0,1.1-.08l-1.19,1,0,0L129,293.07a10.47,10.47,0,0,0,1.67-.47,13.11,13.11,0,0,0,1.58-1c.07,0,.12-.15.19-.16,1.57-.1,2.45-1.34,3.61-2.14,2.81-1.94,6.06-1.28,9.16-1.49a19.9,19.9,0,0,1,2.56-.06c1.35.08,2.39-.11,2.78-1.71.12-.5.94-.83,1.43-1.23l.29.28-.61.83c-.19.27-.58.74-.52.81a2.15,2.15,0,0,0,1.05.73,3.12,3.12,0,0,0,1.31-.26c2.2-.64,4.4-1.31,6.6-1.94.2-.06.46.07.74.37-1,.32-2,.63-2.92,1a5,5,0,0,0-.74.34c.28.07.6.25.85.19,3.19-.78,6.37-1.6,9.54-2.41a4,4,0,0,1,1.56-.19c-.61.77-1.26,1.53-1.84,2.33a7.11,7.11,0,0,0-.51,1.12c-.44-1.11-1.1-.31-1.4,0s-.31.93-.41,1.42c0,.05.26.14.4.21Z" transform="translate(-56.02 -229.24)"/><path d="M477.37,408l1.26-.46.16.25c-.36.28-.69.72-1.11.82-2.44.61-3.1,2.85-4.29,4.6-1.39,2-2.65,4.17-4.12,6.15-.85,1.14-1.69,1-2.6-.06-1.78-2.08-1.66-2.39-.59-5a43,43,0,0,0,1.35-5.62,7.17,7.17,0,0,1,.79-1.85c.43-.7,1-1.33,1.52-2.08.06.2.11.38.18.55s.22.36.33.54c.14-.19.45-.45.4-.56-.4-.93.29-1.08.84-1.56a34.67,34.67,0,0,0,3.83-3.93c1.23-1.47,2.26-3.11,3.44-4.62.19-.24.72-.21,1.1-.31,0,.32,0,.64,0,1a3.2,3.2,0,0,1-.11.93,1.89,1.89,0,0,1-.49.72c-.51.46-1.05.88-1.58,1.32l.28.33a1.52,1.52,0,0,0,.32-.12l1.25-.83c0,.68.27,1.55-.06,2a16.64,16.64,0,0,1-2.41,2.15c-.16.14-.36.52-.31.58.8.89.13,1.54-.33,2.23-.33.51-.31.49.34.62.17,0,.3.3.44.46s.24.4.4.44a6.84,6.84,0,0,0,1.11.11c-.32.21-.66.42-1,.65s-.34.29-.51.44Zm-2.52-6.26-.38-.32-1.86,2.23.35.3Z" transform="translate(-56.02 -229.24)"/><path d="M313.33,379.3c.44.59.29.86-.33,1.36-1.9,1.56-3.67,3.28-5.47,5-.15.13-.09.46-.18.68s-.21.41-.35.43a10.54,10.54,0,0,1-1.38.08h0l-.71-2.37c-1.1,0-2.16,0-3.22,0-.12,0-.26.16-.35.27s-.24.53-.33.52c-1.22-.13-1.34,1.17-2.13,1.61-.2.11-.25.61-.23.92,0,.14.38.42.52.38a2.39,2.39,0,0,0,.83-.51c.09-.07.06-.27.14-.34.51-.48,1-1,1.57-1.39,0,0,.52.31.5.39-.22.72-.29,1.73-.8,2.08a13.55,13.55,0,0,1-3.46,1.49c-.23.08-.65-.41-1.07-.69a2.2,2.2,0,0,0,0,.63c.54,2,0,2.88-2.11,3.47-1.44.41-2.78,1.14-4.21,1.6-1.68.54-3.36,1.37-5.19.63a1.71,1.71,0,0,1-.77-.71,1.47,1.47,0,0,0-2.41-.44c-.18.17-.59.12-.89.18a6.27,6.27,0,0,0-2.13.6c-.24.16,0,1.1.08,1.69l0,0a2.88,2.88,0,0,1-.35.86,3,3,0,0,1-1.05.77c-.18.08-.52-.15-.75-.29-.39-.25-.76-.54-1.13-.82a3.94,3.94,0,0,0-.58,1.28c0,.17.61.4.86.55-.87.25-1.84.54-2.82.79a.53.53,0,0,1-.44-.21.47.47,0,0,1,.07-.44q2.47-1.91,5-3.79c.15-.12.28-.27.42-.4-.13-.11-.25-.3-.37-.3-1.33,0-2.55-1-4-.3-.44.23-1.28-.31-2-.83a16.14,16.14,0,0,1,3.1-.11,19.5,19.5,0,0,0,8.17-.91,39.51,39.51,0,0,0,13-5.82c2.48-1.78,4.92-3.62,7.37-5.43,1-.72,1.91-1.47,2.88-2.18.61-.45,1.16-.46,1.54.31-.58.41-1.21.49-1.46,1.51s-1.68,1.26-2.83,1.43c-.21,0-.33.81-.43,1.26,0,.08.42.36.45.33.7-.67,1.24-.56,1.72.27.05.09.47,0,.72-.09a7.88,7.88,0,0,0,1-.2,1.75,1.75,0,0,0,.45-.25c-.4-.75,1.72-.89.45-1.83a2.8,2.8,0,0,1,.65-.27,3.42,3.42,0,0,1,.71,0,2.4,2.4,0,0,0-.09-.86,18.5,18.5,0,0,0-1-1.59l.37-.9c.39.76.79,1.51,1.17,2.27.12.24.21.49.31.73a2.38,2.38,0,0,0,.6-.53c.52-.82.86-1.9,2.22-1.35C313.23,379.51,313.29,379.37,313.33,379.3Zm-19.75,10.26c.65.4,1.21.77,1.79,1.09a1.14,1.14,0,0,0,.58.08c.13-.55.21-1.11.31-1.67a7.64,7.64,0,0,0-1.77-.14C294.14,389,293.83,389.38,293.58,389.56Z" transform="translate(-56.02 -229.24)"/><path d="M479.56,424.88c-.71-.93-1.35-1.67-1.88-2.48-1.42-2.17-.57-4.35.06-6.52a.77.77,0,0,1,.56-.45c1.29,0,1.49-1,2.12-1.78.93-1.18,1.52-2.89,3.42-3.15.36-.05.75-.69.92-1.13.31-.8.36-1.69.7-2.46.18-.41.76-.94,1.13-.92a3.69,3.69,0,0,0,2.8-1.23,34.29,34.29,0,0,1,2.95-2.43,1.06,1.06,0,0,1,1.06.1c.31.34.61.88-.3,1.09-.19.05-.42.91-.27,1.21a1.82,1.82,0,0,1-.82,2.6c-1.66,1-1.89,2.93-2.86,4.36a21,21,0,0,1-2.63,2.88,5.77,5.77,0,0,1-1.12.71c-.09.06-.19.16-.28.16-.42,0-.85-.05-1.28-.08,0,.68-.32,1.57,0,2,1.24,1.75-.16,2.77-.91,3.95a20.44,20.44,0,0,1-1.85,2.4A10.5,10.5,0,0,1,479.56,424.88Z" transform="translate(-56.02 -229.24)"/><path d="M375.22,334.19c-.15-.75.17-1.1.92-1.17s1.6-.3,2.4-.31c.39,0,1.41-.46,1,.77a1.2,1.2,0,0,0,.74.41,1.53,1.53,0,0,1,1.81,1.2c.13.39-.43,1.07-.79,1.54-1,1.36-1.94,2.68-1.59,4.57s-.54,2.86-2.56,2.91c-1.56,0-3.12.26-4.69.35a4.06,4.06,0,0,1-1.12-.21,10.6,10.6,0,0,0,1.32-1.39,3.45,3.45,0,0,0,.24-1.23l-1.34-.08-.69,0c.22-.18.43-.49.68-.53.71-.09,1.66.23,1.42-1.09,0-.07.22-.24.23-.23a5.67,5.67,0,0,1,.62.58c.13.15.24.32.37.48.11-.17.36-.4.32-.5-.52-1.28.47-.64.85-.64a1.72,1.72,0,0,1,.95.32c.83.61,1.38.87,1.25-.61,0-.3.53-.66.83-1a7.31,7.31,0,0,1,.59-.52c-.31,0-.62-.09-.94-.11a2.77,2.77,0,0,0-.56.07c.09-.23.2-.65.27-.64.9.06,1.38-1.59,2.49-.61,0,0,.31-.06.31-.1a.85.85,0,0,0-.09-.44c-.31-.53-.57-1.39-1-1.49a2.87,2.87,0,0,0-1.82.64c-.53.35-.7,1.6-1.67.52,0,0-.33.1-.34.19-.18.79-.47.76-1.15.4-.32-.18-1,.27-1.91.58l2.66-2.63Z" transform="translate(-56.02 -229.24)"/><path d="M336.86,370.43a9,9,0,0,0-.19,1.44c0,.7.2,1.39.24,2.08a14.48,14.48,0,0,1,0,1.61l0,0c-.38-1.21-1.43-.48-2.13-.75.21.53.41,1.06.63,1.59a1.46,1.46,0,0,0,.21.32l-.21.22a2.87,2.87,0,0,1-1-.08,3.52,3.52,0,0,1-.79-.67,5.72,5.72,0,0,0-.57,1.06,2,2,0,0,1-3.31,1c-.13-.13-.13-.39-.19-.59l0,0c.27-.63.52-1.27.81-1.89.09-.19.29-.32.41-.5a.92.92,0,0,0,.13-.4c-.21-.09-.5-.27-.63-.2-.75.44-1.43.82-1.62-.49a.32.32,0,0,0-.07-.1,2.25,2.25,0,0,0-.5.29c-.31.3-1.41-.13-.86,1a1.59,1.59,0,0,1-1.35,2.36,12,12,0,0,0-1.48.4l1.07-1.77c.21-.34.66-.69.63-1-.27-2.29,1.57-1.71,2.72-2,1-.29,2.21-.11,2.72-1.39,0-.09.43-.14.58-.06,1.2.68,2.05-.06,3-.66a12.27,12.27,0,0,1,1.81-.8Z" transform="translate(-56.02 -229.24)"/><path class="cls-1" d="M238.08,374.09c.75.13.72,1.51,1.79,1.13-.08.23-.19.44-.25.67s-.15.71-.22,1.07c.17,0,.44-.21.51-.15.44.4,1.05.78,1.19,1.28.37,1.35.66,2.69,2.14,3.27.34.13.75.05,1.11.16a2.91,2.91,0,0,1,.68.46l0,0c-.32.17-.93.42-.91.52.33,1.36-.74,1.93-1.44,2.7h0c-.73-.16-1.46-.27-2.18-.47-.24-.07-.43-.35-.64-.53.25,0,.5,0,.74.07a3,3,0,0,0,.86.15,1.07,1.07,0,0,0,.6-.51c.05-.1-.19-.44-.36-.53a11.82,11.82,0,0,0-1.71-.75c-1.2-.41-2.42-.75-3.61-1.2-.15-.06-.19-.58-.16-.88.06-.49.74-1.16-.44-1.26a14.82,14.82,0,0,1,0-1.64l0,0,1.81.37v-1.53a2.18,2.18,0,0,0-.22-.31c-.35-.36-.72-.7-1.09-1.06l1.3-.79C237.77,374.21,237.93,374.16,238.08,374.09Z" transform="translate(-56.02 -229.24)"/><path class="cls-1" d="M132.46,295.24l1.19-1c-.6.05-1,.2-1.1.08a11.79,11.79,0,0,1-1.06-1.34,6,6,0,0,1,1.3-.31c2.32-.06,4.65-.07,7-.12a1.05,1.05,0,0,0,.71-.21c1-1,1.84-1.93,2.87-.08,0,0,.63-.08.67-.21a4.33,4.33,0,0,0,.1-1.1c.39-.27.87-.64,1.37-1,.19-.12.6-.19.65-.12a8.9,8.9,0,0,1,.57,1.21l-.62.08-.66.11c.14.17.26.44.44.5.63.2,1.29.3,1.93.49.47.14.91.35,1.37.53a1.11,1.11,0,0,1,.07.16c.1,1-1.3,1.72-2.63,1.47a7.59,7.59,0,0,0-2.42.08A2.3,2.3,0,0,1,142,294c-.36-.38-.87-.92-1.24.21-.1.32-1.15.37-1.77.47-.13,0-.3-.27-.46-.42a1.66,1.66,0,0,0-.43-.37c-.05,0-.21.21-.33.31-.4.32-.78.86-1.22.91C135.17,295.26,133.81,295.21,132.46,295.24Z" transform="translate(-56.02 -229.24)"/><path d="M231.59,294.67c-2.2-1.56-4.47-2.89-7.33-2.61.1-.37.1-.49.14-.51.37-.18.75-.33,1.12-.5-.44-.12-.91-.21-1.34-.37-.7-.26-1.39-.56-2.08-.85a28.83,28.83,0,0,0-3.9-1.56c-.84-.21-1.79.12-2.12-1.09-.05-.16-.6-.21-.92-.27s-1.09,0-1.34-.21a4.66,4.66,0,0,1-.6-1.53c.47,0,.95.05,1.41.13a16.89,16.89,0,0,1,1.74.4,21.87,21.87,0,0,1,4.34,1.32c3,1.6,5.88,3.41,8.76,5.21a22.31,22.31,0,0,1,2.4,2Z" transform="translate(-56.02 -229.24)"/><path d="M496.14,397.33a8.33,8.33,0,0,1-.76,1.14c-.95,1-1.52,2.38-3.11,2.73-.62.14-1.1.82-1.72,1.12a8.51,8.51,0,0,1-1.7.46,5,5,0,0,1,.22-1.36c.35-.75.66-1.75,1.29-2.1a47.58,47.58,0,0,1,5.27-2.28C495.75,397,496,397.24,496.14,397.33Z" transform="translate(-56.02 -229.24)"/><path class="cls-1" d="M308.56,379.29a18.5,18.5,0,0,1,1,1.59,2.4,2.4,0,0,1,.09.86,3.42,3.42,0,0,0-.71,0,2.8,2.8,0,0,0-.65.27c1.27.94-.85,1.08-.45,1.83a1.75,1.75,0,0,1-.45.25,7.88,7.88,0,0,1-1,.2c-.25.05-.67.18-.72.09-.48-.83-1-.94-1.72-.27,0,0-.47-.25-.45-.33.1-.45.22-1.22.43-1.26,1.15-.17,2.57-.4,2.83-1.43s.88-1.1,1.46-1.51Z" transform="translate(-56.02 -229.24)"/><path d="M197.38,282.16l11.11,1.31-2.27.65v.39c2,.28,4.34-1,5.73,1.68-.52,0-1.3.24-1.72-.05a6,6,0,0,0-3.63-1.09,22.49,22.49,0,0,1-3.44-.44,5.11,5.11,0,0,1-.62-.22c.22-.16.44-.44.65-.44a20.77,20.77,0,0,1,2.09.16l.07-.47-8-1.14Z" transform="translate(-56.02 -229.24)"/><path d="M315.79,387.54l.77-1.08c.1.21.34.53.28.6-.42.48-.89.92-1.35,1.36a1.73,1.73,0,0,1-.25.17,4.6,4.6,0,0,1,.31.53c.16.38.3.77.45,1.16l-1.5-.33c.33-.53-1.6-.47-.32-1.24-.12-.17-.22-.46-.37-.49-.54-.1-1.24-.34-1.62-.1-.81.49-1.08.12-1.33-.51-.05-.13.06-.32.09-.48.13.06.27.14.41.19s.34.15.38.1c.75-.83,1.45-1.7,2.22-2.51a9,9,0,0,1,1.34-1c.11.34.43.85.31,1a16.42,16.42,0,0,1-1.61,1.5c-.18.16-.34.36-.51.54.26.09.51.21.78.28S315.06,387.39,315.79,387.54Z" transform="translate(-56.02 -229.24)"/><path d="M91.63,263.23c-.46,1-.9,2.11-1.39,3.14-.11.21-.44.31-.66.45a3.4,3.4,0,0,1-.38-.88c-.13-1-.17-2.1-.29-3.14s-.2-1.94,1-2.11c1.41-.19,1.36.94,1.4,1.89,0,.17,0,.34,0,.51Z" transform="translate(-56.02 -229.24)"/><path d="M375.22,334.19h0c-.67,0-1.36-.32-1.9.57-.2.33-1.15.34-1.74.28-2.09-.2-3.75.93-5.55,1.64a4.11,4.11,0,0,1-1,.12c.14-.32.21-.74.46-.92a4.4,4.4,0,0,1,1.46-.75c2.16-.61,4.32-1.23,6.52-1.68C374,333.35,374.63,333.93,375.22,334.19Z" transform="translate(-56.02 -229.24)"/><path d="M80.2,263.09a7.94,7.94,0,0,1,1.33-1.71c.24-.18,1,.06,1.31.31a1.27,1.27,0,0,1,.4,2c-.54.69-1.15,1.31-1.72,2Z" transform="translate(-56.02 -229.24)"/><path d="M340.9,366.37l1.06,1.05-.28.17c-1.07-.24-1.41.58-1.88,1.27a3.87,3.87,0,0,1-2.94,1.57l0,0c.83-1.37,1.62-2.78,2.55-4.07C339.6,366.15,340.39,366.36,340.9,366.37Z" transform="translate(-56.02 -229.24)"/><path d="M132.23,273c-.69.7-1.28,1.32-1.89,1.93-.43.44-.86.88-1.33,1.28a2.06,2.06,0,0,1-.63.24,1.51,1.51,0,0,1-.11-.57,7.52,7.52,0,0,1,2.39-4.14c.14-.12.54-.17.63-.07A12.27,12.27,0,0,1,132.23,273Z" transform="translate(-56.02 -229.24)"/><path d="M323.13,385c0,.11,0,.39-.12.48-1.35,1-2.72,2.08-4.12,3.06-.22.16-.64.06-1,0,0,0-.05-.29-.08-.44a3.6,3.6,0,0,0,.89-.15,10,10,0,0,0,1.22-.72l-.79-.56a4.26,4.26,0,0,1-.63-.46c.26-.49.58-1,.88-1.43l.41.88Z" transform="translate(-56.02 -229.24)"/><path class="cls-1" d="M313.33,379.3c0,.07-.1.21-.1.21-1.36-.55-1.7.53-2.22,1.35a2.38,2.38,0,0,1-.6.53c-.1-.24-.19-.49-.31-.73-.38-.76-.78-1.51-1.17-2.27,0-.17-.06-.34-.08-.51.2.05.49,0,.59.15,1,1.14,1.87,1.12,2.8,0a2.34,2.34,0,0,1,.48-.39l.35.12c.09.52.17,1,.26,1.56Z" transform="translate(-56.02 -229.24)"/><path d="M313.33,379.29c-.09-.52-.17-1-.26-1.56a4.85,4.85,0,0,0,1.52-.65c.75-.71,1.33-1.6,2.07-2.34a14.86,14.86,0,0,1,1.78-1.35l.25.26c-.61.77-1.2,1.56-1.83,2.31-.88,1.05-1.78,2.08-2.72,3.09C314,379.22,313.6,379.21,313.33,379.29Z" transform="translate(-56.02 -229.24)"/><path d="M242.7,385.18c.7-.77,1.77-1.34,1.44-2.7,0-.1.59-.35.91-.52.13.36-.83,1.37.58,1,0,.67.24,1.65-.1,2-.94.86-.32,1.19.27,1.65v0c-.48-.08-1.38-.19-1.38-.22C244.57,384.85,243.62,385,242.7,385.18Z" transform="translate(-56.02 -229.24)"/><path d="M130.29,249.13c-.27.55-.5,1-.71,1.46-.54,1.18-1.05,2.36-1.59,3.53a8,8,0,0,1-.44.74c-.12-.31-.43-.68-.34-.9.67-1.73,1.4-3.43,2.15-5.13.08-.18.37-.26.57-.39Z" transform="translate(-56.02 -229.24)"/><path class="cls-1" d="M276.36,408.86a2.06,2.06,0,0,0,.61-.11c1.28-.61,1.53-.47,1.59.57-.61.24-1.07.46-1.54.59a7.57,7.57,0,0,1-1.63.31c-.79,0-1.59,0-2.41,0,0-.52,1.73-1.42,3.41-1.37Z" transform="translate(-56.02 -229.24)"/><path d="M132.36,267.16c-1.28-1.06.66-2,.38-3.06l2.32-.56c0,.27,0,.63-.11.81C134.13,265.29,133.25,266.2,132.36,267.16Z" transform="translate(-56.02 -229.24)"/><path d="M327.8,386.87c-.84.77-1.68,1.55-2.53,2.3,0,0-.39-.14-.38-.2s.08-.43.21-.49c.79-.38,1-.78.25-1.46-.14-.13,0-.61,0-.93a5.09,5.09,0,0,0,.66.12c.27,0,.54-.07.8,0a6,6,0,0,1,.84.17Z" transform="translate(-56.02 -229.24)"/><path d="M312.72,377.61a2.34,2.34,0,0,0-.48.39c-.93,1.15-1.84,1.17-2.8,0-.1-.13-.39-.1-.59-.15l2.52-2.91.27.17a8.12,8.12,0,0,1-.41,1.38c-.1.21-.44.32-.69.43a6,6,0,0,1-.75.25c.2.23.4.64.6.64A23,23,0,0,0,312.72,377.61Z" transform="translate(-56.02 -229.24)"/><path d="M230.79,286.22l-6.74-3.73C225.39,282.26,229.37,284.42,230.79,286.22Z" transform="translate(-56.02 -229.24)"/><path d="M236.18,319.34a2.84,2.84,0,0,1-.13-.46c0-.35,0-.71,0-1.06.13,0,.33,0,.39.08a3.36,3.36,0,0,1,.73,1.25,2.6,2.6,0,0,1-.43,1.38,2.47,2.47,0,0,1-.83.77c-.1.06-.49-.1-.49-.12a4.71,4.71,0,0,1,.27-1.06A4.17,4.17,0,0,1,236.18,319.34Z" transform="translate(-56.02 -229.24)"/><path d="M283.52,409.34l-.36.05c.25-.47.38-1.11.77-1.34a7.52,7.52,0,0,1,2.33-.82c.18,0,.47.54.72.83v0Z" transform="translate(-56.02 -229.24)"/><path d="M240,310.61a27.37,27.37,0,0,1-.65,3.11c-.11.36-.67.57-1,.85a5.41,5.41,0,0,1,0-1.21c.26-.91.58-1.81.91-2.7a5.9,5.9,0,0,1,.45-.81Z" transform="translate(-56.02 -229.24)"/><path d="M316.28,383.18c-.08,0-.25-.05-.28-.12s-.07-.39,0-.45c.87-.71,1.75-1.39,2.65-2a1.74,1.74,0,0,1,.52.67c.05.23-.16.51-.26.77-.59-.33-.85-.29-.47.43-.4.11-.8.2-1.19.33S316.63,383,316.28,383.18Z" transform="translate(-56.02 -229.24)"/><path d="M338,373.37l1.64.66c-2,1-2,1-2.35-2.58l1.63,1.08Z" transform="translate(-56.02 -229.24)"/><path d="M293.87,382.61c-1.6.65-3.21,1.32-4.82,1.95a2,2,0,0,1-.7,0,2.28,2.28,0,0,1,.34-.74,1.33,1.33,0,0,1,.67-.33q2.2-.57,4.41-1.11Z" transform="translate(-56.02 -229.24)"/><path d="M190.65,282.78l-6.37.69-.05-.54,6.39-.58Z" transform="translate(-56.02 -229.24)"/><path d="M300,400.46a4.94,4.94,0,0,1,2.41-3.62c.16-.09.42,0,.63,0,0,.2,0,.54-.13.56-1.22.3-1.59,1.25-1.87,2.32a4.73,4.73,0,0,1-.65,1.06Z" transform="translate(-56.02 -229.24)"/><path d="M404.9,333h-5.07v-.54C401.46,331.94,403,332.38,404.9,333Z" transform="translate(-56.02 -229.24)"/><path class="cls-1" d="M274.76,403.92l-.12,1.17-.66-.59c-.06-.05-.16-.15-.21-.13-2.35.71-.84-1.07-1.1-1.7l0,0,1.18.26Z" transform="translate(-56.02 -229.24)"/><path d="M191.75,283.85a9.55,9.55,0,0,1,1.76-.13c.29,0,.54.39.82.6a4.27,4.27,0,0,1-.94.3,14.07,14.07,0,0,1-1.59,0c-.44,0-.87-.09-1.3-.16,0,0,0-.3,0-.33.38-.17.78-.31,1.17-.46Z" transform="translate(-56.02 -229.24)"/><path d="M321,378.61c.79-.64,1.45-1.21,2.15-1.73a.63.63,0,0,1,.61.06.91.91,0,0,1,.13.7C323.71,378.1,321.65,378.86,321,378.61Z" transform="translate(-56.02 -229.24)"/><path d="M341.68,367.59l.28-.17a.36.36,0,0,1,.13.11c.76-.13,1.51-.29,2.28-.37a2.45,2.45,0,0,1,.88.23,3.8,3.8,0,0,1-.8.55c-.89.35-1.8.64-2.69,1l0,0Z" transform="translate(-56.02 -229.24)"/><path d="M312.36,393.8a19.55,19.55,0,0,1,2-.57c.25-.05.55.13.83.21a3.31,3.31,0,0,1-.62.5C312.88,394.81,312.88,394.8,312.36,393.8Z" transform="translate(-56.02 -229.24)"/><path d="M293.37,396.66a5.27,5.27,0,0,1-1.09.64c-.08,0-.55-.58-.49-.78a9.18,9.18,0,0,1,.83-1.58Z" transform="translate(-56.02 -229.24)"/><path d="M237,328.87c0,.21.15.53.05.71s-.45.38-.68.57a3.17,3.17,0,0,1-.16-.66,15,15,0,0,1,0-1.64,4.15,4.15,0,0,1,.24-.81,2.69,2.69,0,0,1,.56.78A3.4,3.4,0,0,1,237,328.87Z" transform="translate(-56.02 -229.24)"/><path d="M292,405.05a15,15,0,0,1-1.63,1c-.09,0-.4-.42-.61-.65l1.71-1.32Z" transform="translate(-56.02 -229.24)"/><path d="M302.28,402h-.6c-.12-.36-.44-.94-.31-1.06a5.65,5.65,0,0,1,1.39-.77c.06.16.23.36.18.48C302.76,401.07,302.51,401.51,302.28,402Z" transform="translate(-56.02 -229.24)"/><path d="M311.12,391.26l1.65.55a7.26,7.26,0,0,1-1.53,1c-.13.05-.55-.66-.83-1Z" transform="translate(-56.02 -229.24)"/><path d="M370.65,344.73c-.74.23-1.49.49-2.25.7a1.72,1.72,0,0,1-.65-.1c.13-.19.23-.48.41-.54C369,344.5,369.79,343.48,370.65,344.73Z" transform="translate(-56.02 -229.24)"/><path d="M474.3,397.56a14.52,14.52,0,0,1,.89-1.53.87.87,0,0,1,.73-.11,9.93,9.93,0,0,1,.48,1.36c-.23-.13-.52-.41-.68-.35a7.05,7.05,0,0,0-1.16.73Z" transform="translate(-56.02 -229.24)"/><path class="cls-1" d="M165.63,289l-.27.6c-.14-.07-.4-.16-.4-.21.1-.49.1-1.11.41-1.42s1-1.09,1.4,0Z" transform="translate(-56.02 -229.24)"/><path d="M469,389.45c.7-.51,1.38-1,2.1-1.52a1.57,1.57,0,0,1,.67-.12c-.06.25,0,.6-.2.74-.62.55-1.29,1-1.94,1.53Z" transform="translate(-56.02 -229.24)"/><path d="M320,383.1l-.51-.47,1.59-1.28.49.64Z" transform="translate(-56.02 -229.24)"/><path d="M341.76,368.9a2.13,2.13,0,0,1,.26.26c.29.42.56.86.83,1.28l-1.72-.2c.21-.46.43-.91.65-1.36Z" transform="translate(-56.02 -229.24)"/><path d="M157.7,296.73l-3.06.36-.06-.51,3.06-.38Z" transform="translate(-56.02 -229.24)"/><path d="M109.15,287a8.31,8.31,0,0,1-1.5.9c-.16.05-.46-.34-.69-.53a4.7,4.7,0,0,1,1.05-.75C108.21,286.57,108.55,286.81,109.15,287Z" transform="translate(-56.02 -229.24)"/><path d="M414.61,336.26l-3.38-1.83.12-.25,3.48,1.63Z" transform="translate(-56.02 -229.24)"/><path class="cls-1" d="M238.07,360.55c-.49.72-1,.88-1.57.09a2.85,2.85,0,0,1-.14-1.12,9.39,9.39,0,0,1,1.12.51,3.56,3.56,0,0,1,.61.56Z" transform="translate(-56.02 -229.24)"/><path d="M199,284.14q-1,.17-2,.3c-.14,0-.36-.11-.41-.05a2,2,0,0,0-.25.53c-.08-.15-.26-.33-.21-.42.11-.25.29-.62.48-.64.79-.07,1.6,0,2.4,0Z" transform="translate(-56.02 -229.24)"/><path d="M170.05,285l1.81.58a6.58,6.58,0,0,1-1.56.5c-.26,0-.57-.37-.85-.58Z" transform="translate(-56.02 -229.24)"/><path d="M335.39,377l.21-.22,1.29-1.16,0,0c.48.78-.22,1.15-.62,1.56C336.14,377.24,335.69,377,335.39,377Z" transform="translate(-56.02 -229.24)"/><path d="M237.63,376.45V378l-1.81-.37Z" transform="translate(-56.02 -229.24)"/><path d="M323.28,379.47a12.13,12.13,0,0,1-.6,1.44c-.12.21-.41.33-.63.49,0-.22-.17-.5-.08-.66.28-.53.65-1,1-1.51Z" transform="translate(-56.02 -229.24)"/><path d="M350.4,343a12.8,12.8,0,0,1,1.56-1c.15-.08.47.18.72.29a2.28,2.28,0,0,1-.52.42c-.53.21-1.08.36-1.63.54Z" transform="translate(-56.02 -229.24)"/><path d="M440.68,346.33c-.75,0-1.51,0-2.25-.14-.27,0-.49-.35-.73-.54a2.07,2.07,0,0,1,.78-.15c.77.18,1.52.44,2.28.67Z" transform="translate(-56.02 -229.24)"/><path d="M347.57,357.33c.48-.31.95-.63,1.44-.92a2.73,2.73,0,0,1,.34.39L348,357.88Z" transform="translate(-56.02 -229.24)"/><path d="M194.44,326.08h-3.17l0-.24h3.17Z" transform="translate(-56.02 -229.24)"/><path d="M120.07,255.76a8.13,8.13,0,0,1,.61,1.4c0,.12-.48.5-.55.46-.33-.21-.72-.48-.81-.81S119.7,256.26,120.07,255.76Z" transform="translate(-56.02 -229.24)"/><path d="M140.1,282.93l.49.36a9.3,9.3,0,0,1-1.27.84c-.14.06-.44-.25-.67-.39Z" transform="translate(-56.02 -229.24)"/><path d="M308.74,397.33a4.06,4.06,0,0,1-.09-1.24c0-.16.56-.22.87-.27,0,0,.23.43.16.52a11,11,0,0,1-1,1Z" transform="translate(-56.02 -229.24)"/><path d="M274.12,395.66c.07.29.28.62.2.84a1.14,1.14,0,0,1-.68.71c-.2.05-.72-.33-.71-.5s.32-.61.51-.91Z" transform="translate(-56.02 -229.24)"/><path d="M329.53,377.71l0,0L328.37,379c.15-.49.31-1,.44-1.46a5.46,5.46,0,0,0,.12-.86Z" transform="translate(-56.02 -229.24)"/><path d="M194.33,282.2l1.79.24c-.14.19-.29.53-.42.53a12.51,12.51,0,0,1-1.46-.28Z" transform="translate(-56.02 -229.24)"/><path d="M273.83,403l-1.18-.26c.59-.3,1.21-.58.32-1.26a2.73,2.73,0,0,1-.39-.44c.3,0,.83,0,.86.05A17.46,17.46,0,0,1,273.83,403Z" transform="translate(-56.02 -229.24)"/><path d="M279.28,396.83c.35-.2.69-.42,1.05-.59a1.44,1.44,0,0,1,.78-.18c.15,0,.22.4.32.61-.23,0-.54-.06-.68.06-.48.42-.92.76-1.45.08Z" transform="translate(-56.02 -229.24)"/><path d="M283.4,397.13a4,4,0,0,1-.23,1c-.15.28-.36.65-.61.71s-.48-.32-.73-.51a2.8,2.8,0,0,0,.73-.3A8.05,8.05,0,0,0,283.4,397.13Z" transform="translate(-56.02 -229.24)"/><path d="M268,393.53l2.22.15,0,.37H268Z" transform="translate(-56.02 -229.24)"/><path d="M332.8,370.42l-.7.45c-.22-.41-.44-.82-.63-1.23,0,0,.41-.29.45-.25A12.54,12.54,0,0,1,332.8,370.42Z" transform="translate(-56.02 -229.24)"/><path d="M305.65,386.81h0l.11.17Z" transform="translate(-56.02 -229.24)"/><path class="cls-1" d="M216.83,326.22c-3.38-1.28-6.71-2.7-10.15-3.81s-7.24-2.09-10.89-3a21.62,21.62,0,0,0-4.54-.57c-2.91-.08-5.74-1.42-8.72-.49a5.19,5.19,0,0,1-1.88-.19,19.57,19.57,0,0,0-7.83.49,22.59,22.59,0,0,1-5.23.41c-.63,0-1.27,0-1.91,0-1.76-.08-3.52-.2-5.29-.25a8,8,0,0,0-1.74.24,9.09,9.09,0,0,1-1.18.21,13.38,13.38,0,0,1,7.95-2.52c2.71-.09,5.41-.57,8.12-.85,1.31-.13,2.63-.14,3.94-.31,1.79-.23,3.58-.54,5.37-.87,4.83-.89,9.67-.58,14.5-.15,6.88.61,13.6,2,19.65,5.41,4.38,2.49,7.45,6.27,7.89,11.52.14,1.71-.59,3.5-.86,5-1.07-.63-2-1.16-2.9-1.71-.11-.07-.24-.35-.21-.38s.37-.41.57-.42c1.52,0,.41-1.36.91-1.92.06-.06-.62-1.08-.81-1-1.82.44-2.1-1.36-3.09-2.06a12.68,12.68,0,0,1-2-2.11l.74-.4,3.48,2.37c-.43-1.43-3.92-4.22-5.49-4.48Z" transform="translate(-56.02 -229.24)"/><path class="cls-1" d="M239.78,417.76c2.27,1.13,4.49,2.37,6.81,3.35a33.67,33.67,0,0,0,6,1.95,48.36,48.36,0,0,1,7.58,2.07c2.27.88,4.88.86,7.4,1.25,0-.33,0-.43,0-.45l-1.09-.53a8.19,8.19,0,0,1,1.28-.3,13.07,13.07,0,0,1,1.77,0c.55,0,1.26,0,.8.92,0,.06.22.36.33.36,2.79-.06,5.55-.06,8.23-1.17a57.33,57.33,0,0,1,6-1.72c1.34-.4,2.66-.83,4-1.3.19-.07.26-.47.39-.71a3.12,3.12,0,0,1,.25-.35c1.17.86,1.94-.23,2.87-.57a14.46,14.46,0,0,1,1.63-.44l.32.44a13.47,13.47,0,0,1-1.35,1A45.63,45.63,0,0,1,278.62,428a39.71,39.71,0,0,1-8.79,1.29c-3.42.08-7,.15-10.26-.78a58.19,58.19,0,0,1-18.43-8.71,10,10,0,0,1-1.57-1.89Z" transform="translate(-56.02 -229.24)"/><path class="cls-1" d="M306.37,404.86c-.87.45-1.75.64-2.14,1.19a7.72,7.72,0,0,0-.72,2.47,4.74,4.74,0,0,1,.83.12c.18.05.32.24.48.37-.15.12-.34.21-.43.37-.2.34-.56.75-.5,1.07a1.92,1.92,0,0,1-1.89,2.48,4.64,4.64,0,0,0-3.64,1.47,8.53,8.53,0,0,1-.76.53,8.68,8.68,0,0,1-.23-1c-.22-1.69,1.66-1.74,2.26-2.81.15-.27.57-.36.79-.6a2.68,2.68,0,0,0,.35-.72,3.1,3.1,0,0,0-.75.22c-.69.39-1.34.86-2,1.23a3.2,3.2,0,0,1-.9.18c0-.41-.24-.94-.06-1.19a17.68,17.68,0,0,1,2.46-2.85A6.42,6.42,0,0,1,302.1,406c.82-.19.93-.47.85-1.17,0-.25.16-.52.25-.79.09.19.14.45.29.56a.66.66,0,0,0,.58,0,2.5,2.5,0,0,0,.55-.69c.44-.83.66-1.94,2.07-1.19.22.12.76-.37,1.17-.56a4.67,4.67,0,0,1,.64-.18,2.69,2.69,0,0,1-.26.57c-.09.13-.31.16-.39.29a9.44,9.44,0,0,0-.62,1.23s.42.3.46.26c.29-.28.52-.63.81-.92a3.92,3.92,0,0,1,.68-.43,3.17,3.17,0,0,1,0,.69c-.3,1.18-.55,2.38-2.16,2.45-.21,0-.41.46-.61.7a2.3,2.3,0,0,1,.71.11c.26.13.69.47.65.54a2.69,2.69,0,0,1-.86,1.24c-.21.12-1-.27-1.1-.58a3.29,3.29,0,0,1,0-1.68A11.42,11.42,0,0,1,306.37,404.86Z" transform="translate(-56.02 -229.24)"/><path class="cls-1" d="M257.76,404.69c-1.12.92-2.23,1.85-3.38,2.73-.1.07-.45-.21-.69-.33,1-.6-.07-1-.15-1.53-.12-.77-.15-1.3.87-1.35.8,0,1.59-.26,2.39-.33.25,0,.51.19.77.3Z" transform="translate(-56.02 -229.24)"/><path class="cls-1" d="M242.7,385.18c.92-.14,1.87-.33,1.73,1.16,0,0,.9.14,1.38.22.32.43.64.86.95,1.3s.42.64.63,1c-.38.08-.85.35-1.1.22a15.74,15.74,0,0,1-1.89-1.38s0-.08,0-.12c-1.54,1.13-.73-2-2.09-1.16l.45-1.2Z" transform="translate(-56.02 -229.24)"/><path class="cls-1" d="M263,402c-.74.06-1.29.13-1.84.13a8.44,8.44,0,0,1-1.1-.13l.41-1.08a8.91,8.91,0,0,1-1.06.54c-.29.1-.69.24-.91.12s-.44-.54-.66-.82c.36-.12.74-.39,1.07-.33a28.68,28.68,0,0,1,3.68.79C262.83,401.25,262.93,401.83,263,402Z" transform="translate(-56.02 -229.24)"/><path class="cls-1" d="M144.06,299.6c-.07.7-1.58-.19-1.16,1-.22-.07-.54-.09-.64-.24a1.24,1.24,0,0,0-1.71-.54c-.21.09-.56-.18-.85-.29a2.92,2.92,0,0,1,.72-.52,15,15,0,0,0,2.37-.78c1-.59.71.07.69.55l.57.81Z" transform="translate(-56.02 -229.24)"/><path class="cls-1" d="M247.22,403c1.9-.24,1.57,1.42,2.11,2.32.09.16-.33.63-.51,1a1.94,1.94,0,0,1-.51-.36c-.45-.62-.9-1.25-1.3-1.91a1.67,1.67,0,0,1-.14-.78,2.94,2.94,0,0,1,.15-.62Z" transform="translate(-56.02 -229.24)"/><path class="cls-1" d="M144.06,299.6v0l.89-.62c1-.31,1-.31,2.38.34l0,0c-.24.41-.39,1-.74,1.17s-.86-.19-1.31-.29a.7.7,0,0,0-.5.05c-.32.22-.61.5-1.2,1Z" transform="translate(-56.02 -229.24)"/><path class="cls-1" d="M144.94,299l-.89.62-.57-.81a3.49,3.49,0,0,0,.4-1c0-.25-.2-.53-.32-.8a13,13,0,0,1,1.49-.28c.22,0,.46.16.69.27s.49.26.73.39c-.18.21-.35.42-.54.62S145.27,298.68,144.94,299Z" transform="translate(-56.02 -229.24)"/><path d="M216.83,326.22l-1.56-1.92c1.57.26,5.06,3.05,5.49,4.48l-3.48-2.37Z" transform="translate(-56.02 -229.24)"/><path class="cls-1" d="M260.81,403.86a9.71,9.71,0,0,0-.41,1.14c-.16.67-.37,1.41.77,1.44.18,0,.34.28.51.43-.21.16-.5.49-.62.44a8.33,8.33,0,0,1-1.92-1.12c-.11-.09.29-.85.53-1.26a12,12,0,0,1,.89-1.23Z" transform="translate(-56.02 -229.24)"/><path class="cls-1" d="M310.82,402.14a1.89,1.89,0,0,1-2.3-.83c-.11-.14-.89.23-1.59.43.26-.5.46-1.32.74-1.35.69-.07,1.45.41,2.13.33,1.42-.16.88.82,1,1.44Z" transform="translate(-56.02 -229.24)"/><path class="cls-1" d="M231.79,343.75c.56.64,1.14,1.27,1.64,2,.06.09-.37.53-.58.8,0-.19.16-.43.09-.55s-.38-.23-.56-.37a11.69,11.69,0,0,1-1.11-1c-.1-.12,0-.42,0-.64Z" transform="translate(-56.02 -229.24)"/><path class="cls-1" d="M262.64,393.59c-.13.07-.35.32-.53.3a3.25,3.25,0,0,1-1.32-.42c-.23-.15-.25-.6-.36-.92a1.77,1.77,0,0,0,.45.3.65.65,0,0,0,.44-.15c.31-.19.59-.4.89-.61C262.33,392.53,262.46,393,262.64,393.59Z" transform="translate(-56.02 -229.24)"/><path class="cls-1" d="M310.8,402.16c1.35.91,1.41,1.3.3,2.07-.22.16-.45.3-.67.44a3.44,3.44,0,0,1-.07-.95,15,15,0,0,1,.46-1.58Z" transform="translate(-56.02 -229.24)"/><path class="cls-1" d="M249,426.37l3.77,1.68-.15.36L248.79,427Z" transform="translate(-56.02 -229.24)"/><path class="cls-1" d="M249.87,386.85c.89.29,1.77.57,2.65.89.09,0,.12.22.18.34a2.28,2.28,0,0,1-.79.28,3.14,3.14,0,0,1-1.52-.3c-.3-.21-.34-.81-.5-1.23Z" transform="translate(-56.02 -229.24)"/><path class="cls-1" d="M283.52,409.34,287,408l.41,1.3Z" transform="translate(-56.02 -229.24)"/><path class="cls-1" d="M254.26,389.39a2.53,2.53,0,0,0-.34.73,2.32,2.32,0,0,0,.17.76l-1.12-.5s0-.09,0-.11l-.87-.91h1.83a2.45,2.45,0,0,1,.38,0Z" transform="translate(-56.02 -229.24)"/><path class="cls-1" d="M261.92,399.62c-.34.21-.69.51-.76.45a11.05,11.05,0,0,1-1.28-1.28s.19-.31.29-.48Z" transform="translate(-56.02 -229.24)"/><path class="cls-1" d="M148.15,304c0,.15-.05.21-.07.22-.3.11-.68.38-.9.29a5.37,5.37,0,0,1-1.25-.95,3.41,3.41,0,0,1,.4-.54c.41-.41.7-.58.7.26,0,.18.41.38.66.54A2.58,2.58,0,0,0,148.15,304Z" transform="translate(-56.02 -229.24)"/><path class="cls-1" d="M251.15,400.41c1.1-.18,1.1-.18,1.84,1.92Z" transform="translate(-56.02 -229.24)"/><path class="cls-1" d="M251.91,394.7c-.87.13-1.74.26-2.61.37-.09,0-.19-.19-.29-.3.25-.17.49-.48.74-.48.68,0,1.37.11,2.06.17Z" transform="translate(-56.02 -229.24)"/><path class="cls-1" d="M256.44,391.42l-.89-.54a5.19,5.19,0,0,1,1.31-.52c.25,0,.55.33.82.51Z" transform="translate(-56.02 -229.24)"/><path class="cls-1" d="M263.26,408.15c-.17,1.37-.6,1.53-2.4.75Z" transform="translate(-56.02 -229.24)"/><path class="cls-1" d="M261.86,396.59a7.42,7.42,0,0,1,1.77.13c.2.06.37.56.33.82s-.41.34-.64.51a1.82,1.82,0,0,0-.27-.56A13.6,13.6,0,0,0,261.86,396.59Z" transform="translate(-56.02 -229.24)"/><path class="cls-1" d="M245.2,406.2a13.91,13.91,0,0,1,1.92.51c.15.06.12.57.18.87l-.56-.28-1.64-.74Z" transform="translate(-56.02 -229.24)"/><path class="cls-1" d="M243.08,404.41c-.37-.54-.64-.94-.9-1.35,0,0,.28-.28.32-.26.48.3.95.63,1.42,1Z" transform="translate(-56.02 -229.24)"/><path class="cls-1" d="M251.13,402.12l1.55,1c-.14.05-.3.19-.41.15-.63-.24-1.25-.51-1.88-.77Z" transform="translate(-56.02 -229.24)"/><path class="cls-1" d="M134.36,297l2.83-.15v.37h-2.9Z" transform="translate(-56.02 -229.24)"/><path class="cls-1" d="M446.25,374.55c.49.13,1,.22,1.48.39,1.12.41,2.23.82,3.31,1.31.26.12.41.51.61.77a2.84,2.84,0,0,1-.83,0c-1.58-.65-3.15-1.32-4.72-2Z" transform="translate(-56.02 -229.24)"/><path class="cls-1" d="M457.86,363.78a10.31,10.31,0,0,0-.76-2c-.2-.31-.74-.4-1.05-.91a5.85,5.85,0,0,1,1.66.51C458.62,362,458.62,362.27,457.86,363.78Z" transform="translate(-56.02 -229.24)"/><path class="cls-1" d="M442.67,371.44c-.35.28-.56.5-.62.47-.5-.27-1-.59-1.46-.9.14-.13.33-.39.4-.36C441.5,370.85,442,371.11,442.67,371.44Z" transform="translate(-56.02 -229.24)"/><path class="cls-1" d="M243.64,379.6c-.63-.88-1.33-1.83-2-2.8a.65.65,0,0,1,0-.5c.28-.1.65-.25.88-.14C243.4,376.55,244,378.72,243.64,379.6Z" transform="translate(-56.02 -229.24)"/><path class="cls-1" d="M443.12,391.38c1.83.21,3.1,1.44,4.39,2.6.07.07.05.23.07.34a1.42,1.42,0,0,1-.59-.05c-1.38-.81-2.75-1.64-4.13-2.46Z" transform="translate(-56.02 -229.24)"/><path class="cls-1" d="M417.54,364.43c.53,0,1.06,0,1.58,0a3.81,3.81,0,0,1,.85.27c-.28.13-.57.36-.84.35a13.07,13.07,0,0,1-1.64-.28Z" transform="translate(-56.02 -229.24)"/><path class="cls-1" d="M436.75,350.28c.63-.27.57-1.81,1.77-1,.25.17.37.53.55.81-.19.06-.42.23-.54.17s-.44-.37-.38-.32c-.81.69-1.62,1.41-2.46,2.08-.13.11-.56.11-.6,0s-.15-.57,0-.68c.49-.49.53-1.74,1.73-1.11Z" transform="translate(-56.02 -229.24)"/><path class="cls-1" d="M432.85,350,431,348.18l0,0c-.13-.52-.67-1.12.27-1.42.77-.24,1.4,0,1.51.82a17.17,17.17,0,0,1,0,2.38Z" transform="translate(-56.02 -229.24)"/><path class="cls-1" d="M432.83,350c.2.47.66,1,.53,1.39-.21.57-.82,1-1.26,1.48-.15-.3-.5-.69-.41-.9a18,18,0,0,1,1.16-2Z" transform="translate(-56.02 -229.24)"/><path class="cls-1" d="M434,349.89c-.15-.37-.37-.65-.3-.77s.45-.64.68-.63.51.38.76.59Z" transform="translate(-56.02 -229.24)"/><path class="cls-1" d="M436.75,350.28h0a6.67,6.67,0,0,1-.7-1.21,3.29,3.29,0,0,1,0-1.08c.25.23.66.43.71.7A6.57,6.57,0,0,1,436.75,350.28Z" transform="translate(-56.02 -229.24)"/><path class="cls-1" d="M474.85,401.74,473,404l-.35-.3,1.86-2.23Z" transform="translate(-56.02 -229.24)"/><path class="cls-1" d="M293.58,389.56c.25-.18.56-.59.91-.64a7.64,7.64,0,0,1,1.77.14c-.1.56-.18,1.12-.31,1.67a1.14,1.14,0,0,1-.58-.08C294.79,390.33,294.23,390,293.58,389.56Z" transform="translate(-56.02 -229.24)"/><path class="cls-1" d="M336.89,375.58l-1.29,1.16a1.46,1.46,0,0,1-.21-.32c-.22-.53-.42-1.06-.63-1.59C335.46,375.1,336.51,374.37,336.89,375.58Z" transform="translate(-56.02 -229.24)"/></svg>