<svg id="Layer_1" data-name="Layer 1" xmlns="http://www.w3.org/2000/svg" viewBox="0 0 444.51 643.5"><defs><style>.cls-1{fill:#fff;}</style></defs><title>Untitled-2</title><path d="M470.47,249.4m-1.25.37M306.28,155.35m28.17,214.26M464,260.41c6.88,5.28,14.15,3.89,21.2,4,7.34.08,14.7-1.59,22.06-2.5.52-.07,1-.22,1.55-.32-.25.34-.49.69-.73,1s-.26.42-.4.62a4.18,4.18,0,0,0,1,.42c5.33.81,10.72,1.32,15.95,2.55,1.63.38,2.8,2.7,4.19,4.13-2,1.4-3.83,3.29-6,4.09-3.55,1.28-7.38,1.76-11,2.79-.92.25-1.62,1.88-2.43,1.88-8.93,0-17.87,0-26.8-.33-5.7-.19-11.6-2-17-.91-3.5.69-6.43,5-9.31,8.05-9.34,9.78-17.84,20.5-27.94,29.4-15.93,14-32.5,27.43-49.6,40-8.61,6.34-19,10.32-28.62,15.21-.49.25-1.73-1.05-2.66-1.56a6.6,6.6,0,0,0-1.22-.3c-.33-.12-.65-.49-.95-.47-1.74.16-3.47.4-5.21.57a3.85,3.85,0,0,0-.17-.89c-.42-.78-5.31-2.07-5.31-2.07a17.22,17.22,0,0,1-2.44,1.28c-.8.28-2.42.22-2.44.42-.18,2.13.28,4.38-.26,6.38-.36,1.34-2.05,2.33-3.15,3.47-.07-.52-.16-1-.2-1.57s0-.95-.05-1.42a8.13,8.13,0,0,0-1.71,1c-1,1.05-1.76,2.52-2.95,3.24a41.63,41.63,0,0,1-6.52,2.94c-2.24.87-4.55,1.58-6.86,2.24-.05,0-.49-1.28-.74-2,0,.91.32,2.06-.11,2.7-1.35,2-3.18,3.68-4.47,5.71-2.33,3.71-4,7.94-6.72,11.27-2.89,3.49-6.8,6.12-10.16,9.23q-16.33,15.13-32.61,30.35c-1.82,1.7-3.32,4.32-5.42,4.93-1.9.54-4.62-2-6.63-1.54-2.87.63-5.26,3.29-8.13,4-3.34.86-7,.62-10.48.8a6.32,6.32,0,0,1-1.64-.43c-4.92-1.22-9.9-2.23-14.73-3.72-3.24-1-2-6.53,2.79-11,13.43-12.59,26.24-26,40.69-37.3,13.27-10.4,28.1-18.91,42.69-27.5,21.9-12.89,45.6-23.23,65.86-38.25,16.74-12.42,29.63-30,44.15-45.43.95-1,1.2-2.67,1.81-4,2.51-5.53,1.94-7.61-5.29-8.35-18.87-1.95-38.19-3.32-56.22-8.66-22.44-6.65-34.79-24.88-40.63-47.05-5.69-21.67-4.27-43.14,3.66-64.13,3.87-12.88,15-18.28,25.1-25.79,9.8-7.26,19.48-15.12,30.35-20.4C377.8,99.15,396,93.14,414.85,95.74c29.34,4,49.39,20.75,55.74,50,4.46,20.54,4.84,46.73,7.4,67.66-.29,3.26-.85,6.5-1.07,9.75-.19,2.68.22,5.4-.11,8.05a48.57,48.57,0,0,1-2,8.37c-.51,1.63-1.75,3-2.24,4.65-1,3.3-5.17,9.24-8.53,16.17" transform="translate(-84.29 -95.13)"/><path d="M174.92,690.28c-10.58-4.67-21.21-9.21-31.69-14.06-6.07-2.81-12.73-5.18-17.61-9.48s-8.05-10.93-12.13-16.4c-1.82-2.45-4.18-4.49-6.09-6.88-.54-.69-.36-2-.52-3a8.83,8.83,0,0,1,2.86.7q19.65,13.47,39.2,27.07c9,6.26,17.93,12.62,26.86,19a2.2,2.2,0,0,1,.79,1.7C176.55,689.37,175.72,689.69,174.92,690.28Z" transform="translate(-84.29 -95.13)"/><path d="M243.38,511.17c-6.9-3.71-15.34-6.75-21.93-12.08-15.86-12.84-30.85-26.74-46.18-40.23-.29-.26-.32-.81-.47-1.23a5.23,5.23,0,0,1,1.5.2c23.4,11.1,43.53,26.79,62.31,44.39,2.29,2.15,4.85,4,7.25,6,.31.26.59,1.05.45,1.23C246,509.91,245.37,510.09,243.38,511.17Z" transform="translate(-84.29 -95.13)"/><path d="M157.67,711.72c-1.38.29-2.48.9-3,.58-15-9.94-30.56-19.22-44.72-30.27-7.72-6-13.11-15-19.5-22.74A7.6,7.6,0,0,1,89.6,657c1.21.48,2.65.69,3.6,1.48,11.47,9.6,22.74,19.44,34.33,28.89,9.39,7.66,19.13,14.89,28.7,22.33A12.27,12.27,0,0,1,157.67,711.72Z" transform="translate(-84.29 -95.13)"/><path d="M123.83,738.63c-10-3.71-21.44-7-31.8-12.25-3.85-2-5.38-8.63-7.7-13.28-.32-.65,1.22-3,1.35-3,3.2,1.07,6.6,1.91,9.4,3.69,9.83,6.26,19.48,12.82,29.12,19.37,1.11.75,1.8,2.13,2.69,3.22Z" transform="translate(-84.29 -95.13)"/><path d="M217.52,557.44c-7.42-4.33-15.54-8.35-22.85-13.51-13.23-9.33-26-19.33-38.89-29.13-.87-.66-1.25-2-1.86-3,1.54.52,3.27.74,4.59,1.6,11.42,7.36,22.83,14.73,34.11,22.32,9,6.09,17.89,12.47,26.8,18.76a1.41,1.41,0,0,1,.39,1.29C219.67,556.19,219.07,556.38,217.52,557.44Z" transform="translate(-84.29 -95.13)"/><path d="M202.7,598.86c-6.61-3.92-13.66-8-20.6-12.25-8.3-5.08-16.84-9.87-24.64-15.65-6.42-4.75-11.92-10.75-17.76-16.27-.07-.06.69-1.43,1.08-1.44a4,4,0,0,1,2.09.86q24,16.11,47.94,32.28c4.63,3.13,9.12,6.46,13.62,9.76a1.79,1.79,0,0,1,.38,1.5C204.76,597.93,204.09,598.09,202.7,598.86Z" transform="translate(-84.29 -95.13)"/><path d="M120.08,611.35c3.71,3.19,7.22,6.59,11.11,9.47,11.67,8.63,23.51,17,35.25,25.56,5.53,4,11,8.14,16.42,12.31.44.34.39,1.33.57,2-2-.56-4.35-.68-6.07-1.74-10.93-6.74-22.34-12.93-32.42-20.8-9.33-7.28-17.2-16.43-25.69-24.78a1.68,1.68,0,0,1-.35-1.29C118.94,611.85,119.51,611.69,120.08,611.35Z" transform="translate(-84.29 -95.13)"/><path d="M189.23,631.27c-5.53-3.2-11.24-6.15-16.58-9.65-8.29-5.45-16.65-10.9-24.4-17.06-6.75-5.37-12.72-11.72-19-17.7-.5-.47-.55-1.42-.8-2.15a11,11,0,0,1,2.73,1q25.23,18.25,50.41,36.6,4.24,3.09,8.39,6.31a2.29,2.29,0,0,1,.71,1.61C190.72,630.51,190,630.79,189.23,631.27Z" transform="translate(-84.29 -95.13)"/><path d="M343.92,358.23l0,0" transform="translate(-84.29 -95.13)"/><path class="cls-1" d="M373.28,107" transform="translate(-84.29 -95.13)"/><path class="cls-1" d="M328,174.59" transform="translate(-84.29 -95.13)"/><path class="cls-1" d="M329.81,165.16" transform="translate(-84.29 -95.13)"/></svg>